G75*
G70*
%OFA0B0*%
%FSLAX24Y24*%
%IPPOS*%
%LPD*%
%AMOC8*
5,1,8,0,0,1.08239X$1,22.5*
%
%ADD10C,0.0040*%
%ADD11C,0.0220*%
%ADD12C,0.0010*%
%ADD13C,0.0080*%
%ADD14C,0.0030*%
%ADD15R,0.0180X0.0300*%
%ADD16C,0.0060*%
%ADD17C,0.0050*%
%ADD18C,0.0160*%
%ADD19R,0.0160X0.0230*%
%ADD20R,0.0300X0.0180*%
%ADD21C,0.0020*%
%ADD22R,0.0240X0.0340*%
D10*
X018344Y022977D02*
X018651Y022977D01*
X018804Y023130D01*
X018651Y023284D01*
X018344Y023284D01*
X018344Y023437D02*
X018344Y023668D01*
X018421Y023744D01*
X018727Y023744D01*
X018804Y023668D01*
X018804Y023437D01*
X018344Y023437D01*
X018574Y023284D02*
X018574Y022977D01*
X018574Y023898D02*
X018574Y024051D01*
X018344Y023898D02*
X018344Y024205D01*
X018574Y024358D02*
X018574Y024665D01*
X018421Y024819D02*
X018344Y024895D01*
X018344Y025049D01*
X018421Y025125D01*
X018421Y025279D02*
X018344Y025356D01*
X018344Y025509D01*
X018421Y025586D01*
X018574Y025586D01*
X018651Y025509D01*
X018651Y025432D01*
X018574Y025279D01*
X018804Y025279D01*
X018804Y025586D01*
X018727Y025125D02*
X018804Y025049D01*
X018804Y024895D01*
X018727Y024819D01*
X018421Y024819D01*
X018804Y024205D02*
X018804Y023898D01*
X018344Y023898D01*
X015687Y026171D02*
X015687Y026401D01*
X015610Y026478D01*
X015457Y026478D01*
X015380Y026401D01*
X015380Y026171D01*
X015227Y026171D02*
X015687Y026171D01*
X015687Y026631D02*
X015227Y026631D01*
X015380Y026785D01*
X015227Y026938D01*
X015687Y026938D01*
X015687Y027092D02*
X015687Y027322D01*
X015610Y027399D01*
X015457Y027399D01*
X015380Y027322D01*
X015380Y027092D01*
X015227Y027092D02*
X015687Y027092D01*
X015906Y026975D02*
X015906Y026821D01*
X015983Y026745D01*
X016136Y026821D02*
X016136Y026975D01*
X016059Y027052D01*
X015983Y027052D01*
X015906Y026975D01*
X016136Y026821D02*
X016213Y026745D01*
X016289Y026745D01*
X016366Y026821D01*
X016366Y026975D01*
X016289Y027052D01*
X016289Y027205D02*
X016136Y027359D01*
X015906Y027359D01*
X016136Y027359D02*
X016289Y027512D01*
X016366Y027512D01*
X016289Y027665D02*
X016213Y027665D01*
X016136Y027742D01*
X016136Y027896D01*
X016059Y027972D01*
X015983Y027972D01*
X015906Y027896D01*
X015906Y027742D01*
X015983Y027665D01*
X016289Y027665D02*
X016366Y027742D01*
X016366Y027896D01*
X016289Y027972D01*
X016136Y028126D02*
X016136Y028433D01*
X015983Y028586D02*
X015906Y028663D01*
X015906Y028816D01*
X015983Y028893D01*
X015983Y029047D02*
X015906Y029123D01*
X015906Y029277D01*
X015983Y029354D01*
X016059Y029354D01*
X016136Y029277D01*
X016136Y029200D01*
X016136Y029277D02*
X016213Y029354D01*
X016289Y029354D01*
X016366Y029277D01*
X016366Y029123D01*
X016289Y029047D01*
X016289Y028893D02*
X016366Y028816D01*
X016366Y028663D01*
X016289Y028586D01*
X015983Y028586D01*
X015687Y028473D02*
X015227Y028473D01*
X015380Y028626D01*
X015227Y028780D01*
X015687Y028780D01*
X015687Y028933D02*
X015687Y029240D01*
X015687Y029087D02*
X015227Y029087D01*
X015303Y028320D02*
X015227Y028243D01*
X015227Y028089D01*
X015303Y028013D01*
X015457Y028089D02*
X015534Y028013D01*
X015610Y028013D01*
X015687Y028089D01*
X015687Y028243D01*
X015610Y028320D01*
X015457Y028243D02*
X015380Y028320D01*
X015303Y028320D01*
X015457Y028243D02*
X015457Y028089D01*
X015457Y027859D02*
X015457Y027552D01*
X015227Y027399D02*
X015380Y027245D01*
X016289Y027205D02*
X016366Y027205D01*
X016906Y027512D02*
X016983Y027435D01*
X017289Y027742D01*
X016983Y027742D01*
X016906Y027665D01*
X016906Y027512D01*
X016983Y027435D02*
X017289Y027435D01*
X017366Y027512D01*
X017366Y027665D01*
X017289Y027742D01*
X016983Y027896D02*
X016983Y027972D01*
X016906Y027972D01*
X016906Y027896D01*
X016983Y027896D01*
X016906Y028126D02*
X016906Y028433D01*
X016906Y028279D02*
X017366Y028279D01*
X017213Y028126D01*
X017213Y028586D02*
X016983Y028586D01*
X016906Y028663D01*
X016906Y028893D01*
X017213Y028893D01*
X017136Y029047D02*
X017136Y029200D01*
X016906Y029047D02*
X017366Y029047D01*
X017366Y029354D01*
X014089Y029234D02*
X014089Y029541D01*
X013858Y029387D02*
X013858Y029234D01*
X013935Y029080D02*
X013628Y029080D01*
X013628Y028850D01*
X013705Y028773D01*
X013935Y028773D01*
X013628Y028620D02*
X013628Y028313D01*
X013628Y028466D02*
X014089Y028466D01*
X013935Y028313D01*
X013705Y028159D02*
X013628Y028159D01*
X013628Y028083D01*
X013705Y028083D01*
X013705Y028159D01*
X013705Y027929D02*
X013628Y027852D01*
X013628Y027699D01*
X013705Y027622D01*
X014012Y027929D01*
X013705Y027929D01*
X013705Y027622D02*
X014012Y027622D01*
X014089Y027699D01*
X014089Y027852D01*
X014012Y027929D01*
X013089Y027929D02*
X013012Y027852D01*
X012935Y027852D01*
X012858Y027929D01*
X012858Y028083D01*
X012782Y028159D01*
X012705Y028159D01*
X012628Y028083D01*
X012628Y027929D01*
X012705Y027852D01*
X012628Y027546D02*
X012858Y027546D01*
X013012Y027699D01*
X013089Y027699D01*
X013089Y027929D02*
X013089Y028083D01*
X013012Y028159D01*
X012858Y028313D02*
X012858Y028620D01*
X012705Y028773D02*
X012628Y028850D01*
X012628Y029003D01*
X012705Y029080D01*
X012858Y029234D02*
X012858Y029541D01*
X012628Y029464D02*
X013089Y029464D01*
X012858Y029234D01*
X013012Y029080D02*
X013089Y029003D01*
X013089Y028850D01*
X013012Y028773D01*
X012705Y028773D01*
X013628Y029234D02*
X014089Y029234D01*
X012858Y027546D02*
X013012Y027392D01*
X013089Y027392D01*
X013012Y027239D02*
X013089Y027162D01*
X013089Y027008D01*
X013012Y026932D01*
X012935Y026932D01*
X012858Y027008D01*
X012858Y027162D01*
X012782Y027239D01*
X012705Y027239D01*
X012628Y027162D01*
X012628Y027008D01*
X012705Y026932D01*
X021696Y025293D02*
X022157Y025293D01*
X022157Y025600D01*
X021926Y025446D02*
X021926Y025293D01*
X022003Y025139D02*
X021696Y025139D01*
X021696Y024909D01*
X021773Y024832D01*
X022003Y024832D01*
X022080Y024679D02*
X021773Y024372D01*
X021696Y024449D01*
X021696Y024602D01*
X021773Y024679D01*
X022080Y024679D01*
X022157Y024602D01*
X022157Y024449D01*
X022080Y024372D01*
X021773Y024372D01*
X021696Y024218D02*
X021696Y023911D01*
X021696Y024065D02*
X022157Y024065D01*
X022003Y023911D01*
X022921Y022211D02*
X023151Y021981D01*
X022845Y021981D01*
X022921Y021751D02*
X022921Y022211D01*
X023458Y022211D02*
X023458Y021751D01*
X023305Y021751D02*
X023612Y021751D01*
X023765Y021828D02*
X023842Y021751D01*
X023996Y021751D01*
X024072Y021828D01*
X024072Y022135D01*
X023996Y022211D01*
X023842Y022211D01*
X023765Y022135D01*
X023612Y022058D02*
X023458Y022211D01*
X024226Y021674D02*
X024533Y021674D01*
X024686Y021828D02*
X024763Y021751D01*
X024916Y021751D01*
X024993Y021828D01*
X024993Y022135D01*
X024916Y022211D01*
X024763Y022211D01*
X024686Y022135D01*
X025146Y022135D02*
X025223Y022211D01*
X025377Y022211D01*
X025453Y022135D01*
X025453Y021828D01*
X025377Y021751D01*
X025223Y021751D01*
X025146Y021828D01*
X025300Y021211D02*
X025300Y020751D01*
X025453Y020751D02*
X025146Y020751D01*
X024993Y020828D02*
X024686Y021135D01*
X024686Y020828D01*
X024763Y020751D01*
X024916Y020751D01*
X024993Y020828D01*
X024993Y021135D01*
X024916Y021211D01*
X024763Y021211D01*
X024686Y021135D01*
X024533Y021135D02*
X024456Y021211D01*
X024302Y021211D01*
X024226Y021135D01*
X024533Y020828D01*
X024456Y020751D01*
X024302Y020751D01*
X024226Y020828D01*
X024226Y021135D01*
X024072Y021058D02*
X024072Y020751D01*
X023765Y020751D02*
X023765Y020981D01*
X023842Y021058D01*
X024072Y021058D01*
X023612Y020981D02*
X023458Y020981D01*
X023612Y020751D02*
X023612Y021211D01*
X023305Y021211D01*
X024533Y021135D02*
X024533Y020828D01*
X025300Y021211D02*
X025453Y021058D01*
X027495Y020832D02*
X027495Y020678D01*
X027572Y020602D01*
X027879Y020909D01*
X027572Y020909D01*
X027495Y020832D01*
X027572Y020602D02*
X027879Y020602D01*
X027956Y020678D01*
X027956Y020832D01*
X027879Y020909D01*
X027879Y020448D02*
X027802Y020448D01*
X027495Y020141D01*
X027495Y020448D01*
X027879Y020448D02*
X027956Y020372D01*
X027956Y020218D01*
X027879Y020141D01*
X027879Y019988D02*
X027956Y019911D01*
X027956Y019758D01*
X027879Y019681D01*
X027572Y019681D01*
X027495Y019758D01*
X027495Y019911D01*
X027572Y019988D01*
X027419Y019527D02*
X027419Y019221D01*
X027572Y019067D02*
X027495Y018990D01*
X027495Y018837D01*
X027572Y018760D01*
X027879Y018760D01*
X027956Y018837D01*
X027956Y018990D01*
X027879Y019067D01*
X027879Y018607D02*
X027956Y018530D01*
X027956Y018376D01*
X027879Y018300D01*
X027572Y018300D01*
X027495Y018376D01*
X027495Y018530D01*
X027572Y018607D01*
X028495Y018760D02*
X028495Y019067D01*
X028495Y018914D02*
X028956Y018914D01*
X028802Y018760D01*
X028879Y019221D02*
X028572Y019221D01*
X028879Y019527D01*
X028572Y019527D01*
X028495Y019451D01*
X028495Y019297D01*
X028572Y019221D01*
X028879Y019221D02*
X028956Y019297D01*
X028956Y019451D01*
X028879Y019527D01*
X028879Y019681D02*
X028956Y019758D01*
X028956Y019911D01*
X028879Y019988D01*
X028572Y019681D01*
X028495Y019758D01*
X028495Y019911D01*
X028572Y019988D01*
X028879Y019988D01*
X028802Y020141D02*
X028802Y020372D01*
X028726Y020448D01*
X028495Y020448D01*
X028495Y020602D02*
X028956Y020602D01*
X028956Y020909D01*
X028726Y020755D02*
X028726Y020602D01*
X028802Y020141D02*
X028495Y020141D01*
X028572Y019681D02*
X028879Y019681D01*
X028938Y022878D02*
X028478Y022878D01*
X028478Y023185D02*
X028938Y023185D01*
X028785Y023032D01*
X028938Y022878D01*
X028862Y023339D02*
X028555Y023339D01*
X028478Y023415D01*
X028478Y023569D01*
X028555Y023645D01*
X028862Y023645D01*
X028938Y023569D01*
X028938Y023415D01*
X028862Y023339D01*
X028632Y023492D02*
X028478Y023645D01*
X028478Y023799D02*
X028785Y024106D01*
X028862Y024106D01*
X028938Y024029D01*
X028938Y023876D01*
X028862Y023799D01*
X028478Y023799D02*
X028478Y024106D01*
X028708Y024259D02*
X028708Y024566D01*
X028632Y024720D02*
X028632Y024950D01*
X028708Y025027D01*
X028862Y025027D01*
X028938Y024950D01*
X028938Y024720D01*
X028478Y024720D01*
X028632Y024873D02*
X028478Y025027D01*
X028478Y025180D02*
X028478Y025487D01*
X028478Y025334D02*
X028938Y025334D01*
X028785Y025180D01*
X029628Y025257D02*
X030088Y025257D01*
X030012Y025103D02*
X029705Y024796D01*
X029628Y024873D01*
X029628Y025027D01*
X029705Y025103D01*
X030012Y025103D01*
X030088Y025027D01*
X030088Y024873D01*
X030012Y024796D01*
X029705Y024796D01*
X029628Y024643D02*
X029628Y024336D01*
X029628Y024489D02*
X030088Y024489D01*
X029935Y024336D01*
X029782Y025257D02*
X029935Y025487D01*
X029782Y025257D02*
X029628Y025487D01*
X029924Y023245D02*
X029847Y023168D01*
X029847Y023091D01*
X030154Y022785D01*
X029847Y022785D01*
X029924Y023245D02*
X030077Y023245D01*
X030154Y023168D01*
X030307Y023168D02*
X030384Y023245D01*
X030538Y023245D01*
X030614Y023168D01*
X030614Y022861D01*
X030538Y022785D01*
X030384Y022785D01*
X030307Y022861D01*
X030768Y023015D02*
X031075Y023015D01*
X031228Y023168D02*
X031535Y022861D01*
X031458Y022785D01*
X031305Y022785D01*
X031228Y022861D01*
X031228Y023168D01*
X031305Y023245D01*
X031458Y023245D01*
X031535Y023168D01*
X031535Y022861D01*
X031689Y022861D02*
X031765Y022785D01*
X031919Y022785D01*
X031995Y022861D01*
X031689Y023168D01*
X031689Y022861D01*
X031995Y022861D02*
X031995Y023168D01*
X031919Y023245D01*
X031765Y023245D01*
X031689Y023168D01*
X032149Y023245D02*
X032456Y023245D01*
X032456Y023015D01*
X032302Y023091D01*
X032226Y023091D01*
X032149Y023015D01*
X032149Y022861D01*
X032226Y022785D01*
X032379Y022785D01*
X032456Y022861D01*
X032609Y022861D02*
X032686Y022785D01*
X032840Y022785D01*
X032916Y022861D01*
X032930Y022856D02*
X033237Y022549D01*
X033160Y022472D01*
X033007Y022472D01*
X032930Y022549D01*
X032930Y022856D01*
X033007Y022932D01*
X033160Y022932D01*
X033237Y022856D01*
X033237Y022549D01*
X033391Y022472D02*
X033697Y022472D01*
X033544Y022472D02*
X033544Y022932D01*
X033697Y022779D01*
X033851Y022856D02*
X033851Y022702D01*
X033928Y022625D01*
X034158Y022625D01*
X034158Y022472D02*
X034158Y022932D01*
X033928Y022932D01*
X033851Y022856D01*
X034004Y022625D02*
X033851Y022472D01*
X034311Y022702D02*
X034618Y022702D01*
X034772Y022856D02*
X034772Y022549D01*
X034848Y022472D01*
X035002Y022472D01*
X035079Y022549D01*
X034772Y022856D01*
X034848Y022932D01*
X035002Y022932D01*
X035079Y022856D01*
X035079Y022549D01*
X035232Y022549D02*
X035232Y022856D01*
X035539Y022549D01*
X035462Y022472D01*
X035309Y022472D01*
X035232Y022549D01*
X035129Y022293D02*
X035206Y022216D01*
X035129Y022293D02*
X034975Y022293D01*
X034899Y022216D01*
X034899Y022139D01*
X034975Y022062D01*
X034899Y021986D01*
X034899Y021909D01*
X034975Y021832D01*
X035129Y021832D01*
X035206Y021909D01*
X035359Y021832D02*
X035666Y021832D01*
X035819Y021832D02*
X035973Y021986D01*
X035896Y021986D02*
X036126Y021986D01*
X036126Y021832D02*
X036126Y022293D01*
X035896Y022293D01*
X035819Y022216D01*
X035819Y022062D01*
X035896Y021986D01*
X035666Y022139D02*
X035512Y022293D01*
X035512Y021832D01*
X035052Y022062D02*
X034975Y022062D01*
X035539Y022549D02*
X035539Y022856D01*
X035462Y022932D01*
X035309Y022932D01*
X035232Y022856D01*
X035129Y022982D02*
X035129Y023443D01*
X035282Y023366D02*
X035589Y023059D01*
X035512Y022982D01*
X035359Y022982D01*
X035282Y023059D01*
X035282Y023366D01*
X035359Y023443D01*
X035512Y023443D01*
X035589Y023366D01*
X035589Y023059D01*
X035692Y022932D02*
X035999Y022932D01*
X035999Y022702D01*
X035846Y022779D01*
X035769Y022779D01*
X035692Y022702D01*
X035692Y022549D01*
X035769Y022472D01*
X035923Y022472D01*
X035999Y022549D01*
X036153Y022549D02*
X036153Y022702D01*
X036230Y022779D01*
X036306Y022779D01*
X036460Y022702D01*
X036460Y022932D01*
X036153Y022932D01*
X036050Y022982D02*
X035743Y022982D01*
X035896Y022982D02*
X035896Y023443D01*
X036050Y023289D01*
X036137Y023712D02*
X036444Y023712D01*
X036290Y023712D02*
X036290Y024172D01*
X036444Y024019D01*
X035983Y024095D02*
X035983Y023788D01*
X035676Y024095D01*
X035676Y023788D01*
X035753Y023712D01*
X035906Y023712D01*
X035983Y023788D01*
X035983Y024095D02*
X035906Y024172D01*
X035753Y024172D01*
X035676Y024095D01*
X035523Y024019D02*
X035523Y023788D01*
X035446Y023712D01*
X035216Y023712D01*
X035216Y024019D01*
X035062Y023942D02*
X034909Y023942D01*
X035062Y023712D02*
X035062Y024172D01*
X034755Y024172D01*
X034295Y024172D02*
X034602Y023712D01*
X034142Y023712D02*
X033835Y023712D01*
X033988Y023712D02*
X033988Y024172D01*
X034142Y024019D01*
X033697Y023929D02*
X033544Y024082D01*
X033544Y023622D01*
X033604Y023712D02*
X033451Y023712D01*
X033374Y023788D01*
X033374Y023865D01*
X033451Y023942D01*
X033681Y023942D01*
X033681Y023788D01*
X033604Y023712D01*
X033697Y023622D02*
X033391Y023622D01*
X033237Y023622D02*
X033237Y024082D01*
X033084Y023929D01*
X032930Y024082D01*
X032930Y023622D01*
X033067Y023712D02*
X032914Y023865D01*
X032914Y024172D01*
X033221Y024172D02*
X033221Y023865D01*
X033067Y023712D01*
X033070Y023245D02*
X033070Y022785D01*
X033223Y022938D01*
X033377Y022785D01*
X033377Y023245D01*
X032916Y023245D02*
X032916Y023015D01*
X032763Y023091D01*
X032686Y023091D01*
X032609Y023015D01*
X032609Y022861D01*
X032609Y023245D02*
X032916Y023245D01*
X032840Y022245D02*
X032686Y022245D01*
X032609Y022168D01*
X032609Y022091D01*
X032686Y022015D01*
X032840Y022015D01*
X032916Y022091D01*
X032916Y022168D01*
X032840Y022245D01*
X032840Y022015D02*
X032916Y021938D01*
X032916Y021861D01*
X032840Y021785D01*
X032686Y021785D01*
X032609Y021861D01*
X032609Y021938D01*
X032686Y022015D01*
X032456Y022091D02*
X032226Y022091D01*
X032149Y022015D01*
X032149Y021861D01*
X032226Y021785D01*
X032456Y021785D01*
X032456Y021631D02*
X032456Y022091D01*
X031995Y022015D02*
X031842Y022015D01*
X031995Y022245D02*
X031689Y022245D01*
X031995Y022245D02*
X031995Y021785D01*
X033070Y021785D02*
X033377Y021785D01*
X033223Y021785D02*
X033223Y022245D01*
X033377Y022091D01*
X034899Y022982D02*
X035129Y023136D01*
X034899Y023289D01*
X033681Y023942D02*
X033528Y024095D01*
X033374Y024172D01*
X033437Y027064D02*
X033361Y027141D01*
X033437Y027064D02*
X033591Y027064D01*
X033667Y027141D01*
X033667Y027448D01*
X033591Y027524D01*
X033437Y027524D01*
X033361Y027448D01*
X033207Y027371D02*
X033054Y027524D01*
X033054Y027064D01*
X033207Y027064D02*
X032900Y027064D01*
X032747Y027141D02*
X032670Y027064D01*
X032516Y027064D01*
X032440Y027141D01*
X032440Y027218D01*
X032516Y027294D01*
X032593Y027294D01*
X032516Y027294D02*
X032440Y027371D01*
X032440Y027448D01*
X032516Y027524D01*
X032670Y027524D01*
X032747Y027448D01*
X033821Y027294D02*
X034128Y027294D01*
X034281Y027141D02*
X034358Y027064D01*
X034512Y027064D01*
X034588Y027141D01*
X034281Y027448D01*
X034281Y027141D01*
X034281Y027448D02*
X034358Y027524D01*
X034512Y027524D01*
X034588Y027448D01*
X034588Y027141D01*
X034742Y027141D02*
X034818Y027064D01*
X034972Y027064D01*
X035049Y027141D01*
X034742Y027448D01*
X034742Y027141D01*
X035049Y027141D02*
X035049Y027448D01*
X034972Y027524D01*
X034818Y027524D01*
X034742Y027448D01*
X035202Y027524D02*
X035509Y027524D01*
X035509Y027294D01*
X035356Y027371D01*
X035279Y027371D01*
X035202Y027294D01*
X035202Y027141D01*
X035279Y027064D01*
X035432Y027064D01*
X035509Y027141D01*
X035662Y027141D02*
X035739Y027064D01*
X035893Y027064D01*
X035969Y027141D01*
X035969Y027294D02*
X035816Y027371D01*
X035739Y027371D01*
X035662Y027294D01*
X035662Y027141D01*
X035969Y027294D02*
X035969Y027524D01*
X035662Y027524D01*
X036123Y027524D02*
X036123Y027064D01*
X036276Y027218D01*
X036430Y027064D01*
X036430Y027524D01*
X036613Y022932D02*
X036613Y022472D01*
X036767Y022625D01*
X036920Y022472D01*
X036920Y022932D01*
X036460Y022549D02*
X036383Y022472D01*
X036230Y022472D01*
X036153Y022549D01*
X036280Y022062D02*
X036587Y022062D01*
X036740Y021909D02*
X036817Y021832D01*
X036970Y021832D01*
X037047Y021909D01*
X036740Y022216D01*
X036740Y021909D01*
X036740Y022216D02*
X036817Y022293D01*
X036970Y022293D01*
X037047Y022216D01*
X037047Y021909D01*
X037201Y021909D02*
X037277Y021832D01*
X037431Y021832D01*
X037508Y021909D01*
X037201Y022216D01*
X037201Y021909D01*
X037508Y021909D02*
X037508Y022216D01*
X037431Y022293D01*
X037277Y022293D01*
X037201Y022216D01*
X037661Y022293D02*
X037968Y022293D01*
X037968Y022062D01*
X037814Y022139D01*
X037738Y022139D01*
X037661Y022062D01*
X037661Y021909D01*
X037738Y021832D01*
X037891Y021832D01*
X037968Y021909D01*
X038121Y021909D02*
X038198Y021832D01*
X038352Y021832D01*
X038428Y021909D01*
X038428Y022062D02*
X038275Y022139D01*
X038198Y022139D01*
X038121Y022062D01*
X038121Y021909D01*
X038428Y022062D02*
X038428Y022293D01*
X038121Y022293D01*
X038582Y022293D02*
X038582Y021832D01*
X038735Y021986D01*
X038889Y021832D01*
X038889Y022293D01*
X028267Y030088D02*
X028190Y030011D01*
X028113Y030011D01*
X028037Y030088D01*
X028037Y030241D01*
X027960Y030318D01*
X027883Y030318D01*
X027806Y030241D01*
X027806Y030088D01*
X027883Y030011D01*
X028267Y030088D02*
X028267Y030241D01*
X028190Y030318D01*
X028267Y030471D02*
X028267Y030625D01*
X028267Y030548D02*
X027806Y030548D01*
X027806Y030471D02*
X027806Y030625D01*
X027806Y030778D02*
X028267Y030778D01*
X028113Y030932D01*
X028267Y031085D01*
X027806Y031085D01*
X027883Y031239D02*
X027806Y031315D01*
X027806Y031469D01*
X027883Y031546D01*
X028190Y031546D01*
X028267Y031469D01*
X028267Y031315D01*
X028190Y031239D01*
X028113Y031239D01*
X028037Y031315D01*
X028037Y031546D01*
X028190Y031699D02*
X028267Y031776D01*
X028267Y031929D01*
X028190Y032006D01*
X027883Y031699D01*
X027806Y031776D01*
X027806Y031929D01*
X027883Y032006D01*
X028190Y032006D01*
X028190Y032159D02*
X028267Y032236D01*
X028267Y032390D01*
X028190Y032466D01*
X027883Y032159D01*
X027806Y032236D01*
X027806Y032390D01*
X027883Y032466D01*
X028190Y032466D01*
X028037Y032620D02*
X028037Y032927D01*
X027960Y033080D02*
X027960Y033310D01*
X028037Y033387D01*
X028190Y033387D01*
X028267Y033310D01*
X028267Y033080D01*
X027806Y033080D01*
X027960Y033234D02*
X027806Y033387D01*
X027883Y033541D02*
X027806Y033617D01*
X027806Y033771D01*
X027883Y033848D01*
X027960Y033848D01*
X028037Y033771D01*
X028037Y033694D01*
X028037Y033771D02*
X028113Y033848D01*
X028190Y033848D01*
X028267Y033771D01*
X028267Y033617D01*
X028190Y033541D01*
X027430Y033694D02*
X026970Y033694D01*
X026970Y033541D02*
X026970Y033848D01*
X026594Y033771D02*
X026594Y033617D01*
X026517Y033541D01*
X026517Y033387D02*
X026363Y033387D01*
X026287Y033310D01*
X026287Y033080D01*
X026287Y033234D02*
X026133Y033387D01*
X026133Y033541D02*
X026440Y033848D01*
X026517Y033848D01*
X026594Y033771D01*
X026517Y033387D02*
X026594Y033310D01*
X026594Y033080D01*
X026133Y033080D01*
X026363Y032927D02*
X026363Y032620D01*
X026210Y032466D02*
X026133Y032390D01*
X026133Y032236D01*
X026210Y032159D01*
X026517Y032466D01*
X026210Y032466D01*
X026210Y032159D02*
X026517Y032159D01*
X026594Y032236D01*
X026594Y032390D01*
X026517Y032466D01*
X026970Y032390D02*
X026970Y032236D01*
X027047Y032159D01*
X027353Y032466D01*
X027047Y032466D01*
X026970Y032390D01*
X027047Y032159D02*
X027353Y032159D01*
X027430Y032236D01*
X027430Y032390D01*
X027353Y032466D01*
X027200Y032620D02*
X027200Y032927D01*
X027123Y033080D02*
X027123Y033310D01*
X027200Y033387D01*
X027353Y033387D01*
X027430Y033310D01*
X027430Y033080D01*
X026970Y033080D01*
X027123Y033234D02*
X026970Y033387D01*
X027277Y033541D02*
X027430Y033694D01*
X027883Y032159D02*
X028190Y032159D01*
X028190Y031699D02*
X027883Y031699D01*
X027430Y031776D02*
X027430Y031929D01*
X027353Y032006D01*
X027047Y031699D01*
X026970Y031776D01*
X026970Y031929D01*
X027047Y032006D01*
X027353Y032006D01*
X027430Y031776D02*
X027353Y031699D01*
X027047Y031699D01*
X027047Y031546D02*
X026970Y031469D01*
X026970Y031315D01*
X027047Y031239D01*
X027037Y031239D02*
X026960Y031162D01*
X026960Y030932D01*
X026960Y031085D02*
X026806Y031239D01*
X026970Y031085D02*
X027430Y031085D01*
X027277Y030932D01*
X027430Y030778D01*
X026970Y030778D01*
X027113Y030778D02*
X026806Y030471D01*
X026806Y030778D01*
X026806Y030932D02*
X027267Y030932D01*
X027267Y031162D01*
X027190Y031239D01*
X027037Y031239D01*
X027200Y031315D02*
X027200Y031546D01*
X027353Y031546D02*
X027430Y031469D01*
X027430Y031315D01*
X027353Y031239D01*
X027277Y031239D01*
X027200Y031315D01*
X027047Y031546D02*
X027353Y031546D01*
X027190Y030778D02*
X027267Y030702D01*
X027267Y030548D01*
X027190Y030471D01*
X027190Y030318D02*
X027267Y030241D01*
X027267Y030088D01*
X027190Y030011D01*
X027200Y030088D02*
X027200Y030241D01*
X027123Y030318D01*
X027047Y030318D01*
X026970Y030241D01*
X026970Y030088D01*
X027047Y030011D01*
X027200Y030088D02*
X027277Y030011D01*
X027353Y030011D01*
X027430Y030088D01*
X027430Y030241D01*
X027353Y030318D01*
X027190Y030318D02*
X027113Y030318D01*
X026806Y030011D01*
X026806Y030318D01*
X026970Y030471D02*
X026970Y030625D01*
X026970Y030548D02*
X027430Y030548D01*
X027430Y030471D02*
X027430Y030625D01*
X027190Y030778D02*
X027113Y030778D01*
X026594Y030778D02*
X026440Y030932D01*
X026594Y031085D01*
X026133Y031085D01*
X026123Y031085D02*
X025970Y031239D01*
X026123Y031162D02*
X026123Y030932D01*
X025970Y030932D02*
X026430Y030932D01*
X026430Y031162D01*
X026353Y031239D01*
X026200Y031239D01*
X026123Y031162D01*
X026210Y031239D02*
X026133Y031315D01*
X026133Y031469D01*
X026210Y031546D01*
X026517Y031546D01*
X026594Y031469D01*
X026594Y031315D01*
X026517Y031239D01*
X026440Y031239D01*
X026363Y031315D01*
X026363Y031546D01*
X026210Y031699D02*
X026133Y031776D01*
X026133Y031929D01*
X026210Y032006D01*
X026517Y032006D01*
X026210Y031699D01*
X026517Y031699D01*
X026594Y031776D01*
X026594Y031929D01*
X026517Y032006D01*
X025757Y031929D02*
X025680Y032006D01*
X025373Y031699D01*
X025297Y031776D01*
X025297Y031929D01*
X025373Y032006D01*
X025680Y032006D01*
X025757Y031929D02*
X025757Y031776D01*
X025680Y031699D01*
X025373Y031699D01*
X025373Y031546D02*
X025297Y031469D01*
X025297Y031315D01*
X025373Y031239D01*
X025363Y031239D02*
X025517Y031239D01*
X025594Y031162D01*
X025594Y030932D01*
X025133Y030932D01*
X025287Y030932D02*
X025287Y031162D01*
X025363Y031239D01*
X025297Y031085D02*
X025757Y031085D01*
X025604Y030932D01*
X025757Y030778D01*
X025297Y030778D01*
X025440Y030778D02*
X025133Y030471D01*
X025133Y030778D01*
X024920Y030778D02*
X024767Y030932D01*
X024920Y031085D01*
X024460Y031085D01*
X024537Y031239D02*
X024460Y031315D01*
X024460Y031469D01*
X024537Y031546D01*
X024844Y031546D01*
X024920Y031469D01*
X024920Y031315D01*
X024844Y031239D01*
X024767Y031239D01*
X024690Y031315D01*
X024690Y031546D01*
X024604Y031622D02*
X024527Y031699D01*
X024297Y031699D01*
X024297Y031853D02*
X024757Y031853D01*
X024757Y032159D01*
X024844Y032159D02*
X024920Y032236D01*
X024920Y032390D01*
X024844Y032466D01*
X024537Y032159D01*
X024460Y032236D01*
X024460Y032390D01*
X024537Y032466D01*
X024844Y032466D01*
X024690Y032620D02*
X024690Y032927D01*
X024537Y033080D02*
X024460Y033157D01*
X024460Y033310D01*
X024537Y033387D01*
X024537Y033541D02*
X024460Y033617D01*
X024460Y033771D01*
X024537Y033848D01*
X024690Y033848D01*
X024767Y033771D01*
X024767Y033694D01*
X024690Y033541D01*
X024920Y033541D01*
X024920Y033848D01*
X025297Y033771D02*
X025757Y033771D01*
X025527Y033541D01*
X025527Y033848D01*
X025680Y033387D02*
X025757Y033310D01*
X025757Y033157D01*
X025680Y033080D01*
X025373Y033080D01*
X025297Y033157D01*
X025297Y033310D01*
X025373Y033387D01*
X025527Y032927D02*
X025527Y032620D01*
X025680Y032466D02*
X025373Y032159D01*
X025297Y032236D01*
X025297Y032390D01*
X025373Y032466D01*
X025680Y032466D01*
X025757Y032390D01*
X025757Y032236D01*
X025680Y032159D01*
X025373Y032159D01*
X024920Y031929D02*
X024844Y032006D01*
X024537Y031699D01*
X024460Y031776D01*
X024460Y031929D01*
X024537Y032006D01*
X024844Y032006D01*
X024920Y031929D02*
X024920Y031776D01*
X024844Y031699D01*
X024537Y031699D01*
X024604Y031622D02*
X024604Y031392D01*
X024297Y031392D01*
X024373Y031239D02*
X024297Y031162D01*
X024297Y031008D01*
X024373Y030932D01*
X024680Y031239D01*
X024373Y031239D01*
X024680Y031239D02*
X024757Y031162D01*
X024757Y031008D01*
X024680Y030932D01*
X024373Y030932D01*
X024373Y030778D02*
X024297Y030702D01*
X024297Y030548D01*
X024373Y030471D01*
X024680Y030778D01*
X024373Y030778D01*
X024460Y030778D02*
X024920Y030778D01*
X024920Y030625D02*
X024920Y030471D01*
X024920Y030548D02*
X024460Y030548D01*
X024460Y030471D02*
X024460Y030625D01*
X024373Y030471D02*
X024680Y030471D01*
X024757Y030548D01*
X024757Y030702D01*
X024680Y030778D01*
X024613Y030318D02*
X024537Y030318D01*
X024460Y030241D01*
X024460Y030088D01*
X024537Y030011D01*
X024604Y030011D02*
X024757Y030164D01*
X024297Y030164D01*
X024297Y030011D02*
X024297Y030318D01*
X024613Y030318D02*
X024690Y030241D01*
X024690Y030088D01*
X024767Y030011D01*
X024844Y030011D01*
X024920Y030088D01*
X024920Y030241D01*
X024844Y030318D01*
X025133Y030318D02*
X025133Y030011D01*
X025440Y030318D01*
X025517Y030318D01*
X025594Y030241D01*
X025594Y030088D01*
X025517Y030011D01*
X025527Y030088D02*
X025527Y030241D01*
X025450Y030318D01*
X025373Y030318D01*
X025297Y030241D01*
X025297Y030088D01*
X025373Y030011D01*
X025527Y030088D02*
X025604Y030011D01*
X025680Y030011D01*
X025757Y030088D01*
X025757Y030241D01*
X025680Y030318D01*
X025757Y030471D02*
X025757Y030625D01*
X025757Y030548D02*
X025297Y030548D01*
X025297Y030471D02*
X025297Y030625D01*
X025440Y030778D02*
X025517Y030778D01*
X025594Y030702D01*
X025594Y030548D01*
X025517Y030471D01*
X025970Y030471D02*
X025970Y030778D01*
X026133Y030778D02*
X026594Y030778D01*
X026594Y030625D02*
X026594Y030471D01*
X026594Y030548D02*
X026133Y030548D01*
X026133Y030471D02*
X026133Y030625D01*
X026277Y030778D02*
X025970Y030471D01*
X025970Y030318D02*
X025970Y030011D01*
X026277Y030318D01*
X026353Y030318D01*
X026430Y030241D01*
X026430Y030088D01*
X026353Y030011D01*
X026363Y030088D02*
X026363Y030241D01*
X026287Y030318D01*
X026210Y030318D01*
X026133Y030241D01*
X026133Y030088D01*
X026210Y030011D01*
X026363Y030088D02*
X026440Y030011D01*
X026517Y030011D01*
X026594Y030088D01*
X026594Y030241D01*
X026517Y030318D01*
X026353Y030471D02*
X026430Y030548D01*
X026430Y030702D01*
X026353Y030778D01*
X026277Y030778D01*
X025757Y031315D02*
X025680Y031239D01*
X025604Y031239D01*
X025527Y031315D01*
X025527Y031546D01*
X025680Y031546D02*
X025757Y031469D01*
X025757Y031315D01*
X025680Y031546D02*
X025373Y031546D01*
X025133Y031239D02*
X025287Y031085D01*
X024527Y031853D02*
X024527Y032006D01*
X024537Y032159D02*
X024844Y032159D01*
X024844Y033080D02*
X024537Y033080D01*
X024844Y033080D02*
X024920Y033157D01*
X024920Y033310D01*
X024844Y033387D01*
X026133Y033541D02*
X026133Y033848D01*
X023920Y031699D02*
X023920Y031392D01*
X023460Y031392D01*
X023537Y031239D02*
X023460Y031162D01*
X023460Y030932D01*
X023306Y030932D02*
X023767Y030932D01*
X023767Y031162D01*
X023690Y031239D01*
X023537Y031239D01*
X023690Y031392D02*
X023690Y031546D01*
X023767Y030778D02*
X023844Y030778D01*
X023920Y030702D01*
X023920Y030548D01*
X023844Y030471D01*
X023844Y030318D02*
X023920Y030241D01*
X023920Y030088D01*
X023844Y030011D01*
X023844Y030318D02*
X023767Y030318D01*
X023460Y030011D01*
X023460Y030318D01*
X023460Y030471D02*
X023767Y030778D01*
X023460Y030778D02*
X023460Y030471D01*
X029139Y036851D02*
X029139Y037312D01*
X028832Y037312D01*
X028986Y037082D02*
X029139Y037082D01*
X029293Y037158D02*
X029293Y036851D01*
X029523Y036851D01*
X029600Y036928D01*
X029600Y037158D01*
X029753Y037235D02*
X030060Y036928D01*
X029983Y036851D01*
X029830Y036851D01*
X029753Y036928D01*
X029753Y037235D01*
X029830Y037312D01*
X029983Y037312D01*
X030060Y037235D01*
X030060Y036928D01*
X030214Y036928D02*
X030290Y036851D01*
X030444Y036851D01*
X030521Y036928D01*
X030214Y037235D01*
X030214Y036928D01*
X030521Y036928D02*
X030521Y037235D01*
X030444Y037312D01*
X030290Y037312D01*
X030214Y037235D01*
X030674Y036851D02*
X030981Y036851D01*
X030828Y036851D02*
X030828Y037312D01*
X030981Y037158D01*
X029186Y038015D02*
X029109Y037938D01*
X029033Y037938D01*
X028956Y038015D01*
X028956Y038168D01*
X028879Y038245D01*
X028802Y038245D01*
X028726Y038168D01*
X028726Y038015D01*
X028802Y037938D01*
X029186Y038015D02*
X029186Y038168D01*
X029109Y038245D01*
X029186Y038399D02*
X029186Y038552D01*
X029186Y038475D02*
X028726Y038475D01*
X028726Y038399D02*
X028726Y038552D01*
X028726Y038706D02*
X029186Y038706D01*
X029033Y038859D01*
X029186Y039012D01*
X028726Y039012D01*
X028802Y039166D02*
X028726Y039243D01*
X028726Y039396D01*
X028802Y039473D01*
X029109Y039473D01*
X029186Y039396D01*
X029186Y039243D01*
X029109Y039166D01*
X029033Y039166D01*
X028956Y039243D01*
X028956Y039473D01*
X029109Y039626D02*
X028802Y039626D01*
X029109Y039933D01*
X028802Y039933D01*
X028726Y039856D01*
X028726Y039703D01*
X028802Y039626D01*
X029109Y039626D02*
X029186Y039703D01*
X029186Y039856D01*
X029109Y039933D01*
X029109Y040087D02*
X029186Y040163D01*
X029186Y040317D01*
X029109Y040394D01*
X028802Y040087D01*
X028726Y040163D01*
X028726Y040317D01*
X028802Y040394D01*
X029109Y040394D01*
X028972Y040281D02*
X029049Y040204D01*
X029202Y040204D01*
X029279Y040281D01*
X028972Y040588D01*
X028972Y040281D01*
X028819Y040281D02*
X028512Y040588D01*
X028512Y040281D01*
X028589Y040204D01*
X028742Y040204D01*
X028819Y040281D01*
X028819Y040588D01*
X028742Y040664D01*
X028589Y040664D01*
X028512Y040588D01*
X028358Y040434D02*
X028051Y040434D01*
X028125Y040394D02*
X027818Y040087D01*
X027741Y040163D01*
X027741Y040317D01*
X027818Y040394D01*
X028125Y040394D01*
X028202Y040317D01*
X028202Y040163D01*
X028125Y040087D01*
X027818Y040087D01*
X027821Y040204D02*
X027668Y040204D01*
X027591Y040281D01*
X027438Y040204D02*
X027131Y040204D01*
X027438Y040204D02*
X027131Y040511D01*
X027131Y040588D01*
X027207Y040664D01*
X027361Y040664D01*
X027438Y040588D01*
X027591Y040588D02*
X027668Y040664D01*
X027821Y040664D01*
X027898Y040588D01*
X027898Y040281D01*
X027821Y040204D01*
X027818Y039933D02*
X027741Y039856D01*
X027741Y039703D01*
X027818Y039626D01*
X028125Y039933D01*
X027818Y039933D01*
X027818Y039626D02*
X028125Y039626D01*
X028202Y039703D01*
X028202Y039856D01*
X028125Y039933D01*
X028125Y039473D02*
X027818Y039473D01*
X027741Y039396D01*
X027741Y039243D01*
X027818Y039166D01*
X027741Y039012D02*
X028202Y039012D01*
X028048Y038859D01*
X028202Y038706D01*
X027741Y038706D01*
X027741Y038552D02*
X027741Y038399D01*
X027741Y038475D02*
X028202Y038475D01*
X028202Y038399D02*
X028202Y038552D01*
X028125Y038245D02*
X028202Y038168D01*
X028202Y038015D01*
X028125Y037938D01*
X028048Y037938D01*
X027972Y038015D01*
X027972Y038168D01*
X027895Y038245D01*
X027818Y038245D01*
X027741Y038168D01*
X027741Y038015D01*
X027818Y037938D01*
X028048Y039166D02*
X027972Y039243D01*
X027972Y039473D01*
X028125Y039473D02*
X028202Y039396D01*
X028202Y039243D01*
X028125Y039166D01*
X028048Y039166D01*
X028802Y040087D02*
X029109Y040087D01*
X029279Y040281D02*
X029279Y040588D01*
X029202Y040664D01*
X029049Y040664D01*
X028972Y040588D01*
X028956Y040547D02*
X028956Y040854D01*
X028879Y041007D02*
X028879Y041238D01*
X028956Y041314D01*
X029109Y041314D01*
X029186Y041238D01*
X029186Y041007D01*
X028726Y041007D01*
X028741Y041007D02*
X028741Y041314D01*
X028726Y041314D02*
X028879Y041161D01*
X028741Y041161D02*
X029202Y041161D01*
X029048Y041007D01*
X029000Y041322D02*
X029076Y041399D01*
X028769Y041706D01*
X028769Y041399D01*
X028846Y041322D01*
X029000Y041322D01*
X029076Y041399D02*
X029076Y041706D01*
X029000Y041782D01*
X028846Y041782D01*
X028769Y041706D01*
X028726Y041698D02*
X028802Y041775D01*
X029109Y041775D01*
X029186Y041698D01*
X029186Y041545D01*
X029109Y041468D01*
X029033Y041468D01*
X028956Y041545D01*
X028956Y041775D01*
X028741Y041775D02*
X028972Y041545D01*
X028895Y041468D02*
X029202Y041775D01*
X029230Y041706D02*
X029306Y041782D01*
X029460Y041782D01*
X029537Y041706D01*
X029537Y041629D01*
X029460Y041552D01*
X029230Y041552D01*
X029202Y041468D02*
X028741Y041468D01*
X028802Y041468D02*
X028726Y041545D01*
X028726Y041698D01*
X028616Y041706D02*
X028616Y041399D01*
X028309Y041706D01*
X028309Y041399D01*
X028386Y041322D01*
X028539Y041322D01*
X028616Y041399D01*
X028616Y041706D02*
X028539Y041782D01*
X028386Y041782D01*
X028309Y041706D01*
X028202Y041698D02*
X028202Y041545D01*
X028125Y041468D01*
X028048Y041468D01*
X027972Y041545D01*
X027972Y041698D01*
X027895Y041775D01*
X027818Y041775D01*
X027741Y041698D01*
X027741Y041545D01*
X027818Y041468D01*
X027895Y041468D01*
X027972Y041545D01*
X027849Y041552D02*
X028155Y041552D01*
X028202Y041698D02*
X028125Y041775D01*
X028048Y041775D01*
X027972Y041698D01*
X027695Y041782D02*
X027695Y041322D01*
X027741Y041314D02*
X027895Y041161D01*
X027895Y041238D02*
X027895Y041007D01*
X027741Y041007D02*
X028202Y041007D01*
X028202Y041238D01*
X028125Y041314D01*
X027972Y041314D01*
X027895Y041238D01*
X027695Y041475D02*
X027465Y041475D01*
X027388Y041552D01*
X027388Y041706D01*
X027465Y041782D01*
X027695Y041782D01*
X027542Y041475D02*
X027388Y041322D01*
X027235Y041322D02*
X027235Y041399D01*
X026928Y041706D01*
X026928Y041782D01*
X027235Y041782D01*
X027235Y042322D02*
X027235Y042782D01*
X027004Y042782D01*
X026928Y042706D01*
X026928Y042552D01*
X027004Y042475D01*
X027235Y042475D01*
X027081Y042475D02*
X026928Y042322D01*
X027388Y042399D02*
X027388Y042706D01*
X027695Y042399D01*
X027618Y042322D01*
X027465Y042322D01*
X027388Y042399D01*
X027388Y042706D02*
X027465Y042782D01*
X027618Y042782D01*
X027695Y042706D01*
X027695Y042399D01*
X027849Y042399D02*
X027925Y042322D01*
X028079Y042322D01*
X028155Y042399D01*
X028155Y042475D01*
X028079Y042552D01*
X027925Y042552D01*
X027849Y042475D01*
X027849Y042399D01*
X027925Y042552D02*
X027849Y042629D01*
X027849Y042706D01*
X027925Y042782D01*
X028079Y042782D01*
X028155Y042706D01*
X028155Y042629D01*
X028079Y042552D01*
X028309Y042475D02*
X028386Y042552D01*
X028616Y042552D01*
X028616Y042399D01*
X028539Y042322D01*
X028386Y042322D01*
X028309Y042399D01*
X028309Y042475D01*
X028462Y042706D02*
X028616Y042552D01*
X028462Y042706D02*
X028309Y042782D01*
X029230Y041706D02*
X029230Y041399D01*
X029306Y041322D01*
X029460Y041322D01*
X029537Y041399D01*
X029690Y041322D02*
X029690Y041782D01*
X029844Y041629D01*
X029997Y041782D01*
X029997Y041322D01*
X030109Y041314D02*
X029802Y041007D01*
X029726Y041084D01*
X029726Y041238D01*
X029802Y041314D01*
X030109Y041314D01*
X030186Y041238D01*
X030186Y041084D01*
X030109Y041007D01*
X029802Y041007D01*
X029726Y040854D02*
X029726Y040547D01*
X029739Y040511D02*
X029663Y040434D01*
X029433Y040434D01*
X029433Y040281D02*
X029433Y040588D01*
X029509Y040664D01*
X029663Y040664D01*
X029739Y040588D01*
X029739Y040511D01*
X029726Y040701D02*
X030186Y040701D01*
X030033Y040547D01*
X030046Y040511D02*
X029893Y040664D01*
X029893Y040204D01*
X029739Y040281D02*
X029663Y040204D01*
X029509Y040204D01*
X029433Y040281D01*
X030046Y040511D02*
X030200Y040664D01*
X030200Y040204D01*
X030353Y040204D02*
X030507Y040204D01*
X030430Y040204D02*
X030430Y040664D01*
X030507Y040664D02*
X030353Y040664D01*
X030660Y040588D02*
X030737Y040664D01*
X030890Y040664D01*
X030967Y040588D01*
X030967Y040511D01*
X030890Y040434D01*
X030737Y040434D01*
X030660Y040357D01*
X030660Y040281D01*
X030737Y040204D01*
X030890Y040204D01*
X030967Y040281D01*
X030688Y041322D02*
X030764Y041399D01*
X030688Y041322D02*
X030534Y041322D01*
X030457Y041399D01*
X030457Y041475D01*
X030534Y041552D01*
X030688Y041552D01*
X030764Y041629D01*
X030764Y041706D01*
X030688Y041782D01*
X030534Y041782D01*
X030457Y041706D01*
X030304Y041782D02*
X030151Y041782D01*
X030186Y041775D02*
X029879Y041468D01*
X029956Y041545D02*
X029726Y041775D01*
X029726Y041468D02*
X030186Y041468D01*
X030151Y041322D02*
X030304Y041322D01*
X030227Y041322D02*
X030227Y041782D01*
X027972Y040854D02*
X027972Y040547D01*
X025871Y040720D02*
X025871Y041027D01*
X025871Y040874D02*
X025411Y040874D01*
X025411Y041180D02*
X025718Y041487D01*
X025794Y041487D01*
X025871Y041411D01*
X025871Y041257D01*
X025794Y041180D01*
X025411Y041180D02*
X025411Y041487D01*
X025641Y040567D02*
X025641Y040260D01*
X025794Y040106D02*
X025487Y039799D01*
X025411Y039876D01*
X025411Y040029D01*
X025487Y040106D01*
X025794Y040106D01*
X025871Y040029D01*
X025871Y039876D01*
X025794Y039799D01*
X025487Y039799D01*
X025487Y039646D02*
X025411Y039569D01*
X025411Y039416D01*
X025487Y039339D01*
X025794Y039646D01*
X025487Y039646D01*
X025487Y039339D02*
X025794Y039339D01*
X025871Y039416D01*
X025871Y039569D01*
X025794Y039646D01*
X025794Y039185D02*
X025487Y039185D01*
X025411Y039109D01*
X025411Y038955D01*
X025487Y038879D01*
X025641Y038955D02*
X025718Y038879D01*
X025794Y038879D01*
X025871Y038955D01*
X025871Y039109D01*
X025794Y039185D01*
X025641Y039185D02*
X025641Y038955D01*
X025871Y038725D02*
X025411Y038725D01*
X025411Y038418D02*
X025871Y038418D01*
X025718Y038572D01*
X025871Y038725D01*
X025871Y038265D02*
X025871Y038111D01*
X025871Y038188D02*
X025411Y038188D01*
X025411Y038111D02*
X025411Y038265D01*
X025487Y037958D02*
X025411Y037881D01*
X025411Y037728D01*
X025487Y037651D01*
X025641Y037728D02*
X025641Y037881D01*
X025564Y037958D01*
X025487Y037958D01*
X025641Y037728D02*
X025718Y037651D01*
X025794Y037651D01*
X025871Y037728D01*
X025871Y037881D01*
X025794Y037958D01*
X023158Y037894D02*
X023158Y037817D01*
X023081Y037740D01*
X022928Y037740D01*
X022851Y037663D01*
X022851Y037587D01*
X022928Y037510D01*
X023081Y037510D01*
X023158Y037587D01*
X023158Y037894D02*
X023081Y037970D01*
X022928Y037970D01*
X022851Y037894D01*
X022698Y037970D02*
X022544Y037970D01*
X022621Y037970D02*
X022621Y037510D01*
X022698Y037510D02*
X022544Y037510D01*
X022391Y037510D02*
X022391Y037970D01*
X022237Y037817D01*
X022084Y037970D01*
X022084Y037510D01*
X021930Y037587D02*
X021854Y037510D01*
X021700Y037510D01*
X021623Y037587D01*
X021623Y037894D01*
X021700Y037970D01*
X021854Y037970D01*
X021930Y037894D01*
X021930Y037817D01*
X021854Y037740D01*
X021623Y037740D01*
X021470Y037587D02*
X021163Y037894D01*
X021163Y037587D01*
X021240Y037510D01*
X021393Y037510D01*
X021470Y037587D01*
X021470Y037894D01*
X021393Y037970D01*
X021240Y037970D01*
X021163Y037894D01*
X021010Y037894D02*
X020933Y037970D01*
X020779Y037970D01*
X020703Y037894D01*
X021010Y037587D01*
X020933Y037510D01*
X020779Y037510D01*
X020703Y037587D01*
X020703Y037894D01*
X020549Y037740D02*
X020242Y037740D01*
X020089Y037970D02*
X019782Y037970D01*
X019935Y037970D02*
X019935Y037510D01*
X019628Y037587D02*
X019552Y037510D01*
X019398Y037510D01*
X019321Y037587D01*
X019321Y037663D01*
X019398Y037740D01*
X019475Y037740D01*
X019398Y037740D02*
X019321Y037817D01*
X019321Y037894D01*
X019398Y037970D01*
X019552Y037970D01*
X019628Y037894D01*
X019586Y038338D02*
X019586Y038799D01*
X019356Y038799D01*
X019279Y038722D01*
X019279Y038568D01*
X019356Y038492D01*
X019586Y038492D01*
X019433Y038492D02*
X019279Y038338D01*
X019126Y038338D02*
X018819Y038338D01*
X018972Y038338D02*
X018972Y038799D01*
X019126Y038645D01*
X018665Y038722D02*
X018665Y038415D01*
X018358Y038722D01*
X018358Y038415D01*
X018435Y038338D01*
X018588Y038338D01*
X018665Y038415D01*
X018665Y038722D02*
X018588Y038799D01*
X018435Y038799D01*
X018358Y038722D01*
X018358Y039488D02*
X018512Y039642D01*
X018435Y039642D02*
X018665Y039642D01*
X018665Y039488D02*
X018665Y039949D01*
X018435Y039949D01*
X018358Y039872D01*
X018358Y039718D01*
X018435Y039642D01*
X018819Y039565D02*
X018895Y039488D01*
X019049Y039488D01*
X019126Y039565D01*
X018819Y039872D01*
X018819Y039565D01*
X019126Y039565D02*
X019126Y039872D01*
X019049Y039949D01*
X018895Y039949D01*
X018819Y039872D01*
X019279Y039872D02*
X019279Y039795D01*
X019586Y039488D01*
X019279Y039488D01*
X019279Y039872D02*
X019356Y039949D01*
X019509Y039949D01*
X019586Y039872D01*
X019893Y039949D02*
X019893Y039488D01*
X020046Y039488D02*
X019739Y039488D01*
X020046Y039795D02*
X019893Y039949D01*
X020115Y040909D02*
X020039Y040985D01*
X020039Y041139D01*
X020115Y041216D01*
X020192Y041216D01*
X020269Y041139D01*
X020269Y040985D01*
X020346Y040909D01*
X020422Y040909D01*
X020499Y040985D01*
X020499Y041139D01*
X020422Y041216D01*
X020499Y041369D02*
X020499Y041522D01*
X020499Y041446D02*
X020039Y041446D01*
X020039Y041522D02*
X020039Y041369D01*
X020039Y041676D02*
X020499Y041676D01*
X020346Y041829D01*
X020499Y041983D01*
X020039Y041983D01*
X020115Y042136D02*
X020039Y042213D01*
X020039Y042366D01*
X020115Y042443D01*
X020422Y042443D01*
X020499Y042366D01*
X020499Y042213D01*
X020422Y042136D01*
X020346Y042136D01*
X020269Y042213D01*
X020269Y042443D01*
X020422Y042597D02*
X020499Y042673D01*
X020499Y042827D01*
X020422Y042904D01*
X020115Y042597D01*
X020039Y042673D01*
X020039Y042827D01*
X020115Y042904D01*
X020422Y042904D01*
X020422Y043057D02*
X020499Y043134D01*
X020499Y043287D01*
X020422Y043364D01*
X020115Y043057D01*
X020039Y043134D01*
X020039Y043287D01*
X020115Y043364D01*
X020422Y043364D01*
X020269Y043517D02*
X020269Y043824D01*
X020499Y043978D02*
X020499Y044285D01*
X020499Y044131D02*
X020039Y044131D01*
X020039Y044438D02*
X020039Y044745D01*
X020039Y044592D02*
X020499Y044592D01*
X020346Y044438D01*
X020422Y043057D02*
X020115Y043057D01*
X020115Y042597D02*
X020422Y042597D01*
X018818Y042664D02*
X018741Y042587D01*
X018665Y042587D01*
X018588Y042664D01*
X018588Y042894D01*
X018741Y042894D02*
X018818Y042817D01*
X018818Y042664D01*
X018818Y042434D02*
X018358Y042434D01*
X018434Y042587D02*
X018358Y042664D01*
X018358Y042817D01*
X018434Y042894D01*
X018741Y042894D01*
X018741Y043047D02*
X018818Y043124D01*
X018818Y043278D01*
X018741Y043354D01*
X018434Y043047D01*
X018358Y043124D01*
X018358Y043278D01*
X018434Y043354D01*
X018741Y043354D01*
X018741Y043508D02*
X018818Y043585D01*
X018818Y043738D01*
X018741Y043815D01*
X018434Y043508D01*
X018358Y043585D01*
X018358Y043738D01*
X018434Y043815D01*
X018741Y043815D01*
X018588Y043968D02*
X018588Y044275D01*
X018511Y044429D02*
X018511Y044659D01*
X018588Y044736D01*
X018741Y044736D01*
X018818Y044659D01*
X018818Y044429D01*
X018358Y044429D01*
X018511Y044582D02*
X018358Y044736D01*
X018434Y044889D02*
X018358Y044966D01*
X018358Y045119D01*
X018434Y045196D01*
X018511Y045196D01*
X018588Y045119D01*
X018588Y044889D01*
X018434Y044889D01*
X018588Y044889D02*
X018741Y045043D01*
X018818Y045196D01*
X018741Y043508D02*
X018434Y043508D01*
X018434Y043047D02*
X018741Y043047D01*
X018818Y042434D02*
X018665Y042280D01*
X018818Y042127D01*
X018358Y042127D01*
X018358Y041973D02*
X018358Y041820D01*
X018358Y041896D02*
X018818Y041896D01*
X018818Y041820D02*
X018818Y041973D01*
X018741Y041666D02*
X018818Y041590D01*
X018818Y041436D01*
X018741Y041359D01*
X018665Y041359D01*
X018588Y041436D01*
X018588Y041590D01*
X018511Y041666D01*
X018434Y041666D01*
X018358Y041590D01*
X018358Y041436D01*
X018434Y041359D01*
X017818Y041513D02*
X017358Y041513D01*
X017358Y041666D02*
X017358Y041359D01*
X017665Y041359D02*
X017818Y041513D01*
X017741Y041820D02*
X017434Y041820D01*
X017741Y042127D01*
X017434Y042127D01*
X017358Y042050D01*
X017358Y041896D01*
X017434Y041820D01*
X017741Y041820D02*
X017818Y041896D01*
X017818Y042050D01*
X017741Y042127D01*
X017818Y042280D02*
X017358Y042280D01*
X017511Y042280D02*
X017818Y042587D01*
X017588Y042357D02*
X017358Y042587D01*
X019739Y038568D02*
X020046Y038568D01*
X020200Y038415D02*
X020277Y038338D01*
X020430Y038338D01*
X020507Y038415D01*
X020200Y038722D01*
X020200Y038415D01*
X020200Y038722D02*
X020277Y038799D01*
X020430Y038799D01*
X020507Y038722D01*
X020507Y038415D01*
X020660Y038415D02*
X020737Y038338D01*
X020890Y038338D01*
X020967Y038415D01*
X020660Y038722D01*
X020660Y038415D01*
X020660Y038722D02*
X020737Y038799D01*
X020890Y038799D01*
X020967Y038722D01*
X020967Y038415D01*
X021121Y038415D02*
X021121Y038722D01*
X021197Y038799D01*
X021351Y038799D01*
X021428Y038722D01*
X021428Y038645D01*
X021351Y038568D01*
X021121Y038568D01*
X021121Y038415D02*
X021197Y038338D01*
X021351Y038338D01*
X021428Y038415D01*
X021581Y038338D02*
X021581Y038799D01*
X021734Y038645D01*
X021888Y038799D01*
X021888Y038338D01*
X022041Y038338D02*
X022195Y038338D01*
X022118Y038338D02*
X022118Y038799D01*
X022195Y038799D02*
X022041Y038799D01*
X022348Y038722D02*
X022425Y038799D01*
X022579Y038799D01*
X022655Y038722D01*
X022655Y038645D01*
X022579Y038568D01*
X022425Y038568D01*
X022348Y038492D01*
X022348Y038415D01*
X022425Y038338D01*
X022579Y038338D01*
X022655Y038415D01*
X021010Y037894D02*
X021010Y037587D01*
X021937Y015814D02*
X021860Y015737D01*
X021860Y015660D01*
X021937Y015584D01*
X021860Y015507D01*
X021860Y015430D01*
X021937Y015353D01*
X022090Y015353D01*
X022167Y015430D01*
X022321Y015430D02*
X022397Y015353D01*
X022551Y015353D01*
X022628Y015430D01*
X022628Y015737D01*
X022551Y015814D01*
X022397Y015814D01*
X022321Y015737D01*
X022167Y015737D02*
X022090Y015814D01*
X021937Y015814D01*
X021937Y015584D02*
X022014Y015584D01*
X022781Y015584D02*
X023088Y015584D01*
X023095Y015584D02*
X023248Y015584D01*
X023395Y015584D02*
X023548Y015584D01*
X023479Y015660D02*
X023402Y015584D01*
X023402Y015430D01*
X023479Y015353D01*
X023709Y015353D01*
X023779Y015353D02*
X023702Y015430D01*
X023702Y015737D01*
X023779Y015814D01*
X024009Y015814D01*
X024009Y015353D01*
X023779Y015353D01*
X023862Y015353D02*
X024169Y015353D01*
X023862Y015660D01*
X023862Y015737D01*
X023939Y015814D01*
X024093Y015814D01*
X024169Y015737D01*
X024162Y015660D02*
X024162Y015353D01*
X024323Y015353D02*
X024630Y015353D01*
X024323Y015660D01*
X024323Y015737D01*
X024399Y015814D01*
X024553Y015814D01*
X024630Y015737D01*
X024469Y015660D02*
X024469Y015353D01*
X024469Y015584D02*
X024162Y015584D01*
X024162Y015660D02*
X024316Y015814D01*
X024469Y015660D01*
X023709Y015660D02*
X023709Y015200D01*
X023548Y015353D02*
X023241Y015353D01*
X023248Y015353D02*
X023248Y015814D01*
X022942Y015814D01*
X023241Y015814D02*
X023548Y015814D01*
X023548Y015353D01*
X023479Y015660D02*
X023709Y015660D01*
X023779Y014814D02*
X023702Y014737D01*
X023702Y014660D01*
X024009Y014353D01*
X023702Y014353D01*
X023632Y014353D02*
X023479Y014353D01*
X023402Y014430D01*
X023318Y014353D02*
X023548Y014353D01*
X023632Y014353D02*
X023709Y014430D01*
X023709Y014737D01*
X023632Y014814D01*
X023479Y014814D01*
X023402Y014737D01*
X023318Y014660D02*
X023548Y014660D01*
X023548Y014200D01*
X023318Y014353D02*
X023241Y014430D01*
X023241Y014584D01*
X023318Y014660D01*
X023248Y014584D02*
X022942Y014584D01*
X022935Y014584D02*
X023088Y014584D01*
X023248Y014584D02*
X023018Y014814D01*
X023018Y014353D01*
X023088Y014353D02*
X023088Y014814D01*
X022781Y014814D01*
X023779Y014814D02*
X023932Y014814D01*
X024009Y014737D01*
X024162Y014737D02*
X024239Y014814D01*
X024392Y014814D01*
X024469Y014737D01*
X024476Y014584D02*
X024630Y014584D01*
X024783Y014737D02*
X024860Y014814D01*
X025090Y014814D01*
X025090Y014353D01*
X024860Y014353D01*
X024783Y014430D01*
X024783Y014737D01*
X024630Y014814D02*
X024630Y014353D01*
X024323Y014353D01*
X024469Y014353D02*
X024162Y014660D01*
X024162Y014737D01*
X024169Y014584D02*
X023862Y014584D01*
X024162Y014353D02*
X024469Y014353D01*
X024323Y014814D02*
X024630Y014814D01*
X025244Y014660D02*
X025244Y014353D01*
X025244Y014584D02*
X025550Y014584D01*
X025550Y014660D02*
X025397Y014814D01*
X025244Y014660D01*
X025550Y014660D02*
X025550Y014353D01*
D11*
X011050Y010814D02*
X011050Y010790D01*
X011198Y003334D02*
X011198Y003310D01*
X010853Y018615D02*
X010853Y018639D01*
D12*
X010904Y018932D02*
X010804Y018932D01*
X010756Y019007D02*
X010656Y019007D01*
X010693Y019058D02*
X010743Y019108D01*
X010718Y019108D02*
X010793Y019108D01*
X010804Y019082D02*
X010904Y019082D01*
X010904Y018932D01*
X010951Y018957D02*
X010951Y019057D01*
X010976Y019082D01*
X011051Y019082D01*
X011051Y018932D01*
X010976Y018932D01*
X010951Y018957D01*
X010904Y019007D02*
X010854Y019007D01*
X010793Y019058D02*
X010793Y019208D01*
X010718Y019208D01*
X010693Y019183D01*
X010693Y019133D01*
X010718Y019108D01*
X010646Y019133D02*
X010546Y019133D01*
X010534Y019082D02*
X010584Y019082D01*
X010609Y019057D01*
X010609Y018957D01*
X010584Y018932D01*
X010534Y018932D01*
X010509Y018957D01*
X010462Y018957D02*
X010462Y018932D01*
X010462Y018957D02*
X010362Y019057D01*
X010362Y019082D01*
X010462Y019082D01*
X010509Y019057D02*
X010534Y019082D01*
X010571Y019058D02*
X010571Y019208D01*
X010646Y019133D01*
X010840Y019133D02*
X010940Y019133D01*
X010988Y019208D02*
X011088Y019208D01*
X011088Y019058D01*
X010988Y019058D01*
X011038Y019133D02*
X011088Y019133D01*
X011135Y019183D02*
X011160Y019208D01*
X011235Y019208D01*
X011235Y019058D01*
X011160Y019058D01*
X011135Y019083D01*
X011135Y019183D01*
X011148Y019082D02*
X011098Y019032D01*
X011098Y018932D01*
X011098Y019007D02*
X011198Y019007D01*
X011198Y019032D02*
X011148Y019082D01*
X011198Y019032D02*
X011198Y018932D01*
X011282Y019058D02*
X011282Y019158D01*
X011332Y019208D01*
X011382Y019158D01*
X011382Y019058D01*
X011382Y019133D02*
X011282Y019133D01*
X010743Y019808D02*
X010643Y019808D01*
X010596Y019808D02*
X010596Y019958D01*
X010596Y019943D02*
X010596Y020094D01*
X010646Y020044D01*
X010693Y020069D02*
X010693Y020018D01*
X010718Y019993D01*
X010793Y019993D01*
X010793Y019943D02*
X010793Y020094D01*
X010718Y020094D01*
X010693Y020069D01*
X010743Y019993D02*
X010693Y019943D01*
X010693Y019958D02*
X010693Y019808D01*
X010596Y019858D02*
X010496Y019958D01*
X010546Y019943D02*
X010646Y019943D01*
X010693Y019958D02*
X010743Y019908D01*
X010840Y020018D02*
X010940Y020018D01*
X010988Y019943D02*
X011088Y019943D01*
X011088Y020094D01*
X010988Y020094D01*
X011038Y020018D02*
X011088Y020018D01*
X011135Y019968D02*
X011135Y020069D01*
X011160Y020094D01*
X011235Y020094D01*
X011235Y019943D01*
X011160Y019943D01*
X011135Y019968D01*
X011282Y019943D02*
X011282Y020044D01*
X011332Y020094D01*
X011382Y020044D01*
X011382Y019943D01*
X011382Y020018D02*
X011282Y020018D01*
X010865Y020693D02*
X010890Y020718D01*
X010890Y020743D01*
X010865Y020768D01*
X010815Y020768D01*
X010790Y020743D01*
X010790Y020718D01*
X010815Y020693D01*
X010865Y020693D01*
X010865Y020768D02*
X010890Y020794D01*
X010890Y020819D01*
X010865Y020844D01*
X010815Y020844D01*
X010790Y020819D01*
X010790Y020794D01*
X010815Y020768D01*
X010743Y020794D02*
X010693Y020844D01*
X010693Y020693D01*
X010743Y020693D02*
X010643Y020693D01*
X010596Y020693D02*
X010596Y020844D01*
X010571Y020768D02*
X010496Y020693D01*
X010596Y020743D02*
X010496Y020844D01*
X010571Y019883D02*
X010496Y019808D01*
X010706Y018332D02*
X010806Y018332D01*
X010806Y018182D01*
X010854Y018182D02*
X010854Y018257D01*
X010879Y018282D01*
X010954Y018282D01*
X010954Y018182D01*
X011001Y018207D02*
X011026Y018182D01*
X011076Y018182D01*
X011101Y018207D01*
X011148Y018207D02*
X011173Y018182D01*
X011223Y018182D01*
X011248Y018207D01*
X011198Y018257D02*
X011173Y018257D01*
X011148Y018232D01*
X011148Y018207D01*
X011173Y018257D02*
X011148Y018282D01*
X011148Y018307D01*
X011173Y018332D01*
X011223Y018332D01*
X011248Y018307D01*
X011101Y018307D02*
X011076Y018332D01*
X011026Y018332D01*
X011001Y018307D01*
X011001Y018282D01*
X011026Y018257D01*
X011001Y018232D01*
X011001Y018207D01*
X011026Y018257D02*
X011051Y018257D01*
X010806Y018257D02*
X010756Y018257D01*
X010793Y013166D02*
X010793Y013016D01*
X010840Y013016D02*
X010940Y013016D01*
X010890Y013016D02*
X010890Y013166D01*
X010940Y013116D01*
X010987Y013116D02*
X011012Y013091D01*
X011062Y013091D01*
X011087Y013116D01*
X011087Y013141D01*
X011062Y013166D01*
X011012Y013166D01*
X010987Y013141D01*
X010987Y013116D01*
X011012Y013091D02*
X010987Y013066D01*
X010987Y013041D01*
X011012Y013016D01*
X011062Y013016D01*
X011087Y013041D01*
X011087Y013066D01*
X011062Y013091D01*
X010793Y013066D02*
X010692Y013166D01*
X010768Y013091D02*
X010692Y013016D01*
X010767Y012416D02*
X010818Y012416D01*
X010843Y012391D01*
X010890Y012391D02*
X010890Y012341D01*
X010915Y012316D01*
X010990Y012316D01*
X010990Y012266D02*
X010990Y012416D01*
X010915Y012416D01*
X010890Y012391D01*
X010940Y012316D02*
X010890Y012266D01*
X010843Y012266D02*
X010742Y012366D01*
X010742Y012391D01*
X010767Y012416D01*
X010742Y012266D02*
X010843Y012266D01*
X010890Y012182D02*
X010890Y012032D01*
X010940Y012032D02*
X010840Y012032D01*
X010793Y012032D02*
X010793Y012182D01*
X010768Y012107D02*
X010692Y012032D01*
X010793Y012082D02*
X010692Y012182D01*
X010890Y012182D02*
X010940Y012132D01*
X011037Y012341D02*
X011137Y012341D01*
X011184Y012266D02*
X011285Y012266D01*
X011285Y012416D01*
X011184Y012416D01*
X011234Y012341D02*
X011285Y012341D01*
X011332Y012291D02*
X011332Y012391D01*
X011357Y012416D01*
X011432Y012416D01*
X011432Y012266D01*
X011357Y012266D01*
X011332Y012291D01*
X011479Y012266D02*
X011479Y012366D01*
X011529Y012416D01*
X011579Y012366D01*
X011579Y012266D01*
X011579Y012341D02*
X011479Y012341D01*
X011432Y011432D02*
X011357Y011432D01*
X011332Y011407D01*
X011332Y011307D01*
X011357Y011282D01*
X011432Y011282D01*
X011432Y011432D01*
X011479Y011382D02*
X011479Y011282D01*
X011479Y011357D02*
X011579Y011357D01*
X011579Y011382D02*
X011529Y011432D01*
X011479Y011382D01*
X011579Y011382D02*
X011579Y011282D01*
X011395Y011207D02*
X011345Y011257D01*
X011295Y011207D01*
X011295Y011107D01*
X011248Y011107D02*
X011173Y011107D01*
X011148Y011132D01*
X011148Y011232D01*
X011173Y011257D01*
X011248Y011257D01*
X011248Y011107D01*
X011295Y011182D02*
X011395Y011182D01*
X011395Y011207D02*
X011395Y011107D01*
X011285Y011282D02*
X011184Y011282D01*
X011101Y011257D02*
X011101Y011107D01*
X011000Y011107D01*
X010953Y011182D02*
X010853Y011182D01*
X010806Y011132D02*
X010781Y011107D01*
X010731Y011107D01*
X010706Y011132D01*
X010659Y011132D02*
X010659Y011157D01*
X010634Y011182D01*
X010584Y011182D01*
X010558Y011157D01*
X010558Y011132D01*
X010584Y011107D01*
X010634Y011107D01*
X010659Y011132D01*
X010634Y011182D02*
X010659Y011207D01*
X010659Y011232D01*
X010634Y011257D01*
X010584Y011257D01*
X010558Y011232D01*
X010558Y011207D01*
X010584Y011182D01*
X010706Y011232D02*
X010731Y011257D01*
X010781Y011257D01*
X010806Y011232D01*
X010806Y011132D01*
X010818Y011282D02*
X010843Y011307D01*
X010818Y011282D02*
X010767Y011282D01*
X010742Y011307D01*
X010742Y011357D01*
X010767Y011382D01*
X010792Y011382D01*
X010843Y011357D01*
X010843Y011432D01*
X010742Y011432D01*
X010890Y011407D02*
X010890Y011357D01*
X010915Y011332D01*
X010990Y011332D01*
X010990Y011282D02*
X010990Y011432D01*
X010915Y011432D01*
X010890Y011407D01*
X010940Y011332D02*
X010890Y011282D01*
X011000Y011257D02*
X011101Y011257D01*
X011101Y011182D02*
X011051Y011182D01*
X011037Y011357D02*
X011137Y011357D01*
X011184Y011432D02*
X011285Y011432D01*
X011285Y011282D01*
X011285Y011357D02*
X011234Y011357D01*
X011223Y010507D02*
X011198Y010482D01*
X011198Y010457D01*
X011223Y010432D01*
X011198Y010407D01*
X011198Y010382D01*
X011223Y010357D01*
X011273Y010357D01*
X011298Y010382D01*
X011345Y010382D02*
X011370Y010357D01*
X011420Y010357D01*
X011445Y010382D01*
X011395Y010432D02*
X011370Y010432D01*
X011345Y010407D01*
X011345Y010382D01*
X011370Y010432D02*
X011345Y010457D01*
X011345Y010482D01*
X011370Y010507D01*
X011420Y010507D01*
X011445Y010482D01*
X011298Y010482D02*
X011273Y010507D01*
X011223Y010507D01*
X011223Y010432D02*
X011248Y010432D01*
X011151Y010457D02*
X011075Y010457D01*
X011050Y010432D01*
X011050Y010357D01*
X011003Y010357D02*
X011003Y010507D01*
X010903Y010507D01*
X010953Y010432D02*
X011003Y010432D01*
X011151Y010457D02*
X011151Y010357D01*
X011160Y005735D02*
X011135Y005710D01*
X011135Y005685D01*
X011160Y005660D01*
X011210Y005660D01*
X011235Y005685D01*
X011235Y005710D01*
X011210Y005735D01*
X011160Y005735D01*
X011160Y005660D02*
X011135Y005635D01*
X011135Y005610D01*
X011160Y005585D01*
X011210Y005585D01*
X011235Y005610D01*
X011235Y005635D01*
X011210Y005660D01*
X011087Y005685D02*
X011037Y005735D01*
X011037Y005585D01*
X011087Y005585D02*
X010987Y005585D01*
X010940Y005585D02*
X010940Y005735D01*
X010915Y005660D02*
X010840Y005585D01*
X010940Y005635D02*
X010840Y005735D01*
X010915Y004985D02*
X010890Y004960D01*
X010890Y004935D01*
X010915Y004910D01*
X010890Y004885D01*
X010890Y004860D01*
X010915Y004835D01*
X010965Y004835D01*
X010990Y004860D01*
X011037Y004835D02*
X011087Y004885D01*
X011062Y004885D02*
X011137Y004885D01*
X011137Y004835D02*
X011137Y004985D01*
X011062Y004985D01*
X011037Y004960D01*
X011037Y004910D01*
X011062Y004885D01*
X010990Y004960D02*
X010965Y004985D01*
X010915Y004985D01*
X010915Y004910D02*
X010940Y004910D01*
X011185Y004910D02*
X011285Y004910D01*
X011332Y004835D02*
X011432Y004835D01*
X011432Y004985D01*
X011332Y004985D01*
X011382Y004910D02*
X011432Y004910D01*
X011479Y004860D02*
X011479Y004960D01*
X011504Y004985D01*
X011579Y004985D01*
X011579Y004835D01*
X011504Y004835D01*
X011479Y004860D01*
X011627Y004835D02*
X011627Y004935D01*
X011677Y004985D01*
X011727Y004935D01*
X011727Y004835D01*
X011727Y004910D02*
X011627Y004910D01*
X011087Y004603D02*
X011037Y004653D01*
X011037Y004502D01*
X011087Y004502D02*
X010987Y004502D01*
X010940Y004502D02*
X010940Y004653D01*
X010915Y004578D02*
X010840Y004502D01*
X010940Y004553D02*
X010840Y004653D01*
X010890Y003903D02*
X010940Y003878D01*
X010990Y003828D01*
X010915Y003828D01*
X010890Y003803D01*
X010890Y003778D01*
X010915Y003752D01*
X010965Y003752D01*
X010990Y003778D01*
X010990Y003828D01*
X011037Y003828D02*
X011062Y003803D01*
X011137Y003803D01*
X011148Y003777D02*
X011248Y003777D01*
X011248Y003627D01*
X011148Y003627D01*
X011101Y003702D02*
X011001Y003702D01*
X011037Y003752D02*
X011087Y003803D01*
X011037Y003828D02*
X011037Y003878D01*
X011062Y003903D01*
X011137Y003903D01*
X011137Y003752D01*
X011198Y003702D02*
X011248Y003702D01*
X011295Y003752D02*
X011320Y003777D01*
X011396Y003777D01*
X011396Y003627D01*
X011320Y003627D01*
X011295Y003652D01*
X011295Y003752D01*
X011332Y003752D02*
X011432Y003752D01*
X011432Y003903D01*
X011332Y003903D01*
X011285Y003828D02*
X011185Y003828D01*
X011382Y003828D02*
X011432Y003828D01*
X011479Y003878D02*
X011504Y003903D01*
X011579Y003903D01*
X011579Y003752D01*
X011504Y003752D01*
X011479Y003778D01*
X011479Y003878D01*
X011493Y003777D02*
X011443Y003727D01*
X011443Y003627D01*
X011443Y003702D02*
X011543Y003702D01*
X011543Y003727D02*
X011493Y003777D01*
X011543Y003727D02*
X011543Y003627D01*
X011627Y003752D02*
X011627Y003853D01*
X011677Y003903D01*
X011727Y003853D01*
X011727Y003752D01*
X011727Y003828D02*
X011627Y003828D01*
X010954Y003752D02*
X010954Y003652D01*
X010929Y003627D01*
X010878Y003627D01*
X010853Y003652D01*
X010806Y003652D02*
X010781Y003627D01*
X010731Y003627D01*
X010706Y003652D01*
X010706Y003752D01*
X010731Y003777D01*
X010781Y003777D01*
X010806Y003752D01*
X010806Y003727D01*
X010781Y003702D01*
X010706Y003702D01*
X010853Y003752D02*
X010878Y003777D01*
X010929Y003777D01*
X010954Y003752D01*
X011051Y003027D02*
X011151Y003027D01*
X011151Y002877D01*
X011198Y002877D02*
X011198Y002952D01*
X011223Y002977D01*
X011298Y002977D01*
X011298Y002877D01*
X011345Y002902D02*
X011370Y002877D01*
X011420Y002877D01*
X011446Y002902D01*
X011493Y002902D02*
X011518Y002877D01*
X011568Y002877D01*
X011593Y002902D01*
X011543Y002952D02*
X011518Y002952D01*
X011493Y002927D01*
X011493Y002902D01*
X011518Y002952D02*
X011493Y002977D01*
X011493Y003002D01*
X011518Y003027D01*
X011568Y003027D01*
X011593Y003002D01*
X011446Y003002D02*
X011420Y003027D01*
X011370Y003027D01*
X011345Y003002D01*
X011345Y002977D01*
X011370Y002952D01*
X011345Y002927D01*
X011345Y002902D01*
X011370Y002952D02*
X011395Y002952D01*
X011151Y002952D02*
X011101Y002952D01*
X024778Y005486D02*
X024879Y005586D01*
X024904Y005586D01*
X024929Y005561D01*
X024929Y005511D01*
X024904Y005486D01*
X024778Y005486D02*
X024778Y005586D01*
X024778Y005633D02*
X024803Y005633D01*
X024904Y005733D01*
X024929Y005733D01*
X024929Y005633D01*
X024904Y005780D02*
X024929Y005805D01*
X024929Y005855D01*
X024904Y005880D01*
X024803Y005780D01*
X024778Y005805D01*
X024778Y005855D01*
X024803Y005880D01*
X024904Y005880D01*
X024904Y005780D02*
X024803Y005780D01*
X025503Y005783D02*
X025503Y005683D01*
X025528Y005636D02*
X025578Y005586D01*
X025566Y005586D02*
X025566Y005486D01*
X025666Y005586D01*
X025691Y005586D01*
X025716Y005561D01*
X025716Y005511D01*
X025691Y005486D01*
X025679Y005536D02*
X025679Y005611D01*
X025654Y005636D01*
X025603Y005636D01*
X025578Y005611D01*
X025578Y005536D01*
X025528Y005536D02*
X025679Y005536D01*
X025716Y005633D02*
X025716Y005733D01*
X025691Y005733D01*
X025591Y005633D01*
X025566Y005633D01*
X025591Y005780D02*
X025691Y005880D01*
X025591Y005880D01*
X025566Y005855D01*
X025566Y005805D01*
X025591Y005780D01*
X025691Y005780D01*
X025716Y005805D01*
X025716Y005855D01*
X025691Y005880D01*
X025679Y005905D02*
X025679Y005855D01*
X025654Y005830D01*
X025553Y005830D01*
X025528Y005855D01*
X025528Y005905D01*
X025553Y005930D01*
X025528Y005978D02*
X025679Y005978D01*
X025654Y005930D02*
X025679Y005905D01*
X025603Y005978D02*
X025603Y006078D01*
X025553Y006125D02*
X025528Y006150D01*
X025528Y006200D01*
X025553Y006225D01*
X025578Y006225D01*
X025603Y006200D01*
X025603Y006175D01*
X025603Y006200D02*
X025629Y006225D01*
X025654Y006225D01*
X025679Y006200D01*
X025679Y006150D01*
X025654Y006125D01*
X025679Y006078D02*
X025528Y006078D01*
X026316Y006078D02*
X026466Y006078D01*
X026391Y006078D02*
X026391Y005978D01*
X026441Y005930D02*
X026466Y005905D01*
X026466Y005855D01*
X026441Y005830D01*
X026341Y005830D01*
X026316Y005855D01*
X026316Y005905D01*
X026341Y005930D01*
X026316Y005978D02*
X026466Y005978D01*
X026478Y005880D02*
X026378Y005780D01*
X026353Y005805D01*
X026353Y005855D01*
X026378Y005880D01*
X026478Y005880D01*
X026503Y005855D01*
X026503Y005805D01*
X026478Y005780D01*
X026378Y005780D01*
X026291Y005783D02*
X026291Y005683D01*
X026316Y005636D02*
X026366Y005586D01*
X026353Y005586D02*
X026353Y005486D01*
X026453Y005586D01*
X026478Y005586D01*
X026503Y005561D01*
X026503Y005511D01*
X026478Y005486D01*
X026466Y005536D02*
X026466Y005611D01*
X026441Y005636D01*
X026391Y005636D01*
X026366Y005611D01*
X026366Y005536D01*
X026316Y005536D02*
X026466Y005536D01*
X026503Y005633D02*
X026503Y005733D01*
X026478Y005733D01*
X026378Y005633D01*
X026353Y005633D01*
X026391Y006125D02*
X026391Y006225D01*
X026466Y006200D02*
X026391Y006125D01*
X026316Y006200D02*
X026466Y006200D01*
X027103Y006175D02*
X027253Y006175D01*
X027203Y006125D01*
X027178Y006078D02*
X027178Y005978D01*
X027128Y005930D02*
X027103Y005905D01*
X027103Y005855D01*
X027128Y005830D01*
X027228Y005830D01*
X027253Y005855D01*
X027253Y005905D01*
X027228Y005930D01*
X027253Y005978D02*
X027103Y005978D01*
X027103Y006078D02*
X027253Y006078D01*
X027103Y006125D02*
X027103Y006225D01*
X027078Y005783D02*
X027078Y005683D01*
X027103Y005636D02*
X027153Y005586D01*
X027153Y005611D02*
X027153Y005536D01*
X027103Y005536D02*
X027253Y005536D01*
X027253Y005611D01*
X027228Y005636D01*
X027178Y005636D01*
X027153Y005611D01*
X027171Y005383D02*
X027146Y005358D01*
X027146Y005308D01*
X027171Y005283D01*
X027271Y005383D01*
X027171Y005383D01*
X027271Y005383D02*
X027296Y005358D01*
X027296Y005308D01*
X027271Y005283D01*
X027171Y005283D01*
X027271Y005236D02*
X027171Y005136D01*
X027146Y005136D01*
X027146Y005089D02*
X027146Y004989D01*
X027246Y005089D01*
X027271Y005089D01*
X027296Y005064D01*
X027296Y005014D01*
X027271Y004989D01*
X027296Y005136D02*
X027296Y005236D01*
X027271Y005236D01*
X027871Y005186D02*
X027871Y005286D01*
X027921Y005333D02*
X027896Y005358D01*
X027896Y005408D01*
X027921Y005433D01*
X027896Y005481D02*
X028046Y005481D01*
X028021Y005433D02*
X028046Y005408D01*
X028046Y005358D01*
X028021Y005333D01*
X027921Y005333D01*
X027971Y005481D02*
X027971Y005581D01*
X028021Y005628D02*
X028046Y005653D01*
X028046Y005703D01*
X028021Y005728D01*
X027996Y005728D01*
X027896Y005628D01*
X027896Y005728D01*
X027896Y005581D02*
X028046Y005581D01*
X028021Y005139D02*
X027971Y005139D01*
X027946Y005114D01*
X027946Y005039D01*
X027946Y005089D02*
X027896Y005139D01*
X027896Y005039D02*
X028046Y005039D01*
X028046Y005114D01*
X028021Y005139D01*
X037232Y018969D02*
X037282Y019019D01*
X037257Y019019D02*
X037332Y019019D01*
X037332Y018969D02*
X037332Y019119D01*
X037257Y019119D01*
X037232Y019094D01*
X037232Y019044D01*
X037257Y019019D01*
X037379Y018994D02*
X037379Y019094D01*
X037479Y018994D01*
X037454Y018969D01*
X037404Y018969D01*
X037379Y018994D01*
X037379Y019094D02*
X037404Y019119D01*
X037454Y019119D01*
X037479Y019094D01*
X037479Y018994D01*
X037527Y018994D02*
X037552Y018969D01*
X037602Y018969D01*
X037627Y018994D01*
X037627Y019019D01*
X037602Y019044D01*
X037552Y019044D01*
X037527Y019019D01*
X037527Y018994D01*
X037552Y019044D02*
X037527Y019069D01*
X037527Y019094D01*
X037552Y019119D01*
X037602Y019119D01*
X037627Y019094D01*
X037627Y019069D01*
X037602Y019044D01*
X037674Y019019D02*
X037674Y018994D01*
X037699Y018969D01*
X037749Y018969D01*
X037774Y018994D01*
X037774Y019044D01*
X037699Y019044D01*
X037674Y019019D01*
X037724Y019094D02*
X037774Y019044D01*
X037724Y019094D02*
X037674Y019119D01*
X037724Y019719D02*
X037624Y019719D01*
X037577Y019744D02*
X037552Y019719D01*
X037502Y019719D01*
X037477Y019744D01*
X037429Y019719D02*
X037354Y019719D01*
X037329Y019744D01*
X037329Y019844D01*
X037354Y019869D01*
X037429Y019869D01*
X037429Y019719D01*
X037477Y019844D02*
X037502Y019869D01*
X037552Y019869D01*
X037577Y019844D01*
X037577Y019744D01*
X037724Y019719D02*
X037724Y019869D01*
X037282Y019794D02*
X037182Y019794D01*
X037135Y019769D02*
X037060Y019769D01*
X037035Y019794D01*
X037035Y019844D01*
X037060Y019869D01*
X037135Y019869D01*
X037135Y019719D01*
X037085Y019769D02*
X037035Y019719D01*
X036987Y019719D02*
X036887Y019719D01*
X036937Y019719D02*
X036937Y019869D01*
X036987Y019819D01*
X015151Y029053D02*
X015051Y029053D01*
X015101Y029053D02*
X015101Y029203D01*
X015151Y029153D01*
X015004Y029178D02*
X014979Y029203D01*
X014929Y029203D01*
X014903Y029178D01*
X015004Y029078D01*
X014979Y029053D01*
X014929Y029053D01*
X014903Y029078D01*
X014903Y029178D01*
X014856Y029203D02*
X014781Y029203D01*
X014756Y029178D01*
X014756Y029128D01*
X014781Y029103D01*
X014856Y029103D01*
X014806Y029103D02*
X014756Y029053D01*
X014856Y029053D02*
X014856Y029203D01*
X015004Y029178D02*
X015004Y029078D01*
X015026Y029803D02*
X015076Y029803D01*
X015101Y029828D01*
X015076Y029878D02*
X015026Y029878D01*
X015001Y029853D01*
X015001Y029828D01*
X015026Y029803D01*
X015076Y029878D02*
X015101Y029903D01*
X015101Y029928D01*
X015076Y029953D01*
X015026Y029953D01*
X015001Y029928D01*
X014954Y029928D02*
X014904Y029878D01*
X014904Y029803D01*
X014904Y029878D02*
X014853Y029928D01*
X014853Y029953D01*
X014806Y029928D02*
X014806Y029903D01*
X014781Y029878D01*
X014731Y029878D01*
X014706Y029853D01*
X014706Y029828D01*
X014731Y029803D01*
X014781Y029803D01*
X014806Y029828D01*
X014806Y029928D02*
X014781Y029953D01*
X014731Y029953D01*
X014706Y029928D01*
X014659Y029878D02*
X014559Y029878D01*
X014512Y029853D02*
X014437Y029853D01*
X014412Y029878D01*
X014412Y029928D01*
X014437Y029953D01*
X014512Y029953D01*
X014512Y029803D01*
X014462Y029853D02*
X014412Y029803D01*
X014364Y029803D02*
X014264Y029903D01*
X014264Y029928D01*
X014289Y029953D01*
X014339Y029953D01*
X014364Y029928D01*
X014364Y029803D02*
X014264Y029803D01*
X014954Y029928D02*
X014954Y029953D01*
D13*
X018954Y025684D02*
X018954Y023440D01*
X019308Y023085D01*
X019820Y023085D01*
X020686Y023085D02*
X021198Y023085D01*
X021552Y023440D01*
X021552Y025684D01*
X020686Y025684D01*
X019820Y025684D02*
X018954Y025684D01*
X019879Y025546D02*
X019814Y025523D01*
X019751Y025497D01*
X019690Y025467D01*
X019630Y025433D01*
X019572Y025397D01*
X019516Y025357D01*
X019463Y025314D01*
X019412Y025268D01*
X019364Y025219D01*
X019319Y025168D01*
X019276Y025114D01*
X019237Y025058D01*
X019201Y025000D01*
X019168Y024939D01*
X019139Y024877D01*
X019113Y024814D01*
X019091Y024749D01*
X019072Y024683D01*
X019058Y024616D01*
X019047Y024549D01*
X019040Y024480D01*
X019036Y024412D01*
X019037Y024343D01*
X019041Y024275D01*
X019050Y024207D01*
X019062Y024140D01*
X019077Y024073D01*
X019097Y024007D01*
X019120Y023943D01*
X019147Y023880D01*
X019178Y023818D01*
X019211Y023759D01*
X019248Y023701D01*
X019289Y023646D01*
X019332Y023593D01*
X019378Y023542D01*
X019427Y023494D01*
X019479Y023449D01*
X019533Y023407D01*
X019589Y023368D01*
X019648Y023332D01*
X019708Y023300D01*
X019770Y023271D01*
X019834Y023245D01*
X019899Y023224D01*
X020627Y023224D02*
X020692Y023247D01*
X020755Y023273D01*
X020816Y023303D01*
X020876Y023337D01*
X020934Y023373D01*
X020990Y023413D01*
X021043Y023456D01*
X021094Y023502D01*
X021142Y023551D01*
X021187Y023602D01*
X021230Y023656D01*
X021269Y023712D01*
X021305Y023770D01*
X021338Y023831D01*
X021367Y023893D01*
X021393Y023956D01*
X021415Y024021D01*
X021434Y024087D01*
X021448Y024154D01*
X021459Y024221D01*
X021466Y024290D01*
X021470Y024358D01*
X021469Y024427D01*
X021465Y024495D01*
X021456Y024563D01*
X021444Y024630D01*
X021429Y024697D01*
X021409Y024763D01*
X021386Y024827D01*
X021359Y024890D01*
X021328Y024952D01*
X021295Y025011D01*
X021258Y025069D01*
X021217Y025124D01*
X021174Y025177D01*
X021128Y025228D01*
X021079Y025276D01*
X021027Y025321D01*
X020973Y025363D01*
X020917Y025402D01*
X020858Y025438D01*
X020798Y025470D01*
X020736Y025499D01*
X020672Y025525D01*
X020607Y025546D01*
X025197Y015072D02*
X028197Y015072D01*
X029397Y013872D01*
X029397Y011472D01*
X028197Y010272D01*
X025197Y010272D01*
X025149Y010293D01*
X025103Y010317D01*
X025059Y010344D01*
X025017Y010375D01*
X024977Y010409D01*
X024940Y010445D01*
X024906Y010484D01*
X024875Y010526D01*
X024847Y010570D01*
X024822Y010616D01*
X024801Y010663D01*
X024783Y010712D01*
X024770Y010762D01*
X024759Y010814D01*
X024753Y010865D01*
X024751Y010917D01*
X024753Y010969D01*
X024758Y011021D01*
X024767Y011072D01*
X024781Y011123D01*
X024797Y011172D01*
X024866Y011245D01*
X024933Y011322D01*
X024995Y011401D01*
X025054Y011483D01*
X025108Y011568D01*
X025159Y011656D01*
X025205Y011745D01*
X025247Y011837D01*
X025284Y011931D01*
X025317Y012026D01*
X025346Y012123D01*
X025370Y012221D01*
X025389Y012320D01*
X025403Y012420D01*
X025413Y012521D01*
X025417Y012622D01*
X025417Y012722D01*
X025413Y012823D01*
X025403Y012924D01*
X025389Y013024D01*
X025370Y013123D01*
X025346Y013221D01*
X025317Y013318D01*
X025284Y013413D01*
X025247Y013507D01*
X025205Y013599D01*
X025159Y013688D01*
X025108Y013776D01*
X025054Y013861D01*
X024995Y013943D01*
X024933Y014022D01*
X024866Y014099D01*
X024797Y014172D01*
X024781Y014221D01*
X024767Y014272D01*
X024758Y014323D01*
X024753Y014375D01*
X024751Y014427D01*
X024753Y014479D01*
X024759Y014530D01*
X024770Y014582D01*
X024783Y014632D01*
X024801Y014681D01*
X024822Y014728D01*
X024847Y014774D01*
X024875Y014818D01*
X024906Y014860D01*
X024940Y014899D01*
X024977Y014935D01*
X025017Y014969D01*
X025059Y015000D01*
X025103Y015027D01*
X025149Y015051D01*
X025197Y015072D01*
X034170Y024316D02*
X033816Y024670D01*
X033816Y025182D01*
X033816Y026048D02*
X033816Y026560D01*
X034170Y026914D01*
X036414Y026914D01*
X036414Y026048D01*
X036414Y025182D02*
X036414Y024316D01*
X034170Y024316D01*
X033954Y025241D02*
X033977Y025176D01*
X034003Y025113D01*
X034033Y025052D01*
X034067Y024992D01*
X034103Y024934D01*
X034143Y024878D01*
X034186Y024825D01*
X034232Y024774D01*
X034281Y024726D01*
X034332Y024681D01*
X034386Y024638D01*
X034442Y024599D01*
X034500Y024563D01*
X034561Y024530D01*
X034623Y024501D01*
X034686Y024475D01*
X034751Y024453D01*
X034817Y024434D01*
X034884Y024420D01*
X034951Y024409D01*
X035020Y024402D01*
X035088Y024398D01*
X035157Y024399D01*
X035225Y024403D01*
X035293Y024412D01*
X035360Y024424D01*
X035427Y024439D01*
X035493Y024459D01*
X035557Y024482D01*
X035620Y024509D01*
X035682Y024540D01*
X035741Y024573D01*
X035799Y024610D01*
X035854Y024651D01*
X035907Y024694D01*
X035958Y024740D01*
X036006Y024789D01*
X036051Y024841D01*
X036093Y024895D01*
X036132Y024951D01*
X036168Y025010D01*
X036200Y025070D01*
X036229Y025132D01*
X036255Y025196D01*
X036276Y025261D01*
X036276Y025989D02*
X036253Y026054D01*
X036227Y026117D01*
X036197Y026178D01*
X036163Y026238D01*
X036127Y026296D01*
X036087Y026352D01*
X036044Y026405D01*
X035998Y026456D01*
X035949Y026504D01*
X035898Y026549D01*
X035844Y026592D01*
X035788Y026631D01*
X035730Y026667D01*
X035669Y026700D01*
X035607Y026729D01*
X035544Y026755D01*
X035479Y026777D01*
X035413Y026796D01*
X035346Y026810D01*
X035279Y026821D01*
X035210Y026828D01*
X035142Y026832D01*
X035073Y026831D01*
X035005Y026827D01*
X034937Y026818D01*
X034870Y026806D01*
X034803Y026791D01*
X034737Y026771D01*
X034673Y026748D01*
X034610Y026721D01*
X034548Y026690D01*
X034489Y026657D01*
X034431Y026620D01*
X034376Y026579D01*
X034323Y026536D01*
X034272Y026490D01*
X034224Y026441D01*
X034179Y026389D01*
X034137Y026335D01*
X034098Y026279D01*
X034062Y026220D01*
X034030Y026160D01*
X034001Y026098D01*
X033975Y026034D01*
X033954Y025969D01*
X030952Y037456D02*
X028708Y037456D01*
X028353Y037810D01*
X028353Y038322D01*
X028353Y039188D02*
X028353Y039700D01*
X028708Y040054D01*
X030952Y040054D01*
X030952Y039188D01*
X030952Y038322D02*
X030952Y037456D01*
X030814Y039129D02*
X030791Y039194D01*
X030765Y039257D01*
X030735Y039318D01*
X030701Y039378D01*
X030665Y039436D01*
X030625Y039492D01*
X030582Y039545D01*
X030536Y039596D01*
X030487Y039644D01*
X030436Y039689D01*
X030382Y039732D01*
X030326Y039771D01*
X030268Y039807D01*
X030207Y039840D01*
X030145Y039869D01*
X030082Y039895D01*
X030017Y039917D01*
X029951Y039936D01*
X029884Y039950D01*
X029817Y039961D01*
X029748Y039968D01*
X029680Y039972D01*
X029611Y039971D01*
X029543Y039967D01*
X029475Y039958D01*
X029408Y039946D01*
X029341Y039931D01*
X029275Y039911D01*
X029211Y039888D01*
X029148Y039861D01*
X029086Y039830D01*
X029027Y039797D01*
X028969Y039760D01*
X028914Y039719D01*
X028861Y039676D01*
X028810Y039630D01*
X028762Y039581D01*
X028717Y039529D01*
X028675Y039475D01*
X028636Y039419D01*
X028600Y039360D01*
X028568Y039300D01*
X028539Y039238D01*
X028513Y039174D01*
X028492Y039109D01*
X028491Y038381D02*
X028514Y038316D01*
X028540Y038253D01*
X028570Y038192D01*
X028604Y038132D01*
X028640Y038074D01*
X028680Y038018D01*
X028723Y037965D01*
X028769Y037914D01*
X028818Y037866D01*
X028869Y037821D01*
X028923Y037778D01*
X028979Y037739D01*
X029037Y037703D01*
X029098Y037670D01*
X029160Y037641D01*
X029223Y037615D01*
X029288Y037593D01*
X029354Y037574D01*
X029421Y037560D01*
X029488Y037549D01*
X029557Y037542D01*
X029625Y037538D01*
X029694Y037539D01*
X029762Y037543D01*
X029830Y037552D01*
X029897Y037564D01*
X029964Y037579D01*
X030030Y037599D01*
X030094Y037622D01*
X030157Y037649D01*
X030219Y037680D01*
X030278Y037713D01*
X030336Y037750D01*
X030391Y037791D01*
X030444Y037834D01*
X030495Y037880D01*
X030543Y037929D01*
X030588Y037981D01*
X030630Y038035D01*
X030669Y038091D01*
X030705Y038150D01*
X030737Y038210D01*
X030766Y038272D01*
X030792Y038336D01*
X030813Y038401D01*
D14*
X018601Y031510D02*
X018601Y031387D01*
X018539Y031325D01*
X018539Y031204D02*
X018601Y031142D01*
X018601Y031019D01*
X018539Y030957D01*
X018292Y030957D01*
X018231Y031019D01*
X018231Y031142D01*
X018292Y031204D01*
X018231Y031325D02*
X018477Y031572D01*
X018539Y031572D01*
X018601Y031510D01*
X018231Y031572D02*
X018231Y031325D01*
X017961Y031449D02*
X017591Y031449D01*
X017591Y031572D02*
X017591Y031325D01*
X017653Y031204D02*
X017591Y031142D01*
X017591Y031019D01*
X017653Y030957D01*
X017899Y030957D01*
X017961Y031019D01*
X017961Y031142D01*
X017899Y031204D01*
X017838Y031325D02*
X017961Y031449D01*
X017695Y030958D02*
X017695Y030711D01*
X017325Y030711D01*
X017387Y030590D02*
X017325Y030528D01*
X017325Y030343D01*
X017325Y030222D02*
X017325Y029975D01*
X017572Y030222D01*
X017634Y030222D01*
X017695Y030160D01*
X017695Y030036D01*
X017634Y029975D01*
X017591Y029975D02*
X017591Y030098D01*
X017591Y030036D02*
X017961Y030036D01*
X017961Y029975D02*
X017961Y030098D01*
X017961Y030220D02*
X017838Y030344D01*
X017961Y030467D01*
X017591Y030467D01*
X017572Y030528D02*
X017510Y030590D01*
X017387Y030590D01*
X017529Y030589D02*
X017529Y030835D01*
X017510Y030835D02*
X017510Y030711D01*
X017572Y030528D02*
X017572Y030343D01*
X017202Y030343D01*
X017056Y030405D02*
X017056Y030528D01*
X016994Y030590D01*
X016747Y030343D01*
X016685Y030405D01*
X016685Y030528D01*
X016747Y030590D01*
X016994Y030590D01*
X016932Y030711D02*
X016932Y030896D01*
X016870Y030958D01*
X016685Y030958D01*
X016685Y031080D02*
X017056Y031080D01*
X017056Y031326D01*
X016870Y031203D02*
X016870Y031080D01*
X016932Y030711D02*
X016685Y030711D01*
X016747Y030343D02*
X016994Y030343D01*
X017056Y030405D01*
X016994Y030222D02*
X016747Y029975D01*
X016685Y030036D01*
X016685Y030160D01*
X016747Y030222D01*
X016994Y030222D01*
X017056Y030160D01*
X017056Y030036D01*
X016994Y029975D01*
X016747Y029975D01*
X016685Y029853D02*
X016685Y029606D01*
X016685Y029730D02*
X017056Y029730D01*
X016932Y029606D01*
X017325Y029606D02*
X017572Y029853D01*
X017634Y029853D01*
X017695Y029791D01*
X017695Y029668D01*
X017634Y029606D01*
X017653Y029606D02*
X017591Y029668D01*
X017591Y029791D01*
X017653Y029853D01*
X017714Y029853D01*
X017776Y029791D01*
X017776Y029668D01*
X017838Y029606D01*
X017899Y029606D01*
X017961Y029668D01*
X017961Y029791D01*
X017899Y029853D01*
X018231Y029791D02*
X018231Y029668D01*
X018292Y029606D01*
X018416Y029668D02*
X018416Y029791D01*
X018354Y029853D01*
X018292Y029853D01*
X018231Y029791D01*
X018231Y029975D02*
X018231Y030098D01*
X018231Y030036D02*
X018601Y030036D01*
X018601Y029975D02*
X018601Y030098D01*
X018601Y030220D02*
X018477Y030344D01*
X018601Y030467D01*
X018231Y030467D01*
X018169Y030589D02*
X018169Y030835D01*
X018231Y030220D02*
X018601Y030220D01*
X018539Y029853D02*
X018601Y029791D01*
X018601Y029668D01*
X018539Y029606D01*
X018477Y029606D01*
X018416Y029668D01*
X017961Y030220D02*
X017591Y030220D01*
X017325Y029853D02*
X017325Y029606D01*
D15*
X014756Y029498D03*
X010853Y020398D03*
X010853Y019513D03*
X011050Y012721D03*
X011050Y011737D03*
X011198Y005290D03*
X011198Y004207D03*
X037379Y019414D03*
D16*
X031086Y016409D02*
X031086Y014259D01*
X031036Y014259D01*
X030336Y014259D01*
X030286Y014259D01*
X030286Y016409D01*
X030288Y016426D01*
X030292Y016443D01*
X030299Y016459D01*
X030309Y016473D01*
X030322Y016486D01*
X030336Y016496D01*
X030352Y016503D01*
X030369Y016507D01*
X030386Y016509D01*
X030986Y016509D01*
X031003Y016507D01*
X031020Y016503D01*
X031036Y016496D01*
X031050Y016486D01*
X031063Y016473D01*
X031073Y016459D01*
X031080Y016443D01*
X031084Y016426D01*
X031086Y016409D01*
X030686Y015759D02*
X030686Y015559D01*
X030486Y015559D01*
X030486Y015409D02*
X030886Y015409D01*
X030886Y015259D01*
X030486Y015259D01*
X030486Y015409D01*
X030686Y015559D02*
X030886Y015559D01*
X030886Y015109D02*
X030686Y015109D01*
X030486Y015109D01*
X030686Y015109D02*
X030686Y014909D01*
X030336Y014259D02*
X030336Y014109D01*
X031036Y014109D01*
X031036Y014259D01*
X030048Y007339D02*
X028548Y007339D01*
X028298Y007089D01*
X028298Y006589D01*
X028548Y006339D01*
X030048Y006339D01*
X030298Y006589D01*
X030298Y007089D01*
X030048Y007339D01*
X030719Y006906D02*
X030719Y005506D01*
X030721Y005489D01*
X030725Y005472D01*
X030732Y005456D01*
X030742Y005442D01*
X030755Y005429D01*
X030769Y005419D01*
X030785Y005412D01*
X030802Y005408D01*
X030819Y005406D01*
X031169Y005406D02*
X031269Y005406D01*
X031669Y005406D02*
X031769Y005406D01*
X032169Y005406D02*
X032269Y005406D01*
X032619Y005406D02*
X032636Y005408D01*
X032653Y005412D01*
X032669Y005419D01*
X032683Y005429D01*
X032696Y005442D01*
X032706Y005456D01*
X032713Y005472D01*
X032717Y005489D01*
X032719Y005506D01*
X032719Y006906D01*
X032717Y006923D01*
X032713Y006940D01*
X032706Y006956D01*
X032696Y006970D01*
X032683Y006983D01*
X032669Y006993D01*
X032653Y007000D01*
X032636Y007004D01*
X032619Y007006D01*
X032269Y007006D02*
X032169Y007006D01*
X031769Y007006D02*
X031669Y007006D01*
X031269Y007006D02*
X031169Y007006D01*
X030819Y007006D02*
X030802Y007004D01*
X030785Y007000D01*
X030769Y006993D01*
X030755Y006983D01*
X030742Y006970D01*
X030732Y006956D01*
X030725Y006940D01*
X030721Y006923D01*
X030719Y006906D01*
X030869Y006606D02*
X030871Y006630D01*
X030877Y006654D01*
X030886Y006676D01*
X030899Y006696D01*
X030915Y006714D01*
X030934Y006729D01*
X030955Y006742D01*
X030977Y006750D01*
X031001Y006755D01*
X031025Y006756D01*
X031049Y006753D01*
X031072Y006746D01*
X031094Y006736D01*
X031114Y006722D01*
X031131Y006705D01*
X031146Y006686D01*
X031157Y006665D01*
X031165Y006642D01*
X031169Y006618D01*
X031169Y006594D01*
X031165Y006570D01*
X031157Y006547D01*
X031146Y006526D01*
X031131Y006507D01*
X031114Y006490D01*
X031094Y006476D01*
X031072Y006466D01*
X031049Y006459D01*
X031025Y006456D01*
X031001Y006457D01*
X030977Y006462D01*
X030955Y006470D01*
X030934Y006483D01*
X030915Y006498D01*
X030899Y006516D01*
X030886Y006536D01*
X030877Y006558D01*
X030871Y006582D01*
X030869Y006606D01*
X030298Y006089D02*
X030048Y006339D01*
X030298Y006089D02*
X030298Y005589D01*
X030048Y005339D01*
X028548Y005339D01*
X028298Y005589D01*
X028298Y006089D01*
X028548Y006339D01*
X028548Y005339D02*
X028298Y005089D01*
X028298Y004589D01*
X028548Y004339D01*
X030048Y004339D01*
X030298Y004589D01*
X030298Y005089D01*
X030048Y005339D01*
X030048Y004339D02*
X030298Y004089D01*
X030298Y003589D01*
X030048Y003339D01*
X028548Y003339D01*
X028298Y003589D01*
X028298Y004089D01*
X028548Y004339D01*
X026542Y004081D02*
X026542Y002581D01*
X026292Y002331D01*
X025792Y002331D01*
X025542Y002581D01*
X025542Y004081D01*
X025292Y004331D01*
X024792Y004331D01*
X024542Y004081D01*
X024542Y002581D01*
X024292Y002331D01*
X023792Y002331D01*
X023542Y002581D01*
X023542Y004081D01*
X023292Y004331D01*
X022792Y004331D01*
X022542Y004081D01*
X022292Y004331D01*
X021792Y004331D01*
X021542Y004081D01*
X021542Y002581D01*
X021792Y002331D01*
X022292Y002331D01*
X022542Y002581D01*
X022542Y004081D01*
X023542Y004081D02*
X023792Y004331D01*
X024292Y004331D01*
X024542Y004081D01*
X025542Y004081D02*
X025792Y004331D01*
X026292Y004331D01*
X026542Y004081D01*
X025542Y002581D02*
X025292Y002331D01*
X024792Y002331D01*
X024542Y002581D01*
X023542Y002581D02*
X023292Y002331D01*
X022792Y002331D01*
X022542Y002581D01*
X018324Y002581D02*
X018324Y004081D01*
X018074Y004331D01*
X017574Y004331D01*
X017324Y004081D01*
X017324Y002581D01*
X017074Y002331D01*
X016574Y002331D01*
X016324Y002581D01*
X016324Y004081D01*
X016074Y004331D01*
X015574Y004331D01*
X015324Y004081D01*
X015324Y002581D01*
X015074Y002331D01*
X014574Y002331D01*
X014324Y002581D01*
X014074Y002331D01*
X013574Y002331D01*
X013324Y002581D01*
X013324Y004081D01*
X013574Y004331D01*
X014074Y004331D01*
X014324Y004081D01*
X014324Y002581D01*
X015324Y002581D02*
X015574Y002331D01*
X016074Y002331D01*
X016324Y002581D01*
X017324Y002581D02*
X017574Y002331D01*
X018074Y002331D01*
X018324Y002581D01*
X017324Y004081D02*
X017074Y004331D01*
X016574Y004331D01*
X016324Y004081D01*
X015324Y004081D02*
X015074Y004331D01*
X014574Y004331D01*
X014324Y004081D01*
X010026Y002907D02*
X010026Y002657D01*
X010024Y002640D01*
X010020Y002623D01*
X010013Y002607D01*
X010003Y002593D01*
X009990Y002580D01*
X009976Y002570D01*
X009960Y002563D01*
X009943Y002559D01*
X009926Y002557D01*
X008926Y002557D01*
X008909Y002559D01*
X008892Y002563D01*
X008876Y002570D01*
X008862Y002580D01*
X008849Y002593D01*
X008839Y002607D01*
X008832Y002623D01*
X008828Y002640D01*
X008826Y002657D01*
X008826Y002907D01*
X008876Y002957D01*
X008876Y005557D01*
X008826Y005607D01*
X008826Y005857D01*
X008828Y005874D01*
X008832Y005891D01*
X008839Y005907D01*
X008849Y005921D01*
X008862Y005934D01*
X008876Y005944D01*
X008892Y005951D01*
X008909Y005955D01*
X008926Y005957D01*
X009926Y005957D01*
X009943Y005955D01*
X009960Y005951D01*
X009976Y005944D01*
X009990Y005934D01*
X010003Y005921D01*
X010013Y005907D01*
X010020Y005891D01*
X010024Y005874D01*
X010026Y005857D01*
X010026Y005607D01*
X009976Y005557D01*
X009976Y002957D01*
X010026Y002907D01*
X009931Y010052D02*
X008931Y010052D01*
X008914Y010054D01*
X008897Y010058D01*
X008881Y010065D01*
X008867Y010075D01*
X008854Y010088D01*
X008844Y010102D01*
X008837Y010118D01*
X008833Y010135D01*
X008831Y010152D01*
X008831Y010402D01*
X008881Y010452D01*
X008881Y013052D01*
X008831Y013102D01*
X008831Y013352D01*
X008833Y013369D01*
X008837Y013386D01*
X008844Y013402D01*
X008854Y013416D01*
X008867Y013429D01*
X008881Y013439D01*
X008897Y013446D01*
X008914Y013450D01*
X008931Y013452D01*
X009931Y013452D01*
X009948Y013450D01*
X009965Y013446D01*
X009981Y013439D01*
X009995Y013429D01*
X010008Y013416D01*
X010018Y013402D01*
X010025Y013386D01*
X010029Y013369D01*
X010031Y013352D01*
X010031Y013102D01*
X009981Y013052D01*
X009981Y010452D01*
X010031Y010402D01*
X010031Y010152D01*
X010029Y010135D01*
X010025Y010118D01*
X010018Y010102D01*
X010008Y010088D01*
X009995Y010075D01*
X009981Y010065D01*
X009965Y010058D01*
X009948Y010054D01*
X009931Y010052D01*
X009892Y017527D02*
X008892Y017527D01*
X008875Y017529D01*
X008858Y017533D01*
X008842Y017540D01*
X008828Y017550D01*
X008815Y017563D01*
X008805Y017577D01*
X008798Y017593D01*
X008794Y017610D01*
X008792Y017627D01*
X008792Y017877D01*
X008842Y017927D01*
X008842Y020527D01*
X008792Y020577D01*
X008792Y020827D01*
X008794Y020844D01*
X008798Y020861D01*
X008805Y020877D01*
X008815Y020891D01*
X008828Y020904D01*
X008842Y020914D01*
X008858Y020921D01*
X008875Y020925D01*
X008892Y020927D01*
X009892Y020927D01*
X009909Y020925D01*
X009926Y020921D01*
X009942Y020914D01*
X009956Y020904D01*
X009969Y020891D01*
X009979Y020877D01*
X009986Y020861D01*
X009990Y020844D01*
X009992Y020827D01*
X009992Y020577D01*
X009942Y020527D01*
X009942Y017927D01*
X009992Y017877D01*
X009992Y017627D01*
X009990Y017610D01*
X009986Y017593D01*
X009979Y017577D01*
X009969Y017563D01*
X009956Y017550D01*
X009942Y017540D01*
X009926Y017533D01*
X009909Y017529D01*
X009892Y017527D01*
X033377Y006827D02*
X033377Y005427D01*
X033379Y005410D01*
X033383Y005393D01*
X033390Y005377D01*
X033400Y005363D01*
X033413Y005350D01*
X033427Y005340D01*
X033443Y005333D01*
X033460Y005329D01*
X033477Y005327D01*
X033827Y005327D02*
X033927Y005327D01*
X034327Y005327D02*
X034427Y005327D01*
X034827Y005327D02*
X034927Y005327D01*
X035277Y005327D02*
X035294Y005329D01*
X035311Y005333D01*
X035327Y005340D01*
X035341Y005350D01*
X035354Y005363D01*
X035364Y005377D01*
X035371Y005393D01*
X035375Y005410D01*
X035377Y005427D01*
X035377Y006827D01*
X035375Y006844D01*
X035371Y006861D01*
X035364Y006877D01*
X035354Y006891D01*
X035341Y006904D01*
X035327Y006914D01*
X035311Y006921D01*
X035294Y006925D01*
X035277Y006927D01*
X034927Y006927D02*
X034827Y006927D01*
X034427Y006927D02*
X034327Y006927D01*
X033927Y006927D02*
X033827Y006927D01*
X033477Y006927D02*
X033460Y006925D01*
X033443Y006921D01*
X033427Y006914D01*
X033413Y006904D01*
X033400Y006891D01*
X033390Y006877D01*
X033383Y006861D01*
X033379Y006844D01*
X033377Y006827D01*
X033527Y006527D02*
X033529Y006551D01*
X033535Y006575D01*
X033544Y006597D01*
X033557Y006617D01*
X033573Y006635D01*
X033592Y006650D01*
X033613Y006663D01*
X033635Y006671D01*
X033659Y006676D01*
X033683Y006677D01*
X033707Y006674D01*
X033730Y006667D01*
X033752Y006657D01*
X033772Y006643D01*
X033789Y006626D01*
X033804Y006607D01*
X033815Y006586D01*
X033823Y006563D01*
X033827Y006539D01*
X033827Y006515D01*
X033823Y006491D01*
X033815Y006468D01*
X033804Y006447D01*
X033789Y006428D01*
X033772Y006411D01*
X033752Y006397D01*
X033730Y006387D01*
X033707Y006380D01*
X033683Y006377D01*
X033659Y006378D01*
X033635Y006383D01*
X033613Y006391D01*
X033592Y006404D01*
X033573Y006419D01*
X033557Y006437D01*
X033544Y006457D01*
X033535Y006479D01*
X033529Y006503D01*
X033527Y006527D01*
D17*
X000125Y003371D02*
X000125Y019119D01*
X006424Y019119D01*
X006424Y003371D01*
X003747Y003371D01*
X003708Y003371D01*
X000125Y003371D01*
X010201Y003242D02*
X010652Y003242D01*
X010652Y003092D02*
X010652Y003392D01*
X010577Y003552D02*
X010652Y003628D01*
X010652Y003778D01*
X010577Y003853D01*
X010276Y003853D01*
X010201Y003778D01*
X010201Y003628D01*
X010276Y003552D01*
X010577Y003552D01*
X010577Y004013D02*
X010652Y004088D01*
X010652Y004238D01*
X010577Y004313D01*
X010501Y004313D01*
X010426Y004238D01*
X010351Y004313D01*
X010276Y004313D01*
X010201Y004238D01*
X010201Y004088D01*
X010276Y004013D01*
X010426Y004163D02*
X010426Y004238D01*
X010426Y002932D02*
X010351Y002857D01*
X010351Y002632D01*
X010201Y002632D02*
X010652Y002632D01*
X010652Y002857D01*
X010577Y002932D01*
X010426Y002932D01*
X010351Y002782D02*
X010201Y002932D01*
X015236Y004606D02*
X015536Y004606D01*
X015386Y004606D02*
X015386Y005057D01*
X015536Y004907D01*
X015697Y005057D02*
X015997Y005057D01*
X015847Y005057D02*
X015847Y004606D01*
X016157Y004682D02*
X016157Y005057D01*
X016457Y005057D02*
X016457Y004682D01*
X016382Y004606D01*
X016232Y004606D01*
X016157Y004682D01*
X016617Y004682D02*
X016617Y004982D01*
X016692Y005057D01*
X016843Y005057D01*
X016918Y004982D01*
X016918Y004682D01*
X016843Y004606D01*
X016692Y004606D01*
X016617Y004682D01*
X017078Y004531D02*
X017378Y004531D01*
X017538Y004606D02*
X017688Y004757D01*
X017613Y004757D02*
X017838Y004757D01*
X017838Y004606D02*
X017838Y005057D01*
X017613Y005057D01*
X017538Y004982D01*
X017538Y004832D01*
X017613Y004757D01*
X017999Y004757D02*
X017999Y004682D01*
X018074Y004606D01*
X018224Y004606D01*
X018299Y004682D01*
X018224Y004832D02*
X018074Y004832D01*
X017999Y004757D01*
X017999Y004982D02*
X018074Y005057D01*
X018224Y005057D01*
X018299Y004982D01*
X018299Y004907D01*
X018224Y004832D01*
X023455Y004907D02*
X023455Y004982D01*
X023530Y005057D01*
X023680Y005057D01*
X023755Y004982D01*
X023915Y005057D02*
X024215Y005057D01*
X024065Y005057D02*
X024065Y004606D01*
X023755Y004606D02*
X023455Y004907D01*
X023455Y004606D02*
X023755Y004606D01*
X024375Y004682D02*
X024375Y005057D01*
X024676Y005057D02*
X024676Y004682D01*
X024601Y004606D01*
X024451Y004606D01*
X024375Y004682D01*
X024836Y004682D02*
X024836Y004982D01*
X024911Y005057D01*
X025061Y005057D01*
X025136Y004982D01*
X025136Y004682D01*
X025061Y004606D01*
X024911Y004606D01*
X024836Y004682D01*
X025296Y004531D02*
X025597Y004531D01*
X025757Y004606D02*
X025907Y004757D01*
X025832Y004757D02*
X026057Y004757D01*
X026057Y004606D02*
X026057Y005057D01*
X025832Y005057D01*
X025757Y004982D01*
X025757Y004832D01*
X025832Y004757D01*
X026217Y004757D02*
X026217Y004682D01*
X026292Y004606D01*
X026442Y004606D01*
X026517Y004682D01*
X026442Y004832D02*
X026292Y004832D01*
X026217Y004757D01*
X026217Y004982D02*
X026292Y005057D01*
X026442Y005057D01*
X026517Y004982D01*
X026517Y004907D01*
X026442Y004832D01*
X030094Y005674D02*
X030094Y005825D01*
X030170Y005900D01*
X030470Y005900D01*
X030545Y005825D01*
X030545Y005674D01*
X030470Y005599D01*
X030170Y005599D01*
X030094Y005674D01*
X030094Y006060D02*
X030545Y006060D01*
X030320Y006135D02*
X030094Y006360D01*
X030094Y006520D02*
X030094Y006820D01*
X030094Y006670D02*
X030545Y006670D01*
X030395Y006520D01*
X030545Y006360D02*
X030245Y006060D01*
X030573Y004585D02*
X030573Y004285D01*
X030573Y004435D02*
X031024Y004435D01*
X030873Y004285D01*
X030798Y004125D02*
X030723Y004050D01*
X030723Y003825D01*
X030573Y003825D02*
X031024Y003825D01*
X031024Y004050D01*
X030949Y004125D01*
X030798Y004125D01*
X031024Y003665D02*
X031024Y003514D01*
X031024Y003590D02*
X030648Y003590D01*
X030573Y003514D01*
X030573Y003439D01*
X030648Y003364D01*
X032894Y004422D02*
X032894Y004572D01*
X032894Y004497D02*
X033345Y004497D01*
X033345Y004422D02*
X033345Y004572D01*
X033345Y004729D02*
X032894Y004729D01*
X032894Y005029D01*
X032894Y005189D02*
X032894Y005414D01*
X032970Y005489D01*
X033270Y005489D01*
X033345Y005414D01*
X033345Y005189D01*
X032894Y005189D01*
X032827Y005521D02*
X032752Y005596D01*
X032752Y005746D01*
X032827Y005821D01*
X033127Y005821D01*
X033202Y005746D01*
X033202Y005596D01*
X033127Y005521D01*
X032827Y005521D01*
X032894Y005649D02*
X033195Y005950D01*
X033270Y005950D01*
X033345Y005875D01*
X033345Y005724D01*
X033270Y005649D01*
X033202Y005981D02*
X032752Y005981D01*
X032894Y005950D02*
X032894Y005649D01*
X032902Y005981D02*
X033202Y006281D01*
X033270Y006410D02*
X032970Y006410D01*
X032894Y006335D01*
X032894Y006185D01*
X032970Y006110D01*
X033270Y006410D01*
X033345Y006335D01*
X033345Y006185D01*
X033270Y006110D01*
X032970Y006110D01*
X032977Y006056D02*
X032752Y006281D01*
X032752Y006441D02*
X033052Y006742D01*
X033127Y006742D01*
X033202Y006667D01*
X033202Y006516D01*
X033127Y006441D01*
X033120Y006570D02*
X033195Y006720D01*
X033195Y006795D01*
X033120Y006870D01*
X032970Y006870D01*
X032894Y006795D01*
X032894Y006645D01*
X032970Y006570D01*
X033120Y006570D02*
X033345Y006570D01*
X033345Y006870D01*
X032752Y006742D02*
X032752Y006441D01*
X035552Y006566D02*
X035627Y006491D01*
X035552Y006566D02*
X035552Y006717D01*
X035627Y006792D01*
X035777Y006792D01*
X035852Y006717D01*
X035852Y006642D01*
X035777Y006491D01*
X036002Y006491D01*
X036002Y006792D01*
X035927Y006331D02*
X035627Y006031D01*
X035552Y006106D01*
X035552Y006256D01*
X035627Y006331D01*
X035927Y006331D01*
X036002Y006256D01*
X036002Y006106D01*
X035927Y006031D01*
X035627Y006031D01*
X035552Y005871D02*
X035552Y005571D01*
X035852Y005871D01*
X035927Y005871D01*
X036002Y005796D01*
X036002Y005646D01*
X035927Y005571D01*
X035927Y005410D02*
X036002Y005335D01*
X036002Y005110D01*
X035552Y005110D01*
X035552Y005335D01*
X035627Y005410D01*
X035927Y005410D01*
X035552Y004950D02*
X035552Y004650D01*
X036002Y004650D01*
X036002Y004493D02*
X036002Y004343D01*
X036002Y004418D02*
X035552Y004418D01*
X035552Y004343D02*
X035552Y004493D01*
X031636Y014284D02*
X031561Y014284D01*
X031486Y014360D01*
X031486Y014510D01*
X031411Y014585D01*
X031336Y014585D01*
X031261Y014510D01*
X031261Y014360D01*
X031336Y014284D01*
X031636Y014284D02*
X031711Y014360D01*
X031711Y014510D01*
X031636Y014585D01*
X031711Y014745D02*
X031711Y015045D01*
X031711Y014895D02*
X031261Y014895D01*
X031261Y015205D02*
X031711Y015205D01*
X031561Y015355D01*
X031711Y015505D01*
X031261Y015505D01*
X031486Y015666D02*
X031486Y015966D01*
X031261Y016126D02*
X031711Y016426D01*
X031711Y016586D02*
X031711Y016887D01*
X031711Y016737D02*
X031261Y016737D01*
X031261Y017047D02*
X031561Y017047D01*
X031711Y017197D01*
X031561Y017347D01*
X031261Y017347D01*
X031261Y017507D02*
X031261Y017807D01*
X031261Y017507D02*
X031711Y017507D01*
X031486Y017347D02*
X031486Y017047D01*
X031261Y016426D02*
X031711Y016126D01*
X030111Y016196D02*
X030036Y016046D01*
X029886Y015896D01*
X029886Y016121D01*
X029811Y016196D01*
X029736Y016196D01*
X029661Y016121D01*
X029661Y015971D01*
X029736Y015896D01*
X029886Y015896D01*
X030036Y015736D02*
X029736Y015435D01*
X029661Y015435D01*
X029661Y015280D02*
X029661Y015205D01*
X029736Y015205D01*
X029736Y015280D01*
X029661Y015280D01*
X029661Y015045D02*
X029661Y014745D01*
X029961Y015045D01*
X030036Y015045D01*
X030111Y014970D01*
X030111Y014820D01*
X030036Y014745D01*
X030036Y014585D02*
X029961Y014585D01*
X029886Y014510D01*
X029811Y014585D01*
X029736Y014585D01*
X029661Y014510D01*
X029661Y014360D01*
X029736Y014284D01*
X029886Y014435D02*
X029886Y014510D01*
X030036Y014585D02*
X030111Y014510D01*
X030111Y014360D01*
X030036Y014284D01*
X030111Y015435D02*
X030111Y015736D01*
X030036Y015736D01*
X030036Y016356D02*
X029961Y016356D01*
X029886Y016431D01*
X029886Y016581D01*
X029811Y016656D01*
X029736Y016656D01*
X029661Y016581D01*
X029661Y016431D01*
X029736Y016356D01*
X029811Y016356D01*
X029886Y016431D01*
X029886Y016581D02*
X029961Y016656D01*
X030036Y016656D01*
X030111Y016581D01*
X030111Y016431D01*
X030036Y016356D01*
X030111Y016817D02*
X029661Y016817D01*
X029811Y016817D02*
X029961Y017042D01*
X029886Y017200D02*
X029886Y017501D01*
X029961Y017661D02*
X029961Y017961D01*
X029661Y017661D01*
X029661Y017961D01*
X029661Y017501D02*
X030111Y017501D01*
X030111Y017200D02*
X029661Y017200D01*
X029661Y017042D02*
X029811Y016817D01*
X022389Y027830D02*
X017979Y027830D01*
X017979Y034956D01*
X022389Y034956D01*
X022389Y027830D01*
X016633Y027903D02*
X016558Y027828D01*
X016408Y027828D01*
X016333Y027753D01*
X016333Y027678D01*
X016408Y027603D01*
X016558Y027603D01*
X016633Y027678D01*
X016633Y027903D02*
X016633Y027978D01*
X016558Y028053D01*
X016408Y028053D01*
X016333Y027978D01*
X016173Y027978D02*
X016023Y027828D01*
X016023Y027603D01*
X016023Y027828D02*
X015872Y027978D01*
X015872Y028053D01*
X015712Y027978D02*
X015637Y028053D01*
X015487Y028053D01*
X015412Y027978D01*
X015487Y027828D02*
X015412Y027753D01*
X015412Y027678D01*
X015487Y027603D01*
X015637Y027603D01*
X015712Y027678D01*
X015637Y027828D02*
X015487Y027828D01*
X015637Y027828D02*
X015712Y027903D01*
X015712Y027978D01*
X016173Y027978D02*
X016173Y028053D01*
X015252Y027828D02*
X014952Y027828D01*
X015036Y027830D02*
X010627Y027830D01*
X010627Y034956D01*
X015036Y034956D01*
X015036Y027830D01*
X014791Y028053D02*
X014791Y027603D01*
X014491Y027603D01*
X014331Y027603D02*
X014031Y027603D01*
X014181Y027603D02*
X014181Y028053D01*
X014331Y027903D01*
X014331Y029103D02*
X014031Y029103D01*
X014031Y029403D02*
X014331Y029103D01*
X014491Y029103D02*
X014491Y029328D01*
X014566Y029403D01*
X014716Y029403D01*
X014791Y029328D01*
X014791Y029553D02*
X014791Y029103D01*
X014952Y029103D02*
X014952Y029553D01*
X015102Y029403D01*
X015252Y029553D01*
X015252Y029103D01*
X015412Y029178D02*
X015487Y029103D01*
X015637Y029103D01*
X015712Y029178D01*
X015412Y029478D01*
X015412Y029178D01*
X015412Y029478D02*
X015487Y029553D01*
X015637Y029553D01*
X015712Y029478D01*
X015712Y029178D01*
X015872Y029178D02*
X015947Y029103D01*
X016098Y029103D01*
X016173Y029178D01*
X016173Y029328D02*
X016023Y029403D01*
X015947Y029403D01*
X015872Y029328D01*
X015872Y029178D01*
X016173Y029328D02*
X016173Y029553D01*
X015872Y029553D01*
X016333Y029103D02*
X016633Y029103D01*
X016483Y029103D02*
X016483Y029553D01*
X016633Y029403D01*
X014331Y029403D02*
X014031Y029403D01*
X007684Y027830D02*
X003275Y027830D01*
X003275Y034956D01*
X007684Y034956D01*
X007684Y027830D01*
X010167Y019284D02*
X010167Y018983D01*
X010167Y019133D02*
X010617Y019133D01*
X010467Y018983D01*
X010542Y018823D02*
X010617Y018748D01*
X010617Y018598D01*
X010542Y018523D01*
X010242Y018523D01*
X010167Y018598D01*
X010167Y018748D01*
X010242Y018823D01*
X010542Y018823D01*
X010617Y018363D02*
X010617Y018063D01*
X010617Y018213D02*
X010167Y018213D01*
X010167Y017902D02*
X010317Y017752D01*
X010317Y017827D02*
X010317Y017602D01*
X010167Y017602D02*
X010617Y017602D01*
X010617Y017827D01*
X010542Y017902D01*
X010392Y017902D01*
X010317Y017827D01*
X010206Y011808D02*
X010206Y011508D01*
X010506Y011808D01*
X010581Y011808D01*
X010656Y011733D01*
X010656Y011583D01*
X010581Y011508D01*
X010581Y011348D02*
X010656Y011273D01*
X010656Y011123D01*
X010581Y011048D01*
X010281Y011048D01*
X010206Y011123D01*
X010206Y011273D01*
X010281Y011348D01*
X010581Y011348D01*
X010656Y010887D02*
X010656Y010587D01*
X010656Y010737D02*
X010206Y010737D01*
X010206Y010427D02*
X010356Y010277D01*
X010356Y010352D02*
X010356Y010127D01*
X010206Y010127D02*
X010656Y010127D01*
X010656Y010352D01*
X010581Y010427D01*
X010431Y010427D01*
X010356Y010352D01*
D18*
X030486Y013759D02*
X030486Y013909D01*
X030886Y013959D02*
X030886Y013759D01*
D19*
X030886Y013974D03*
X030486Y013974D03*
D20*
X026798Y005881D03*
X026011Y005881D03*
X025223Y005881D03*
X027591Y005384D03*
D21*
X030719Y006836D02*
X032719Y006836D01*
X033377Y006757D02*
X035377Y006757D01*
D22*
X009426Y006127D03*
X009426Y002387D03*
X009431Y009882D03*
X009431Y013622D03*
X009392Y017357D03*
X009392Y021097D03*
M02*
