G75*
G70*
%OFA0B0*%
%FSLAX24Y24*%
%IPPOS*%
%LPD*%
%AMOC8*
5,1,8,0,0,1.08239X$1,22.5*
%
%ADD10R,0.0394X0.0433*%
%ADD11R,0.0433X0.0394*%
%ADD12R,0.0354X0.0276*%
%ADD13R,0.0630X0.0512*%
%ADD14R,0.1378X0.0630*%
%ADD15C,0.0594*%
%ADD16C,0.0945*%
%ADD17C,0.0554*%
%ADD18C,0.0236*%
%ADD19R,0.0260X0.0800*%
%ADD20R,0.0800X0.0260*%
%ADD21R,0.0472X0.0472*%
%ADD22C,0.0440*%
%ADD23R,0.0276X0.0354*%
%ADD24R,0.0110X0.0580*%
%ADD25R,0.0580X0.0110*%
%ADD26R,0.0118X0.0591*%
%ADD27R,0.0591X0.0118*%
%ADD28C,0.0650*%
%ADD29C,0.0600*%
%ADD30OC8,0.0600*%
%ADD31R,0.0591X0.0512*%
%ADD32R,0.0600X0.0300*%
%ADD33C,0.0660*%
%ADD34C,0.0397*%
%ADD35R,0.0169X0.0110*%
%ADD36R,0.0335X0.0866*%
%ADD37R,0.0394X0.0413*%
%ADD38R,0.0295X0.1181*%
%ADD39R,0.1181X0.1969*%
%ADD40C,0.0760*%
%ADD41OC8,0.0520*%
%ADD42C,0.0974*%
%ADD43C,0.0515*%
%ADD44R,0.0515X0.0515*%
%ADD45R,0.0453X0.0173*%
%ADD46R,0.0453X0.0248*%
%ADD47C,0.0118*%
%ADD48R,0.1280X0.1280*%
%ADD49R,0.0472X0.0394*%
%ADD50R,0.0138X0.0098*%
%ADD51R,0.0098X0.0138*%
%ADD52R,0.0138X0.0394*%
%ADD53R,0.0157X0.0551*%
%ADD54R,0.0709X0.0591*%
%ADD55R,0.0591X0.0276*%
%ADD56C,0.0515*%
%ADD57R,0.1575X0.1575*%
%ADD58OC8,0.0700*%
%ADD59OC8,0.0396*%
%ADD60OC8,0.0357*%
%ADD61C,0.0357*%
%ADD62C,0.0317*%
%ADD63OC8,0.0317*%
%ADD64C,0.0278*%
%ADD65OC8,0.0278*%
D10*
X016316Y012190D03*
X016316Y012859D03*
X016316Y016914D03*
X016316Y017583D03*
X020164Y019020D03*
X020834Y019020D03*
X018727Y024001D03*
X018727Y024670D03*
X022123Y012957D03*
X022123Y012288D03*
X023009Y012288D03*
X023009Y012957D03*
X029849Y014355D03*
X029849Y015024D03*
X030686Y015024D03*
X030686Y014355D03*
X034328Y013942D03*
X034328Y013272D03*
X036296Y014896D03*
X036296Y015566D03*
X036592Y018883D03*
X036592Y019552D03*
X031966Y024641D03*
X031966Y025310D03*
X032664Y025270D03*
X033334Y025270D03*
X033245Y030202D03*
X033245Y030871D03*
X033836Y031973D03*
X033836Y032643D03*
X034623Y032643D03*
X034623Y031973D03*
X035066Y031166D03*
X035066Y030497D03*
X036198Y031973D03*
X036198Y032643D03*
X036493Y031166D03*
X036493Y030497D03*
X032261Y031678D03*
X032261Y032347D03*
X038718Y025270D03*
X039387Y025270D03*
D11*
X034761Y024778D03*
X034092Y024778D03*
X032891Y026107D03*
X032221Y026107D03*
X032546Y026894D03*
X031877Y026894D03*
X031729Y027682D03*
X031877Y028469D03*
X032546Y028469D03*
X032399Y027682D03*
X032221Y029257D03*
X032891Y029257D03*
X033048Y031678D03*
X033048Y032347D03*
X034771Y034139D03*
X034771Y034808D03*
X035952Y034808D03*
X035952Y034139D03*
X035410Y032643D03*
X035410Y031973D03*
X036985Y031973D03*
X036985Y032643D03*
X037969Y032446D03*
X037969Y031776D03*
X038757Y031776D03*
X038757Y032446D03*
X031710Y020251D03*
X031040Y020251D03*
X031828Y013656D03*
X032497Y013656D03*
X032694Y012820D03*
X032025Y012820D03*
X029544Y013656D03*
X028875Y013656D03*
X032123Y009965D03*
X032792Y009965D03*
X019406Y023253D03*
X018737Y023253D03*
X019377Y025566D03*
X020046Y025566D03*
X023806Y027879D03*
X024475Y027879D03*
X021414Y040300D03*
X021414Y040969D03*
D12*
X017359Y024562D03*
X017359Y024050D03*
X016641Y024089D03*
X016641Y024601D03*
X015893Y024641D03*
X015893Y024129D03*
X014790Y024247D03*
X014790Y024759D03*
X014023Y024759D03*
X014023Y024247D03*
X013255Y024247D03*
X013255Y024759D03*
X012261Y024769D03*
X012261Y024257D03*
X011601Y024257D03*
X011601Y024769D03*
X010942Y024778D03*
X010942Y024267D03*
X010322Y024281D03*
X010322Y024793D03*
X035017Y013863D03*
X035017Y013351D03*
D13*
X015529Y012918D03*
X015529Y012131D03*
D14*
X037546Y034178D03*
X039672Y034178D03*
X030962Y040477D03*
X028836Y040477D03*
D15*
X033019Y041316D03*
X034019Y041914D03*
X036999Y041316D03*
X037999Y041914D03*
D16*
X038609Y038784D03*
X032408Y038784D03*
D17*
X034259Y037485D03*
X034759Y036485D03*
X033759Y036485D03*
X035259Y037485D03*
X036259Y037485D03*
X036759Y036485D03*
X035759Y036485D03*
X037259Y037485D03*
D18*
X028855Y037180D02*
X028305Y037180D01*
X028305Y036786D02*
X028855Y036786D01*
X028855Y036393D02*
X028305Y036393D01*
X028305Y035999D02*
X028855Y035999D01*
X028855Y035605D02*
X028305Y035605D01*
X028305Y035211D02*
X028855Y035211D01*
X028855Y034818D02*
X028305Y034818D01*
X028305Y034424D02*
X028855Y034424D01*
X028855Y034030D02*
X028305Y034030D01*
X028305Y033637D02*
X028855Y033637D01*
X028855Y033243D02*
X028305Y033243D01*
X028305Y032849D02*
X028855Y032849D01*
X028855Y032456D02*
X028305Y032456D01*
X028305Y032062D02*
X028855Y032062D01*
X028855Y031668D02*
X028305Y031668D01*
X028305Y031274D02*
X028855Y031274D01*
X028855Y030881D02*
X028305Y030881D01*
X026847Y029423D02*
X026847Y028873D01*
X026454Y028873D02*
X026454Y029423D01*
X026060Y029423D02*
X026060Y028873D01*
X025666Y028873D02*
X025666Y029423D01*
X025273Y029423D02*
X025273Y028873D01*
X024879Y028873D02*
X024879Y029423D01*
X024485Y029423D02*
X024485Y028873D01*
X024092Y028873D02*
X024092Y029423D01*
X023698Y029423D02*
X023698Y028873D01*
X023304Y028873D02*
X023304Y029423D01*
X022910Y029423D02*
X022910Y028873D01*
X022517Y028873D02*
X022517Y029423D01*
X022123Y029423D02*
X022123Y028873D01*
X021729Y028873D02*
X021729Y029423D01*
X021336Y029423D02*
X021336Y028873D01*
X020942Y028873D02*
X020942Y029423D01*
X020548Y029423D02*
X020548Y028873D01*
X019091Y030881D02*
X018541Y030881D01*
X018541Y031274D02*
X019091Y031274D01*
X019091Y031668D02*
X018541Y031668D01*
X018541Y032062D02*
X019091Y032062D01*
X019091Y032456D02*
X018541Y032456D01*
X018541Y032849D02*
X019091Y032849D01*
X019091Y033243D02*
X018541Y033243D01*
X018541Y033637D02*
X019091Y033637D01*
X019091Y034030D02*
X018541Y034030D01*
X018541Y034424D02*
X019091Y034424D01*
X019091Y034818D02*
X018541Y034818D01*
X018541Y035211D02*
X019091Y035211D01*
X019091Y035605D02*
X018541Y035605D01*
X018541Y035999D02*
X019091Y035999D01*
X019091Y036393D02*
X018541Y036393D01*
X018541Y036786D02*
X019091Y036786D01*
X019091Y037180D02*
X018541Y037180D01*
X020548Y038637D02*
X020548Y039187D01*
X020942Y039187D02*
X020942Y038637D01*
X021336Y038637D02*
X021336Y039187D01*
X021729Y039187D02*
X021729Y038637D01*
X022123Y038637D02*
X022123Y039187D01*
X022517Y039187D02*
X022517Y038637D01*
X022910Y038637D02*
X022910Y039187D01*
X023304Y039187D02*
X023304Y038637D01*
X023698Y038637D02*
X023698Y039187D01*
X024092Y039187D02*
X024092Y038637D01*
X024485Y038637D02*
X024485Y039187D01*
X024879Y039187D02*
X024879Y038637D01*
X025273Y038637D02*
X025273Y039187D01*
X025666Y039187D02*
X025666Y038637D01*
X026060Y038637D02*
X026060Y039187D01*
X026454Y039187D02*
X026454Y038637D01*
X026847Y038637D02*
X026847Y039187D01*
D19*
X022446Y008370D03*
X021946Y008370D03*
X021446Y008370D03*
X020946Y008370D03*
X020446Y008370D03*
X019946Y008370D03*
X019446Y008370D03*
X018946Y008370D03*
X017869Y008370D03*
X017369Y008370D03*
X016869Y008370D03*
X016369Y008370D03*
X015869Y008370D03*
X015369Y008370D03*
X014869Y008370D03*
X014369Y008370D03*
X014369Y005950D03*
X014869Y005950D03*
X015369Y005950D03*
X015869Y005950D03*
X016369Y005950D03*
X016869Y005950D03*
X017369Y005950D03*
X017869Y005950D03*
X018946Y005950D03*
X019446Y005950D03*
X019946Y005950D03*
X020446Y005950D03*
X020946Y005950D03*
X021446Y005950D03*
X021946Y005950D03*
X022446Y005950D03*
X023460Y005238D03*
X023960Y005238D03*
X024460Y005238D03*
X024960Y005238D03*
X025460Y005238D03*
X025960Y005238D03*
X026460Y005238D03*
X026960Y005238D03*
X026960Y007658D03*
X026460Y007658D03*
X025960Y007658D03*
X025460Y007658D03*
X024960Y007658D03*
X024460Y007658D03*
X023960Y007658D03*
X023460Y007658D03*
D20*
X021150Y012432D03*
X021150Y012932D03*
X021150Y013432D03*
X021150Y013932D03*
X021150Y014432D03*
X021150Y014932D03*
X021150Y015432D03*
X021150Y015932D03*
X021150Y016432D03*
X021150Y016932D03*
X021150Y017432D03*
X021150Y017932D03*
X017190Y017932D03*
X017190Y017432D03*
X017190Y016932D03*
X017190Y016432D03*
X017190Y015932D03*
X017190Y015432D03*
X017190Y014932D03*
X017190Y014432D03*
X017190Y013932D03*
X017190Y013432D03*
X017190Y012932D03*
X017190Y012432D03*
D21*
X026454Y040261D03*
X026454Y041087D03*
X020253Y040704D03*
X020253Y041530D03*
D22*
X032344Y023620D02*
X032344Y023180D01*
X034344Y023180D02*
X034344Y023620D01*
D23*
X028235Y018430D03*
X027723Y018430D03*
X027497Y017938D03*
X026985Y017938D03*
X025725Y018479D03*
X025214Y018479D03*
X025381Y017987D03*
X024869Y017987D03*
X018147Y025270D03*
X017635Y025270D03*
X015981Y025270D03*
X015469Y025270D03*
X013875Y025635D03*
X013363Y025635D03*
X013344Y026265D03*
X013855Y026265D03*
X011592Y025384D03*
X011080Y025384D03*
X019032Y040290D03*
X019544Y040290D03*
D24*
X031765Y019262D03*
X031965Y019262D03*
X032165Y019262D03*
X032355Y019262D03*
X032555Y019262D03*
X032755Y019262D03*
X032945Y019262D03*
X033145Y019262D03*
X033345Y019262D03*
X033545Y019262D03*
X033735Y019262D03*
X033935Y019262D03*
X034135Y019262D03*
X034325Y019262D03*
X034525Y019262D03*
X034725Y019262D03*
X034725Y014842D03*
X034525Y014842D03*
X034325Y014842D03*
X034135Y014842D03*
X033935Y014842D03*
X033735Y014842D03*
X033545Y014842D03*
X033345Y014842D03*
X033145Y014842D03*
X032945Y014842D03*
X032755Y014842D03*
X032555Y014842D03*
X032355Y014842D03*
X032165Y014842D03*
X031965Y014842D03*
X031765Y014842D03*
D25*
X031035Y015572D03*
X031035Y015772D03*
X031035Y015972D03*
X031035Y016162D03*
X031035Y016362D03*
X031035Y016562D03*
X031035Y016752D03*
X031035Y016952D03*
X031035Y017152D03*
X031035Y017352D03*
X031035Y017542D03*
X031035Y017742D03*
X031035Y017942D03*
X031035Y018132D03*
X031035Y018332D03*
X031035Y018532D03*
X035455Y018532D03*
X035455Y018332D03*
X035455Y018132D03*
X035455Y017942D03*
X035455Y017742D03*
X035455Y017542D03*
X035455Y017352D03*
X035455Y017152D03*
X035455Y016952D03*
X035455Y016752D03*
X035455Y016562D03*
X035455Y016362D03*
X035455Y016162D03*
X035455Y015972D03*
X035455Y015772D03*
X035455Y015572D03*
D26*
X035509Y025733D03*
X035706Y025733D03*
X035903Y025733D03*
X036099Y025733D03*
X036296Y025733D03*
X036493Y025733D03*
X036690Y025733D03*
X035312Y025733D03*
X035115Y025733D03*
X034918Y025733D03*
X034721Y025733D03*
X034525Y025733D03*
X034525Y029237D03*
X034721Y029237D03*
X034918Y029237D03*
X035115Y029237D03*
X035312Y029237D03*
X035509Y029237D03*
X035706Y029237D03*
X035903Y029237D03*
X036099Y029237D03*
X036296Y029237D03*
X036493Y029237D03*
X036690Y029237D03*
D27*
X037359Y028568D03*
X037359Y028371D03*
X037359Y028174D03*
X037359Y027977D03*
X037359Y027780D03*
X037359Y027583D03*
X037359Y027387D03*
X037359Y027190D03*
X037359Y026993D03*
X037359Y026796D03*
X037359Y026599D03*
X037359Y026402D03*
X033855Y026402D03*
X033855Y026599D03*
X033855Y026796D03*
X033855Y026993D03*
X033855Y027190D03*
X033855Y027387D03*
X033855Y027583D03*
X033855Y027780D03*
X033855Y027977D03*
X033855Y028174D03*
X033855Y028371D03*
X033855Y028568D03*
D28*
X025092Y015871D03*
X023092Y015871D03*
D29*
X026857Y024247D03*
X026306Y025566D03*
X026857Y026885D03*
X029495Y026885D03*
X030046Y025566D03*
X029495Y024247D03*
X030072Y033489D03*
X031072Y033489D03*
X031072Y034670D03*
X030072Y034670D03*
X032072Y034670D03*
X033072Y034670D03*
X033072Y033489D03*
X032072Y033489D03*
X031719Y001550D03*
X030719Y001550D03*
X032719Y001550D03*
X033960Y001550D03*
X034960Y001550D03*
X035960Y001550D03*
X036960Y001550D03*
D30*
X029798Y003839D03*
X028798Y003839D03*
X028798Y004839D03*
X029798Y004839D03*
X029798Y005839D03*
X028798Y005839D03*
X028798Y006839D03*
X029798Y006839D03*
X026042Y003831D03*
X026042Y002831D03*
X025042Y002831D03*
X025042Y003831D03*
X024042Y003831D03*
X024042Y002831D03*
X023042Y002831D03*
X023042Y003831D03*
X022042Y003831D03*
X022042Y002831D03*
X017824Y002831D03*
X016824Y002831D03*
X016824Y003831D03*
X017824Y003831D03*
X015824Y003831D03*
X015824Y002831D03*
X014824Y002831D03*
X014824Y003831D03*
X013824Y003831D03*
X013824Y002831D03*
D31*
X034180Y030300D03*
X034180Y030969D03*
X030292Y038026D03*
X030292Y038696D03*
D32*
X029867Y010272D03*
X029867Y008772D03*
X027667Y008772D03*
X027667Y010272D03*
D33*
X030186Y013459D03*
X031186Y013459D03*
D34*
X031316Y008886D02*
X031316Y008489D01*
X032103Y008489D02*
X032103Y008886D01*
X032891Y008886D02*
X032891Y008489D01*
X033678Y008489D02*
X033678Y008886D01*
X034466Y008886D02*
X034466Y008489D01*
X035253Y008489D02*
X035253Y008886D01*
X036040Y008886D02*
X036040Y008489D01*
X036828Y008489D02*
X036828Y008886D01*
X036828Y002977D02*
X036828Y002580D01*
X036040Y002580D02*
X036040Y002977D01*
X035253Y002977D02*
X035253Y002580D01*
X034466Y002580D02*
X034466Y002977D01*
X033678Y002977D02*
X033678Y002580D01*
X032891Y002580D02*
X032891Y002977D01*
X032103Y002977D02*
X032103Y002580D01*
X031316Y002580D02*
X031316Y002977D01*
D35*
X035460Y011194D03*
X035460Y011394D03*
X035853Y011394D03*
X035853Y011194D03*
D36*
X023993Y021629D03*
X022910Y021629D03*
X023501Y041363D03*
X024584Y041363D03*
D37*
X024042Y041963D03*
X024042Y040763D03*
X023452Y022229D03*
X023452Y021028D03*
D38*
X015389Y032198D03*
X014889Y032198D03*
X014389Y032198D03*
X013889Y032198D03*
X013389Y032198D03*
X012889Y032198D03*
D39*
X010109Y041658D03*
X018160Y041658D03*
D40*
X010127Y021747D03*
X006127Y021747D03*
X006127Y016747D03*
X006127Y014267D03*
X010127Y014267D03*
X010127Y016747D03*
X010127Y009267D03*
X010127Y006786D03*
X006127Y006786D03*
X006127Y009267D03*
X006127Y001786D03*
X010127Y001786D03*
D41*
X009426Y001757D03*
X009426Y006757D03*
X009431Y009252D03*
X009431Y014252D03*
X009392Y016727D03*
X009392Y021727D03*
X003725Y015428D03*
X002725Y015428D03*
X002735Y011707D03*
X003735Y011707D03*
X003725Y007997D03*
X002725Y007997D03*
D42*
X002787Y005635D02*
X003762Y005635D01*
X003762Y009375D02*
X002787Y009375D01*
X002787Y013115D02*
X003762Y013115D01*
X003762Y016855D02*
X002787Y016855D01*
D43*
X013082Y017219D03*
X013082Y018219D03*
X013082Y016219D03*
X013082Y015219D03*
X038655Y015219D03*
X038655Y014219D03*
X038655Y013219D03*
X038655Y012219D03*
X038655Y010219D03*
X038655Y016219D03*
X038655Y017219D03*
X038655Y018219D03*
X038655Y019219D03*
X038655Y020219D03*
X038655Y021219D03*
X038655Y022219D03*
X038655Y023219D03*
D44*
X038655Y011219D03*
D45*
X038668Y026343D03*
X038668Y026658D03*
X039436Y026658D03*
X039436Y026343D03*
X039436Y028017D03*
X039436Y028331D03*
X038668Y028331D03*
X038668Y028017D03*
D46*
X038668Y027664D03*
X038668Y027011D03*
X039436Y027011D03*
X039436Y027664D03*
X039436Y028684D03*
X038668Y028684D03*
X038668Y025991D03*
X039436Y025991D03*
D47*
X028116Y020595D02*
X027822Y020595D01*
X027822Y020398D02*
X028116Y020398D01*
X028116Y020202D02*
X027822Y020202D01*
X027822Y020005D02*
X028116Y020005D01*
X028116Y019808D02*
X027822Y019808D01*
X027822Y019611D02*
X028116Y019611D01*
X028116Y019414D02*
X027822Y019414D01*
X027635Y019227D02*
X027635Y018933D01*
X027438Y018933D02*
X027438Y019227D01*
X027241Y019227D02*
X027241Y018933D01*
X027044Y018933D02*
X027044Y019227D01*
X026847Y019227D02*
X026847Y018933D01*
X026651Y018933D02*
X026651Y019227D01*
X026454Y019227D02*
X026454Y018933D01*
X026266Y019414D02*
X025972Y019414D01*
X025972Y019611D02*
X026266Y019611D01*
X026266Y019808D02*
X025972Y019808D01*
X025972Y020005D02*
X026266Y020005D01*
X026266Y020202D02*
X025972Y020202D01*
X025972Y020398D02*
X026266Y020398D01*
X026266Y020595D02*
X025972Y020595D01*
X026454Y020783D02*
X026454Y021077D01*
X026651Y021077D02*
X026651Y020783D01*
X026847Y020783D02*
X026847Y021077D01*
X027044Y021077D02*
X027044Y020783D01*
X027241Y020783D02*
X027241Y021077D01*
X027438Y021077D02*
X027438Y020783D01*
X027635Y020783D02*
X027635Y021077D01*
D48*
X027044Y020005D03*
D49*
X026050Y021983D03*
X025381Y021983D03*
X025381Y022652D03*
X026050Y022652D03*
D50*
X026306Y021629D03*
X026306Y021432D03*
D51*
X026651Y021678D03*
X026847Y021678D03*
D52*
X025332Y020359D03*
X025076Y020359D03*
X024820Y020359D03*
X024820Y019650D03*
X025076Y019650D03*
X025332Y019650D03*
D53*
X007084Y041186D03*
X006828Y041186D03*
X006572Y041186D03*
X006316Y041186D03*
X006060Y041186D03*
D54*
X005121Y042249D03*
X008022Y042249D03*
D55*
X006572Y042249D03*
D56*
X008481Y036286D02*
X008481Y035771D01*
X002418Y035771D02*
X002418Y036286D01*
X004466Y024711D02*
X004466Y024196D01*
X006434Y024196D02*
X006434Y024711D01*
D57*
X010735Y026648D03*
X010735Y030979D03*
X016641Y030979D03*
X016641Y026648D03*
D58*
X018517Y020303D03*
X019517Y020303D03*
X020517Y020303D03*
X021517Y020303D03*
D59*
X017989Y017446D03*
X018678Y016265D03*
X019170Y014001D03*
X022025Y013902D03*
X023009Y012278D03*
X023944Y009129D03*
X028471Y012820D03*
X028914Y012180D03*
X030686Y014345D03*
X028422Y014887D03*
X032802Y009965D03*
X035017Y013263D03*
X036296Y014887D03*
X036788Y012524D03*
X035509Y019906D03*
X035164Y020448D03*
X035460Y020989D03*
X035164Y021530D03*
X034377Y021530D03*
X033934Y020497D03*
X033540Y020989D03*
X033688Y019906D03*
X034771Y022662D03*
X034771Y024778D03*
X034082Y024778D03*
X031966Y025418D03*
X035263Y027091D03*
X036001Y027091D03*
X036542Y028420D03*
X036493Y030487D03*
X037969Y030733D03*
X038757Y030979D03*
X038757Y032456D03*
X037969Y032456D03*
X036985Y031963D03*
X035952Y034129D03*
X034771Y034129D03*
X033048Y032357D03*
X031424Y032357D03*
X030735Y032357D03*
X030735Y031373D03*
X031424Y031373D03*
X033245Y030192D03*
X037133Y024631D03*
X037133Y023499D03*
X025223Y037967D03*
X029288Y039680D03*
X015529Y012918D03*
X015922Y009473D03*
X016365Y007751D03*
X016906Y007406D03*
X017399Y007013D03*
X018137Y008440D03*
X015381Y007702D03*
D60*
X018038Y005979D03*
X021446Y010064D03*
X022517Y009621D03*
X022812Y010064D03*
X022910Y008391D03*
X024436Y008391D03*
X025076Y008587D03*
X027143Y008489D03*
X027979Y009473D03*
X029013Y008538D03*
X031473Y006890D03*
X032463Y006717D03*
X032015Y005635D03*
X032679Y005482D03*
X031473Y005536D03*
X030932Y005339D03*
X033073Y007874D03*
X034968Y005684D03*
X035706Y006373D03*
X035204Y007342D03*
X037773Y008883D03*
X039200Y008883D03*
X038117Y006373D03*
X034623Y004257D03*
X036198Y011934D03*
X037281Y017003D03*
X037428Y017593D03*
X036444Y017446D03*
X028029Y021087D03*
X027340Y020300D03*
X027340Y019709D03*
X026749Y019709D03*
X026749Y020300D03*
X025716Y021038D03*
X019170Y024877D03*
X021631Y028272D03*
X020273Y029749D03*
X020844Y030074D03*
X021532Y030064D03*
X021680Y030654D03*
X023186Y028322D03*
X026651Y030881D03*
X020243Y034670D03*
X026109Y040231D03*
X011444Y018381D03*
X011788Y010950D03*
X012527Y009522D03*
X011739Y005438D03*
X022812Y005930D03*
D61*
X021975Y007013D03*
X021434Y007456D03*
X020942Y007751D03*
X019958Y007849D03*
X018826Y008833D03*
X019318Y009719D03*
X020946Y009621D03*
X015869Y007209D03*
X022221Y016412D03*
X022320Y018036D03*
X019810Y017790D03*
X016956Y022072D03*
X017655Y022859D03*
X016277Y024690D03*
X014431Y025610D03*
X013599Y024788D03*
X012846Y025797D03*
X012335Y027244D03*
X013339Y027273D03*
X011277Y024788D03*
X017094Y028794D03*
X018009Y027820D03*
X018481Y027190D03*
X018865Y029552D03*
X020686Y031835D03*
X023324Y030379D03*
X022812Y027682D03*
X021926Y024975D03*
X020371Y023883D03*
X012910Y031402D03*
X013383Y033400D03*
X012261Y034473D03*
X013403Y037633D03*
X016345Y034670D03*
X015962Y033489D03*
X015489Y033017D03*
X016867Y033135D03*
X019662Y036668D03*
X022861Y039739D03*
X022861Y040428D03*
X022910Y041068D03*
X022910Y041806D03*
X023353Y042298D03*
X024928Y042298D03*
X025371Y041806D03*
X025371Y041215D03*
X025371Y040576D03*
X024938Y040133D03*
X024466Y039690D03*
X026454Y042052D03*
X027487Y042052D03*
X027064Y038893D03*
X028619Y037770D03*
X030686Y040526D03*
X027389Y033981D03*
X026601Y033981D03*
X024938Y034513D03*
X021001Y040969D03*
X019997Y041698D03*
X010214Y040143D03*
X010214Y039404D03*
X010214Y038568D03*
X007310Y040763D03*
X031031Y022957D03*
X030981Y020300D03*
X031719Y020251D03*
X031769Y015526D03*
X034328Y013942D03*
X038019Y015871D03*
X036690Y018774D03*
X037034Y019414D03*
X037084Y022711D03*
X038068Y025270D03*
X039446Y026206D03*
X031621Y029257D03*
X029899Y010211D03*
X029406Y009670D03*
X036395Y009621D03*
X029800Y002190D03*
D62*
X019466Y021826D03*
X023895Y023499D03*
X029357Y028863D03*
X027536Y029650D03*
X026651Y029896D03*
X025863Y029936D03*
X025036Y029946D03*
X025076Y030536D03*
X024141Y032308D03*
X021188Y032308D03*
X016710Y031717D03*
X015937Y029468D03*
X015125Y028582D03*
X016523Y027702D03*
X015100Y026634D03*
X011995Y029759D03*
X010529Y031853D03*
X010656Y025418D03*
X011838Y025418D03*
X018531Y037598D03*
X018398Y038666D03*
D63*
X021277Y026501D03*
X021680Y025959D03*
X020253Y025517D03*
X032310Y021727D03*
X032162Y021186D03*
X034525Y018479D03*
X033885Y017692D03*
X034279Y016904D03*
X034279Y016363D03*
X033737Y016363D03*
X033245Y016954D03*
X032704Y017003D03*
X030538Y004060D03*
D64*
X031719Y016757D03*
X032851Y018233D03*
X032458Y018528D03*
X033393Y017987D03*
X031277Y021580D03*
X029259Y020349D03*
X029210Y019808D03*
X029357Y019316D03*
X029653Y018528D03*
X029259Y018282D03*
X028275Y018036D03*
X028964Y020841D03*
X028718Y021235D03*
X028767Y021678D03*
X027930Y022121D03*
X027192Y022416D03*
X026552Y021826D03*
X025076Y021038D03*
X024830Y021038D03*
X024830Y020694D03*
X025076Y020694D03*
X025076Y020005D03*
X024338Y020398D03*
X023599Y019365D03*
X023009Y019906D03*
X022861Y020743D03*
X022320Y021481D03*
X022271Y022121D03*
X022812Y022711D03*
X022172Y022957D03*
X023599Y022859D03*
X024338Y022564D03*
X024534Y021776D03*
X025076Y019168D03*
X025076Y018774D03*
X024190Y018774D03*
X039544Y034818D03*
D65*
X026995Y018184D03*
X026257Y018233D03*
M02*
