%
M48
M72
T01C0.0118
T02C0.0157
T03C0.0197
T04C0.0236
T05C0.0240
T06C0.0276
T07C0.0315
T08C0.0320
T09C0.0335
T10C0.0354
T11C0.0394
T12C0.0400
T13C0.0630
T14C0.0650
T15C0.1181
T16C0.1260
%
T01
X22172Y21848
X22861Y22341
X22271Y22931
X22271Y23719
X22812Y24309
X22172Y24555
X23599Y24457
X24338Y24161
X24633Y23423
X24830Y22636
X25076Y22636
X25076Y22291
X24830Y22291
X24338Y21996
X25076Y21602
X25076Y20766
X25076Y20372
X24190Y20372
X23599Y20963
X23009Y21504
X26257Y19831
X26995Y19781
X28275Y19634
X29259Y19880
X29653Y20126
X29357Y20913
X29210Y21406
X29259Y21947
X28964Y22439
X28718Y22833
X28767Y23276
X27930Y23719
X27192Y24014
X26503Y23423
X31277Y23177
X32458Y20126
X32851Y19831
X33393Y19585
X31719Y18354
X39544Y36415
T02
X32310Y23325
X32162Y22783
X34525Y20077
X33885Y19289
X34279Y18502
X34279Y17961
X33737Y17961
X33245Y18551
X32704Y18600
X27536Y31248
X26651Y31494
X25863Y31533
X25036Y31543
X25076Y32134
X21277Y28098
X21680Y27557
X19416Y26917
X18678Y27065
T03
X18481Y28787
X18009Y29417
X17143Y30244
X18865Y31150
X20273Y31346
X20844Y31671
X21532Y31661
X21680Y32252
X20686Y33433
X20243Y36268
X19662Y38266
X18038Y39417
X16660Y38531
X16227Y39093
X16345Y36268
X15962Y35087
X15489Y34614
X16867Y34732
X13481Y35047
X12261Y36071
X13403Y38787
X10214Y40165
X7261Y42409
X13009Y33000
X14544Y30047
X13363Y29417
X12379Y29417
X12851Y27803
X12261Y27331
X11277Y26386
X10607Y27843
X13599Y26386
X14584Y27213
X16277Y26504
X17655Y24457
X16956Y23669
X19367Y23669
X20371Y25480
X21926Y26573
X22812Y29280
X23186Y29919
X21631Y29870
X23324Y31976
X26651Y32478
X26601Y35579
X27389Y35579
X24938Y36110
X27064Y40490
X26109Y41829
X25371Y42173
X24938Y41730
X24466Y41287
X25371Y42813
X25371Y43404
X24928Y43896
X23353Y43896
X22910Y43404
X22910Y42665
X22861Y42026
X22861Y41337
X21001Y42567
X19997Y43295
X26454Y43650
X27487Y43650
X30686Y42124
X28619Y39368
X31621Y30854
X29308Y29476
X31031Y24555
X30981Y21898
X31719Y21848
X28029Y22685
X27340Y21898
X27340Y21307
X26749Y21307
X26749Y21898
X25716Y22685
X22320Y19634
X22221Y18010
X19810Y19388
X21446Y11661
X20946Y11219
X19958Y9447
X18826Y10431
X19318Y11317
X20942Y9348
X21434Y9053
X21975Y8610
X22812Y7528
X22910Y9988
X22517Y11219
X22812Y11661
X24436Y9988
X25076Y10185
X27143Y10087
X27979Y11071
X29013Y10136
X29406Y11268
X29899Y11809
X31316Y10087
X32103Y10087
X32891Y10087
X33073Y9471
X33678Y10087
X34466Y10087
X35253Y10087
X36040Y10087
X36828Y10087
X36395Y11219
X37773Y10480
X39200Y10480
X38117Y7970
X35706Y7970
X34968Y7281
X34623Y5854
X34466Y4575
X35253Y4575
X36040Y4575
X36828Y4575
X33678Y4575
X32891Y4575
X32103Y4575
X31316Y4575
X30538Y5657
X30932Y6937
X31473Y7134
X32015Y7232
X32679Y7080
X32463Y8315
X31473Y8487
X35204Y8940
X36198Y13531
X34328Y15539
X31769Y17124
X36444Y19043
X37281Y18600
X37428Y19191
X36690Y20372
X37034Y21012
X37084Y24309
X38068Y26868
X39446Y27803
X38019Y17469
X29800Y3787
X18038Y7577
X15869Y8807
X12527Y11120
X11788Y12547
X11739Y7035
X11444Y19978
X5017Y29417
X6001Y30047
X9977Y31701
T04
X14052Y41337
X25223Y39565
X29288Y41278
X34771Y35726
X35952Y35726
X36985Y33561
X37969Y34053
X38757Y34053
X38757Y32577
X37969Y32331
X36493Y32085
X36542Y30018
X36001Y28689
X35263Y28689
X34771Y26376
X34082Y26376
X34771Y24260
X35164Y23128
X35460Y22587
X35164Y22045
X35509Y21504
X33934Y22094
X33540Y22587
X34377Y23128
X33688Y21504
X37133Y25096
X37133Y26228
X33245Y31789
X31424Y32970
X30735Y32970
X30735Y33955
X31424Y33955
X33048Y33955
X31473Y27065
X28422Y16484
X28471Y14417
X28914Y13778
X30686Y15943
X32802Y11563
X35017Y14860
X36788Y14122
X36296Y16484
X23944Y10726
X23009Y13876
X22025Y15500
X19170Y15598
X18678Y17862
X17989Y19043
X15529Y14516
X15922Y11071
X16365Y9348
X16906Y9004
X17399Y8610
X18137Y10037
X15381Y9299
T05
X32147Y24998
X34147Y24998
T06
X25092Y17469
X23092Y17469
T07
X13082Y17817
X13082Y18817
X13082Y19817
X13082Y16817
X6680Y26051
X4712Y26051
X2664Y37626
X8727Y37626
X38655Y24817
X38655Y23817
X38655Y22817
X38655Y21817
X38655Y20817
X38655Y19817
X38655Y18817
X38655Y17817
X38655Y16817
X38655Y15817
X38655Y14817
X38655Y13817
X38655Y12817
X38655Y11817
T08
X31186Y15057
X30186Y15057
X9343Y15889
X9343Y18325
X9343Y23325
X4119Y17026
X3119Y17026
X2873Y13285
X3873Y13285
X3922Y9594
X2922Y9594
X9347Y8354
X9343Y10889
X9347Y3354
T09
X7320Y42980
X5824Y42980
T10
X33759Y38083
X34759Y38083
X35259Y39083
X36259Y39083
X36759Y38083
X35759Y38083
X37259Y39083
X34259Y39083
T11
X33019Y42913
X34019Y43512
X36999Y42913
X37999Y43512
X10127Y23344
X6127Y23344
X6127Y18344
X6127Y15864
X10127Y15864
X10127Y18344
X10127Y10864
X10127Y8384
X6127Y8384
X6127Y10864
X6127Y3384
X10127Y3384
T12
X14611Y4500
X14611Y5500
X15611Y5500
X15611Y4500
X16611Y4500
X16611Y5500
X17611Y5500
X17611Y4500
X18611Y4500
X18611Y5500
X22830Y5500
X22830Y4500
X23830Y4500
X24830Y4500
X24830Y5500
X23830Y5500
X25830Y5500
X26830Y5500
X26830Y4500
X25830Y4500
X28759Y5437
X29759Y5437
X29759Y6437
X29759Y7437
X28759Y7437
X28759Y6437
X28759Y8437
X29759Y8437
X30719Y3148
X31719Y3148
X32719Y3148
X33960Y3148
X34960Y3148
X35960Y3148
X36960Y3148
X20966Y21799
X19966Y21799
X18966Y21799
X17966Y21799
X24633Y26967
X25184Y28285
X25184Y25648
X27822Y25648
X28373Y26967
X27822Y28285
X30072Y35087
X31072Y35087
X32072Y35087
X33072Y35087
X33072Y36268
X32072Y36268
X31072Y36268
X30072Y36268
T13
X32408Y40382
X38609Y40382
T14
X3275Y18453
X3275Y14713
X3275Y10972
X3275Y7232
T15
X3029Y3098
X26503Y26967
X39643Y43354
X39643Y3098
X3029Y43354
T16
X33259Y41583
X37759Y41583
M30
