%
M48
M72
T01C0.0118
T02C0.0157
T03C0.0197
T04C0.0236
T05C0.0240
T06C0.0276
T07C0.0315
T08C0.0320
T09C0.0335
T10C0.0354
T11C0.0394
T12C0.0400
T13C0.0630
T14C0.0650
T15C0.1181
T16C0.1260
%
T01
X22320Y21481
X22271Y22121
X22812Y22711
X22172Y22957
X23599Y22859
X24338Y22564
X24534Y21776
X24830Y21038
X25076Y21038
X25076Y20694
X24830Y20694
X24338Y20398
X25076Y20005
X25076Y19168
X25076Y18774
X24190Y18774
X23599Y19365
X23009Y19906
X22861Y20743
X26552Y21826
X27192Y22416
X27930Y22121
X28767Y21678
X28718Y21235
X28964Y20841
X29259Y20349
X29210Y19808
X29357Y19316
X29653Y18528
X29259Y18282
X28275Y18036
X26995Y18184
X26257Y18233
X31277Y21580
X32458Y18528
X32851Y18233
X33393Y17987
X31719Y16757
X39544Y34818
T02
X29357Y28863
X27536Y29650
X26651Y29896
X25863Y29936
X25036Y29946
X25076Y30536
X24141Y32308
X21188Y32308
X16710Y31717
X15937Y29468
X15125Y28582
X16523Y27702
X15100Y26634
X11995Y29759
X10529Y31853
X10656Y25418
X11838Y25418
X19466Y21826
X20253Y25517
X21277Y26501
X21680Y25959
X23895Y23499
X32162Y21186
X32310Y21727
X34525Y18479
X33885Y17692
X34279Y16904
X34279Y16363
X33737Y16363
X33245Y16954
X32704Y17003
X30538Y4060
X18531Y37598
X18398Y38666
T03
X19662Y36668
X20243Y34670
X20686Y31835
X21680Y30654
X21532Y30064
X20844Y30074
X20273Y29749
X18865Y29552
X18009Y27820
X18481Y27190
X17094Y28794
X14431Y25610
X13599Y24788
X12846Y25797
X12335Y27244
X13339Y27273
X11277Y24788
X16277Y24690
X17655Y22859
X16956Y22072
X19170Y24877
X20371Y23883
X21926Y24975
X22812Y27682
X23186Y28322
X21631Y28272
X23324Y30379
X26651Y30881
X26601Y33981
X27389Y33981
X24938Y34513
X27064Y38893
X26109Y40231
X25371Y40576
X24938Y40133
X24466Y39690
X22861Y39739
X22861Y40428
X22910Y41068
X22910Y41806
X23353Y42298
X24928Y42298
X25371Y41806
X25371Y41215
X26454Y42052
X27487Y42052
X30686Y40526
X28619Y37770
X21001Y40969
X19997Y41698
X13403Y37633
X12261Y34473
X13383Y33400
X12910Y31402
X15489Y33017
X15962Y33489
X16867Y33135
X16345Y34670
X10214Y38568
X10214Y39404
X10214Y40143
X7310Y40763
X25716Y21038
X26749Y20300
X26749Y19709
X27340Y19709
X27340Y20300
X28029Y21087
X30981Y20300
X31719Y20251
X31031Y22957
X31621Y29257
X37084Y22711
X38068Y25270
X39446Y26206
X37034Y19414
X36690Y18774
X36444Y17446
X37281Y17003
X37428Y17593
X38019Y15871
X34328Y13942
X36198Y11934
X36395Y9621
X36040Y8489
X36828Y8489
X37773Y8883
X39200Y8883
X38117Y6373
X35706Y6373
X34968Y5684
X34623Y4257
X34466Y2977
X35253Y2977
X36040Y2977
X36828Y2977
X33678Y2977
X32891Y2977
X32103Y2977
X31316Y2977
X29800Y2190
X30932Y5339
X31473Y5536
X32015Y5635
X32679Y5482
X32463Y6717
X31473Y6890
X31316Y8489
X32103Y8489
X32891Y8489
X33073Y7874
X33678Y8489
X34466Y8489
X35253Y8489
X35204Y7342
X29899Y10211
X29406Y9670
X29013Y8538
X27979Y9473
X27143Y8489
X25076Y8587
X24436Y8391
X22910Y8391
X22517Y9621
X22812Y10064
X21446Y10064
X20946Y9621
X19318Y9719
X18826Y8833
X19958Y7849
X20942Y7751
X21434Y7456
X21975Y7013
X22812Y5930
X18038Y5979
X15869Y7209
X12527Y9522
X11788Y10950
X11739Y5438
X22221Y16412
X22320Y18036
X19810Y17790
X11444Y18381
X31769Y15526
T04
X30686Y14345
X28422Y14887
X28471Y12820
X28914Y12180
X32802Y9965
X35017Y13263
X36296Y14887
X36788Y12524
X35509Y19906
X35164Y20448
X35460Y20989
X35164Y21530
X34377Y21530
X33934Y20497
X33540Y20989
X33688Y19906
X34771Y22662
X34771Y24778
X34082Y24778
X31966Y25418
X35263Y27091
X36001Y27091
X36542Y28420
X36493Y30487
X37969Y30733
X38757Y30979
X38757Y32456
X37969Y32456
X36985Y31963
X35952Y34129
X34771Y34129
X33048Y32357
X31424Y32357
X30735Y32357
X30735Y31373
X31424Y31373
X33245Y30192
X37133Y24631
X37133Y23499
X25223Y37967
X29288Y39680
X17989Y17446
X18678Y16265
X19170Y14001
X22025Y13902
X23009Y12278
X23944Y9129
X18137Y8440
X17399Y7013
X16906Y7406
X16365Y7751
X15381Y7702
X15922Y9473
X15529Y12918
T05
X32344Y23400
X34344Y23400
T06
X25092Y15871
X23092Y15871
T07
X21517Y20303
X20517Y20303
X19517Y20303
X18517Y20303
X13082Y18219
X13082Y17219
X13082Y16219
X13082Y15219
X6434Y24454
X4466Y24454
X2418Y36028
X8481Y36028
X38655Y23219
X38655Y22219
X38655Y21219
X38655Y20219
X38655Y19219
X38655Y18219
X38655Y17219
X38655Y16219
X38655Y15219
X38655Y14219
X38655Y13219
X38655Y12219
X38655Y11219
X38655Y10219
T08
X31186Y13459
X30186Y13459
X9431Y14252
X9392Y16727
X9392Y21727
X3725Y15428
X2725Y15428
X2735Y11707
X3735Y11707
X3725Y7997
X2725Y7997
X9426Y6757
X9431Y9252
X9426Y1757
T09
X7320Y41383
X5824Y41383
T10
X33759Y36485
X34759Y36485
X35259Y37485
X36259Y37485
X36759Y36485
X35759Y36485
X37259Y37485
X34259Y37485
T11
X33019Y41316
X34019Y41914
X36999Y41316
X37999Y41914
X10127Y21747
X6127Y21747
X6127Y16747
X6127Y14267
X10127Y14267
X10127Y16747
X10127Y9267
X10127Y6786
X6127Y6786
X6127Y9267
X6127Y1786
X10127Y1786
T12
X13824Y2831
X13824Y3831
X14824Y3831
X14824Y2831
X15824Y2831
X15824Y3831
X16824Y3831
X16824Y2831
X17824Y2831
X17824Y3831
X22042Y3831
X22042Y2831
X23042Y2831
X24042Y2831
X24042Y3831
X23042Y3831
X25042Y3831
X25042Y2831
X26042Y2831
X26042Y3831
X28798Y3839
X29798Y3839
X29798Y4839
X28798Y4839
X28798Y5839
X29798Y5839
X29798Y6839
X28798Y6839
X30719Y1550
X31719Y1550
X32719Y1550
X33960Y1550
X34960Y1550
X35960Y1550
X36960Y1550
X29495Y24247
X30046Y25566
X29495Y26885
X26857Y26885
X26306Y25566
X26857Y24247
X30072Y33489
X31072Y33489
X31072Y34670
X30072Y34670
X32072Y34670
X33072Y34670
X33072Y33489
X32072Y33489
T13
X32408Y38784
X38609Y38784
T14
X3275Y16855
X3275Y13115
X3275Y9375
X3275Y5635
T15
X3029Y1501
X28176Y25566
X39643Y41757
X3029Y41757
X39643Y1501
T16
X37759Y39985
X33259Y39985
M30
