G75*
G70*
%OFA0B0*%
%FSLAX24Y24*%
%IPPOS*%
%LPD*%
%AMOC8*
5,1,8,0,0,1.08239X$1,22.5*
%
%ADD10R,0.0394X0.0433*%
%ADD11R,0.0433X0.0394*%
%ADD12R,0.0354X0.0276*%
%ADD13R,0.0630X0.0512*%
%ADD14R,0.1378X0.0630*%
%ADD15C,0.0594*%
%ADD16C,0.0945*%
%ADD17C,0.0554*%
%ADD18C,0.0236*%
%ADD19R,0.0260X0.0800*%
%ADD20R,0.0800X0.0260*%
%ADD21R,0.0472X0.0472*%
%ADD22C,0.0440*%
%ADD23R,0.0276X0.0354*%
%ADD24R,0.0110X0.0580*%
%ADD25R,0.0580X0.0110*%
%ADD26R,0.0118X0.0591*%
%ADD27R,0.0591X0.0118*%
%ADD28C,0.0650*%
%ADD29C,0.0600*%
%ADD30R,0.0551X0.0394*%
%ADD31OC8,0.0600*%
%ADD32R,0.0591X0.0512*%
%ADD33R,0.0600X0.0300*%
%ADD34C,0.0660*%
%ADD35C,0.0397*%
%ADD36R,0.0169X0.0110*%
%ADD37R,0.0335X0.0866*%
%ADD38R,0.0394X0.0413*%
%ADD39R,0.0295X0.1181*%
%ADD40R,0.1181X0.1969*%
%ADD41C,0.0760*%
%ADD42OC8,0.0520*%
%ADD43C,0.0974*%
%ADD44C,0.0515*%
%ADD45R,0.0515X0.0515*%
%ADD46R,0.0453X0.0173*%
%ADD47R,0.0453X0.0248*%
%ADD48C,0.0118*%
%ADD49R,0.1280X0.1280*%
%ADD50R,0.0472X0.0394*%
%ADD51R,0.0138X0.0098*%
%ADD52R,0.0098X0.0138*%
%ADD53R,0.0138X0.0394*%
%ADD54R,0.0512X0.0591*%
%ADD55R,0.0157X0.0551*%
%ADD56R,0.0709X0.0591*%
%ADD57R,0.0591X0.0276*%
%ADD58C,0.0515*%
%ADD59OC8,0.0396*%
%ADD60OC8,0.0357*%
%ADD61C,0.0357*%
%ADD62OC8,0.0317*%
%ADD63C,0.0278*%
%ADD64C,0.0317*%
%ADD65OC8,0.0278*%
D10*
X016316Y013787D03*
X016316Y014457D03*
X016316Y018512D03*
X016316Y019181D03*
X020164Y020618D03*
X020834Y020618D03*
X018727Y025598D03*
X018727Y026268D03*
X016710Y030589D03*
X016710Y031258D03*
X014357Y031268D03*
X014357Y030598D03*
X016818Y040402D03*
X017487Y040402D03*
X031473Y027055D03*
X031473Y026386D03*
X032221Y026917D03*
X032891Y026917D03*
X033245Y031799D03*
X033245Y032469D03*
X033836Y033571D03*
X033836Y034240D03*
X034623Y034240D03*
X034623Y033571D03*
X035066Y032764D03*
X035066Y032094D03*
X036198Y033571D03*
X036198Y034240D03*
X036493Y032764D03*
X036493Y032094D03*
X032261Y033276D03*
X032261Y033945D03*
X038718Y026868D03*
X039387Y026868D03*
X036592Y021150D03*
X036592Y020480D03*
X036296Y017163D03*
X036296Y016494D03*
X034328Y015539D03*
X034328Y014870D03*
X030686Y015953D03*
X030686Y016622D03*
X029849Y016622D03*
X029849Y015953D03*
X023009Y014555D03*
X023009Y013886D03*
X022123Y013886D03*
X022123Y014555D03*
D11*
X028875Y015254D03*
X029544Y015254D03*
X031828Y015254D03*
X032497Y015254D03*
X032694Y014417D03*
X032025Y014417D03*
X032123Y011563D03*
X032792Y011563D03*
X031710Y021848D03*
X031040Y021848D03*
X034092Y026376D03*
X034761Y026376D03*
X032891Y027705D03*
X032546Y028492D03*
X032221Y027705D03*
X031877Y028492D03*
X031729Y029280D03*
X032399Y029280D03*
X032546Y030067D03*
X032221Y030854D03*
X031877Y030067D03*
X032891Y030854D03*
X033048Y033276D03*
X033048Y033945D03*
X034771Y035736D03*
X034771Y036406D03*
X035952Y036406D03*
X035952Y035736D03*
X035410Y034240D03*
X035410Y033571D03*
X036985Y033571D03*
X036985Y034240D03*
X037969Y034043D03*
X037969Y033374D03*
X038757Y033374D03*
X038757Y034043D03*
X024475Y029476D03*
X023806Y029476D03*
X019406Y027016D03*
X018737Y027016D03*
X018737Y024850D03*
X019406Y024850D03*
X015775Y031278D03*
X015105Y031278D03*
X021414Y041898D03*
X021414Y042567D03*
D12*
X017408Y026455D03*
X017408Y025943D03*
X016641Y025884D03*
X016641Y026396D03*
X015893Y026386D03*
X015893Y025874D03*
X014790Y025844D03*
X014790Y026356D03*
X014023Y026356D03*
X014023Y025844D03*
X013255Y025844D03*
X013255Y026356D03*
X012261Y026366D03*
X012261Y025854D03*
X011601Y025854D03*
X011601Y026366D03*
X010942Y026376D03*
X010942Y025864D03*
X035017Y015461D03*
X035017Y014949D03*
D13*
X015529Y014516D03*
X015529Y013728D03*
D14*
X037546Y035776D03*
X039672Y035776D03*
X030962Y042075D03*
X028836Y042075D03*
D15*
X033019Y042913D03*
X034019Y043512D03*
X036999Y042913D03*
X037999Y043512D03*
D16*
X038609Y040382D03*
X032408Y040382D03*
D17*
X034259Y039083D03*
X034759Y038083D03*
X033759Y038083D03*
X035259Y039083D03*
X036259Y039083D03*
X036759Y038083D03*
X035759Y038083D03*
X037259Y039083D03*
D18*
X028855Y038778D02*
X028305Y038778D01*
X028305Y038384D02*
X028855Y038384D01*
X028855Y037990D02*
X028305Y037990D01*
X028305Y037596D02*
X028855Y037596D01*
X028855Y037203D02*
X028305Y037203D01*
X028305Y036809D02*
X028855Y036809D01*
X028855Y036415D02*
X028305Y036415D01*
X028305Y036022D02*
X028855Y036022D01*
X028855Y035628D02*
X028305Y035628D01*
X028305Y035234D02*
X028855Y035234D01*
X028855Y034841D02*
X028305Y034841D01*
X028305Y034447D02*
X028855Y034447D01*
X028855Y034053D02*
X028305Y034053D01*
X028305Y033659D02*
X028855Y033659D01*
X028855Y033266D02*
X028305Y033266D01*
X028305Y032872D02*
X028855Y032872D01*
X028855Y032478D02*
X028305Y032478D01*
X026847Y031021D02*
X026847Y030471D01*
X026454Y030471D02*
X026454Y031021D01*
X026060Y031021D02*
X026060Y030471D01*
X025666Y030471D02*
X025666Y031021D01*
X025273Y031021D02*
X025273Y030471D01*
X024879Y030471D02*
X024879Y031021D01*
X024485Y031021D02*
X024485Y030471D01*
X024092Y030471D02*
X024092Y031021D01*
X023698Y031021D02*
X023698Y030471D01*
X023304Y030471D02*
X023304Y031021D01*
X022910Y031021D02*
X022910Y030471D01*
X022517Y030471D02*
X022517Y031021D01*
X022123Y031021D02*
X022123Y030471D01*
X021729Y030471D02*
X021729Y031021D01*
X021336Y031021D02*
X021336Y030471D01*
X020942Y030471D02*
X020942Y031021D01*
X020548Y031021D02*
X020548Y030471D01*
X019091Y032478D02*
X018541Y032478D01*
X018541Y032872D02*
X019091Y032872D01*
X019091Y033266D02*
X018541Y033266D01*
X018541Y033659D02*
X019091Y033659D01*
X019091Y034053D02*
X018541Y034053D01*
X018541Y034447D02*
X019091Y034447D01*
X019091Y034841D02*
X018541Y034841D01*
X018541Y035234D02*
X019091Y035234D01*
X019091Y035628D02*
X018541Y035628D01*
X018541Y036022D02*
X019091Y036022D01*
X019091Y036415D02*
X018541Y036415D01*
X018541Y036809D02*
X019091Y036809D01*
X019091Y037203D02*
X018541Y037203D01*
X018541Y037596D02*
X019091Y037596D01*
X019091Y037990D02*
X018541Y037990D01*
X018541Y038384D02*
X019091Y038384D01*
X019091Y038778D02*
X018541Y038778D01*
X020548Y040235D02*
X020548Y040785D01*
X020942Y040785D02*
X020942Y040235D01*
X021336Y040235D02*
X021336Y040785D01*
X021729Y040785D02*
X021729Y040235D01*
X022123Y040235D02*
X022123Y040785D01*
X022517Y040785D02*
X022517Y040235D01*
X022910Y040235D02*
X022910Y040785D01*
X023304Y040785D02*
X023304Y040235D01*
X023698Y040235D02*
X023698Y040785D01*
X024092Y040785D02*
X024092Y040235D01*
X024485Y040235D02*
X024485Y040785D01*
X024879Y040785D02*
X024879Y040235D01*
X025273Y040235D02*
X025273Y040785D01*
X025666Y040785D02*
X025666Y040235D01*
X026060Y040235D02*
X026060Y040785D01*
X026454Y040785D02*
X026454Y040235D01*
X026847Y040235D02*
X026847Y040785D01*
D19*
X022446Y009968D03*
X021946Y009968D03*
X021446Y009968D03*
X020946Y009968D03*
X020446Y009968D03*
X019946Y009968D03*
X019446Y009968D03*
X018946Y009968D03*
X017869Y009968D03*
X017369Y009968D03*
X016869Y009968D03*
X016369Y009968D03*
X015869Y009968D03*
X015369Y009968D03*
X014869Y009968D03*
X014369Y009968D03*
X014369Y007548D03*
X014869Y007548D03*
X015369Y007548D03*
X015869Y007548D03*
X016369Y007548D03*
X016869Y007548D03*
X017369Y007548D03*
X017869Y007548D03*
X018946Y007548D03*
X019446Y007548D03*
X019946Y007548D03*
X020446Y007548D03*
X020946Y007548D03*
X021446Y007548D03*
X021946Y007548D03*
X022446Y007548D03*
X023460Y006835D03*
X023960Y006835D03*
X024460Y006835D03*
X024960Y006835D03*
X025460Y006835D03*
X025960Y006835D03*
X026460Y006835D03*
X026960Y006835D03*
X026960Y009255D03*
X026460Y009255D03*
X025960Y009255D03*
X025460Y009255D03*
X024960Y009255D03*
X024460Y009255D03*
X023960Y009255D03*
X023460Y009255D03*
D20*
X021150Y014030D03*
X021150Y014530D03*
X021150Y015030D03*
X021150Y015530D03*
X021150Y016030D03*
X021150Y016530D03*
X021150Y017030D03*
X021150Y017530D03*
X021150Y018030D03*
X021150Y018530D03*
X021150Y019030D03*
X021150Y019530D03*
X017190Y019530D03*
X017190Y019030D03*
X017190Y018530D03*
X017190Y018030D03*
X017190Y017530D03*
X017190Y017030D03*
X017190Y016530D03*
X017190Y016030D03*
X017190Y015530D03*
X017190Y015030D03*
X017190Y014530D03*
X017190Y014030D03*
D21*
X026454Y041858D03*
X026454Y042685D03*
X020253Y042301D03*
X020253Y043128D03*
D22*
X032147Y025218D02*
X032147Y024778D01*
X034147Y024778D02*
X034147Y025218D01*
D23*
X028235Y020028D03*
X027723Y020028D03*
X027497Y019535D03*
X026985Y019535D03*
X025725Y020077D03*
X025214Y020077D03*
X025381Y019585D03*
X024869Y019585D03*
X024968Y023030D03*
X025479Y023030D03*
X016572Y027951D03*
X016060Y027951D03*
X015991Y027222D03*
X015479Y027222D03*
X013875Y027232D03*
X013363Y027232D03*
X013344Y027862D03*
X013855Y027862D03*
X011493Y027872D03*
X011483Y027183D03*
X010971Y027183D03*
X010981Y027872D03*
X019032Y041888D03*
X019544Y041888D03*
D24*
X031765Y020860D03*
X031965Y020860D03*
X032165Y020860D03*
X032355Y020860D03*
X032555Y020860D03*
X032755Y020860D03*
X032945Y020860D03*
X033145Y020860D03*
X033345Y020860D03*
X033545Y020860D03*
X033735Y020860D03*
X033935Y020860D03*
X034135Y020860D03*
X034325Y020860D03*
X034525Y020860D03*
X034725Y020860D03*
X034725Y016440D03*
X034525Y016440D03*
X034325Y016440D03*
X034135Y016440D03*
X033935Y016440D03*
X033735Y016440D03*
X033545Y016440D03*
X033345Y016440D03*
X033145Y016440D03*
X032945Y016440D03*
X032755Y016440D03*
X032555Y016440D03*
X032355Y016440D03*
X032165Y016440D03*
X031965Y016440D03*
X031765Y016440D03*
D25*
X031035Y017170D03*
X031035Y017370D03*
X031035Y017570D03*
X031035Y017760D03*
X031035Y017960D03*
X031035Y018160D03*
X031035Y018350D03*
X031035Y018550D03*
X031035Y018750D03*
X031035Y018950D03*
X031035Y019140D03*
X031035Y019340D03*
X031035Y019540D03*
X031035Y019730D03*
X031035Y019930D03*
X031035Y020130D03*
X035455Y020130D03*
X035455Y019930D03*
X035455Y019730D03*
X035455Y019540D03*
X035455Y019340D03*
X035455Y019140D03*
X035455Y018950D03*
X035455Y018750D03*
X035455Y018550D03*
X035455Y018350D03*
X035455Y018160D03*
X035455Y017960D03*
X035455Y017760D03*
X035455Y017570D03*
X035455Y017370D03*
X035455Y017170D03*
D26*
X035509Y027331D03*
X035706Y027331D03*
X035903Y027331D03*
X036099Y027331D03*
X036296Y027331D03*
X036493Y027331D03*
X036690Y027331D03*
X035312Y027331D03*
X035115Y027331D03*
X034918Y027331D03*
X034721Y027331D03*
X034525Y027331D03*
X034525Y030835D03*
X034721Y030835D03*
X034918Y030835D03*
X035115Y030835D03*
X035312Y030835D03*
X035509Y030835D03*
X035706Y030835D03*
X035903Y030835D03*
X036099Y030835D03*
X036296Y030835D03*
X036493Y030835D03*
X036690Y030835D03*
D27*
X037359Y030165D03*
X037359Y029969D03*
X037359Y029772D03*
X037359Y029575D03*
X037359Y029378D03*
X037359Y029181D03*
X037359Y028984D03*
X037359Y028787D03*
X037359Y028591D03*
X037359Y028394D03*
X037359Y028197D03*
X037359Y028000D03*
X033855Y028000D03*
X033855Y028197D03*
X033855Y028394D03*
X033855Y028591D03*
X033855Y028787D03*
X033855Y028984D03*
X033855Y029181D03*
X033855Y029378D03*
X033855Y029575D03*
X033855Y029772D03*
X033855Y029969D03*
X033855Y030165D03*
D28*
X025092Y017469D03*
X023092Y017469D03*
D29*
X020966Y021799D03*
X019966Y021799D03*
X018966Y021799D03*
X017966Y021799D03*
X024633Y026967D03*
X025184Y028285D03*
X025184Y025648D03*
X027822Y025648D03*
X028373Y026967D03*
X027822Y028285D03*
X030072Y035087D03*
X031072Y035087D03*
X032072Y035087D03*
X033072Y035087D03*
X033072Y036268D03*
X032072Y036268D03*
X031072Y036268D03*
X030072Y036268D03*
X030719Y003148D03*
X031719Y003148D03*
X032719Y003148D03*
X033960Y003148D03*
X034960Y003148D03*
X035960Y003148D03*
X036960Y003148D03*
D30*
X016227Y039093D03*
X016227Y039841D03*
X017094Y039467D03*
D31*
X028759Y008437D03*
X029759Y008437D03*
X029759Y007437D03*
X029759Y006437D03*
X029759Y005437D03*
X028759Y005437D03*
X028759Y006437D03*
X028759Y007437D03*
X026830Y005500D03*
X026830Y004500D03*
X025830Y004500D03*
X025830Y005500D03*
X024830Y005500D03*
X024830Y004500D03*
X023830Y004500D03*
X023830Y005500D03*
X022830Y005500D03*
X022830Y004500D03*
X018611Y004500D03*
X017611Y004500D03*
X017611Y005500D03*
X018611Y005500D03*
X016611Y005500D03*
X015611Y005500D03*
X015611Y004500D03*
X016611Y004500D03*
X014611Y004500D03*
X014611Y005500D03*
D32*
X034180Y031898D03*
X034180Y032567D03*
X030292Y039624D03*
X030292Y040293D03*
D33*
X029867Y011870D03*
X029867Y010370D03*
X027667Y010370D03*
X027667Y011870D03*
D34*
X030186Y015057D03*
X031186Y015057D03*
D35*
X031316Y010483D02*
X031316Y010087D01*
X032103Y010087D02*
X032103Y010483D01*
X032891Y010483D02*
X032891Y010087D01*
X033678Y010087D02*
X033678Y010483D01*
X034466Y010483D02*
X034466Y010087D01*
X035253Y010087D02*
X035253Y010483D01*
X036040Y010483D02*
X036040Y010087D01*
X036828Y010087D02*
X036828Y010483D01*
X036828Y004575D02*
X036828Y004178D01*
X036040Y004178D02*
X036040Y004575D01*
X035253Y004575D02*
X035253Y004178D01*
X034466Y004178D02*
X034466Y004575D01*
X033678Y004575D02*
X033678Y004178D01*
X032891Y004178D02*
X032891Y004575D01*
X032103Y004575D02*
X032103Y004178D01*
X031316Y004178D02*
X031316Y004575D01*
D36*
X035460Y012791D03*
X035460Y012992D03*
X035853Y012992D03*
X035853Y012791D03*
D37*
X023993Y023226D03*
X022910Y023226D03*
X023501Y042961D03*
X024584Y042961D03*
D38*
X024042Y043561D03*
X024042Y042360D03*
X023452Y023827D03*
X023452Y022626D03*
D39*
X015487Y033795D03*
X014987Y033795D03*
X014487Y033795D03*
X013987Y033795D03*
X013487Y033795D03*
X012987Y033795D03*
D40*
X010208Y043256D03*
X018259Y043256D03*
D41*
X006127Y003384D03*
X010127Y003384D03*
X010127Y008384D03*
X010127Y010864D03*
X006127Y010864D03*
X006127Y008384D03*
X006127Y015864D03*
X006127Y018344D03*
X010127Y018344D03*
X010127Y015864D03*
X010127Y023344D03*
X006127Y023344D03*
D42*
X009343Y023325D03*
X009343Y018325D03*
X009343Y015889D03*
X009343Y010889D03*
X009347Y008354D03*
X009347Y003354D03*
X003922Y009594D03*
X002922Y009594D03*
X002873Y013285D03*
X003873Y013285D03*
X004119Y017026D03*
X003119Y017026D03*
D43*
X002787Y018453D02*
X003762Y018453D01*
X003762Y014713D02*
X002787Y014713D01*
X002787Y010972D02*
X003762Y010972D01*
X003762Y007232D02*
X002787Y007232D01*
D44*
X013082Y016817D03*
X013082Y017817D03*
X013082Y018817D03*
X013082Y019817D03*
X038655Y019817D03*
X038655Y020817D03*
X038655Y021817D03*
X038655Y022817D03*
X038655Y023817D03*
X038655Y024817D03*
X038655Y018817D03*
X038655Y017817D03*
X038655Y016817D03*
X038655Y015817D03*
X038655Y014817D03*
X038655Y013817D03*
X038655Y011817D03*
D45*
X038655Y012817D03*
D46*
X038668Y027941D03*
X038668Y028256D03*
X039436Y028256D03*
X039436Y027941D03*
X039436Y029614D03*
X039436Y029929D03*
X038668Y029929D03*
X038668Y029614D03*
D47*
X038668Y029262D03*
X038668Y028608D03*
X039436Y028608D03*
X039436Y029262D03*
X039436Y030281D03*
X038668Y030281D03*
X038668Y027589D03*
X039436Y027589D03*
D48*
X028116Y022193D02*
X027822Y022193D01*
X027822Y021996D02*
X028116Y021996D01*
X028116Y021799D02*
X027822Y021799D01*
X027822Y021602D02*
X028116Y021602D01*
X028116Y021406D02*
X027822Y021406D01*
X027822Y021209D02*
X028116Y021209D01*
X028116Y021012D02*
X027822Y021012D01*
X027635Y020824D02*
X027635Y020530D01*
X027438Y020530D02*
X027438Y020824D01*
X027241Y020824D02*
X027241Y020530D01*
X027044Y020530D02*
X027044Y020824D01*
X026847Y020824D02*
X026847Y020530D01*
X026651Y020530D02*
X026651Y020824D01*
X026454Y020824D02*
X026454Y020530D01*
X026266Y021012D02*
X025972Y021012D01*
X025972Y021209D02*
X026266Y021209D01*
X026266Y021406D02*
X025972Y021406D01*
X025972Y021602D02*
X026266Y021602D01*
X026266Y021799D02*
X025972Y021799D01*
X025972Y021996D02*
X026266Y021996D01*
X026266Y022193D02*
X025972Y022193D01*
X026454Y022381D02*
X026454Y022675D01*
X026651Y022675D02*
X026651Y022381D01*
X026847Y022381D02*
X026847Y022675D01*
X027044Y022675D02*
X027044Y022381D01*
X027241Y022381D02*
X027241Y022675D01*
X027438Y022675D02*
X027438Y022381D01*
X027635Y022381D02*
X027635Y022675D01*
D49*
X027044Y021602D03*
D50*
X026149Y023974D03*
X025479Y023974D03*
X025479Y024644D03*
X026149Y024644D03*
D51*
X026306Y023276D03*
X026306Y023079D03*
D52*
X026651Y023276D03*
X026847Y023276D03*
D53*
X025332Y021957D03*
X025076Y021957D03*
X024820Y021957D03*
X024820Y021248D03*
X025076Y021248D03*
X025332Y021248D03*
D54*
X015765Y030224D03*
X015095Y030224D03*
D55*
X007084Y042783D03*
X006828Y042783D03*
X006572Y042783D03*
X006316Y042783D03*
X006060Y042783D03*
D56*
X005121Y043846D03*
X008022Y043846D03*
D57*
X006572Y043846D03*
D58*
X008727Y037883D02*
X008727Y037369D01*
X002664Y037369D02*
X002664Y037883D01*
X004712Y026309D02*
X004712Y025794D01*
X006680Y025794D02*
X006680Y026309D01*
D59*
X015529Y014516D03*
X015922Y011071D03*
X016365Y009348D03*
X016906Y009004D03*
X017399Y008610D03*
X018137Y010037D03*
X015381Y009299D03*
X019170Y015598D03*
X018678Y017862D03*
X017989Y019043D03*
X022025Y015500D03*
X023009Y013876D03*
X023944Y010726D03*
X028471Y014417D03*
X028914Y013778D03*
X030686Y015943D03*
X028422Y016484D03*
X032802Y011563D03*
X035017Y014860D03*
X036788Y014122D03*
X036296Y016484D03*
X035509Y021504D03*
X035164Y022045D03*
X035460Y022587D03*
X035164Y023128D03*
X034377Y023128D03*
X033934Y022094D03*
X033540Y022587D03*
X033688Y021504D03*
X034771Y024260D03*
X034771Y026376D03*
X034082Y026376D03*
X035263Y028689D03*
X036001Y028689D03*
X036542Y030018D03*
X036493Y032085D03*
X037969Y032331D03*
X038757Y032577D03*
X038757Y034053D03*
X037969Y034053D03*
X036985Y033561D03*
X035952Y035726D03*
X034771Y035726D03*
X033048Y033955D03*
X031424Y033955D03*
X030735Y033955D03*
X030735Y032970D03*
X031424Y032970D03*
X033245Y031789D03*
X031473Y027065D03*
X037133Y026228D03*
X037133Y025096D03*
X025223Y039565D03*
X029288Y041278D03*
X014052Y041337D03*
D60*
X020243Y036268D03*
X021680Y032252D03*
X021532Y031661D03*
X020844Y031671D03*
X020273Y031346D03*
X021631Y029870D03*
X023186Y029919D03*
X026651Y032478D03*
X026109Y041829D03*
X025716Y022685D03*
X026749Y021898D03*
X027340Y021898D03*
X027340Y021307D03*
X026749Y021307D03*
X028029Y022685D03*
X036198Y013531D03*
X037773Y010480D03*
X039200Y010480D03*
X038117Y007970D03*
X035706Y007970D03*
X034968Y007281D03*
X034623Y005854D03*
X032679Y007080D03*
X032015Y007232D03*
X031473Y007134D03*
X030932Y006937D03*
X030538Y005657D03*
X032463Y008315D03*
X031473Y008487D03*
X033073Y009471D03*
X035204Y008940D03*
X029013Y010136D03*
X027979Y011071D03*
X027143Y010087D03*
X025076Y010185D03*
X024436Y009988D03*
X022910Y009988D03*
X022517Y011219D03*
X022812Y011661D03*
X021446Y011661D03*
X022812Y007528D03*
X018038Y007577D03*
X012527Y011120D03*
X011788Y012547D03*
X011739Y007035D03*
X011444Y019978D03*
X036444Y019043D03*
X037281Y018600D03*
X037428Y019191D03*
D61*
X036690Y020372D03*
X037034Y021012D03*
X037084Y024309D03*
X038068Y026868D03*
X039446Y027803D03*
X031621Y030854D03*
X029308Y029476D03*
X031031Y024555D03*
X030981Y021898D03*
X031719Y021848D03*
X031769Y017124D03*
X034328Y015539D03*
X038019Y017469D03*
X036395Y011219D03*
X029899Y011809D03*
X029406Y011268D03*
X029800Y003787D03*
X021975Y008610D03*
X021434Y009053D03*
X020942Y009348D03*
X019958Y009447D03*
X018826Y010431D03*
X019318Y011317D03*
X020946Y011219D03*
X015869Y008807D03*
X022221Y018010D03*
X022320Y019634D03*
X019810Y019388D03*
X019367Y023669D03*
X017655Y024457D03*
X016956Y023669D03*
X016277Y026504D03*
X014584Y027213D03*
X013599Y026386D03*
X012851Y027803D03*
X012261Y027331D03*
X011277Y026386D03*
X010607Y027843D03*
X012379Y029417D03*
X013363Y029417D03*
X014544Y030047D03*
X017143Y030244D03*
X018009Y029417D03*
X018481Y028787D03*
X018865Y031150D03*
X020686Y033433D03*
X023324Y031976D03*
X022812Y029280D03*
X021926Y026573D03*
X020371Y025480D03*
X013009Y033000D03*
X013481Y035047D03*
X012261Y036071D03*
X013403Y038787D03*
X016227Y039093D03*
X016660Y038531D03*
X018038Y039417D03*
X019662Y038266D03*
X022861Y041337D03*
X022861Y042026D03*
X022910Y042665D03*
X022910Y043404D03*
X023353Y043896D03*
X024928Y043896D03*
X025371Y043404D03*
X025371Y042813D03*
X025371Y042173D03*
X024938Y041730D03*
X024466Y041287D03*
X026454Y043650D03*
X027487Y043650D03*
X027064Y040490D03*
X028619Y039368D03*
X030686Y042124D03*
X027389Y035579D03*
X026601Y035579D03*
X024938Y036110D03*
X021001Y042567D03*
X019997Y043295D03*
X016345Y036268D03*
X015962Y035087D03*
X015489Y034614D03*
X016867Y034732D03*
X009977Y031701D03*
X006001Y030047D03*
X005017Y029417D03*
X010214Y040165D03*
X007261Y042409D03*
D62*
X018678Y027065D03*
X019416Y026917D03*
X021277Y028098D03*
X021680Y027557D03*
X032310Y023325D03*
X032162Y022783D03*
X034525Y020077D03*
X033885Y019289D03*
X034279Y018502D03*
X034279Y017961D03*
X033737Y017961D03*
X033245Y018551D03*
X032704Y018600D03*
D63*
X031719Y018354D03*
X032851Y019831D03*
X032458Y020126D03*
X033393Y019585D03*
X031277Y023177D03*
X029259Y021947D03*
X029210Y021406D03*
X029357Y020913D03*
X029653Y020126D03*
X029259Y019880D03*
X028275Y019634D03*
X028964Y022439D03*
X028718Y022833D03*
X028767Y023276D03*
X027930Y023719D03*
X027192Y024014D03*
X026503Y023423D03*
X025076Y022636D03*
X024830Y022636D03*
X024830Y022291D03*
X025076Y022291D03*
X025076Y021602D03*
X025076Y020766D03*
X025076Y020372D03*
X024190Y020372D03*
X023599Y020963D03*
X023009Y021504D03*
X022861Y022341D03*
X022271Y022931D03*
X022271Y023719D03*
X022812Y024309D03*
X022172Y024555D03*
X023599Y024457D03*
X024338Y024161D03*
X024633Y023423D03*
X024338Y021996D03*
X022172Y021848D03*
X039544Y036415D03*
D64*
X027536Y031248D03*
X026651Y031494D03*
X025863Y031533D03*
X025036Y031543D03*
X025076Y032134D03*
D65*
X026257Y019831D03*
X026995Y019781D03*
M02*
