G75*
G70*
%OFA0B0*%
%FSLAX24Y24*%
%IPPOS*%
%LPD*%
%AMOC8*
5,1,8,0,0,1.08239X$1,22.5*
%
%ADD10C,0.0000*%
%ADD11C,0.0700*%
D10*
X001946Y002213D02*
X040529Y002213D01*
X040529Y044339D01*
X001946Y044339D01*
X001946Y002213D01*
X002438Y003098D02*
X002440Y003146D01*
X002446Y003194D01*
X002456Y003241D01*
X002469Y003287D01*
X002487Y003332D01*
X002507Y003376D01*
X002532Y003418D01*
X002560Y003457D01*
X002590Y003494D01*
X002624Y003528D01*
X002661Y003560D01*
X002699Y003589D01*
X002740Y003614D01*
X002783Y003636D01*
X002828Y003654D01*
X002874Y003668D01*
X002921Y003679D01*
X002969Y003686D01*
X003017Y003689D01*
X003065Y003688D01*
X003113Y003683D01*
X003161Y003674D01*
X003207Y003662D01*
X003252Y003645D01*
X003296Y003625D01*
X003338Y003602D01*
X003378Y003575D01*
X003416Y003545D01*
X003451Y003512D01*
X003483Y003476D01*
X003513Y003438D01*
X003539Y003397D01*
X003561Y003354D01*
X003581Y003310D01*
X003596Y003265D01*
X003608Y003218D01*
X003616Y003170D01*
X003620Y003122D01*
X003620Y003074D01*
X003616Y003026D01*
X003608Y002978D01*
X003596Y002931D01*
X003581Y002886D01*
X003561Y002842D01*
X003539Y002799D01*
X003513Y002758D01*
X003483Y002720D01*
X003451Y002684D01*
X003416Y002651D01*
X003378Y002621D01*
X003338Y002594D01*
X003296Y002571D01*
X003252Y002551D01*
X003207Y002534D01*
X003161Y002522D01*
X003113Y002513D01*
X003065Y002508D01*
X003017Y002507D01*
X002969Y002510D01*
X002921Y002517D01*
X002874Y002528D01*
X002828Y002542D01*
X002783Y002560D01*
X002740Y002582D01*
X002699Y002607D01*
X002661Y002636D01*
X002624Y002668D01*
X002590Y002702D01*
X002560Y002739D01*
X002532Y002778D01*
X002507Y002820D01*
X002487Y002864D01*
X002469Y002909D01*
X002456Y002955D01*
X002446Y003002D01*
X002440Y003050D01*
X002438Y003098D01*
X025912Y026967D02*
X025914Y027015D01*
X025920Y027063D01*
X025930Y027110D01*
X025943Y027156D01*
X025961Y027201D01*
X025981Y027245D01*
X026006Y027287D01*
X026034Y027326D01*
X026064Y027363D01*
X026098Y027397D01*
X026135Y027429D01*
X026173Y027458D01*
X026214Y027483D01*
X026257Y027505D01*
X026302Y027523D01*
X026348Y027537D01*
X026395Y027548D01*
X026443Y027555D01*
X026491Y027558D01*
X026539Y027557D01*
X026587Y027552D01*
X026635Y027543D01*
X026681Y027531D01*
X026726Y027514D01*
X026770Y027494D01*
X026812Y027471D01*
X026852Y027444D01*
X026890Y027414D01*
X026925Y027381D01*
X026957Y027345D01*
X026987Y027307D01*
X027013Y027266D01*
X027035Y027223D01*
X027055Y027179D01*
X027070Y027134D01*
X027082Y027087D01*
X027090Y027039D01*
X027094Y026991D01*
X027094Y026943D01*
X027090Y026895D01*
X027082Y026847D01*
X027070Y026800D01*
X027055Y026755D01*
X027035Y026711D01*
X027013Y026668D01*
X026987Y026627D01*
X026957Y026589D01*
X026925Y026553D01*
X026890Y026520D01*
X026852Y026490D01*
X026812Y026463D01*
X026770Y026440D01*
X026726Y026420D01*
X026681Y026403D01*
X026635Y026391D01*
X026587Y026382D01*
X026539Y026377D01*
X026491Y026376D01*
X026443Y026379D01*
X026395Y026386D01*
X026348Y026397D01*
X026302Y026411D01*
X026257Y026429D01*
X026214Y026451D01*
X026173Y026476D01*
X026135Y026505D01*
X026098Y026537D01*
X026064Y026571D01*
X026034Y026608D01*
X026006Y026647D01*
X025981Y026689D01*
X025961Y026733D01*
X025943Y026778D01*
X025930Y026824D01*
X025920Y026871D01*
X025914Y026919D01*
X025912Y026967D01*
X032629Y041583D02*
X032631Y041633D01*
X032637Y041683D01*
X032647Y041732D01*
X032661Y041780D01*
X032678Y041827D01*
X032699Y041872D01*
X032724Y041916D01*
X032752Y041957D01*
X032784Y041996D01*
X032818Y042033D01*
X032855Y042067D01*
X032895Y042097D01*
X032937Y042124D01*
X032981Y042148D01*
X033027Y042169D01*
X033074Y042185D01*
X033122Y042198D01*
X033172Y042207D01*
X033221Y042212D01*
X033272Y042213D01*
X033322Y042210D01*
X033371Y042203D01*
X033420Y042192D01*
X033468Y042177D01*
X033514Y042159D01*
X033559Y042137D01*
X033602Y042111D01*
X033643Y042082D01*
X033682Y042050D01*
X033718Y042015D01*
X033750Y041977D01*
X033780Y041937D01*
X033807Y041894D01*
X033830Y041850D01*
X033849Y041804D01*
X033865Y041756D01*
X033877Y041707D01*
X033885Y041658D01*
X033889Y041608D01*
X033889Y041558D01*
X033885Y041508D01*
X033877Y041459D01*
X033865Y041410D01*
X033849Y041362D01*
X033830Y041316D01*
X033807Y041272D01*
X033780Y041229D01*
X033750Y041189D01*
X033718Y041151D01*
X033682Y041116D01*
X033643Y041084D01*
X033602Y041055D01*
X033559Y041029D01*
X033514Y041007D01*
X033468Y040989D01*
X033420Y040974D01*
X033371Y040963D01*
X033322Y040956D01*
X033272Y040953D01*
X033221Y040954D01*
X033172Y040959D01*
X033122Y040968D01*
X033074Y040981D01*
X033027Y040997D01*
X032981Y041018D01*
X032937Y041042D01*
X032895Y041069D01*
X032855Y041099D01*
X032818Y041133D01*
X032784Y041170D01*
X032752Y041209D01*
X032724Y041250D01*
X032699Y041294D01*
X032678Y041339D01*
X032661Y041386D01*
X032647Y041434D01*
X032637Y041483D01*
X032631Y041533D01*
X032629Y041583D01*
X037129Y041583D02*
X037131Y041633D01*
X037137Y041683D01*
X037147Y041732D01*
X037161Y041780D01*
X037178Y041827D01*
X037199Y041872D01*
X037224Y041916D01*
X037252Y041957D01*
X037284Y041996D01*
X037318Y042033D01*
X037355Y042067D01*
X037395Y042097D01*
X037437Y042124D01*
X037481Y042148D01*
X037527Y042169D01*
X037574Y042185D01*
X037622Y042198D01*
X037672Y042207D01*
X037721Y042212D01*
X037772Y042213D01*
X037822Y042210D01*
X037871Y042203D01*
X037920Y042192D01*
X037968Y042177D01*
X038014Y042159D01*
X038059Y042137D01*
X038102Y042111D01*
X038143Y042082D01*
X038182Y042050D01*
X038218Y042015D01*
X038250Y041977D01*
X038280Y041937D01*
X038307Y041894D01*
X038330Y041850D01*
X038349Y041804D01*
X038365Y041756D01*
X038377Y041707D01*
X038385Y041658D01*
X038389Y041608D01*
X038389Y041558D01*
X038385Y041508D01*
X038377Y041459D01*
X038365Y041410D01*
X038349Y041362D01*
X038330Y041316D01*
X038307Y041272D01*
X038280Y041229D01*
X038250Y041189D01*
X038218Y041151D01*
X038182Y041116D01*
X038143Y041084D01*
X038102Y041055D01*
X038059Y041029D01*
X038014Y041007D01*
X037968Y040989D01*
X037920Y040974D01*
X037871Y040963D01*
X037822Y040956D01*
X037772Y040953D01*
X037721Y040954D01*
X037672Y040959D01*
X037622Y040968D01*
X037574Y040981D01*
X037527Y040997D01*
X037481Y041018D01*
X037437Y041042D01*
X037395Y041069D01*
X037355Y041099D01*
X037318Y041133D01*
X037284Y041170D01*
X037252Y041209D01*
X037224Y041250D01*
X037199Y041294D01*
X037178Y041339D01*
X037161Y041386D01*
X037147Y041434D01*
X037137Y041483D01*
X037131Y041533D01*
X037129Y041583D01*
X039052Y043354D02*
X039054Y043402D01*
X039060Y043450D01*
X039070Y043497D01*
X039083Y043543D01*
X039101Y043588D01*
X039121Y043632D01*
X039146Y043674D01*
X039174Y043713D01*
X039204Y043750D01*
X039238Y043784D01*
X039275Y043816D01*
X039313Y043845D01*
X039354Y043870D01*
X039397Y043892D01*
X039442Y043910D01*
X039488Y043924D01*
X039535Y043935D01*
X039583Y043942D01*
X039631Y043945D01*
X039679Y043944D01*
X039727Y043939D01*
X039775Y043930D01*
X039821Y043918D01*
X039866Y043901D01*
X039910Y043881D01*
X039952Y043858D01*
X039992Y043831D01*
X040030Y043801D01*
X040065Y043768D01*
X040097Y043732D01*
X040127Y043694D01*
X040153Y043653D01*
X040175Y043610D01*
X040195Y043566D01*
X040210Y043521D01*
X040222Y043474D01*
X040230Y043426D01*
X040234Y043378D01*
X040234Y043330D01*
X040230Y043282D01*
X040222Y043234D01*
X040210Y043187D01*
X040195Y043142D01*
X040175Y043098D01*
X040153Y043055D01*
X040127Y043014D01*
X040097Y042976D01*
X040065Y042940D01*
X040030Y042907D01*
X039992Y042877D01*
X039952Y042850D01*
X039910Y042827D01*
X039866Y042807D01*
X039821Y042790D01*
X039775Y042778D01*
X039727Y042769D01*
X039679Y042764D01*
X039631Y042763D01*
X039583Y042766D01*
X039535Y042773D01*
X039488Y042784D01*
X039442Y042798D01*
X039397Y042816D01*
X039354Y042838D01*
X039313Y042863D01*
X039275Y042892D01*
X039238Y042924D01*
X039204Y042958D01*
X039174Y042995D01*
X039146Y043034D01*
X039121Y043076D01*
X039101Y043120D01*
X039083Y043165D01*
X039070Y043211D01*
X039060Y043258D01*
X039054Y043306D01*
X039052Y043354D01*
X007153Y042980D02*
X007155Y043005D01*
X007161Y043030D01*
X007170Y043054D01*
X007183Y043076D01*
X007200Y043096D01*
X007219Y043113D01*
X007240Y043127D01*
X007264Y043137D01*
X007288Y043144D01*
X007314Y043147D01*
X007339Y043146D01*
X007364Y043141D01*
X007388Y043132D01*
X007411Y043120D01*
X007431Y043105D01*
X007449Y043086D01*
X007464Y043065D01*
X007475Y043042D01*
X007483Y043018D01*
X007487Y042993D01*
X007487Y042967D01*
X007483Y042942D01*
X007475Y042918D01*
X007464Y042895D01*
X007449Y042874D01*
X007431Y042855D01*
X007411Y042840D01*
X007388Y042828D01*
X007364Y042819D01*
X007339Y042814D01*
X007314Y042813D01*
X007288Y042816D01*
X007264Y042823D01*
X007240Y042833D01*
X007219Y042847D01*
X007200Y042864D01*
X007183Y042884D01*
X007170Y042906D01*
X007161Y042930D01*
X007155Y042955D01*
X007153Y042980D01*
X005657Y042980D02*
X005659Y043005D01*
X005665Y043030D01*
X005674Y043054D01*
X005687Y043076D01*
X005704Y043096D01*
X005723Y043113D01*
X005744Y043127D01*
X005768Y043137D01*
X005792Y043144D01*
X005818Y043147D01*
X005843Y043146D01*
X005868Y043141D01*
X005892Y043132D01*
X005915Y043120D01*
X005935Y043105D01*
X005953Y043086D01*
X005968Y043065D01*
X005979Y043042D01*
X005987Y043018D01*
X005991Y042993D01*
X005991Y042967D01*
X005987Y042942D01*
X005979Y042918D01*
X005968Y042895D01*
X005953Y042874D01*
X005935Y042855D01*
X005915Y042840D01*
X005892Y042828D01*
X005868Y042819D01*
X005843Y042814D01*
X005818Y042813D01*
X005792Y042816D01*
X005768Y042823D01*
X005744Y042833D01*
X005723Y042847D01*
X005704Y042864D01*
X005687Y042884D01*
X005674Y042906D01*
X005665Y042930D01*
X005659Y042955D01*
X005657Y042980D01*
X002438Y043354D02*
X002440Y043402D01*
X002446Y043450D01*
X002456Y043497D01*
X002469Y043543D01*
X002487Y043588D01*
X002507Y043632D01*
X002532Y043674D01*
X002560Y043713D01*
X002590Y043750D01*
X002624Y043784D01*
X002661Y043816D01*
X002699Y043845D01*
X002740Y043870D01*
X002783Y043892D01*
X002828Y043910D01*
X002874Y043924D01*
X002921Y043935D01*
X002969Y043942D01*
X003017Y043945D01*
X003065Y043944D01*
X003113Y043939D01*
X003161Y043930D01*
X003207Y043918D01*
X003252Y043901D01*
X003296Y043881D01*
X003338Y043858D01*
X003378Y043831D01*
X003416Y043801D01*
X003451Y043768D01*
X003483Y043732D01*
X003513Y043694D01*
X003539Y043653D01*
X003561Y043610D01*
X003581Y043566D01*
X003596Y043521D01*
X003608Y043474D01*
X003616Y043426D01*
X003620Y043378D01*
X003620Y043330D01*
X003616Y043282D01*
X003608Y043234D01*
X003596Y043187D01*
X003581Y043142D01*
X003561Y043098D01*
X003539Y043055D01*
X003513Y043014D01*
X003483Y042976D01*
X003451Y042940D01*
X003416Y042907D01*
X003378Y042877D01*
X003338Y042850D01*
X003296Y042827D01*
X003252Y042807D01*
X003207Y042790D01*
X003161Y042778D01*
X003113Y042769D01*
X003065Y042764D01*
X003017Y042763D01*
X002969Y042766D01*
X002921Y042773D01*
X002874Y042784D01*
X002828Y042798D01*
X002783Y042816D01*
X002740Y042838D01*
X002699Y042863D01*
X002661Y042892D01*
X002624Y042924D01*
X002590Y042958D01*
X002560Y042995D01*
X002532Y043034D01*
X002507Y043076D01*
X002487Y043120D01*
X002469Y043165D01*
X002456Y043211D01*
X002446Y043258D01*
X002440Y043306D01*
X002438Y043354D01*
X039052Y003098D02*
X039054Y003146D01*
X039060Y003194D01*
X039070Y003241D01*
X039083Y003287D01*
X039101Y003332D01*
X039121Y003376D01*
X039146Y003418D01*
X039174Y003457D01*
X039204Y003494D01*
X039238Y003528D01*
X039275Y003560D01*
X039313Y003589D01*
X039354Y003614D01*
X039397Y003636D01*
X039442Y003654D01*
X039488Y003668D01*
X039535Y003679D01*
X039583Y003686D01*
X039631Y003689D01*
X039679Y003688D01*
X039727Y003683D01*
X039775Y003674D01*
X039821Y003662D01*
X039866Y003645D01*
X039910Y003625D01*
X039952Y003602D01*
X039992Y003575D01*
X040030Y003545D01*
X040065Y003512D01*
X040097Y003476D01*
X040127Y003438D01*
X040153Y003397D01*
X040175Y003354D01*
X040195Y003310D01*
X040210Y003265D01*
X040222Y003218D01*
X040230Y003170D01*
X040234Y003122D01*
X040234Y003074D01*
X040230Y003026D01*
X040222Y002978D01*
X040210Y002931D01*
X040195Y002886D01*
X040175Y002842D01*
X040153Y002799D01*
X040127Y002758D01*
X040097Y002720D01*
X040065Y002684D01*
X040030Y002651D01*
X039992Y002621D01*
X039952Y002594D01*
X039910Y002571D01*
X039866Y002551D01*
X039821Y002534D01*
X039775Y002522D01*
X039727Y002513D01*
X039679Y002508D01*
X039631Y002507D01*
X039583Y002510D01*
X039535Y002517D01*
X039488Y002528D01*
X039442Y002542D01*
X039397Y002560D01*
X039354Y002582D01*
X039313Y002607D01*
X039275Y002636D01*
X039238Y002668D01*
X039204Y002702D01*
X039174Y002739D01*
X039146Y002778D01*
X039121Y002820D01*
X039101Y002864D01*
X039083Y002909D01*
X039070Y002955D01*
X039060Y003002D01*
X039054Y003050D01*
X039052Y003098D01*
D11*
X007851Y003197D02*
X007851Y008659D01*
X007851Y010480D02*
X007851Y016140D01*
X008097Y018059D02*
X008097Y026228D01*
X007064Y027606D02*
X002979Y027606D01*
M02*
