G75*
G70*
%OFA0B0*%
%FSLAX24Y24*%
%IPPOS*%
%LPD*%
%AMOC8*
5,1,8,0,0,1.08239X$1,22.5*
%
%ADD10C,0.0004*%
%ADD11C,0.0040*%
%ADD12C,0.0160*%
%ADD13C,0.0010*%
%ADD14C,0.0030*%
%ADD15C,0.0220*%
%ADD16C,0.0080*%
%ADD17C,0.0060*%
%ADD18C,0.0320*%
%ADD19C,0.0020*%
%ADD20C,0.0050*%
%ADD21R,0.0350X0.0075*%
%ADD22R,0.0280X0.0160*%
%ADD23R,0.0160X0.0280*%
%ADD24R,0.0300X0.0180*%
%ADD25C,0.0039*%
%ADD26C,0.0000*%
%ADD27R,0.0118X0.0118*%
%ADD28R,0.0230X0.0240*%
%ADD29R,0.0551X0.0039*%
%ADD30R,0.0551X0.0079*%
%ADD31R,0.0039X0.0079*%
%ADD32C,0.0079*%
%ADD33C,0.0197*%
%ADD34R,0.0118X0.0157*%
%ADD35C,0.0120*%
D10*
X002971Y001207D02*
X041554Y001207D01*
X041554Y043333D01*
X002971Y043333D01*
X002971Y001207D01*
D11*
X005769Y008820D02*
X005922Y008820D01*
X005999Y008897D01*
X005999Y009280D01*
X006152Y009204D02*
X006229Y009280D01*
X006383Y009280D01*
X006459Y009204D01*
X006383Y009050D02*
X006229Y009050D01*
X006152Y009127D01*
X006152Y009204D01*
X006306Y009357D02*
X006306Y008743D01*
X006383Y008820D02*
X006459Y008897D01*
X006459Y008973D01*
X006383Y009050D01*
X006383Y008820D02*
X006229Y008820D01*
X006152Y008897D01*
X005769Y008820D02*
X005692Y008897D01*
X005692Y009280D01*
X006613Y009127D02*
X006766Y009280D01*
X006766Y008820D01*
X006613Y008820D02*
X006920Y008820D01*
X007073Y008820D02*
X007380Y008820D01*
X007227Y008820D02*
X007227Y009280D01*
X007073Y009127D01*
X012627Y015839D02*
X013087Y015839D01*
X013087Y016146D01*
X013010Y016300D02*
X013087Y016376D01*
X013087Y016530D01*
X013010Y016607D01*
X013087Y016760D02*
X013087Y016990D01*
X013010Y017067D01*
X012703Y017067D01*
X012627Y016990D01*
X012627Y016760D01*
X013087Y016760D01*
X012703Y016607D02*
X012627Y016530D01*
X012627Y016376D01*
X012703Y016300D01*
X013010Y016300D01*
X013164Y017220D02*
X013164Y017527D01*
X013087Y017681D02*
X012780Y017988D01*
X012703Y017988D01*
X012627Y017911D01*
X012627Y017758D01*
X012703Y017681D01*
X013087Y017681D02*
X013087Y017988D01*
X013087Y018141D02*
X013087Y018218D01*
X013010Y018218D01*
X013010Y018141D01*
X013087Y018141D01*
X012857Y018371D02*
X012857Y018678D01*
X013087Y018602D02*
X012627Y018602D01*
X012857Y018371D01*
X015623Y018604D02*
X016237Y018604D01*
X016160Y018527D02*
X016160Y018681D01*
X016083Y018758D01*
X016006Y018758D01*
X015930Y018681D01*
X015930Y018527D01*
X015853Y018451D01*
X015776Y018451D01*
X015700Y018527D01*
X015700Y018681D01*
X015776Y018758D01*
X015853Y018911D02*
X015700Y019064D01*
X016160Y019064D01*
X016160Y018911D02*
X016160Y019218D01*
X016083Y019371D02*
X016160Y019448D01*
X016160Y019602D01*
X016083Y019678D01*
X016006Y019678D01*
X015930Y019602D01*
X015930Y019525D01*
X015930Y019602D02*
X015853Y019678D01*
X015776Y019678D01*
X015700Y019602D01*
X015700Y019448D01*
X015776Y019371D01*
X016611Y019530D02*
X016688Y019453D01*
X016995Y019453D01*
X017071Y019530D01*
X017071Y019683D01*
X016995Y019760D01*
X016995Y019913D02*
X017071Y019990D01*
X017071Y020143D01*
X016995Y020220D01*
X016918Y020220D01*
X016841Y020143D01*
X016841Y019913D01*
X016995Y019913D01*
X016841Y019913D02*
X016688Y020067D01*
X016611Y020220D01*
X016688Y019760D02*
X016611Y019683D01*
X016611Y019530D01*
X016841Y019299D02*
X016841Y018993D01*
X016611Y018839D02*
X016611Y018532D01*
X017071Y018532D01*
X017071Y018839D01*
X016841Y018686D02*
X016841Y018532D01*
X016688Y018379D02*
X016995Y018379D01*
X017071Y018302D01*
X017071Y018072D01*
X016611Y018072D01*
X016611Y018302D01*
X016688Y018379D01*
X016764Y017918D02*
X017071Y017918D01*
X016841Y017918D02*
X016841Y017611D01*
X016764Y017611D02*
X017071Y017611D01*
X016764Y017611D02*
X016611Y017765D01*
X016764Y017918D01*
X016160Y018067D02*
X016160Y018220D01*
X016083Y018297D01*
X015700Y018297D01*
X015700Y017990D02*
X016083Y017990D01*
X016160Y018067D01*
X016083Y018451D02*
X016160Y018527D01*
X019132Y018783D02*
X019362Y018783D01*
X019439Y018860D01*
X019439Y019167D01*
X019362Y019243D01*
X019132Y019243D01*
X019132Y018783D01*
X019592Y018783D02*
X019592Y019243D01*
X019592Y019013D02*
X019899Y019013D01*
X019899Y019243D02*
X019899Y018783D01*
X020206Y018783D02*
X020206Y019243D01*
X020053Y019243D02*
X020360Y019243D01*
X020513Y019013D02*
X020820Y019013D01*
X020974Y018936D02*
X021204Y018936D01*
X021281Y019013D01*
X021281Y019167D01*
X021204Y019243D01*
X020974Y019243D01*
X020974Y018783D01*
X021127Y018936D02*
X021281Y018783D01*
X021434Y018783D02*
X021741Y018783D01*
X021587Y018783D02*
X021587Y019243D01*
X021434Y019090D01*
X024463Y018725D02*
X024463Y018418D01*
X024540Y018342D01*
X024693Y018342D01*
X024770Y018418D01*
X024923Y018418D02*
X025000Y018342D01*
X025154Y018342D01*
X025230Y018418D01*
X025384Y018265D02*
X025691Y018265D01*
X025844Y018418D02*
X025921Y018342D01*
X026074Y018342D01*
X026151Y018418D01*
X026304Y018418D02*
X026304Y018495D01*
X026381Y018572D01*
X026535Y018572D01*
X026611Y018495D01*
X026611Y018418D01*
X026535Y018342D01*
X026381Y018342D01*
X026304Y018418D01*
X026381Y018572D02*
X026304Y018649D01*
X026304Y018725D01*
X026381Y018802D01*
X026535Y018802D01*
X026611Y018725D01*
X026611Y018649D01*
X026535Y018572D01*
X026151Y018725D02*
X026074Y018802D01*
X025921Y018802D01*
X025844Y018725D01*
X025844Y018418D01*
X025230Y018725D02*
X025154Y018802D01*
X025000Y018802D01*
X024923Y018725D01*
X024923Y018418D01*
X024770Y018725D02*
X024693Y018802D01*
X024540Y018802D01*
X024463Y018725D01*
X026203Y021464D02*
X026510Y021464D01*
X026663Y021617D02*
X026740Y021540D01*
X026893Y021540D01*
X026970Y021617D01*
X027124Y021540D02*
X027431Y022001D01*
X027584Y021924D02*
X027661Y022001D01*
X027814Y022001D01*
X027891Y021924D01*
X027891Y021847D01*
X027584Y021540D01*
X027891Y021540D01*
X027431Y021540D02*
X027124Y022001D01*
X027061Y021970D02*
X027061Y022123D01*
X026985Y022200D01*
X026985Y022353D02*
X027061Y022430D01*
X027061Y022583D01*
X026985Y022660D01*
X027138Y022814D02*
X027138Y023121D01*
X026985Y023274D02*
X027061Y023351D01*
X027061Y023504D01*
X026985Y023581D01*
X027061Y023734D02*
X026601Y024041D01*
X026755Y024195D02*
X026601Y024348D01*
X027061Y024348D01*
X027061Y024195D02*
X027061Y024502D01*
X027061Y024041D02*
X026601Y023734D01*
X026678Y023581D02*
X026601Y023504D01*
X026601Y023351D01*
X026678Y023274D01*
X026985Y023274D01*
X026678Y022660D02*
X026601Y022583D01*
X026601Y022430D01*
X026678Y022353D01*
X026985Y022353D01*
X026678Y022200D02*
X026601Y022123D01*
X026601Y021970D01*
X026678Y021893D01*
X026985Y021893D01*
X027061Y021970D01*
X026970Y021924D02*
X026893Y022001D01*
X026740Y022001D01*
X026663Y021924D01*
X026663Y021617D01*
X026049Y021617D02*
X025973Y021540D01*
X025819Y021540D01*
X025742Y021617D01*
X025742Y021924D01*
X025819Y022001D01*
X025973Y022001D01*
X026049Y021924D01*
X025589Y021924D02*
X025512Y022001D01*
X025359Y022001D01*
X025282Y021924D01*
X025282Y021617D01*
X025359Y021540D01*
X025512Y021540D01*
X025589Y021617D01*
X028775Y019676D02*
X028775Y019369D01*
X028851Y019292D01*
X029005Y019292D01*
X029082Y019369D01*
X029235Y019369D02*
X029312Y019292D01*
X029465Y019292D01*
X029542Y019369D01*
X029696Y019216D02*
X030002Y019216D01*
X030156Y019292D02*
X030386Y019292D01*
X030463Y019369D01*
X030463Y019676D01*
X030386Y019753D01*
X030156Y019753D01*
X030156Y019292D01*
X030616Y019369D02*
X030693Y019292D01*
X030846Y019292D01*
X030923Y019369D01*
X031077Y019369D02*
X031153Y019292D01*
X031307Y019292D01*
X031384Y019369D01*
X031384Y019676D01*
X031307Y019753D01*
X031153Y019753D01*
X031077Y019676D01*
X031077Y019369D01*
X030923Y019676D02*
X030846Y019753D01*
X030693Y019753D01*
X030616Y019676D01*
X030616Y019369D01*
X029542Y019676D02*
X029465Y019753D01*
X029312Y019753D01*
X029235Y019676D01*
X029235Y019369D01*
X029082Y019676D02*
X029005Y019753D01*
X028851Y019753D01*
X028775Y019676D01*
X030981Y018045D02*
X031058Y018122D01*
X031365Y017815D01*
X031441Y017891D01*
X031441Y018045D01*
X031365Y018122D01*
X031058Y018122D01*
X030981Y018045D02*
X030981Y017891D01*
X031058Y017815D01*
X031365Y017815D01*
X031441Y017661D02*
X031441Y017354D01*
X031441Y017508D02*
X030981Y017508D01*
X031134Y017354D01*
X031058Y017201D02*
X030981Y017124D01*
X030981Y016971D01*
X031058Y016894D01*
X031365Y016894D01*
X031441Y016971D01*
X031441Y017124D01*
X031365Y017201D01*
X031211Y016740D02*
X031211Y016433D01*
X030981Y016280D02*
X031441Y016280D01*
X031441Y015973D02*
X030981Y015973D01*
X031134Y016127D01*
X030981Y016280D01*
X030981Y015820D02*
X030981Y015513D01*
X030981Y015666D02*
X031441Y015666D01*
X031605Y015399D02*
X031605Y015092D01*
X031605Y015245D02*
X031144Y015245D01*
X031298Y015092D01*
X031365Y015052D02*
X031441Y015129D01*
X031441Y015282D01*
X031365Y015359D01*
X031288Y015359D01*
X031211Y015282D01*
X031211Y015129D01*
X031134Y015052D01*
X031058Y015052D01*
X030981Y015129D01*
X030981Y015282D01*
X031058Y015359D01*
X030926Y014979D02*
X031079Y014826D01*
X031233Y014979D01*
X031233Y014519D01*
X031221Y014631D02*
X031528Y014631D01*
X031605Y014708D01*
X031605Y014862D01*
X031528Y014938D01*
X031386Y014749D02*
X031693Y014749D01*
X031847Y014902D02*
X031847Y014596D01*
X031923Y014519D01*
X032077Y014519D01*
X032154Y014596D01*
X032307Y014519D02*
X032614Y014826D01*
X032614Y014902D01*
X032537Y014979D01*
X032384Y014979D01*
X032307Y014902D01*
X032154Y014902D02*
X032077Y014979D01*
X031923Y014979D01*
X031847Y014902D01*
X031221Y014938D02*
X031144Y014862D01*
X031144Y014708D01*
X031221Y014631D01*
X031375Y014478D02*
X031375Y014171D01*
X031309Y013979D02*
X031309Y013519D01*
X031144Y013557D02*
X031144Y013250D01*
X031122Y013143D02*
X030969Y013143D01*
X030892Y013066D01*
X030892Y012989D01*
X030969Y012912D01*
X031122Y012912D01*
X031199Y012836D01*
X031199Y012759D01*
X031122Y012682D01*
X030969Y012682D01*
X030892Y012759D01*
X031144Y012867D02*
X031221Y012790D01*
X031298Y012790D01*
X031375Y012867D01*
X031375Y013020D01*
X031451Y013097D01*
X031528Y013097D01*
X031605Y013020D01*
X031605Y012867D01*
X031528Y012790D01*
X031506Y012682D02*
X031506Y013143D01*
X031353Y013143D02*
X031660Y013143D01*
X031813Y013143D02*
X031967Y012989D01*
X032120Y013143D01*
X032120Y012682D01*
X032273Y012912D02*
X032580Y012912D01*
X032734Y012759D02*
X032811Y012682D01*
X032964Y012682D01*
X033041Y012759D01*
X033194Y012759D02*
X033194Y012836D01*
X033271Y012912D01*
X033424Y012912D01*
X033501Y012836D01*
X033501Y012759D01*
X033424Y012682D01*
X033271Y012682D01*
X033194Y012759D01*
X033271Y012912D02*
X033194Y012989D01*
X033194Y013066D01*
X033271Y013143D01*
X033424Y013143D01*
X033501Y013066D01*
X033501Y012989D01*
X033424Y012912D01*
X033041Y013066D02*
X032964Y013143D01*
X032811Y013143D01*
X032734Y013066D01*
X032734Y012759D01*
X032767Y013519D02*
X032614Y013519D01*
X032537Y013596D01*
X032537Y013902D01*
X032614Y013979D01*
X032767Y013979D01*
X032844Y013902D01*
X032997Y013902D02*
X033074Y013979D01*
X033228Y013979D01*
X033304Y013902D01*
X033304Y013826D01*
X033228Y013749D01*
X033304Y013672D01*
X033304Y013596D01*
X033228Y013519D01*
X033074Y013519D01*
X032997Y013596D01*
X032844Y013596D02*
X032767Y013519D01*
X032384Y013749D02*
X032077Y013749D01*
X031923Y013979D02*
X031923Y013519D01*
X031616Y013519D02*
X031616Y013979D01*
X031770Y013826D01*
X031923Y013979D01*
X031605Y014018D02*
X031144Y014018D01*
X031298Y013864D01*
X031144Y013711D01*
X031605Y013711D01*
X031463Y013979D02*
X031156Y013979D01*
X031002Y013902D02*
X030926Y013979D01*
X030772Y013979D01*
X030695Y013902D01*
X030695Y013826D01*
X030772Y013749D01*
X030926Y013749D01*
X031002Y013672D01*
X031002Y013596D01*
X030926Y013519D01*
X030772Y013519D01*
X030695Y013596D01*
X031144Y013404D02*
X031605Y013404D01*
X031813Y013143D02*
X031813Y012682D01*
X031144Y012867D02*
X031144Y013020D01*
X031221Y013097D01*
X031199Y013066D02*
X031122Y013143D01*
X030926Y014519D02*
X030926Y014979D01*
X030772Y014979D02*
X030465Y014979D01*
X030619Y014979D02*
X030619Y014519D01*
X030312Y014596D02*
X030235Y014519D01*
X030082Y014519D01*
X030005Y014596D01*
X030082Y014749D02*
X030235Y014749D01*
X030312Y014672D01*
X030312Y014596D01*
X030082Y014749D02*
X030005Y014826D01*
X030005Y014902D01*
X030082Y014979D01*
X030235Y014979D01*
X030312Y014902D01*
X032307Y014519D02*
X032614Y014519D01*
X033151Y013749D02*
X033228Y013749D01*
X034623Y014046D02*
X034699Y013970D01*
X034776Y013970D01*
X034853Y014046D01*
X034853Y014200D01*
X034930Y014277D01*
X035006Y014277D01*
X035083Y014200D01*
X035083Y014046D01*
X035006Y013970D01*
X035312Y014046D02*
X035388Y013970D01*
X035465Y013970D01*
X035542Y014046D01*
X035542Y014200D01*
X035619Y014277D01*
X035695Y014277D01*
X035772Y014200D01*
X035772Y014046D01*
X035695Y013970D01*
X035755Y013959D02*
X035755Y014189D01*
X035831Y014266D01*
X035985Y014266D01*
X036062Y014189D01*
X036062Y013959D01*
X036148Y013959D02*
X036148Y014189D01*
X036225Y014266D01*
X036379Y014266D01*
X036455Y014189D01*
X036455Y013959D01*
X036609Y013959D02*
X036148Y013959D01*
X036215Y013959D02*
X035755Y013959D01*
X035831Y013805D02*
X035755Y013728D01*
X035755Y013575D01*
X035831Y013498D01*
X035908Y013498D01*
X035985Y013575D01*
X035985Y013728D01*
X036062Y013805D01*
X036138Y013805D01*
X036215Y013728D01*
X036215Y013575D01*
X036138Y013498D01*
X036148Y013575D02*
X036225Y013498D01*
X036302Y013498D01*
X036379Y013575D01*
X036379Y013728D01*
X036455Y013805D01*
X036532Y013805D01*
X036609Y013728D01*
X036609Y013575D01*
X036532Y013498D01*
X036609Y013345D02*
X036609Y013038D01*
X036148Y013038D01*
X036148Y013345D01*
X036215Y013345D02*
X036215Y013038D01*
X035755Y013038D01*
X035755Y013345D01*
X035985Y013191D02*
X035985Y013038D01*
X036292Y012884D02*
X036292Y012577D01*
X036225Y012424D02*
X036379Y012424D01*
X036455Y012347D01*
X036455Y012117D01*
X036609Y012117D02*
X036148Y012117D01*
X036148Y012347D01*
X036225Y012424D01*
X036062Y012347D02*
X036062Y012117D01*
X036215Y012117D02*
X035755Y012117D01*
X035755Y012347D01*
X035831Y012424D01*
X035985Y012424D01*
X036062Y012347D01*
X036148Y011964D02*
X036148Y011810D01*
X036215Y011810D02*
X036138Y011887D01*
X035755Y011887D01*
X035755Y011810D02*
X035755Y011964D01*
X036148Y011887D02*
X036532Y011887D01*
X036609Y011810D01*
X036609Y011733D01*
X036532Y011657D01*
X036215Y011733D02*
X036215Y011810D01*
X036215Y011733D02*
X036138Y011657D01*
X035708Y011288D02*
X035708Y010828D01*
X035555Y010828D02*
X035862Y010828D01*
X035555Y011135D02*
X035708Y011288D01*
X035402Y011212D02*
X035325Y011288D01*
X035171Y011288D01*
X035095Y011212D01*
X035095Y010905D01*
X035171Y010828D01*
X035325Y010828D01*
X035402Y010905D01*
X034941Y011058D02*
X034634Y011058D01*
X034481Y011058D02*
X034404Y010981D01*
X034174Y010981D01*
X034174Y010828D02*
X034174Y011288D01*
X034404Y011288D01*
X034481Y011212D01*
X034481Y011058D01*
X034020Y010981D02*
X034020Y010905D01*
X033944Y010828D01*
X033790Y010828D01*
X033713Y010905D01*
X033560Y010828D02*
X033253Y010828D01*
X033253Y011288D01*
X033560Y011288D01*
X033713Y011212D02*
X033713Y011135D01*
X033790Y011058D01*
X033944Y011058D01*
X034020Y010981D01*
X034020Y011212D02*
X033944Y011288D01*
X033790Y011288D01*
X033713Y011212D01*
X033407Y011058D02*
X033253Y011058D01*
X033140Y008342D02*
X033140Y008035D01*
X032833Y008342D01*
X032757Y008342D01*
X032680Y008265D01*
X032680Y008112D01*
X032757Y008035D01*
X032680Y007728D02*
X033140Y007728D01*
X033140Y007881D02*
X033140Y007574D01*
X033140Y007421D02*
X033140Y007267D01*
X033140Y007344D02*
X032680Y007344D01*
X032680Y007267D02*
X032680Y007421D01*
X032833Y007574D02*
X032680Y007728D01*
X032680Y007114D02*
X033140Y007114D01*
X032987Y006961D01*
X033140Y006807D01*
X032680Y006807D01*
X036685Y012577D02*
X036685Y012884D01*
X036379Y013038D02*
X036379Y013191D01*
X036148Y013575D02*
X036148Y013728D01*
X036225Y013805D01*
X036292Y014419D02*
X036292Y014726D01*
X036215Y014879D02*
X035755Y014879D01*
X035755Y015110D01*
X035831Y015186D01*
X035985Y015186D01*
X036062Y015110D01*
X036062Y014879D01*
X036148Y014879D02*
X036148Y015186D01*
X036215Y015186D02*
X036062Y015033D01*
X036148Y015033D02*
X036609Y015033D01*
X036609Y015340D02*
X036148Y015647D01*
X036215Y015647D02*
X035755Y015340D01*
X035772Y015197D02*
X035312Y015197D01*
X035465Y015044D01*
X035312Y014890D01*
X035772Y014890D01*
X035772Y014583D02*
X035312Y014583D01*
X035312Y014430D02*
X035312Y014737D01*
X035083Y014890D02*
X034623Y014890D01*
X034776Y015044D01*
X034623Y015197D01*
X035083Y015197D01*
X034853Y015351D02*
X034853Y015658D01*
X035006Y015811D02*
X035083Y015888D01*
X035083Y016041D01*
X035006Y016118D01*
X035006Y016272D02*
X035083Y016348D01*
X035083Y016502D01*
X035006Y016578D01*
X034699Y016578D01*
X034623Y016502D01*
X034623Y016348D01*
X034699Y016272D01*
X034776Y016272D01*
X034853Y016348D01*
X034853Y016578D01*
X035312Y016425D02*
X035772Y016425D01*
X035772Y016272D02*
X035772Y016578D01*
X035465Y016272D02*
X035312Y016425D01*
X035772Y016118D02*
X035772Y015811D01*
X035312Y015811D01*
X035542Y015658D02*
X035542Y015351D01*
X035755Y015647D02*
X036215Y015340D01*
X036148Y015340D02*
X036609Y015647D01*
X036685Y014726D02*
X036685Y014419D01*
X037591Y014099D02*
X038052Y014099D01*
X037821Y014252D02*
X037821Y014559D01*
X037668Y014712D02*
X037975Y014712D01*
X038052Y014789D01*
X038052Y014943D01*
X037975Y015019D01*
X038052Y015173D02*
X038052Y015480D01*
X038052Y015633D02*
X038052Y015940D01*
X038052Y015787D02*
X037591Y015787D01*
X037745Y015633D01*
X037591Y015326D02*
X038052Y015326D01*
X037745Y015173D02*
X037591Y015326D01*
X037668Y015019D02*
X037591Y014943D01*
X037591Y014789D01*
X037668Y014712D01*
X037591Y014099D02*
X037745Y013945D01*
X037591Y013792D01*
X038052Y013792D01*
X038052Y013485D02*
X037591Y013485D01*
X037591Y013638D02*
X037591Y013331D01*
X037668Y013178D02*
X037591Y013101D01*
X037591Y012948D01*
X037668Y012871D01*
X037745Y012871D01*
X037821Y012948D01*
X037821Y013101D01*
X037898Y013178D01*
X037975Y013178D01*
X038052Y013101D01*
X038052Y012948D01*
X037975Y012871D01*
X035312Y014046D02*
X035312Y014200D01*
X035388Y014277D01*
X035083Y014583D02*
X034623Y014583D01*
X034623Y014430D02*
X034623Y014737D01*
X034699Y014277D02*
X034623Y014200D01*
X034623Y014046D01*
X034699Y015811D02*
X035006Y015811D01*
X034699Y015811D02*
X034623Y015888D01*
X034623Y016041D01*
X034699Y016118D01*
X032228Y019446D02*
X031997Y019446D01*
X031997Y019292D02*
X031997Y019753D01*
X032228Y019753D01*
X032304Y019676D01*
X032304Y019523D01*
X032228Y019446D01*
X031844Y019369D02*
X031844Y019753D01*
X031537Y019753D02*
X031537Y019369D01*
X031614Y019292D01*
X031767Y019292D01*
X031844Y019369D01*
X032247Y021113D02*
X032170Y021190D01*
X032247Y021113D02*
X032401Y021113D01*
X032477Y021190D01*
X032477Y021267D01*
X032401Y021344D01*
X032247Y021344D01*
X032170Y021420D01*
X032170Y021497D01*
X032247Y021574D01*
X032401Y021574D01*
X032477Y021497D01*
X032631Y021574D02*
X032938Y021574D01*
X033091Y021574D02*
X033245Y021420D01*
X033398Y021574D01*
X033398Y021113D01*
X033552Y021344D02*
X033858Y021344D01*
X034012Y021497D02*
X034089Y021574D01*
X034242Y021574D01*
X034319Y021497D01*
X034472Y021420D02*
X034626Y021574D01*
X034626Y021113D01*
X034779Y021113D02*
X034472Y021113D01*
X034319Y021190D02*
X034242Y021113D01*
X034089Y021113D01*
X034012Y021190D01*
X034012Y021497D01*
X034933Y021497D02*
X035009Y021574D01*
X035163Y021574D01*
X035240Y021497D01*
X035240Y021420D01*
X035163Y021344D01*
X035240Y021267D01*
X035240Y021190D01*
X035163Y021113D01*
X035009Y021113D01*
X034933Y021190D01*
X035086Y021344D02*
X035163Y021344D01*
X033091Y021113D02*
X033091Y021574D01*
X032784Y021574D02*
X032784Y021113D01*
X032721Y025338D02*
X032261Y025338D01*
X032261Y025645D02*
X032721Y025645D01*
X032567Y025491D01*
X032721Y025338D01*
X032644Y025798D02*
X032721Y025875D01*
X032721Y026028D01*
X032644Y026105D01*
X032491Y026105D01*
X032414Y026028D01*
X032414Y025952D01*
X032491Y025798D01*
X032261Y025798D01*
X032261Y026105D01*
X032317Y026046D02*
X032240Y025970D01*
X032087Y025970D01*
X032010Y026046D01*
X032317Y026353D01*
X032317Y026046D01*
X032470Y026200D02*
X032777Y026200D01*
X032644Y026259D02*
X032721Y026335D01*
X032721Y026489D01*
X032644Y026565D01*
X032491Y026565D01*
X032414Y026489D01*
X032414Y026412D01*
X032491Y026259D01*
X032261Y026259D01*
X032261Y026565D01*
X032240Y026430D02*
X032317Y026353D01*
X032240Y026430D02*
X032087Y026430D01*
X032010Y026353D01*
X032010Y026046D01*
X031856Y026046D02*
X031856Y026353D01*
X031550Y026046D01*
X031626Y025970D01*
X031780Y025970D01*
X031856Y026046D01*
X031550Y026046D02*
X031550Y026353D01*
X031626Y026430D01*
X031780Y026430D01*
X031856Y026353D01*
X031396Y026430D02*
X031089Y026430D01*
X031089Y026200D01*
X031243Y026277D01*
X031319Y026277D01*
X031396Y026200D01*
X031396Y026046D01*
X031319Y025970D01*
X031166Y025970D01*
X031089Y026046D01*
X030936Y026046D02*
X030936Y026200D01*
X030859Y026277D01*
X030782Y026277D01*
X030629Y026200D01*
X030629Y026430D01*
X030936Y026430D01*
X030975Y026757D02*
X030821Y026757D01*
X030745Y026834D01*
X031052Y027141D01*
X031052Y026834D01*
X030975Y026757D01*
X031205Y026834D02*
X031205Y027141D01*
X031282Y027217D01*
X031435Y027217D01*
X031512Y027141D01*
X031205Y026834D01*
X031282Y026757D01*
X031435Y026757D01*
X031512Y026834D01*
X031512Y027141D01*
X031665Y026987D02*
X031972Y026987D01*
X032126Y026834D02*
X032203Y026757D01*
X032356Y026757D01*
X032433Y026834D01*
X032337Y026719D02*
X032261Y026796D01*
X032261Y026949D01*
X032337Y027026D01*
X032644Y026719D01*
X032721Y026796D01*
X032721Y026949D01*
X032644Y027026D01*
X032337Y027026D01*
X032433Y027141D02*
X032356Y027217D01*
X032203Y027217D01*
X032126Y027141D01*
X032126Y026834D01*
X032337Y026719D02*
X032644Y026719D01*
X032586Y026757D02*
X032893Y026757D01*
X032740Y026757D02*
X032740Y027217D01*
X032586Y027064D01*
X032644Y027179D02*
X032337Y027486D01*
X032644Y027486D01*
X032721Y027409D01*
X032721Y027256D01*
X032644Y027179D01*
X032337Y027179D01*
X032261Y027256D01*
X032261Y027409D01*
X032337Y027486D01*
X032439Y027621D02*
X032515Y027544D01*
X032669Y027544D01*
X032746Y027621D01*
X032899Y027621D02*
X032976Y027544D01*
X033129Y027544D01*
X033206Y027621D01*
X033206Y027698D01*
X033129Y027775D01*
X033052Y027775D01*
X033129Y027775D02*
X033206Y027851D01*
X033206Y027928D01*
X033129Y028005D01*
X032976Y028005D01*
X032899Y027928D01*
X032746Y027928D02*
X032669Y028005D01*
X032515Y028005D01*
X032439Y027928D01*
X032439Y027621D01*
X032491Y027640D02*
X032491Y027947D01*
X032644Y028100D02*
X032721Y028177D01*
X032721Y028330D01*
X032644Y028407D01*
X032586Y028332D02*
X032893Y028332D01*
X032740Y028332D02*
X032740Y028792D01*
X032586Y028639D01*
X032721Y028714D02*
X032261Y028714D01*
X032414Y028560D01*
X032433Y028409D02*
X032356Y028332D01*
X032203Y028332D01*
X032126Y028409D01*
X032126Y028715D01*
X032203Y028792D01*
X032356Y028792D01*
X032433Y028715D01*
X032337Y028407D02*
X032261Y028330D01*
X032261Y028177D01*
X032337Y028100D01*
X032644Y028100D01*
X032721Y028560D02*
X032721Y028867D01*
X033047Y028715D02*
X033123Y028792D01*
X033277Y028792D01*
X033354Y028715D01*
X033047Y028409D01*
X033123Y028332D01*
X033277Y028332D01*
X033354Y028409D01*
X033354Y028715D01*
X033047Y028715D02*
X033047Y028409D01*
X033007Y029119D02*
X033161Y029119D01*
X033238Y029196D01*
X033391Y029196D02*
X033468Y029119D01*
X033621Y029119D01*
X033698Y029196D01*
X033698Y029503D01*
X033621Y029580D01*
X033468Y029580D01*
X033391Y029503D01*
X033391Y029426D01*
X033468Y029349D01*
X033698Y029349D01*
X033238Y029503D02*
X033161Y029580D01*
X033007Y029580D01*
X032931Y029503D01*
X032931Y029196D01*
X033007Y029119D01*
X032777Y029349D02*
X032470Y029349D01*
X032317Y029196D02*
X032317Y029503D01*
X032010Y029196D01*
X032087Y029119D01*
X032240Y029119D01*
X032317Y029196D01*
X032317Y029503D02*
X032240Y029580D01*
X032087Y029580D01*
X032010Y029503D01*
X032010Y029196D01*
X031856Y029196D02*
X031856Y029503D01*
X031550Y029196D01*
X031626Y029119D01*
X031780Y029119D01*
X031856Y029196D01*
X031550Y029196D02*
X031550Y029503D01*
X031626Y029580D01*
X031780Y029580D01*
X031856Y029503D01*
X031396Y029580D02*
X031089Y029580D01*
X031089Y029349D01*
X031243Y029426D01*
X031319Y029426D01*
X031396Y029349D01*
X031396Y029196D01*
X031319Y029119D01*
X031166Y029119D01*
X031089Y029196D01*
X030936Y029196D02*
X030936Y029349D01*
X030859Y029426D01*
X030782Y029426D01*
X030629Y029349D01*
X030629Y029580D01*
X030936Y029580D01*
X030936Y029196D02*
X030859Y029119D01*
X030705Y029119D01*
X030629Y029196D01*
X030475Y029119D02*
X030475Y029580D01*
X030168Y029580D02*
X030168Y029119D01*
X030322Y029273D01*
X030475Y029119D01*
X030591Y028792D02*
X030284Y028792D01*
X030284Y028562D01*
X030438Y028639D01*
X030514Y028639D01*
X030591Y028562D01*
X030591Y028409D01*
X030514Y028332D01*
X030361Y028332D01*
X030284Y028409D01*
X030131Y028409D02*
X030054Y028332D01*
X029901Y028332D01*
X029824Y028409D01*
X029824Y028562D02*
X029977Y028639D01*
X030054Y028639D01*
X030131Y028562D01*
X030131Y028409D01*
X029824Y028562D02*
X029824Y028792D01*
X030131Y028792D01*
X029670Y028792D02*
X029670Y028332D01*
X029517Y028485D01*
X029363Y028332D01*
X029363Y028792D01*
X029676Y028005D02*
X029676Y027544D01*
X029830Y027698D01*
X029983Y027544D01*
X029983Y028005D01*
X030137Y028005D02*
X030137Y027775D01*
X030290Y027851D01*
X030367Y027851D01*
X030444Y027775D01*
X030444Y027621D01*
X030367Y027544D01*
X030213Y027544D01*
X030137Y027621D01*
X030137Y028005D02*
X030444Y028005D01*
X030597Y028005D02*
X030597Y027775D01*
X030750Y027851D01*
X030827Y027851D01*
X030904Y027775D01*
X030904Y027621D01*
X030827Y027544D01*
X030674Y027544D01*
X030597Y027621D01*
X030597Y028005D02*
X030904Y028005D01*
X031057Y027928D02*
X031134Y028005D01*
X031288Y028005D01*
X031364Y027928D01*
X031057Y027621D01*
X031134Y027544D01*
X031288Y027544D01*
X031364Y027621D01*
X031364Y027928D01*
X031518Y027928D02*
X031595Y028005D01*
X031748Y028005D01*
X031825Y027928D01*
X031518Y027621D01*
X031595Y027544D01*
X031748Y027544D01*
X031825Y027621D01*
X031825Y027928D01*
X031978Y027775D02*
X032285Y027775D01*
X031518Y027621D02*
X031518Y027928D01*
X031435Y028332D02*
X031282Y028332D01*
X031205Y028409D01*
X031512Y028715D01*
X031512Y028409D01*
X031435Y028332D01*
X031205Y028409D02*
X031205Y028715D01*
X031282Y028792D01*
X031435Y028792D01*
X031512Y028715D01*
X031665Y028562D02*
X031972Y028562D01*
X031052Y028409D02*
X030975Y028332D01*
X030821Y028332D01*
X030745Y028409D01*
X031052Y028715D01*
X031052Y028409D01*
X031052Y028715D02*
X030975Y028792D01*
X030821Y028792D01*
X030745Y028715D01*
X030745Y028409D01*
X031057Y027928D02*
X031057Y027621D01*
X030975Y027217D02*
X031052Y027141D01*
X030975Y027217D02*
X030821Y027217D01*
X030745Y027141D01*
X030745Y026834D01*
X030591Y026834D02*
X030514Y026757D01*
X030361Y026757D01*
X030284Y026834D01*
X030284Y026987D02*
X030438Y027064D01*
X030514Y027064D01*
X030591Y026987D01*
X030591Y026834D01*
X030284Y026987D02*
X030284Y027217D01*
X030591Y027217D01*
X030131Y027217D02*
X029824Y027217D01*
X029824Y026987D01*
X029977Y027064D01*
X030054Y027064D01*
X030131Y026987D01*
X030131Y026834D01*
X030054Y026757D01*
X029901Y026757D01*
X029824Y026834D01*
X029670Y026757D02*
X029670Y027217D01*
X029363Y027217D02*
X029363Y026757D01*
X029517Y026910D01*
X029670Y026757D01*
X030168Y026430D02*
X030168Y025970D01*
X030322Y026123D01*
X030475Y025970D01*
X030475Y026430D01*
X030629Y026046D02*
X030705Y025970D01*
X030859Y025970D01*
X030936Y026046D01*
X032931Y026046D02*
X033007Y025970D01*
X033161Y025970D01*
X033238Y026046D01*
X033391Y026200D02*
X033698Y026200D01*
X033694Y026233D02*
X033848Y026386D01*
X034001Y026233D01*
X034001Y026693D01*
X034155Y026693D02*
X034155Y026463D01*
X034308Y026540D01*
X034385Y026540D01*
X034462Y026463D01*
X034462Y026310D01*
X034385Y026233D01*
X034232Y026233D01*
X034155Y026310D01*
X034155Y026693D02*
X034462Y026693D01*
X034615Y026693D02*
X034615Y026463D01*
X034769Y026540D01*
X034845Y026540D01*
X034922Y026463D01*
X034922Y026310D01*
X034845Y026233D01*
X034692Y026233D01*
X034615Y026310D01*
X034615Y026693D02*
X034922Y026693D01*
X035076Y026617D02*
X035152Y026693D01*
X035306Y026693D01*
X035383Y026617D01*
X035076Y026310D01*
X035152Y026233D01*
X035306Y026233D01*
X035383Y026310D01*
X035383Y026617D01*
X035536Y026617D02*
X035613Y026693D01*
X035766Y026693D01*
X035843Y026617D01*
X035536Y026310D01*
X035613Y026233D01*
X035766Y026233D01*
X035843Y026310D01*
X035843Y026617D01*
X035996Y026463D02*
X036303Y026463D01*
X036457Y026386D02*
X036687Y026386D01*
X036764Y026463D01*
X036764Y026617D01*
X036687Y026693D01*
X036457Y026693D01*
X036457Y026233D01*
X036449Y026101D02*
X036142Y026101D01*
X036142Y025871D01*
X036296Y025948D01*
X036373Y025948D01*
X036449Y025871D01*
X036449Y025718D01*
X036373Y025641D01*
X036219Y025641D01*
X036142Y025718D01*
X035989Y025718D02*
X035912Y025641D01*
X035759Y025641D01*
X035682Y025718D01*
X035682Y025871D02*
X035835Y025948D01*
X035912Y025948D01*
X035989Y025871D01*
X035989Y025718D01*
X035682Y025871D02*
X035682Y026101D01*
X035989Y026101D01*
X035529Y026101D02*
X035529Y025641D01*
X035375Y025794D01*
X035222Y025641D01*
X035222Y026101D01*
X035076Y026310D02*
X035076Y026617D01*
X035536Y026617D02*
X035536Y026310D01*
X035625Y027404D02*
X036086Y027404D01*
X035932Y027557D01*
X036086Y027711D01*
X035625Y027711D01*
X035625Y027864D02*
X035855Y027864D01*
X035779Y028017D01*
X035779Y028094D01*
X035855Y028171D01*
X036009Y028171D01*
X036086Y028094D01*
X036086Y027941D01*
X036009Y027864D01*
X035625Y027864D02*
X035625Y028171D01*
X035625Y028324D02*
X035855Y028324D01*
X035779Y028478D01*
X035779Y028555D01*
X035855Y028631D01*
X036009Y028631D01*
X036086Y028555D01*
X036086Y028401D01*
X036009Y028324D01*
X035625Y028324D02*
X035625Y028631D01*
X035702Y028785D02*
X035625Y028862D01*
X035625Y029015D01*
X035702Y029092D01*
X036009Y028785D01*
X036086Y028862D01*
X036086Y029015D01*
X036009Y029092D01*
X035702Y029092D01*
X035702Y029245D02*
X035625Y029322D01*
X035625Y029475D01*
X035702Y029552D01*
X036009Y029245D01*
X036086Y029322D01*
X036086Y029475D01*
X036009Y029552D01*
X035702Y029552D01*
X035855Y029706D02*
X035855Y030013D01*
X035932Y030166D02*
X035932Y030396D01*
X035855Y030473D01*
X035702Y030473D01*
X035625Y030396D01*
X035625Y030166D01*
X036086Y030166D01*
X035932Y030319D02*
X036086Y030473D01*
X036148Y030408D02*
X036148Y030561D01*
X036086Y030626D02*
X036086Y030933D01*
X036086Y030780D02*
X035625Y030780D01*
X035779Y030626D01*
X035918Y030715D02*
X035918Y030408D01*
X036378Y030408D01*
X036378Y030715D01*
X036378Y031022D02*
X035918Y031022D01*
X035918Y031175D02*
X035918Y030868D01*
X036086Y031087D02*
X035779Y031394D01*
X035702Y031394D01*
X035625Y031317D01*
X035625Y031163D01*
X035702Y031087D01*
X035591Y031022D02*
X035131Y031022D01*
X035131Y031175D02*
X035131Y030868D01*
X035131Y030715D02*
X035131Y030408D01*
X035591Y030408D01*
X035591Y030715D01*
X035361Y030561D02*
X035361Y030408D01*
X034904Y030520D02*
X034904Y030213D01*
X034443Y030213D01*
X034443Y030520D01*
X034443Y030673D02*
X034443Y030980D01*
X034443Y030827D02*
X034904Y030827D01*
X034904Y031134D02*
X034443Y031134D01*
X034673Y031134D02*
X034673Y031440D01*
X034673Y031594D02*
X034673Y031901D01*
X034750Y032054D02*
X034750Y032285D01*
X034673Y032361D01*
X034520Y032361D01*
X034443Y032285D01*
X034443Y032054D01*
X034904Y032054D01*
X034750Y032208D02*
X034904Y032361D01*
X034827Y032515D02*
X034904Y032591D01*
X034904Y032745D01*
X034827Y032822D01*
X034750Y032822D01*
X034673Y032745D01*
X034673Y032515D01*
X034827Y032515D01*
X034673Y032515D02*
X034520Y032668D01*
X034443Y032822D01*
X034000Y032817D02*
X033924Y032740D01*
X033617Y033047D01*
X033924Y033047D01*
X034000Y032971D01*
X034000Y032817D01*
X033924Y032740D02*
X033617Y032740D01*
X033540Y032817D01*
X033540Y032971D01*
X033617Y033047D01*
X033770Y033201D02*
X033770Y033508D01*
X033617Y033661D02*
X033924Y033661D01*
X034000Y033738D01*
X034000Y033891D01*
X033924Y033968D01*
X033924Y034121D02*
X033847Y034121D01*
X033770Y034198D01*
X033770Y034352D01*
X033847Y034428D01*
X033924Y034428D01*
X034000Y034352D01*
X034000Y034198D01*
X033924Y034121D01*
X033770Y034198D02*
X033694Y034121D01*
X033617Y034121D01*
X033540Y034198D01*
X033540Y034352D01*
X033617Y034428D01*
X033694Y034428D01*
X033770Y034352D01*
X033617Y033968D02*
X033540Y033891D01*
X033540Y033738D01*
X033617Y033661D01*
X033016Y033603D02*
X032556Y033603D01*
X032786Y033603D02*
X032786Y033296D01*
X033016Y033296D02*
X032556Y033296D01*
X032556Y033142D02*
X032556Y032836D01*
X032556Y032989D02*
X033016Y032989D01*
X033016Y032682D02*
X033016Y032375D01*
X032556Y032375D01*
X032556Y032682D01*
X032786Y032529D02*
X032786Y032375D01*
X033540Y032357D02*
X033540Y032510D01*
X033617Y032587D01*
X033924Y032280D01*
X034000Y032357D01*
X034000Y032510D01*
X033924Y032587D01*
X033617Y032587D01*
X033540Y032357D02*
X033617Y032280D01*
X033924Y032280D01*
X033924Y032126D02*
X034000Y032050D01*
X034000Y031896D01*
X033924Y031820D01*
X033770Y031820D02*
X033694Y031973D01*
X033694Y032050D01*
X033770Y032126D01*
X033924Y032126D01*
X033770Y031820D02*
X033540Y031820D01*
X033540Y032126D01*
X033540Y031666D02*
X033540Y031359D01*
X033770Y031359D01*
X033694Y031513D01*
X033694Y031589D01*
X033770Y031666D01*
X033924Y031666D01*
X034000Y031589D01*
X034000Y031436D01*
X033924Y031359D01*
X034000Y031206D02*
X033847Y031052D01*
X034000Y030899D01*
X033540Y030899D01*
X033540Y031206D02*
X034000Y031206D01*
X034443Y031440D02*
X034904Y031440D01*
X035131Y031329D02*
X035591Y031329D01*
X035668Y031347D02*
X035821Y031501D01*
X035361Y031501D01*
X035361Y031636D02*
X035361Y031329D01*
X035361Y031194D02*
X035821Y031194D01*
X035668Y031347D01*
X035918Y031329D02*
X036378Y031329D01*
X036148Y031329D02*
X036148Y031636D01*
X036148Y031789D02*
X036148Y032096D01*
X035995Y032250D02*
X036302Y032250D01*
X036378Y032326D01*
X036378Y032480D01*
X036302Y032557D01*
X036148Y032710D02*
X036148Y033017D01*
X036066Y032877D02*
X036066Y032570D01*
X035605Y032570D01*
X035605Y032877D01*
X035745Y032882D02*
X035438Y032882D01*
X035745Y032575D01*
X035821Y032652D01*
X035821Y032805D01*
X035745Y032882D01*
X035745Y033036D02*
X035438Y033343D01*
X035745Y033343D01*
X035821Y033266D01*
X035821Y033112D01*
X035745Y033036D01*
X035438Y033036D01*
X035361Y033112D01*
X035361Y033266D01*
X035438Y033343D01*
X035605Y033338D02*
X035605Y033031D01*
X035591Y033017D02*
X035591Y032710D01*
X035284Y033017D01*
X035207Y033017D01*
X035131Y032940D01*
X035131Y032787D01*
X035207Y032710D01*
X035207Y032557D02*
X035131Y032480D01*
X035131Y032326D01*
X035207Y032250D01*
X035514Y032250D01*
X035591Y032326D01*
X035591Y032480D01*
X035514Y032557D01*
X035438Y032575D02*
X035361Y032652D01*
X035361Y032805D01*
X035438Y032882D01*
X035438Y032575D02*
X035745Y032575D01*
X035836Y032570D02*
X035836Y032724D01*
X035995Y032557D02*
X035918Y032480D01*
X035918Y032326D01*
X035995Y032250D01*
X035821Y032192D02*
X035745Y032115D01*
X035821Y032192D02*
X035821Y032345D01*
X035745Y032422D01*
X035591Y032422D01*
X035514Y032345D01*
X035514Y032268D01*
X035591Y032115D01*
X035361Y032115D01*
X035361Y032422D01*
X035361Y032096D02*
X035361Y031789D01*
X035361Y031654D02*
X035591Y031654D01*
X035514Y031808D01*
X035514Y031885D01*
X035591Y031961D01*
X035745Y031961D01*
X035821Y031885D01*
X035821Y031731D01*
X035745Y031654D01*
X035591Y031636D02*
X035131Y031636D01*
X035361Y031654D02*
X035361Y031961D01*
X035918Y031636D02*
X036378Y031636D01*
X036086Y031394D02*
X036086Y031087D01*
X036788Y031194D02*
X037249Y031194D01*
X037095Y031347D01*
X037249Y031501D01*
X036788Y031501D01*
X036788Y031654D02*
X037018Y031654D01*
X036942Y031808D01*
X036942Y031885D01*
X037018Y031961D01*
X037172Y031961D01*
X037249Y031885D01*
X037249Y031731D01*
X037172Y031654D01*
X036788Y031654D02*
X036788Y031961D01*
X036788Y032115D02*
X037018Y032115D01*
X036942Y032268D01*
X036942Y032345D01*
X037018Y032422D01*
X037172Y032422D01*
X037249Y032345D01*
X037249Y032192D01*
X037172Y032115D01*
X036788Y032115D02*
X036788Y032422D01*
X036865Y032575D02*
X036788Y032652D01*
X036788Y032805D01*
X036865Y032882D01*
X037172Y032575D01*
X037249Y032652D01*
X037249Y032805D01*
X037172Y032882D01*
X036865Y032882D01*
X036846Y032861D02*
X036999Y033015D01*
X037153Y032861D01*
X037153Y033322D01*
X037172Y033343D02*
X037249Y033266D01*
X037249Y033112D01*
X037172Y033036D01*
X036865Y033343D01*
X037172Y033343D01*
X037306Y033322D02*
X037306Y033092D01*
X037460Y033168D01*
X037536Y033168D01*
X037613Y033092D01*
X037613Y032938D01*
X037536Y032861D01*
X037383Y032861D01*
X037306Y032938D01*
X037172Y033036D02*
X036865Y033036D01*
X036788Y033112D01*
X036788Y033266D01*
X036865Y033343D01*
X036846Y033322D02*
X036846Y032861D01*
X036723Y032824D02*
X036723Y032670D01*
X036865Y032575D02*
X037172Y032575D01*
X036953Y032670D02*
X036953Y032977D01*
X036953Y032670D02*
X036493Y032670D01*
X036493Y032977D01*
X036378Y032940D02*
X035918Y032940D01*
X036148Y032710D01*
X036066Y033184D02*
X035605Y033184D01*
X035605Y033491D02*
X036066Y033491D01*
X035836Y033491D02*
X035836Y033798D01*
X035836Y033952D02*
X035836Y034258D01*
X035821Y034187D02*
X035745Y034263D01*
X035821Y034187D02*
X035821Y034033D01*
X035745Y033956D01*
X035438Y033956D01*
X035361Y034033D01*
X035361Y034187D01*
X035438Y034263D01*
X035361Y034417D02*
X035361Y034724D01*
X035438Y034724D01*
X035745Y034417D01*
X035821Y034417D01*
X035912Y034412D02*
X035912Y034642D01*
X035836Y034719D01*
X035682Y034719D01*
X035605Y034642D01*
X035605Y034412D01*
X036066Y034412D01*
X035912Y034565D02*
X036066Y034719D01*
X036147Y034736D02*
X036147Y035043D01*
X036147Y035196D02*
X036147Y035503D01*
X036147Y035350D02*
X036607Y035350D01*
X036493Y035126D02*
X036953Y035126D01*
X036953Y035279D02*
X036953Y034972D01*
X036876Y034819D02*
X036953Y034742D01*
X036953Y034589D01*
X036876Y034512D01*
X036570Y034512D01*
X036493Y034589D01*
X036493Y034742D01*
X036570Y034819D01*
X036607Y034736D02*
X036607Y035043D01*
X036646Y034972D02*
X036493Y035126D01*
X036377Y034889D02*
X036377Y034736D01*
X036147Y034736D02*
X036607Y034736D01*
X036788Y034724D02*
X036865Y034570D01*
X037018Y034417D01*
X037018Y034647D01*
X037095Y034724D01*
X037172Y034724D01*
X037249Y034647D01*
X037249Y034493D01*
X037172Y034417D01*
X037018Y034417D01*
X036865Y034263D02*
X036788Y034187D01*
X036788Y034033D01*
X036865Y033956D01*
X037172Y033956D01*
X037249Y034033D01*
X037249Y034187D01*
X037172Y034263D01*
X036953Y033898D02*
X036493Y033898D01*
X036723Y033898D02*
X036723Y033591D01*
X036953Y033591D02*
X036493Y033591D01*
X036493Y033438D02*
X036493Y033131D01*
X036493Y033284D02*
X036953Y033284D01*
X037018Y033496D02*
X037018Y033803D01*
X036723Y034052D02*
X036723Y034358D01*
X036066Y034872D02*
X035989Y034872D01*
X035682Y035179D01*
X035605Y035179D01*
X035605Y034872D01*
X035426Y034736D02*
X035426Y035043D01*
X035196Y034889D02*
X035196Y034736D01*
X034966Y034736D02*
X035426Y034736D01*
X034966Y034736D02*
X034966Y035043D01*
X034966Y035196D02*
X034966Y035503D01*
X034966Y035350D02*
X035426Y035350D01*
X035426Y035657D02*
X034966Y035657D01*
X035196Y035657D02*
X035196Y035963D01*
X035196Y036117D02*
X035196Y036424D01*
X035273Y036577D02*
X035273Y036808D01*
X035196Y036884D01*
X035042Y036884D01*
X034966Y036808D01*
X034966Y036577D01*
X035426Y036577D01*
X035273Y036731D02*
X035426Y036884D01*
X035349Y037038D02*
X035426Y037114D01*
X035426Y037268D01*
X035349Y037345D01*
X035196Y037345D01*
X035119Y037268D01*
X035119Y037191D01*
X035196Y037038D01*
X034966Y037038D01*
X034966Y037345D01*
X036147Y037268D02*
X036377Y037038D01*
X036377Y037345D01*
X036607Y037268D02*
X036147Y037268D01*
X036224Y036884D02*
X036377Y036884D01*
X036454Y036808D01*
X036454Y036577D01*
X036607Y036577D02*
X036147Y036577D01*
X036147Y036808D01*
X036224Y036884D01*
X036454Y036731D02*
X036607Y036884D01*
X036377Y036424D02*
X036377Y036117D01*
X036377Y035963D02*
X036377Y035657D01*
X036607Y035657D02*
X036147Y035657D01*
X036147Y035963D02*
X036607Y035963D01*
X035426Y035963D02*
X034966Y035963D01*
X033016Y034907D02*
X033016Y034754D01*
X032939Y034677D01*
X032939Y034524D02*
X033016Y034447D01*
X033016Y034293D01*
X032939Y034217D01*
X032633Y034217D01*
X032556Y034293D01*
X032556Y034447D01*
X032633Y034524D01*
X032633Y034677D02*
X032556Y034754D01*
X032556Y034907D01*
X032633Y034984D01*
X032709Y034984D01*
X032786Y034907D01*
X032863Y034984D01*
X032939Y034984D01*
X033016Y034907D01*
X032786Y034907D02*
X032786Y034831D01*
X032786Y034063D02*
X032786Y033756D01*
X035591Y033803D02*
X035591Y033496D01*
X035605Y033798D02*
X036066Y033798D01*
X037306Y033322D02*
X037613Y033322D01*
X037767Y033322D02*
X037767Y033092D01*
X037920Y033168D01*
X037997Y033168D01*
X038073Y033092D01*
X038073Y032938D01*
X037997Y032861D01*
X037843Y032861D01*
X037767Y032938D01*
X037767Y033322D02*
X038073Y033322D01*
X038227Y033245D02*
X038227Y032938D01*
X038534Y033245D01*
X038534Y032938D01*
X038457Y032861D01*
X038304Y032861D01*
X038227Y032938D01*
X038380Y032887D02*
X038380Y033040D01*
X038457Y033117D01*
X038534Y033117D01*
X038610Y033040D01*
X038687Y033117D01*
X038764Y033117D01*
X038841Y033040D01*
X038841Y032887D01*
X038764Y032810D01*
X038764Y032861D02*
X038687Y032938D01*
X038994Y033245D01*
X038994Y032938D01*
X038918Y032861D01*
X038764Y032861D01*
X038687Y032938D02*
X038687Y033245D01*
X038764Y033322D01*
X038918Y033322D01*
X038994Y033245D01*
X039148Y033092D02*
X039455Y033092D01*
X039441Y032920D02*
X039364Y032843D01*
X039364Y032690D01*
X039441Y032613D01*
X039441Y032460D02*
X039364Y032383D01*
X039364Y032153D01*
X039825Y032153D01*
X039671Y032153D02*
X039671Y032383D01*
X039595Y032460D01*
X039441Y032460D01*
X039671Y032306D02*
X039825Y032460D01*
X039825Y032613D02*
X039518Y032920D01*
X039441Y032920D01*
X039608Y032938D02*
X039685Y032861D01*
X039838Y032861D01*
X039915Y032938D01*
X039825Y032920D02*
X039825Y032613D01*
X040068Y032861D02*
X040375Y032861D01*
X040222Y032861D02*
X040222Y033322D01*
X040068Y033168D01*
X039915Y033245D02*
X039838Y033322D01*
X039685Y033322D01*
X039608Y033245D01*
X039608Y032938D01*
X040152Y032767D02*
X040612Y032767D01*
X040529Y032861D02*
X040836Y033168D01*
X040836Y033245D01*
X040759Y033322D01*
X040606Y033322D01*
X040529Y033245D01*
X040612Y032920D02*
X040612Y032613D01*
X040612Y032460D02*
X040459Y032306D01*
X040459Y032383D02*
X040459Y032153D01*
X040612Y032153D02*
X040152Y032153D01*
X040152Y032383D01*
X040229Y032460D01*
X040382Y032460D01*
X040459Y032383D01*
X040305Y032613D02*
X040152Y032767D01*
X040529Y032861D02*
X040836Y032861D01*
X040382Y031999D02*
X040382Y031692D01*
X040382Y031539D02*
X040382Y031232D01*
X040612Y031232D02*
X040152Y031232D01*
X040152Y031079D02*
X040152Y030772D01*
X040152Y030925D02*
X040612Y030925D01*
X040612Y030618D02*
X040612Y030311D01*
X040152Y030311D01*
X040152Y030618D01*
X040382Y030465D02*
X040382Y030311D01*
X039825Y030311D02*
X039825Y030618D01*
X039595Y030465D02*
X039595Y030311D01*
X039825Y030311D02*
X039364Y030311D01*
X039364Y030618D01*
X039364Y030772D02*
X039364Y031079D01*
X039364Y031232D02*
X039825Y031232D01*
X039595Y031232D02*
X039595Y031539D01*
X039595Y031692D02*
X039595Y031999D01*
X039364Y031539D02*
X039825Y031539D01*
X040152Y031539D02*
X040612Y031539D01*
X039825Y030925D02*
X039364Y030925D01*
X038841Y030815D02*
X038841Y030508D01*
X038380Y030508D01*
X038380Y030815D01*
X038380Y030968D02*
X038380Y031275D01*
X038380Y031122D02*
X038841Y031122D01*
X038841Y031429D02*
X038380Y031429D01*
X038610Y031429D02*
X038610Y031736D01*
X038610Y031889D02*
X038610Y032196D01*
X038687Y032350D02*
X038687Y032580D01*
X038610Y032657D01*
X038457Y032657D01*
X038380Y032580D01*
X038380Y032350D01*
X038841Y032350D01*
X038687Y032503D02*
X038841Y032657D01*
X038610Y032963D02*
X038610Y033040D01*
X038534Y033245D02*
X038457Y033322D01*
X038304Y033322D01*
X038227Y033245D01*
X038380Y032887D02*
X038457Y032810D01*
X038380Y031736D02*
X038841Y031736D01*
X038610Y030661D02*
X038610Y030508D01*
X036009Y029245D02*
X035702Y029245D01*
X035702Y028785D02*
X036009Y028785D01*
X034673Y030213D02*
X034673Y030366D01*
X033200Y027217D02*
X033047Y027064D01*
X033200Y027217D02*
X033200Y026757D01*
X033047Y026757D02*
X033354Y026757D01*
X033694Y026693D02*
X033694Y026233D01*
X033621Y026430D02*
X033391Y026200D01*
X033238Y026353D02*
X033161Y026430D01*
X033007Y026430D01*
X032931Y026353D01*
X032931Y026046D01*
X033621Y025970D02*
X033621Y026430D01*
X036610Y026386D02*
X036764Y026233D01*
X036833Y026101D02*
X036910Y026025D01*
X036603Y025718D01*
X036679Y025641D01*
X036833Y025641D01*
X036910Y025718D01*
X036910Y026025D01*
X036833Y026101D02*
X036679Y026101D01*
X036603Y026025D01*
X036603Y025718D01*
X036664Y025593D02*
X036895Y025593D01*
X036971Y025517D01*
X036971Y025363D01*
X036895Y025286D01*
X036664Y025286D01*
X036664Y025133D02*
X036664Y025593D01*
X036818Y025286D02*
X036971Y025133D01*
X037125Y025133D02*
X037278Y025286D01*
X037432Y025133D01*
X037432Y025593D01*
X037370Y025718D02*
X037293Y025641D01*
X037140Y025641D01*
X037063Y025718D01*
X037370Y026025D01*
X037370Y025718D01*
X037524Y025871D02*
X037830Y025871D01*
X037984Y025718D02*
X038061Y025641D01*
X038214Y025641D01*
X038291Y025718D01*
X038353Y025593D02*
X038046Y025593D01*
X038046Y025363D01*
X038199Y025440D01*
X038276Y025440D01*
X038353Y025363D01*
X038353Y025210D01*
X038276Y025133D01*
X038122Y025133D01*
X038046Y025210D01*
X037892Y025210D02*
X037815Y025133D01*
X037662Y025133D01*
X037585Y025210D01*
X037585Y025363D02*
X037739Y025440D01*
X037815Y025440D01*
X037892Y025363D01*
X037892Y025210D01*
X037585Y025363D02*
X037585Y025593D01*
X037892Y025593D01*
X037984Y025718D02*
X037984Y026025D01*
X038061Y026101D01*
X038214Y026101D01*
X038291Y026025D01*
X038444Y026101D02*
X038444Y025871D01*
X038598Y025948D01*
X038675Y025948D01*
X038751Y025871D01*
X038751Y025718D01*
X038675Y025641D01*
X038521Y025641D01*
X038444Y025718D01*
X038583Y025593D02*
X038736Y025593D01*
X038813Y025517D01*
X038506Y025210D01*
X038583Y025133D01*
X038736Y025133D01*
X038813Y025210D01*
X038813Y025517D01*
X038966Y025517D02*
X039043Y025593D01*
X039197Y025593D01*
X039273Y025517D01*
X038966Y025210D01*
X039043Y025133D01*
X039197Y025133D01*
X039273Y025210D01*
X039273Y025517D01*
X039427Y025363D02*
X039734Y025363D01*
X039887Y025210D02*
X039964Y025133D01*
X040117Y025133D01*
X040194Y025210D01*
X040194Y025286D01*
X040117Y025363D01*
X040041Y025363D01*
X040117Y025363D02*
X040194Y025440D01*
X040194Y025517D01*
X040117Y025593D01*
X039964Y025593D01*
X039887Y025517D01*
X038966Y025517D02*
X038966Y025210D01*
X038506Y025210D02*
X038506Y025517D01*
X038583Y025593D01*
X038444Y026101D02*
X038751Y026101D01*
X037684Y026233D02*
X037378Y026233D01*
X037531Y026233D02*
X037531Y026693D01*
X037378Y026540D01*
X037224Y026233D02*
X036917Y026233D01*
X037071Y026233D02*
X037071Y026693D01*
X036917Y026540D01*
X037140Y026101D02*
X037293Y026101D01*
X037370Y026025D01*
X037140Y026101D02*
X037063Y026025D01*
X037063Y025718D01*
X037125Y025593D02*
X037125Y025133D01*
X041200Y024602D02*
X041276Y024678D01*
X041353Y024678D01*
X041430Y024602D01*
X041506Y024678D01*
X041583Y024678D01*
X041660Y024602D01*
X041660Y024448D01*
X041583Y024371D01*
X041660Y024218D02*
X041660Y023911D01*
X041660Y024064D02*
X041200Y024064D01*
X041353Y023911D01*
X041276Y023758D02*
X041200Y023681D01*
X041200Y023527D01*
X041276Y023451D01*
X041353Y023451D01*
X041430Y023527D01*
X041430Y023681D01*
X041506Y023758D01*
X041583Y023758D01*
X041660Y023681D01*
X041660Y023527D01*
X041583Y023451D01*
X041583Y023297D02*
X041200Y023297D01*
X041200Y022990D02*
X041583Y022990D01*
X041660Y023067D01*
X041660Y023220D01*
X041583Y023297D01*
X041737Y023604D02*
X041123Y023604D01*
X041276Y024371D02*
X041200Y024448D01*
X041200Y024602D01*
X041430Y024602D02*
X041430Y024525D01*
X038347Y019926D02*
X038347Y019619D01*
X038040Y019926D01*
X037963Y019926D01*
X037887Y019850D01*
X037887Y019696D01*
X037963Y019619D01*
X037887Y019313D02*
X038347Y019313D01*
X038347Y019466D02*
X038347Y019159D01*
X038270Y019006D02*
X038347Y018929D01*
X038347Y018775D01*
X038270Y018699D01*
X037963Y018699D01*
X037887Y018775D01*
X037887Y018929D01*
X037963Y019006D01*
X038040Y019159D02*
X037887Y019313D01*
X038117Y018545D02*
X038117Y018238D01*
X037887Y018085D02*
X038347Y018085D01*
X038347Y017778D02*
X037887Y017778D01*
X038040Y017931D01*
X037887Y018085D01*
X037887Y017624D02*
X037887Y017317D01*
X037887Y017471D02*
X038347Y017471D01*
X038270Y017164D02*
X038347Y017087D01*
X038347Y016934D01*
X038270Y016857D01*
X038117Y016934D02*
X038117Y017087D01*
X038193Y017164D01*
X038270Y017164D01*
X038117Y016934D02*
X038040Y016857D01*
X037963Y016857D01*
X037887Y016934D01*
X037887Y017087D01*
X037963Y017164D01*
X028696Y028741D02*
X028543Y028741D01*
X028466Y028818D01*
X028312Y028818D02*
X028236Y028741D01*
X028082Y028741D01*
X028005Y028818D01*
X028005Y029125D01*
X028082Y029202D01*
X028236Y029202D01*
X028312Y029125D01*
X028466Y029125D02*
X028543Y029202D01*
X028696Y029202D01*
X028773Y029125D01*
X028773Y029048D01*
X028696Y028971D01*
X028773Y028895D01*
X028773Y028818D01*
X028696Y028741D01*
X028696Y028971D02*
X028619Y028971D01*
X027852Y028971D02*
X027545Y028971D01*
X027392Y028818D02*
X027392Y029125D01*
X027085Y028818D01*
X027161Y028741D01*
X027315Y028741D01*
X027392Y028818D01*
X027392Y029125D02*
X027315Y029202D01*
X027161Y029202D01*
X027085Y029125D01*
X027085Y028818D01*
X026931Y028818D02*
X026854Y028741D01*
X026701Y028741D01*
X026624Y028818D01*
X026931Y029125D01*
X026931Y028818D01*
X026624Y028818D02*
X026624Y029125D01*
X026701Y029202D01*
X026854Y029202D01*
X026931Y029125D01*
X026471Y029125D02*
X026471Y028818D01*
X026394Y028741D01*
X026241Y028741D01*
X026164Y028818D01*
X026241Y028971D02*
X026471Y028971D01*
X026471Y029125D02*
X026394Y029202D01*
X026241Y029202D01*
X026164Y029125D01*
X026164Y029048D01*
X026241Y028971D01*
X026010Y028741D02*
X026010Y029202D01*
X025857Y029048D01*
X025703Y029202D01*
X025703Y028741D01*
X025550Y028741D02*
X025397Y028741D01*
X025473Y028741D02*
X025473Y029202D01*
X025397Y029202D02*
X025550Y029202D01*
X025243Y029125D02*
X025166Y029202D01*
X025013Y029202D01*
X024936Y029125D01*
X024936Y029048D01*
X025013Y028971D01*
X025166Y028971D01*
X025243Y028895D01*
X025243Y028818D01*
X025166Y028741D01*
X025013Y028741D01*
X024936Y028818D01*
X022962Y026889D02*
X022962Y026428D01*
X022809Y026428D02*
X023116Y026428D01*
X022809Y026735D02*
X022962Y026889D01*
X022656Y026812D02*
X022579Y026889D01*
X022425Y026889D01*
X022349Y026812D01*
X022349Y026505D01*
X022425Y026428D01*
X022579Y026428D01*
X022656Y026505D01*
X022195Y026658D02*
X021888Y026658D01*
X021735Y026582D02*
X021735Y026505D01*
X021658Y026428D01*
X021505Y026428D01*
X021428Y026505D01*
X021505Y026658D02*
X021658Y026658D01*
X021735Y026582D01*
X021735Y026812D02*
X021658Y026889D01*
X021505Y026889D01*
X021428Y026812D01*
X021428Y026735D01*
X021505Y026658D01*
X021274Y026812D02*
X021274Y026889D01*
X021274Y026812D02*
X021121Y026658D01*
X021121Y026428D01*
X021121Y026658D02*
X020967Y026812D01*
X020967Y026889D01*
X020814Y026812D02*
X020737Y026889D01*
X020584Y026889D01*
X020507Y026812D01*
X020507Y026735D01*
X020584Y026658D01*
X020737Y026658D01*
X020814Y026582D01*
X020814Y026505D01*
X020737Y026428D01*
X020584Y026428D01*
X020507Y026505D01*
X020503Y027515D02*
X020503Y027976D01*
X020349Y027899D02*
X020272Y027976D01*
X020042Y027976D01*
X020042Y027515D01*
X020272Y027515D01*
X020349Y027592D01*
X020349Y027899D01*
X020503Y027746D02*
X020809Y027746D01*
X020809Y027976D02*
X020809Y027515D01*
X021116Y027515D02*
X021116Y027976D01*
X020963Y027976D02*
X021270Y027976D01*
X021423Y027822D02*
X021577Y027976D01*
X021577Y027515D01*
X021730Y027515D02*
X021423Y027515D01*
X021884Y027515D02*
X022191Y027515D01*
X022037Y027515D02*
X022037Y027976D01*
X021884Y027822D01*
X021939Y024576D02*
X021786Y024576D01*
X021709Y024499D01*
X021709Y024192D01*
X021786Y024115D01*
X021939Y024115D01*
X022016Y024192D01*
X022169Y024115D02*
X022476Y024422D01*
X022476Y024499D01*
X022399Y024576D01*
X022246Y024576D01*
X022169Y024499D01*
X022016Y024499D02*
X021939Y024576D01*
X021555Y024345D02*
X021248Y024345D01*
X021095Y024269D02*
X021018Y024345D01*
X020865Y024345D01*
X020788Y024422D01*
X020788Y024499D01*
X020865Y024576D01*
X021018Y024576D01*
X021095Y024499D01*
X021095Y024269D02*
X021095Y024192D01*
X021018Y024115D01*
X020865Y024115D01*
X020788Y024192D01*
X020481Y024115D02*
X020481Y024345D01*
X020635Y024499D01*
X020635Y024576D01*
X020481Y024345D02*
X020328Y024499D01*
X020328Y024576D01*
X020174Y024499D02*
X020097Y024576D01*
X019944Y024576D01*
X019867Y024499D01*
X019867Y024422D01*
X019944Y024345D01*
X020097Y024345D01*
X020174Y024269D01*
X020174Y024192D01*
X020097Y024115D01*
X019944Y024115D01*
X019867Y024192D01*
X022169Y024115D02*
X022476Y024115D01*
X018002Y027497D02*
X017926Y027574D01*
X017926Y027881D01*
X017849Y027804D02*
X018002Y027804D01*
X017695Y027804D02*
X017695Y027497D01*
X017465Y027497D01*
X017388Y027574D01*
X017388Y027804D01*
X017235Y027727D02*
X017158Y027804D01*
X017005Y027804D01*
X016928Y027727D01*
X016928Y027574D01*
X017005Y027497D01*
X017158Y027497D01*
X017235Y027574D01*
X017235Y027727D01*
X016775Y027651D02*
X016775Y027958D01*
X016468Y027958D02*
X016468Y027651D01*
X016621Y027497D01*
X016775Y027651D01*
X016737Y030907D02*
X016814Y030983D01*
X016814Y031137D01*
X016660Y031137D01*
X016507Y031290D02*
X016507Y030983D01*
X016584Y030907D01*
X016737Y030907D01*
X016967Y030907D02*
X016967Y031214D01*
X017198Y031214D01*
X017274Y031137D01*
X017274Y030907D01*
X017428Y030983D02*
X017428Y031137D01*
X017505Y031214D01*
X017735Y031214D01*
X017735Y031367D02*
X017735Y030907D01*
X017505Y030907D01*
X017428Y030983D01*
X016814Y031290D02*
X016737Y031367D01*
X016584Y031367D01*
X016507Y031290D01*
X012699Y031253D02*
X012469Y031253D01*
X012392Y031176D01*
X012392Y031023D01*
X012469Y030946D01*
X012699Y030946D01*
X012699Y031406D01*
X012239Y031176D02*
X012239Y030946D01*
X012239Y031176D02*
X012162Y031253D01*
X011932Y031253D01*
X011932Y030946D01*
X011779Y031023D02*
X011779Y031176D01*
X011625Y031176D01*
X011472Y031023D02*
X011472Y031330D01*
X011548Y031406D01*
X011702Y031406D01*
X011779Y031330D01*
X011779Y031023D02*
X011702Y030946D01*
X011548Y030946D01*
X011472Y031023D01*
X011458Y031879D02*
X011304Y031879D01*
X011227Y031956D01*
X011227Y032339D01*
X011534Y032339D02*
X011534Y031956D01*
X011458Y031879D01*
X011688Y031956D02*
X011765Y031879D01*
X011918Y031879D01*
X011995Y031956D01*
X011995Y032033D01*
X011918Y032109D01*
X011765Y032109D01*
X011688Y032186D01*
X011688Y032263D01*
X011765Y032339D01*
X011918Y032339D01*
X011995Y032263D01*
X011841Y032416D02*
X011841Y031802D01*
X012148Y031956D02*
X012225Y031879D01*
X012378Y031879D01*
X012455Y031956D01*
X012455Y032033D01*
X012378Y032109D01*
X012148Y032109D01*
X012148Y031956D01*
X012148Y032109D02*
X012302Y032263D01*
X012455Y032339D01*
X011034Y032987D02*
X011034Y033141D01*
X010957Y033217D01*
X010574Y033217D01*
X010650Y033371D02*
X010574Y033448D01*
X010574Y033601D01*
X010650Y033678D01*
X010650Y033831D02*
X010727Y033831D01*
X010804Y033908D01*
X010804Y034062D01*
X010880Y034138D01*
X010957Y034138D01*
X011034Y034062D01*
X011034Y033908D01*
X010957Y033831D01*
X010880Y033831D01*
X010804Y033908D01*
X010804Y034062D02*
X010727Y034138D01*
X010650Y034138D01*
X010574Y034062D01*
X010574Y033908D01*
X010650Y033831D01*
X010804Y033601D02*
X010804Y033448D01*
X010727Y033371D01*
X010650Y033371D01*
X010497Y033524D02*
X011111Y033524D01*
X011034Y033448D02*
X011034Y033601D01*
X010957Y033678D01*
X010880Y033678D01*
X010804Y033601D01*
X010957Y033371D02*
X011034Y033448D01*
X011034Y032987D02*
X010957Y032911D01*
X010574Y032911D01*
X011511Y027958D02*
X011511Y027651D01*
X011664Y027497D01*
X011818Y027651D01*
X011818Y027958D01*
X011971Y027804D02*
X012048Y027804D01*
X012048Y027497D01*
X011971Y027497D02*
X012125Y027497D01*
X012278Y027497D02*
X012278Y027804D01*
X012508Y027804D01*
X012585Y027727D01*
X012585Y027497D01*
X012048Y027958D02*
X012048Y028034D01*
X006920Y024361D02*
X006920Y024054D01*
X006843Y023977D01*
X006690Y023977D01*
X006613Y024054D01*
X006459Y024054D02*
X006459Y024131D01*
X006383Y024208D01*
X006229Y024208D01*
X006152Y024284D01*
X006152Y024361D01*
X006229Y024438D01*
X006383Y024438D01*
X006459Y024361D01*
X006613Y024361D02*
X006613Y024284D01*
X006690Y024208D01*
X006920Y024208D01*
X006920Y024361D02*
X006843Y024438D01*
X006690Y024438D01*
X006613Y024361D01*
X006459Y024054D02*
X006383Y023977D01*
X006229Y023977D01*
X006152Y024054D01*
X005999Y024054D02*
X005999Y024438D01*
X005692Y024438D02*
X005692Y024054D01*
X005769Y023977D01*
X005922Y023977D01*
X005999Y024054D01*
X006306Y023901D02*
X006306Y024515D01*
X003522Y024967D02*
X002908Y024967D01*
X002985Y024891D02*
X002985Y025044D01*
X003062Y025121D01*
X003062Y025274D02*
X002985Y025351D01*
X002985Y025504D01*
X003062Y025581D01*
X003138Y025581D01*
X003215Y025504D01*
X003292Y025581D01*
X003369Y025581D01*
X003445Y025504D01*
X003445Y025351D01*
X003369Y025274D01*
X003369Y025121D02*
X003292Y025121D01*
X003215Y025044D01*
X003215Y024891D01*
X003138Y024814D01*
X003062Y024814D01*
X002985Y024891D01*
X002985Y024660D02*
X003369Y024660D01*
X003445Y024584D01*
X003445Y024430D01*
X003369Y024353D01*
X002985Y024353D01*
X003369Y024814D02*
X003445Y024891D01*
X003445Y025044D01*
X003369Y025121D01*
X003215Y025428D02*
X003215Y025504D01*
X005692Y016859D02*
X005692Y016475D01*
X005769Y016399D01*
X005922Y016399D01*
X005999Y016475D01*
X005999Y016859D01*
X006152Y016782D02*
X006229Y016859D01*
X006383Y016859D01*
X006459Y016782D01*
X006383Y016629D02*
X006229Y016629D01*
X006152Y016706D01*
X006152Y016782D01*
X006306Y016936D02*
X006306Y016322D01*
X006383Y016399D02*
X006459Y016475D01*
X006459Y016552D01*
X006383Y016629D01*
X006383Y016399D02*
X006229Y016399D01*
X006152Y016475D01*
X006613Y016399D02*
X006920Y016399D01*
X006766Y016399D02*
X006766Y016859D01*
X006613Y016706D01*
X007073Y016782D02*
X007073Y016475D01*
X007380Y016782D01*
X007380Y016475D01*
X007303Y016399D01*
X007150Y016399D01*
X007073Y016475D01*
X007073Y016782D02*
X007150Y016859D01*
X007303Y016859D01*
X007380Y016782D01*
X016611Y015342D02*
X017071Y015342D01*
X017071Y015189D02*
X017071Y015496D01*
X016764Y015189D02*
X016611Y015342D01*
X016688Y015035D02*
X016611Y014959D01*
X016611Y014805D01*
X016688Y014728D01*
X016995Y014728D01*
X017071Y014805D01*
X017071Y014959D01*
X016995Y015035D01*
X016841Y014575D02*
X016841Y014268D01*
X016611Y014115D02*
X016611Y013808D01*
X017071Y013808D01*
X017071Y014115D01*
X016841Y013961D02*
X016841Y013808D01*
X016688Y013654D02*
X016611Y013578D01*
X016611Y013347D01*
X017071Y013347D01*
X017071Y013578D01*
X016995Y013654D01*
X016688Y013654D01*
X016764Y013194D02*
X017071Y013194D01*
X016841Y013194D02*
X016841Y012887D01*
X016764Y012887D02*
X017071Y012887D01*
X016764Y012887D02*
X016611Y013040D01*
X016764Y013194D01*
X022786Y037507D02*
X022863Y037507D01*
X022940Y037584D01*
X022940Y037737D01*
X023016Y037814D01*
X023093Y037814D01*
X023170Y037737D01*
X023170Y037584D01*
X023093Y037507D01*
X022786Y037507D02*
X022709Y037584D01*
X022709Y037737D01*
X022786Y037814D01*
X022709Y037967D02*
X022709Y038121D01*
X022709Y038044D02*
X023170Y038044D01*
X023170Y037967D02*
X023170Y038121D01*
X023170Y038274D02*
X022709Y038274D01*
X022863Y038428D01*
X022709Y038581D01*
X023170Y038581D01*
X023093Y038735D02*
X023170Y038812D01*
X023170Y038965D01*
X023093Y039042D01*
X022786Y039042D01*
X022709Y038965D01*
X022709Y038812D01*
X022786Y038735D01*
X022863Y038735D01*
X022940Y038812D01*
X022940Y039042D01*
X023093Y039195D02*
X022786Y039195D01*
X022709Y039272D01*
X022709Y039425D01*
X022786Y039502D01*
X023093Y039195D01*
X023170Y039272D01*
X023170Y039425D01*
X023093Y039502D01*
X022786Y039502D01*
X022786Y039656D02*
X022709Y039732D01*
X022709Y039886D01*
X022786Y039963D01*
X023093Y039656D01*
X023170Y039732D01*
X023170Y039886D01*
X023093Y039963D01*
X022786Y039963D01*
X022940Y040116D02*
X022940Y040423D01*
X023016Y040576D02*
X023016Y040807D01*
X022940Y040883D01*
X022786Y040883D01*
X022709Y040807D01*
X022709Y040576D01*
X023170Y040576D01*
X023016Y040730D02*
X023170Y040883D01*
X023093Y041037D02*
X023170Y041113D01*
X023170Y041267D01*
X023093Y041344D01*
X022940Y041344D01*
X022863Y041267D01*
X022863Y041190D01*
X022940Y041037D01*
X022709Y041037D01*
X022709Y041344D01*
X022786Y039656D02*
X023093Y039656D01*
X020430Y040383D02*
X020123Y040383D01*
X020354Y040613D01*
X020354Y040153D01*
X019970Y040153D02*
X019816Y040306D01*
X019893Y040306D02*
X019663Y040306D01*
X019663Y040153D02*
X019663Y040613D01*
X019893Y040613D01*
X019970Y040536D01*
X019970Y040383D01*
X019893Y040306D01*
X019510Y040383D02*
X019203Y040383D01*
X019049Y040536D02*
X018742Y040229D01*
X018819Y040153D01*
X018972Y040153D01*
X019049Y040229D01*
X019049Y040536D01*
X018972Y040613D01*
X018819Y040613D01*
X018742Y040536D01*
X018742Y040229D01*
X018589Y040229D02*
X018512Y040153D01*
X018359Y040153D01*
X018282Y040229D01*
X018589Y040536D01*
X018589Y040229D01*
X018282Y040229D02*
X018282Y040536D01*
X018359Y040613D01*
X018512Y040613D01*
X018589Y040536D01*
X018128Y040536D02*
X018128Y040229D01*
X018052Y040153D01*
X017898Y040153D01*
X017821Y040229D01*
X017668Y040153D02*
X017668Y040613D01*
X017514Y040460D01*
X017361Y040613D01*
X017361Y040153D01*
X017208Y040153D02*
X017054Y040153D01*
X017131Y040153D02*
X017131Y040613D01*
X017054Y040613D02*
X017208Y040613D01*
X016901Y040536D02*
X016824Y040613D01*
X016670Y040613D01*
X016594Y040536D01*
X016594Y040460D01*
X016670Y040383D01*
X016824Y040383D01*
X016901Y040306D01*
X016901Y040229D01*
X016824Y040153D01*
X016670Y040153D01*
X016594Y040229D01*
X017821Y040460D02*
X017898Y040383D01*
X018128Y040383D01*
X018128Y040536D02*
X018052Y040613D01*
X017898Y040613D01*
X017821Y040536D01*
X017821Y040460D01*
X028289Y039544D02*
X028289Y039467D01*
X028365Y039391D01*
X028519Y039391D01*
X028596Y039314D01*
X028596Y039237D01*
X028519Y039161D01*
X028365Y039161D01*
X028289Y039237D01*
X028289Y039544D02*
X028365Y039621D01*
X028519Y039621D01*
X028596Y039544D01*
X028749Y039621D02*
X028902Y039621D01*
X028826Y039621D02*
X028826Y039161D01*
X028902Y039161D02*
X028749Y039161D01*
X029056Y039161D02*
X029056Y039621D01*
X029209Y039467D01*
X029363Y039621D01*
X029363Y039161D01*
X029516Y039237D02*
X029593Y039161D01*
X029746Y039161D01*
X029823Y039237D01*
X029823Y039544D01*
X029746Y039621D01*
X029593Y039621D01*
X029516Y039544D01*
X029516Y039467D01*
X029593Y039391D01*
X029823Y039391D01*
X029977Y039237D02*
X029977Y039544D01*
X030053Y039621D01*
X030207Y039621D01*
X030284Y039544D01*
X029977Y039237D01*
X030053Y039161D01*
X030207Y039161D01*
X030284Y039237D01*
X030284Y039544D01*
X030437Y039544D02*
X030514Y039621D01*
X030667Y039621D01*
X030744Y039544D01*
X030437Y039237D01*
X030514Y039161D01*
X030667Y039161D01*
X030744Y039237D01*
X030744Y039544D01*
X030897Y039391D02*
X031204Y039391D01*
X031358Y039544D02*
X031358Y039237D01*
X031435Y039161D01*
X031588Y039161D01*
X031665Y039237D01*
X031818Y039161D02*
X032125Y039161D01*
X031972Y039161D02*
X031972Y039621D01*
X031818Y039467D01*
X031665Y039544D02*
X031588Y039621D01*
X031435Y039621D01*
X031358Y039544D01*
X030437Y039544D02*
X030437Y039237D01*
D12*
X017678Y024938D02*
X017654Y024938D01*
X016930Y024977D02*
X016906Y024977D01*
X015060Y025095D02*
X015036Y025095D01*
X014292Y025095D02*
X014268Y025095D01*
X012639Y025105D02*
X012615Y025105D01*
X011979Y025115D02*
X011955Y025115D01*
D13*
X011777Y025143D02*
X011727Y025093D01*
X011727Y025118D02*
X011727Y025043D01*
X011687Y025065D02*
X011687Y025165D01*
X011702Y025143D02*
X011727Y025118D01*
X011702Y025143D02*
X011652Y025143D01*
X011627Y025118D01*
X011627Y025043D01*
X011777Y025043D01*
X011702Y024996D02*
X011702Y024895D01*
X011687Y024917D02*
X011687Y024992D01*
X011662Y025017D01*
X011562Y025017D01*
X011537Y024992D01*
X011537Y024917D01*
X011687Y024917D01*
X011687Y024870D02*
X011587Y024870D01*
X011537Y024820D01*
X011587Y024770D01*
X011687Y024770D01*
X011702Y024748D02*
X011702Y024798D01*
X011627Y024748D02*
X011777Y024748D01*
X011777Y024848D01*
X011752Y024701D02*
X011652Y024701D01*
X011627Y024676D01*
X011627Y024601D01*
X011777Y024601D01*
X011777Y024676D01*
X011752Y024701D01*
X011627Y024748D02*
X011627Y024848D01*
X011612Y024870D02*
X011612Y024770D01*
X011677Y024554D02*
X011777Y024554D01*
X011702Y024554D02*
X011702Y024453D01*
X011677Y024453D02*
X011627Y024503D01*
X011677Y024554D01*
X011677Y024453D02*
X011777Y024453D01*
X012197Y024810D02*
X012247Y024860D01*
X012347Y024860D01*
X012347Y024907D02*
X012347Y024983D01*
X012322Y025008D01*
X012222Y025008D01*
X012197Y024983D01*
X012197Y024907D01*
X012347Y024907D01*
X012272Y024860D02*
X012272Y024760D01*
X012247Y024760D02*
X012197Y024810D01*
X012247Y024760D02*
X012347Y024760D01*
X012347Y025055D02*
X012347Y025155D01*
X012272Y025202D02*
X012272Y025302D01*
X012322Y025349D02*
X012347Y025374D01*
X012347Y025424D01*
X012322Y025450D01*
X012347Y025497D02*
X012347Y025597D01*
X012347Y025547D02*
X012197Y025547D01*
X012247Y025497D01*
X012222Y025450D02*
X012197Y025424D01*
X012197Y025374D01*
X012222Y025349D01*
X012322Y025349D01*
X012197Y025155D02*
X012197Y025055D01*
X012347Y025055D01*
X012272Y025055D02*
X012272Y025105D01*
X011777Y025190D02*
X011777Y025290D01*
X011777Y025240D02*
X011627Y025240D01*
X011677Y025190D01*
X011612Y025212D02*
X011612Y025312D01*
X011562Y025359D02*
X011662Y025359D01*
X011687Y025384D01*
X011687Y025434D01*
X011662Y025459D01*
X011627Y025437D02*
X011652Y025387D01*
X011702Y025337D01*
X011702Y025412D01*
X011727Y025437D01*
X011752Y025437D01*
X011777Y025412D01*
X011777Y025362D01*
X011752Y025337D01*
X011702Y025337D01*
X011562Y025359D02*
X011537Y025384D01*
X011537Y025434D01*
X011562Y025459D01*
X011587Y025507D02*
X011537Y025557D01*
X011687Y025557D01*
X011687Y025507D02*
X011687Y025607D01*
X011662Y025654D02*
X011687Y025679D01*
X011687Y025729D01*
X011662Y025754D01*
X011637Y025754D01*
X011612Y025729D01*
X011612Y025654D01*
X011662Y025654D01*
X011612Y025654D02*
X011562Y025704D01*
X011537Y025754D01*
X012016Y026256D02*
X012016Y026356D01*
X012066Y026406D01*
X012116Y026356D01*
X012116Y026256D01*
X012163Y026256D02*
X012238Y026256D01*
X012263Y026281D01*
X012263Y026381D01*
X012238Y026406D01*
X012163Y026406D01*
X012163Y026256D01*
X012116Y026331D02*
X012016Y026331D01*
X012311Y026331D02*
X012361Y026331D01*
X012311Y026256D02*
X012411Y026256D01*
X012458Y026331D02*
X012558Y026331D01*
X012605Y026306D02*
X012680Y026306D01*
X012705Y026331D01*
X012705Y026381D01*
X012680Y026406D01*
X012605Y026406D01*
X012605Y026256D01*
X012655Y026306D02*
X012705Y026256D01*
X012753Y026256D02*
X012853Y026256D01*
X012803Y026256D02*
X012803Y026406D01*
X012753Y026356D01*
X012900Y026331D02*
X013000Y026331D01*
X012975Y026256D02*
X012975Y026406D01*
X012900Y026331D01*
X012411Y026406D02*
X012311Y026406D01*
X012311Y026256D01*
X012322Y025744D02*
X012347Y025719D01*
X012347Y025669D01*
X012322Y025644D01*
X012272Y025644D02*
X012247Y025694D01*
X012247Y025719D01*
X012272Y025744D01*
X012322Y025744D01*
X012272Y025644D02*
X012197Y025644D01*
X012197Y025744D01*
X011687Y025065D02*
X011537Y025065D01*
X011537Y025165D01*
X011612Y025115D02*
X011612Y025065D01*
X013566Y025093D02*
X013591Y025118D01*
X013641Y025118D01*
X013666Y025093D01*
X013666Y025018D01*
X013666Y025068D02*
X013716Y025118D01*
X013716Y025165D02*
X013716Y025266D01*
X013716Y025216D02*
X013566Y025216D01*
X013616Y025165D01*
X013566Y025093D02*
X013566Y025018D01*
X013716Y025018D01*
X013641Y024971D02*
X013641Y024871D01*
X013566Y024824D02*
X013566Y024723D01*
X013716Y024723D01*
X013716Y024824D01*
X013641Y024774D02*
X013641Y024723D01*
X013591Y024676D02*
X013566Y024651D01*
X013566Y024576D01*
X013716Y024576D01*
X013716Y024651D01*
X013691Y024676D01*
X013591Y024676D01*
X013616Y024529D02*
X013716Y024529D01*
X013641Y024529D02*
X013641Y024429D01*
X013616Y024429D02*
X013566Y024479D01*
X013616Y024529D01*
X013616Y024429D02*
X013716Y024429D01*
X013900Y024750D02*
X013850Y024800D01*
X013900Y024850D01*
X014000Y024850D01*
X014000Y024898D02*
X014000Y024973D01*
X013975Y024998D01*
X013875Y024998D01*
X013850Y024973D01*
X013850Y024898D01*
X014000Y024898D01*
X013925Y024850D02*
X013925Y024750D01*
X013900Y024750D02*
X014000Y024750D01*
X014000Y025045D02*
X014000Y025145D01*
X013925Y025192D02*
X013925Y025292D01*
X013875Y025340D02*
X013975Y025340D01*
X014000Y025365D01*
X014000Y025415D01*
X013975Y025440D01*
X014000Y025487D02*
X014000Y025587D01*
X014000Y025537D02*
X013850Y025537D01*
X013900Y025487D01*
X013875Y025440D02*
X013850Y025415D01*
X013850Y025365D01*
X013875Y025340D01*
X013716Y025338D02*
X013691Y025313D01*
X013716Y025338D02*
X013716Y025388D01*
X013691Y025413D01*
X013641Y025413D01*
X013616Y025388D01*
X013616Y025363D01*
X013641Y025313D01*
X013566Y025313D01*
X013566Y025413D01*
X013850Y025145D02*
X013850Y025045D01*
X014000Y025045D01*
X013925Y025045D02*
X013925Y025095D01*
X013925Y025634D02*
X013925Y025734D01*
X013968Y025797D02*
X013968Y025897D01*
X014018Y025947D01*
X014068Y025897D01*
X014068Y025797D01*
X014116Y025797D02*
X014191Y025797D01*
X014216Y025822D01*
X014216Y025922D01*
X014191Y025947D01*
X014116Y025947D01*
X014116Y025797D01*
X014068Y025872D02*
X013968Y025872D01*
X014000Y025709D02*
X013850Y025709D01*
X013925Y025634D01*
X014263Y025797D02*
X014363Y025797D01*
X014410Y025872D02*
X014510Y025872D01*
X014558Y025847D02*
X014633Y025847D01*
X014658Y025872D01*
X014658Y025922D01*
X014633Y025947D01*
X014558Y025947D01*
X014558Y025797D01*
X014608Y025847D02*
X014658Y025797D01*
X014705Y025797D02*
X014805Y025797D01*
X014755Y025797D02*
X014755Y025947D01*
X014705Y025897D01*
X014852Y025922D02*
X014877Y025947D01*
X014927Y025947D01*
X014952Y025922D01*
X014952Y025897D01*
X014927Y025872D01*
X014952Y025847D01*
X014952Y025822D01*
X014927Y025797D01*
X014877Y025797D01*
X014852Y025822D01*
X014902Y025872D02*
X014927Y025872D01*
X014768Y025709D02*
X014768Y025659D01*
X014743Y025634D01*
X014768Y025587D02*
X014768Y025487D01*
X014768Y025537D02*
X014618Y025537D01*
X014668Y025487D01*
X014643Y025440D02*
X014618Y025415D01*
X014618Y025365D01*
X014643Y025340D01*
X014743Y025340D01*
X014768Y025365D01*
X014768Y025415D01*
X014743Y025440D01*
X014693Y025292D02*
X014693Y025192D01*
X014768Y025145D02*
X014768Y025045D01*
X014618Y025045D01*
X014618Y025145D01*
X014693Y025095D02*
X014693Y025045D01*
X014743Y024998D02*
X014643Y024998D01*
X014618Y024973D01*
X014618Y024898D01*
X014768Y024898D01*
X014768Y024973D01*
X014743Y024998D01*
X014768Y024850D02*
X014668Y024850D01*
X014618Y024800D01*
X014668Y024750D01*
X014768Y024750D01*
X014693Y024750D02*
X014693Y024850D01*
X014643Y025634D02*
X014618Y025659D01*
X014618Y025709D01*
X014643Y025734D01*
X014668Y025734D01*
X014693Y025709D01*
X014718Y025734D01*
X014743Y025734D01*
X014768Y025709D01*
X014693Y025709D02*
X014693Y025684D01*
X014363Y025947D02*
X014263Y025947D01*
X014263Y025797D01*
X014263Y025872D02*
X014313Y025872D01*
X014343Y026427D02*
X014243Y026427D01*
X014243Y026577D01*
X014343Y026577D01*
X014390Y026502D02*
X014491Y026502D01*
X014538Y026477D02*
X014613Y026477D01*
X014638Y026502D01*
X014638Y026552D01*
X014613Y026577D01*
X014538Y026577D01*
X014538Y026427D01*
X014588Y026477D02*
X014638Y026427D01*
X014685Y026427D02*
X014785Y026427D01*
X014832Y026427D02*
X014933Y026427D01*
X014883Y026427D02*
X014883Y026577D01*
X014832Y026527D01*
X014735Y026577D02*
X014735Y026427D01*
X014685Y026527D02*
X014735Y026577D01*
X014293Y026502D02*
X014243Y026502D01*
X014196Y026452D02*
X014196Y026552D01*
X014171Y026577D01*
X014096Y026577D01*
X014096Y026427D01*
X014171Y026427D01*
X014196Y026452D01*
X014049Y026427D02*
X014049Y026527D01*
X013999Y026577D01*
X013949Y026527D01*
X013949Y026427D01*
X013949Y026502D02*
X014049Y026502D01*
X016075Y025533D02*
X016125Y025583D01*
X016175Y025533D01*
X016175Y025433D01*
X016146Y025403D02*
X016121Y025403D01*
X016096Y025378D01*
X016096Y025328D01*
X016121Y025303D01*
X016096Y025206D02*
X016246Y025206D01*
X016246Y025156D02*
X016246Y025256D01*
X016246Y025303D02*
X016146Y025403D01*
X016075Y025433D02*
X016075Y025533D01*
X016075Y025508D02*
X016175Y025508D01*
X016222Y025433D02*
X016297Y025433D01*
X016322Y025458D01*
X016322Y025558D01*
X016297Y025583D01*
X016222Y025583D01*
X016222Y025433D01*
X016246Y025403D02*
X016246Y025303D01*
X016146Y025156D02*
X016096Y025206D01*
X016121Y025108D02*
X016171Y025108D01*
X016196Y025083D01*
X016196Y025008D01*
X016246Y025008D02*
X016096Y025008D01*
X016096Y025083D01*
X016121Y025108D01*
X016196Y025058D02*
X016246Y025108D01*
X016171Y024961D02*
X016171Y024861D01*
X016246Y024814D02*
X016246Y024714D01*
X016096Y024714D01*
X016096Y024814D01*
X016171Y024764D02*
X016171Y024714D01*
X016221Y024666D02*
X016121Y024666D01*
X016096Y024641D01*
X016096Y024566D01*
X016246Y024566D01*
X016246Y024641D01*
X016221Y024666D01*
X016246Y024519D02*
X016146Y024519D01*
X016096Y024469D01*
X016146Y024419D01*
X016246Y024419D01*
X016171Y024419D02*
X016171Y024519D01*
X016488Y024682D02*
X016538Y024732D01*
X016638Y024732D01*
X016638Y024779D02*
X016638Y024855D01*
X016613Y024880D01*
X016513Y024880D01*
X016488Y024855D01*
X016488Y024779D01*
X016638Y024779D01*
X016563Y024732D02*
X016563Y024632D01*
X016538Y024632D02*
X016488Y024682D01*
X016538Y024632D02*
X016638Y024632D01*
X016638Y024927D02*
X016638Y025027D01*
X016563Y025074D02*
X016563Y025174D01*
X016513Y025221D02*
X016613Y025221D01*
X016638Y025246D01*
X016638Y025297D01*
X016613Y025322D01*
X016638Y025369D02*
X016638Y025469D01*
X016664Y025483D02*
X016739Y025483D01*
X016764Y025508D01*
X016764Y025558D01*
X016739Y025583D01*
X016664Y025583D01*
X016664Y025433D01*
X016638Y025419D02*
X016488Y025419D01*
X016538Y025369D01*
X016513Y025322D02*
X016488Y025297D01*
X016488Y025246D01*
X016513Y025221D01*
X016488Y025027D02*
X016488Y024927D01*
X016638Y024927D01*
X016563Y024927D02*
X016563Y024977D01*
X016469Y025433D02*
X016369Y025433D01*
X016369Y025583D01*
X016469Y025583D01*
X016488Y025591D02*
X016488Y025541D01*
X016513Y025516D01*
X016516Y025508D02*
X016617Y025508D01*
X016638Y025516D02*
X016538Y025616D01*
X016513Y025616D01*
X016488Y025591D01*
X016419Y025508D02*
X016369Y025508D01*
X016638Y025516D02*
X016638Y025616D01*
X016714Y025483D02*
X016764Y025433D01*
X016811Y025433D02*
X016911Y025433D01*
X016861Y025433D02*
X016861Y025583D01*
X016811Y025533D01*
X016958Y025558D02*
X016983Y025583D01*
X017034Y025583D01*
X017059Y025558D01*
X016958Y025458D01*
X016983Y025433D01*
X017034Y025433D01*
X017059Y025458D01*
X017059Y025558D01*
X016958Y025558D02*
X016958Y025458D01*
X017236Y025527D02*
X017386Y025527D01*
X017386Y025477D02*
X017386Y025577D01*
X017286Y025477D02*
X017236Y025527D01*
X017236Y025379D02*
X017386Y025379D01*
X017386Y025329D02*
X017386Y025430D01*
X017286Y025329D02*
X017236Y025379D01*
X017261Y025282D02*
X017236Y025257D01*
X017236Y025207D01*
X017261Y025182D01*
X017361Y025182D01*
X017386Y025207D01*
X017386Y025257D01*
X017361Y025282D01*
X017311Y025135D02*
X017311Y025035D01*
X017236Y024988D02*
X017236Y024887D01*
X017386Y024887D01*
X017386Y024988D01*
X017311Y024937D02*
X017311Y024887D01*
X017261Y024840D02*
X017236Y024815D01*
X017236Y024740D01*
X017386Y024740D01*
X017386Y024815D01*
X017361Y024840D01*
X017261Y024840D01*
X017286Y024693D02*
X017386Y024693D01*
X017311Y024693D02*
X017311Y024593D01*
X017286Y024593D02*
X017236Y024643D01*
X017286Y024693D01*
X017286Y024593D02*
X017386Y024593D01*
X018665Y024592D02*
X018665Y024517D01*
X018815Y024517D01*
X018815Y024592D01*
X018790Y024617D01*
X018690Y024617D01*
X018665Y024592D01*
X018665Y024664D02*
X018815Y024664D01*
X018815Y024764D01*
X018740Y024811D02*
X018740Y024912D01*
X018765Y024959D02*
X018765Y025034D01*
X018740Y025059D01*
X018690Y025059D01*
X018665Y025034D01*
X018665Y024959D01*
X018815Y024959D01*
X018765Y025009D02*
X018815Y025059D01*
X018790Y025106D02*
X018815Y025131D01*
X018815Y025181D01*
X018790Y025206D01*
X018690Y025206D01*
X018665Y025181D01*
X018665Y025131D01*
X018690Y025106D01*
X018715Y025106D01*
X018740Y025131D01*
X018740Y025206D01*
X018665Y024764D02*
X018665Y024664D01*
X018740Y024664D02*
X018740Y024714D01*
X018740Y024470D02*
X018740Y024369D01*
X018715Y024369D02*
X018665Y024420D01*
X018715Y024470D01*
X018815Y024470D01*
X018815Y024369D02*
X018715Y024369D01*
X020058Y024424D02*
X020083Y024399D01*
X020108Y024399D01*
X020133Y024424D01*
X020133Y024474D01*
X020158Y024499D01*
X020183Y024499D01*
X020208Y024474D01*
X020208Y024424D01*
X020183Y024399D01*
X020058Y024424D02*
X020058Y024474D01*
X020083Y024499D01*
X020083Y024546D02*
X020133Y024596D01*
X020208Y024596D01*
X020133Y024596D02*
X020083Y024646D01*
X020058Y024646D01*
X020083Y024694D02*
X020108Y024694D01*
X020133Y024719D01*
X020133Y024769D01*
X020158Y024794D01*
X020183Y024794D01*
X020208Y024769D01*
X020208Y024719D01*
X020183Y024694D01*
X020083Y024694D02*
X020058Y024719D01*
X020058Y024769D01*
X020083Y024794D01*
X020133Y024841D02*
X020133Y024941D01*
X020158Y024988D02*
X020158Y025063D01*
X020133Y025088D01*
X020083Y025088D01*
X020058Y025063D01*
X020058Y024988D01*
X020208Y024988D01*
X020158Y025038D02*
X020208Y025088D01*
X020208Y025136D02*
X020208Y025236D01*
X020208Y025186D02*
X020058Y025186D01*
X020108Y025136D01*
X020083Y024546D02*
X020058Y024546D01*
X019383Y026143D02*
X019333Y026143D01*
X019308Y026168D01*
X019308Y026193D01*
X019333Y026218D01*
X019383Y026218D01*
X019408Y026193D01*
X019408Y026168D01*
X019383Y026143D01*
X019383Y026218D02*
X019408Y026243D01*
X019408Y026268D01*
X019383Y026293D01*
X019333Y026293D01*
X019308Y026268D01*
X019308Y026243D01*
X019333Y026218D01*
X019261Y026218D02*
X019236Y026193D01*
X019160Y026193D01*
X019160Y026143D02*
X019160Y026293D01*
X019236Y026293D01*
X019261Y026268D01*
X019261Y026218D01*
X019210Y026193D02*
X019261Y026143D01*
X019113Y026218D02*
X019013Y026218D01*
X018966Y026143D02*
X018866Y026143D01*
X018866Y026293D01*
X018966Y026293D01*
X018916Y026218D02*
X018866Y026218D01*
X018819Y026168D02*
X018819Y026268D01*
X018794Y026293D01*
X018718Y026293D01*
X018718Y026143D01*
X018794Y026143D01*
X018819Y026168D01*
X018671Y026143D02*
X018671Y026243D01*
X018621Y026293D01*
X018571Y026243D01*
X018571Y026143D01*
X018571Y026218D02*
X018671Y026218D01*
X018872Y018848D02*
X018872Y018798D01*
X018871Y018799D02*
X018850Y018796D01*
X018831Y018790D01*
X018812Y018781D01*
X018795Y018769D01*
X018781Y018755D01*
X018769Y018738D01*
X018760Y018719D01*
X018754Y018700D01*
X018751Y018679D01*
X018702Y018678D01*
X018701Y018679D01*
X018703Y018703D01*
X018709Y018726D01*
X018718Y018749D01*
X018730Y018770D01*
X018744Y018789D01*
X018761Y018806D01*
X018780Y018820D01*
X018801Y018832D01*
X018824Y018841D01*
X018847Y018847D01*
X018871Y018849D01*
X018871Y018840D01*
X018846Y018837D01*
X018822Y018831D01*
X018799Y018821D01*
X018778Y018808D01*
X018759Y018791D01*
X018742Y018772D01*
X018729Y018751D01*
X018719Y018728D01*
X018713Y018704D01*
X018710Y018679D01*
X018719Y018679D01*
X018722Y018703D01*
X018728Y018725D01*
X018737Y018747D01*
X018750Y018767D01*
X018765Y018785D01*
X018783Y018800D01*
X018803Y018813D01*
X018825Y018822D01*
X018847Y018828D01*
X018871Y018831D01*
X018871Y018822D01*
X018849Y018819D01*
X018827Y018814D01*
X018807Y018805D01*
X018788Y018793D01*
X018771Y018779D01*
X018757Y018762D01*
X018745Y018743D01*
X018736Y018723D01*
X018731Y018701D01*
X018728Y018679D01*
X018737Y018679D01*
X018739Y018700D01*
X018745Y018720D01*
X018753Y018739D01*
X018764Y018757D01*
X018778Y018772D01*
X018793Y018786D01*
X018811Y018797D01*
X018830Y018805D01*
X018850Y018811D01*
X018871Y018813D01*
X018871Y018804D01*
X018850Y018801D01*
X018829Y018795D01*
X018810Y018786D01*
X018792Y018773D01*
X018777Y018758D01*
X018764Y018740D01*
X018755Y018721D01*
X018749Y018700D01*
X018746Y018679D01*
X021690Y018678D02*
X021640Y018678D01*
X021641Y018679D02*
X021638Y018700D01*
X021632Y018719D01*
X021623Y018738D01*
X021611Y018755D01*
X021597Y018769D01*
X021580Y018781D01*
X021561Y018790D01*
X021542Y018796D01*
X021521Y018799D01*
X021520Y018848D01*
X021521Y018849D01*
X021545Y018847D01*
X021568Y018841D01*
X021591Y018832D01*
X021612Y018820D01*
X021631Y018806D01*
X021648Y018789D01*
X021662Y018770D01*
X021674Y018749D01*
X021683Y018726D01*
X021689Y018703D01*
X021691Y018679D01*
X021682Y018679D01*
X021679Y018704D01*
X021673Y018728D01*
X021663Y018751D01*
X021650Y018772D01*
X021633Y018791D01*
X021614Y018808D01*
X021593Y018821D01*
X021570Y018831D01*
X021546Y018837D01*
X021521Y018840D01*
X021521Y018831D01*
X021545Y018828D01*
X021567Y018822D01*
X021589Y018813D01*
X021609Y018800D01*
X021627Y018785D01*
X021642Y018767D01*
X021655Y018747D01*
X021664Y018725D01*
X021670Y018703D01*
X021673Y018679D01*
X021664Y018679D01*
X021661Y018701D01*
X021656Y018723D01*
X021647Y018743D01*
X021635Y018762D01*
X021621Y018779D01*
X021604Y018793D01*
X021585Y018805D01*
X021565Y018814D01*
X021543Y018819D01*
X021521Y018822D01*
X021521Y018813D01*
X021542Y018811D01*
X021562Y018805D01*
X021581Y018797D01*
X021599Y018786D01*
X021614Y018772D01*
X021628Y018757D01*
X021639Y018739D01*
X021647Y018720D01*
X021653Y018700D01*
X021655Y018679D01*
X021646Y018679D01*
X021643Y018700D01*
X021637Y018721D01*
X021628Y018740D01*
X021615Y018758D01*
X021600Y018773D01*
X021582Y018786D01*
X021563Y018795D01*
X021542Y018801D01*
X021521Y018804D01*
X025818Y018300D02*
X025893Y018300D01*
X025918Y018275D01*
X025918Y018225D01*
X025893Y018200D01*
X025818Y018200D01*
X025868Y018200D02*
X025918Y018150D01*
X025965Y018150D02*
X026040Y018150D01*
X026065Y018175D01*
X026065Y018200D01*
X026040Y018225D01*
X025965Y018225D01*
X025965Y018300D02*
X026040Y018300D01*
X026065Y018275D01*
X026065Y018250D01*
X026040Y018225D01*
X026113Y018300D02*
X026163Y018300D01*
X026138Y018300D02*
X026138Y018150D01*
X026113Y018150D02*
X026163Y018150D01*
X026211Y018150D02*
X026211Y018250D01*
X026261Y018300D01*
X026311Y018250D01*
X026311Y018150D01*
X026358Y018175D02*
X026383Y018150D01*
X026433Y018150D01*
X026458Y018175D01*
X026458Y018200D01*
X026433Y018225D01*
X026383Y018225D01*
X026358Y018250D01*
X026358Y018275D01*
X026383Y018300D01*
X026433Y018300D01*
X026458Y018275D01*
X026311Y018225D02*
X026211Y018225D01*
X025965Y018150D02*
X025965Y018300D01*
X025818Y018300D02*
X025818Y018150D01*
X027738Y018150D02*
X027813Y018150D01*
X027838Y018175D01*
X027838Y018225D01*
X027813Y018250D01*
X027738Y018250D01*
X027738Y018100D01*
X027788Y018150D02*
X027838Y018100D01*
X027885Y018075D02*
X027985Y018075D01*
X028032Y018150D02*
X028082Y018100D01*
X028132Y018150D01*
X028132Y018250D01*
X028180Y018250D02*
X028255Y018250D01*
X028280Y018225D01*
X028280Y018175D01*
X028255Y018150D01*
X028180Y018150D01*
X028230Y018150D02*
X028280Y018100D01*
X028327Y018100D02*
X028427Y018100D01*
X028474Y018125D02*
X028499Y018100D01*
X028549Y018100D01*
X028574Y018125D01*
X028574Y018175D01*
X028524Y018175D01*
X028474Y018225D02*
X028474Y018125D01*
X028474Y018225D02*
X028499Y018250D01*
X028549Y018250D01*
X028574Y018225D01*
X028427Y018250D02*
X028327Y018250D01*
X028327Y018100D01*
X028327Y018175D02*
X028377Y018175D01*
X028180Y018100D02*
X028180Y018250D01*
X028032Y018250D02*
X028032Y018150D01*
X026454Y020327D02*
X026454Y020592D01*
X026321Y020460D01*
X026498Y020460D01*
X026244Y020415D02*
X026200Y020460D01*
X026111Y020460D01*
X026067Y020504D01*
X026067Y020548D01*
X026111Y020592D01*
X026200Y020592D01*
X026244Y020548D01*
X026156Y020637D02*
X026156Y020282D01*
X026200Y020327D02*
X026244Y020371D01*
X026244Y020415D01*
X026200Y020327D02*
X026111Y020327D01*
X026067Y020371D01*
X025991Y020371D02*
X025991Y020592D01*
X025813Y020592D02*
X025813Y020371D01*
X025858Y020327D01*
X025946Y020327D01*
X025991Y020371D01*
X024464Y013523D02*
X024489Y013498D01*
X024489Y013448D01*
X024464Y013423D01*
X024364Y013523D01*
X024464Y013523D01*
X024364Y013523D02*
X024339Y013498D01*
X024339Y013448D01*
X024364Y013423D01*
X024464Y013423D01*
X024489Y013376D02*
X024489Y013276D01*
X024489Y013326D02*
X024339Y013326D01*
X024389Y013276D01*
X024364Y013228D02*
X024339Y013203D01*
X024339Y013153D01*
X024364Y013128D01*
X024464Y013128D01*
X024489Y013153D01*
X024489Y013203D01*
X024464Y013228D01*
X024414Y013081D02*
X024414Y012981D01*
X024339Y012934D02*
X024339Y012834D01*
X024489Y012834D01*
X024489Y012934D01*
X024414Y012884D02*
X024414Y012834D01*
X024364Y012786D02*
X024339Y012761D01*
X024339Y012686D01*
X024489Y012686D01*
X024489Y012761D01*
X024464Y012786D01*
X024364Y012786D01*
X024389Y012639D02*
X024489Y012639D01*
X024414Y012639D02*
X024414Y012539D01*
X024389Y012539D02*
X024339Y012589D01*
X024389Y012639D01*
X024389Y012539D02*
X024489Y012539D01*
X022843Y012870D02*
X022743Y012870D01*
X022693Y012920D01*
X022743Y012970D01*
X022843Y012970D01*
X022843Y013018D02*
X022843Y013093D01*
X022818Y013118D01*
X022718Y013118D01*
X022693Y013093D01*
X022693Y013018D01*
X022843Y013018D01*
X022768Y012970D02*
X022768Y012870D01*
X022768Y013165D02*
X022768Y013215D01*
X022693Y013165D02*
X022843Y013165D01*
X022843Y013265D01*
X022768Y013312D02*
X022768Y013412D01*
X022793Y013460D02*
X022793Y013535D01*
X022768Y013560D01*
X022718Y013560D01*
X022693Y013535D01*
X022693Y013460D01*
X022843Y013460D01*
X022793Y013510D02*
X022843Y013560D01*
X022843Y013607D02*
X022818Y013607D01*
X022718Y013707D01*
X022693Y013707D01*
X022693Y013607D01*
X022693Y013265D02*
X022693Y013165D01*
X021520Y012700D02*
X021520Y012750D01*
X021521Y012749D02*
X021542Y012752D01*
X021561Y012758D01*
X021580Y012767D01*
X021597Y012779D01*
X021611Y012793D01*
X021623Y012810D01*
X021632Y012829D01*
X021638Y012848D01*
X021641Y012869D01*
X021690Y012870D01*
X021691Y012869D01*
X021689Y012845D01*
X021683Y012822D01*
X021674Y012799D01*
X021662Y012778D01*
X021648Y012759D01*
X021631Y012742D01*
X021612Y012728D01*
X021591Y012716D01*
X021568Y012707D01*
X021545Y012701D01*
X021521Y012699D01*
X021521Y012708D01*
X021546Y012711D01*
X021570Y012717D01*
X021593Y012727D01*
X021614Y012740D01*
X021633Y012757D01*
X021650Y012776D01*
X021663Y012797D01*
X021673Y012820D01*
X021679Y012844D01*
X021682Y012869D01*
X021673Y012869D01*
X021670Y012845D01*
X021664Y012823D01*
X021655Y012801D01*
X021642Y012781D01*
X021627Y012763D01*
X021609Y012748D01*
X021589Y012735D01*
X021567Y012726D01*
X021545Y012720D01*
X021521Y012717D01*
X021521Y012726D01*
X021543Y012729D01*
X021565Y012734D01*
X021585Y012743D01*
X021604Y012755D01*
X021621Y012769D01*
X021635Y012786D01*
X021647Y012805D01*
X021656Y012825D01*
X021661Y012847D01*
X021664Y012869D01*
X021655Y012869D01*
X021653Y012848D01*
X021647Y012828D01*
X021639Y012809D01*
X021628Y012791D01*
X021614Y012776D01*
X021599Y012762D01*
X021581Y012751D01*
X021562Y012743D01*
X021542Y012737D01*
X021521Y012735D01*
X021521Y012744D01*
X021542Y012747D01*
X021563Y012753D01*
X021582Y012762D01*
X021600Y012775D01*
X021615Y012790D01*
X021628Y012808D01*
X021637Y012827D01*
X021643Y012848D01*
X021646Y012869D01*
X018702Y012870D02*
X018752Y012870D01*
X018751Y012869D02*
X018754Y012848D01*
X018760Y012829D01*
X018769Y012810D01*
X018781Y012793D01*
X018795Y012779D01*
X018812Y012767D01*
X018831Y012758D01*
X018850Y012752D01*
X018871Y012749D01*
X018872Y012700D01*
X018871Y012699D01*
X018847Y012701D01*
X018824Y012707D01*
X018801Y012716D01*
X018780Y012728D01*
X018761Y012742D01*
X018744Y012759D01*
X018730Y012778D01*
X018718Y012799D01*
X018709Y012822D01*
X018703Y012845D01*
X018701Y012869D01*
X018710Y012869D01*
X018713Y012844D01*
X018719Y012820D01*
X018729Y012797D01*
X018742Y012776D01*
X018759Y012757D01*
X018778Y012740D01*
X018799Y012727D01*
X018822Y012717D01*
X018846Y012711D01*
X018871Y012708D01*
X018871Y012717D01*
X018847Y012720D01*
X018825Y012726D01*
X018803Y012735D01*
X018783Y012748D01*
X018765Y012763D01*
X018750Y012781D01*
X018737Y012801D01*
X018728Y012823D01*
X018722Y012845D01*
X018719Y012869D01*
X018728Y012869D01*
X018731Y012847D01*
X018736Y012825D01*
X018745Y012805D01*
X018757Y012786D01*
X018771Y012769D01*
X018788Y012755D01*
X018807Y012743D01*
X018827Y012734D01*
X018849Y012729D01*
X018871Y012726D01*
X018871Y012735D01*
X018850Y012737D01*
X018830Y012743D01*
X018811Y012751D01*
X018793Y012762D01*
X018778Y012776D01*
X018764Y012791D01*
X018753Y012809D01*
X018745Y012828D01*
X018739Y012848D01*
X018737Y012869D01*
X018746Y012869D01*
X018749Y012848D01*
X018755Y012827D01*
X018764Y012808D01*
X018777Y012790D01*
X018792Y012775D01*
X018810Y012762D01*
X018829Y012753D01*
X018850Y012747D01*
X018871Y012744D01*
X029447Y010945D02*
X029447Y010920D01*
X029472Y010895D01*
X029522Y010895D01*
X029547Y010870D01*
X029547Y010845D01*
X029522Y010820D01*
X029472Y010820D01*
X029447Y010845D01*
X029447Y010945D02*
X029472Y010970D01*
X029522Y010970D01*
X029547Y010945D01*
X029594Y010920D02*
X029644Y010970D01*
X029644Y010820D01*
X029594Y010820D02*
X029695Y010820D01*
X010077Y042511D02*
X009952Y042511D01*
X009952Y042612D02*
X010077Y042612D01*
X010102Y042587D01*
X010102Y042537D01*
X010077Y042511D01*
X010077Y042659D02*
X010102Y042684D01*
X010102Y042734D01*
X010077Y042759D01*
X010052Y042759D01*
X010027Y042734D01*
X010027Y042684D01*
X010002Y042659D01*
X009977Y042659D01*
X009952Y042684D01*
X009952Y042734D01*
X009977Y042759D01*
X009952Y042806D02*
X009952Y042881D01*
X009977Y042906D01*
X010002Y042906D01*
X010027Y042881D01*
X010027Y042806D01*
X010102Y042806D02*
X009952Y042806D01*
X010027Y042881D02*
X010052Y042906D01*
X010077Y042906D01*
X010102Y042881D01*
X010102Y042806D01*
X010127Y042953D02*
X010127Y043054D01*
X010102Y043101D02*
X010102Y043151D01*
X010102Y043126D02*
X009952Y043126D01*
X009952Y043101D02*
X009952Y043151D01*
X009952Y043199D02*
X010102Y043299D01*
X009952Y043299D01*
X009952Y043199D02*
X010102Y043199D01*
D14*
X015886Y014827D02*
X015824Y014765D01*
X015824Y014642D01*
X015886Y014580D01*
X015886Y014458D02*
X015824Y014397D01*
X015824Y014273D01*
X015886Y014211D01*
X016133Y014211D01*
X016194Y014273D01*
X016194Y014397D01*
X016133Y014458D01*
X016194Y014580D02*
X015948Y014827D01*
X015886Y014827D01*
X016194Y014827D02*
X016194Y014580D01*
X016009Y014090D02*
X016009Y013843D01*
X015824Y013722D02*
X015824Y013475D01*
X016194Y013475D01*
X016194Y013722D01*
X016009Y013598D02*
X016009Y013475D01*
X016133Y013353D02*
X015886Y013353D01*
X015824Y013292D01*
X015824Y013107D01*
X016194Y013107D01*
X016194Y013292D01*
X016133Y013353D01*
X016194Y012985D02*
X015948Y012985D01*
X015824Y012862D01*
X015948Y012738D01*
X016194Y012738D01*
X016009Y012738D02*
X016009Y012985D01*
X032393Y014679D02*
X032707Y014993D01*
X032393Y014679D01*
X032550Y014679D02*
X032550Y014993D01*
X032550Y014679D01*
X032707Y014679D02*
X032393Y014993D01*
X032707Y014679D01*
X032707Y014836D02*
X032393Y014836D01*
X032707Y014836D01*
D15*
X024046Y013215D02*
X024022Y013215D01*
D16*
X023767Y015563D02*
X026467Y015563D01*
X026526Y015565D01*
X026584Y015571D01*
X026643Y015580D01*
X026700Y015594D01*
X026756Y015611D01*
X026811Y015632D01*
X026865Y015656D01*
X026917Y015684D01*
X026967Y015715D01*
X027015Y015749D01*
X027060Y015786D01*
X027103Y015827D01*
X027144Y015870D01*
X027181Y015915D01*
X027215Y015963D01*
X027246Y016013D01*
X027274Y016065D01*
X027298Y016119D01*
X027319Y016174D01*
X027336Y016230D01*
X027350Y016287D01*
X027359Y016346D01*
X027365Y016404D01*
X027367Y016463D01*
X027365Y016522D01*
X027359Y016580D01*
X027350Y016639D01*
X027336Y016696D01*
X027319Y016752D01*
X027298Y016807D01*
X027274Y016861D01*
X027246Y016913D01*
X027215Y016963D01*
X027181Y017011D01*
X027144Y017056D01*
X027103Y017099D01*
X027060Y017140D01*
X027015Y017177D01*
X026967Y017211D01*
X026917Y017242D01*
X026865Y017270D01*
X026811Y017294D01*
X026756Y017315D01*
X026700Y017332D01*
X026643Y017346D01*
X026584Y017355D01*
X026526Y017361D01*
X026467Y017363D01*
X023767Y017363D01*
X023708Y017361D01*
X023650Y017355D01*
X023591Y017346D01*
X023534Y017332D01*
X023478Y017315D01*
X023423Y017294D01*
X023369Y017270D01*
X023317Y017242D01*
X023267Y017211D01*
X023219Y017177D01*
X023174Y017140D01*
X023131Y017099D01*
X023090Y017056D01*
X023053Y017011D01*
X023019Y016963D01*
X022988Y016913D01*
X022960Y016861D01*
X022936Y016807D01*
X022915Y016752D01*
X022898Y016696D01*
X022884Y016639D01*
X022875Y016580D01*
X022869Y016522D01*
X022867Y016463D01*
X022869Y016404D01*
X022875Y016346D01*
X022884Y016287D01*
X022898Y016230D01*
X022915Y016174D01*
X022936Y016119D01*
X022960Y016065D01*
X022988Y016013D01*
X023019Y015963D01*
X023053Y015915D01*
X023090Y015870D01*
X023131Y015827D01*
X023174Y015786D01*
X023219Y015749D01*
X023267Y015715D01*
X023317Y015684D01*
X023369Y015656D01*
X023423Y015632D01*
X023478Y015611D01*
X023534Y015594D01*
X023591Y015580D01*
X023650Y015571D01*
X023708Y015565D01*
X023767Y015563D01*
X028792Y010615D02*
X028792Y009627D01*
X029186Y009115D02*
X030398Y009115D01*
X030792Y009627D02*
X030792Y010603D01*
X030398Y011115D02*
X029186Y011115D01*
X029292Y010115D02*
X029294Y010159D01*
X029300Y010203D01*
X029310Y010246D01*
X029323Y010288D01*
X029340Y010329D01*
X029361Y010368D01*
X029385Y010405D01*
X029412Y010440D01*
X029442Y010472D01*
X029475Y010502D01*
X029511Y010528D01*
X029548Y010552D01*
X029588Y010571D01*
X029629Y010588D01*
X029672Y010600D01*
X029715Y010609D01*
X029759Y010614D01*
X029803Y010615D01*
X029847Y010612D01*
X029891Y010605D01*
X029934Y010594D01*
X029976Y010580D01*
X030016Y010562D01*
X030055Y010540D01*
X030091Y010516D01*
X030125Y010488D01*
X030157Y010457D01*
X030186Y010423D01*
X030212Y010387D01*
X030234Y010349D01*
X030253Y010309D01*
X030268Y010267D01*
X030280Y010225D01*
X030288Y010181D01*
X030292Y010137D01*
X030292Y010093D01*
X030288Y010049D01*
X030280Y010005D01*
X030268Y009963D01*
X030253Y009921D01*
X030234Y009881D01*
X030212Y009843D01*
X030186Y009807D01*
X030157Y009773D01*
X030125Y009742D01*
X030091Y009714D01*
X030055Y009690D01*
X030016Y009668D01*
X029976Y009650D01*
X029934Y009636D01*
X029891Y009625D01*
X029847Y009618D01*
X029803Y009615D01*
X029759Y009616D01*
X029715Y009621D01*
X029672Y009630D01*
X029629Y009642D01*
X029588Y009659D01*
X029548Y009678D01*
X029511Y009702D01*
X029475Y009728D01*
X029442Y009758D01*
X029412Y009790D01*
X029385Y009825D01*
X029361Y009862D01*
X029340Y009901D01*
X029323Y009942D01*
X029310Y009984D01*
X029300Y010027D01*
X029294Y010071D01*
X029292Y010115D01*
X030113Y016324D02*
X030237Y016324D01*
X030360Y016448D01*
X030360Y016695D01*
X030484Y016818D01*
X030607Y016818D01*
X030730Y016695D01*
X030730Y016448D01*
X030607Y016324D01*
X030113Y016324D02*
X029990Y016448D01*
X029990Y016695D01*
X030113Y016818D01*
X029990Y017080D02*
X029990Y017573D01*
X029990Y017326D02*
X030730Y017326D01*
X030730Y017835D02*
X029990Y017835D01*
X030237Y018081D01*
X029990Y018328D01*
X030730Y018328D01*
X030854Y018590D02*
X030854Y019083D01*
X030607Y019345D02*
X030730Y019468D01*
X030730Y019715D01*
X030607Y019838D01*
X030730Y020100D02*
X029990Y020100D01*
X030113Y019838D02*
X029990Y019715D01*
X029990Y019468D01*
X030113Y019345D01*
X030607Y019345D01*
X030360Y020100D02*
X030360Y020593D01*
X029990Y020593D02*
X030730Y020593D01*
X030730Y020855D02*
X030730Y021102D01*
X030730Y020978D02*
X029990Y020978D01*
X029990Y020855D02*
X029990Y021102D01*
X029990Y021358D02*
X029990Y021728D01*
X030113Y021852D01*
X030360Y021852D01*
X030484Y021728D01*
X030484Y021358D01*
X030730Y021358D02*
X029990Y021358D01*
X037610Y020878D02*
X037610Y020508D01*
X038350Y020508D01*
X038104Y020508D02*
X038104Y020878D01*
X037980Y021002D01*
X037733Y021002D01*
X037610Y020878D01*
X037610Y020252D02*
X037610Y020005D01*
X037610Y020128D02*
X038350Y020128D01*
X038350Y020005D02*
X038350Y020252D01*
X038350Y019743D02*
X037610Y019743D01*
X037980Y019743D02*
X037980Y019250D01*
X037733Y018988D02*
X037610Y018865D01*
X037610Y018618D01*
X037733Y018495D01*
X038227Y018495D01*
X038350Y018618D01*
X038350Y018865D01*
X038227Y018988D01*
X038350Y019250D02*
X037610Y019250D01*
X038474Y018233D02*
X038474Y017740D01*
X038350Y017478D02*
X037610Y017478D01*
X037857Y017231D01*
X037610Y016985D01*
X038350Y016985D01*
X038350Y016476D02*
X037610Y016476D01*
X037610Y016230D02*
X037610Y016723D01*
X037733Y015968D02*
X037610Y015845D01*
X037610Y015598D01*
X037733Y015474D01*
X037857Y015474D01*
X037980Y015598D01*
X037980Y015845D01*
X038104Y015968D01*
X038227Y015968D01*
X038350Y015845D01*
X038350Y015598D01*
X038227Y015474D01*
X029448Y029898D02*
X028267Y029898D01*
X029448Y029898D02*
X029448Y031080D01*
X033333Y036326D02*
X033333Y038676D01*
X032223Y039770D02*
X029979Y039770D01*
X029625Y040125D01*
X029625Y040637D01*
X029625Y041503D02*
X029625Y042015D01*
X029979Y042369D01*
X032223Y042369D01*
X032223Y041503D01*
X032223Y040637D02*
X032223Y039770D01*
X033333Y040326D02*
X033333Y043676D01*
X033333Y044826D01*
X039763Y044826D01*
X039763Y043676D01*
X039763Y040326D01*
X039763Y038676D02*
X039763Y036326D01*
X033333Y036326D01*
X029448Y038166D02*
X029448Y039347D01*
X028267Y039347D01*
X029763Y041444D02*
X029786Y041509D01*
X029812Y041572D01*
X029842Y041633D01*
X029876Y041693D01*
X029912Y041751D01*
X029952Y041807D01*
X029995Y041860D01*
X030041Y041911D01*
X030090Y041959D01*
X030141Y042004D01*
X030195Y042047D01*
X030251Y042086D01*
X030309Y042122D01*
X030370Y042155D01*
X030432Y042184D01*
X030495Y042210D01*
X030560Y042232D01*
X030626Y042251D01*
X030693Y042265D01*
X030760Y042276D01*
X030829Y042283D01*
X030897Y042287D01*
X030966Y042286D01*
X031034Y042282D01*
X031102Y042273D01*
X031169Y042261D01*
X031236Y042246D01*
X031302Y042226D01*
X031366Y042203D01*
X031429Y042176D01*
X031491Y042145D01*
X031550Y042112D01*
X031608Y042075D01*
X031663Y042034D01*
X031716Y041991D01*
X031767Y041945D01*
X031815Y041896D01*
X031860Y041844D01*
X031902Y041790D01*
X031941Y041734D01*
X031977Y041675D01*
X032009Y041615D01*
X032038Y041553D01*
X032064Y041489D01*
X032085Y041424D01*
X032085Y040696D02*
X032062Y040631D01*
X032036Y040568D01*
X032006Y040507D01*
X031972Y040447D01*
X031936Y040389D01*
X031896Y040333D01*
X031853Y040280D01*
X031807Y040229D01*
X031758Y040181D01*
X031707Y040136D01*
X031653Y040093D01*
X031597Y040054D01*
X031539Y040018D01*
X031478Y039985D01*
X031416Y039956D01*
X031353Y039930D01*
X031288Y039908D01*
X031222Y039889D01*
X031155Y039875D01*
X031088Y039864D01*
X031019Y039857D01*
X030951Y039853D01*
X030882Y039854D01*
X030814Y039858D01*
X030746Y039867D01*
X030679Y039879D01*
X030612Y039894D01*
X030546Y039914D01*
X030482Y039937D01*
X030419Y039964D01*
X030357Y039995D01*
X030298Y040028D01*
X030240Y040065D01*
X030185Y040106D01*
X030132Y040149D01*
X030081Y040195D01*
X030033Y040244D01*
X029988Y040296D01*
X029946Y040350D01*
X029907Y040406D01*
X029871Y040465D01*
X029839Y040525D01*
X029810Y040587D01*
X029784Y040651D01*
X029763Y040716D01*
X021180Y039347D02*
X019999Y039347D01*
X019999Y038166D01*
X019999Y031080D02*
X019999Y029898D01*
X021180Y029898D01*
X038335Y033826D02*
X038690Y033471D01*
X040934Y033471D01*
X040934Y034337D01*
X040934Y035204D02*
X040934Y036070D01*
X038690Y036070D01*
X038335Y035715D01*
X038335Y035204D01*
X038335Y034337D02*
X038335Y033826D01*
X038474Y035144D02*
X038497Y035209D01*
X038523Y035272D01*
X038553Y035333D01*
X038587Y035393D01*
X038623Y035451D01*
X038663Y035507D01*
X038706Y035560D01*
X038752Y035611D01*
X038801Y035659D01*
X038852Y035704D01*
X038906Y035747D01*
X038962Y035786D01*
X039020Y035822D01*
X039081Y035855D01*
X039143Y035884D01*
X039206Y035910D01*
X039271Y035932D01*
X039337Y035951D01*
X039404Y035965D01*
X039471Y035976D01*
X039540Y035983D01*
X039608Y035987D01*
X039677Y035986D01*
X039745Y035982D01*
X039813Y035973D01*
X039880Y035961D01*
X039947Y035946D01*
X040013Y035926D01*
X040077Y035903D01*
X040140Y035876D01*
X040202Y035845D01*
X040261Y035812D01*
X040319Y035775D01*
X040374Y035734D01*
X040427Y035691D01*
X040478Y035645D01*
X040526Y035596D01*
X040571Y035544D01*
X040613Y035490D01*
X040652Y035434D01*
X040688Y035375D01*
X040720Y035315D01*
X040749Y035253D01*
X040775Y035189D01*
X040796Y035124D01*
X040796Y034396D02*
X040773Y034331D01*
X040747Y034268D01*
X040717Y034207D01*
X040683Y034147D01*
X040647Y034089D01*
X040607Y034033D01*
X040564Y033980D01*
X040518Y033929D01*
X040469Y033881D01*
X040418Y033836D01*
X040364Y033793D01*
X040308Y033754D01*
X040250Y033718D01*
X040189Y033685D01*
X040127Y033656D01*
X040064Y033630D01*
X039999Y033608D01*
X039933Y033589D01*
X039866Y033575D01*
X039799Y033564D01*
X039730Y033557D01*
X039662Y033553D01*
X039593Y033554D01*
X039525Y033558D01*
X039457Y033567D01*
X039390Y033579D01*
X039323Y033594D01*
X039257Y033614D01*
X039193Y033637D01*
X039130Y033664D01*
X039068Y033695D01*
X039009Y033728D01*
X038951Y033765D01*
X038896Y033806D01*
X038843Y033849D01*
X038792Y033895D01*
X038744Y033944D01*
X038699Y033996D01*
X038657Y034050D01*
X038618Y034106D01*
X038582Y034165D01*
X038550Y034225D01*
X038521Y034287D01*
X038495Y034351D01*
X038474Y034416D01*
D17*
X034597Y034331D02*
X034597Y033831D01*
X034347Y033581D01*
X033847Y033581D01*
X033597Y033831D01*
X033347Y033581D01*
X032847Y033581D01*
X032597Y033831D01*
X032347Y033581D01*
X031847Y033581D01*
X031597Y033831D01*
X031347Y033581D01*
X030847Y033581D01*
X030597Y033831D01*
X030597Y034331D01*
X030847Y034581D01*
X031347Y034581D01*
X031597Y034331D01*
X031847Y034581D01*
X032347Y034581D01*
X032597Y034331D01*
X032597Y033831D01*
X032597Y034331D01*
X032847Y034581D01*
X033347Y034581D01*
X033597Y034331D01*
X033847Y034581D01*
X034347Y034581D01*
X034597Y034331D01*
X034347Y034763D02*
X034597Y035013D01*
X034597Y035513D01*
X034347Y035763D01*
X033847Y035763D01*
X033597Y035513D01*
X033347Y035763D01*
X032847Y035763D01*
X032597Y035513D01*
X032347Y035763D01*
X031847Y035763D01*
X031597Y035513D01*
X031347Y035763D01*
X030847Y035763D01*
X030597Y035513D01*
X030597Y035013D01*
X030847Y034763D01*
X031347Y034763D01*
X031597Y035013D01*
X031597Y035513D01*
X031597Y035013D02*
X031847Y034763D01*
X032347Y034763D01*
X032597Y035013D01*
X032597Y035513D01*
X032597Y035013D01*
X032847Y034763D01*
X033347Y034763D01*
X033597Y035013D01*
X033597Y035513D01*
X033597Y035013D02*
X033847Y034763D01*
X034347Y034763D01*
X033597Y034331D02*
X033597Y033831D01*
X031597Y033831D02*
X031597Y034331D01*
X028126Y038854D02*
X028169Y038897D01*
X028169Y038984D01*
X028126Y039027D01*
X028082Y039027D01*
X028039Y038984D01*
X028039Y038897D01*
X027996Y038854D01*
X027952Y038854D01*
X027909Y038897D01*
X027909Y038984D01*
X027952Y039027D01*
X027909Y039148D02*
X027909Y039235D01*
X027909Y039192D02*
X028169Y039192D01*
X028169Y039235D02*
X028169Y039148D01*
X028169Y039345D02*
X027909Y039345D01*
X027996Y039431D01*
X027909Y039518D01*
X028169Y039518D01*
X028126Y039639D02*
X028169Y039683D01*
X028169Y039769D01*
X028126Y039813D01*
X027952Y039813D01*
X027909Y039769D01*
X027909Y039683D01*
X027952Y039639D01*
X027996Y039639D01*
X028039Y039683D01*
X028039Y039813D01*
X027952Y039934D02*
X027909Y039977D01*
X027909Y040064D01*
X027952Y040107D01*
X028126Y039934D01*
X028169Y039977D01*
X028169Y040064D01*
X028126Y040107D01*
X027952Y040107D01*
X027952Y040229D02*
X027909Y040272D01*
X027909Y040359D01*
X027952Y040402D01*
X028126Y040229D01*
X028169Y040272D01*
X028169Y040359D01*
X028126Y040402D01*
X027952Y040402D01*
X028039Y040523D02*
X028039Y040697D01*
X027909Y040818D02*
X028169Y040818D01*
X028169Y040991D01*
X028169Y041113D02*
X028169Y041286D01*
X028169Y041407D02*
X028169Y041537D01*
X028126Y041581D01*
X027952Y041581D01*
X027909Y041537D01*
X027909Y041407D01*
X028169Y041407D01*
X028039Y041199D02*
X028039Y041113D01*
X027909Y041113D02*
X028169Y041113D01*
X027909Y041113D02*
X027909Y041286D01*
X027629Y041367D02*
X027479Y041167D01*
X027329Y041367D01*
X027629Y041367D01*
X027608Y041339D02*
X027350Y041339D01*
X027394Y041280D02*
X027564Y041280D01*
X027520Y041222D02*
X027438Y041222D01*
X027909Y041745D02*
X027952Y041702D01*
X027909Y041745D02*
X027909Y041832D01*
X027952Y041875D01*
X027996Y041875D01*
X028169Y041702D01*
X028169Y041875D01*
X028126Y040229D02*
X027952Y040229D01*
X027952Y039934D02*
X028126Y039934D01*
X033564Y045108D02*
X033564Y045368D01*
X033738Y045368D01*
X033859Y045368D02*
X034032Y045368D01*
X033946Y045368D02*
X033946Y045108D01*
X034154Y045108D02*
X034154Y045368D01*
X034154Y045238D02*
X034327Y045238D01*
X034448Y045238D02*
X034535Y045238D01*
X034622Y045368D02*
X034448Y045368D01*
X034448Y045108D01*
X034622Y045108D01*
X034743Y045108D02*
X034743Y045368D01*
X034873Y045368D01*
X034916Y045324D01*
X034916Y045238D01*
X034873Y045194D01*
X034743Y045194D01*
X034830Y045194D02*
X034916Y045108D01*
X035038Y045108D02*
X035038Y045368D01*
X035211Y045108D01*
X035211Y045368D01*
X035332Y045368D02*
X035332Y045108D01*
X035506Y045108D01*
X035419Y045238D02*
X035332Y045238D01*
X035332Y045368D02*
X035506Y045368D01*
X035627Y045368D02*
X035800Y045368D01*
X035714Y045368D02*
X035714Y045108D01*
X034327Y045108D02*
X034327Y045368D01*
X033738Y045108D02*
X033564Y045108D01*
X033564Y045238D02*
X033651Y045238D01*
X021428Y041609D02*
X021278Y041809D01*
X021128Y041609D01*
X021428Y041609D01*
X021412Y041631D02*
X021145Y041631D01*
X021188Y041690D02*
X021368Y041690D01*
X021324Y041748D02*
X021232Y041748D01*
X021276Y041807D02*
X021280Y041807D01*
X020848Y041869D02*
X020848Y041955D01*
X020805Y041999D01*
X020631Y041999D01*
X020588Y041955D01*
X020588Y041869D01*
X020631Y041825D01*
X020675Y041825D01*
X020718Y041869D01*
X020718Y041999D01*
X020631Y042120D02*
X020588Y042163D01*
X020588Y042250D01*
X020631Y042293D01*
X020805Y042120D01*
X020848Y042163D01*
X020848Y042250D01*
X020805Y042293D01*
X020631Y042293D01*
X020631Y042414D02*
X020588Y042458D01*
X020588Y042545D01*
X020631Y042588D01*
X020805Y042414D01*
X020848Y042458D01*
X020848Y042545D01*
X020805Y042588D01*
X020631Y042588D01*
X020718Y042709D02*
X020718Y042883D01*
X020588Y043004D02*
X020848Y043004D01*
X020848Y043177D01*
X020848Y043298D02*
X020848Y043472D01*
X020848Y043593D02*
X020848Y043723D01*
X020805Y043767D01*
X020631Y043767D01*
X020588Y043723D01*
X020588Y043593D01*
X020848Y043593D01*
X020718Y043385D02*
X020718Y043298D01*
X020588Y043298D02*
X020848Y043298D01*
X020588Y043298D02*
X020588Y043472D01*
X020675Y043888D02*
X020588Y043974D01*
X020848Y043974D01*
X020848Y043888D02*
X020848Y044061D01*
X020805Y042414D02*
X020631Y042414D01*
X020631Y042120D02*
X020805Y042120D01*
X020848Y041869D02*
X020805Y041825D01*
X020848Y041704D02*
X020588Y041704D01*
X020675Y041617D01*
X020588Y041531D01*
X020848Y041531D01*
X020848Y041421D02*
X020848Y041334D01*
X020848Y041377D02*
X020588Y041377D01*
X020588Y041334D02*
X020588Y041421D01*
X020631Y041213D02*
X020588Y041170D01*
X020588Y041083D01*
X020631Y041039D01*
X020675Y041039D01*
X020718Y041083D01*
X020718Y041170D01*
X020762Y041213D01*
X020805Y041213D01*
X020848Y041170D01*
X020848Y041083D01*
X020805Y041039D01*
X020831Y040913D02*
X020831Y040653D01*
X020744Y040653D02*
X020918Y040653D01*
X020744Y040826D02*
X020831Y040913D01*
X020623Y040870D02*
X020580Y040913D01*
X020493Y040913D01*
X020450Y040870D01*
X020450Y040696D01*
X020493Y040653D01*
X020580Y040653D01*
X020623Y040696D01*
X020340Y040653D02*
X020253Y040653D01*
X020297Y040653D02*
X020297Y040913D01*
X020340Y040913D02*
X020253Y040913D01*
X033019Y024893D02*
X035719Y024893D01*
X035778Y024891D01*
X035836Y024885D01*
X035895Y024876D01*
X035952Y024862D01*
X036008Y024845D01*
X036063Y024824D01*
X036117Y024800D01*
X036169Y024772D01*
X036219Y024741D01*
X036267Y024707D01*
X036312Y024670D01*
X036355Y024629D01*
X036396Y024586D01*
X036433Y024541D01*
X036467Y024493D01*
X036498Y024443D01*
X036526Y024391D01*
X036550Y024337D01*
X036571Y024282D01*
X036588Y024226D01*
X036602Y024169D01*
X036611Y024110D01*
X036617Y024052D01*
X036619Y023993D01*
X036617Y023934D01*
X036611Y023876D01*
X036602Y023817D01*
X036588Y023760D01*
X036571Y023704D01*
X036550Y023649D01*
X036526Y023595D01*
X036498Y023543D01*
X036467Y023493D01*
X036433Y023445D01*
X036396Y023400D01*
X036355Y023357D01*
X036312Y023316D01*
X036267Y023279D01*
X036219Y023245D01*
X036169Y023214D01*
X036117Y023186D01*
X036063Y023162D01*
X036008Y023141D01*
X035952Y023124D01*
X035895Y023110D01*
X035836Y023101D01*
X035778Y023095D01*
X035719Y023093D01*
X033019Y023093D01*
X032960Y023095D01*
X032902Y023101D01*
X032843Y023110D01*
X032786Y023124D01*
X032730Y023141D01*
X032675Y023162D01*
X032621Y023186D01*
X032569Y023214D01*
X032519Y023245D01*
X032471Y023279D01*
X032426Y023316D01*
X032383Y023357D01*
X032342Y023400D01*
X032305Y023445D01*
X032271Y023493D01*
X032240Y023543D01*
X032212Y023595D01*
X032188Y023649D01*
X032167Y023704D01*
X032150Y023760D01*
X032136Y023817D01*
X032127Y023876D01*
X032121Y023934D01*
X032119Y023993D01*
X032121Y024052D01*
X032127Y024110D01*
X032136Y024169D01*
X032150Y024226D01*
X032167Y024282D01*
X032188Y024337D01*
X032212Y024391D01*
X032240Y024443D01*
X032271Y024493D01*
X032305Y024541D01*
X032342Y024586D01*
X032383Y024629D01*
X032426Y024670D01*
X032471Y024707D01*
X032519Y024741D01*
X032569Y024772D01*
X032621Y024800D01*
X032675Y024824D01*
X032730Y024845D01*
X032786Y024862D01*
X032843Y024876D01*
X032902Y024885D01*
X032960Y024891D01*
X033019Y024893D01*
X034370Y020684D02*
X034370Y020274D01*
X035930Y019614D02*
X036240Y019614D01*
X036240Y019304D01*
X036890Y018744D02*
X037300Y018744D01*
X037270Y016774D02*
X036860Y016774D01*
X036240Y015984D02*
X036240Y015674D01*
X035930Y015674D01*
X034580Y015034D02*
X034570Y014634D01*
X032610Y015674D02*
X032300Y015674D01*
X032300Y015984D01*
X032440Y016034D02*
X032660Y015814D01*
X031630Y016964D02*
X031230Y016964D01*
X031210Y018924D02*
X031610Y018924D01*
X032300Y019304D02*
X032300Y019614D01*
X032610Y019614D01*
X023721Y008373D02*
X023721Y007133D01*
X023719Y007110D01*
X023714Y007087D01*
X023705Y007065D01*
X023692Y007045D01*
X023677Y007027D01*
X023659Y007012D01*
X023639Y006999D01*
X023617Y006990D01*
X023594Y006985D01*
X023571Y006983D01*
X024235Y006840D02*
X024262Y006842D01*
X024289Y006847D01*
X024315Y006857D01*
X024339Y006869D01*
X024361Y006885D01*
X024381Y006903D01*
X024398Y006925D01*
X024413Y006948D01*
X024423Y006973D01*
X024431Y006999D01*
X024435Y007026D01*
X024435Y007054D01*
X024431Y007081D01*
X024423Y007107D01*
X024413Y007132D01*
X024398Y007155D01*
X024381Y007177D01*
X024361Y007195D01*
X024339Y007211D01*
X024315Y007223D01*
X024289Y007233D01*
X024262Y007238D01*
X024235Y007240D01*
X024235Y006840D01*
X024235Y006420D01*
X024237Y006397D01*
X024242Y006374D01*
X024251Y006352D01*
X024264Y006332D01*
X024279Y006314D01*
X024297Y006299D01*
X024317Y006286D01*
X024339Y006277D01*
X024362Y006272D01*
X024385Y006270D01*
X024235Y007240D02*
X024235Y007660D01*
X024237Y007683D01*
X024242Y007706D01*
X024251Y007728D01*
X024264Y007748D01*
X024279Y007766D01*
X024297Y007781D01*
X024317Y007794D01*
X024339Y007803D01*
X024362Y007808D01*
X024385Y007810D01*
X023721Y008373D02*
X023719Y008396D01*
X023714Y008419D01*
X023705Y008441D01*
X023692Y008461D01*
X023677Y008479D01*
X023659Y008494D01*
X023639Y008507D01*
X023617Y008516D01*
X023594Y008521D01*
X023571Y008523D01*
X019871Y008523D02*
X019848Y008521D01*
X019825Y008516D01*
X019803Y008507D01*
X019783Y008494D01*
X019765Y008479D01*
X019750Y008461D01*
X019737Y008441D01*
X019728Y008419D01*
X019723Y008396D01*
X019721Y008373D01*
X019721Y007953D01*
X019721Y007553D01*
X019721Y007133D01*
X019723Y007110D01*
X019728Y007087D01*
X019737Y007065D01*
X019750Y007045D01*
X019765Y007027D01*
X019783Y007012D01*
X019803Y006999D01*
X019825Y006990D01*
X019848Y006985D01*
X019871Y006983D01*
X019721Y007553D02*
X019748Y007555D01*
X019775Y007560D01*
X019801Y007570D01*
X019825Y007582D01*
X019847Y007598D01*
X019867Y007616D01*
X019884Y007638D01*
X019899Y007661D01*
X019909Y007686D01*
X019917Y007712D01*
X019921Y007739D01*
X019921Y007767D01*
X019917Y007794D01*
X019909Y007820D01*
X019899Y007845D01*
X019884Y007868D01*
X019867Y007890D01*
X019847Y007908D01*
X019825Y007924D01*
X019801Y007936D01*
X019775Y007946D01*
X019748Y007951D01*
X019721Y007953D01*
X019144Y008373D02*
X019144Y007133D01*
X019142Y007110D01*
X019137Y007087D01*
X019128Y007065D01*
X019115Y007045D01*
X019100Y007027D01*
X019082Y007012D01*
X019062Y006999D01*
X019040Y006990D01*
X019017Y006985D01*
X018994Y006983D01*
X019144Y008373D02*
X019142Y008396D01*
X019137Y008419D01*
X019128Y008441D01*
X019115Y008461D01*
X019100Y008479D01*
X019082Y008494D01*
X019062Y008507D01*
X019040Y008516D01*
X019017Y008521D01*
X018994Y008523D01*
X015294Y008523D02*
X015271Y008521D01*
X015248Y008516D01*
X015226Y008507D01*
X015206Y008494D01*
X015188Y008479D01*
X015173Y008461D01*
X015160Y008441D01*
X015151Y008419D01*
X015146Y008396D01*
X015144Y008373D01*
X015144Y007953D01*
X015144Y007553D01*
X015144Y007133D01*
X015146Y007110D01*
X015151Y007087D01*
X015160Y007065D01*
X015173Y007045D01*
X015188Y007027D01*
X015206Y007012D01*
X015226Y006999D01*
X015248Y006990D01*
X015271Y006985D01*
X015294Y006983D01*
X015144Y007553D02*
X015171Y007555D01*
X015198Y007560D01*
X015224Y007570D01*
X015248Y007582D01*
X015270Y007598D01*
X015290Y007616D01*
X015307Y007638D01*
X015322Y007661D01*
X015332Y007686D01*
X015340Y007712D01*
X015344Y007739D01*
X015344Y007767D01*
X015340Y007794D01*
X015332Y007820D01*
X015322Y007845D01*
X015307Y007868D01*
X015290Y007890D01*
X015270Y007908D01*
X015248Y007924D01*
X015224Y007936D01*
X015198Y007946D01*
X015171Y007951D01*
X015144Y007953D01*
X018876Y012724D02*
X021516Y012724D01*
X021516Y018824D02*
X018876Y018824D01*
X019696Y018824D02*
X019698Y018780D01*
X019704Y018737D01*
X019713Y018695D01*
X019726Y018653D01*
X019743Y018613D01*
X019763Y018574D01*
X019786Y018537D01*
X019813Y018503D01*
X019842Y018470D01*
X019875Y018441D01*
X019909Y018414D01*
X019946Y018391D01*
X019985Y018371D01*
X020025Y018354D01*
X020067Y018341D01*
X020109Y018332D01*
X020152Y018326D01*
X020196Y018324D01*
X020240Y018326D01*
X020283Y018332D01*
X020325Y018341D01*
X020367Y018354D01*
X020407Y018371D01*
X020446Y018391D01*
X020483Y018414D01*
X020517Y018441D01*
X020550Y018470D01*
X020579Y018503D01*
X020606Y018537D01*
X020629Y018574D01*
X020649Y018613D01*
X020666Y018653D01*
X020679Y018695D01*
X020688Y018737D01*
X020694Y018780D01*
X020696Y018824D01*
X028085Y007810D02*
X028108Y007808D01*
X028131Y007803D01*
X028153Y007794D01*
X028173Y007781D01*
X028191Y007766D01*
X028206Y007748D01*
X028219Y007728D01*
X028228Y007706D01*
X028233Y007683D01*
X028235Y007660D01*
X028235Y006420D01*
X028233Y006397D01*
X028228Y006374D01*
X028219Y006352D01*
X028206Y006332D01*
X028191Y006314D01*
X028173Y006299D01*
X028153Y006286D01*
X028131Y006277D01*
X028108Y006272D01*
X028085Y006270D01*
X031495Y002643D02*
X031245Y002393D01*
X031245Y001893D01*
X031495Y001643D01*
X031995Y001643D01*
X032245Y001893D01*
X032495Y001643D01*
X032995Y001643D01*
X033245Y001893D01*
X033495Y001643D01*
X033995Y001643D01*
X034245Y001893D01*
X034245Y002393D01*
X033995Y002643D01*
X033495Y002643D01*
X033245Y002393D01*
X033245Y001893D01*
X033245Y002393D02*
X032995Y002643D01*
X032495Y002643D01*
X032245Y002393D01*
X032245Y001893D01*
X032245Y002393D02*
X031995Y002643D01*
X031495Y002643D01*
X034485Y002393D02*
X034485Y001893D01*
X034735Y001643D01*
X035235Y001643D01*
X035485Y001893D01*
X035735Y001643D01*
X036235Y001643D01*
X036485Y001893D01*
X036735Y001643D01*
X037235Y001643D01*
X037485Y001893D01*
X037735Y001643D01*
X038235Y001643D01*
X038485Y001893D01*
X038485Y002393D01*
X038235Y002643D01*
X037735Y002643D01*
X037485Y002393D01*
X037485Y001893D01*
X037485Y002393D02*
X037235Y002643D01*
X036735Y002643D01*
X036485Y002393D01*
X036485Y001893D01*
X036485Y002393D01*
X036235Y002643D01*
X035735Y002643D01*
X035485Y002393D01*
X035485Y001893D01*
X035485Y002393D02*
X035235Y002643D01*
X034735Y002643D01*
X034485Y002393D01*
X003151Y008589D02*
X003153Y008638D01*
X003159Y008686D01*
X003169Y008734D01*
X003183Y008781D01*
X003200Y008827D01*
X003221Y008871D01*
X003246Y008913D01*
X003274Y008953D01*
X003306Y008991D01*
X003340Y009026D01*
X003377Y009058D01*
X003416Y009087D01*
X003458Y009113D01*
X003502Y009135D01*
X003547Y009153D01*
X003594Y009168D01*
X003641Y009179D01*
X003690Y009186D01*
X003739Y009189D01*
X003788Y009188D01*
X003836Y009183D01*
X003885Y009174D01*
X003932Y009161D01*
X003978Y009144D01*
X004022Y009124D01*
X004065Y009100D01*
X004106Y009073D01*
X004144Y009042D01*
X004180Y009009D01*
X004212Y008973D01*
X004242Y008934D01*
X004269Y008893D01*
X004292Y008849D01*
X004311Y008804D01*
X004327Y008758D01*
X004339Y008711D01*
X004347Y008662D01*
X004351Y008613D01*
X004351Y008565D01*
X004347Y008516D01*
X004339Y008467D01*
X004327Y008420D01*
X004311Y008374D01*
X004292Y008329D01*
X004269Y008285D01*
X004242Y008244D01*
X004212Y008205D01*
X004180Y008169D01*
X004144Y008136D01*
X004106Y008105D01*
X004065Y008078D01*
X004022Y008054D01*
X003978Y008034D01*
X003932Y008017D01*
X003885Y008004D01*
X003836Y007995D01*
X003788Y007990D01*
X003739Y007989D01*
X003690Y007992D01*
X003641Y007999D01*
X003594Y008010D01*
X003547Y008025D01*
X003502Y008043D01*
X003458Y008065D01*
X003416Y008091D01*
X003377Y008120D01*
X003340Y008152D01*
X003306Y008187D01*
X003274Y008225D01*
X003246Y008265D01*
X003221Y008307D01*
X003200Y008351D01*
X003183Y008397D01*
X003169Y008444D01*
X003159Y008492D01*
X003153Y008540D01*
X003151Y008589D01*
X003161Y012300D02*
X003163Y012349D01*
X003169Y012397D01*
X003179Y012445D01*
X003193Y012492D01*
X003210Y012538D01*
X003231Y012582D01*
X003256Y012624D01*
X003284Y012664D01*
X003316Y012702D01*
X003350Y012737D01*
X003387Y012769D01*
X003426Y012798D01*
X003468Y012824D01*
X003512Y012846D01*
X003557Y012864D01*
X003604Y012879D01*
X003651Y012890D01*
X003700Y012897D01*
X003749Y012900D01*
X003798Y012899D01*
X003846Y012894D01*
X003895Y012885D01*
X003942Y012872D01*
X003988Y012855D01*
X004032Y012835D01*
X004075Y012811D01*
X004116Y012784D01*
X004154Y012753D01*
X004190Y012720D01*
X004222Y012684D01*
X004252Y012645D01*
X004279Y012604D01*
X004302Y012560D01*
X004321Y012515D01*
X004337Y012469D01*
X004349Y012422D01*
X004357Y012373D01*
X004361Y012324D01*
X004361Y012276D01*
X004357Y012227D01*
X004349Y012178D01*
X004337Y012131D01*
X004321Y012085D01*
X004302Y012040D01*
X004279Y011996D01*
X004252Y011955D01*
X004222Y011916D01*
X004190Y011880D01*
X004154Y011847D01*
X004116Y011816D01*
X004075Y011789D01*
X004032Y011765D01*
X003988Y011745D01*
X003942Y011728D01*
X003895Y011715D01*
X003846Y011706D01*
X003798Y011701D01*
X003749Y011700D01*
X003700Y011703D01*
X003651Y011710D01*
X003604Y011721D01*
X003557Y011736D01*
X003512Y011754D01*
X003468Y011776D01*
X003426Y011802D01*
X003387Y011831D01*
X003350Y011863D01*
X003316Y011898D01*
X003284Y011936D01*
X003256Y011976D01*
X003231Y012018D01*
X003210Y012062D01*
X003193Y012108D01*
X003179Y012155D01*
X003169Y012203D01*
X003163Y012251D01*
X003161Y012300D01*
X003151Y016020D02*
X003153Y016069D01*
X003159Y016117D01*
X003169Y016165D01*
X003183Y016212D01*
X003200Y016258D01*
X003221Y016302D01*
X003246Y016344D01*
X003274Y016384D01*
X003306Y016422D01*
X003340Y016457D01*
X003377Y016489D01*
X003416Y016518D01*
X003458Y016544D01*
X003502Y016566D01*
X003547Y016584D01*
X003594Y016599D01*
X003641Y016610D01*
X003690Y016617D01*
X003739Y016620D01*
X003788Y016619D01*
X003836Y016614D01*
X003885Y016605D01*
X003932Y016592D01*
X003978Y016575D01*
X004022Y016555D01*
X004065Y016531D01*
X004106Y016504D01*
X004144Y016473D01*
X004180Y016440D01*
X004212Y016404D01*
X004242Y016365D01*
X004269Y016324D01*
X004292Y016280D01*
X004311Y016235D01*
X004327Y016189D01*
X004339Y016142D01*
X004347Y016093D01*
X004351Y016044D01*
X004351Y015996D01*
X004347Y015947D01*
X004339Y015898D01*
X004327Y015851D01*
X004311Y015805D01*
X004292Y015760D01*
X004269Y015716D01*
X004242Y015675D01*
X004212Y015636D01*
X004180Y015600D01*
X004144Y015567D01*
X004106Y015536D01*
X004065Y015509D01*
X004022Y015485D01*
X003978Y015465D01*
X003932Y015448D01*
X003885Y015435D01*
X003836Y015426D01*
X003788Y015421D01*
X003739Y015420D01*
X003690Y015423D01*
X003641Y015430D01*
X003594Y015441D01*
X003547Y015456D01*
X003502Y015474D01*
X003458Y015496D01*
X003416Y015522D01*
X003377Y015551D01*
X003340Y015583D01*
X003306Y015618D01*
X003274Y015656D01*
X003246Y015696D01*
X003221Y015738D01*
X003200Y015782D01*
X003183Y015828D01*
X003169Y015875D01*
X003159Y015923D01*
X003153Y015971D01*
X003151Y016020D01*
D18*
X019212Y038560D02*
X019214Y038585D01*
X019220Y038609D01*
X019229Y038631D01*
X019242Y038652D01*
X019258Y038671D01*
X019277Y038687D01*
X019298Y038700D01*
X019320Y038709D01*
X019344Y038715D01*
X019369Y038717D01*
X019394Y038715D01*
X019418Y038709D01*
X019440Y038700D01*
X019461Y038687D01*
X019480Y038671D01*
X019496Y038652D01*
X019509Y038631D01*
X019518Y038609D01*
X019524Y038585D01*
X019526Y038560D01*
X019524Y038535D01*
X019518Y038511D01*
X019509Y038489D01*
X019496Y038468D01*
X019480Y038449D01*
X019461Y038433D01*
X019440Y038420D01*
X019418Y038411D01*
X019394Y038405D01*
X019369Y038403D01*
X019344Y038405D01*
X019320Y038411D01*
X019298Y038420D01*
X019277Y038433D01*
X019258Y038449D01*
X019242Y038468D01*
X019229Y038489D01*
X019220Y038511D01*
X019214Y038535D01*
X019212Y038560D01*
D19*
X033019Y024693D02*
X035719Y024693D01*
X035770Y024691D01*
X035821Y024686D01*
X035871Y024676D01*
X035921Y024663D01*
X035969Y024647D01*
X036016Y024627D01*
X036062Y024603D01*
X036105Y024577D01*
X036147Y024547D01*
X036186Y024514D01*
X036223Y024479D01*
X036257Y024441D01*
X036288Y024400D01*
X036317Y024358D01*
X036342Y024313D01*
X036363Y024267D01*
X036382Y024219D01*
X036396Y024170D01*
X036407Y024120D01*
X036415Y024070D01*
X036419Y024019D01*
X036419Y023967D01*
X036415Y023916D01*
X036407Y023866D01*
X036396Y023816D01*
X036382Y023767D01*
X036363Y023719D01*
X036342Y023673D01*
X036317Y023628D01*
X036288Y023586D01*
X036257Y023545D01*
X036223Y023507D01*
X036186Y023472D01*
X036147Y023439D01*
X036105Y023409D01*
X036062Y023383D01*
X036016Y023359D01*
X035969Y023339D01*
X035921Y023323D01*
X035871Y023310D01*
X035821Y023300D01*
X035770Y023295D01*
X035719Y023293D01*
X033019Y023293D01*
X032968Y023295D01*
X032917Y023300D01*
X032867Y023310D01*
X032817Y023323D01*
X032769Y023339D01*
X032722Y023359D01*
X032676Y023383D01*
X032633Y023409D01*
X032591Y023439D01*
X032552Y023472D01*
X032515Y023507D01*
X032481Y023545D01*
X032450Y023586D01*
X032421Y023628D01*
X032396Y023673D01*
X032375Y023719D01*
X032356Y023767D01*
X032342Y023816D01*
X032331Y023866D01*
X032323Y023916D01*
X032319Y023967D01*
X032319Y024019D01*
X032323Y024070D01*
X032331Y024120D01*
X032342Y024170D01*
X032356Y024219D01*
X032375Y024267D01*
X032396Y024313D01*
X032421Y024358D01*
X032450Y024400D01*
X032481Y024441D01*
X032515Y024479D01*
X032552Y024514D01*
X032591Y024547D01*
X032633Y024577D01*
X032676Y024603D01*
X032722Y024627D01*
X032769Y024647D01*
X032817Y024663D01*
X032867Y024676D01*
X032917Y024686D01*
X032968Y024691D01*
X033019Y024693D01*
X036642Y028146D02*
X036826Y028146D01*
X036863Y028182D01*
X036863Y028256D01*
X036826Y028292D01*
X036642Y028292D01*
X036679Y028367D02*
X036642Y028403D01*
X036642Y028477D01*
X036679Y028513D01*
X036716Y028513D01*
X036863Y028367D01*
X036863Y028513D01*
X023721Y007123D02*
X019721Y007123D01*
X019144Y007123D02*
X015144Y007123D01*
X024235Y006410D02*
X028235Y006410D01*
D20*
X031240Y003338D02*
X031240Y002888D01*
X031540Y002888D01*
X031700Y002963D02*
X031775Y002888D01*
X031925Y002888D01*
X032001Y002963D01*
X032001Y003038D01*
X031925Y003113D01*
X031775Y003113D01*
X031700Y003188D01*
X031700Y003263D01*
X031775Y003338D01*
X031925Y003338D01*
X032001Y003263D01*
X032161Y003338D02*
X032386Y003338D01*
X032461Y003263D01*
X032461Y003113D01*
X032386Y003038D01*
X032161Y003038D01*
X032161Y002888D02*
X032161Y003338D01*
X032621Y003113D02*
X032921Y003113D01*
X033081Y003263D02*
X033081Y002963D01*
X033157Y002888D01*
X033307Y002888D01*
X033382Y002963D01*
X033382Y003113D01*
X033232Y003113D01*
X033382Y003263D02*
X033307Y003338D01*
X033157Y003338D01*
X033081Y003263D01*
X033542Y003338D02*
X033542Y002888D01*
X033542Y003038D02*
X033767Y003038D01*
X033842Y003113D01*
X033842Y003263D01*
X033767Y003338D01*
X033542Y003338D01*
X033685Y003638D02*
X033685Y004045D01*
X033786Y004246D02*
X033888Y004246D01*
X033990Y004348D01*
X033990Y004551D01*
X034092Y004653D01*
X034193Y004653D01*
X034295Y004551D01*
X034295Y004348D01*
X034193Y004246D01*
X034295Y004045D02*
X034295Y003638D01*
X033685Y003638D01*
X033990Y003638D02*
X033990Y003842D01*
X033786Y004246D02*
X033685Y004348D01*
X033685Y004551D01*
X033786Y004653D01*
X033685Y004854D02*
X033685Y005159D01*
X033786Y005261D01*
X033990Y005261D01*
X034092Y005159D01*
X034092Y004854D01*
X034295Y004854D02*
X033685Y004854D01*
X033786Y006069D02*
X033888Y006069D01*
X033990Y006171D01*
X033990Y006375D01*
X034092Y006476D01*
X034193Y006476D01*
X034295Y006375D01*
X034295Y006171D01*
X034193Y006069D01*
X034092Y006069D01*
X033990Y006171D01*
X033990Y006375D02*
X033888Y006476D01*
X033786Y006476D01*
X033685Y006375D01*
X033685Y006171D01*
X033786Y006069D01*
X033786Y006677D02*
X033685Y006779D01*
X033685Y006982D01*
X033786Y007084D01*
X033888Y007084D01*
X034295Y006677D01*
X034295Y007084D01*
X034193Y007285D02*
X034295Y007387D01*
X034295Y007590D01*
X034193Y007692D01*
X034092Y007692D01*
X033990Y007590D01*
X033990Y007285D01*
X034193Y007285D01*
X033990Y007285D02*
X033786Y007488D01*
X033685Y007692D01*
X033990Y007892D02*
X033786Y008096D01*
X033685Y008299D01*
X033990Y008198D02*
X033990Y007892D01*
X034193Y007892D01*
X034295Y007994D01*
X034295Y008198D01*
X034193Y008299D01*
X034092Y008299D01*
X033990Y008198D01*
X034002Y003338D02*
X034152Y003338D01*
X034077Y003338D02*
X034077Y002888D01*
X034002Y002888D02*
X034152Y002888D01*
X034309Y002963D02*
X034384Y002888D01*
X034534Y002888D01*
X034609Y002963D01*
X034609Y003263D01*
X034534Y003338D01*
X034384Y003338D01*
X034309Y003263D01*
X034309Y002963D01*
X034480Y002888D02*
X034480Y003338D01*
X034780Y003338D01*
X034845Y003338D02*
X034770Y003263D01*
X034770Y002963D01*
X035070Y003263D01*
X035070Y002963D01*
X034995Y002888D01*
X034845Y002888D01*
X034770Y002963D01*
X034780Y002888D02*
X034480Y002888D01*
X034480Y003113D02*
X034630Y003113D01*
X034845Y003338D02*
X034995Y003338D01*
X035070Y003263D01*
X035015Y003338D02*
X034940Y003263D01*
X034940Y003188D01*
X035015Y003113D01*
X035166Y003113D01*
X035241Y003038D01*
X035241Y002963D01*
X035166Y002888D01*
X035015Y002888D01*
X034940Y002963D01*
X035015Y003338D02*
X035166Y003338D01*
X035241Y003263D01*
X035401Y003338D02*
X035626Y003338D01*
X035701Y003263D01*
X035701Y003113D01*
X035626Y003038D01*
X035401Y003038D01*
X035401Y002888D02*
X035401Y003338D01*
X035861Y002812D02*
X036161Y002812D01*
X036322Y002888D02*
X036622Y002888D01*
X036782Y002888D02*
X037082Y003338D01*
X037242Y003338D02*
X037543Y003338D01*
X037393Y003338D02*
X037393Y002888D01*
X037082Y002888D02*
X036782Y003338D01*
X036622Y003338D02*
X036322Y003338D01*
X036322Y002888D01*
X036322Y003113D02*
X036472Y003113D01*
X031540Y003338D02*
X031240Y003338D01*
X031240Y003113D02*
X031390Y003113D01*
X024060Y006315D02*
X024060Y006465D01*
X024060Y006390D02*
X023610Y006390D01*
X023610Y006315D02*
X023610Y006465D01*
X023685Y006622D02*
X023985Y006622D01*
X024060Y006697D01*
X024060Y006847D01*
X023985Y006922D01*
X023985Y007082D02*
X024060Y007158D01*
X024060Y007308D01*
X023985Y007383D01*
X023835Y007383D01*
X023760Y007308D01*
X023760Y007233D01*
X023835Y007082D01*
X023610Y007082D01*
X023610Y007383D01*
X023685Y006922D02*
X023610Y006847D01*
X023610Y006697D01*
X023685Y006622D01*
X019546Y007028D02*
X019546Y007178D01*
X019546Y007103D02*
X019096Y007103D01*
X019096Y007028D02*
X019096Y007178D01*
X019171Y007335D02*
X019471Y007335D01*
X019546Y007410D01*
X019546Y007560D01*
X019471Y007635D01*
X019471Y007795D02*
X019546Y007870D01*
X019546Y008020D01*
X019471Y008095D01*
X019396Y008095D01*
X019321Y008020D01*
X019321Y007945D01*
X019321Y008020D02*
X019246Y008095D01*
X019171Y008095D01*
X019096Y008020D01*
X019096Y007870D01*
X019171Y007795D01*
X019171Y007635D02*
X019096Y007560D01*
X019096Y007410D01*
X019171Y007335D01*
X014969Y007410D02*
X014969Y007560D01*
X014894Y007635D01*
X014969Y007795D02*
X014669Y008095D01*
X014594Y008095D01*
X014519Y008020D01*
X014519Y007870D01*
X014594Y007795D01*
X014594Y007635D02*
X014519Y007560D01*
X014519Y007410D01*
X014594Y007335D01*
X014894Y007335D01*
X014969Y007410D01*
X014969Y007178D02*
X014969Y007028D01*
X014969Y007103D02*
X014519Y007103D01*
X014519Y007028D02*
X014519Y007178D01*
X014969Y007795D02*
X014969Y008095D01*
X012794Y008422D02*
X005550Y008422D01*
X005550Y001178D01*
X012794Y001178D01*
X012794Y008422D01*
X012794Y008757D02*
X012794Y016001D01*
X005550Y016001D01*
X005550Y008757D01*
X012794Y008757D01*
X013182Y014847D02*
X013182Y019776D01*
X015446Y019776D01*
X015446Y014847D01*
X013182Y014847D01*
X013457Y015123D02*
X013457Y019501D01*
X014607Y019501D01*
X014607Y015123D01*
X013457Y015123D01*
X014607Y015123D02*
X015170Y015123D01*
X015170Y019501D01*
X014607Y019501D01*
X012794Y016335D02*
X012794Y023580D01*
X005550Y023580D01*
X005550Y016335D01*
X012794Y016335D01*
X018642Y022155D02*
X018642Y028555D01*
X023422Y028555D01*
X023422Y022155D01*
X018642Y022155D01*
X018802Y022935D02*
X018802Y023055D01*
X018922Y023055D01*
X018922Y022935D01*
X018802Y022935D01*
X019882Y022935D02*
X019882Y023055D01*
X020002Y023055D01*
X020002Y022935D01*
X019882Y022935D01*
X019882Y023995D02*
X019882Y024115D01*
X020002Y024115D01*
X020002Y023995D01*
X019882Y023995D01*
X020962Y023975D02*
X020962Y024095D01*
X021082Y024095D01*
X021082Y023975D01*
X020962Y023975D01*
X020962Y023035D02*
X020962Y022915D01*
X021082Y022915D01*
X021082Y023035D01*
X020962Y023035D01*
X022042Y023055D02*
X022042Y022935D01*
X022162Y022935D01*
X022162Y023055D01*
X022042Y023055D01*
X022042Y023995D02*
X022042Y024115D01*
X022162Y024115D01*
X022162Y023995D01*
X022042Y023995D01*
X022042Y025075D02*
X022042Y025195D01*
X022162Y025195D01*
X022162Y025075D01*
X022042Y025075D01*
X021082Y025055D02*
X020962Y025055D01*
X020962Y025175D01*
X021082Y025175D01*
X021082Y025055D01*
X021102Y026055D02*
X020982Y026055D01*
X020982Y026175D01*
X021102Y026175D01*
X021102Y026055D01*
X022062Y026075D02*
X022062Y026195D01*
X022182Y026195D01*
X022182Y026075D01*
X022062Y026075D01*
X023142Y026075D02*
X023142Y026195D01*
X023262Y026195D01*
X023262Y026075D01*
X023142Y026075D01*
X023122Y025195D02*
X023122Y025075D01*
X023242Y025075D01*
X023242Y025195D01*
X023122Y025195D01*
X023122Y023055D02*
X023122Y022935D01*
X023242Y022935D01*
X023242Y023055D01*
X023122Y023055D01*
X023690Y022733D02*
X024202Y022733D01*
X023690Y022733D02*
X023690Y021709D01*
X023690Y021631D01*
X024202Y021631D01*
X024202Y021709D01*
X023690Y021709D01*
X023690Y021670D02*
X024202Y021670D01*
X024753Y021670D02*
X025265Y021670D01*
X025265Y021631D02*
X025265Y021709D01*
X025265Y022733D01*
X024753Y022733D01*
X024753Y021709D02*
X024753Y021631D01*
X025265Y021631D01*
X025265Y021709D02*
X024753Y021709D01*
X025707Y020843D02*
X025707Y020676D01*
X025629Y020676D01*
X025629Y020519D01*
X025707Y020519D01*
X025707Y020351D01*
X026495Y020351D01*
X026495Y020843D01*
X025707Y020843D01*
X025758Y020002D02*
X025933Y020002D01*
X025991Y019943D01*
X025991Y019885D01*
X025933Y019827D01*
X025758Y019827D01*
X025758Y020002D02*
X025758Y019651D01*
X025933Y019651D01*
X025991Y019710D01*
X025991Y019768D01*
X025933Y019827D01*
X026126Y019885D02*
X026243Y020002D01*
X026243Y019651D01*
X026126Y019651D02*
X026360Y019651D01*
X026072Y022280D02*
X026072Y022871D01*
X026249Y022871D02*
X026741Y022871D01*
X026741Y022517D01*
X026249Y022517D01*
X026249Y022871D01*
X026249Y023304D01*
X027233Y023304D01*
X027233Y022517D01*
X026741Y022517D01*
X026741Y022280D02*
X026072Y022280D01*
X026398Y023723D02*
X026631Y024073D01*
X026766Y023956D02*
X026883Y024073D01*
X026883Y023723D01*
X026999Y023723D02*
X026766Y023723D01*
X026631Y023723D02*
X026398Y024073D01*
X022162Y027195D02*
X022042Y027195D01*
X022042Y027315D01*
X022162Y027315D01*
X022162Y027195D01*
X022182Y028195D02*
X022062Y028195D01*
X022062Y028315D01*
X022182Y028315D01*
X022182Y028195D01*
X021102Y028175D02*
X020982Y028175D01*
X020982Y028295D01*
X021102Y028295D01*
X021102Y028175D01*
X021082Y027295D02*
X020962Y027295D01*
X020962Y027175D01*
X021082Y027175D01*
X021082Y027295D01*
X020002Y027315D02*
X020002Y027195D01*
X019882Y027195D01*
X019882Y027315D01*
X020002Y027315D01*
X020022Y028195D02*
X019902Y028195D01*
X019902Y028315D01*
X020022Y028315D01*
X020022Y028195D01*
X020022Y026195D02*
X020022Y026075D01*
X019902Y026075D01*
X019902Y026195D01*
X020022Y026195D01*
X018942Y026195D02*
X018942Y026075D01*
X018822Y026075D01*
X018822Y026195D01*
X018942Y026195D01*
X018922Y025195D02*
X018802Y025195D01*
X018802Y025075D01*
X018922Y025075D01*
X018922Y025195D01*
X019882Y025195D02*
X019882Y025075D01*
X020002Y025075D01*
X020002Y025195D01*
X019882Y025195D01*
X017912Y027241D02*
X017912Y031572D01*
X011219Y031572D01*
X011219Y027241D01*
X017912Y027241D01*
X018857Y032831D02*
X018857Y043580D01*
X011495Y043580D01*
X011495Y032831D01*
X018857Y032831D01*
X024280Y041365D02*
X024280Y041444D01*
X024792Y041444D01*
X024792Y041365D01*
X024280Y041365D01*
X024280Y041404D02*
X024792Y041404D01*
X025343Y041404D02*
X025855Y041404D01*
X025855Y041365D02*
X025855Y041444D01*
X025855Y042467D01*
X025343Y042467D01*
X024792Y042467D02*
X024280Y042467D01*
X024280Y041444D01*
X025343Y041444D02*
X025343Y041365D01*
X025855Y041365D01*
X025855Y041444D02*
X025343Y041444D01*
X031842Y039618D02*
X031842Y039468D01*
X031917Y039393D01*
X031842Y039618D02*
X031917Y039693D01*
X031992Y039693D01*
X032293Y039393D01*
X032293Y039693D01*
X032293Y039233D02*
X032293Y038933D01*
X031842Y038933D01*
X032068Y038773D02*
X032068Y038472D01*
X032143Y038312D02*
X032218Y038312D01*
X032293Y038237D01*
X032293Y038087D01*
X032218Y038012D01*
X032068Y038087D02*
X031992Y038012D01*
X031917Y038012D01*
X031842Y038087D01*
X031842Y038237D01*
X031917Y038312D01*
X032068Y038237D02*
X032143Y038312D01*
X032068Y038237D02*
X032068Y038087D01*
X031917Y037852D02*
X031842Y037852D01*
X031917Y037852D02*
X032068Y037702D01*
X032293Y037702D01*
X032068Y037702D02*
X031917Y037552D01*
X031842Y037552D01*
X031917Y037391D02*
X031842Y037316D01*
X031842Y037166D01*
X031917Y037091D01*
X031992Y037091D01*
X032068Y037166D01*
X032068Y037316D01*
X032143Y037391D01*
X032218Y037391D01*
X032293Y037316D01*
X032293Y037166D01*
X032218Y037091D01*
X032190Y034518D02*
X031890Y034518D01*
X032040Y034518D02*
X032040Y034068D01*
X032350Y034068D02*
X032350Y034518D01*
X032500Y034368D01*
X032651Y034518D01*
X032651Y034068D01*
X032811Y034293D02*
X033111Y034293D01*
X033271Y034368D02*
X033346Y034293D01*
X033496Y034293D01*
X033571Y034218D01*
X033571Y034143D01*
X033496Y034068D01*
X033346Y034068D01*
X033271Y034143D01*
X033271Y034368D02*
X033271Y034443D01*
X033346Y034518D01*
X033496Y034518D01*
X033571Y034443D01*
X033731Y034518D02*
X033731Y034068D01*
X033882Y034218D01*
X034032Y034068D01*
X034032Y034518D01*
X034192Y034518D02*
X034417Y034518D01*
X034492Y034443D01*
X034492Y034143D01*
X034417Y034068D01*
X034192Y034068D01*
X034192Y034518D01*
X034192Y033337D02*
X034492Y033337D01*
X034342Y033337D02*
X034342Y032886D01*
X034032Y032886D02*
X033882Y033037D01*
X033957Y033037D02*
X033731Y033037D01*
X033731Y032886D02*
X033731Y033337D01*
X033957Y033337D01*
X034032Y033262D01*
X034032Y033112D01*
X033957Y033037D01*
X033571Y033112D02*
X033271Y033112D01*
X033271Y033187D02*
X033421Y033337D01*
X033571Y033187D01*
X033571Y032886D01*
X033271Y032886D02*
X033271Y033187D01*
X033111Y033262D02*
X033036Y033337D01*
X032886Y033337D01*
X032811Y033262D01*
X032811Y033187D01*
X032886Y033112D01*
X033036Y033112D01*
X033111Y033037D01*
X033111Y032962D01*
X033036Y032886D01*
X032886Y032886D01*
X032811Y032962D01*
X032651Y032962D02*
X032651Y033337D01*
X032350Y033337D02*
X032350Y032962D01*
X032425Y032886D01*
X032575Y032886D01*
X032651Y032962D01*
X032190Y033112D02*
X031890Y033112D01*
X031730Y033337D02*
X031730Y032886D01*
X031429Y032886D02*
X031429Y033337D01*
X031580Y033187D01*
X031730Y033337D01*
X031269Y033337D02*
X030969Y033337D01*
X031119Y033337D02*
X031119Y032886D01*
X030809Y032962D02*
X030809Y033037D01*
X030734Y033112D01*
X030584Y033112D01*
X030509Y033187D01*
X030509Y033262D01*
X030584Y033337D01*
X030734Y033337D01*
X030809Y033262D01*
X030809Y032962D02*
X030734Y032886D01*
X030584Y032886D01*
X030509Y032962D01*
X031505Y034068D02*
X031429Y034143D01*
X031505Y034068D02*
X031655Y034068D01*
X031730Y034143D01*
X031730Y034218D01*
X031655Y034293D01*
X031505Y034293D01*
X031429Y034368D01*
X031429Y034443D01*
X031505Y034518D01*
X031655Y034518D01*
X031730Y034443D01*
X035255Y029456D02*
X035255Y026700D01*
X038011Y026700D01*
X038011Y029456D01*
X035255Y029456D01*
X037515Y029078D02*
X037517Y029099D01*
X037523Y029119D01*
X037532Y029139D01*
X037544Y029156D01*
X037559Y029170D01*
X037577Y029182D01*
X037597Y029190D01*
X037617Y029195D01*
X037638Y029196D01*
X037659Y029193D01*
X037679Y029187D01*
X037698Y029176D01*
X037715Y029163D01*
X037728Y029147D01*
X037739Y029129D01*
X037747Y029109D01*
X037751Y029089D01*
X037751Y029067D01*
X037747Y029047D01*
X037739Y029027D01*
X037728Y029009D01*
X037715Y028993D01*
X037698Y028980D01*
X037679Y028969D01*
X037659Y028963D01*
X037638Y028960D01*
X037617Y028961D01*
X037597Y028966D01*
X037577Y028974D01*
X037559Y028986D01*
X037544Y029000D01*
X037532Y029017D01*
X037523Y029037D01*
X037517Y029057D01*
X037515Y029078D01*
X038815Y029225D02*
X038815Y028925D01*
X039040Y028925D01*
X038965Y029075D01*
X038965Y029150D01*
X039040Y029225D01*
X039190Y029225D01*
X039265Y029150D01*
X039265Y029000D01*
X039190Y028925D01*
X039265Y028765D02*
X038815Y028765D01*
X038815Y028465D02*
X039265Y028465D01*
X039115Y028615D01*
X039265Y028765D01*
X039265Y028304D02*
X039115Y028154D01*
X039115Y028229D02*
X039115Y028004D01*
X039265Y028004D02*
X038815Y028004D01*
X038815Y028229D01*
X038890Y028304D01*
X039040Y028304D01*
X039115Y028229D01*
X039040Y029385D02*
X038965Y029535D01*
X038965Y029611D01*
X039040Y029686D01*
X039190Y029686D01*
X039265Y029611D01*
X039265Y029460D01*
X039190Y029385D01*
X039040Y029385D02*
X038815Y029385D01*
X038815Y029686D01*
X038890Y029846D02*
X038815Y029921D01*
X038815Y030071D01*
X038890Y030146D01*
X039190Y029846D01*
X039265Y029921D01*
X039265Y030071D01*
X039190Y030146D01*
X038890Y030146D01*
X038890Y030306D02*
X038815Y030381D01*
X038815Y030531D01*
X038890Y030606D01*
X039190Y030306D01*
X039265Y030381D01*
X039265Y030531D01*
X039190Y030606D01*
X038890Y030606D01*
X039040Y030766D02*
X039040Y031067D01*
X038965Y031227D02*
X038815Y031377D01*
X039265Y031377D01*
X039265Y031227D02*
X039265Y031527D01*
X039190Y030306D02*
X038890Y030306D01*
X038890Y029846D02*
X039190Y029846D01*
X040965Y027746D02*
X040890Y027671D01*
X040890Y027520D01*
X040965Y027445D01*
X041115Y027285D02*
X041115Y026985D01*
X041265Y026825D02*
X041340Y026750D01*
X041340Y026600D01*
X041265Y026525D01*
X040965Y026825D01*
X041265Y026825D01*
X040965Y026825D02*
X040890Y026750D01*
X040890Y026600D01*
X040965Y026525D01*
X041265Y026525D01*
X041265Y026364D02*
X041340Y026289D01*
X041340Y026139D01*
X041265Y026064D01*
X040965Y026364D01*
X041265Y026364D01*
X041265Y026064D02*
X040965Y026064D01*
X040890Y026139D01*
X040890Y026289D01*
X040965Y026364D01*
X040890Y025904D02*
X040890Y025604D01*
X041115Y025604D01*
X041040Y025754D01*
X041040Y025829D01*
X041115Y025904D01*
X041265Y025904D01*
X041340Y025829D01*
X041340Y025679D01*
X041265Y025604D01*
X041265Y025444D02*
X041340Y025369D01*
X041340Y025218D01*
X041265Y025143D01*
X041115Y025143D02*
X041040Y025293D01*
X041040Y025369D01*
X041115Y025444D01*
X041265Y025444D01*
X041115Y025143D02*
X040890Y025143D01*
X040890Y025444D01*
X040890Y024983D02*
X041340Y024983D01*
X041190Y024833D01*
X041340Y024683D01*
X040890Y024683D01*
X041019Y024776D02*
X038755Y024776D01*
X038755Y009847D01*
X041019Y009847D01*
X041019Y024776D01*
X040965Y024523D02*
X041115Y024523D01*
X041190Y024448D01*
X041190Y024223D01*
X041190Y024373D02*
X041340Y024523D01*
X041340Y024223D02*
X040890Y024223D01*
X040890Y024448D01*
X040965Y024523D01*
X040743Y024501D02*
X040180Y024501D01*
X040180Y010123D01*
X039030Y010123D01*
X039030Y024501D01*
X040180Y024501D01*
X040743Y024501D02*
X040743Y010123D01*
X040180Y010123D01*
X026982Y014938D02*
X026682Y014938D01*
X026682Y015389D01*
X026521Y015239D02*
X026521Y014938D01*
X026521Y015164D02*
X026221Y015164D01*
X026221Y015239D02*
X026371Y015389D01*
X026521Y015239D01*
X026221Y015239D02*
X026221Y014938D01*
X025911Y014938D02*
X025911Y015389D01*
X025761Y015389D02*
X026061Y015389D01*
X025601Y015389D02*
X025300Y014938D01*
X025140Y015164D02*
X024840Y015164D01*
X024680Y015389D02*
X024380Y015389D01*
X024380Y014938D01*
X024680Y014938D01*
X024530Y015164D02*
X024380Y015164D01*
X024219Y015013D02*
X024219Y015314D01*
X024144Y015389D01*
X023919Y015389D01*
X023919Y014938D01*
X024144Y014938D01*
X024219Y015013D01*
X023759Y014938D02*
X023759Y015239D01*
X023609Y015389D01*
X023459Y015239D01*
X023459Y014938D01*
X023459Y015164D02*
X023759Y015164D01*
X025300Y015389D02*
X025601Y014938D01*
X019963Y018999D02*
X019963Y019450D01*
X019738Y019225D01*
X020038Y019225D01*
X019578Y019375D02*
X019503Y019450D01*
X019353Y019450D01*
X019278Y019375D01*
X019278Y019074D01*
X019353Y018999D01*
X019503Y018999D01*
X019578Y019074D01*
X019121Y018999D02*
X018971Y018999D01*
X019046Y018999D02*
X019046Y019450D01*
X018971Y019450D02*
X019121Y019450D01*
X010442Y024141D02*
X010442Y037526D01*
X002489Y037526D01*
X002489Y024141D01*
X010442Y024141D01*
X005744Y023107D02*
X005746Y023140D01*
X005752Y023172D01*
X005761Y023204D01*
X005775Y023234D01*
X005791Y023262D01*
X005811Y023288D01*
X005834Y023312D01*
X005860Y023333D01*
X005888Y023350D01*
X005918Y023365D01*
X005949Y023375D01*
X005981Y023382D01*
X006014Y023385D01*
X006047Y023384D01*
X006079Y023379D01*
X006111Y023370D01*
X006142Y023358D01*
X006170Y023342D01*
X006197Y023323D01*
X006221Y023301D01*
X006243Y023276D01*
X006261Y023248D01*
X006276Y023219D01*
X006288Y023188D01*
X006296Y023156D01*
X006300Y023123D01*
X006300Y023091D01*
X006296Y023058D01*
X006288Y023026D01*
X006276Y022995D01*
X006261Y022966D01*
X006243Y022938D01*
X006221Y022913D01*
X006197Y022891D01*
X006170Y022872D01*
X006142Y022856D01*
X006111Y022844D01*
X006079Y022835D01*
X006047Y022830D01*
X006014Y022829D01*
X005981Y022832D01*
X005949Y022839D01*
X005918Y022849D01*
X005888Y022864D01*
X005860Y022881D01*
X005834Y022902D01*
X005811Y022926D01*
X005791Y022952D01*
X005775Y022980D01*
X005761Y023010D01*
X005752Y023042D01*
X005746Y023074D01*
X005744Y023107D01*
X005447Y016896D02*
X005447Y016445D01*
X005297Y016445D02*
X005597Y016445D01*
X005297Y016746D02*
X005447Y016896D01*
X005136Y016896D02*
X004836Y016896D01*
X004986Y016896D02*
X004986Y016445D01*
X004676Y016445D02*
X004526Y016596D01*
X004601Y016596D02*
X004376Y016596D01*
X004376Y016445D02*
X004376Y016896D01*
X004601Y016896D01*
X004676Y016821D01*
X004676Y016671D01*
X004601Y016596D01*
X005744Y015528D02*
X005746Y015561D01*
X005752Y015593D01*
X005761Y015625D01*
X005775Y015655D01*
X005791Y015683D01*
X005811Y015709D01*
X005834Y015733D01*
X005860Y015754D01*
X005888Y015771D01*
X005918Y015786D01*
X005949Y015796D01*
X005981Y015803D01*
X006014Y015806D01*
X006047Y015805D01*
X006079Y015800D01*
X006111Y015791D01*
X006142Y015779D01*
X006170Y015763D01*
X006197Y015744D01*
X006221Y015722D01*
X006243Y015697D01*
X006261Y015669D01*
X006276Y015640D01*
X006288Y015609D01*
X006296Y015577D01*
X006300Y015544D01*
X006300Y015512D01*
X006296Y015479D01*
X006288Y015447D01*
X006276Y015416D01*
X006261Y015387D01*
X006243Y015359D01*
X006221Y015334D01*
X006197Y015312D01*
X006170Y015293D01*
X006142Y015277D01*
X006111Y015265D01*
X006079Y015256D01*
X006047Y015251D01*
X006014Y015250D01*
X005981Y015253D01*
X005949Y015260D01*
X005918Y015270D01*
X005888Y015285D01*
X005860Y015302D01*
X005834Y015323D01*
X005811Y015347D01*
X005791Y015373D01*
X005775Y015401D01*
X005761Y015431D01*
X005752Y015463D01*
X005746Y015495D01*
X005744Y015528D01*
X005532Y013175D02*
X005381Y013175D01*
X005306Y013100D01*
X005146Y013175D02*
X004846Y013175D01*
X004996Y013175D02*
X004996Y012725D01*
X004686Y012725D02*
X004536Y012875D01*
X004611Y012875D02*
X004386Y012875D01*
X004386Y012725D02*
X004386Y013175D01*
X004611Y013175D01*
X004686Y013100D01*
X004686Y012950D01*
X004611Y012875D01*
X005306Y012725D02*
X005607Y013025D01*
X005607Y013100D01*
X005532Y013175D01*
X005607Y012725D02*
X005306Y012725D01*
X005372Y009465D02*
X005522Y009465D01*
X005597Y009390D01*
X005597Y009315D01*
X005522Y009240D01*
X005597Y009164D01*
X005597Y009089D01*
X005522Y009014D01*
X005372Y009014D01*
X005297Y009089D01*
X005447Y009240D02*
X005522Y009240D01*
X005297Y009390D02*
X005372Y009465D01*
X005136Y009465D02*
X004836Y009465D01*
X004986Y009465D02*
X004986Y009014D01*
X004676Y009014D02*
X004526Y009164D01*
X004601Y009164D02*
X004376Y009164D01*
X004376Y009014D02*
X004376Y009465D01*
X004601Y009465D01*
X004676Y009390D01*
X004676Y009240D01*
X004601Y009164D01*
X005744Y007950D02*
X005746Y007983D01*
X005752Y008015D01*
X005761Y008047D01*
X005775Y008077D01*
X005791Y008105D01*
X005811Y008131D01*
X005834Y008155D01*
X005860Y008176D01*
X005888Y008193D01*
X005918Y008208D01*
X005949Y008218D01*
X005981Y008225D01*
X006014Y008228D01*
X006047Y008227D01*
X006079Y008222D01*
X006111Y008213D01*
X006142Y008201D01*
X006170Y008185D01*
X006197Y008166D01*
X006221Y008144D01*
X006243Y008119D01*
X006261Y008091D01*
X006276Y008062D01*
X006288Y008031D01*
X006296Y007999D01*
X006300Y007966D01*
X006300Y007934D01*
X006296Y007901D01*
X006288Y007869D01*
X006276Y007838D01*
X006261Y007809D01*
X006243Y007781D01*
X006221Y007756D01*
X006197Y007734D01*
X006170Y007715D01*
X006142Y007699D01*
X006111Y007687D01*
X006079Y007678D01*
X006047Y007673D01*
X006014Y007672D01*
X005981Y007675D01*
X005949Y007682D01*
X005918Y007692D01*
X005888Y007707D01*
X005860Y007724D01*
X005834Y007745D01*
X005811Y007769D01*
X005791Y007795D01*
X005775Y007823D01*
X005761Y007853D01*
X005752Y007885D01*
X005746Y007917D01*
X005744Y007950D01*
X032394Y025068D02*
X032544Y025218D01*
X032694Y025068D01*
X032694Y025518D01*
X032854Y025518D02*
X032854Y025293D01*
X033004Y025368D01*
X033079Y025368D01*
X033155Y025293D01*
X033155Y025143D01*
X033079Y025068D01*
X032929Y025068D01*
X032854Y025143D01*
X032854Y025518D02*
X033155Y025518D01*
X033315Y025518D02*
X033315Y025293D01*
X033465Y025368D01*
X033540Y025368D01*
X033615Y025293D01*
X033615Y025143D01*
X033540Y025068D01*
X033390Y025068D01*
X033315Y025143D01*
X033315Y025518D02*
X033615Y025518D01*
X033775Y025443D02*
X033850Y025518D01*
X034000Y025518D01*
X034075Y025443D01*
X033775Y025143D01*
X033850Y025068D01*
X034000Y025068D01*
X034075Y025143D01*
X034075Y025443D01*
X034235Y025443D02*
X034311Y025518D01*
X034461Y025518D01*
X034536Y025443D01*
X034235Y025143D01*
X034311Y025068D01*
X034461Y025068D01*
X034536Y025143D01*
X034536Y025443D01*
X034696Y025293D02*
X034996Y025293D01*
X035156Y025068D02*
X035457Y025518D01*
X035617Y025518D02*
X035917Y025518D01*
X035767Y025518D02*
X035767Y025068D01*
X036077Y025068D02*
X036077Y025368D01*
X036227Y025518D01*
X036377Y025368D01*
X036377Y025068D01*
X036537Y025068D02*
X036537Y025518D01*
X036377Y025293D02*
X036077Y025293D01*
X036537Y025068D02*
X036838Y025068D01*
X035457Y025068D02*
X035156Y025518D01*
X034235Y025443D02*
X034235Y025143D01*
X033775Y025143D02*
X033775Y025443D01*
X032394Y025518D02*
X032394Y025068D01*
X040965Y027746D02*
X041040Y027746D01*
X041340Y027445D01*
X041340Y027746D01*
D21*
X027479Y041154D03*
X021278Y041822D03*
D22*
X018385Y024898D03*
X015816Y025095D03*
X013286Y025105D03*
X011347Y025130D03*
D23*
X012361Y025976D03*
X014644Y026227D03*
X014625Y026857D03*
X016751Y025863D03*
X018916Y025863D03*
X026150Y018580D03*
X028267Y018530D03*
D24*
X023148Y013215D03*
X019753Y024928D03*
D25*
X025895Y026158D02*
X025899Y026320D01*
X025911Y026482D01*
X025931Y026643D01*
X025959Y026803D01*
X025994Y026962D01*
X026037Y027118D01*
X026088Y027272D01*
X026147Y027424D01*
X026213Y027572D01*
X026285Y027717D01*
X026365Y027858D01*
X026452Y027995D01*
X026546Y028128D01*
X026646Y028256D01*
X026752Y028379D01*
X026864Y028496D01*
X026981Y028608D01*
X027104Y028714D01*
X027232Y028814D01*
X027365Y028908D01*
X027502Y028995D01*
X027643Y029075D01*
X027788Y029147D01*
X027936Y029213D01*
X028088Y029272D01*
X028242Y029323D01*
X028398Y029366D01*
X028557Y029401D01*
X028717Y029429D01*
X028878Y029449D01*
X029040Y029461D01*
X029202Y029465D01*
X029364Y029461D01*
X029526Y029449D01*
X029687Y029429D01*
X029847Y029401D01*
X030006Y029366D01*
X030162Y029323D01*
X030316Y029272D01*
X030468Y029213D01*
X030616Y029147D01*
X030761Y029075D01*
X030902Y028995D01*
X031039Y028908D01*
X031172Y028814D01*
X031300Y028714D01*
X031423Y028608D01*
X031540Y028496D01*
X031652Y028379D01*
X031758Y028256D01*
X031858Y028128D01*
X031952Y027995D01*
X032039Y027858D01*
X032119Y027717D01*
X032191Y027572D01*
X032257Y027424D01*
X032316Y027272D01*
X032367Y027118D01*
X032410Y026962D01*
X032445Y026803D01*
X032473Y026643D01*
X032493Y026482D01*
X032505Y026320D01*
X032509Y026158D01*
X032505Y025996D01*
X032493Y025834D01*
X032473Y025673D01*
X032445Y025513D01*
X032410Y025354D01*
X032367Y025198D01*
X032316Y025044D01*
X032257Y024892D01*
X032191Y024744D01*
X032119Y024599D01*
X032039Y024458D01*
X031952Y024321D01*
X031858Y024188D01*
X031758Y024060D01*
X031652Y023937D01*
X031540Y023820D01*
X031423Y023708D01*
X031300Y023602D01*
X031172Y023502D01*
X031039Y023408D01*
X030902Y023321D01*
X030761Y023241D01*
X030616Y023169D01*
X030468Y023103D01*
X030316Y023044D01*
X030162Y022993D01*
X030006Y022950D01*
X029847Y022915D01*
X029687Y022887D01*
X029526Y022867D01*
X029364Y022855D01*
X029202Y022851D01*
X029040Y022855D01*
X028878Y022867D01*
X028717Y022887D01*
X028557Y022915D01*
X028398Y022950D01*
X028242Y022993D01*
X028088Y023044D01*
X027936Y023103D01*
X027788Y023169D01*
X027643Y023241D01*
X027502Y023321D01*
X027365Y023408D01*
X027232Y023502D01*
X027104Y023602D01*
X026981Y023708D01*
X026864Y023820D01*
X026752Y023937D01*
X026646Y024060D01*
X026546Y024188D01*
X026452Y024321D01*
X026365Y024458D01*
X026285Y024599D01*
X026213Y024744D01*
X026147Y024892D01*
X026088Y025044D01*
X026037Y025198D01*
X025994Y025354D01*
X025959Y025513D01*
X025931Y025673D01*
X025911Y025834D01*
X025899Y025996D01*
X025895Y026158D01*
D26*
X031711Y009475D02*
X031711Y003176D01*
X041160Y003176D01*
X041160Y009475D01*
X031711Y009475D01*
D27*
X036485Y011887D03*
X036879Y011887D03*
D28*
X004246Y012300D03*
X004236Y008589D03*
X004236Y016020D03*
D29*
X040078Y026365D03*
X040078Y029495D03*
D30*
X040078Y027979D03*
X040078Y027881D03*
D31*
X040333Y027841D03*
X040333Y028019D03*
X039822Y028019D03*
X039822Y027841D03*
D32*
X029054Y021581D02*
X029054Y021385D01*
X029054Y021581D02*
X028857Y021581D01*
X027282Y021581D02*
X027085Y021581D01*
X027085Y021385D01*
X027085Y019810D02*
X027085Y019613D01*
X027282Y019613D01*
X028857Y019613D02*
X028896Y019613D01*
X029054Y019770D01*
X029054Y019810D01*
D33*
X029428Y020007D03*
D34*
X025845Y020597D03*
D35*
X009172Y041660D02*
X008778Y041660D01*
X009169Y041667D02*
X009169Y042054D01*
X009172Y042054D01*
X009172Y043235D02*
X009172Y043629D01*
X006416Y041660D02*
X006022Y041660D01*
X006022Y042054D01*
X006022Y043235D02*
X006022Y043629D01*
M02*
