G75*
G70*
%OFA0B0*%
%FSLAX24Y24*%
%IPPOS*%
%LPD*%
%AMOC8*
5,1,8,0,0,1.08239X$1,22.5*
%
%ADD10C,0.0040*%
%ADD11C,0.0220*%
%ADD12C,0.0010*%
%ADD13C,0.0080*%
%ADD14C,0.0030*%
%ADD15R,0.0180X0.0300*%
%ADD16C,0.0060*%
%ADD17C,0.0160*%
%ADD18C,0.0050*%
%ADD19R,0.0160X0.0230*%
%ADD20R,0.0300X0.0180*%
%ADD21C,0.0020*%
%ADD22R,0.0230X0.0240*%
D10*
X018344Y024575D02*
X018651Y024575D01*
X018804Y024728D01*
X018651Y024881D01*
X018344Y024881D01*
X018344Y025035D02*
X018344Y025265D01*
X018421Y025342D01*
X018727Y025342D01*
X018804Y025265D01*
X018804Y025035D01*
X018344Y025035D01*
X018574Y024881D02*
X018574Y024575D01*
X018574Y025495D02*
X018574Y025649D01*
X018344Y025495D02*
X018344Y025802D01*
X018574Y025956D02*
X018574Y026263D01*
X018421Y026416D02*
X018344Y026493D01*
X018344Y026646D01*
X018421Y026723D01*
X018421Y026877D02*
X018344Y026953D01*
X018344Y027107D01*
X018421Y027183D01*
X018574Y027183D01*
X018651Y027107D01*
X018651Y027030D01*
X018574Y026877D01*
X018804Y026877D01*
X018804Y027183D01*
X018727Y026723D02*
X018804Y026646D01*
X018804Y026493D01*
X018727Y026416D01*
X018421Y026416D01*
X018804Y025802D02*
X018804Y025495D01*
X018344Y025495D01*
X021696Y025509D02*
X021696Y025816D01*
X021696Y025663D02*
X022157Y025663D01*
X022003Y025509D01*
X022080Y025970D02*
X022157Y026046D01*
X022157Y026200D01*
X022080Y026276D01*
X021773Y025970D01*
X021696Y026046D01*
X021696Y026200D01*
X021773Y026276D01*
X022080Y026276D01*
X022003Y026430D02*
X021773Y026430D01*
X021696Y026507D01*
X021696Y026737D01*
X022003Y026737D01*
X021926Y026890D02*
X021926Y027044D01*
X021696Y026890D02*
X022157Y026890D01*
X022157Y027197D01*
X022080Y025970D02*
X021773Y025970D01*
X026756Y026170D02*
X027216Y026170D01*
X027216Y026400D01*
X027139Y026477D01*
X026986Y026477D01*
X026909Y026400D01*
X026909Y026170D01*
X026909Y026323D02*
X026756Y026477D01*
X026756Y026630D02*
X026756Y026937D01*
X026756Y026784D02*
X027216Y026784D01*
X027063Y026630D01*
X026986Y026016D02*
X026986Y025709D01*
X027063Y025556D02*
X026756Y025249D01*
X026756Y025556D01*
X027063Y025556D02*
X027139Y025556D01*
X027216Y025479D01*
X027216Y025326D01*
X027139Y025249D01*
X027139Y025095D02*
X026832Y025095D01*
X026756Y025019D01*
X026756Y024865D01*
X026832Y024789D01*
X027139Y024789D01*
X027216Y024865D01*
X027216Y025019D01*
X027139Y025095D01*
X026909Y024942D02*
X026756Y025095D01*
X026756Y024635D02*
X027216Y024635D01*
X027063Y024482D01*
X027216Y024328D01*
X026756Y024328D01*
X027572Y022506D02*
X027495Y022430D01*
X027495Y022276D01*
X027572Y022199D01*
X027879Y022506D01*
X027572Y022506D01*
X027572Y022199D02*
X027879Y022199D01*
X027956Y022276D01*
X027956Y022430D01*
X027879Y022506D01*
X027879Y022046D02*
X027802Y022046D01*
X027495Y021739D01*
X027495Y022046D01*
X027879Y022046D02*
X027956Y021969D01*
X027956Y021816D01*
X027879Y021739D01*
X027879Y021586D02*
X027956Y021509D01*
X027956Y021355D01*
X027879Y021279D01*
X027572Y021279D01*
X027495Y021355D01*
X027495Y021509D01*
X027572Y021586D01*
X027419Y021125D02*
X027419Y020818D01*
X027572Y020665D02*
X027495Y020588D01*
X027495Y020435D01*
X027572Y020358D01*
X027879Y020358D01*
X027956Y020435D01*
X027956Y020588D01*
X027879Y020665D01*
X027879Y020204D02*
X027956Y020128D01*
X027956Y019974D01*
X027879Y019897D01*
X027572Y019897D01*
X027495Y019974D01*
X027495Y020128D01*
X027572Y020204D01*
X028495Y020358D02*
X028495Y020665D01*
X028495Y020511D02*
X028956Y020511D01*
X028802Y020358D01*
X028879Y020818D02*
X028572Y020818D01*
X028879Y021125D01*
X028572Y021125D01*
X028495Y021048D01*
X028495Y020895D01*
X028572Y020818D01*
X028879Y020818D02*
X028956Y020895D01*
X028956Y021048D01*
X028879Y021125D01*
X028879Y021279D02*
X028956Y021355D01*
X028956Y021509D01*
X028879Y021586D01*
X028572Y021279D01*
X028495Y021355D01*
X028495Y021509D01*
X028572Y021586D01*
X028879Y021586D01*
X028802Y021739D02*
X028802Y021969D01*
X028726Y022046D01*
X028495Y022046D01*
X028495Y022199D02*
X028956Y022199D01*
X028956Y022506D01*
X028726Y022353D02*
X028726Y022199D01*
X028802Y021739D02*
X028495Y021739D01*
X028572Y021279D02*
X028879Y021279D01*
X029847Y024382D02*
X030154Y024382D01*
X029847Y024689D01*
X029847Y024766D01*
X029924Y024843D01*
X030077Y024843D01*
X030154Y024766D01*
X030307Y024766D02*
X030384Y024843D01*
X030538Y024843D01*
X030614Y024766D01*
X030614Y024459D01*
X030538Y024382D01*
X030384Y024382D01*
X030307Y024459D01*
X030768Y024612D02*
X031075Y024612D01*
X031228Y024459D02*
X031305Y024382D01*
X031458Y024382D01*
X031535Y024459D01*
X031228Y024766D01*
X031228Y024459D01*
X031228Y024766D02*
X031305Y024843D01*
X031458Y024843D01*
X031535Y024766D01*
X031535Y024459D01*
X031689Y024459D02*
X031765Y024382D01*
X031919Y024382D01*
X031995Y024459D01*
X031689Y024766D01*
X031689Y024459D01*
X031995Y024459D02*
X031995Y024766D01*
X031919Y024843D01*
X031765Y024843D01*
X031689Y024766D01*
X032149Y024843D02*
X032456Y024843D01*
X032456Y024612D01*
X032302Y024689D01*
X032226Y024689D01*
X032149Y024612D01*
X032149Y024459D01*
X032226Y024382D01*
X032379Y024382D01*
X032456Y024459D01*
X032609Y024459D02*
X032686Y024382D01*
X032840Y024382D01*
X032916Y024459D01*
X032930Y024453D02*
X033237Y024146D01*
X033160Y024070D01*
X033007Y024070D01*
X032930Y024146D01*
X032930Y024453D01*
X033007Y024530D01*
X033160Y024530D01*
X033237Y024453D01*
X033237Y024146D01*
X033391Y024070D02*
X033697Y024070D01*
X033544Y024070D02*
X033544Y024530D01*
X033697Y024377D01*
X033851Y024453D02*
X033851Y024300D01*
X033928Y024223D01*
X034158Y024223D01*
X034158Y024070D02*
X034158Y024530D01*
X033928Y024530D01*
X033851Y024453D01*
X034004Y024223D02*
X033851Y024070D01*
X034311Y024300D02*
X034618Y024300D01*
X034772Y024453D02*
X034772Y024146D01*
X034848Y024070D01*
X035002Y024070D01*
X035079Y024146D01*
X034772Y024453D01*
X034848Y024530D01*
X035002Y024530D01*
X035079Y024453D01*
X035079Y024146D01*
X035232Y024146D02*
X035232Y024453D01*
X035539Y024146D01*
X035462Y024070D01*
X035309Y024070D01*
X035232Y024146D01*
X035129Y023890D02*
X035206Y023814D01*
X035129Y023890D02*
X034975Y023890D01*
X034899Y023814D01*
X034899Y023737D01*
X034975Y023660D01*
X034899Y023583D01*
X034899Y023507D01*
X034975Y023430D01*
X035129Y023430D01*
X035206Y023507D01*
X035359Y023430D02*
X035666Y023430D01*
X035819Y023430D02*
X035973Y023583D01*
X035896Y023583D02*
X036126Y023583D01*
X036126Y023430D02*
X036126Y023890D01*
X035896Y023890D01*
X035819Y023814D01*
X035819Y023660D01*
X035896Y023583D01*
X035666Y023737D02*
X035512Y023890D01*
X035512Y023430D01*
X035052Y023660D02*
X034975Y023660D01*
X035539Y024146D02*
X035539Y024453D01*
X035462Y024530D01*
X035309Y024530D01*
X035232Y024453D01*
X035129Y024580D02*
X035129Y025040D01*
X035282Y024964D02*
X035589Y024657D01*
X035512Y024580D01*
X035359Y024580D01*
X035282Y024657D01*
X035282Y024964D01*
X035359Y025040D01*
X035512Y025040D01*
X035589Y024964D01*
X035589Y024657D01*
X035692Y024530D02*
X035999Y024530D01*
X035999Y024300D01*
X035846Y024377D01*
X035769Y024377D01*
X035692Y024300D01*
X035692Y024146D01*
X035769Y024070D01*
X035923Y024070D01*
X035999Y024146D01*
X036153Y024146D02*
X036230Y024070D01*
X036383Y024070D01*
X036460Y024146D01*
X036460Y024300D02*
X036306Y024377D01*
X036230Y024377D01*
X036153Y024300D01*
X036153Y024146D01*
X036460Y024300D02*
X036460Y024530D01*
X036153Y024530D01*
X036050Y024580D02*
X035743Y024580D01*
X035896Y024580D02*
X035896Y025040D01*
X036050Y024887D01*
X036137Y025309D02*
X036444Y025309D01*
X036290Y025309D02*
X036290Y025770D01*
X036444Y025616D01*
X035983Y025693D02*
X035906Y025770D01*
X035753Y025770D01*
X035676Y025693D01*
X035983Y025386D01*
X035906Y025309D01*
X035753Y025309D01*
X035676Y025386D01*
X035676Y025693D01*
X035523Y025616D02*
X035523Y025386D01*
X035446Y025309D01*
X035216Y025309D01*
X035216Y025616D01*
X035062Y025540D02*
X034909Y025540D01*
X035062Y025770D02*
X035062Y025309D01*
X034899Y024887D02*
X035129Y024733D01*
X034899Y024580D01*
X034602Y025309D02*
X034295Y025770D01*
X034142Y025616D02*
X033988Y025770D01*
X033988Y025309D01*
X033835Y025309D02*
X034142Y025309D01*
X033697Y025220D02*
X033391Y025220D01*
X033451Y025309D02*
X033374Y025386D01*
X033374Y025463D01*
X033451Y025540D01*
X033681Y025540D01*
X033681Y025386D01*
X033604Y025309D01*
X033451Y025309D01*
X033544Y025220D02*
X033544Y025680D01*
X033697Y025527D01*
X033681Y025540D02*
X033528Y025693D01*
X033374Y025770D01*
X033221Y025770D02*
X033221Y025463D01*
X033067Y025309D01*
X032914Y025463D01*
X032914Y025770D01*
X032930Y025680D02*
X032930Y025220D01*
X033237Y025220D02*
X033237Y025680D01*
X033084Y025527D01*
X032930Y025680D01*
X032916Y024843D02*
X032609Y024843D01*
X032686Y024689D02*
X032609Y024612D01*
X032609Y024459D01*
X032686Y024689D02*
X032763Y024689D01*
X032916Y024612D01*
X032916Y024843D01*
X033070Y024843D02*
X033070Y024382D01*
X033223Y024536D01*
X033377Y024382D01*
X033377Y024843D01*
X033223Y023843D02*
X033223Y023382D01*
X033070Y023382D02*
X033377Y023382D01*
X033377Y023689D02*
X033223Y023843D01*
X032916Y023766D02*
X032916Y023689D01*
X032840Y023612D01*
X032686Y023612D01*
X032609Y023536D01*
X032609Y023459D01*
X032686Y023382D01*
X032840Y023382D01*
X032916Y023459D01*
X032916Y023536D01*
X032840Y023612D01*
X032686Y023612D02*
X032609Y023689D01*
X032609Y023766D01*
X032686Y023843D01*
X032840Y023843D01*
X032916Y023766D01*
X032456Y023689D02*
X032456Y023229D01*
X032456Y023382D02*
X032226Y023382D01*
X032149Y023459D01*
X032149Y023612D01*
X032226Y023689D01*
X032456Y023689D01*
X031995Y023612D02*
X031842Y023612D01*
X031995Y023382D02*
X031995Y023843D01*
X031689Y023843D01*
X034755Y025770D02*
X035062Y025770D01*
X035983Y025693D02*
X035983Y025386D01*
X036613Y024530D02*
X036613Y024070D01*
X036767Y024223D01*
X036920Y024070D01*
X036920Y024530D01*
X036970Y023890D02*
X036817Y023890D01*
X036740Y023814D01*
X037047Y023507D01*
X036970Y023430D01*
X036817Y023430D01*
X036740Y023507D01*
X036740Y023814D01*
X036587Y023660D02*
X036280Y023660D01*
X036970Y023890D02*
X037047Y023814D01*
X037047Y023507D01*
X037201Y023507D02*
X037277Y023430D01*
X037431Y023430D01*
X037508Y023507D01*
X037201Y023814D01*
X037201Y023507D01*
X037201Y023814D02*
X037277Y023890D01*
X037431Y023890D01*
X037508Y023814D01*
X037508Y023507D01*
X037661Y023507D02*
X037738Y023430D01*
X037891Y023430D01*
X037968Y023507D01*
X037968Y023660D02*
X037814Y023737D01*
X037738Y023737D01*
X037661Y023660D01*
X037661Y023507D01*
X037968Y023660D02*
X037968Y023890D01*
X037661Y023890D01*
X038121Y023890D02*
X038428Y023890D01*
X038428Y023660D01*
X038275Y023737D01*
X038198Y023737D01*
X038121Y023660D01*
X038121Y023507D01*
X038198Y023430D01*
X038352Y023430D01*
X038428Y023507D01*
X038582Y023430D02*
X038582Y023890D01*
X038889Y023890D02*
X038889Y023430D01*
X038735Y023583D01*
X038582Y023430D01*
X036430Y028662D02*
X036276Y028815D01*
X036123Y028662D01*
X036123Y029122D01*
X035969Y029122D02*
X035969Y028892D01*
X035816Y028969D01*
X035739Y028969D01*
X035662Y028892D01*
X035662Y028738D01*
X035739Y028662D01*
X035893Y028662D01*
X035969Y028738D01*
X035969Y029122D02*
X035662Y029122D01*
X035509Y029122D02*
X035509Y028892D01*
X035356Y028969D01*
X035279Y028969D01*
X035202Y028892D01*
X035202Y028738D01*
X035279Y028662D01*
X035432Y028662D01*
X035509Y028738D01*
X035509Y029122D02*
X035202Y029122D01*
X035049Y029045D02*
X035049Y028738D01*
X034742Y029045D01*
X034742Y028738D01*
X034818Y028662D01*
X034972Y028662D01*
X035049Y028738D01*
X035049Y029045D02*
X034972Y029122D01*
X034818Y029122D01*
X034742Y029045D01*
X034588Y029045D02*
X034512Y029122D01*
X034358Y029122D01*
X034281Y029045D01*
X034588Y028738D01*
X034512Y028662D01*
X034358Y028662D01*
X034281Y028738D01*
X034281Y029045D01*
X034128Y028892D02*
X033821Y028892D01*
X033667Y029045D02*
X033667Y028738D01*
X033591Y028662D01*
X033437Y028662D01*
X033361Y028738D01*
X033207Y028662D02*
X032900Y028662D01*
X033054Y028662D02*
X033054Y029122D01*
X033207Y028969D01*
X033361Y029045D02*
X033437Y029122D01*
X033591Y029122D01*
X033667Y029045D01*
X032747Y029045D02*
X032670Y029122D01*
X032516Y029122D01*
X032440Y029045D01*
X032440Y028969D01*
X032516Y028892D01*
X032440Y028815D01*
X032440Y028738D01*
X032516Y028662D01*
X032670Y028662D01*
X032747Y028738D01*
X032593Y028892D02*
X032516Y028892D01*
X034588Y028738D02*
X034588Y029045D01*
X036430Y029122D02*
X036430Y028662D01*
X028366Y026707D02*
X027906Y026707D01*
X028059Y026707D02*
X028213Y026937D01*
X028059Y026707D02*
X027906Y026937D01*
X027982Y026553D02*
X027906Y026477D01*
X027906Y026323D01*
X027982Y026246D01*
X028289Y026553D01*
X027982Y026553D01*
X027982Y026246D02*
X028289Y026246D01*
X028366Y026323D01*
X028366Y026477D01*
X028289Y026553D01*
X027906Y026093D02*
X027906Y025786D01*
X027906Y025939D02*
X028366Y025939D01*
X028213Y025786D01*
X028190Y031609D02*
X028113Y031609D01*
X028037Y031685D01*
X028037Y031839D01*
X027960Y031916D01*
X027883Y031916D01*
X027806Y031839D01*
X027806Y031685D01*
X027883Y031609D01*
X028190Y031609D02*
X028267Y031685D01*
X028267Y031839D01*
X028190Y031916D01*
X028267Y032069D02*
X028267Y032222D01*
X028267Y032146D02*
X027806Y032146D01*
X027806Y032222D02*
X027806Y032069D01*
X027806Y032376D02*
X028267Y032376D01*
X028113Y032529D01*
X028267Y032683D01*
X027806Y032683D01*
X027883Y032836D02*
X027806Y032913D01*
X027806Y033066D01*
X027883Y033143D01*
X028190Y033143D01*
X028267Y033066D01*
X028267Y032913D01*
X028190Y032836D01*
X028113Y032836D01*
X028037Y032913D01*
X028037Y033143D01*
X028190Y033297D02*
X028267Y033373D01*
X028267Y033527D01*
X028190Y033604D01*
X027883Y033297D01*
X027806Y033373D01*
X027806Y033527D01*
X027883Y033604D01*
X028190Y033604D01*
X028190Y033757D02*
X028267Y033834D01*
X028267Y033987D01*
X028190Y034064D01*
X027883Y033757D01*
X027806Y033834D01*
X027806Y033987D01*
X027883Y034064D01*
X028190Y034064D01*
X028037Y034217D02*
X028037Y034524D01*
X027960Y034678D02*
X027960Y034908D01*
X028037Y034985D01*
X028190Y034985D01*
X028267Y034908D01*
X028267Y034678D01*
X027806Y034678D01*
X027960Y034831D02*
X027806Y034985D01*
X027883Y035138D02*
X027806Y035215D01*
X027806Y035368D01*
X027883Y035445D01*
X027960Y035445D01*
X028037Y035368D01*
X028037Y035292D01*
X028037Y035368D02*
X028113Y035445D01*
X028190Y035445D01*
X028267Y035368D01*
X028267Y035215D01*
X028190Y035138D01*
X027430Y035292D02*
X026970Y035292D01*
X026970Y035445D02*
X026970Y035138D01*
X026970Y034985D02*
X027123Y034831D01*
X027123Y034908D02*
X027123Y034678D01*
X026970Y034678D02*
X027430Y034678D01*
X027430Y034908D01*
X027353Y034985D01*
X027200Y034985D01*
X027123Y034908D01*
X027277Y035138D02*
X027430Y035292D01*
X027200Y034524D02*
X027200Y034217D01*
X027353Y034064D02*
X027047Y033757D01*
X026970Y033834D01*
X026970Y033987D01*
X027047Y034064D01*
X027353Y034064D01*
X027430Y033987D01*
X027430Y033834D01*
X027353Y033757D01*
X027047Y033757D01*
X027047Y033604D02*
X026970Y033527D01*
X026970Y033373D01*
X027047Y033297D01*
X027353Y033604D01*
X027047Y033604D01*
X027353Y033604D02*
X027430Y033527D01*
X027430Y033373D01*
X027353Y033297D01*
X027047Y033297D01*
X027047Y033143D02*
X026970Y033066D01*
X026970Y032913D01*
X027047Y032836D01*
X027037Y032836D02*
X026960Y032760D01*
X026960Y032529D01*
X026970Y032376D02*
X027430Y032376D01*
X027277Y032529D01*
X027430Y032683D01*
X026970Y032683D01*
X026960Y032683D02*
X026806Y032836D01*
X026594Y032913D02*
X026517Y032836D01*
X026440Y032836D01*
X026363Y032913D01*
X026363Y033143D01*
X026210Y033143D02*
X026517Y033143D01*
X026594Y033066D01*
X026594Y032913D01*
X026430Y032760D02*
X026353Y032836D01*
X026200Y032836D01*
X026123Y032760D01*
X026123Y032529D01*
X025970Y032529D02*
X026430Y032529D01*
X026430Y032760D01*
X026594Y032683D02*
X026133Y032683D01*
X026123Y032683D02*
X025970Y032836D01*
X026133Y032913D02*
X026133Y033066D01*
X026210Y033143D01*
X026210Y033297D02*
X026133Y033373D01*
X026133Y033527D01*
X026210Y033604D01*
X026517Y033604D01*
X026210Y033297D01*
X026517Y033297D01*
X026594Y033373D01*
X026594Y033527D01*
X026517Y033604D01*
X026517Y033757D02*
X026594Y033834D01*
X026594Y033987D01*
X026517Y034064D01*
X026210Y033757D01*
X026133Y033834D01*
X026133Y033987D01*
X026210Y034064D01*
X026517Y034064D01*
X026363Y034217D02*
X026363Y034524D01*
X026287Y034678D02*
X026287Y034908D01*
X026363Y034985D01*
X026517Y034985D01*
X026594Y034908D01*
X026594Y034678D01*
X026133Y034678D01*
X026287Y034831D02*
X026133Y034985D01*
X026133Y035138D02*
X026440Y035445D01*
X026517Y035445D01*
X026594Y035368D01*
X026594Y035215D01*
X026517Y035138D01*
X026133Y035138D02*
X026133Y035445D01*
X025757Y035368D02*
X025527Y035138D01*
X025527Y035445D01*
X025297Y035368D02*
X025757Y035368D01*
X025680Y034985D02*
X025757Y034908D01*
X025757Y034755D01*
X025680Y034678D01*
X025373Y034678D01*
X025297Y034755D01*
X025297Y034908D01*
X025373Y034985D01*
X025527Y034524D02*
X025527Y034217D01*
X025680Y034064D02*
X025373Y033757D01*
X025297Y033834D01*
X025297Y033987D01*
X025373Y034064D01*
X025680Y034064D01*
X025757Y033987D01*
X025757Y033834D01*
X025680Y033757D01*
X025373Y033757D01*
X025373Y033604D02*
X025297Y033527D01*
X025297Y033373D01*
X025373Y033297D01*
X025680Y033604D01*
X025373Y033604D01*
X025680Y033604D02*
X025757Y033527D01*
X025757Y033373D01*
X025680Y033297D01*
X025373Y033297D01*
X025373Y033143D02*
X025297Y033066D01*
X025297Y032913D01*
X025373Y032836D01*
X025363Y032836D02*
X025517Y032836D01*
X025594Y032760D01*
X025594Y032529D01*
X025133Y032529D01*
X025133Y032376D02*
X025133Y032069D01*
X025440Y032376D01*
X025517Y032376D01*
X025594Y032299D01*
X025594Y032146D01*
X025517Y032069D01*
X025517Y031916D02*
X025594Y031839D01*
X025594Y031685D01*
X025517Y031609D01*
X025527Y031685D02*
X025527Y031839D01*
X025450Y031916D01*
X025373Y031916D01*
X025297Y031839D01*
X025297Y031685D01*
X025373Y031609D01*
X025527Y031685D02*
X025604Y031609D01*
X025680Y031609D01*
X025757Y031685D01*
X025757Y031839D01*
X025680Y031916D01*
X025517Y031916D02*
X025440Y031916D01*
X025133Y031609D01*
X025133Y031916D01*
X025297Y032069D02*
X025297Y032222D01*
X025297Y032146D02*
X025757Y032146D01*
X025757Y032222D02*
X025757Y032069D01*
X025970Y032069D02*
X025970Y032376D01*
X026133Y032376D02*
X026594Y032376D01*
X026440Y032529D01*
X026594Y032683D01*
X026806Y032529D02*
X027267Y032529D01*
X027267Y032760D01*
X027190Y032836D01*
X027037Y032836D01*
X027200Y032913D02*
X027200Y033143D01*
X027353Y033143D02*
X027430Y033066D01*
X027430Y032913D01*
X027353Y032836D01*
X027277Y032836D01*
X027200Y032913D01*
X027047Y033143D02*
X027353Y033143D01*
X027190Y032376D02*
X027267Y032299D01*
X027267Y032146D01*
X027190Y032069D01*
X027190Y031916D02*
X027267Y031839D01*
X027267Y031685D01*
X027190Y031609D01*
X027200Y031685D02*
X027200Y031839D01*
X027123Y031916D01*
X027047Y031916D01*
X026970Y031839D01*
X026970Y031685D01*
X027047Y031609D01*
X027200Y031685D02*
X027277Y031609D01*
X027353Y031609D01*
X027430Y031685D01*
X027430Y031839D01*
X027353Y031916D01*
X027190Y031916D02*
X027113Y031916D01*
X026806Y031609D01*
X026806Y031916D01*
X026806Y032069D02*
X027113Y032376D01*
X027190Y032376D01*
X026970Y032222D02*
X026970Y032069D01*
X026970Y032146D02*
X027430Y032146D01*
X027430Y032222D02*
X027430Y032069D01*
X026806Y032069D02*
X026806Y032376D01*
X026594Y032222D02*
X026594Y032069D01*
X026594Y032146D02*
X026133Y032146D01*
X026133Y032222D02*
X026133Y032069D01*
X025970Y032069D02*
X026277Y032376D01*
X026353Y032376D01*
X026430Y032299D01*
X026430Y032146D01*
X026353Y032069D01*
X026353Y031916D02*
X026430Y031839D01*
X026430Y031685D01*
X026353Y031609D01*
X026363Y031685D02*
X026363Y031839D01*
X026287Y031916D01*
X026210Y031916D01*
X026133Y031839D01*
X026133Y031685D01*
X026210Y031609D01*
X026363Y031685D02*
X026440Y031609D01*
X026517Y031609D01*
X026594Y031685D01*
X026594Y031839D01*
X026517Y031916D01*
X026353Y031916D02*
X026277Y031916D01*
X025970Y031609D01*
X025970Y031916D01*
X025757Y032376D02*
X025604Y032529D01*
X025757Y032683D01*
X025297Y032683D01*
X025287Y032683D02*
X025133Y032836D01*
X025287Y032760D02*
X025363Y032836D01*
X025287Y032760D02*
X025287Y032529D01*
X025297Y032376D02*
X025757Y032376D01*
X025680Y032836D02*
X025604Y032836D01*
X025527Y032913D01*
X025527Y033143D01*
X025680Y033143D02*
X025757Y033066D01*
X025757Y032913D01*
X025680Y032836D01*
X025680Y033143D02*
X025373Y033143D01*
X026133Y032913D02*
X026210Y032836D01*
X026210Y033757D02*
X026517Y033757D01*
X027883Y033757D02*
X028190Y033757D01*
X028190Y033297D02*
X027883Y033297D01*
X024920Y033373D02*
X024920Y033527D01*
X024844Y033604D01*
X024537Y033297D01*
X024460Y033373D01*
X024460Y033527D01*
X024537Y033604D01*
X024844Y033604D01*
X024844Y033757D02*
X024537Y033757D01*
X024844Y034064D01*
X024537Y034064D01*
X024460Y033987D01*
X024460Y033834D01*
X024537Y033757D01*
X024527Y033604D02*
X024527Y033450D01*
X024527Y033297D02*
X024297Y033297D01*
X024297Y033450D02*
X024757Y033450D01*
X024757Y033757D01*
X024844Y033757D02*
X024920Y033834D01*
X024920Y033987D01*
X024844Y034064D01*
X024690Y034217D02*
X024690Y034524D01*
X024537Y034678D02*
X024460Y034755D01*
X024460Y034908D01*
X024537Y034985D01*
X024537Y035138D02*
X024460Y035215D01*
X024460Y035368D01*
X024537Y035445D01*
X024690Y035445D01*
X024767Y035368D01*
X024767Y035292D01*
X024690Y035138D01*
X024920Y035138D01*
X024920Y035445D01*
X024844Y034985D02*
X024920Y034908D01*
X024920Y034755D01*
X024844Y034678D01*
X024537Y034678D01*
X024920Y033373D02*
X024844Y033297D01*
X024537Y033297D01*
X024527Y033297D02*
X024604Y033220D01*
X024604Y032990D01*
X024297Y032990D01*
X024373Y032836D02*
X024297Y032760D01*
X024297Y032606D01*
X024373Y032529D01*
X024680Y032836D01*
X024373Y032836D01*
X024460Y032913D02*
X024460Y033066D01*
X024537Y033143D01*
X024844Y033143D01*
X024920Y033066D01*
X024920Y032913D01*
X024844Y032836D01*
X024767Y032836D01*
X024690Y032913D01*
X024690Y033143D01*
X024680Y032836D02*
X024757Y032760D01*
X024757Y032606D01*
X024680Y032529D01*
X024373Y032529D01*
X024373Y032376D02*
X024297Y032299D01*
X024297Y032146D01*
X024373Y032069D01*
X024680Y032376D01*
X024373Y032376D01*
X024460Y032376D02*
X024920Y032376D01*
X024767Y032529D01*
X024920Y032683D01*
X024460Y032683D01*
X024537Y032836D02*
X024460Y032913D01*
X023920Y032990D02*
X023920Y033297D01*
X023690Y033143D02*
X023690Y032990D01*
X023690Y032836D02*
X023537Y032836D01*
X023460Y032760D01*
X023460Y032529D01*
X023460Y032376D02*
X023460Y032069D01*
X023767Y032376D01*
X023844Y032376D01*
X023920Y032299D01*
X023920Y032146D01*
X023844Y032069D01*
X023844Y031916D02*
X023920Y031839D01*
X023920Y031685D01*
X023844Y031609D01*
X023844Y031916D02*
X023767Y031916D01*
X023460Y031609D01*
X023460Y031916D01*
X023306Y032529D02*
X023767Y032529D01*
X023767Y032760D01*
X023690Y032836D01*
X023460Y032990D02*
X023920Y032990D01*
X024460Y032222D02*
X024460Y032069D01*
X024460Y032146D02*
X024920Y032146D01*
X024920Y032222D02*
X024920Y032069D01*
X024844Y031916D02*
X024920Y031839D01*
X024920Y031685D01*
X024844Y031609D01*
X024767Y031609D01*
X024690Y031685D01*
X024690Y031839D01*
X024613Y031916D01*
X024537Y031916D01*
X024460Y031839D01*
X024460Y031685D01*
X024537Y031609D01*
X024604Y031609D02*
X024757Y031762D01*
X024297Y031762D01*
X024297Y031609D02*
X024297Y031916D01*
X024373Y032069D02*
X024680Y032069D01*
X024757Y032146D01*
X024757Y032299D01*
X024680Y032376D01*
X029139Y038449D02*
X029139Y038910D01*
X028832Y038910D01*
X028986Y038679D02*
X029139Y038679D01*
X029293Y038756D02*
X029293Y038449D01*
X029523Y038449D01*
X029600Y038526D01*
X029600Y038756D01*
X029753Y038833D02*
X030060Y038526D01*
X029983Y038449D01*
X029830Y038449D01*
X029753Y038526D01*
X029753Y038833D01*
X029830Y038910D01*
X029983Y038910D01*
X030060Y038833D01*
X030060Y038526D01*
X030214Y038526D02*
X030290Y038449D01*
X030444Y038449D01*
X030521Y038526D01*
X030214Y038833D01*
X030214Y038526D01*
X030521Y038526D02*
X030521Y038833D01*
X030444Y038910D01*
X030290Y038910D01*
X030214Y038833D01*
X030674Y038449D02*
X030981Y038449D01*
X030828Y038449D02*
X030828Y038910D01*
X030981Y038756D01*
X029186Y039613D02*
X029109Y039536D01*
X029033Y039536D01*
X028956Y039613D01*
X028956Y039766D01*
X028879Y039843D01*
X028802Y039843D01*
X028726Y039766D01*
X028726Y039613D01*
X028802Y039536D01*
X029186Y039613D02*
X029186Y039766D01*
X029109Y039843D01*
X029186Y039996D02*
X029186Y040150D01*
X029186Y040073D02*
X028726Y040073D01*
X028726Y039996D02*
X028726Y040150D01*
X028726Y040303D02*
X029186Y040303D01*
X029033Y040457D01*
X029186Y040610D01*
X028726Y040610D01*
X028802Y040764D02*
X028726Y040840D01*
X028726Y040994D01*
X028802Y041070D01*
X029109Y041070D01*
X029186Y040994D01*
X029186Y040840D01*
X029109Y040764D01*
X029033Y040764D01*
X028956Y040840D01*
X028956Y041070D01*
X028802Y041224D02*
X029109Y041224D01*
X029186Y041301D01*
X029186Y041454D01*
X029109Y041531D01*
X028802Y041224D01*
X028726Y041301D01*
X028726Y041454D01*
X028802Y041531D01*
X029109Y041531D01*
X029109Y041684D02*
X028802Y041684D01*
X029109Y041991D01*
X028802Y041991D01*
X028726Y041915D01*
X028726Y041761D01*
X028802Y041684D01*
X028742Y041801D02*
X028819Y041878D01*
X028512Y042185D01*
X028512Y041878D01*
X028589Y041801D01*
X028742Y041801D01*
X028819Y041878D02*
X028819Y042185D01*
X028742Y042262D01*
X028589Y042262D01*
X028512Y042185D01*
X028358Y042032D02*
X028051Y042032D01*
X028125Y041991D02*
X027818Y041684D01*
X027741Y041761D01*
X027741Y041915D01*
X027818Y041991D01*
X028125Y041991D01*
X028202Y041915D01*
X028202Y041761D01*
X028125Y041684D01*
X027818Y041684D01*
X027821Y041801D02*
X027668Y041801D01*
X027591Y041878D01*
X027438Y041801D02*
X027131Y042108D01*
X027131Y042185D01*
X027207Y042262D01*
X027361Y042262D01*
X027438Y042185D01*
X027591Y042185D02*
X027668Y042262D01*
X027821Y042262D01*
X027898Y042185D01*
X027898Y041878D01*
X027821Y041801D01*
X027818Y041531D02*
X027741Y041454D01*
X027741Y041301D01*
X027818Y041224D01*
X028125Y041531D01*
X027818Y041531D01*
X027818Y041224D02*
X028125Y041224D01*
X028202Y041301D01*
X028202Y041454D01*
X028125Y041531D01*
X028125Y041070D02*
X027818Y041070D01*
X027741Y040994D01*
X027741Y040840D01*
X027818Y040764D01*
X027972Y040840D02*
X027972Y041070D01*
X028125Y041070D02*
X028202Y040994D01*
X028202Y040840D01*
X028125Y040764D01*
X028048Y040764D01*
X027972Y040840D01*
X028202Y040610D02*
X027741Y040610D01*
X027741Y040303D02*
X028202Y040303D01*
X028048Y040457D01*
X028202Y040610D01*
X028202Y040150D02*
X028202Y039996D01*
X028202Y040073D02*
X027741Y040073D01*
X027741Y039996D02*
X027741Y040150D01*
X027818Y039843D02*
X027741Y039766D01*
X027741Y039613D01*
X027818Y039536D01*
X027972Y039613D02*
X027972Y039766D01*
X027895Y039843D01*
X027818Y039843D01*
X027972Y039613D02*
X028048Y039536D01*
X028125Y039536D01*
X028202Y039613D01*
X028202Y039766D01*
X028125Y039843D01*
X027438Y041801D02*
X027131Y041801D01*
X027741Y042605D02*
X028202Y042605D01*
X028202Y042835D01*
X028125Y042912D01*
X027972Y042912D01*
X027895Y042835D01*
X027895Y042605D01*
X027895Y042759D02*
X027741Y042912D01*
X027695Y042920D02*
X027695Y043380D01*
X027465Y043380D01*
X027388Y043303D01*
X027388Y043150D01*
X027465Y043073D01*
X027695Y043073D01*
X027741Y043142D02*
X027818Y043066D01*
X027895Y043066D01*
X027972Y043142D01*
X027972Y043296D01*
X027895Y043372D01*
X027818Y043372D01*
X027741Y043296D01*
X027741Y043142D01*
X027849Y043150D02*
X028155Y043150D01*
X028202Y043142D02*
X028202Y043296D01*
X028125Y043372D01*
X028048Y043372D01*
X027972Y043296D01*
X027972Y043142D02*
X028048Y043066D01*
X028125Y043066D01*
X028202Y043142D01*
X028309Y042996D02*
X028386Y042920D01*
X028539Y042920D01*
X028616Y042996D01*
X028309Y043303D01*
X028309Y042996D01*
X028616Y042996D02*
X028616Y043303D01*
X028539Y043380D01*
X028386Y043380D01*
X028309Y043303D01*
X028726Y043296D02*
X028802Y043372D01*
X029109Y043372D01*
X029186Y043296D01*
X029186Y043142D01*
X029109Y043066D01*
X029033Y043066D01*
X028956Y043142D01*
X028956Y043372D01*
X029000Y043380D02*
X028846Y043380D01*
X028769Y043303D01*
X029076Y042996D01*
X029000Y042920D01*
X028846Y042920D01*
X028769Y042996D01*
X028769Y043303D01*
X028726Y043296D02*
X028726Y043142D01*
X028802Y043066D01*
X028741Y043066D02*
X029202Y043066D01*
X029230Y042996D02*
X029230Y043303D01*
X029306Y043380D01*
X029460Y043380D01*
X029537Y043303D01*
X029537Y043227D01*
X029460Y043150D01*
X029230Y043150D01*
X029230Y042996D02*
X029306Y042920D01*
X029460Y042920D01*
X029537Y042996D01*
X029690Y042920D02*
X029690Y043380D01*
X029844Y043227D01*
X029997Y043380D01*
X029997Y042920D01*
X030109Y042912D02*
X029802Y042605D01*
X029726Y042682D01*
X029726Y042835D01*
X029802Y042912D01*
X030109Y042912D01*
X030186Y042835D01*
X030186Y042682D01*
X030109Y042605D01*
X029802Y042605D01*
X029726Y042452D02*
X029726Y042145D01*
X029739Y042108D02*
X029739Y042185D01*
X029663Y042262D01*
X029509Y042262D01*
X029433Y042185D01*
X029433Y041878D01*
X029509Y041801D01*
X029663Y041801D01*
X029739Y041878D01*
X029663Y042032D02*
X029433Y042032D01*
X029279Y041878D02*
X029279Y042185D01*
X029202Y042262D01*
X029049Y042262D01*
X028972Y042185D01*
X029279Y041878D01*
X029202Y041801D01*
X029049Y041801D01*
X028972Y041878D01*
X028972Y042185D01*
X028956Y042145D02*
X028956Y042452D01*
X028879Y042605D02*
X028879Y042835D01*
X028956Y042912D01*
X029109Y042912D01*
X029186Y042835D01*
X029186Y042605D01*
X028726Y042605D01*
X028741Y042605D02*
X028741Y042912D01*
X028726Y042912D02*
X028879Y042759D01*
X028741Y042759D02*
X029202Y042759D01*
X029048Y042605D01*
X029076Y042996D02*
X029076Y043303D01*
X029000Y043380D01*
X029202Y043372D02*
X028895Y043066D01*
X028972Y043142D02*
X028741Y043372D01*
X028539Y043920D02*
X028386Y043920D01*
X028309Y043996D01*
X028309Y044073D01*
X028386Y044150D01*
X028616Y044150D01*
X028616Y043996D01*
X028539Y043920D01*
X028616Y044150D02*
X028462Y044303D01*
X028309Y044380D01*
X028155Y044303D02*
X028155Y044227D01*
X028079Y044150D01*
X027925Y044150D01*
X027849Y044073D01*
X027849Y043996D01*
X027925Y043920D01*
X028079Y043920D01*
X028155Y043996D01*
X028155Y044073D01*
X028079Y044150D01*
X027925Y044150D02*
X027849Y044227D01*
X027849Y044303D01*
X027925Y044380D01*
X028079Y044380D01*
X028155Y044303D01*
X027695Y044303D02*
X027695Y043996D01*
X027388Y044303D01*
X027388Y043996D01*
X027465Y043920D01*
X027618Y043920D01*
X027695Y043996D01*
X027695Y044303D02*
X027618Y044380D01*
X027465Y044380D01*
X027388Y044303D01*
X027235Y044380D02*
X027004Y044380D01*
X026928Y044303D01*
X026928Y044150D01*
X027004Y044073D01*
X027235Y044073D01*
X027235Y043920D02*
X027235Y044380D01*
X027081Y044073D02*
X026928Y043920D01*
X026928Y043380D02*
X026928Y043303D01*
X027235Y042996D01*
X027235Y042920D01*
X027388Y042920D02*
X027542Y043073D01*
X027235Y043380D02*
X026928Y043380D01*
X025871Y043008D02*
X025871Y042855D01*
X025794Y042778D01*
X025871Y042625D02*
X025871Y042318D01*
X025871Y042471D02*
X025411Y042471D01*
X025411Y042778D02*
X025718Y043085D01*
X025794Y043085D01*
X025871Y043008D01*
X025411Y043085D02*
X025411Y042778D01*
X025641Y042164D02*
X025641Y041857D01*
X025794Y041704D02*
X025487Y041704D01*
X025411Y041627D01*
X025411Y041474D01*
X025487Y041397D01*
X025794Y041704D01*
X025871Y041627D01*
X025871Y041474D01*
X025794Y041397D01*
X025487Y041397D01*
X025487Y041243D02*
X025411Y041167D01*
X025411Y041013D01*
X025487Y040937D01*
X025794Y041243D01*
X025487Y041243D01*
X025487Y040937D02*
X025794Y040937D01*
X025871Y041013D01*
X025871Y041167D01*
X025794Y041243D01*
X025794Y040783D02*
X025487Y040783D01*
X025411Y040706D01*
X025411Y040553D01*
X025487Y040476D01*
X025411Y040323D02*
X025871Y040323D01*
X025718Y040169D01*
X025871Y040016D01*
X025411Y040016D01*
X025411Y039862D02*
X025411Y039709D01*
X025411Y039786D02*
X025871Y039786D01*
X025871Y039862D02*
X025871Y039709D01*
X025794Y039555D02*
X025871Y039479D01*
X025871Y039325D01*
X025794Y039248D01*
X025718Y039248D01*
X025641Y039325D01*
X025641Y039479D01*
X025564Y039555D01*
X025487Y039555D01*
X025411Y039479D01*
X025411Y039325D01*
X025487Y039248D01*
X025718Y040476D02*
X025641Y040553D01*
X025641Y040783D01*
X025794Y040783D02*
X025871Y040706D01*
X025871Y040553D01*
X025794Y040476D01*
X025718Y040476D01*
X027972Y042145D02*
X027972Y042452D01*
X029109Y041991D02*
X029186Y041915D01*
X029186Y041761D01*
X029109Y041684D01*
X029663Y042032D02*
X029739Y042108D01*
X029726Y042298D02*
X030186Y042298D01*
X030033Y042145D01*
X030046Y042108D02*
X029893Y042262D01*
X029893Y041801D01*
X030200Y041801D02*
X030200Y042262D01*
X030046Y042108D01*
X030353Y042262D02*
X030507Y042262D01*
X030430Y042262D02*
X030430Y041801D01*
X030507Y041801D02*
X030353Y041801D01*
X030660Y041878D02*
X030737Y041801D01*
X030890Y041801D01*
X030967Y041878D01*
X030890Y042032D02*
X030737Y042032D01*
X030660Y041955D01*
X030660Y041878D01*
X030890Y042032D02*
X030967Y042108D01*
X030967Y042185D01*
X030890Y042262D01*
X030737Y042262D01*
X030660Y042185D01*
X030688Y042920D02*
X030764Y042996D01*
X030688Y042920D02*
X030534Y042920D01*
X030457Y042996D01*
X030457Y043073D01*
X030534Y043150D01*
X030688Y043150D01*
X030764Y043227D01*
X030764Y043303D01*
X030688Y043380D01*
X030534Y043380D01*
X030457Y043303D01*
X030304Y043380D02*
X030151Y043380D01*
X030186Y043372D02*
X029879Y043066D01*
X029956Y043142D02*
X029726Y043372D01*
X029726Y043066D02*
X030186Y043066D01*
X030151Y042920D02*
X030304Y042920D01*
X030227Y042920D02*
X030227Y043380D01*
X020499Y043274D02*
X020346Y043427D01*
X020499Y043580D01*
X020039Y043580D01*
X020115Y043734D02*
X020039Y043811D01*
X020039Y043964D01*
X020115Y044041D01*
X020422Y044041D01*
X020499Y043964D01*
X020499Y043811D01*
X020422Y043734D01*
X020346Y043734D01*
X020269Y043811D01*
X020269Y044041D01*
X020422Y044194D02*
X020499Y044271D01*
X020499Y044425D01*
X020422Y044501D01*
X020115Y044194D01*
X020039Y044271D01*
X020039Y044425D01*
X020115Y044501D01*
X020422Y044501D01*
X020422Y044655D02*
X020499Y044731D01*
X020499Y044885D01*
X020422Y044962D01*
X020115Y044655D01*
X020039Y044731D01*
X020039Y044885D01*
X020115Y044962D01*
X020422Y044962D01*
X020269Y045115D02*
X020269Y045422D01*
X020499Y045576D02*
X020499Y045882D01*
X020499Y045729D02*
X020039Y045729D01*
X020039Y046036D02*
X020039Y046343D01*
X020039Y046189D02*
X020499Y046189D01*
X020346Y046036D01*
X020422Y044655D02*
X020115Y044655D01*
X020115Y044194D02*
X020422Y044194D01*
X020499Y043274D02*
X020039Y043274D01*
X020039Y043120D02*
X020039Y042967D01*
X020039Y043043D02*
X020499Y043043D01*
X020499Y042967D02*
X020499Y043120D01*
X020422Y042813D02*
X020499Y042736D01*
X020499Y042583D01*
X020422Y042506D01*
X020346Y042506D01*
X020269Y042583D01*
X020269Y042736D01*
X020192Y042813D01*
X020115Y042813D01*
X020039Y042736D01*
X020039Y042583D01*
X020115Y042506D01*
X018818Y043034D02*
X018741Y042957D01*
X018665Y042957D01*
X018588Y043034D01*
X018588Y043187D01*
X018511Y043264D01*
X018434Y043264D01*
X018358Y043187D01*
X018358Y043034D01*
X018434Y042957D01*
X018818Y043034D02*
X018818Y043187D01*
X018741Y043264D01*
X018818Y043417D02*
X018818Y043571D01*
X018818Y043494D02*
X018358Y043494D01*
X018358Y043417D02*
X018358Y043571D01*
X018358Y043724D02*
X018818Y043724D01*
X018665Y043878D01*
X018818Y044031D01*
X018358Y044031D01*
X018434Y044185D02*
X018358Y044261D01*
X018358Y044415D01*
X018434Y044492D01*
X018741Y044492D01*
X018818Y044415D01*
X018818Y044261D01*
X018741Y044185D01*
X018665Y044185D01*
X018588Y044261D01*
X018588Y044492D01*
X018741Y044645D02*
X018818Y044722D01*
X018818Y044875D01*
X018741Y044952D01*
X018434Y044645D01*
X018358Y044722D01*
X018358Y044875D01*
X018434Y044952D01*
X018741Y044952D01*
X018741Y045106D02*
X018818Y045182D01*
X018818Y045336D01*
X018741Y045412D01*
X018434Y045106D01*
X018358Y045182D01*
X018358Y045336D01*
X018434Y045412D01*
X018741Y045412D01*
X018588Y045566D02*
X018588Y045873D01*
X018511Y046026D02*
X018511Y046256D01*
X018588Y046333D01*
X018741Y046333D01*
X018818Y046256D01*
X018818Y046026D01*
X018358Y046026D01*
X018511Y046180D02*
X018358Y046333D01*
X018434Y046487D02*
X018358Y046563D01*
X018358Y046717D01*
X018434Y046794D01*
X018511Y046794D01*
X018588Y046717D01*
X018588Y046487D01*
X018434Y046487D01*
X018588Y046487D02*
X018741Y046640D01*
X018818Y046794D01*
X018741Y045106D02*
X018434Y045106D01*
X018434Y044645D02*
X018741Y044645D01*
X017818Y044185D02*
X017511Y043878D01*
X017588Y043955D02*
X017358Y044185D01*
X017358Y043878D02*
X017818Y043878D01*
X017741Y043724D02*
X017434Y043417D01*
X017358Y043494D01*
X017358Y043648D01*
X017434Y043724D01*
X017741Y043724D01*
X017818Y043648D01*
X017818Y043494D01*
X017741Y043417D01*
X017434Y043417D01*
X017358Y043264D02*
X017358Y042957D01*
X017358Y043110D02*
X017818Y043110D01*
X017665Y042957D01*
X016454Y043057D02*
X016454Y043518D01*
X016224Y043518D01*
X016147Y043441D01*
X016147Y043288D01*
X016224Y043211D01*
X016454Y043211D01*
X015993Y043057D02*
X015840Y043211D01*
X015686Y043057D01*
X015686Y043518D01*
X015533Y043518D02*
X015533Y043057D01*
X015533Y043211D02*
X015303Y043211D01*
X015226Y043288D01*
X015226Y043441D01*
X015303Y043518D01*
X015533Y043518D01*
X015379Y043211D02*
X015226Y043057D01*
X015073Y043288D02*
X014766Y043288D01*
X014612Y043364D02*
X014535Y043288D01*
X014382Y043288D01*
X014305Y043211D01*
X014305Y043134D01*
X014382Y043057D01*
X014535Y043057D01*
X014612Y043134D01*
X014612Y043364D02*
X014612Y043441D01*
X014535Y043518D01*
X014382Y043518D01*
X014305Y043441D01*
X014152Y043518D02*
X014152Y043057D01*
X013998Y043211D01*
X013845Y043057D01*
X013845Y043518D01*
X013691Y043518D02*
X013384Y043518D01*
X013538Y043518D02*
X013538Y043057D01*
X015993Y043057D02*
X015993Y043518D01*
X021937Y017411D02*
X021860Y017335D01*
X021860Y017258D01*
X021937Y017181D01*
X021860Y017105D01*
X021860Y017028D01*
X021937Y016951D01*
X022090Y016951D01*
X022167Y017028D01*
X022321Y017028D02*
X022397Y016951D01*
X022551Y016951D01*
X022628Y017028D01*
X022628Y017335D01*
X022551Y017411D01*
X022397Y017411D01*
X022321Y017335D01*
X022167Y017335D02*
X022090Y017411D01*
X021937Y017411D01*
X021937Y017181D02*
X022014Y017181D01*
X022781Y017181D02*
X023088Y017181D01*
X023095Y017181D02*
X023248Y017181D01*
X023395Y017181D02*
X023548Y017181D01*
X023479Y017258D02*
X023402Y017181D01*
X023402Y017028D01*
X023479Y016951D01*
X023709Y016951D01*
X023779Y016951D02*
X023702Y017028D01*
X023702Y017335D01*
X023779Y017411D01*
X024009Y017411D01*
X024009Y016951D01*
X023779Y016951D01*
X023862Y016951D02*
X024169Y016951D01*
X023862Y017258D01*
X023862Y017335D01*
X023939Y017411D01*
X024093Y017411D01*
X024169Y017335D01*
X024162Y017258D02*
X024316Y017411D01*
X024469Y017258D01*
X024469Y016951D01*
X024323Y016951D02*
X024630Y016951D01*
X024323Y017258D01*
X024323Y017335D01*
X024399Y017411D01*
X024553Y017411D01*
X024630Y017335D01*
X024469Y017181D02*
X024162Y017181D01*
X024162Y017258D02*
X024162Y016951D01*
X024239Y016411D02*
X024392Y016411D01*
X024469Y016335D01*
X024476Y016181D02*
X024630Y016181D01*
X024783Y016028D02*
X024783Y016335D01*
X024860Y016411D01*
X025090Y016411D01*
X025090Y015951D01*
X024860Y015951D01*
X024783Y016028D01*
X024630Y015951D02*
X024323Y015951D01*
X024469Y015951D02*
X024162Y016258D01*
X024162Y016335D01*
X024239Y016411D01*
X024323Y016411D02*
X024630Y016411D01*
X024630Y015951D01*
X024469Y015951D02*
X024162Y015951D01*
X024009Y015951D02*
X023702Y016258D01*
X023702Y016335D01*
X023779Y016411D01*
X023932Y016411D01*
X024009Y016335D01*
X023862Y016181D02*
X024169Y016181D01*
X024009Y015951D02*
X023702Y015951D01*
X023632Y015951D02*
X023479Y015951D01*
X023402Y016028D01*
X023318Y015951D02*
X023548Y015951D01*
X023632Y015951D02*
X023709Y016028D01*
X023709Y016335D01*
X023632Y016411D01*
X023479Y016411D01*
X023402Y016335D01*
X023318Y016258D02*
X023548Y016258D01*
X023548Y015798D01*
X023318Y015951D02*
X023241Y016028D01*
X023241Y016181D01*
X023318Y016258D01*
X023248Y016181D02*
X022942Y016181D01*
X022935Y016181D02*
X023088Y016181D01*
X023248Y016181D02*
X023018Y016411D01*
X023018Y015951D01*
X023088Y015951D02*
X023088Y016411D01*
X022781Y016411D01*
X023241Y016951D02*
X023548Y016951D01*
X023548Y017411D01*
X023241Y017411D01*
X023248Y017411D02*
X022942Y017411D01*
X023248Y017411D02*
X023248Y016951D01*
X023479Y017258D02*
X023709Y017258D01*
X023709Y016798D01*
X025244Y016258D02*
X025244Y015951D01*
X025244Y016181D02*
X025550Y016181D01*
X025550Y016258D02*
X025397Y016411D01*
X025244Y016258D01*
X025550Y016258D02*
X025550Y015951D01*
D11*
X011050Y012412D02*
X011050Y012388D01*
X011198Y004931D02*
X011198Y004907D01*
X010853Y020212D02*
X010853Y020236D01*
D12*
X010904Y020529D02*
X010804Y020529D01*
X010756Y020604D02*
X010656Y020604D01*
X010693Y020655D02*
X010743Y020705D01*
X010718Y020705D02*
X010793Y020705D01*
X010804Y020680D02*
X010904Y020680D01*
X010904Y020529D01*
X010951Y020554D02*
X010951Y020655D01*
X010976Y020680D01*
X011051Y020680D01*
X011051Y020529D01*
X010976Y020529D01*
X010951Y020554D01*
X010904Y020604D02*
X010854Y020604D01*
X010793Y020655D02*
X010793Y020805D01*
X010718Y020805D01*
X010693Y020780D01*
X010693Y020730D01*
X010718Y020705D01*
X010646Y020730D02*
X010546Y020730D01*
X010534Y020680D02*
X010584Y020680D01*
X010609Y020655D01*
X010609Y020554D01*
X010584Y020529D01*
X010534Y020529D01*
X010509Y020554D01*
X010462Y020554D02*
X010462Y020529D01*
X010462Y020554D02*
X010362Y020655D01*
X010362Y020680D01*
X010462Y020680D01*
X010509Y020655D02*
X010534Y020680D01*
X010571Y020655D02*
X010571Y020805D01*
X010646Y020730D01*
X010840Y020730D02*
X010940Y020730D01*
X010988Y020655D02*
X011088Y020655D01*
X011088Y020805D01*
X010988Y020805D01*
X011038Y020730D02*
X011088Y020730D01*
X011135Y020680D02*
X011135Y020780D01*
X011160Y020805D01*
X011235Y020805D01*
X011235Y020655D01*
X011160Y020655D01*
X011135Y020680D01*
X011148Y020680D02*
X011098Y020629D01*
X011098Y020529D01*
X011098Y020604D02*
X011198Y020604D01*
X011198Y020629D02*
X011148Y020680D01*
X011198Y020629D02*
X011198Y020529D01*
X011282Y020655D02*
X011282Y020755D01*
X011332Y020805D01*
X011382Y020755D01*
X011382Y020655D01*
X011382Y020730D02*
X011282Y020730D01*
X010743Y021405D02*
X010643Y021405D01*
X010596Y021405D02*
X010596Y021555D01*
X010596Y021541D02*
X010596Y021691D01*
X010646Y021641D01*
X010693Y021616D02*
X010718Y021591D01*
X010793Y021591D01*
X010793Y021541D02*
X010793Y021691D01*
X010718Y021691D01*
X010693Y021666D01*
X010693Y021616D01*
X010743Y021591D02*
X010693Y021541D01*
X010693Y021555D02*
X010693Y021405D01*
X010596Y021455D02*
X010496Y021555D01*
X010546Y021541D02*
X010646Y021541D01*
X010693Y021555D02*
X010743Y021505D01*
X010840Y021616D02*
X010940Y021616D01*
X010988Y021541D02*
X011088Y021541D01*
X011088Y021691D01*
X010988Y021691D01*
X011038Y021616D02*
X011088Y021616D01*
X011135Y021566D02*
X011135Y021666D01*
X011160Y021691D01*
X011235Y021691D01*
X011235Y021541D01*
X011160Y021541D01*
X011135Y021566D01*
X011282Y021541D02*
X011282Y021641D01*
X011332Y021691D01*
X011382Y021641D01*
X011382Y021541D01*
X011382Y021616D02*
X011282Y021616D01*
X010865Y022291D02*
X010890Y022316D01*
X010890Y022341D01*
X010865Y022366D01*
X010815Y022366D01*
X010790Y022341D01*
X010790Y022316D01*
X010815Y022291D01*
X010865Y022291D01*
X010865Y022366D02*
X010890Y022391D01*
X010890Y022416D01*
X010865Y022441D01*
X010815Y022441D01*
X010790Y022416D01*
X010790Y022391D01*
X010815Y022366D01*
X010743Y022391D02*
X010693Y022441D01*
X010693Y022291D01*
X010743Y022291D02*
X010643Y022291D01*
X010596Y022291D02*
X010596Y022441D01*
X010571Y022366D02*
X010496Y022291D01*
X010596Y022341D02*
X010496Y022441D01*
X010571Y021480D02*
X010496Y021405D01*
X010706Y019930D02*
X010806Y019930D01*
X010806Y019779D01*
X010854Y019779D02*
X010854Y019854D01*
X010879Y019879D01*
X010954Y019879D01*
X010954Y019779D01*
X011001Y019804D02*
X011026Y019779D01*
X011076Y019779D01*
X011101Y019804D01*
X011148Y019804D02*
X011173Y019779D01*
X011223Y019779D01*
X011248Y019804D01*
X011198Y019854D02*
X011173Y019854D01*
X011148Y019829D01*
X011148Y019804D01*
X011173Y019854D02*
X011148Y019879D01*
X011148Y019905D01*
X011173Y019930D01*
X011223Y019930D01*
X011248Y019905D01*
X011101Y019905D02*
X011076Y019930D01*
X011026Y019930D01*
X011001Y019905D01*
X011001Y019879D01*
X011026Y019854D01*
X011001Y019829D01*
X011001Y019804D01*
X011026Y019854D02*
X011051Y019854D01*
X010806Y019854D02*
X010756Y019854D01*
X010793Y014764D02*
X010793Y014614D01*
X010840Y014614D02*
X010940Y014614D01*
X010890Y014614D02*
X010890Y014764D01*
X010940Y014714D01*
X010987Y014714D02*
X011012Y014689D01*
X011062Y014689D01*
X011087Y014714D01*
X011087Y014739D01*
X011062Y014764D01*
X011012Y014764D01*
X010987Y014739D01*
X010987Y014714D01*
X011012Y014689D02*
X010987Y014664D01*
X010987Y014639D01*
X011012Y014614D01*
X011062Y014614D01*
X011087Y014639D01*
X011087Y014664D01*
X011062Y014689D01*
X010793Y014664D02*
X010692Y014764D01*
X010768Y014689D02*
X010692Y014614D01*
X010767Y014014D02*
X010818Y014014D01*
X010843Y013989D01*
X010890Y013989D02*
X010890Y013939D01*
X010915Y013914D01*
X010990Y013914D01*
X010990Y013864D02*
X010990Y014014D01*
X010915Y014014D01*
X010890Y013989D01*
X010940Y013914D02*
X010890Y013864D01*
X010843Y013864D02*
X010742Y013964D01*
X010742Y013989D01*
X010767Y014014D01*
X010742Y013864D02*
X010843Y013864D01*
X010890Y013780D02*
X010890Y013630D01*
X010940Y013630D02*
X010840Y013630D01*
X010793Y013630D02*
X010793Y013780D01*
X010768Y013705D02*
X010692Y013630D01*
X010793Y013680D02*
X010692Y013780D01*
X010890Y013780D02*
X010940Y013730D01*
X011037Y013939D02*
X011137Y013939D01*
X011184Y014014D02*
X011285Y014014D01*
X011285Y013864D01*
X011184Y013864D01*
X011234Y013939D02*
X011285Y013939D01*
X011332Y013989D02*
X011357Y014014D01*
X011432Y014014D01*
X011432Y013864D01*
X011357Y013864D01*
X011332Y013889D01*
X011332Y013989D01*
X011479Y013964D02*
X011479Y013864D01*
X011479Y013939D02*
X011579Y013939D01*
X011579Y013964D02*
X011529Y014014D01*
X011479Y013964D01*
X011579Y013964D02*
X011579Y013864D01*
X011529Y013030D02*
X011479Y012980D01*
X011479Y012880D01*
X011432Y012880D02*
X011357Y012880D01*
X011332Y012905D01*
X011332Y013005D01*
X011357Y013030D01*
X011432Y013030D01*
X011432Y012880D01*
X011395Y012805D02*
X011345Y012855D01*
X011295Y012805D01*
X011295Y012705D01*
X011248Y012705D02*
X011173Y012705D01*
X011148Y012730D01*
X011148Y012830D01*
X011173Y012855D01*
X011248Y012855D01*
X011248Y012705D01*
X011295Y012780D02*
X011395Y012780D01*
X011395Y012805D02*
X011395Y012705D01*
X011285Y012880D02*
X011184Y012880D01*
X011101Y012855D02*
X011101Y012705D01*
X011000Y012705D01*
X010953Y012780D02*
X010853Y012780D01*
X010806Y012830D02*
X010806Y012730D01*
X010781Y012705D01*
X010731Y012705D01*
X010706Y012730D01*
X010659Y012730D02*
X010659Y012755D01*
X010634Y012780D01*
X010584Y012780D01*
X010558Y012755D01*
X010558Y012730D01*
X010584Y012705D01*
X010634Y012705D01*
X010659Y012730D01*
X010634Y012780D02*
X010659Y012805D01*
X010659Y012830D01*
X010634Y012855D01*
X010584Y012855D01*
X010558Y012830D01*
X010558Y012805D01*
X010584Y012780D01*
X010706Y012830D02*
X010731Y012855D01*
X010781Y012855D01*
X010806Y012830D01*
X010818Y012880D02*
X010843Y012905D01*
X010818Y012880D02*
X010767Y012880D01*
X010742Y012905D01*
X010742Y012955D01*
X010767Y012980D01*
X010792Y012980D01*
X010843Y012955D01*
X010843Y013030D01*
X010742Y013030D01*
X010890Y013005D02*
X010890Y012955D01*
X010915Y012930D01*
X010990Y012930D01*
X010940Y012930D02*
X010890Y012880D01*
X010990Y012880D02*
X010990Y013030D01*
X010915Y013030D01*
X010890Y013005D01*
X011037Y012955D02*
X011137Y012955D01*
X011184Y013030D02*
X011285Y013030D01*
X011285Y012880D01*
X011285Y012955D02*
X011234Y012955D01*
X011101Y012855D02*
X011000Y012855D01*
X011051Y012780D02*
X011101Y012780D01*
X011479Y012955D02*
X011579Y012955D01*
X011579Y012980D02*
X011529Y013030D01*
X011579Y012980D02*
X011579Y012880D01*
X011420Y012105D02*
X011370Y012105D01*
X011345Y012080D01*
X011345Y012055D01*
X011370Y012030D01*
X011345Y012005D01*
X011345Y011980D01*
X011370Y011955D01*
X011420Y011955D01*
X011445Y011980D01*
X011395Y012030D02*
X011370Y012030D01*
X011298Y012080D02*
X011273Y012105D01*
X011223Y012105D01*
X011198Y012080D01*
X011198Y012055D01*
X011223Y012030D01*
X011198Y012005D01*
X011198Y011980D01*
X011223Y011955D01*
X011273Y011955D01*
X011298Y011980D01*
X011248Y012030D02*
X011223Y012030D01*
X011151Y012055D02*
X011075Y012055D01*
X011050Y012030D01*
X011050Y011955D01*
X011003Y011955D02*
X011003Y012105D01*
X010903Y012105D01*
X010953Y012030D02*
X011003Y012030D01*
X011151Y012055D02*
X011151Y011955D01*
X011420Y012105D02*
X011445Y012080D01*
X011210Y007333D02*
X011160Y007333D01*
X011135Y007308D01*
X011135Y007283D01*
X011160Y007258D01*
X011210Y007258D01*
X011235Y007283D01*
X011235Y007308D01*
X011210Y007333D01*
X011210Y007258D02*
X011235Y007233D01*
X011235Y007208D01*
X011210Y007183D01*
X011160Y007183D01*
X011135Y007208D01*
X011135Y007233D01*
X011160Y007258D01*
X011087Y007283D02*
X011037Y007333D01*
X011037Y007183D01*
X011087Y007183D02*
X010987Y007183D01*
X010940Y007183D02*
X010940Y007333D01*
X010915Y007258D02*
X010840Y007183D01*
X010940Y007233D02*
X010840Y007333D01*
X010915Y006583D02*
X010890Y006558D01*
X010890Y006533D01*
X010915Y006508D01*
X010890Y006483D01*
X010890Y006458D01*
X010915Y006433D01*
X010965Y006433D01*
X010990Y006458D01*
X011037Y006433D02*
X011087Y006483D01*
X011062Y006483D02*
X011137Y006483D01*
X011137Y006433D02*
X011137Y006583D01*
X011062Y006583D01*
X011037Y006558D01*
X011037Y006508D01*
X011062Y006483D01*
X010990Y006558D02*
X010965Y006583D01*
X010915Y006583D01*
X010915Y006508D02*
X010940Y006508D01*
X011185Y006508D02*
X011285Y006508D01*
X011332Y006583D02*
X011432Y006583D01*
X011432Y006433D01*
X011332Y006433D01*
X011382Y006508D02*
X011432Y006508D01*
X011479Y006558D02*
X011504Y006583D01*
X011579Y006583D01*
X011579Y006433D01*
X011504Y006433D01*
X011479Y006458D01*
X011479Y006558D01*
X011627Y006533D02*
X011677Y006583D01*
X011727Y006533D01*
X011727Y006433D01*
X011727Y006508D02*
X011627Y006508D01*
X011627Y006533D02*
X011627Y006433D01*
X011087Y006200D02*
X011037Y006250D01*
X011037Y006100D01*
X011087Y006100D02*
X010987Y006100D01*
X010940Y006100D02*
X010940Y006250D01*
X010915Y006175D02*
X010840Y006100D01*
X010940Y006150D02*
X010840Y006250D01*
X010890Y005500D02*
X010940Y005475D01*
X010990Y005425D01*
X010915Y005425D01*
X010890Y005400D01*
X010890Y005375D01*
X010915Y005350D01*
X010965Y005350D01*
X010990Y005375D01*
X010990Y005425D01*
X011037Y005425D02*
X011062Y005400D01*
X011137Y005400D01*
X011148Y005374D02*
X011248Y005374D01*
X011248Y005224D01*
X011148Y005224D01*
X011101Y005299D02*
X011001Y005299D01*
X011037Y005350D02*
X011087Y005400D01*
X011037Y005425D02*
X011037Y005475D01*
X011062Y005500D01*
X011137Y005500D01*
X011137Y005350D01*
X011198Y005299D02*
X011248Y005299D01*
X011295Y005249D02*
X011295Y005349D01*
X011320Y005374D01*
X011396Y005374D01*
X011396Y005224D01*
X011320Y005224D01*
X011295Y005249D01*
X011332Y005350D02*
X011432Y005350D01*
X011432Y005500D01*
X011332Y005500D01*
X011285Y005425D02*
X011185Y005425D01*
X011382Y005425D02*
X011432Y005425D01*
X011479Y005375D02*
X011479Y005475D01*
X011504Y005500D01*
X011579Y005500D01*
X011579Y005350D01*
X011504Y005350D01*
X011479Y005375D01*
X011493Y005374D02*
X011443Y005324D01*
X011443Y005224D01*
X011443Y005299D02*
X011543Y005299D01*
X011543Y005324D02*
X011493Y005374D01*
X011543Y005324D02*
X011543Y005224D01*
X011627Y005350D02*
X011627Y005450D01*
X011677Y005500D01*
X011727Y005450D01*
X011727Y005350D01*
X011727Y005425D02*
X011627Y005425D01*
X010954Y005349D02*
X010954Y005249D01*
X010929Y005224D01*
X010878Y005224D01*
X010853Y005249D01*
X010806Y005249D02*
X010781Y005224D01*
X010731Y005224D01*
X010706Y005249D01*
X010706Y005349D01*
X010731Y005374D01*
X010781Y005374D01*
X010806Y005349D01*
X010806Y005324D01*
X010781Y005299D01*
X010706Y005299D01*
X010853Y005349D02*
X010878Y005374D01*
X010929Y005374D01*
X010954Y005349D01*
X011051Y004624D02*
X011151Y004624D01*
X011151Y004474D01*
X011198Y004474D02*
X011198Y004549D01*
X011223Y004574D01*
X011298Y004574D01*
X011298Y004474D01*
X011345Y004499D02*
X011370Y004474D01*
X011420Y004474D01*
X011446Y004499D01*
X011493Y004499D02*
X011518Y004474D01*
X011568Y004474D01*
X011593Y004499D01*
X011543Y004549D02*
X011518Y004549D01*
X011493Y004524D01*
X011493Y004499D01*
X011518Y004549D02*
X011493Y004574D01*
X011493Y004599D01*
X011518Y004624D01*
X011568Y004624D01*
X011593Y004599D01*
X011446Y004599D02*
X011420Y004624D01*
X011370Y004624D01*
X011345Y004599D01*
X011345Y004574D01*
X011370Y004549D01*
X011345Y004524D01*
X011345Y004499D01*
X011370Y004549D02*
X011395Y004549D01*
X011151Y004549D02*
X011101Y004549D01*
X024778Y007083D02*
X024879Y007183D01*
X024904Y007183D01*
X024929Y007158D01*
X024929Y007108D01*
X024904Y007083D01*
X024778Y007083D02*
X024778Y007183D01*
X024778Y007231D02*
X024803Y007231D01*
X024904Y007331D01*
X024929Y007331D01*
X024929Y007231D01*
X024904Y007378D02*
X024929Y007403D01*
X024929Y007453D01*
X024904Y007478D01*
X024803Y007378D01*
X024778Y007403D01*
X024778Y007453D01*
X024803Y007478D01*
X024904Y007478D01*
X024904Y007378D02*
X024803Y007378D01*
X025503Y007381D02*
X025503Y007281D01*
X025528Y007233D02*
X025578Y007183D01*
X025566Y007183D02*
X025566Y007083D01*
X025666Y007183D01*
X025691Y007183D01*
X025716Y007158D01*
X025716Y007108D01*
X025691Y007083D01*
X025679Y007133D02*
X025679Y007208D01*
X025654Y007233D01*
X025603Y007233D01*
X025578Y007208D01*
X025578Y007133D01*
X025528Y007133D02*
X025679Y007133D01*
X025716Y007231D02*
X025716Y007331D01*
X025691Y007331D01*
X025591Y007231D01*
X025566Y007231D01*
X025591Y007378D02*
X025691Y007478D01*
X025591Y007478D01*
X025566Y007453D01*
X025566Y007403D01*
X025591Y007378D01*
X025691Y007378D01*
X025716Y007403D01*
X025716Y007453D01*
X025691Y007478D01*
X025679Y007453D02*
X025654Y007428D01*
X025553Y007428D01*
X025528Y007453D01*
X025528Y007503D01*
X025553Y007528D01*
X025528Y007575D02*
X025679Y007575D01*
X025654Y007528D02*
X025679Y007503D01*
X025679Y007453D01*
X025603Y007575D02*
X025603Y007675D01*
X025553Y007723D02*
X025528Y007748D01*
X025528Y007798D01*
X025553Y007823D01*
X025578Y007823D01*
X025603Y007798D01*
X025603Y007773D01*
X025603Y007798D02*
X025629Y007823D01*
X025654Y007823D01*
X025679Y007798D01*
X025679Y007748D01*
X025654Y007723D01*
X025679Y007675D02*
X025528Y007675D01*
X026316Y007675D02*
X026466Y007675D01*
X026391Y007675D02*
X026391Y007575D01*
X026441Y007528D02*
X026466Y007503D01*
X026466Y007453D01*
X026441Y007428D01*
X026341Y007428D01*
X026316Y007453D01*
X026316Y007503D01*
X026341Y007528D01*
X026316Y007575D02*
X026466Y007575D01*
X026478Y007478D02*
X026378Y007378D01*
X026353Y007403D01*
X026353Y007453D01*
X026378Y007478D01*
X026478Y007478D01*
X026503Y007453D01*
X026503Y007403D01*
X026478Y007378D01*
X026378Y007378D01*
X026291Y007381D02*
X026291Y007281D01*
X026316Y007233D02*
X026366Y007183D01*
X026353Y007183D02*
X026353Y007083D01*
X026453Y007183D01*
X026478Y007183D01*
X026503Y007158D01*
X026503Y007108D01*
X026478Y007083D01*
X026466Y007133D02*
X026466Y007208D01*
X026441Y007233D01*
X026391Y007233D01*
X026366Y007208D01*
X026366Y007133D01*
X026316Y007133D02*
X026466Y007133D01*
X026503Y007231D02*
X026503Y007331D01*
X026478Y007331D01*
X026378Y007231D01*
X026353Y007231D01*
X026391Y007723D02*
X026391Y007823D01*
X026466Y007798D02*
X026391Y007723D01*
X026316Y007798D02*
X026466Y007798D01*
X027103Y007823D02*
X027103Y007723D01*
X027103Y007675D02*
X027253Y007675D01*
X027203Y007723D02*
X027253Y007773D01*
X027103Y007773D01*
X027178Y007675D02*
X027178Y007575D01*
X027128Y007528D02*
X027103Y007503D01*
X027103Y007453D01*
X027128Y007428D01*
X027228Y007428D01*
X027253Y007453D01*
X027253Y007503D01*
X027228Y007528D01*
X027253Y007575D02*
X027103Y007575D01*
X027078Y007381D02*
X027078Y007281D01*
X027103Y007233D02*
X027153Y007183D01*
X027153Y007208D02*
X027153Y007133D01*
X027103Y007133D02*
X027253Y007133D01*
X027253Y007208D01*
X027228Y007233D01*
X027178Y007233D01*
X027153Y007208D01*
X027171Y006981D02*
X027146Y006956D01*
X027146Y006906D01*
X027171Y006881D01*
X027271Y006981D01*
X027171Y006981D01*
X027271Y006981D02*
X027296Y006956D01*
X027296Y006906D01*
X027271Y006881D01*
X027171Y006881D01*
X027271Y006834D02*
X027171Y006734D01*
X027146Y006734D01*
X027146Y006686D02*
X027146Y006586D01*
X027246Y006686D01*
X027271Y006686D01*
X027296Y006661D01*
X027296Y006611D01*
X027271Y006586D01*
X027296Y006734D02*
X027296Y006834D01*
X027271Y006834D01*
X027871Y006784D02*
X027871Y006884D01*
X027921Y006931D02*
X027896Y006956D01*
X027896Y007006D01*
X027921Y007031D01*
X027896Y007078D02*
X028046Y007078D01*
X028021Y007031D02*
X028046Y007006D01*
X028046Y006956D01*
X028021Y006931D01*
X027921Y006931D01*
X027971Y007078D02*
X027971Y007178D01*
X028021Y007226D02*
X028046Y007251D01*
X028046Y007301D01*
X028021Y007326D01*
X027996Y007326D01*
X027896Y007226D01*
X027896Y007326D01*
X027896Y007178D02*
X028046Y007178D01*
X028021Y006736D02*
X027971Y006736D01*
X027946Y006711D01*
X027946Y006636D01*
X027946Y006686D02*
X027896Y006736D01*
X027896Y006636D02*
X028046Y006636D01*
X028046Y006711D01*
X028021Y006736D01*
X037232Y020567D02*
X037282Y020617D01*
X037257Y020617D02*
X037332Y020617D01*
X037332Y020567D02*
X037332Y020717D01*
X037257Y020717D01*
X037232Y020692D01*
X037232Y020642D01*
X037257Y020617D01*
X037379Y020592D02*
X037379Y020692D01*
X037479Y020592D01*
X037454Y020567D01*
X037404Y020567D01*
X037379Y020592D01*
X037379Y020692D02*
X037404Y020717D01*
X037454Y020717D01*
X037479Y020692D01*
X037479Y020592D01*
X037527Y020592D02*
X037552Y020567D01*
X037602Y020567D01*
X037627Y020592D01*
X037627Y020617D01*
X037602Y020642D01*
X037552Y020642D01*
X037527Y020617D01*
X037527Y020592D01*
X037552Y020642D02*
X037527Y020667D01*
X037527Y020692D01*
X037552Y020717D01*
X037602Y020717D01*
X037627Y020692D01*
X037627Y020667D01*
X037602Y020642D01*
X037674Y020617D02*
X037674Y020592D01*
X037699Y020567D01*
X037749Y020567D01*
X037774Y020592D01*
X037774Y020642D01*
X037699Y020642D01*
X037674Y020617D01*
X037724Y020692D02*
X037774Y020642D01*
X037724Y020692D02*
X037674Y020717D01*
X037724Y021317D02*
X037624Y021317D01*
X037577Y021342D02*
X037552Y021317D01*
X037502Y021317D01*
X037477Y021342D01*
X037429Y021317D02*
X037354Y021317D01*
X037329Y021342D01*
X037329Y021442D01*
X037354Y021467D01*
X037429Y021467D01*
X037429Y021317D01*
X037477Y021442D02*
X037502Y021467D01*
X037552Y021467D01*
X037577Y021442D01*
X037577Y021342D01*
X037724Y021317D02*
X037724Y021467D01*
X037282Y021392D02*
X037182Y021392D01*
X037135Y021367D02*
X037060Y021367D01*
X037035Y021392D01*
X037035Y021442D01*
X037060Y021467D01*
X037135Y021467D01*
X037135Y021317D01*
X037085Y021367D02*
X037035Y021317D01*
X036987Y021317D02*
X036887Y021317D01*
X036937Y021317D02*
X036937Y021467D01*
X036987Y021417D01*
D13*
X036414Y025913D02*
X034170Y025913D01*
X033816Y026268D01*
X033816Y026780D01*
X033816Y027646D02*
X033816Y028157D01*
X034170Y028512D01*
X036414Y028512D01*
X036414Y027646D01*
X036414Y026780D02*
X036414Y025913D01*
X036276Y027587D02*
X036253Y027652D01*
X036227Y027715D01*
X036197Y027776D01*
X036163Y027836D01*
X036127Y027894D01*
X036087Y027950D01*
X036044Y028003D01*
X035998Y028054D01*
X035949Y028102D01*
X035898Y028147D01*
X035844Y028190D01*
X035788Y028229D01*
X035730Y028265D01*
X035669Y028298D01*
X035607Y028327D01*
X035544Y028353D01*
X035479Y028375D01*
X035413Y028394D01*
X035346Y028408D01*
X035279Y028419D01*
X035210Y028426D01*
X035142Y028430D01*
X035073Y028429D01*
X035005Y028425D01*
X034937Y028416D01*
X034870Y028404D01*
X034803Y028389D01*
X034737Y028369D01*
X034673Y028346D01*
X034610Y028319D01*
X034548Y028288D01*
X034489Y028255D01*
X034431Y028218D01*
X034376Y028177D01*
X034323Y028134D01*
X034272Y028088D01*
X034224Y028039D01*
X034179Y027987D01*
X034137Y027933D01*
X034098Y027877D01*
X034062Y027818D01*
X034030Y027758D01*
X034001Y027696D01*
X033975Y027632D01*
X033954Y027567D01*
X033954Y026839D02*
X033977Y026774D01*
X034003Y026711D01*
X034033Y026650D01*
X034067Y026590D01*
X034103Y026532D01*
X034143Y026476D01*
X034186Y026423D01*
X034232Y026372D01*
X034281Y026324D01*
X034332Y026279D01*
X034386Y026236D01*
X034442Y026197D01*
X034500Y026161D01*
X034561Y026128D01*
X034623Y026099D01*
X034686Y026073D01*
X034751Y026051D01*
X034817Y026032D01*
X034884Y026018D01*
X034951Y026007D01*
X035020Y026000D01*
X035088Y025996D01*
X035157Y025997D01*
X035225Y026001D01*
X035293Y026010D01*
X035360Y026022D01*
X035427Y026037D01*
X035493Y026057D01*
X035557Y026080D01*
X035620Y026107D01*
X035682Y026138D01*
X035741Y026171D01*
X035799Y026208D01*
X035854Y026249D01*
X035907Y026292D01*
X035958Y026338D01*
X036006Y026387D01*
X036051Y026439D01*
X036093Y026493D01*
X036132Y026549D01*
X036168Y026608D01*
X036200Y026668D01*
X036229Y026730D01*
X036255Y026794D01*
X036276Y026859D01*
X028197Y016670D02*
X025197Y016670D01*
X025149Y016649D01*
X025103Y016625D01*
X025059Y016598D01*
X025017Y016567D01*
X024977Y016533D01*
X024940Y016497D01*
X024906Y016458D01*
X024875Y016416D01*
X024847Y016372D01*
X024822Y016326D01*
X024801Y016279D01*
X024783Y016230D01*
X024770Y016180D01*
X024759Y016128D01*
X024753Y016077D01*
X024751Y016025D01*
X024753Y015973D01*
X024758Y015921D01*
X024767Y015870D01*
X024781Y015819D01*
X024797Y015770D01*
X024866Y015697D01*
X024933Y015620D01*
X024995Y015541D01*
X025054Y015459D01*
X025108Y015374D01*
X025159Y015286D01*
X025205Y015197D01*
X025247Y015105D01*
X025284Y015011D01*
X025317Y014916D01*
X025346Y014819D01*
X025370Y014721D01*
X025389Y014622D01*
X025403Y014522D01*
X025413Y014421D01*
X025417Y014320D01*
X025417Y014220D01*
X025413Y014119D01*
X025403Y014018D01*
X025389Y013918D01*
X025370Y013819D01*
X025346Y013721D01*
X025317Y013624D01*
X025284Y013529D01*
X025247Y013435D01*
X025205Y013343D01*
X025159Y013254D01*
X025108Y013166D01*
X025054Y013081D01*
X024995Y012999D01*
X024933Y012920D01*
X024866Y012843D01*
X024797Y012770D01*
X024781Y012721D01*
X024767Y012670D01*
X024758Y012619D01*
X024753Y012567D01*
X024751Y012515D01*
X024753Y012463D01*
X024759Y012412D01*
X024770Y012360D01*
X024783Y012310D01*
X024801Y012261D01*
X024822Y012214D01*
X024847Y012168D01*
X024875Y012124D01*
X024906Y012082D01*
X024940Y012043D01*
X024977Y012007D01*
X025017Y011973D01*
X025059Y011942D01*
X025103Y011915D01*
X025149Y011891D01*
X025197Y011870D01*
X028197Y011870D01*
X029397Y013070D01*
X029397Y015470D01*
X028197Y016670D01*
X021198Y024683D02*
X021552Y025037D01*
X021552Y027281D01*
X020686Y027281D01*
X019820Y027281D02*
X018954Y027281D01*
X018954Y025037D01*
X019308Y024683D01*
X019820Y024683D01*
X020686Y024683D02*
X021198Y024683D01*
X020627Y024821D02*
X020692Y024844D01*
X020755Y024870D01*
X020816Y024900D01*
X020876Y024934D01*
X020934Y024970D01*
X020990Y025010D01*
X021043Y025053D01*
X021094Y025099D01*
X021142Y025148D01*
X021187Y025199D01*
X021230Y025253D01*
X021269Y025309D01*
X021305Y025367D01*
X021338Y025428D01*
X021367Y025490D01*
X021393Y025553D01*
X021415Y025618D01*
X021434Y025684D01*
X021448Y025751D01*
X021459Y025818D01*
X021466Y025887D01*
X021470Y025955D01*
X021469Y026024D01*
X021465Y026092D01*
X021456Y026160D01*
X021444Y026227D01*
X021429Y026294D01*
X021409Y026360D01*
X021386Y026424D01*
X021359Y026487D01*
X021328Y026549D01*
X021295Y026608D01*
X021258Y026666D01*
X021217Y026721D01*
X021174Y026774D01*
X021128Y026825D01*
X021079Y026873D01*
X021027Y026918D01*
X020973Y026960D01*
X020917Y026999D01*
X020858Y027035D01*
X020798Y027067D01*
X020736Y027096D01*
X020672Y027122D01*
X020607Y027143D01*
X019879Y027143D02*
X019814Y027120D01*
X019751Y027094D01*
X019690Y027064D01*
X019630Y027030D01*
X019572Y026994D01*
X019516Y026954D01*
X019463Y026911D01*
X019412Y026865D01*
X019364Y026816D01*
X019319Y026765D01*
X019276Y026711D01*
X019237Y026655D01*
X019201Y026597D01*
X019168Y026536D01*
X019139Y026474D01*
X019113Y026411D01*
X019091Y026346D01*
X019072Y026280D01*
X019058Y026213D01*
X019047Y026146D01*
X019040Y026077D01*
X019036Y026009D01*
X019037Y025940D01*
X019041Y025872D01*
X019050Y025804D01*
X019062Y025737D01*
X019077Y025670D01*
X019097Y025604D01*
X019120Y025540D01*
X019147Y025477D01*
X019178Y025415D01*
X019211Y025356D01*
X019248Y025298D01*
X019289Y025243D01*
X019332Y025190D01*
X019378Y025139D01*
X019427Y025091D01*
X019479Y025046D01*
X019533Y025004D01*
X019589Y024965D01*
X019648Y024929D01*
X019708Y024897D01*
X019770Y024868D01*
X019834Y024842D01*
X019899Y024821D01*
X028708Y039053D02*
X028353Y039407D01*
X028353Y039919D01*
X028353Y040785D02*
X028353Y041297D01*
X028708Y041652D01*
X030952Y041652D01*
X030952Y040785D01*
X030952Y039919D02*
X030952Y039053D01*
X028708Y039053D01*
X028491Y039978D02*
X028514Y039913D01*
X028540Y039850D01*
X028570Y039789D01*
X028604Y039729D01*
X028640Y039671D01*
X028680Y039615D01*
X028723Y039562D01*
X028769Y039511D01*
X028818Y039463D01*
X028869Y039418D01*
X028923Y039375D01*
X028979Y039336D01*
X029037Y039300D01*
X029098Y039267D01*
X029160Y039238D01*
X029223Y039212D01*
X029288Y039190D01*
X029354Y039171D01*
X029421Y039157D01*
X029488Y039146D01*
X029557Y039139D01*
X029625Y039135D01*
X029694Y039136D01*
X029762Y039140D01*
X029830Y039149D01*
X029897Y039161D01*
X029964Y039176D01*
X030030Y039196D01*
X030094Y039219D01*
X030157Y039246D01*
X030219Y039277D01*
X030278Y039310D01*
X030336Y039347D01*
X030391Y039388D01*
X030444Y039431D01*
X030495Y039477D01*
X030543Y039526D01*
X030588Y039578D01*
X030630Y039632D01*
X030669Y039688D01*
X030705Y039747D01*
X030737Y039807D01*
X030766Y039869D01*
X030792Y039933D01*
X030813Y039998D01*
X030814Y040726D02*
X030791Y040791D01*
X030765Y040854D01*
X030735Y040915D01*
X030701Y040975D01*
X030665Y041033D01*
X030625Y041089D01*
X030582Y041142D01*
X030536Y041193D01*
X030487Y041241D01*
X030436Y041286D01*
X030382Y041329D01*
X030326Y041368D01*
X030268Y041404D01*
X030207Y041437D01*
X030145Y041466D01*
X030082Y041492D01*
X030017Y041514D01*
X029951Y041533D01*
X029884Y041547D01*
X029817Y041558D01*
X029748Y041565D01*
X029680Y041569D01*
X029611Y041568D01*
X029543Y041564D01*
X029475Y041555D01*
X029408Y041543D01*
X029341Y041528D01*
X029275Y041508D01*
X029211Y041485D01*
X029148Y041458D01*
X029086Y041427D01*
X029027Y041394D01*
X028969Y041357D01*
X028914Y041316D01*
X028861Y041273D01*
X028810Y041227D01*
X028762Y041178D01*
X028717Y041126D01*
X028675Y041072D01*
X028636Y041016D01*
X028600Y040957D01*
X028568Y040897D01*
X028539Y040835D01*
X028513Y040771D01*
X028492Y040706D01*
D14*
X018601Y033108D02*
X018601Y032984D01*
X018539Y032923D01*
X018539Y032801D02*
X018601Y032740D01*
X018601Y032616D01*
X018539Y032554D01*
X018292Y032554D01*
X018231Y032616D01*
X018231Y032740D01*
X018292Y032801D01*
X018231Y032923D02*
X018477Y033170D01*
X018539Y033170D01*
X018601Y033108D01*
X018231Y033170D02*
X018231Y032923D01*
X017961Y033046D02*
X017591Y033046D01*
X017591Y032923D02*
X017591Y033170D01*
X017838Y032923D02*
X017961Y033046D01*
X017899Y032801D02*
X017961Y032740D01*
X017961Y032616D01*
X017899Y032554D01*
X017653Y032554D01*
X017591Y032616D01*
X017591Y032740D01*
X017653Y032801D01*
X017695Y032556D02*
X017695Y032309D01*
X017325Y032309D01*
X017387Y032187D02*
X017325Y032126D01*
X017325Y031941D01*
X017325Y031819D02*
X017325Y031572D01*
X017572Y031819D01*
X017634Y031819D01*
X017695Y031757D01*
X017695Y031634D01*
X017634Y031572D01*
X017591Y031572D02*
X017591Y031696D01*
X017591Y031634D02*
X017961Y031634D01*
X017961Y031572D02*
X017961Y031696D01*
X017961Y031818D02*
X017838Y031941D01*
X017961Y032065D01*
X017591Y032065D01*
X017572Y032126D02*
X017510Y032187D01*
X017387Y032187D01*
X017529Y032186D02*
X017529Y032433D01*
X017510Y032432D02*
X017510Y032309D01*
X017572Y032126D02*
X017572Y031941D01*
X017202Y031941D01*
X017056Y032002D02*
X017056Y032126D01*
X016994Y032187D01*
X016747Y031941D01*
X016685Y032002D01*
X016685Y032126D01*
X016747Y032187D01*
X016994Y032187D01*
X016932Y032309D02*
X016685Y032309D01*
X016685Y032556D02*
X016870Y032556D01*
X016932Y032494D01*
X016932Y032309D01*
X017056Y032002D02*
X016994Y031941D01*
X016747Y031941D01*
X016747Y031819D02*
X016685Y031757D01*
X016685Y031634D01*
X016747Y031572D01*
X016994Y031819D01*
X016747Y031819D01*
X016747Y031572D02*
X016994Y031572D01*
X017056Y031634D01*
X017056Y031757D01*
X016994Y031819D01*
X016685Y031451D02*
X016685Y031204D01*
X016685Y031327D02*
X017056Y031327D01*
X016932Y031204D01*
X017325Y031204D02*
X017572Y031451D01*
X017634Y031451D01*
X017695Y031389D01*
X017695Y031266D01*
X017634Y031204D01*
X017653Y031204D02*
X017591Y031266D01*
X017591Y031389D01*
X017653Y031451D01*
X017714Y031451D01*
X017776Y031389D01*
X017776Y031266D01*
X017838Y031204D01*
X017899Y031204D01*
X017961Y031266D01*
X017961Y031389D01*
X017899Y031451D01*
X018231Y031389D02*
X018231Y031266D01*
X018292Y031204D01*
X018416Y031266D02*
X018416Y031389D01*
X018354Y031451D01*
X018292Y031451D01*
X018231Y031389D01*
X018231Y031572D02*
X018231Y031696D01*
X018231Y031634D02*
X018601Y031634D01*
X018601Y031572D02*
X018601Y031696D01*
X018601Y031818D02*
X018477Y031941D01*
X018601Y032065D01*
X018231Y032065D01*
X018169Y032186D02*
X018169Y032433D01*
X018231Y031818D02*
X018601Y031818D01*
X018539Y031451D02*
X018601Y031389D01*
X018601Y031266D01*
X018539Y031204D01*
X018477Y031204D01*
X018416Y031266D01*
X017961Y031818D02*
X017591Y031818D01*
X017325Y031451D02*
X017325Y031204D01*
X017056Y032677D02*
X016685Y032677D01*
X016870Y032677D02*
X016870Y032801D01*
X017056Y032924D02*
X017056Y032677D01*
D15*
X010853Y021996D03*
X010853Y021110D03*
X011050Y014319D03*
X011050Y013335D03*
X011198Y006888D03*
X011198Y005805D03*
X037379Y021012D03*
D16*
X031086Y018007D02*
X031086Y015857D01*
X031036Y015857D01*
X030336Y015857D01*
X030286Y015857D01*
X030286Y018007D01*
X030288Y018024D01*
X030292Y018041D01*
X030299Y018057D01*
X030309Y018071D01*
X030322Y018084D01*
X030336Y018094D01*
X030352Y018101D01*
X030369Y018105D01*
X030386Y018107D01*
X030986Y018107D01*
X031003Y018105D01*
X031020Y018101D01*
X031036Y018094D01*
X031050Y018084D01*
X031063Y018071D01*
X031073Y018057D01*
X031080Y018041D01*
X031084Y018024D01*
X031086Y018007D01*
X030686Y017357D02*
X030686Y017157D01*
X030486Y017157D01*
X030486Y017007D02*
X030886Y017007D01*
X030886Y016857D01*
X030486Y016857D01*
X030486Y017007D01*
X030686Y017157D02*
X030886Y017157D01*
X030886Y016707D02*
X030686Y016707D01*
X030486Y016707D01*
X030686Y016707D02*
X030686Y016507D01*
X030336Y015857D02*
X030336Y015707D01*
X031036Y015707D01*
X031036Y015857D01*
X031169Y008603D02*
X031269Y008603D01*
X031669Y008603D02*
X031769Y008603D01*
X032169Y008603D02*
X032269Y008603D01*
X032619Y008603D02*
X032636Y008601D01*
X032653Y008597D01*
X032669Y008590D01*
X032683Y008580D01*
X032696Y008567D01*
X032706Y008553D01*
X032713Y008537D01*
X032717Y008520D01*
X032719Y008503D01*
X032719Y007103D01*
X032717Y007086D01*
X032713Y007069D01*
X032706Y007053D01*
X032696Y007039D01*
X032683Y007026D01*
X032669Y007016D01*
X032653Y007009D01*
X032636Y007005D01*
X032619Y007003D01*
X032269Y007003D02*
X032169Y007003D01*
X031769Y007003D02*
X031669Y007003D01*
X031269Y007003D02*
X031169Y007003D01*
X030819Y007003D02*
X030802Y007005D01*
X030785Y007009D01*
X030769Y007016D01*
X030755Y007026D01*
X030742Y007039D01*
X030732Y007053D01*
X030725Y007069D01*
X030721Y007086D01*
X030719Y007103D01*
X030719Y008503D01*
X030721Y008520D01*
X030725Y008537D01*
X030732Y008553D01*
X030742Y008567D01*
X030755Y008580D01*
X030769Y008590D01*
X030785Y008597D01*
X030802Y008601D01*
X030819Y008603D01*
X030869Y008203D02*
X030871Y008227D01*
X030877Y008251D01*
X030886Y008273D01*
X030899Y008293D01*
X030915Y008311D01*
X030934Y008326D01*
X030955Y008339D01*
X030977Y008347D01*
X031001Y008352D01*
X031025Y008353D01*
X031049Y008350D01*
X031072Y008343D01*
X031094Y008333D01*
X031114Y008319D01*
X031131Y008302D01*
X031146Y008283D01*
X031157Y008262D01*
X031165Y008239D01*
X031169Y008215D01*
X031169Y008191D01*
X031165Y008167D01*
X031157Y008144D01*
X031146Y008123D01*
X031131Y008104D01*
X031114Y008087D01*
X031094Y008073D01*
X031072Y008063D01*
X031049Y008056D01*
X031025Y008053D01*
X031001Y008054D01*
X030977Y008059D01*
X030955Y008067D01*
X030934Y008080D01*
X030915Y008095D01*
X030899Y008113D01*
X030886Y008133D01*
X030877Y008155D01*
X030871Y008179D01*
X030869Y008203D01*
X033377Y008424D02*
X033377Y007024D01*
X033379Y007007D01*
X033383Y006990D01*
X033390Y006974D01*
X033400Y006960D01*
X033413Y006947D01*
X033427Y006937D01*
X033443Y006930D01*
X033460Y006926D01*
X033477Y006924D01*
X033827Y006924D02*
X033927Y006924D01*
X034327Y006924D02*
X034427Y006924D01*
X034827Y006924D02*
X034927Y006924D01*
X035277Y006924D02*
X035294Y006926D01*
X035311Y006930D01*
X035327Y006937D01*
X035341Y006947D01*
X035354Y006960D01*
X035364Y006974D01*
X035371Y006990D01*
X035375Y007007D01*
X035377Y007024D01*
X035377Y008424D01*
X035375Y008441D01*
X035371Y008458D01*
X035364Y008474D01*
X035354Y008488D01*
X035341Y008501D01*
X035327Y008511D01*
X035311Y008518D01*
X035294Y008522D01*
X035277Y008524D01*
X034927Y008524D02*
X034827Y008524D01*
X034427Y008524D02*
X034327Y008524D01*
X033927Y008524D02*
X033827Y008524D01*
X033477Y008524D02*
X033460Y008522D01*
X033443Y008518D01*
X033427Y008511D01*
X033413Y008501D01*
X033400Y008488D01*
X033390Y008474D01*
X033383Y008458D01*
X033379Y008441D01*
X033377Y008424D01*
X033527Y008124D02*
X033529Y008148D01*
X033535Y008172D01*
X033544Y008194D01*
X033557Y008214D01*
X033573Y008232D01*
X033592Y008247D01*
X033613Y008260D01*
X033635Y008268D01*
X033659Y008273D01*
X033683Y008274D01*
X033707Y008271D01*
X033730Y008264D01*
X033752Y008254D01*
X033772Y008240D01*
X033789Y008223D01*
X033804Y008204D01*
X033815Y008183D01*
X033823Y008160D01*
X033827Y008136D01*
X033827Y008112D01*
X033823Y008088D01*
X033815Y008065D01*
X033804Y008044D01*
X033789Y008025D01*
X033772Y008008D01*
X033752Y007994D01*
X033730Y007984D01*
X033707Y007977D01*
X033683Y007974D01*
X033659Y007975D01*
X033635Y007980D01*
X033613Y007988D01*
X033592Y008001D01*
X033573Y008016D01*
X033557Y008034D01*
X033544Y008054D01*
X033535Y008076D01*
X033529Y008100D01*
X033527Y008124D01*
X002273Y013285D02*
X002275Y013334D01*
X002281Y013382D01*
X002291Y013430D01*
X002305Y013477D01*
X002322Y013523D01*
X002343Y013567D01*
X002368Y013609D01*
X002396Y013649D01*
X002428Y013687D01*
X002462Y013722D01*
X002499Y013754D01*
X002538Y013783D01*
X002580Y013809D01*
X002624Y013831D01*
X002669Y013849D01*
X002716Y013864D01*
X002763Y013875D01*
X002812Y013882D01*
X002861Y013885D01*
X002910Y013884D01*
X002958Y013879D01*
X003007Y013870D01*
X003054Y013857D01*
X003100Y013840D01*
X003144Y013820D01*
X003187Y013796D01*
X003228Y013769D01*
X003266Y013738D01*
X003302Y013705D01*
X003334Y013669D01*
X003364Y013630D01*
X003391Y013589D01*
X003414Y013545D01*
X003433Y013500D01*
X003449Y013454D01*
X003461Y013407D01*
X003469Y013358D01*
X003473Y013309D01*
X003473Y013261D01*
X003469Y013212D01*
X003461Y013163D01*
X003449Y013116D01*
X003433Y013070D01*
X003414Y013025D01*
X003391Y012981D01*
X003364Y012940D01*
X003334Y012901D01*
X003302Y012865D01*
X003266Y012832D01*
X003228Y012801D01*
X003187Y012774D01*
X003144Y012750D01*
X003100Y012730D01*
X003054Y012713D01*
X003007Y012700D01*
X002958Y012691D01*
X002910Y012686D01*
X002861Y012685D01*
X002812Y012688D01*
X002763Y012695D01*
X002716Y012706D01*
X002669Y012721D01*
X002624Y012739D01*
X002580Y012761D01*
X002538Y012787D01*
X002499Y012816D01*
X002462Y012848D01*
X002428Y012883D01*
X002396Y012921D01*
X002368Y012961D01*
X002343Y013003D01*
X002322Y013047D01*
X002305Y013093D01*
X002291Y013140D01*
X002281Y013188D01*
X002275Y013236D01*
X002273Y013285D01*
D17*
X030486Y015357D02*
X030486Y015507D01*
X030886Y015557D02*
X030886Y015357D01*
D18*
X000125Y020717D02*
X000125Y004969D01*
X003708Y004969D01*
X003747Y004969D01*
X006424Y004969D01*
X006424Y020717D01*
X000125Y020717D01*
X003683Y012861D02*
X003608Y012786D01*
X003608Y012711D01*
X003908Y012410D01*
X003608Y012410D01*
X003683Y012861D02*
X003833Y012861D01*
X003908Y012786D01*
X004069Y012861D02*
X004369Y012861D01*
X004219Y012861D02*
X004219Y012410D01*
X004529Y012410D02*
X004679Y012561D01*
X004604Y012561D02*
X004829Y012561D01*
X004829Y012410D02*
X004829Y012861D01*
X004604Y012861D01*
X004529Y012786D01*
X004529Y012636D01*
X004604Y012561D01*
X003275Y029427D02*
X007684Y029427D01*
X007684Y036553D01*
X003275Y036553D01*
X003275Y029427D01*
X010627Y029427D02*
X015036Y029427D01*
X015036Y036553D01*
X010627Y036553D01*
X010627Y029427D01*
X017979Y029427D02*
X022389Y029427D01*
X022389Y036553D01*
X017979Y036553D01*
X017979Y029427D01*
X016759Y038876D02*
X010066Y038876D01*
X010066Y043207D01*
X016759Y043207D01*
X016759Y038876D01*
X029661Y019559D02*
X029661Y019258D01*
X029961Y019559D01*
X029961Y019258D01*
X029886Y019098D02*
X029886Y018798D01*
X029961Y018639D02*
X029811Y018414D01*
X029661Y018639D01*
X029661Y018798D02*
X030111Y018798D01*
X030111Y019098D02*
X029661Y019098D01*
X029661Y018414D02*
X030111Y018414D01*
X030036Y018254D02*
X029961Y018254D01*
X029886Y018179D01*
X029886Y018029D01*
X029961Y017954D01*
X030036Y017954D01*
X030111Y018029D01*
X030111Y018179D01*
X030036Y018254D01*
X029886Y018179D02*
X029811Y018254D01*
X029736Y018254D01*
X029661Y018179D01*
X029661Y018029D01*
X029736Y017954D01*
X029811Y017954D01*
X029886Y018029D01*
X029811Y017794D02*
X029886Y017719D01*
X029886Y017493D01*
X029736Y017493D01*
X029661Y017569D01*
X029661Y017719D01*
X029736Y017794D01*
X029811Y017794D01*
X030036Y017644D02*
X029886Y017493D01*
X030036Y017644D02*
X030111Y017794D01*
X030111Y017333D02*
X030036Y017333D01*
X029736Y017033D01*
X029661Y017033D01*
X029661Y016878D02*
X029661Y016803D01*
X029736Y016803D01*
X029736Y016878D01*
X029661Y016878D01*
X029661Y016643D02*
X029661Y016342D01*
X029961Y016643D01*
X030036Y016643D01*
X030111Y016568D01*
X030111Y016418D01*
X030036Y016342D01*
X030036Y016182D02*
X029961Y016182D01*
X029886Y016107D01*
X029811Y016182D01*
X029736Y016182D01*
X029661Y016107D01*
X029661Y015957D01*
X029736Y015882D01*
X029886Y016032D02*
X029886Y016107D01*
X030036Y016182D02*
X030111Y016107D01*
X030111Y015957D01*
X030036Y015882D01*
X030111Y017033D02*
X030111Y017333D01*
X031261Y017103D02*
X031711Y017103D01*
X031561Y016953D01*
X031711Y016803D01*
X031261Y016803D01*
X031261Y016493D02*
X031711Y016493D01*
X031711Y016643D02*
X031711Y016342D01*
X031636Y016182D02*
X031711Y016107D01*
X031711Y015957D01*
X031636Y015882D01*
X031561Y015882D01*
X031486Y015957D01*
X031486Y016107D01*
X031411Y016182D01*
X031336Y016182D01*
X031261Y016107D01*
X031261Y015957D01*
X031336Y015882D01*
X031486Y017263D02*
X031486Y017564D01*
X031261Y017724D02*
X031711Y018024D01*
X031711Y018184D02*
X031711Y018484D01*
X031711Y018334D02*
X031261Y018334D01*
X031261Y018024D02*
X031711Y017724D01*
X031561Y018644D02*
X031261Y018644D01*
X031486Y018644D02*
X031486Y018945D01*
X031561Y018945D02*
X031261Y018945D01*
X031261Y019105D02*
X031261Y019405D01*
X031261Y019105D02*
X031711Y019105D01*
X031561Y018945D02*
X031711Y018795D01*
X031561Y018644D01*
X032970Y008468D02*
X032894Y008393D01*
X032894Y008243D01*
X032970Y008168D01*
X033120Y008168D02*
X033195Y008318D01*
X033195Y008393D01*
X033120Y008468D01*
X032970Y008468D01*
X033052Y008339D02*
X033127Y008339D01*
X033202Y008264D01*
X033202Y008114D01*
X033127Y008039D01*
X033120Y008168D02*
X033345Y008168D01*
X033345Y008468D01*
X033052Y008339D02*
X032752Y008039D01*
X032752Y008339D01*
X032970Y008008D02*
X032894Y007933D01*
X032894Y007782D01*
X032970Y007707D01*
X033270Y008008D01*
X032970Y008008D01*
X032752Y007879D02*
X032977Y007654D01*
X032970Y007707D02*
X033270Y007707D01*
X033345Y007782D01*
X033345Y007933D01*
X033270Y008008D01*
X033202Y007879D02*
X032902Y007579D01*
X032894Y007547D02*
X032894Y007247D01*
X033195Y007547D01*
X033270Y007547D01*
X033345Y007472D01*
X033345Y007322D01*
X033270Y007247D01*
X033202Y007193D02*
X033127Y007118D01*
X032827Y007118D01*
X032752Y007193D01*
X032752Y007343D01*
X032827Y007418D01*
X033127Y007418D01*
X033202Y007343D01*
X033202Y007193D01*
X033270Y007087D02*
X033345Y007012D01*
X033345Y006787D01*
X032894Y006787D01*
X032894Y007012D01*
X032970Y007087D01*
X033270Y007087D01*
X033202Y007579D02*
X032752Y007579D01*
X032894Y006626D02*
X032894Y006326D01*
X033345Y006326D01*
X033345Y006169D02*
X033345Y006019D01*
X033345Y006094D02*
X032894Y006094D01*
X032894Y006019D02*
X032894Y006169D01*
X030545Y007272D02*
X030470Y007197D01*
X030170Y007197D01*
X030094Y007272D01*
X030094Y007422D01*
X030170Y007497D01*
X030470Y007497D01*
X030545Y007422D01*
X030545Y007272D01*
X030545Y007657D02*
X030094Y007657D01*
X030245Y007657D02*
X030545Y007958D01*
X030395Y008118D02*
X030545Y008268D01*
X030094Y008268D01*
X030094Y008118D02*
X030094Y008418D01*
X030094Y007958D02*
X030320Y007732D01*
X035552Y007704D02*
X035627Y007629D01*
X035927Y007929D01*
X035627Y007929D01*
X035552Y007854D01*
X035552Y007704D01*
X035627Y007629D02*
X035927Y007629D01*
X036002Y007704D01*
X036002Y007854D01*
X035927Y007929D01*
X036002Y008089D02*
X035777Y008089D01*
X035852Y008239D01*
X035852Y008314D01*
X035777Y008389D01*
X035627Y008389D01*
X035552Y008314D01*
X035552Y008164D01*
X035627Y008089D01*
X036002Y008089D02*
X036002Y008389D01*
X035927Y007468D02*
X036002Y007393D01*
X036002Y007243D01*
X035927Y007168D01*
X035927Y007008D02*
X036002Y006933D01*
X036002Y006708D01*
X035552Y006708D01*
X035552Y006933D01*
X035627Y007008D01*
X035927Y007008D01*
X035552Y007168D02*
X035852Y007468D01*
X035927Y007468D01*
X035552Y007468D02*
X035552Y007168D01*
X035552Y006548D02*
X035552Y006247D01*
X036002Y006247D01*
X036002Y006091D02*
X036002Y005941D01*
X036002Y006016D02*
X035552Y006016D01*
X035552Y005941D02*
X035552Y006091D01*
D19*
X030886Y015572D03*
X030486Y015572D03*
D20*
X026798Y007478D03*
X026011Y007478D03*
X025223Y007478D03*
X027591Y006981D03*
D21*
X030719Y008433D02*
X032719Y008433D01*
X033377Y008354D02*
X035377Y008354D01*
D22*
X003358Y013285D03*
M02*
