G75*
G70*
%OFA0B0*%
%FSLAX24Y24*%
%IPPOS*%
%LPD*%
%AMOC8*
5,1,8,0,0,1.08239X$1,22.5*
%
%ADD10C,0.0000*%
%ADD11C,0.0700*%
D10*
X001946Y000615D02*
X040529Y000615D01*
X040529Y042741D01*
X001946Y042741D01*
X001946Y000615D01*
X002438Y001501D02*
X002440Y001549D01*
X002446Y001597D01*
X002456Y001644D01*
X002469Y001690D01*
X002487Y001735D01*
X002507Y001779D01*
X002532Y001821D01*
X002560Y001860D01*
X002590Y001897D01*
X002624Y001931D01*
X002661Y001963D01*
X002699Y001992D01*
X002740Y002017D01*
X002783Y002039D01*
X002828Y002057D01*
X002874Y002071D01*
X002921Y002082D01*
X002969Y002089D01*
X003017Y002092D01*
X003065Y002091D01*
X003113Y002086D01*
X003161Y002077D01*
X003207Y002065D01*
X003252Y002048D01*
X003296Y002028D01*
X003338Y002005D01*
X003378Y001978D01*
X003416Y001948D01*
X003451Y001915D01*
X003483Y001879D01*
X003513Y001841D01*
X003539Y001800D01*
X003561Y001757D01*
X003581Y001713D01*
X003596Y001668D01*
X003608Y001621D01*
X003616Y001573D01*
X003620Y001525D01*
X003620Y001477D01*
X003616Y001429D01*
X003608Y001381D01*
X003596Y001334D01*
X003581Y001289D01*
X003561Y001245D01*
X003539Y001202D01*
X003513Y001161D01*
X003483Y001123D01*
X003451Y001087D01*
X003416Y001054D01*
X003378Y001024D01*
X003338Y000997D01*
X003296Y000974D01*
X003252Y000954D01*
X003207Y000937D01*
X003161Y000925D01*
X003113Y000916D01*
X003065Y000911D01*
X003017Y000910D01*
X002969Y000913D01*
X002921Y000920D01*
X002874Y000931D01*
X002828Y000945D01*
X002783Y000963D01*
X002740Y000985D01*
X002699Y001010D01*
X002661Y001039D01*
X002624Y001071D01*
X002590Y001105D01*
X002560Y001142D01*
X002532Y001181D01*
X002507Y001223D01*
X002487Y001267D01*
X002469Y001312D01*
X002456Y001358D01*
X002446Y001405D01*
X002440Y001453D01*
X002438Y001501D01*
X027585Y025566D02*
X027587Y025614D01*
X027593Y025662D01*
X027603Y025709D01*
X027616Y025755D01*
X027634Y025800D01*
X027654Y025844D01*
X027679Y025886D01*
X027707Y025925D01*
X027737Y025962D01*
X027771Y025996D01*
X027808Y026028D01*
X027846Y026057D01*
X027887Y026082D01*
X027930Y026104D01*
X027975Y026122D01*
X028021Y026136D01*
X028068Y026147D01*
X028116Y026154D01*
X028164Y026157D01*
X028212Y026156D01*
X028260Y026151D01*
X028308Y026142D01*
X028354Y026130D01*
X028399Y026113D01*
X028443Y026093D01*
X028485Y026070D01*
X028525Y026043D01*
X028563Y026013D01*
X028598Y025980D01*
X028630Y025944D01*
X028660Y025906D01*
X028686Y025865D01*
X028708Y025822D01*
X028728Y025778D01*
X028743Y025733D01*
X028755Y025686D01*
X028763Y025638D01*
X028767Y025590D01*
X028767Y025542D01*
X028763Y025494D01*
X028755Y025446D01*
X028743Y025399D01*
X028728Y025354D01*
X028708Y025310D01*
X028686Y025267D01*
X028660Y025226D01*
X028630Y025188D01*
X028598Y025152D01*
X028563Y025119D01*
X028525Y025089D01*
X028485Y025062D01*
X028443Y025039D01*
X028399Y025019D01*
X028354Y025002D01*
X028308Y024990D01*
X028260Y024981D01*
X028212Y024976D01*
X028164Y024975D01*
X028116Y024978D01*
X028068Y024985D01*
X028021Y024996D01*
X027975Y025010D01*
X027930Y025028D01*
X027887Y025050D01*
X027846Y025075D01*
X027808Y025104D01*
X027771Y025136D01*
X027737Y025170D01*
X027707Y025207D01*
X027679Y025246D01*
X027654Y025288D01*
X027634Y025332D01*
X027616Y025377D01*
X027603Y025423D01*
X027593Y025470D01*
X027587Y025518D01*
X027585Y025566D01*
X032629Y039985D02*
X032631Y040035D01*
X032637Y040085D01*
X032647Y040134D01*
X032661Y040182D01*
X032678Y040229D01*
X032699Y040274D01*
X032724Y040318D01*
X032752Y040359D01*
X032784Y040398D01*
X032818Y040435D01*
X032855Y040469D01*
X032895Y040499D01*
X032937Y040526D01*
X032981Y040550D01*
X033027Y040571D01*
X033074Y040587D01*
X033122Y040600D01*
X033172Y040609D01*
X033221Y040614D01*
X033272Y040615D01*
X033322Y040612D01*
X033371Y040605D01*
X033420Y040594D01*
X033468Y040579D01*
X033514Y040561D01*
X033559Y040539D01*
X033602Y040513D01*
X033643Y040484D01*
X033682Y040452D01*
X033718Y040417D01*
X033750Y040379D01*
X033780Y040339D01*
X033807Y040296D01*
X033830Y040252D01*
X033849Y040206D01*
X033865Y040158D01*
X033877Y040109D01*
X033885Y040060D01*
X033889Y040010D01*
X033889Y039960D01*
X033885Y039910D01*
X033877Y039861D01*
X033865Y039812D01*
X033849Y039764D01*
X033830Y039718D01*
X033807Y039674D01*
X033780Y039631D01*
X033750Y039591D01*
X033718Y039553D01*
X033682Y039518D01*
X033643Y039486D01*
X033602Y039457D01*
X033559Y039431D01*
X033514Y039409D01*
X033468Y039391D01*
X033420Y039376D01*
X033371Y039365D01*
X033322Y039358D01*
X033272Y039355D01*
X033221Y039356D01*
X033172Y039361D01*
X033122Y039370D01*
X033074Y039383D01*
X033027Y039399D01*
X032981Y039420D01*
X032937Y039444D01*
X032895Y039471D01*
X032855Y039501D01*
X032818Y039535D01*
X032784Y039572D01*
X032752Y039611D01*
X032724Y039652D01*
X032699Y039696D01*
X032678Y039741D01*
X032661Y039788D01*
X032647Y039836D01*
X032637Y039885D01*
X032631Y039935D01*
X032629Y039985D01*
X037129Y039985D02*
X037131Y040035D01*
X037137Y040085D01*
X037147Y040134D01*
X037161Y040182D01*
X037178Y040229D01*
X037199Y040274D01*
X037224Y040318D01*
X037252Y040359D01*
X037284Y040398D01*
X037318Y040435D01*
X037355Y040469D01*
X037395Y040499D01*
X037437Y040526D01*
X037481Y040550D01*
X037527Y040571D01*
X037574Y040587D01*
X037622Y040600D01*
X037672Y040609D01*
X037721Y040614D01*
X037772Y040615D01*
X037822Y040612D01*
X037871Y040605D01*
X037920Y040594D01*
X037968Y040579D01*
X038014Y040561D01*
X038059Y040539D01*
X038102Y040513D01*
X038143Y040484D01*
X038182Y040452D01*
X038218Y040417D01*
X038250Y040379D01*
X038280Y040339D01*
X038307Y040296D01*
X038330Y040252D01*
X038349Y040206D01*
X038365Y040158D01*
X038377Y040109D01*
X038385Y040060D01*
X038389Y040010D01*
X038389Y039960D01*
X038385Y039910D01*
X038377Y039861D01*
X038365Y039812D01*
X038349Y039764D01*
X038330Y039718D01*
X038307Y039674D01*
X038280Y039631D01*
X038250Y039591D01*
X038218Y039553D01*
X038182Y039518D01*
X038143Y039486D01*
X038102Y039457D01*
X038059Y039431D01*
X038014Y039409D01*
X037968Y039391D01*
X037920Y039376D01*
X037871Y039365D01*
X037822Y039358D01*
X037772Y039355D01*
X037721Y039356D01*
X037672Y039361D01*
X037622Y039370D01*
X037574Y039383D01*
X037527Y039399D01*
X037481Y039420D01*
X037437Y039444D01*
X037395Y039471D01*
X037355Y039501D01*
X037318Y039535D01*
X037284Y039572D01*
X037252Y039611D01*
X037224Y039652D01*
X037199Y039696D01*
X037178Y039741D01*
X037161Y039788D01*
X037147Y039836D01*
X037137Y039885D01*
X037131Y039935D01*
X037129Y039985D01*
X039052Y041757D02*
X039054Y041805D01*
X039060Y041853D01*
X039070Y041900D01*
X039083Y041946D01*
X039101Y041991D01*
X039121Y042035D01*
X039146Y042077D01*
X039174Y042116D01*
X039204Y042153D01*
X039238Y042187D01*
X039275Y042219D01*
X039313Y042248D01*
X039354Y042273D01*
X039397Y042295D01*
X039442Y042313D01*
X039488Y042327D01*
X039535Y042338D01*
X039583Y042345D01*
X039631Y042348D01*
X039679Y042347D01*
X039727Y042342D01*
X039775Y042333D01*
X039821Y042321D01*
X039866Y042304D01*
X039910Y042284D01*
X039952Y042261D01*
X039992Y042234D01*
X040030Y042204D01*
X040065Y042171D01*
X040097Y042135D01*
X040127Y042097D01*
X040153Y042056D01*
X040175Y042013D01*
X040195Y041969D01*
X040210Y041924D01*
X040222Y041877D01*
X040230Y041829D01*
X040234Y041781D01*
X040234Y041733D01*
X040230Y041685D01*
X040222Y041637D01*
X040210Y041590D01*
X040195Y041545D01*
X040175Y041501D01*
X040153Y041458D01*
X040127Y041417D01*
X040097Y041379D01*
X040065Y041343D01*
X040030Y041310D01*
X039992Y041280D01*
X039952Y041253D01*
X039910Y041230D01*
X039866Y041210D01*
X039821Y041193D01*
X039775Y041181D01*
X039727Y041172D01*
X039679Y041167D01*
X039631Y041166D01*
X039583Y041169D01*
X039535Y041176D01*
X039488Y041187D01*
X039442Y041201D01*
X039397Y041219D01*
X039354Y041241D01*
X039313Y041266D01*
X039275Y041295D01*
X039238Y041327D01*
X039204Y041361D01*
X039174Y041398D01*
X039146Y041437D01*
X039121Y041479D01*
X039101Y041523D01*
X039083Y041568D01*
X039070Y041614D01*
X039060Y041661D01*
X039054Y041709D01*
X039052Y041757D01*
X007153Y041383D02*
X007155Y041408D01*
X007161Y041433D01*
X007170Y041457D01*
X007183Y041479D01*
X007200Y041499D01*
X007219Y041516D01*
X007240Y041530D01*
X007264Y041540D01*
X007288Y041547D01*
X007314Y041550D01*
X007339Y041549D01*
X007364Y041544D01*
X007388Y041535D01*
X007411Y041523D01*
X007431Y041508D01*
X007449Y041489D01*
X007464Y041468D01*
X007475Y041445D01*
X007483Y041421D01*
X007487Y041396D01*
X007487Y041370D01*
X007483Y041345D01*
X007475Y041321D01*
X007464Y041298D01*
X007449Y041277D01*
X007431Y041258D01*
X007411Y041243D01*
X007388Y041231D01*
X007364Y041222D01*
X007339Y041217D01*
X007314Y041216D01*
X007288Y041219D01*
X007264Y041226D01*
X007240Y041236D01*
X007219Y041250D01*
X007200Y041267D01*
X007183Y041287D01*
X007170Y041309D01*
X007161Y041333D01*
X007155Y041358D01*
X007153Y041383D01*
X005657Y041383D02*
X005659Y041408D01*
X005665Y041433D01*
X005674Y041457D01*
X005687Y041479D01*
X005704Y041499D01*
X005723Y041516D01*
X005744Y041530D01*
X005768Y041540D01*
X005792Y041547D01*
X005818Y041550D01*
X005843Y041549D01*
X005868Y041544D01*
X005892Y041535D01*
X005915Y041523D01*
X005935Y041508D01*
X005953Y041489D01*
X005968Y041468D01*
X005979Y041445D01*
X005987Y041421D01*
X005991Y041396D01*
X005991Y041370D01*
X005987Y041345D01*
X005979Y041321D01*
X005968Y041298D01*
X005953Y041277D01*
X005935Y041258D01*
X005915Y041243D01*
X005892Y041231D01*
X005868Y041222D01*
X005843Y041217D01*
X005818Y041216D01*
X005792Y041219D01*
X005768Y041226D01*
X005744Y041236D01*
X005723Y041250D01*
X005704Y041267D01*
X005687Y041287D01*
X005674Y041309D01*
X005665Y041333D01*
X005659Y041358D01*
X005657Y041383D01*
X002438Y041757D02*
X002440Y041805D01*
X002446Y041853D01*
X002456Y041900D01*
X002469Y041946D01*
X002487Y041991D01*
X002507Y042035D01*
X002532Y042077D01*
X002560Y042116D01*
X002590Y042153D01*
X002624Y042187D01*
X002661Y042219D01*
X002699Y042248D01*
X002740Y042273D01*
X002783Y042295D01*
X002828Y042313D01*
X002874Y042327D01*
X002921Y042338D01*
X002969Y042345D01*
X003017Y042348D01*
X003065Y042347D01*
X003113Y042342D01*
X003161Y042333D01*
X003207Y042321D01*
X003252Y042304D01*
X003296Y042284D01*
X003338Y042261D01*
X003378Y042234D01*
X003416Y042204D01*
X003451Y042171D01*
X003483Y042135D01*
X003513Y042097D01*
X003539Y042056D01*
X003561Y042013D01*
X003581Y041969D01*
X003596Y041924D01*
X003608Y041877D01*
X003616Y041829D01*
X003620Y041781D01*
X003620Y041733D01*
X003616Y041685D01*
X003608Y041637D01*
X003596Y041590D01*
X003581Y041545D01*
X003561Y041501D01*
X003539Y041458D01*
X003513Y041417D01*
X003483Y041379D01*
X003451Y041343D01*
X003416Y041310D01*
X003378Y041280D01*
X003338Y041253D01*
X003296Y041230D01*
X003252Y041210D01*
X003207Y041193D01*
X003161Y041181D01*
X003113Y041172D01*
X003065Y041167D01*
X003017Y041166D01*
X002969Y041169D01*
X002921Y041176D01*
X002874Y041187D01*
X002828Y041201D01*
X002783Y041219D01*
X002740Y041241D01*
X002699Y041266D01*
X002661Y041295D01*
X002624Y041327D01*
X002590Y041361D01*
X002560Y041398D01*
X002532Y041437D01*
X002507Y041479D01*
X002487Y041523D01*
X002469Y041568D01*
X002456Y041614D01*
X002446Y041661D01*
X002440Y041709D01*
X002438Y041757D01*
X039052Y001501D02*
X039054Y001549D01*
X039060Y001597D01*
X039070Y001644D01*
X039083Y001690D01*
X039101Y001735D01*
X039121Y001779D01*
X039146Y001821D01*
X039174Y001860D01*
X039204Y001897D01*
X039238Y001931D01*
X039275Y001963D01*
X039313Y001992D01*
X039354Y002017D01*
X039397Y002039D01*
X039442Y002057D01*
X039488Y002071D01*
X039535Y002082D01*
X039583Y002089D01*
X039631Y002092D01*
X039679Y002091D01*
X039727Y002086D01*
X039775Y002077D01*
X039821Y002065D01*
X039866Y002048D01*
X039910Y002028D01*
X039952Y002005D01*
X039992Y001978D01*
X040030Y001948D01*
X040065Y001915D01*
X040097Y001879D01*
X040127Y001841D01*
X040153Y001800D01*
X040175Y001757D01*
X040195Y001713D01*
X040210Y001668D01*
X040222Y001621D01*
X040230Y001573D01*
X040234Y001525D01*
X040234Y001477D01*
X040230Y001429D01*
X040222Y001381D01*
X040210Y001334D01*
X040195Y001289D01*
X040175Y001245D01*
X040153Y001202D01*
X040127Y001161D01*
X040097Y001123D01*
X040065Y001087D01*
X040030Y001054D01*
X039992Y001024D01*
X039952Y000997D01*
X039910Y000974D01*
X039866Y000954D01*
X039821Y000937D01*
X039775Y000925D01*
X039727Y000916D01*
X039679Y000911D01*
X039631Y000910D01*
X039583Y000913D01*
X039535Y000920D01*
X039488Y000931D01*
X039442Y000945D01*
X039397Y000963D01*
X039354Y000985D01*
X039313Y001010D01*
X039275Y001039D01*
X039238Y001071D01*
X039204Y001105D01*
X039174Y001142D01*
X039146Y001181D01*
X039121Y001223D01*
X039101Y001267D01*
X039083Y001312D01*
X039070Y001358D01*
X039060Y001405D01*
X039054Y001453D01*
X039052Y001501D01*
D11*
X007851Y001599D02*
X007851Y007062D01*
X007851Y008883D02*
X007851Y014542D01*
X008097Y016461D02*
X008097Y024631D01*
X007064Y026009D02*
X002979Y026009D01*
M02*
