G75*
G70*
%OFA0B0*%
%FSLAX24Y24*%
%IPPOS*%
%LPD*%
%AMOC8*
5,1,8,0,0,1.08239X$1,22.5*
%
%ADD10R,0.0394X0.0433*%
%ADD11R,0.0433X0.0394*%
%ADD12R,0.0354X0.0276*%
%ADD13R,0.0630X0.0512*%
%ADD14R,0.1378X0.0630*%
%ADD15C,0.0594*%
%ADD16C,0.0945*%
%ADD17C,0.0554*%
%ADD18C,0.0236*%
%ADD19R,0.0260X0.0800*%
%ADD20R,0.0800X0.0260*%
%ADD21R,0.0472X0.0472*%
%ADD22C,0.0440*%
%ADD23R,0.0276X0.0354*%
%ADD24R,0.0110X0.0580*%
%ADD25R,0.0580X0.0110*%
%ADD26R,0.0118X0.0591*%
%ADD27R,0.0591X0.0118*%
%ADD28C,0.0650*%
%ADD29C,0.0600*%
%ADD30OC8,0.0600*%
%ADD31R,0.0591X0.0512*%
%ADD32R,0.0600X0.0300*%
%ADD33C,0.0660*%
%ADD34C,0.0397*%
%ADD35R,0.0169X0.0110*%
%ADD36R,0.0335X0.0866*%
%ADD37R,0.0394X0.0413*%
%ADD38R,0.0295X0.1181*%
%ADD39R,0.1181X0.1969*%
%ADD40C,0.0760*%
%ADD41OC8,0.0520*%
%ADD42C,0.0974*%
%ADD43C,0.0515*%
%ADD44R,0.0515X0.0515*%
%ADD45R,0.0453X0.0173*%
%ADD46R,0.0453X0.0248*%
%ADD47C,0.0118*%
%ADD48R,0.1280X0.1280*%
%ADD49R,0.0472X0.0394*%
%ADD50R,0.0138X0.0098*%
%ADD51R,0.0098X0.0138*%
%ADD52R,0.0138X0.0394*%
%ADD53R,0.0157X0.0551*%
%ADD54R,0.0709X0.0591*%
%ADD55R,0.0984X0.0591*%
%ADD56C,0.0515*%
%ADD57R,0.1575X0.1575*%
%ADD58OC8,0.0700*%
%ADD59C,0.0100*%
%ADD60OC8,0.0396*%
%ADD61C,0.0160*%
%ADD62OC8,0.0357*%
%ADD63C,0.0400*%
%ADD64C,0.0320*%
%ADD65C,0.0357*%
%ADD66C,0.0500*%
%ADD67C,0.0317*%
%ADD68C,0.0120*%
%ADD69OC8,0.0317*%
%ADD70C,0.0560*%
%ADD71C,0.0278*%
%ADD72C,0.0240*%
%ADD73C,0.0860*%
%ADD74C,0.0660*%
%ADD75OC8,0.0278*%
%ADD76C,0.0197*%
%ADD77C,0.0366*%
%ADD78C,0.0039*%
D10*
X016316Y012190D03*
X016316Y012859D03*
X016316Y016914D03*
X016316Y017583D03*
X020164Y019020D03*
X020834Y019020D03*
X018727Y024001D03*
X018727Y024670D03*
X022123Y012957D03*
X022123Y012288D03*
X023009Y012288D03*
X023009Y012957D03*
X029849Y014355D03*
X029849Y015024D03*
X030686Y015024D03*
X030686Y014355D03*
X034328Y013942D03*
X034328Y013272D03*
X036296Y014896D03*
X036296Y015566D03*
X036592Y018883D03*
X036592Y019552D03*
X031966Y024641D03*
X031966Y025310D03*
X032664Y025270D03*
X033334Y025270D03*
X033245Y030202D03*
X033245Y030871D03*
X033836Y031973D03*
X033836Y032643D03*
X034623Y032643D03*
X034623Y031973D03*
X035066Y031166D03*
X035066Y030497D03*
X036198Y031973D03*
X036198Y032643D03*
X036493Y031166D03*
X036493Y030497D03*
X032261Y031678D03*
X032261Y032347D03*
X038718Y025270D03*
X039387Y025270D03*
D11*
X034761Y024778D03*
X034092Y024778D03*
X032891Y026107D03*
X032221Y026107D03*
X032546Y026894D03*
X031877Y026894D03*
X031729Y027682D03*
X031877Y028469D03*
X032546Y028469D03*
X032399Y027682D03*
X032221Y029257D03*
X032891Y029257D03*
X033048Y031678D03*
X033048Y032347D03*
X034771Y034139D03*
X034771Y034808D03*
X035952Y034808D03*
X035952Y034139D03*
X035410Y032643D03*
X035410Y031973D03*
X036985Y031973D03*
X036985Y032643D03*
X037969Y032446D03*
X037969Y031776D03*
X038757Y031776D03*
X038757Y032446D03*
X031710Y020251D03*
X031040Y020251D03*
X031828Y013656D03*
X032497Y013656D03*
X032694Y012820D03*
X032025Y012820D03*
X029544Y013656D03*
X028875Y013656D03*
X032123Y009965D03*
X032792Y009965D03*
X019406Y023253D03*
X018737Y023253D03*
X019377Y025566D03*
X020046Y025566D03*
X023806Y027879D03*
X024475Y027879D03*
X021414Y040300D03*
X021414Y040969D03*
D12*
X017359Y024562D03*
X017359Y024050D03*
X016641Y024089D03*
X016641Y024601D03*
X015893Y024641D03*
X015893Y024129D03*
X014790Y024247D03*
X014790Y024759D03*
X014023Y024759D03*
X014023Y024247D03*
X013255Y024247D03*
X013255Y024759D03*
X012261Y024769D03*
X012261Y024257D03*
X011601Y024257D03*
X011601Y024769D03*
X010942Y024778D03*
X010942Y024267D03*
X010322Y024281D03*
X010322Y024793D03*
X035017Y013863D03*
X035017Y013351D03*
D13*
X015529Y012918D03*
X015529Y012131D03*
D14*
X037546Y034178D03*
X039672Y034178D03*
X030962Y040477D03*
X028836Y040477D03*
D15*
X033019Y041316D03*
X034019Y041914D03*
X036999Y041316D03*
X037999Y041914D03*
D16*
X038609Y038784D03*
X032408Y038784D03*
D17*
X034259Y037485D03*
X034759Y036485D03*
X033759Y036485D03*
X035259Y037485D03*
X036259Y037485D03*
X036759Y036485D03*
X035759Y036485D03*
X037259Y037485D03*
D18*
X028855Y037180D02*
X028305Y037180D01*
X028305Y036786D02*
X028855Y036786D01*
X028855Y036393D02*
X028305Y036393D01*
X028305Y035999D02*
X028855Y035999D01*
X028855Y035605D02*
X028305Y035605D01*
X028305Y035211D02*
X028855Y035211D01*
X028855Y034818D02*
X028305Y034818D01*
X028305Y034424D02*
X028855Y034424D01*
X028855Y034030D02*
X028305Y034030D01*
X028305Y033637D02*
X028855Y033637D01*
X028855Y033243D02*
X028305Y033243D01*
X028305Y032849D02*
X028855Y032849D01*
X028855Y032456D02*
X028305Y032456D01*
X028305Y032062D02*
X028855Y032062D01*
X028855Y031668D02*
X028305Y031668D01*
X028305Y031274D02*
X028855Y031274D01*
X028855Y030881D02*
X028305Y030881D01*
X026847Y029423D02*
X026847Y028873D01*
X026454Y028873D02*
X026454Y029423D01*
X026060Y029423D02*
X026060Y028873D01*
X025666Y028873D02*
X025666Y029423D01*
X025273Y029423D02*
X025273Y028873D01*
X024879Y028873D02*
X024879Y029423D01*
X024485Y029423D02*
X024485Y028873D01*
X024092Y028873D02*
X024092Y029423D01*
X023698Y029423D02*
X023698Y028873D01*
X023304Y028873D02*
X023304Y029423D01*
X022910Y029423D02*
X022910Y028873D01*
X022517Y028873D02*
X022517Y029423D01*
X022123Y029423D02*
X022123Y028873D01*
X021729Y028873D02*
X021729Y029423D01*
X021336Y029423D02*
X021336Y028873D01*
X020942Y028873D02*
X020942Y029423D01*
X020548Y029423D02*
X020548Y028873D01*
X019091Y030881D02*
X018541Y030881D01*
X018541Y031274D02*
X019091Y031274D01*
X019091Y031668D02*
X018541Y031668D01*
X018541Y032062D02*
X019091Y032062D01*
X019091Y032456D02*
X018541Y032456D01*
X018541Y032849D02*
X019091Y032849D01*
X019091Y033243D02*
X018541Y033243D01*
X018541Y033637D02*
X019091Y033637D01*
X019091Y034030D02*
X018541Y034030D01*
X018541Y034424D02*
X019091Y034424D01*
X019091Y034818D02*
X018541Y034818D01*
X018541Y035211D02*
X019091Y035211D01*
X019091Y035605D02*
X018541Y035605D01*
X018541Y035999D02*
X019091Y035999D01*
X019091Y036393D02*
X018541Y036393D01*
X018541Y036786D02*
X019091Y036786D01*
X019091Y037180D02*
X018541Y037180D01*
X020548Y038637D02*
X020548Y039187D01*
X020942Y039187D02*
X020942Y038637D01*
X021336Y038637D02*
X021336Y039187D01*
X021729Y039187D02*
X021729Y038637D01*
X022123Y038637D02*
X022123Y039187D01*
X022517Y039187D02*
X022517Y038637D01*
X022910Y038637D02*
X022910Y039187D01*
X023304Y039187D02*
X023304Y038637D01*
X023698Y038637D02*
X023698Y039187D01*
X024092Y039187D02*
X024092Y038637D01*
X024485Y038637D02*
X024485Y039187D01*
X024879Y039187D02*
X024879Y038637D01*
X025273Y038637D02*
X025273Y039187D01*
X025666Y039187D02*
X025666Y038637D01*
X026060Y038637D02*
X026060Y039187D01*
X026454Y039187D02*
X026454Y038637D01*
X026847Y038637D02*
X026847Y039187D01*
D19*
X022446Y008370D03*
X021946Y008370D03*
X021446Y008370D03*
X020946Y008370D03*
X020446Y008370D03*
X019946Y008370D03*
X019446Y008370D03*
X018946Y008370D03*
X017869Y008370D03*
X017369Y008370D03*
X016869Y008370D03*
X016369Y008370D03*
X015869Y008370D03*
X015369Y008370D03*
X014869Y008370D03*
X014369Y008370D03*
X014369Y005950D03*
X014869Y005950D03*
X015369Y005950D03*
X015869Y005950D03*
X016369Y005950D03*
X016869Y005950D03*
X017369Y005950D03*
X017869Y005950D03*
X018946Y005950D03*
X019446Y005950D03*
X019946Y005950D03*
X020446Y005950D03*
X020946Y005950D03*
X021446Y005950D03*
X021946Y005950D03*
X022446Y005950D03*
X023460Y005238D03*
X023960Y005238D03*
X024460Y005238D03*
X024960Y005238D03*
X025460Y005238D03*
X025960Y005238D03*
X026460Y005238D03*
X026960Y005238D03*
X026960Y007658D03*
X026460Y007658D03*
X025960Y007658D03*
X025460Y007658D03*
X024960Y007658D03*
X024460Y007658D03*
X023960Y007658D03*
X023460Y007658D03*
D20*
X021150Y012432D03*
X021150Y012932D03*
X021150Y013432D03*
X021150Y013932D03*
X021150Y014432D03*
X021150Y014932D03*
X021150Y015432D03*
X021150Y015932D03*
X021150Y016432D03*
X021150Y016932D03*
X021150Y017432D03*
X021150Y017932D03*
X017190Y017932D03*
X017190Y017432D03*
X017190Y016932D03*
X017190Y016432D03*
X017190Y015932D03*
X017190Y015432D03*
X017190Y014932D03*
X017190Y014432D03*
X017190Y013932D03*
X017190Y013432D03*
X017190Y012932D03*
X017190Y012432D03*
D21*
X026454Y040261D03*
X026454Y041087D03*
X020253Y040704D03*
X020253Y041530D03*
D22*
X032344Y023620D02*
X032344Y023180D01*
X034344Y023180D02*
X034344Y023620D01*
D23*
X028235Y018430D03*
X027723Y018430D03*
X027497Y017938D03*
X026985Y017938D03*
X025725Y018479D03*
X025214Y018479D03*
X025381Y017987D03*
X024869Y017987D03*
X018147Y025270D03*
X017635Y025270D03*
X015981Y025270D03*
X015469Y025270D03*
X013875Y025635D03*
X013363Y025635D03*
X013344Y026265D03*
X013855Y026265D03*
X011592Y025384D03*
X011080Y025384D03*
X019032Y040290D03*
X019544Y040290D03*
D24*
X031765Y019262D03*
X031965Y019262D03*
X032165Y019262D03*
X032355Y019262D03*
X032555Y019262D03*
X032755Y019262D03*
X032945Y019262D03*
X033145Y019262D03*
X033345Y019262D03*
X033545Y019262D03*
X033735Y019262D03*
X033935Y019262D03*
X034135Y019262D03*
X034325Y019262D03*
X034525Y019262D03*
X034725Y019262D03*
X034725Y014842D03*
X034525Y014842D03*
X034325Y014842D03*
X034135Y014842D03*
X033935Y014842D03*
X033735Y014842D03*
X033545Y014842D03*
X033345Y014842D03*
X033145Y014842D03*
X032945Y014842D03*
X032755Y014842D03*
X032555Y014842D03*
X032355Y014842D03*
X032165Y014842D03*
X031965Y014842D03*
X031765Y014842D03*
D25*
X031035Y015572D03*
X031035Y015772D03*
X031035Y015972D03*
X031035Y016162D03*
X031035Y016362D03*
X031035Y016562D03*
X031035Y016752D03*
X031035Y016952D03*
X031035Y017152D03*
X031035Y017352D03*
X031035Y017542D03*
X031035Y017742D03*
X031035Y017942D03*
X031035Y018132D03*
X031035Y018332D03*
X031035Y018532D03*
X035455Y018532D03*
X035455Y018332D03*
X035455Y018132D03*
X035455Y017942D03*
X035455Y017742D03*
X035455Y017542D03*
X035455Y017352D03*
X035455Y017152D03*
X035455Y016952D03*
X035455Y016752D03*
X035455Y016562D03*
X035455Y016362D03*
X035455Y016162D03*
X035455Y015972D03*
X035455Y015772D03*
X035455Y015572D03*
D26*
X035509Y025733D03*
X035706Y025733D03*
X035903Y025733D03*
X036099Y025733D03*
X036296Y025733D03*
X036493Y025733D03*
X036690Y025733D03*
X035312Y025733D03*
X035115Y025733D03*
X034918Y025733D03*
X034721Y025733D03*
X034525Y025733D03*
X034525Y029237D03*
X034721Y029237D03*
X034918Y029237D03*
X035115Y029237D03*
X035312Y029237D03*
X035509Y029237D03*
X035706Y029237D03*
X035903Y029237D03*
X036099Y029237D03*
X036296Y029237D03*
X036493Y029237D03*
X036690Y029237D03*
D27*
X037359Y028568D03*
X037359Y028371D03*
X037359Y028174D03*
X037359Y027977D03*
X037359Y027780D03*
X037359Y027583D03*
X037359Y027387D03*
X037359Y027190D03*
X037359Y026993D03*
X037359Y026796D03*
X037359Y026599D03*
X037359Y026402D03*
X033855Y026402D03*
X033855Y026599D03*
X033855Y026796D03*
X033855Y026993D03*
X033855Y027190D03*
X033855Y027387D03*
X033855Y027583D03*
X033855Y027780D03*
X033855Y027977D03*
X033855Y028174D03*
X033855Y028371D03*
X033855Y028568D03*
D28*
X025092Y015871D03*
X023092Y015871D03*
D29*
X026857Y024247D03*
X026306Y025566D03*
X026857Y026885D03*
X029495Y026885D03*
X030046Y025566D03*
X029495Y024247D03*
X030072Y033489D03*
X031072Y033489D03*
X031072Y034670D03*
X030072Y034670D03*
X032072Y034670D03*
X033072Y034670D03*
X033072Y033489D03*
X032072Y033489D03*
X031719Y001550D03*
X030719Y001550D03*
X032719Y001550D03*
X033960Y001550D03*
X034960Y001550D03*
X035960Y001550D03*
X036960Y001550D03*
D30*
X029798Y003839D03*
X028798Y003839D03*
X028798Y004839D03*
X029798Y004839D03*
X029798Y005839D03*
X028798Y005839D03*
X028798Y006839D03*
X029798Y006839D03*
X026042Y003831D03*
X026042Y002831D03*
X025042Y002831D03*
X025042Y003831D03*
X024042Y003831D03*
X024042Y002831D03*
X023042Y002831D03*
X023042Y003831D03*
X022042Y003831D03*
X022042Y002831D03*
X017824Y002831D03*
X016824Y002831D03*
X016824Y003831D03*
X017824Y003831D03*
X015824Y003831D03*
X015824Y002831D03*
X014824Y002831D03*
X014824Y003831D03*
X013824Y003831D03*
X013824Y002831D03*
D31*
X034180Y030300D03*
X034180Y030969D03*
X030292Y038026D03*
X030292Y038696D03*
D32*
X029867Y010272D03*
X029867Y008772D03*
X027667Y008772D03*
X027667Y010272D03*
D33*
X030186Y013459D03*
X031186Y013459D03*
D34*
X031316Y008886D02*
X031316Y008489D01*
X032103Y008489D02*
X032103Y008886D01*
X032891Y008886D02*
X032891Y008489D01*
X033678Y008489D02*
X033678Y008886D01*
X034466Y008886D02*
X034466Y008489D01*
X035253Y008489D02*
X035253Y008886D01*
X036040Y008886D02*
X036040Y008489D01*
X036828Y008489D02*
X036828Y008886D01*
X036828Y002977D02*
X036828Y002580D01*
X036040Y002580D02*
X036040Y002977D01*
X035253Y002977D02*
X035253Y002580D01*
X034466Y002580D02*
X034466Y002977D01*
X033678Y002977D02*
X033678Y002580D01*
X032891Y002580D02*
X032891Y002977D01*
X032103Y002977D02*
X032103Y002580D01*
X031316Y002580D02*
X031316Y002977D01*
D35*
X035460Y011194D03*
X035460Y011394D03*
X035853Y011394D03*
X035853Y011194D03*
D36*
X023993Y021629D03*
X022910Y021629D03*
X023501Y041363D03*
X024584Y041363D03*
D37*
X024042Y041963D03*
X024042Y040763D03*
X023452Y022229D03*
X023452Y021028D03*
D38*
X015389Y032198D03*
X014889Y032198D03*
X014389Y032198D03*
X013889Y032198D03*
X013389Y032198D03*
X012889Y032198D03*
D39*
X010109Y041658D03*
X018160Y041658D03*
D40*
X010127Y021747D03*
X006127Y021747D03*
X006127Y016747D03*
X006127Y014267D03*
X010127Y014267D03*
X010127Y016747D03*
X010127Y009267D03*
X010127Y006786D03*
X006127Y006786D03*
X006127Y009267D03*
X006127Y001786D03*
X010127Y001786D03*
D41*
X009426Y001757D03*
X009426Y006757D03*
X009431Y009252D03*
X009431Y014252D03*
X009392Y016727D03*
X009392Y021727D03*
X003725Y015428D03*
X002725Y015428D03*
X002735Y011707D03*
X003735Y011707D03*
X003725Y007997D03*
X002725Y007997D03*
D42*
X002787Y005635D02*
X003762Y005635D01*
X003762Y009375D02*
X002787Y009375D01*
X002787Y013115D02*
X003762Y013115D01*
X003762Y016855D02*
X002787Y016855D01*
D43*
X013082Y017219D03*
X013082Y018219D03*
X013082Y016219D03*
X013082Y015219D03*
X038655Y015219D03*
X038655Y014219D03*
X038655Y013219D03*
X038655Y012219D03*
X038655Y010219D03*
X038655Y016219D03*
X038655Y017219D03*
X038655Y018219D03*
X038655Y019219D03*
X038655Y020219D03*
X038655Y021219D03*
X038655Y022219D03*
X038655Y023219D03*
D44*
X038655Y011219D03*
D45*
X038668Y026343D03*
X038668Y026658D03*
X039436Y026658D03*
X039436Y026343D03*
X039436Y028017D03*
X039436Y028331D03*
X038668Y028331D03*
X038668Y028017D03*
D46*
X038668Y027664D03*
X038668Y027011D03*
X039436Y027011D03*
X039436Y027664D03*
X039436Y028684D03*
X038668Y028684D03*
X038668Y025991D03*
X039436Y025991D03*
D47*
X028116Y020595D02*
X027822Y020595D01*
X027822Y020398D02*
X028116Y020398D01*
X028116Y020202D02*
X027822Y020202D01*
X027822Y020005D02*
X028116Y020005D01*
X028116Y019808D02*
X027822Y019808D01*
X027822Y019611D02*
X028116Y019611D01*
X028116Y019414D02*
X027822Y019414D01*
X027635Y019227D02*
X027635Y018933D01*
X027438Y018933D02*
X027438Y019227D01*
X027241Y019227D02*
X027241Y018933D01*
X027044Y018933D02*
X027044Y019227D01*
X026847Y019227D02*
X026847Y018933D01*
X026651Y018933D02*
X026651Y019227D01*
X026454Y019227D02*
X026454Y018933D01*
X026266Y019414D02*
X025972Y019414D01*
X025972Y019611D02*
X026266Y019611D01*
X026266Y019808D02*
X025972Y019808D01*
X025972Y020005D02*
X026266Y020005D01*
X026266Y020202D02*
X025972Y020202D01*
X025972Y020398D02*
X026266Y020398D01*
X026266Y020595D02*
X025972Y020595D01*
X026454Y020783D02*
X026454Y021077D01*
X026651Y021077D02*
X026651Y020783D01*
X026847Y020783D02*
X026847Y021077D01*
X027044Y021077D02*
X027044Y020783D01*
X027241Y020783D02*
X027241Y021077D01*
X027438Y021077D02*
X027438Y020783D01*
X027635Y020783D02*
X027635Y021077D01*
D48*
X027044Y020005D03*
D49*
X026050Y021983D03*
X025381Y021983D03*
X025381Y022652D03*
X026050Y022652D03*
D50*
X026306Y021629D03*
X026306Y021432D03*
D51*
X026651Y021678D03*
X026847Y021678D03*
D52*
X025332Y020359D03*
X025076Y020359D03*
X024820Y020359D03*
X024820Y019650D03*
X025076Y019650D03*
X025332Y019650D03*
D53*
X007084Y041186D03*
X006828Y041186D03*
X006572Y041186D03*
X006316Y041186D03*
X006060Y041186D03*
D54*
X005115Y042249D03*
X008029Y042249D03*
D55*
X006572Y042249D03*
D56*
X008481Y036286D02*
X008481Y035771D01*
X002418Y035771D02*
X002418Y036286D01*
X004466Y024711D02*
X004466Y024196D01*
X006434Y024196D02*
X006434Y024711D01*
D57*
X010735Y026648D03*
X010735Y030979D03*
X016641Y030979D03*
X016641Y026648D03*
D58*
X018517Y020303D03*
X019517Y020303D03*
X020517Y020303D03*
X021517Y020303D03*
D59*
X022230Y021005D02*
X022992Y021005D01*
X022992Y021031D02*
X022992Y020532D01*
X022989Y020525D01*
X022992Y020441D01*
X022992Y020356D01*
X022995Y020349D01*
X022995Y020342D01*
X023029Y020265D01*
X023034Y020255D01*
X022939Y020255D01*
X022811Y020202D01*
X022713Y020104D01*
X022660Y019976D01*
X022660Y019837D01*
X022713Y019709D01*
X022811Y019610D01*
X022939Y019557D01*
X023078Y019557D01*
X023207Y019610D01*
X023305Y019709D01*
X023358Y019837D01*
X023358Y019904D01*
X023560Y019714D01*
X023530Y019714D01*
X023402Y019661D01*
X023303Y019563D01*
X023250Y019434D01*
X023250Y019296D01*
X023303Y019167D01*
X023402Y019069D01*
X023530Y019016D01*
X023669Y019016D01*
X023797Y019069D01*
X023895Y019167D01*
X023948Y019296D01*
X023948Y019348D01*
X023968Y019330D01*
X024028Y019270D01*
X024034Y019268D01*
X024040Y019263D01*
X024119Y019233D01*
X024197Y019200D01*
X024204Y019200D01*
X024211Y019198D01*
X024295Y019200D01*
X024626Y019200D01*
X024731Y019244D01*
X024976Y019244D01*
X025036Y019304D01*
X025076Y019304D01*
X025116Y019304D01*
X025176Y019244D01*
X025406Y019244D01*
X025406Y018797D01*
X025371Y018806D01*
X025232Y018806D01*
X025232Y018498D01*
X025195Y018498D01*
X025195Y018806D01*
X025056Y018806D01*
X025018Y018796D01*
X024984Y018776D01*
X024956Y018748D01*
X024936Y018714D01*
X024926Y018676D01*
X024926Y018498D01*
X025195Y018498D01*
X025195Y018460D01*
X024926Y018460D01*
X024926Y018314D01*
X024888Y018314D01*
X024888Y018006D01*
X024850Y018006D01*
X024850Y017968D01*
X024581Y017968D01*
X024581Y017903D01*
X023916Y017903D01*
X023894Y017954D01*
X022664Y019185D01*
X022583Y019266D01*
X022476Y019310D01*
X022043Y019310D01*
X022550Y019818D01*
X022601Y019939D01*
X022601Y020562D01*
X022550Y020684D01*
X022458Y020777D01*
X021912Y021323D01*
X021912Y023169D01*
X023728Y023169D01*
X023821Y023130D01*
X023968Y023130D01*
X024104Y023186D01*
X024207Y023290D01*
X024212Y023302D01*
X024694Y023302D01*
X024972Y023024D01*
X025008Y023009D01*
X024935Y022936D01*
X024935Y022369D01*
X024985Y022318D01*
X024935Y022267D01*
X024935Y021699D01*
X025058Y021576D01*
X025288Y021576D01*
X025496Y021368D01*
X025327Y021199D01*
X025327Y020877D01*
X025406Y020798D01*
X025406Y020766D01*
X025176Y020766D01*
X025116Y020706D01*
X025076Y020706D01*
X025076Y020666D01*
X025076Y020666D01*
X025076Y020706D01*
X024987Y020706D01*
X024949Y020696D01*
X024948Y020695D01*
X024947Y020696D01*
X024909Y020706D01*
X024820Y020706D01*
X024820Y020359D01*
X024820Y020359D01*
X025053Y020359D01*
X025053Y020359D01*
X025039Y020359D01*
X024820Y020359D01*
X024820Y020359D01*
X024601Y020359D01*
X024601Y020142D01*
X024607Y020120D01*
X024471Y020120D01*
X023912Y020646D01*
X023912Y021031D01*
X023906Y021046D01*
X023959Y021046D01*
X023959Y021595D01*
X023676Y021595D01*
X023676Y021445D01*
X023228Y021445D01*
X023228Y021595D01*
X022944Y021595D01*
X022944Y021046D01*
X022998Y021046D01*
X022992Y021031D01*
X022944Y021103D02*
X022877Y021103D01*
X022877Y021046D02*
X022877Y021595D01*
X022944Y021595D01*
X022944Y021662D01*
X023228Y021662D01*
X023228Y021812D01*
X023676Y021812D01*
X023676Y021662D01*
X023959Y021662D01*
X023959Y021595D01*
X024027Y021595D01*
X024027Y021662D01*
X024310Y021662D01*
X024310Y022082D01*
X024300Y022120D01*
X024280Y022154D01*
X024253Y022182D01*
X024218Y022202D01*
X024180Y022212D01*
X024027Y022212D01*
X024027Y021662D01*
X023959Y021662D01*
X023959Y022212D01*
X023859Y022212D01*
X023859Y022523D01*
X023736Y022646D01*
X023168Y022646D01*
X023045Y022523D01*
X023045Y022212D01*
X022944Y022212D01*
X022944Y021662D01*
X022877Y021662D01*
X022877Y021595D01*
X022593Y021595D01*
X022593Y021176D01*
X022603Y021138D01*
X022623Y021104D01*
X022651Y021076D01*
X022685Y021056D01*
X022723Y021046D01*
X022877Y021046D01*
X022877Y021202D02*
X022944Y021202D01*
X022944Y021300D02*
X022877Y021300D01*
X022877Y021399D02*
X022944Y021399D01*
X022944Y021497D02*
X022877Y021497D01*
X022877Y021596D02*
X021912Y021596D01*
X021912Y021694D02*
X022593Y021694D01*
X022593Y021662D02*
X022877Y021662D01*
X022877Y022212D01*
X022723Y022212D01*
X022685Y022202D01*
X022651Y022182D01*
X022623Y022154D01*
X022603Y022120D01*
X022593Y022082D01*
X022593Y021662D01*
X022593Y021793D02*
X021912Y021793D01*
X021912Y021891D02*
X022593Y021891D01*
X022593Y021990D02*
X021912Y021990D01*
X021912Y022088D02*
X022595Y022088D01*
X022659Y022187D02*
X021912Y022187D01*
X021912Y022285D02*
X023045Y022285D01*
X023045Y022384D02*
X021912Y022384D01*
X021912Y022482D02*
X023045Y022482D01*
X023103Y022581D02*
X021912Y022581D01*
X021912Y022679D02*
X024935Y022679D01*
X024935Y022581D02*
X023801Y022581D01*
X023859Y022482D02*
X024935Y022482D01*
X024935Y022384D02*
X023859Y022384D01*
X023859Y022285D02*
X024953Y022285D01*
X024935Y022187D02*
X024244Y022187D01*
X024309Y022088D02*
X024935Y022088D01*
X024935Y021990D02*
X024310Y021990D01*
X024310Y021891D02*
X024935Y021891D01*
X024935Y021793D02*
X024310Y021793D01*
X024310Y021694D02*
X024940Y021694D01*
X025038Y021596D02*
X024027Y021596D01*
X024027Y021595D02*
X024310Y021595D01*
X024310Y021176D01*
X024300Y021138D01*
X024280Y021104D01*
X024253Y021076D01*
X024218Y021056D01*
X024180Y021046D01*
X024027Y021046D01*
X024027Y021595D01*
X023959Y021596D02*
X022944Y021596D01*
X022944Y021694D02*
X022877Y021694D01*
X022877Y021793D02*
X022944Y021793D01*
X022944Y021891D02*
X022877Y021891D01*
X022877Y021990D02*
X022944Y021990D01*
X022944Y022088D02*
X022877Y022088D01*
X022877Y022187D02*
X022944Y022187D01*
X023228Y021793D02*
X023676Y021793D01*
X023676Y021694D02*
X023228Y021694D01*
X023228Y021497D02*
X023676Y021497D01*
X023959Y021497D02*
X024027Y021497D01*
X024027Y021399D02*
X023959Y021399D01*
X023959Y021300D02*
X024027Y021300D01*
X024027Y021202D02*
X023959Y021202D01*
X023959Y021103D02*
X024027Y021103D01*
X023912Y021005D02*
X025327Y021005D01*
X025327Y021103D02*
X024280Y021103D01*
X024310Y021202D02*
X025330Y021202D01*
X025428Y021300D02*
X024310Y021300D01*
X024310Y021399D02*
X025466Y021399D01*
X025367Y021497D02*
X024310Y021497D01*
X024027Y021694D02*
X023959Y021694D01*
X023959Y021793D02*
X024027Y021793D01*
X024027Y021891D02*
X023959Y021891D01*
X023959Y021990D02*
X024027Y021990D01*
X024027Y022088D02*
X023959Y022088D01*
X023959Y022187D02*
X024027Y022187D01*
X024068Y023172D02*
X024824Y023172D01*
X024726Y023270D02*
X024187Y023270D01*
X024923Y023073D02*
X021912Y023073D01*
X021912Y022975D02*
X024973Y022975D01*
X024935Y022876D02*
X021912Y022876D01*
X021912Y022778D02*
X024935Y022778D01*
X025381Y021983D02*
X025479Y022013D01*
X026060Y021432D02*
X026306Y021432D01*
X026503Y021432D01*
X026651Y021284D01*
X026651Y020930D01*
X026847Y020930D02*
X026847Y021678D01*
X026847Y022121D01*
X026700Y022269D01*
X026858Y022521D02*
X026562Y022817D01*
X026496Y022882D01*
X026496Y022936D01*
X026450Y022983D01*
X028029Y022983D01*
X029751Y021261D01*
X029751Y018202D01*
X029603Y018202D01*
X029608Y018213D01*
X029608Y018352D01*
X029555Y018480D01*
X029519Y018516D01*
X029519Y018678D01*
X029479Y018774D01*
X029286Y018968D01*
X029288Y018967D01*
X029427Y018967D01*
X029555Y019020D01*
X029653Y019118D01*
X029706Y019246D01*
X029706Y019385D01*
X029653Y019513D01*
X029555Y019612D01*
X029513Y019629D01*
X029559Y019738D01*
X029559Y019877D01*
X029506Y020006D01*
X029457Y020054D01*
X029555Y020151D01*
X029608Y020280D01*
X029608Y020419D01*
X029555Y020547D01*
X029457Y020645D01*
X029328Y020698D01*
X029282Y020698D01*
X029313Y020772D01*
X029313Y020911D01*
X029259Y021039D01*
X029161Y021137D01*
X029067Y021176D01*
X029067Y021304D01*
X029014Y021432D01*
X029063Y021480D01*
X029116Y021609D01*
X029116Y021747D01*
X029063Y021876D01*
X028964Y021974D01*
X028836Y022027D01*
X028697Y022027D01*
X028569Y021974D01*
X028533Y021938D01*
X027304Y021938D01*
X027304Y022085D01*
X027390Y022120D01*
X027488Y022218D01*
X027541Y022347D01*
X027541Y022486D01*
X027488Y022614D01*
X027390Y022712D01*
X027261Y022765D01*
X027122Y022765D01*
X026994Y022712D01*
X026896Y022614D01*
X026858Y022521D01*
X026882Y022581D02*
X026798Y022581D01*
X026699Y022679D02*
X026961Y022679D01*
X027192Y022416D02*
X027044Y022269D01*
X027044Y020930D01*
X027241Y020930D02*
X027241Y021580D01*
X027340Y021678D01*
X028767Y021678D01*
X029116Y021694D02*
X029318Y021694D01*
X029220Y021793D02*
X029097Y021793D01*
X029121Y021891D02*
X029047Y021891D01*
X029023Y021990D02*
X028927Y021990D01*
X028924Y022088D02*
X027312Y022088D01*
X027304Y021990D02*
X028607Y021990D01*
X028826Y022187D02*
X027456Y022187D01*
X027515Y022285D02*
X028727Y022285D01*
X028629Y022384D02*
X027541Y022384D01*
X027541Y022482D02*
X028530Y022482D01*
X028432Y022581D02*
X027502Y022581D01*
X027423Y022679D02*
X028333Y022679D01*
X028235Y022778D02*
X026601Y022778D01*
X026502Y022876D02*
X028136Y022876D01*
X028038Y022975D02*
X026458Y022975D01*
X026552Y021826D02*
X026552Y021629D01*
X026306Y021629D01*
X026601Y021629D01*
X026651Y021678D01*
X026454Y020930D02*
X025716Y020930D01*
X025716Y021038D01*
X025716Y020930D02*
X025676Y020930D01*
X025666Y020940D01*
X025666Y020497D01*
X025765Y020398D01*
X026119Y020398D01*
X026119Y020202D02*
X025489Y020202D01*
X025332Y020359D01*
X025076Y020359D02*
X025076Y019650D01*
X025332Y019650D02*
X025489Y019808D01*
X026119Y019808D01*
X026119Y019611D02*
X025765Y019611D01*
X025666Y019513D01*
X025666Y019119D01*
X025706Y019080D01*
X026454Y019080D01*
X026454Y018331D01*
X026355Y018233D01*
X026257Y018233D01*
X026503Y017889D02*
X025765Y017889D01*
X025666Y017987D01*
X025381Y017987D01*
X025529Y017987D01*
X025725Y018479D02*
X025666Y018578D01*
X025666Y019119D01*
X025406Y019133D02*
X023861Y019133D01*
X023922Y019232D02*
X024121Y019232D01*
X024121Y019123D02*
X023992Y019070D01*
X023894Y018972D01*
X023841Y018844D01*
X023841Y018705D01*
X023894Y018577D01*
X023992Y018478D01*
X024121Y018425D01*
X024259Y018425D01*
X024388Y018478D01*
X024486Y018577D01*
X024539Y018705D01*
X024539Y018844D01*
X024486Y018972D01*
X024388Y019070D01*
X024259Y019123D01*
X024121Y019123D01*
X023956Y019035D02*
X023714Y019035D01*
X023879Y018936D02*
X022913Y018936D01*
X023011Y018838D02*
X023841Y018838D01*
X023841Y018739D02*
X023110Y018739D01*
X023208Y018641D02*
X023868Y018641D01*
X023929Y018542D02*
X023307Y018542D01*
X023405Y018444D02*
X024077Y018444D01*
X024303Y018444D02*
X024926Y018444D01*
X024926Y018542D02*
X024451Y018542D01*
X024512Y018641D02*
X024926Y018641D01*
X024950Y018739D02*
X024539Y018739D01*
X024539Y018838D02*
X025406Y018838D01*
X025406Y018936D02*
X024501Y018936D01*
X024424Y019035D02*
X025406Y019035D01*
X025406Y019232D02*
X024701Y019232D01*
X025076Y019304D02*
X025076Y019344D01*
X025076Y019344D01*
X025076Y019344D01*
X025076Y019304D01*
X025076Y019330D02*
X025076Y019330D01*
X024820Y019650D02*
X024810Y019660D01*
X024534Y019660D01*
X024601Y020217D02*
X024369Y020217D01*
X024264Y020315D02*
X024601Y020315D01*
X024601Y020359D02*
X024820Y020359D01*
X024820Y020359D01*
X024820Y020706D01*
X024731Y020706D01*
X024693Y020696D01*
X024659Y020676D01*
X024631Y020648D01*
X024611Y020614D01*
X024601Y020576D01*
X024601Y020359D01*
X024601Y020414D02*
X024159Y020414D01*
X024055Y020512D02*
X024601Y020512D01*
X024610Y020611D02*
X023950Y020611D01*
X023912Y020709D02*
X025119Y020709D01*
X025327Y020906D02*
X023912Y020906D01*
X023912Y020808D02*
X025397Y020808D01*
X025125Y021087D02*
X025076Y021038D01*
X024820Y020611D02*
X024820Y020611D01*
X024820Y020512D02*
X024820Y020512D01*
X024820Y020414D02*
X024820Y020414D01*
X025076Y020052D02*
X025076Y020052D01*
X025076Y020012D01*
X025116Y020012D01*
X025123Y020005D01*
X025116Y019997D01*
X025076Y019997D01*
X025076Y019957D01*
X025076Y019957D01*
X025076Y019957D01*
X025076Y019997D01*
X025036Y019997D01*
X025021Y020012D01*
X025076Y020012D01*
X025076Y020052D01*
X025076Y020020D02*
X025076Y020020D01*
X025195Y018739D02*
X025232Y018739D01*
X025232Y018641D02*
X025195Y018641D01*
X025195Y018542D02*
X025232Y018542D01*
X024926Y018345D02*
X023504Y018345D01*
X023602Y018247D02*
X024606Y018247D01*
X024611Y018256D02*
X024592Y018222D01*
X024581Y018184D01*
X024581Y018006D01*
X024850Y018006D01*
X024850Y018314D01*
X024712Y018314D01*
X024673Y018304D01*
X024639Y018284D01*
X024611Y018256D01*
X024581Y018148D02*
X023701Y018148D01*
X023799Y018050D02*
X024581Y018050D01*
X024581Y017951D02*
X023896Y017951D01*
X023649Y017790D02*
X023796Y017643D01*
X026798Y017643D01*
X027044Y017889D01*
X026995Y018184D01*
X026946Y018184D01*
X026847Y018282D01*
X026847Y019080D01*
X026651Y019080D02*
X026651Y018036D01*
X026503Y017889D01*
X027389Y018046D02*
X027497Y017938D01*
X027389Y018046D02*
X027389Y018331D01*
X027241Y018479D01*
X027241Y019080D01*
X027438Y019080D02*
X027438Y018774D01*
X027684Y018528D01*
X027723Y018430D01*
X027845Y018043D02*
X027948Y018043D01*
X028026Y018121D01*
X028040Y018113D01*
X028078Y018103D01*
X028216Y018103D01*
X028216Y018411D01*
X028254Y018411D01*
X028254Y018103D01*
X028393Y018103D01*
X028408Y018107D01*
X028408Y017837D01*
X028436Y017769D01*
X028420Y017762D01*
X028364Y017706D01*
X027845Y017706D01*
X027845Y018043D01*
X027845Y017951D02*
X028408Y017951D01*
X028408Y017853D02*
X027845Y017853D01*
X027845Y017754D02*
X028412Y017754D01*
X028568Y017542D02*
X031035Y017542D01*
X031035Y017352D02*
X028771Y017352D01*
X028619Y017200D01*
X023304Y017200D01*
X022468Y018036D01*
X022320Y018036D01*
X022468Y018479D02*
X020401Y018479D01*
X020164Y018715D01*
X020164Y019020D01*
X021156Y017938D02*
X021150Y017932D01*
X021489Y017932D01*
X021877Y017544D01*
X022517Y017544D01*
X023107Y016954D01*
X028718Y016954D01*
X028916Y017152D01*
X031035Y017152D01*
X031035Y016952D02*
X029110Y016952D01*
X028865Y016707D01*
X023009Y016707D01*
X022468Y017249D01*
X021631Y017249D01*
X021448Y017432D01*
X021150Y017432D01*
X021164Y017446D01*
X021243Y017839D02*
X021150Y017932D01*
X021194Y017889D01*
X021170Y016952D02*
X021150Y016932D01*
X022391Y016932D01*
X022861Y016461D01*
X029013Y016461D01*
X029303Y016752D01*
X031035Y016752D01*
X031035Y016562D02*
X031033Y016560D01*
X029505Y016560D01*
X028767Y015822D01*
X026601Y015822D01*
X025666Y014887D01*
X025371Y014887D01*
X025408Y014432D02*
X025605Y014432D01*
X026749Y015576D01*
X028865Y015576D01*
X029456Y016166D01*
X029653Y016166D01*
X029657Y016162D01*
X031035Y016162D01*
X031035Y015972D02*
X031032Y015969D01*
X029800Y015969D01*
X029160Y015330D01*
X026897Y015330D01*
X025469Y013902D01*
X023009Y012288D02*
X023009Y012278D01*
X022123Y011737D02*
X021946Y011560D01*
X022123Y011737D02*
X032950Y011737D01*
X033145Y011932D01*
X033145Y014842D01*
X032945Y014842D02*
X032945Y013071D01*
X032694Y012820D01*
X031828Y013656D02*
X032355Y014184D01*
X032355Y014842D01*
X032165Y014842D02*
X032165Y014345D01*
X031326Y014345D01*
X030440Y013459D01*
X030186Y013459D01*
X030686Y014355D02*
X031173Y014842D01*
X031173Y015434D01*
X031035Y015572D01*
X031035Y015772D02*
X030095Y015772D01*
X029899Y015576D01*
X031769Y015526D02*
X031769Y014846D01*
X031765Y014842D01*
X031965Y014842D02*
X031965Y015181D01*
X032162Y015379D01*
X032162Y015772D01*
X031719Y016215D01*
X031719Y016757D01*
X032261Y016461D02*
X032261Y017200D01*
X032655Y017593D01*
X033836Y017593D01*
X033836Y017643D01*
X033885Y017692D01*
X033393Y017987D02*
X033735Y018329D01*
X033735Y019262D01*
X033737Y019260D01*
X033545Y019262D02*
X033545Y018681D01*
X033097Y018233D01*
X032851Y018233D01*
X032458Y018528D02*
X032605Y018676D01*
X033245Y018676D01*
X033345Y018776D01*
X033345Y019262D01*
X033145Y019262D02*
X033145Y022369D01*
X032802Y022711D01*
X031277Y022711D01*
X031031Y022957D01*
X030834Y022515D02*
X030883Y022465D01*
X032655Y022465D01*
X032945Y022175D01*
X032945Y019262D01*
X032755Y019262D02*
X032755Y021922D01*
X032458Y022219D01*
X030735Y022219D01*
X030686Y022269D01*
X030538Y022022D02*
X030588Y021973D01*
X031473Y021973D01*
X031621Y021826D01*
X031621Y021186D01*
X032165Y020642D01*
X032165Y019262D01*
X032355Y019262D02*
X032355Y021042D01*
X032212Y021186D01*
X032162Y021186D01*
X032555Y021630D02*
X032458Y021727D01*
X032310Y021727D01*
X032555Y021630D02*
X032555Y019262D01*
X031965Y019262D02*
X031965Y019759D01*
X031719Y020005D01*
X031719Y020251D01*
X031765Y019262D02*
X031576Y019262D01*
X031572Y019267D01*
X031956Y019271D02*
X031965Y019262D01*
X031035Y018532D02*
X030886Y018532D01*
X030883Y018528D01*
X030981Y018578D02*
X030989Y018578D01*
X031035Y018532D01*
X031035Y018332D02*
X030686Y018332D01*
X030292Y018725D01*
X030292Y021481D01*
X028275Y023499D01*
X028127Y023253D02*
X030046Y021333D01*
X030046Y018627D01*
X030541Y018132D01*
X031035Y018132D01*
X031035Y017942D02*
X028959Y017942D01*
X028914Y017987D01*
X028914Y018627D01*
X028127Y019414D01*
X027969Y019414D01*
X027969Y019611D02*
X028275Y019611D01*
X029259Y018627D01*
X029259Y018282D01*
X029570Y018444D02*
X029751Y018444D01*
X029702Y018479D02*
X029653Y018528D01*
X028373Y019808D01*
X027969Y019808D01*
X027969Y020005D02*
X028521Y020005D01*
X029210Y019316D01*
X029357Y019316D01*
X029706Y019330D02*
X029751Y019330D01*
X029751Y019232D02*
X029700Y019232D01*
X029659Y019133D02*
X029751Y019133D01*
X029751Y019035D02*
X029570Y019035D01*
X029751Y018936D02*
X029317Y018936D01*
X029416Y018838D02*
X029751Y018838D01*
X029751Y018739D02*
X029494Y018739D01*
X029519Y018641D02*
X029751Y018641D01*
X029751Y018542D02*
X029519Y018542D01*
X029608Y018345D02*
X029751Y018345D01*
X029751Y018247D02*
X029608Y018247D01*
X028815Y017742D02*
X028668Y017889D01*
X028668Y018528D01*
X028422Y018774D01*
X027940Y018774D01*
X027635Y019080D01*
X028235Y018430D02*
X028235Y018076D01*
X028275Y018036D01*
X028254Y018148D02*
X028216Y018148D01*
X028216Y018247D02*
X028254Y018247D01*
X028254Y018345D02*
X028216Y018345D01*
X028408Y018050D02*
X027955Y018050D01*
X028471Y017446D02*
X028568Y017542D01*
X028471Y017446D02*
X023501Y017446D01*
X022468Y018479D01*
X022814Y019035D02*
X023485Y019035D01*
X023338Y019133D02*
X022716Y019133D01*
X022617Y019232D02*
X023277Y019232D01*
X023250Y019330D02*
X022063Y019330D01*
X022161Y019429D02*
X023250Y019429D01*
X023289Y019527D02*
X022260Y019527D01*
X022358Y019626D02*
X022796Y019626D01*
X022707Y019724D02*
X022457Y019724D01*
X022552Y019823D02*
X022666Y019823D01*
X022660Y019921D02*
X022593Y019921D01*
X022601Y020020D02*
X022678Y020020D01*
X022727Y020118D02*
X022601Y020118D01*
X022601Y020217D02*
X022846Y020217D01*
X023007Y020315D02*
X022601Y020315D01*
X022601Y020414D02*
X022992Y020414D01*
X022990Y020512D02*
X022601Y020512D01*
X022581Y020611D02*
X022992Y020611D01*
X022992Y020709D02*
X022525Y020709D01*
X022427Y020808D02*
X022992Y020808D01*
X022992Y020906D02*
X022328Y020906D01*
X022131Y021103D02*
X022624Y021103D01*
X022593Y021202D02*
X022033Y021202D01*
X021934Y021300D02*
X022593Y021300D01*
X022593Y021399D02*
X021912Y021399D01*
X021912Y021497D02*
X022593Y021497D01*
X023352Y019823D02*
X023445Y019823D01*
X023549Y019724D02*
X023311Y019724D01*
X023366Y019626D02*
X023222Y019626D01*
X023948Y019330D02*
X023968Y019330D01*
X024850Y018247D02*
X024888Y018247D01*
X024888Y018148D02*
X024850Y018148D01*
X024850Y018050D02*
X024888Y018050D01*
X027438Y020930D02*
X027438Y021481D01*
X028422Y021481D01*
X028668Y021235D01*
X028718Y021235D01*
X029028Y021399D02*
X029614Y021399D01*
X029515Y021497D02*
X029070Y021497D01*
X029110Y021596D02*
X029417Y021596D01*
X029712Y021300D02*
X029067Y021300D01*
X029067Y021202D02*
X029751Y021202D01*
X029751Y021103D02*
X029196Y021103D01*
X029274Y021005D02*
X029751Y021005D01*
X029751Y020906D02*
X029313Y020906D01*
X029313Y020808D02*
X029751Y020808D01*
X029751Y020709D02*
X029287Y020709D01*
X029491Y020611D02*
X029751Y020611D01*
X029751Y020512D02*
X029569Y020512D01*
X029608Y020414D02*
X029751Y020414D01*
X029751Y020315D02*
X029608Y020315D01*
X029582Y020217D02*
X029751Y020217D01*
X029751Y020118D02*
X029521Y020118D01*
X029492Y020020D02*
X029751Y020020D01*
X029751Y019921D02*
X029541Y019921D01*
X029559Y019823D02*
X029751Y019823D01*
X029751Y019724D02*
X029553Y019724D01*
X029522Y019626D02*
X029751Y019626D01*
X029751Y019527D02*
X029640Y019527D01*
X029688Y019429D02*
X029751Y019429D01*
X029210Y019808D02*
X028816Y020202D01*
X027969Y020202D01*
X027969Y020398D02*
X029210Y020398D01*
X029259Y020349D01*
X028964Y020841D02*
X028718Y020595D01*
X027969Y020595D01*
X027635Y020930D02*
X027792Y021087D01*
X028029Y021087D01*
X028815Y017742D02*
X031035Y017742D01*
X031035Y018331D02*
X031035Y018332D01*
X032704Y017003D02*
X032704Y016412D01*
X033737Y015379D01*
X034229Y015379D01*
X034325Y015283D01*
X034325Y014842D01*
X034135Y014842D02*
X034135Y014489D01*
X034328Y014296D01*
X034918Y014296D01*
X035017Y014198D01*
X035017Y013863D01*
X034918Y013863D01*
X034328Y013272D01*
X034328Y013942D02*
X034318Y013952D01*
X034328Y013952D01*
X034318Y013952D02*
X033935Y014334D01*
X033935Y014842D01*
X033735Y014842D02*
X033735Y011341D01*
X033393Y010999D01*
X026454Y010999D01*
X026454Y010950D01*
X026454Y010999D02*
X022664Y010999D01*
X021946Y010280D01*
X021946Y008370D01*
X021446Y008370D02*
X021446Y010064D01*
X021446Y010223D01*
X022468Y011245D01*
X033245Y011245D01*
X033545Y011545D01*
X033545Y014842D01*
X033345Y014842D02*
X033345Y011739D01*
X033097Y011491D01*
X022271Y011491D01*
X020946Y010166D01*
X020946Y009621D01*
X020946Y008370D01*
X020946Y005950D02*
X020946Y003022D01*
X021680Y002288D01*
X022271Y002288D01*
X022541Y002559D01*
X022541Y003331D01*
X023042Y003831D01*
X023535Y003325D02*
X024042Y003831D01*
X024549Y003338D02*
X025042Y003831D01*
X024549Y003338D02*
X024549Y001860D01*
X023944Y001255D01*
X020745Y001255D01*
X018946Y003054D01*
X018946Y005950D01*
X019446Y005950D02*
X019446Y003085D01*
X021031Y001501D01*
X023206Y001501D01*
X024042Y002337D01*
X024042Y002831D01*
X023535Y002519D02*
X023535Y003325D01*
X023042Y002831D02*
X023042Y002617D01*
X022468Y002042D01*
X021434Y002042D01*
X020446Y003030D01*
X020446Y005950D01*
X019946Y005950D02*
X019946Y003087D01*
X021237Y001796D01*
X022812Y001796D01*
X023535Y002519D01*
X022042Y002831D02*
X021446Y003428D01*
X021446Y005950D01*
X021946Y005950D02*
X021946Y003928D01*
X022042Y003831D01*
X017369Y004572D02*
X017153Y004355D01*
X014347Y004355D01*
X013824Y003831D01*
X013284Y004080D02*
X013284Y003371D01*
X013824Y002831D01*
X014323Y002608D02*
X014003Y002288D01*
X013511Y002288D01*
X013068Y002731D01*
X013068Y004217D01*
X013599Y004749D01*
X016168Y004749D01*
X016369Y004950D01*
X016369Y005950D01*
X016869Y005950D02*
X016869Y004810D01*
X016611Y004552D01*
X013757Y004552D01*
X013284Y004080D01*
X012871Y004306D02*
X013511Y004946D01*
X015676Y004946D01*
X015869Y005139D01*
X015869Y005950D01*
X015369Y005950D02*
X015369Y005278D01*
X015233Y005143D01*
X013412Y005143D01*
X012674Y004404D01*
X012674Y002239D01*
X013117Y001796D01*
X014938Y001796D01*
X015322Y002180D01*
X015322Y003330D01*
X015824Y003831D01*
X016321Y003329D02*
X016824Y003831D01*
X016321Y003329D02*
X016321Y001998D01*
X015627Y001304D01*
X012723Y001304D01*
X012281Y001747D01*
X012281Y004601D01*
X013216Y005536D01*
X014249Y005536D01*
X014369Y005656D01*
X014741Y005339D02*
X013314Y005339D01*
X012477Y004503D01*
X012477Y001993D01*
X012920Y001550D01*
X015184Y001550D01*
X015824Y002190D01*
X015824Y002831D01*
X014824Y002831D02*
X014824Y002519D01*
X014347Y002042D01*
X013314Y002042D01*
X012871Y002485D01*
X012871Y004306D01*
X012084Y004749D02*
X012084Y001501D01*
X012625Y000959D01*
X015971Y000959D01*
X016824Y001812D01*
X016824Y002831D01*
X017369Y004572D02*
X017369Y005950D01*
X014869Y005950D02*
X014869Y005467D01*
X014741Y005339D01*
X014003Y006028D02*
X013708Y005733D01*
X013068Y005733D01*
X012084Y004749D01*
X014003Y006028D02*
X014003Y007062D01*
X014869Y007928D01*
X014869Y008370D01*
X014824Y003831D02*
X014323Y003331D01*
X014323Y002608D01*
X014824Y002715D02*
X014824Y002831D01*
X028798Y006839D02*
X029304Y006333D01*
X030120Y006333D01*
X030425Y006028D01*
X031670Y006028D01*
X032015Y005635D01*
X032108Y006274D02*
X030691Y006274D01*
X030126Y006839D01*
X029798Y006839D01*
X032108Y006274D02*
X032679Y005704D01*
X032679Y005482D01*
X032755Y014842D02*
X032755Y015967D01*
X032261Y016461D01*
X033245Y016215D02*
X033885Y015576D01*
X034426Y015576D01*
X034525Y015477D01*
X034525Y014842D01*
X034525Y014842D01*
X035455Y015772D02*
X035805Y015772D01*
X035903Y015674D01*
X035903Y015034D01*
X036040Y014896D01*
X036296Y014896D01*
X036296Y014887D01*
X036296Y015713D02*
X036038Y015972D01*
X035455Y015972D01*
X035455Y016162D02*
X036497Y016162D01*
X036542Y016117D01*
X036104Y016560D02*
X037428Y016560D01*
X037871Y017003D01*
X037871Y017436D01*
X038655Y018219D01*
X038019Y018381D02*
X038655Y019017D01*
X038655Y019219D01*
X037822Y018971D02*
X037822Y020387D01*
X038655Y021219D01*
X038655Y022219D02*
X038363Y022219D01*
X037527Y021383D01*
X037527Y019020D01*
X036887Y018381D01*
X036198Y018381D01*
X035949Y018132D01*
X035455Y018132D01*
X035455Y017942D02*
X036054Y017942D01*
X036247Y018135D01*
X036985Y018135D01*
X037822Y018971D01*
X038019Y018381D02*
X037576Y018381D01*
X037084Y017889D01*
X036298Y017889D01*
X035952Y017542D01*
X035455Y017542D01*
X035455Y017352D02*
X034864Y017352D01*
X034820Y017396D01*
X034869Y017741D02*
X034869Y018676D01*
X035509Y019316D01*
X035607Y019316D01*
X036542Y020251D01*
X036542Y021186D01*
X038576Y023219D01*
X038655Y023219D01*
X037674Y024040D02*
X038718Y025083D01*
X038718Y025270D01*
X038708Y025270D01*
X037576Y026402D01*
X037359Y026402D01*
X037359Y026599D02*
X037773Y026599D01*
X038381Y025991D01*
X038668Y025991D01*
X038668Y026343D02*
X038373Y026343D01*
X037920Y026796D01*
X037359Y026796D01*
X037359Y026993D02*
X038068Y026993D01*
X038403Y026658D01*
X038668Y026658D01*
X038651Y026993D02*
X038668Y027011D01*
X038489Y027190D01*
X037359Y027190D01*
X037359Y027387D02*
X038265Y027387D01*
X038542Y027664D01*
X038668Y027664D01*
X038668Y028017D02*
X038403Y028017D01*
X037969Y027583D01*
X037359Y027583D01*
X037359Y027780D02*
X037822Y027780D01*
X038373Y028331D01*
X038668Y028331D01*
X038668Y028684D02*
X038430Y028684D01*
X037723Y027977D01*
X037359Y027977D01*
X037359Y028568D02*
X036690Y028568D01*
X036542Y028420D01*
X036296Y028666D01*
X036296Y029237D01*
X036296Y029749D01*
X036542Y029995D01*
X036985Y029995D01*
X037084Y030093D01*
X037084Y031078D01*
X036995Y031166D01*
X036493Y031166D01*
X036198Y031461D01*
X036198Y031973D01*
X035903Y031471D02*
X035410Y031963D01*
X035410Y031973D01*
X035460Y031570D02*
X033934Y031570D01*
X033836Y031668D01*
X033826Y031678D01*
X033048Y031678D01*
X032408Y031324D02*
X032408Y030881D01*
X032418Y030871D01*
X033245Y030871D01*
X033255Y030881D01*
X034141Y030881D01*
X034180Y030969D01*
X034534Y030969D01*
X034623Y030881D01*
X034908Y031166D01*
X035066Y031166D01*
X034623Y030881D02*
X034623Y030241D01*
X035115Y029749D01*
X035115Y029237D01*
X034918Y029237D02*
X034918Y029601D01*
X034426Y030093D01*
X034387Y030093D01*
X034180Y030300D01*
X034131Y030143D01*
X035066Y030143D02*
X035066Y030497D01*
X035066Y030143D02*
X035312Y029896D01*
X035312Y029237D01*
X035312Y028469D01*
X035263Y028420D01*
X034771Y028420D01*
X034721Y028371D01*
X034721Y028223D01*
X034672Y028174D01*
X034721Y028125D01*
X034721Y027830D01*
X034672Y027780D01*
X034721Y027731D01*
X034721Y027042D01*
X034672Y026993D01*
X033855Y026993D01*
X032645Y026993D01*
X032546Y026894D01*
X032891Y026540D02*
X033147Y026796D01*
X033855Y026796D01*
X033855Y026599D02*
X033491Y026599D01*
X033344Y026452D01*
X033344Y025772D01*
X033334Y025270D01*
X034082Y024778D02*
X034525Y025221D01*
X034968Y025221D01*
X035115Y025369D01*
X035115Y025733D01*
X034918Y025733D02*
X034918Y026156D01*
X035263Y026501D01*
X035903Y026501D01*
X036001Y026599D01*
X036001Y027091D01*
X035263Y027091D02*
X034525Y026353D01*
X034525Y025733D01*
X035312Y025733D02*
X035312Y025074D01*
X035017Y024778D01*
X034771Y024778D01*
X034771Y024769D02*
X034761Y024778D01*
X034771Y024769D02*
X034771Y024483D01*
X034623Y024335D01*
X033196Y024335D01*
X032261Y024089D02*
X032147Y023975D01*
X032261Y024089D02*
X034869Y024089D01*
X035509Y024729D01*
X035509Y025733D01*
X035706Y025733D02*
X035706Y024532D01*
X034574Y023400D01*
X034869Y023302D02*
X034869Y022761D01*
X034771Y022662D01*
X034771Y019611D01*
X034725Y019565D01*
X034725Y019262D01*
X034525Y019262D02*
X034525Y019611D01*
X034574Y019660D01*
X034574Y021333D01*
X034377Y021530D01*
X034180Y020989D02*
X034377Y020792D01*
X034377Y019660D01*
X034325Y019608D01*
X034325Y019262D01*
X034135Y019262D02*
X034135Y019615D01*
X034180Y019660D01*
X034180Y020251D01*
X033934Y020497D01*
X034180Y020989D02*
X033540Y020989D01*
X033688Y019906D02*
X033935Y019708D01*
X033935Y019262D01*
X035164Y020448D02*
X035706Y020448D01*
X035903Y020644D01*
X035903Y023154D01*
X036493Y023745D01*
X036493Y025733D01*
X036296Y025733D02*
X036296Y023942D01*
X035607Y023253D01*
X035607Y021137D01*
X035460Y020989D01*
X035164Y021530D02*
X035164Y023204D01*
X036099Y024139D01*
X036099Y025733D01*
X035903Y025733D02*
X035903Y024335D01*
X034869Y023302D01*
X036149Y022957D02*
X036690Y023499D01*
X036690Y023843D01*
X036887Y024040D01*
X037674Y024040D01*
X037133Y024631D02*
X037133Y025959D01*
X036592Y026501D01*
X036592Y027534D01*
X036099Y028026D01*
X036099Y028371D01*
X036050Y028420D01*
X035361Y028420D01*
X035312Y028469D01*
X034771Y028420D02*
X034721Y028469D01*
X034721Y028617D01*
X034475Y028617D01*
X034721Y028617D02*
X034721Y029237D01*
X034672Y028174D02*
X033855Y028174D01*
X033393Y028174D01*
X033196Y028371D01*
X033196Y028952D01*
X032891Y029257D01*
X032851Y028863D02*
X032212Y028863D01*
X032221Y028873D01*
X032221Y029257D01*
X032221Y029463D01*
X032408Y029650D01*
X032408Y030881D01*
X032408Y031324D02*
X032261Y031471D01*
X032261Y031678D01*
X032261Y031717D01*
X031818Y031914D02*
X031670Y031767D01*
X030489Y031767D01*
X030243Y031520D01*
X030194Y031963D02*
X030932Y031963D01*
X031080Y032111D01*
X031080Y032652D01*
X031572Y033144D01*
X031572Y034170D01*
X032072Y034670D01*
X032556Y034965D02*
X032310Y035211D01*
X030292Y035211D01*
X030072Y034991D01*
X030072Y034670D01*
X028589Y034827D02*
X028571Y034827D01*
X028571Y035202D01*
X028589Y035202D01*
X028589Y034943D01*
X028589Y034827D01*
X028571Y034827D02*
X028571Y034809D01*
X028036Y034809D01*
X028036Y034791D01*
X028046Y034740D01*
X028067Y034691D01*
X028083Y034667D01*
X028026Y034610D01*
X027976Y034489D01*
X027976Y034359D01*
X028026Y034238D01*
X028037Y034227D01*
X028026Y034216D01*
X027976Y034096D01*
X027976Y033965D01*
X028026Y033844D01*
X028037Y033833D01*
X028026Y033822D01*
X027976Y033702D01*
X027976Y033571D01*
X028026Y033451D01*
X028037Y033440D01*
X028026Y033429D01*
X027976Y033308D01*
X027976Y033178D01*
X028026Y033057D01*
X028037Y033046D01*
X028026Y033035D01*
X027976Y032914D01*
X027976Y032784D01*
X028026Y032663D01*
X028083Y032607D01*
X028067Y032583D01*
X028046Y032534D01*
X028036Y032482D01*
X028036Y032465D01*
X028571Y032465D01*
X028571Y032446D01*
X028036Y032446D01*
X028036Y032429D01*
X028046Y032377D01*
X028067Y032329D01*
X028083Y032304D01*
X028026Y032248D01*
X027976Y032127D01*
X027976Y031997D01*
X028026Y031876D01*
X028037Y031865D01*
X028026Y031854D01*
X027976Y031733D01*
X027976Y031603D01*
X028026Y031482D01*
X028037Y031471D01*
X028026Y031460D01*
X027976Y031340D01*
X027976Y031209D01*
X028026Y031089D01*
X028037Y031078D01*
X028026Y031067D01*
X027976Y030946D01*
X027976Y030815D01*
X028026Y030695D01*
X028118Y030603D01*
X028239Y030553D01*
X028816Y030553D01*
X028816Y028218D01*
X027662Y028218D01*
X027711Y028267D01*
X027798Y028354D01*
X027845Y028467D01*
X027845Y029437D01*
X027849Y029442D01*
X027905Y029577D01*
X027905Y029724D01*
X027849Y029859D01*
X027745Y029963D01*
X027610Y030019D01*
X027463Y030019D01*
X027328Y029963D01*
X027224Y029859D01*
X027168Y029724D01*
X027168Y029577D01*
X027224Y029442D01*
X027228Y029437D01*
X027228Y028656D01*
X027172Y028601D01*
X027039Y028601D01*
X027126Y028687D01*
X027176Y028808D01*
X027176Y029489D01*
X027126Y029610D01*
X027033Y029702D01*
X026979Y029725D01*
X027019Y029823D01*
X027019Y029970D01*
X026963Y030105D01*
X026859Y030209D01*
X026724Y030265D01*
X026577Y030265D01*
X026442Y030209D01*
X026338Y030105D01*
X026282Y029970D01*
X026282Y029964D01*
X026277Y029959D01*
X026235Y030000D01*
X026232Y030003D01*
X026232Y030009D01*
X026176Y030145D01*
X026072Y030248D01*
X025937Y030305D01*
X025790Y030305D01*
X025654Y030248D01*
X025551Y030145D01*
X025494Y030009D01*
X025494Y029924D01*
X025405Y030013D01*
X025405Y030019D01*
X025349Y030155D01*
X025245Y030258D01*
X025110Y030314D01*
X024963Y030314D01*
X024828Y030258D01*
X024724Y030155D01*
X024668Y030019D01*
X024668Y029872D01*
X024724Y029737D01*
X024785Y029675D01*
X024752Y029662D01*
X024728Y029645D01*
X024671Y029702D01*
X024551Y029752D01*
X024420Y029752D01*
X024299Y029702D01*
X024288Y029691D01*
X024277Y029702D01*
X024157Y029752D01*
X024026Y029752D01*
X023906Y029702D01*
X023895Y029691D01*
X023884Y029702D01*
X023763Y029752D01*
X023633Y029752D01*
X023512Y029702D01*
X023501Y029691D01*
X023490Y029702D01*
X023369Y029752D01*
X023239Y029752D01*
X023118Y029702D01*
X023107Y029691D01*
X023096Y029702D01*
X022976Y029752D01*
X022845Y029752D01*
X022725Y029702D01*
X022714Y029691D01*
X022703Y029702D01*
X022582Y029752D01*
X022451Y029752D01*
X022331Y029702D01*
X022320Y029691D01*
X022309Y029702D01*
X022188Y029752D01*
X022058Y029752D01*
X021937Y029702D01*
X021926Y029691D01*
X021915Y029702D01*
X021795Y029752D01*
X021664Y029752D01*
X021543Y029702D01*
X021532Y029691D01*
X021521Y029702D01*
X021401Y029752D01*
X021270Y029752D01*
X021150Y029702D01*
X021139Y029691D01*
X021128Y029702D01*
X021053Y029733D01*
X021232Y029913D01*
X021232Y030235D01*
X021004Y030462D01*
X020865Y030462D01*
X020346Y030981D01*
X020346Y031641D01*
X020357Y031615D01*
X020466Y031506D01*
X020609Y031447D01*
X020763Y031447D01*
X020906Y031506D01*
X020945Y031545D01*
X025999Y031545D01*
X026361Y031184D01*
X026361Y031140D01*
X026262Y031042D01*
X026262Y030720D01*
X026490Y030492D01*
X026811Y030492D01*
X027039Y030720D01*
X027039Y031042D01*
X026941Y031140D01*
X026941Y031362D01*
X026896Y031468D01*
X026815Y031550D01*
X026283Y032081D01*
X026177Y032125D01*
X024464Y032125D01*
X024509Y032235D01*
X024509Y032381D01*
X024453Y032517D01*
X024350Y032620D01*
X024214Y032677D01*
X024067Y032677D01*
X023932Y032620D01*
X023909Y032598D01*
X021419Y032598D01*
X021397Y032620D01*
X021261Y032677D01*
X021115Y032677D01*
X020979Y032620D01*
X020875Y032517D01*
X020819Y032381D01*
X020819Y032235D01*
X020836Y032194D01*
X020763Y032224D01*
X020609Y032224D01*
X020466Y032165D01*
X020357Y032055D01*
X020346Y032030D01*
X020346Y033862D01*
X020302Y033968D01*
X020220Y034050D01*
X019992Y034278D01*
X019992Y034342D01*
X020011Y034322D01*
X020063Y034301D01*
X020082Y034282D01*
X020109Y034282D01*
X020162Y034260D01*
X020325Y034260D01*
X020377Y034282D01*
X020404Y034282D01*
X020423Y034301D01*
X020475Y034322D01*
X020498Y034345D01*
X020498Y032829D01*
X020528Y032799D01*
X023325Y032799D01*
X023354Y032829D01*
X023354Y035047D01*
X023823Y035047D01*
X024706Y034165D01*
X024856Y034103D01*
X025020Y034103D01*
X025170Y034165D01*
X025286Y034280D01*
X025348Y034431D01*
X025348Y034594D01*
X025286Y034745D01*
X024394Y035637D01*
X025400Y035637D01*
X025580Y035711D01*
X027887Y038019D01*
X028761Y038019D01*
X028816Y037963D01*
X028816Y037508D01*
X028239Y037508D01*
X028118Y037458D01*
X028026Y037366D01*
X027976Y037245D01*
X027976Y037115D01*
X028026Y036994D01*
X028037Y036983D01*
X028026Y036972D01*
X027976Y036851D01*
X027976Y036721D01*
X028026Y036600D01*
X028037Y036589D01*
X028026Y036578D01*
X027976Y036458D01*
X027976Y036327D01*
X028026Y036207D01*
X028037Y036196D01*
X028026Y036185D01*
X027976Y036064D01*
X027976Y035934D01*
X028026Y035813D01*
X028037Y035802D01*
X028026Y035791D01*
X027976Y035670D01*
X027976Y035540D01*
X028026Y035419D01*
X028083Y035363D01*
X028067Y035338D01*
X028046Y035290D01*
X028036Y035238D01*
X028036Y035220D01*
X028571Y035220D01*
X028571Y035202D01*
X028036Y035202D01*
X028036Y035185D01*
X028046Y035133D01*
X028067Y035084D01*
X028096Y035041D01*
X028122Y035015D01*
X028096Y034989D01*
X028067Y034945D01*
X028046Y034896D01*
X028036Y034844D01*
X028036Y034827D01*
X028571Y034827D01*
X028571Y034893D02*
X028589Y034893D01*
X028589Y034992D02*
X028571Y034992D01*
X028571Y035090D02*
X028589Y035090D01*
X028589Y035189D02*
X028571Y035189D01*
X028099Y034992D02*
X025039Y034992D01*
X024940Y035090D02*
X028064Y035090D01*
X028036Y035189D02*
X024842Y035189D01*
X024743Y035287D02*
X028046Y035287D01*
X028060Y035386D02*
X024645Y035386D01*
X024546Y035484D02*
X027999Y035484D01*
X027976Y035583D02*
X024448Y035583D01*
X023879Y034992D02*
X023354Y034992D01*
X023354Y034893D02*
X023978Y034893D01*
X024076Y034795D02*
X023354Y034795D01*
X023354Y034696D02*
X024175Y034696D01*
X024273Y034598D02*
X023354Y034598D01*
X023354Y034499D02*
X024372Y034499D01*
X024470Y034401D02*
X023354Y034401D01*
X023354Y034302D02*
X024569Y034302D01*
X024667Y034204D02*
X023354Y034204D01*
X023354Y034105D02*
X024851Y034105D01*
X025025Y034105D02*
X027980Y034105D01*
X027976Y034007D02*
X023354Y034007D01*
X023354Y033908D02*
X028000Y033908D01*
X028021Y033810D02*
X023354Y033810D01*
X023354Y033711D02*
X027980Y033711D01*
X027976Y033613D02*
X023354Y033613D01*
X023354Y033514D02*
X028000Y033514D01*
X028020Y033416D02*
X023354Y033416D01*
X023354Y033317D02*
X027980Y033317D01*
X027976Y033219D02*
X023354Y033219D01*
X023354Y033120D02*
X028000Y033120D01*
X028020Y033022D02*
X023354Y033022D01*
X023354Y032923D02*
X027980Y032923D01*
X027976Y032825D02*
X023350Y032825D01*
X023949Y032628D02*
X021380Y032628D01*
X020996Y032628D02*
X020346Y032628D01*
X020346Y032726D02*
X028000Y032726D01*
X028062Y032628D02*
X024333Y032628D01*
X024441Y032529D02*
X028045Y032529D01*
X028036Y032431D02*
X024489Y032431D01*
X024509Y032332D02*
X028065Y032332D01*
X028020Y032234D02*
X024509Y032234D01*
X024468Y032135D02*
X027979Y032135D01*
X027976Y032037D02*
X026328Y032037D01*
X026427Y031938D02*
X028000Y031938D01*
X028020Y031840D02*
X026525Y031840D01*
X026624Y031741D02*
X027979Y031741D01*
X027976Y031643D02*
X026722Y031643D01*
X026821Y031544D02*
X028000Y031544D01*
X028020Y031446D02*
X026906Y031446D01*
X026941Y031347D02*
X027979Y031347D01*
X027976Y031249D02*
X026941Y031249D01*
X026941Y031150D02*
X028001Y031150D01*
X028020Y031052D02*
X027029Y031052D01*
X027039Y030953D02*
X027979Y030953D01*
X027976Y030855D02*
X027039Y030855D01*
X027039Y030756D02*
X028001Y030756D01*
X028063Y030658D02*
X026977Y030658D01*
X026878Y030559D02*
X028223Y030559D01*
X027733Y029968D02*
X028816Y029968D01*
X028816Y029870D02*
X027839Y029870D01*
X027886Y029771D02*
X028816Y029771D01*
X028816Y029673D02*
X027905Y029673D01*
X027904Y029574D02*
X028816Y029574D01*
X028816Y029476D02*
X027863Y029476D01*
X027845Y029377D02*
X028816Y029377D01*
X028816Y029279D02*
X027845Y029279D01*
X027845Y029180D02*
X028816Y029180D01*
X028816Y029082D02*
X027845Y029082D01*
X027845Y028983D02*
X028816Y028983D01*
X028816Y028885D02*
X027845Y028885D01*
X027845Y028786D02*
X028816Y028786D01*
X028816Y028688D02*
X027845Y028688D01*
X027845Y028589D02*
X028816Y028589D01*
X028816Y028491D02*
X027845Y028491D01*
X027814Y028392D02*
X028816Y028392D01*
X028816Y028294D02*
X027738Y028294D01*
X027228Y028688D02*
X027126Y028688D01*
X027167Y028786D02*
X027228Y028786D01*
X027228Y028885D02*
X027176Y028885D01*
X027176Y028983D02*
X027228Y028983D01*
X027228Y029082D02*
X027176Y029082D01*
X027176Y029180D02*
X027228Y029180D01*
X027228Y029279D02*
X027176Y029279D01*
X027176Y029377D02*
X027228Y029377D01*
X027210Y029476D02*
X027176Y029476D01*
X027169Y029574D02*
X027140Y029574D01*
X027168Y029673D02*
X027063Y029673D01*
X026998Y029771D02*
X027187Y029771D01*
X027234Y029870D02*
X027019Y029870D01*
X027019Y029968D02*
X027340Y029968D01*
X026979Y030067D02*
X028816Y030067D01*
X028816Y030165D02*
X026903Y030165D01*
X026728Y030264D02*
X028816Y030264D01*
X028816Y030362D02*
X023734Y030362D01*
X023734Y030297D02*
X023734Y030460D01*
X023671Y030611D01*
X023396Y030887D01*
X023280Y031002D01*
X023130Y031064D01*
X021599Y031064D01*
X021546Y031043D01*
X021519Y031043D01*
X021500Y031023D01*
X021448Y031002D01*
X021333Y030887D01*
X021311Y030834D01*
X021292Y030815D01*
X021292Y030788D01*
X021270Y030736D01*
X021270Y030573D01*
X021292Y030521D01*
X021292Y030493D01*
X021311Y030474D01*
X021333Y030422D01*
X021448Y030307D01*
X021500Y030285D01*
X021519Y030266D01*
X021546Y030266D01*
X021599Y030244D01*
X022878Y030244D01*
X023092Y030031D01*
X023242Y029969D01*
X023405Y029969D01*
X023556Y030031D01*
X023671Y030146D01*
X023734Y030297D01*
X023720Y030264D02*
X024840Y030264D01*
X024734Y030165D02*
X023679Y030165D01*
X023591Y030067D02*
X024687Y030067D01*
X024668Y029968D02*
X021232Y029968D01*
X021232Y030067D02*
X023056Y030067D01*
X022958Y030165D02*
X021232Y030165D01*
X021203Y030264D02*
X021552Y030264D01*
X021393Y030362D02*
X021104Y030362D01*
X021006Y030461D02*
X021317Y030461D01*
X021276Y030559D02*
X020768Y030559D01*
X020670Y030658D02*
X021270Y030658D01*
X021278Y030756D02*
X020571Y030756D01*
X020473Y030855D02*
X021319Y030855D01*
X021399Y030953D02*
X020374Y030953D01*
X020346Y031052D02*
X021568Y031052D01*
X020944Y031544D02*
X026000Y031544D01*
X026099Y031446D02*
X020346Y031446D01*
X020346Y031544D02*
X020428Y031544D01*
X020346Y031347D02*
X026197Y031347D01*
X026296Y031249D02*
X020346Y031249D01*
X020346Y031150D02*
X026361Y031150D01*
X026272Y031052D02*
X023161Y031052D01*
X023329Y030953D02*
X026262Y030953D01*
X026262Y030855D02*
X023428Y030855D01*
X023526Y030756D02*
X026262Y030756D01*
X026324Y030658D02*
X023625Y030658D01*
X023693Y030559D02*
X026423Y030559D01*
X026573Y030264D02*
X026036Y030264D01*
X026155Y030165D02*
X026398Y030165D01*
X026322Y030067D02*
X026208Y030067D01*
X026267Y029968D02*
X026282Y029968D01*
X025691Y030264D02*
X025233Y030264D01*
X025339Y030165D02*
X025571Y030165D01*
X025518Y030067D02*
X025385Y030067D01*
X025450Y029968D02*
X025494Y029968D01*
X024888Y029608D02*
X024888Y029157D01*
X024870Y029157D01*
X024870Y029616D01*
X024888Y029608D01*
X024888Y029574D02*
X024870Y029574D01*
X024870Y029476D02*
X024888Y029476D01*
X024888Y029377D02*
X024870Y029377D01*
X024870Y029279D02*
X024888Y029279D01*
X024888Y029180D02*
X024870Y029180D01*
X024870Y029139D02*
X024888Y029139D01*
X024888Y028605D01*
X024905Y028605D01*
X024957Y028615D01*
X025006Y028635D01*
X025030Y028651D01*
X025087Y028595D01*
X025207Y028545D01*
X025338Y028545D01*
X025358Y028553D01*
X025358Y028487D01*
X025405Y028373D01*
X025661Y028117D01*
X025703Y028076D01*
X024842Y028076D01*
X024842Y028095D01*
X024832Y028133D01*
X024812Y028168D01*
X024784Y028196D01*
X024750Y028215D01*
X024712Y028226D01*
X024524Y028226D01*
X024524Y028076D01*
X024427Y028076D01*
X024427Y028226D01*
X024239Y028226D01*
X024201Y028215D01*
X024188Y028208D01*
X024110Y028286D01*
X024028Y028286D01*
X024028Y028545D01*
X024157Y028545D01*
X024277Y028595D01*
X024288Y028606D01*
X024299Y028595D01*
X024420Y028545D01*
X024551Y028545D01*
X024671Y028595D01*
X024728Y028651D01*
X024752Y028635D01*
X024801Y028615D01*
X024853Y028605D01*
X024870Y028605D01*
X024870Y029139D01*
X024870Y029082D02*
X024888Y029082D01*
X024888Y028983D02*
X024870Y028983D01*
X024870Y028885D02*
X024888Y028885D01*
X024888Y028786D02*
X024870Y028786D01*
X024870Y028688D02*
X024888Y028688D01*
X025100Y028589D02*
X024657Y028589D01*
X024313Y028589D02*
X024264Y028589D01*
X024028Y028491D02*
X025358Y028491D01*
X025397Y028392D02*
X024028Y028392D01*
X024028Y028294D02*
X025485Y028294D01*
X025583Y028195D02*
X024785Y028195D01*
X024842Y028097D02*
X025682Y028097D01*
X024524Y028097D02*
X024427Y028097D01*
X024427Y028195D02*
X024524Y028195D01*
X023368Y028195D02*
X021007Y028195D01*
X020909Y028294D02*
X023368Y028294D01*
X023368Y028392D02*
X020810Y028392D01*
X020712Y028491D02*
X023368Y028491D01*
X023368Y028545D02*
X023368Y028076D01*
X021127Y028076D01*
X020594Y028609D01*
X020626Y028615D01*
X020675Y028635D01*
X020699Y028651D01*
X020756Y028595D01*
X020877Y028545D01*
X021007Y028545D01*
X021128Y028595D01*
X021139Y028606D01*
X021150Y028595D01*
X021270Y028545D01*
X021401Y028545D01*
X021521Y028595D01*
X021532Y028606D01*
X021543Y028595D01*
X021664Y028545D01*
X021795Y028545D01*
X021915Y028595D01*
X021926Y028606D01*
X021937Y028595D01*
X022058Y028545D01*
X022188Y028545D01*
X022309Y028595D01*
X022320Y028606D01*
X022331Y028595D01*
X022451Y028545D01*
X022582Y028545D01*
X022703Y028595D01*
X022714Y028606D01*
X022725Y028595D01*
X022845Y028545D01*
X022976Y028545D01*
X023096Y028595D01*
X023107Y028606D01*
X023118Y028595D01*
X023239Y028545D01*
X023368Y028545D01*
X023132Y028589D02*
X023083Y028589D01*
X022738Y028589D02*
X022689Y028589D01*
X022345Y028589D02*
X022295Y028589D01*
X021951Y028589D02*
X021902Y028589D01*
X021557Y028589D02*
X021508Y028589D01*
X021163Y028589D02*
X021114Y028589D01*
X020770Y028589D02*
X020613Y028589D01*
X020280Y028922D02*
X020280Y029139D01*
X020539Y029139D01*
X020539Y029157D01*
X020280Y029157D01*
X020280Y029450D01*
X020290Y029502D01*
X020311Y029551D01*
X020340Y029595D01*
X020377Y029632D01*
X020421Y029662D01*
X020470Y029682D01*
X020522Y029692D01*
X020539Y029692D01*
X020539Y029157D01*
X020557Y029157D01*
X020557Y029692D01*
X020575Y029692D01*
X020626Y029682D01*
X020675Y029662D01*
X020699Y029645D01*
X020739Y029685D01*
X020683Y029685D01*
X020455Y029913D01*
X020455Y030052D01*
X020051Y030456D01*
X020051Y029152D01*
X020280Y028922D01*
X020280Y028983D02*
X020219Y028983D01*
X020280Y029082D02*
X020121Y029082D01*
X020051Y029180D02*
X020280Y029180D01*
X020280Y029279D02*
X020051Y029279D01*
X020051Y029377D02*
X020280Y029377D01*
X020285Y029476D02*
X020051Y029476D01*
X020051Y029574D02*
X020326Y029574D01*
X020448Y029673D02*
X020051Y029673D01*
X020051Y029771D02*
X020597Y029771D01*
X020557Y029673D02*
X020539Y029673D01*
X020539Y029574D02*
X020557Y029574D01*
X020557Y029476D02*
X020539Y029476D01*
X020539Y029377D02*
X020557Y029377D01*
X020557Y029279D02*
X020539Y029279D01*
X020539Y029180D02*
X020557Y029180D01*
X020649Y029673D02*
X020726Y029673D01*
X020498Y029870D02*
X020051Y029870D01*
X020051Y029968D02*
X020455Y029968D01*
X020440Y030067D02*
X020051Y030067D01*
X020051Y030165D02*
X020342Y030165D01*
X020243Y030264D02*
X020051Y030264D01*
X020051Y030362D02*
X020145Y030362D01*
X019235Y030362D02*
X018456Y030362D01*
X018456Y030264D02*
X019235Y030264D01*
X019235Y030165D02*
X018456Y030165D01*
X018456Y030067D02*
X019235Y030067D01*
X019235Y029968D02*
X018456Y029968D01*
X018456Y029870D02*
X019235Y029870D01*
X019235Y029771D02*
X018456Y029771D01*
X018456Y029719D02*
X018456Y030625D01*
X018462Y030623D01*
X018514Y030613D01*
X018807Y030613D01*
X018807Y030872D01*
X018825Y030872D01*
X018825Y030613D01*
X019118Y030613D01*
X019170Y030623D01*
X019219Y030643D01*
X019235Y030654D01*
X019235Y028832D01*
X018496Y029571D01*
X018496Y029623D01*
X018456Y029719D01*
X018476Y029673D02*
X019235Y029673D01*
X019235Y029574D02*
X018496Y029574D01*
X018591Y029476D02*
X019235Y029476D01*
X019235Y029377D02*
X018690Y029377D01*
X018788Y029279D02*
X019235Y029279D01*
X019235Y029180D02*
X018887Y029180D01*
X018985Y029082D02*
X019235Y029082D01*
X019235Y028983D02*
X019084Y028983D01*
X019182Y028885D02*
X019235Y028885D01*
X019235Y030461D02*
X018456Y030461D01*
X018456Y030559D02*
X019235Y030559D01*
X018825Y030658D02*
X018807Y030658D01*
X018807Y030756D02*
X018825Y030756D01*
X018825Y030855D02*
X018807Y030855D01*
X020346Y032037D02*
X020349Y032037D01*
X020346Y032135D02*
X020436Y032135D01*
X020346Y032234D02*
X020820Y032234D01*
X020819Y032332D02*
X020346Y032332D01*
X020346Y032431D02*
X020840Y032431D01*
X020888Y032529D02*
X020346Y032529D01*
X020346Y032825D02*
X020502Y032825D01*
X020498Y032923D02*
X020346Y032923D01*
X020346Y033022D02*
X020498Y033022D01*
X020498Y033120D02*
X020346Y033120D01*
X020346Y033219D02*
X020498Y033219D01*
X020498Y033317D02*
X020346Y033317D01*
X020346Y033416D02*
X020498Y033416D01*
X020498Y033514D02*
X020346Y033514D01*
X020346Y033613D02*
X020498Y033613D01*
X020498Y033711D02*
X020346Y033711D01*
X020346Y033810D02*
X020498Y033810D01*
X020498Y033908D02*
X020327Y033908D01*
X020264Y034007D02*
X020498Y034007D01*
X020498Y034105D02*
X020165Y034105D01*
X020067Y034204D02*
X020498Y034204D01*
X020498Y034302D02*
X020426Y034302D01*
X020060Y034302D02*
X019992Y034302D01*
X019420Y035967D02*
X019420Y036064D01*
X019370Y036185D01*
X019359Y036196D01*
X019370Y036207D01*
X019420Y036327D01*
X019420Y036458D01*
X019370Y036578D01*
X019359Y036589D01*
X019370Y036600D01*
X019420Y036721D01*
X019420Y036851D01*
X019370Y036972D01*
X019359Y036983D01*
X019370Y036994D01*
X019420Y037115D01*
X019420Y037234D01*
X019845Y036809D01*
X019845Y036444D01*
X019537Y036136D01*
X019456Y036055D01*
X019420Y035967D01*
X019420Y035977D02*
X019424Y035977D01*
X019415Y036075D02*
X019476Y036075D01*
X019575Y036174D02*
X019374Y036174D01*
X019397Y036272D02*
X019673Y036272D01*
X019772Y036371D02*
X019420Y036371D01*
X019415Y036469D02*
X019845Y036469D01*
X019845Y036568D02*
X019374Y036568D01*
X019397Y036666D02*
X019845Y036666D01*
X019845Y036765D02*
X019420Y036765D01*
X019415Y036863D02*
X019791Y036863D01*
X019692Y036962D02*
X019374Y036962D01*
X019397Y037060D02*
X019594Y037060D01*
X019495Y037159D02*
X019420Y037159D01*
X020536Y038309D02*
X020613Y038309D01*
X020734Y038358D01*
X020745Y038369D01*
X020756Y038358D01*
X020877Y038309D01*
X021007Y038309D01*
X021128Y038358D01*
X021139Y038369D01*
X021150Y038358D01*
X021270Y038309D01*
X021401Y038309D01*
X021521Y038358D01*
X021578Y038415D01*
X021602Y038399D01*
X021651Y038379D01*
X021703Y038369D01*
X021720Y038369D01*
X021720Y038903D01*
X021738Y038903D01*
X021738Y038369D01*
X021756Y038369D01*
X021808Y038379D01*
X021856Y038399D01*
X021900Y038428D01*
X021926Y038454D01*
X021952Y038428D01*
X021996Y038399D01*
X022045Y038379D01*
X022097Y038369D01*
X022114Y038369D01*
X022114Y038903D01*
X022132Y038903D01*
X022132Y038369D01*
X022149Y038369D01*
X022201Y038379D01*
X022250Y038399D01*
X022294Y038428D01*
X022320Y038454D01*
X022346Y038428D01*
X022390Y038399D01*
X022439Y038379D01*
X022490Y038369D01*
X022508Y038369D01*
X022508Y038903D01*
X022526Y038903D01*
X022526Y038921D01*
X022785Y038921D01*
X022901Y038921D01*
X022901Y038903D01*
X022526Y038903D01*
X022526Y038369D01*
X022543Y038369D01*
X022595Y038379D01*
X022644Y038399D01*
X022688Y038428D01*
X022714Y038454D01*
X022740Y038428D01*
X022783Y038399D01*
X022832Y038379D01*
X022884Y038369D01*
X022901Y038369D01*
X022901Y038903D01*
X022919Y038903D01*
X022919Y038369D01*
X022937Y038369D01*
X022989Y038379D01*
X023037Y038399D01*
X023081Y038428D01*
X023107Y038454D01*
X023133Y038428D01*
X023177Y038399D01*
X023226Y038379D01*
X023278Y038369D01*
X023295Y038369D01*
X023295Y038903D01*
X023313Y038903D01*
X023313Y038369D01*
X023331Y038369D01*
X023382Y038379D01*
X023431Y038399D01*
X023455Y038415D01*
X023512Y038358D01*
X023633Y038309D01*
X023763Y038309D01*
X023884Y038358D01*
X023940Y038415D01*
X023965Y038399D01*
X024013Y038379D01*
X024065Y038369D01*
X024082Y038369D01*
X024082Y038903D01*
X024101Y038903D01*
X024101Y038921D01*
X024360Y038921D01*
X024476Y038921D01*
X024476Y038903D01*
X024101Y038903D01*
X024101Y038369D01*
X024118Y038369D01*
X024170Y038379D01*
X024219Y038399D01*
X024262Y038428D01*
X024288Y038454D01*
X024314Y038428D01*
X024358Y038399D01*
X024389Y038386D01*
X024389Y038358D01*
X024379Y038307D01*
X024389Y038261D01*
X024389Y038214D01*
X024409Y038167D01*
X024419Y038117D01*
X024446Y038078D01*
X024464Y038034D01*
X024500Y037998D01*
X024529Y037955D01*
X024568Y037930D01*
X024946Y037552D01*
X025126Y037477D01*
X025321Y037477D01*
X025501Y037552D01*
X025639Y037690D01*
X025713Y037870D01*
X025713Y038065D01*
X025639Y038245D01*
X025557Y038327D01*
X025601Y038309D01*
X025732Y038309D01*
X025852Y038358D01*
X025909Y038415D01*
X025933Y038399D01*
X025982Y038379D01*
X026034Y038369D01*
X026051Y038369D01*
X026051Y038903D01*
X026069Y038903D01*
X026069Y038369D01*
X026086Y038369D01*
X026138Y038379D01*
X026187Y038399D01*
X026231Y038428D01*
X026257Y038454D01*
X026283Y038428D01*
X026327Y038399D01*
X026376Y038379D01*
X026427Y038369D01*
X026445Y038369D01*
X026445Y038903D01*
X026463Y038903D01*
X026463Y038369D01*
X026480Y038369D01*
X026532Y038379D01*
X026581Y038399D01*
X026605Y038415D01*
X026662Y038358D01*
X026782Y038309D01*
X026791Y038309D01*
X025099Y036617D01*
X024437Y036617D01*
X024437Y037890D01*
X024408Y037919D01*
X022988Y037919D01*
X022959Y037890D01*
X022959Y036617D01*
X022228Y036617D01*
X020536Y038309D01*
X020602Y038242D02*
X024389Y038242D01*
X024386Y038341D02*
X023840Y038341D01*
X024082Y038439D02*
X024101Y038439D01*
X024101Y038538D02*
X024082Y038538D01*
X024082Y038636D02*
X024101Y038636D01*
X024101Y038735D02*
X024082Y038735D01*
X024082Y038833D02*
X024101Y038833D01*
X024101Y038921D02*
X024082Y038921D01*
X024082Y039444D01*
X024091Y039464D01*
X024091Y039862D01*
X024265Y040036D01*
X024376Y040146D01*
X024435Y040291D01*
X024435Y040455D01*
X024449Y040469D01*
X024449Y040780D01*
X024550Y040780D01*
X024550Y041329D01*
X024617Y041329D01*
X024617Y040780D01*
X024771Y040780D01*
X024809Y040790D01*
X024843Y040810D01*
X024871Y040838D01*
X024891Y040872D01*
X024901Y040910D01*
X024901Y041329D01*
X024617Y041329D01*
X024617Y041397D01*
X024550Y041397D01*
X024550Y041946D01*
X024449Y041946D01*
X024449Y042257D01*
X024326Y042380D01*
X023758Y042380D01*
X023635Y042257D01*
X023635Y041946D01*
X023535Y041946D01*
X023535Y041397D01*
X023467Y041397D01*
X023467Y041946D01*
X023314Y041946D01*
X023276Y041936D01*
X023242Y041916D01*
X023214Y041888D01*
X023194Y041854D01*
X023184Y041816D01*
X023184Y041397D01*
X023467Y041397D01*
X023467Y041329D01*
X023535Y041329D01*
X023535Y041397D01*
X023818Y041397D01*
X023818Y041547D01*
X024266Y041547D01*
X024266Y041397D01*
X024550Y041397D01*
X024550Y041329D01*
X024266Y041329D01*
X024266Y041179D01*
X023818Y041179D01*
X023818Y041329D01*
X023535Y041329D01*
X023535Y040780D01*
X023635Y040780D01*
X023635Y040518D01*
X023365Y040247D01*
X023305Y040103D01*
X023305Y039464D01*
X023313Y039444D01*
X023313Y038921D01*
X023295Y038921D01*
X023295Y038903D01*
X022919Y038903D01*
X022919Y038921D01*
X022901Y038921D01*
X022901Y039456D01*
X022884Y039456D01*
X022832Y039446D01*
X022783Y039425D01*
X022740Y039396D01*
X022714Y039370D01*
X022688Y039396D01*
X022644Y039425D01*
X022595Y039446D01*
X022543Y039456D01*
X022526Y039456D01*
X022526Y038921D01*
X022508Y038921D01*
X022508Y038903D01*
X022132Y038903D01*
X022132Y038921D01*
X022391Y038921D01*
X022508Y038921D01*
X022508Y039456D01*
X022490Y039456D01*
X022439Y039446D01*
X022390Y039425D01*
X022346Y039396D01*
X022320Y039370D01*
X022294Y039396D01*
X022250Y039425D01*
X022201Y039446D01*
X022149Y039456D01*
X022132Y039456D01*
X022132Y038921D01*
X022114Y038921D01*
X022114Y038903D01*
X021738Y038903D01*
X021738Y038921D01*
X021720Y038921D01*
X021720Y039456D01*
X021703Y039456D01*
X021651Y039446D01*
X021644Y039443D01*
X021644Y039893D01*
X021718Y039893D01*
X021841Y040016D01*
X021841Y040584D01*
X021790Y040635D01*
X021841Y040685D01*
X021841Y041253D01*
X021718Y041376D01*
X021111Y041376D01*
X021088Y041354D01*
X021078Y041358D01*
X020924Y041358D01*
X020781Y041299D01*
X020699Y041217D01*
X020699Y041854D01*
X020576Y041977D01*
X020267Y041977D01*
X020217Y042027D01*
X020074Y042086D01*
X019920Y042086D01*
X019777Y042027D01*
X019668Y041918D01*
X019609Y041775D01*
X019609Y041620D01*
X019668Y041478D01*
X019777Y041368D01*
X019807Y041356D01*
X019807Y041207D01*
X019897Y041117D01*
X019807Y041027D01*
X019807Y040694D01*
X019780Y040667D01*
X019769Y040677D01*
X019320Y040677D01*
X019288Y040646D01*
X019257Y040677D01*
X018901Y040677D01*
X018901Y041608D01*
X018210Y041608D01*
X018210Y040524D01*
X018685Y040524D01*
X018685Y040475D01*
X018438Y040229D01*
X017792Y040229D01*
X017792Y040524D01*
X018110Y040524D01*
X018110Y041608D01*
X018210Y041608D01*
X018210Y041708D01*
X018901Y041708D01*
X018901Y042494D01*
X027353Y042494D01*
X027227Y042442D01*
X027097Y042313D01*
X027027Y042143D01*
X027027Y041960D01*
X027097Y041791D01*
X027126Y041763D01*
X027126Y039374D01*
X027033Y039466D01*
X026913Y039516D01*
X026782Y039516D01*
X026662Y039466D01*
X026605Y039409D01*
X026581Y039425D01*
X026532Y039446D01*
X026480Y039456D01*
X026463Y039456D01*
X026463Y038921D01*
X026445Y038921D01*
X026445Y038903D01*
X026069Y038903D01*
X026069Y038921D01*
X026328Y038921D01*
X026445Y038921D01*
X026445Y039456D01*
X026427Y039456D01*
X026376Y039446D01*
X026327Y039425D01*
X026283Y039396D01*
X026257Y039370D01*
X026231Y039396D01*
X026187Y039425D01*
X026138Y039446D01*
X026086Y039456D01*
X026069Y039456D01*
X026069Y038921D01*
X026051Y038921D01*
X026051Y039456D01*
X026034Y039456D01*
X025982Y039446D01*
X025933Y039425D01*
X025909Y039409D01*
X025852Y039466D01*
X025732Y039516D01*
X025601Y039516D01*
X025480Y039466D01*
X025469Y039455D01*
X025458Y039466D01*
X025338Y039516D01*
X025207Y039516D01*
X025087Y039466D01*
X025076Y039455D01*
X025065Y039466D01*
X024944Y039516D01*
X024814Y039516D01*
X024693Y039466D01*
X024636Y039409D01*
X024612Y039425D01*
X024563Y039446D01*
X024512Y039456D01*
X024494Y039456D01*
X024494Y038921D01*
X024476Y038921D01*
X024476Y039456D01*
X024459Y039456D01*
X024407Y039446D01*
X024358Y039425D01*
X024314Y039396D01*
X024288Y039370D01*
X024262Y039396D01*
X024219Y039425D01*
X024170Y039446D01*
X024118Y039456D01*
X024101Y039456D01*
X024101Y038921D01*
X024101Y038932D02*
X024082Y038932D01*
X024082Y039030D02*
X024101Y039030D01*
X024101Y039129D02*
X024082Y039129D01*
X024082Y039227D02*
X024101Y039227D01*
X024101Y039326D02*
X024082Y039326D01*
X024082Y039424D02*
X024101Y039424D01*
X024091Y039523D02*
X027126Y039523D01*
X027126Y039621D02*
X024091Y039621D01*
X024091Y039720D02*
X027126Y039720D01*
X027126Y039818D02*
X026781Y039818D01*
X026777Y039814D02*
X026900Y039937D01*
X026900Y040584D01*
X026810Y040674D01*
X026900Y040764D01*
X026900Y041411D01*
X026824Y041487D01*
X026824Y041930D01*
X026842Y041975D01*
X026842Y042129D01*
X026783Y042272D01*
X026674Y042381D01*
X026531Y042440D01*
X026376Y042440D01*
X026234Y042381D01*
X026124Y042272D01*
X026065Y042129D01*
X026065Y041975D01*
X026084Y041930D01*
X026084Y041487D01*
X026008Y041411D01*
X026008Y040764D01*
X026098Y040674D01*
X026043Y040620D01*
X025948Y040620D01*
X025721Y040392D01*
X025721Y040070D01*
X025948Y039843D01*
X026102Y039843D01*
X026131Y039814D01*
X026777Y039814D01*
X026879Y039917D02*
X027126Y039917D01*
X027126Y040015D02*
X026900Y040015D01*
X026900Y040114D02*
X027126Y040114D01*
X027126Y040212D02*
X026900Y040212D01*
X026900Y040311D02*
X027126Y040311D01*
X027126Y040409D02*
X026900Y040409D01*
X026900Y040508D02*
X027126Y040508D01*
X027126Y040606D02*
X026878Y040606D01*
X026840Y040705D02*
X027126Y040705D01*
X027126Y040803D02*
X026900Y040803D01*
X026900Y040902D02*
X027126Y040902D01*
X027126Y041000D02*
X026900Y041000D01*
X026900Y041099D02*
X027126Y041099D01*
X027126Y041197D02*
X026900Y041197D01*
X026900Y041296D02*
X027126Y041296D01*
X027126Y041394D02*
X026900Y041394D01*
X026824Y041493D02*
X027126Y041493D01*
X027126Y041591D02*
X026824Y041591D01*
X026824Y041690D02*
X027126Y041690D01*
X027101Y041788D02*
X026824Y041788D01*
X026824Y041887D02*
X027058Y041887D01*
X027027Y041985D02*
X026842Y041985D01*
X026842Y042084D02*
X027027Y042084D01*
X027043Y042182D02*
X026820Y042182D01*
X026774Y042281D02*
X027084Y042281D01*
X027164Y042379D02*
X026676Y042379D01*
X026232Y042379D02*
X024327Y042379D01*
X024426Y042281D02*
X026133Y042281D01*
X026087Y042182D02*
X024449Y042182D01*
X024449Y042084D02*
X026065Y042084D01*
X026065Y041985D02*
X024449Y041985D01*
X024550Y041887D02*
X024617Y041887D01*
X024617Y041946D02*
X024617Y041397D01*
X024901Y041397D01*
X024901Y041816D01*
X024891Y041854D01*
X024871Y041888D01*
X024843Y041916D01*
X024809Y041936D01*
X024771Y041946D01*
X024617Y041946D01*
X024617Y041788D02*
X024550Y041788D01*
X024550Y041690D02*
X024617Y041690D01*
X024617Y041591D02*
X024550Y041591D01*
X024550Y041493D02*
X024617Y041493D01*
X024617Y041394D02*
X026008Y041394D01*
X026008Y041296D02*
X024901Y041296D01*
X024901Y041197D02*
X026008Y041197D01*
X026008Y041099D02*
X024901Y041099D01*
X024901Y041000D02*
X026008Y041000D01*
X026008Y040902D02*
X024899Y040902D01*
X024831Y040803D02*
X026008Y040803D01*
X026067Y040705D02*
X024449Y040705D01*
X024449Y040606D02*
X025935Y040606D01*
X025836Y040508D02*
X024449Y040508D01*
X024435Y040409D02*
X025738Y040409D01*
X025721Y040311D02*
X024435Y040311D01*
X024403Y040212D02*
X025721Y040212D01*
X025721Y040114D02*
X024343Y040114D01*
X024244Y040015D02*
X025776Y040015D01*
X025874Y039917D02*
X024146Y039917D01*
X024091Y039818D02*
X026127Y039818D01*
X026069Y039424D02*
X026051Y039424D01*
X026051Y039326D02*
X026069Y039326D01*
X026069Y039227D02*
X026051Y039227D01*
X026051Y039129D02*
X026069Y039129D01*
X026069Y039030D02*
X026051Y039030D01*
X026051Y038932D02*
X026069Y038932D01*
X026069Y038833D02*
X026051Y038833D01*
X026051Y038735D02*
X026069Y038735D01*
X026069Y038636D02*
X026051Y038636D01*
X026051Y038538D02*
X026069Y038538D01*
X026069Y038439D02*
X026051Y038439D01*
X026242Y038439D02*
X026272Y038439D01*
X026445Y038439D02*
X026463Y038439D01*
X026463Y038538D02*
X026445Y038538D01*
X026445Y038636D02*
X026463Y038636D01*
X026463Y038735D02*
X026445Y038735D01*
X026445Y038833D02*
X026463Y038833D01*
X026463Y038932D02*
X026445Y038932D01*
X026445Y039030D02*
X026463Y039030D01*
X026463Y039129D02*
X026445Y039129D01*
X026445Y039227D02*
X026463Y039227D01*
X026463Y039326D02*
X026445Y039326D01*
X026445Y039424D02*
X026463Y039424D01*
X026583Y039424D02*
X026620Y039424D01*
X026325Y039424D02*
X026189Y039424D01*
X025931Y039424D02*
X025894Y039424D01*
X025809Y038341D02*
X026705Y038341D01*
X026724Y038242D02*
X025640Y038242D01*
X025681Y038144D02*
X026626Y038144D01*
X026527Y038045D02*
X025713Y038045D01*
X025713Y037947D02*
X026429Y037947D01*
X026330Y037848D02*
X025704Y037848D01*
X025664Y037750D02*
X026232Y037750D01*
X026133Y037651D02*
X025600Y037651D01*
X025502Y037553D02*
X026035Y037553D01*
X025936Y037454D02*
X024437Y037454D01*
X024437Y037356D02*
X025838Y037356D01*
X025739Y037257D02*
X024437Y037257D01*
X024437Y037159D02*
X025641Y037159D01*
X025542Y037060D02*
X024437Y037060D01*
X024437Y036962D02*
X025444Y036962D01*
X025345Y036863D02*
X024437Y036863D01*
X024437Y036765D02*
X025247Y036765D01*
X025148Y036666D02*
X024437Y036666D01*
X024437Y037553D02*
X024945Y037553D01*
X024847Y037651D02*
X024437Y037651D01*
X024437Y037750D02*
X024748Y037750D01*
X024650Y037848D02*
X024437Y037848D01*
X024542Y037947D02*
X020898Y037947D01*
X020799Y038045D02*
X024459Y038045D01*
X024413Y038144D02*
X020701Y038144D01*
X020691Y038341D02*
X020799Y038341D01*
X021085Y038341D02*
X021193Y038341D01*
X021478Y038341D02*
X023555Y038341D01*
X023313Y038439D02*
X023295Y038439D01*
X023295Y038538D02*
X023313Y038538D01*
X023313Y038636D02*
X023295Y038636D01*
X023295Y038735D02*
X023313Y038735D01*
X023313Y038833D02*
X023295Y038833D01*
X023295Y038921D02*
X023179Y038921D01*
X022919Y038921D01*
X022919Y039456D01*
X022937Y039456D01*
X022989Y039446D01*
X023037Y039425D01*
X023081Y039396D01*
X023107Y039370D01*
X023133Y039396D01*
X023177Y039425D01*
X023226Y039446D01*
X023278Y039456D01*
X023295Y039456D01*
X023295Y038921D01*
X023295Y038932D02*
X023313Y038932D01*
X023313Y039030D02*
X023295Y039030D01*
X023295Y039129D02*
X023313Y039129D01*
X023313Y039227D02*
X023295Y039227D01*
X023295Y039326D02*
X023313Y039326D01*
X023313Y039424D02*
X023295Y039424D01*
X023305Y039523D02*
X021644Y039523D01*
X021644Y039621D02*
X023305Y039621D01*
X023305Y039720D02*
X021644Y039720D01*
X021644Y039818D02*
X023305Y039818D01*
X023305Y039917D02*
X021741Y039917D01*
X021840Y040015D02*
X023305Y040015D01*
X023309Y040114D02*
X021841Y040114D01*
X021841Y040212D02*
X023350Y040212D01*
X023428Y040311D02*
X021841Y040311D01*
X021841Y040409D02*
X023527Y040409D01*
X023625Y040508D02*
X021841Y040508D01*
X021819Y040606D02*
X023635Y040606D01*
X023635Y040705D02*
X021841Y040705D01*
X021841Y040803D02*
X023253Y040803D01*
X023242Y040810D02*
X023276Y040790D01*
X023314Y040780D01*
X023467Y040780D01*
X023467Y041329D01*
X023184Y041329D01*
X023184Y040910D01*
X023194Y040872D01*
X023214Y040838D01*
X023242Y040810D01*
X023186Y040902D02*
X021841Y040902D01*
X021841Y041000D02*
X023184Y041000D01*
X023184Y041099D02*
X021841Y041099D01*
X021841Y041197D02*
X023184Y041197D01*
X023184Y041296D02*
X021798Y041296D01*
X020778Y041296D02*
X020699Y041296D01*
X020699Y041394D02*
X023467Y041394D01*
X023535Y041394D02*
X024550Y041394D01*
X024550Y041296D02*
X024617Y041296D01*
X024617Y041197D02*
X024550Y041197D01*
X024550Y041099D02*
X024617Y041099D01*
X024617Y041000D02*
X024550Y041000D01*
X024550Y040902D02*
X024617Y040902D01*
X024617Y040803D02*
X024550Y040803D01*
X024266Y041197D02*
X023818Y041197D01*
X023818Y041296D02*
X024266Y041296D01*
X024266Y041493D02*
X023818Y041493D01*
X023535Y041493D02*
X023467Y041493D01*
X023467Y041591D02*
X023535Y041591D01*
X023535Y041690D02*
X023467Y041690D01*
X023467Y041788D02*
X023535Y041788D01*
X023535Y041887D02*
X023467Y041887D01*
X023635Y041985D02*
X020259Y041985D01*
X020080Y042084D02*
X023635Y042084D01*
X023635Y042182D02*
X018901Y042182D01*
X018901Y042084D02*
X019914Y042084D01*
X019735Y041985D02*
X018901Y041985D01*
X018901Y041887D02*
X019655Y041887D01*
X019614Y041788D02*
X018901Y041788D01*
X018901Y041591D02*
X019621Y041591D01*
X019609Y041690D02*
X018210Y041690D01*
X018210Y041591D02*
X018110Y041591D01*
X018110Y041493D02*
X018210Y041493D01*
X018210Y041394D02*
X018110Y041394D01*
X018110Y041296D02*
X018210Y041296D01*
X018210Y041197D02*
X018110Y041197D01*
X018110Y041099D02*
X018210Y041099D01*
X018210Y041000D02*
X018110Y041000D01*
X018110Y040902D02*
X018210Y040902D01*
X018210Y040803D02*
X018110Y040803D01*
X018110Y040705D02*
X018210Y040705D01*
X018210Y040606D02*
X018110Y040606D01*
X017792Y040508D02*
X018685Y040508D01*
X018618Y040409D02*
X017792Y040409D01*
X017792Y040311D02*
X018520Y040311D01*
X018901Y040705D02*
X019807Y040705D01*
X019807Y040803D02*
X018901Y040803D01*
X018901Y040902D02*
X019807Y040902D01*
X019807Y041000D02*
X018901Y041000D01*
X018901Y041099D02*
X019879Y041099D01*
X019817Y041197D02*
X018901Y041197D01*
X018901Y041296D02*
X019807Y041296D01*
X019751Y041394D02*
X018901Y041394D01*
X018901Y041493D02*
X019662Y041493D01*
X020699Y041493D02*
X023184Y041493D01*
X023184Y041591D02*
X020699Y041591D01*
X020699Y041690D02*
X023184Y041690D01*
X023184Y041788D02*
X020699Y041788D01*
X020666Y041887D02*
X023213Y041887D01*
X023659Y042281D02*
X018901Y042281D01*
X018901Y042379D02*
X023757Y042379D01*
X023535Y041296D02*
X023467Y041296D01*
X023467Y041197D02*
X023535Y041197D01*
X023535Y041099D02*
X023467Y041099D01*
X023467Y041000D02*
X023535Y041000D01*
X023535Y040902D02*
X023467Y040902D01*
X023467Y040803D02*
X023535Y040803D01*
X023175Y039424D02*
X023039Y039424D01*
X022919Y039424D02*
X022901Y039424D01*
X022901Y039326D02*
X022919Y039326D01*
X022919Y039227D02*
X022901Y039227D01*
X022901Y039129D02*
X022919Y039129D01*
X022919Y039030D02*
X022901Y039030D01*
X022901Y038932D02*
X022919Y038932D01*
X022919Y038833D02*
X022901Y038833D01*
X022901Y038735D02*
X022919Y038735D01*
X022919Y038636D02*
X022901Y038636D01*
X022901Y038538D02*
X022919Y038538D01*
X022919Y038439D02*
X022901Y038439D01*
X022729Y038439D02*
X022698Y038439D01*
X022526Y038439D02*
X022508Y038439D01*
X022508Y038538D02*
X022526Y038538D01*
X022526Y038636D02*
X022508Y038636D01*
X022508Y038735D02*
X022526Y038735D01*
X022526Y038833D02*
X022508Y038833D01*
X022508Y038932D02*
X022526Y038932D01*
X022526Y039030D02*
X022508Y039030D01*
X022508Y039129D02*
X022526Y039129D01*
X022526Y039227D02*
X022508Y039227D01*
X022508Y039326D02*
X022526Y039326D01*
X022526Y039424D02*
X022508Y039424D01*
X022388Y039424D02*
X022252Y039424D01*
X022132Y039424D02*
X022114Y039424D01*
X022114Y039456D02*
X022097Y039456D01*
X022045Y039446D01*
X021996Y039425D01*
X021952Y039396D01*
X021926Y039370D01*
X021900Y039396D01*
X021856Y039425D01*
X021808Y039446D01*
X021756Y039456D01*
X021738Y039456D01*
X021738Y038921D01*
X021997Y038921D01*
X022114Y038921D01*
X022114Y039456D01*
X021994Y039424D02*
X021858Y039424D01*
X021738Y039424D02*
X021720Y039424D01*
X021720Y039326D02*
X021738Y039326D01*
X021738Y039227D02*
X021720Y039227D01*
X021720Y039129D02*
X021738Y039129D01*
X021738Y039030D02*
X021720Y039030D01*
X021720Y038932D02*
X021738Y038932D01*
X021738Y038833D02*
X021720Y038833D01*
X021720Y038735D02*
X021738Y038735D01*
X021738Y038636D02*
X021720Y038636D01*
X021720Y038538D02*
X021738Y038538D01*
X021738Y038439D02*
X021720Y038439D01*
X021911Y038439D02*
X021941Y038439D01*
X022114Y038439D02*
X022132Y038439D01*
X022132Y038538D02*
X022114Y038538D01*
X022114Y038636D02*
X022132Y038636D01*
X022132Y038735D02*
X022114Y038735D01*
X022114Y038833D02*
X022132Y038833D01*
X022132Y038932D02*
X022114Y038932D01*
X022114Y039030D02*
X022132Y039030D01*
X022132Y039129D02*
X022114Y039129D01*
X022114Y039227D02*
X022132Y039227D01*
X022132Y039326D02*
X022114Y039326D01*
X022646Y039424D02*
X022781Y039424D01*
X023092Y038439D02*
X023123Y038439D01*
X022959Y037848D02*
X020996Y037848D01*
X021095Y037750D02*
X022959Y037750D01*
X022959Y037651D02*
X021193Y037651D01*
X021292Y037553D02*
X022959Y037553D01*
X022959Y037454D02*
X021390Y037454D01*
X021489Y037356D02*
X022959Y037356D01*
X022959Y037257D02*
X021587Y037257D01*
X021686Y037159D02*
X022959Y037159D01*
X022959Y037060D02*
X021784Y037060D01*
X021883Y036962D02*
X022959Y036962D01*
X022959Y036863D02*
X021981Y036863D01*
X022080Y036765D02*
X022959Y036765D01*
X022959Y036666D02*
X022178Y036666D01*
X022305Y038439D02*
X022335Y038439D01*
X024273Y038439D02*
X024304Y038439D01*
X024476Y038932D02*
X024494Y038932D01*
X024494Y039030D02*
X024476Y039030D01*
X024476Y039129D02*
X024494Y039129D01*
X024494Y039227D02*
X024476Y039227D01*
X024476Y039326D02*
X024494Y039326D01*
X024494Y039424D02*
X024476Y039424D01*
X024356Y039424D02*
X024221Y039424D01*
X024614Y039424D02*
X024651Y039424D01*
X024901Y041493D02*
X026084Y041493D01*
X026084Y041591D02*
X024901Y041591D01*
X024901Y041690D02*
X026084Y041690D01*
X026084Y041788D02*
X024901Y041788D01*
X024872Y041887D02*
X026084Y041887D01*
X027313Y042478D02*
X018901Y042478D01*
X025507Y035681D02*
X027980Y035681D01*
X028021Y035780D02*
X025648Y035780D01*
X025746Y035878D02*
X027999Y035878D01*
X027976Y035977D02*
X025845Y035977D01*
X025943Y036075D02*
X027981Y036075D01*
X028021Y036174D02*
X026042Y036174D01*
X026140Y036272D02*
X027999Y036272D01*
X027976Y036371D02*
X026239Y036371D01*
X026337Y036469D02*
X027981Y036469D01*
X028021Y036568D02*
X026436Y036568D01*
X026534Y036666D02*
X027999Y036666D01*
X027976Y036765D02*
X026633Y036765D01*
X026731Y036863D02*
X027981Y036863D01*
X028022Y036962D02*
X026830Y036962D01*
X026928Y037060D02*
X027999Y037060D01*
X027976Y037159D02*
X027027Y037159D01*
X027125Y037257D02*
X027981Y037257D01*
X028022Y037356D02*
X027224Y037356D01*
X027322Y037454D02*
X028114Y037454D01*
X027716Y037848D02*
X028816Y037848D01*
X028816Y037750D02*
X027618Y037750D01*
X027519Y037651D02*
X028816Y037651D01*
X028816Y037553D02*
X027421Y037553D01*
X027815Y037947D02*
X028816Y037947D01*
X027126Y039374D02*
X027126Y039374D01*
X027126Y039424D02*
X027075Y039424D01*
X028046Y034893D02*
X025137Y034893D01*
X025236Y034795D02*
X028036Y034795D01*
X028064Y034696D02*
X025306Y034696D01*
X025347Y034598D02*
X028021Y034598D01*
X027980Y034499D02*
X025348Y034499D01*
X025335Y034401D02*
X027976Y034401D01*
X028000Y034302D02*
X025295Y034302D01*
X025209Y034204D02*
X028021Y034204D01*
X031424Y032603D02*
X031424Y032357D01*
X031424Y032603D02*
X032072Y033251D01*
X032072Y033489D01*
X031916Y032751D02*
X031818Y032652D01*
X031818Y031914D01*
X031916Y032751D02*
X032458Y032751D01*
X032556Y032849D01*
X032556Y034965D01*
X034771Y034139D02*
X034771Y034129D01*
X033836Y031973D02*
X033836Y031668D01*
X035460Y031570D02*
X035656Y031373D01*
X035656Y029650D01*
X035706Y029601D01*
X035706Y029237D01*
X035903Y029237D02*
X035903Y031471D01*
X036493Y030497D02*
X036493Y030487D01*
X036493Y030290D01*
X036099Y029896D01*
X036099Y029237D01*
X036099Y028469D01*
X036050Y028420D01*
X036493Y029237D02*
X036493Y029601D01*
X036641Y029749D01*
X037133Y029749D01*
X037330Y029946D01*
X037330Y030881D01*
X037576Y031127D01*
X038609Y031127D01*
X038757Y030979D01*
X038658Y031078D01*
X037969Y030733D02*
X037576Y030339D01*
X037576Y029798D01*
X037015Y029237D01*
X036690Y029237D01*
X036690Y029404D01*
X034672Y027780D02*
X033855Y027780D01*
X033196Y027780D01*
X032655Y028322D01*
X032655Y028361D01*
X032546Y028469D01*
X032605Y028076D02*
X031729Y028076D01*
X031877Y028469D02*
X031877Y028725D01*
X032015Y028863D01*
X032212Y028863D01*
X032605Y028076D02*
X033294Y027387D01*
X033855Y027387D01*
X033855Y027190D02*
X033196Y027190D01*
X032704Y027682D01*
X032399Y027682D01*
X032999Y028272D02*
X032999Y028715D01*
X032851Y028863D01*
X032999Y028272D02*
X033294Y027977D01*
X033855Y027977D01*
X033855Y028371D02*
X033491Y028371D01*
X033393Y028469D01*
X033393Y029454D01*
X033196Y029650D01*
X032408Y029650D01*
X032891Y026540D02*
X032891Y026107D01*
X036149Y022957D02*
X036149Y020398D01*
X035656Y019906D01*
X035509Y019906D01*
X036475Y019552D02*
X036592Y019552D01*
X036475Y019552D02*
X035455Y018532D01*
X035455Y018332D02*
X035805Y018332D01*
X036355Y018883D01*
X036592Y018883D01*
X036592Y018873D01*
X036690Y018774D01*
X037281Y017593D02*
X037428Y017593D01*
X037281Y017593D02*
X036639Y016952D01*
X035455Y016952D01*
X035457Y017150D02*
X035455Y017152D01*
X035457Y017150D02*
X036149Y017150D01*
X036444Y017446D01*
X037030Y016752D02*
X037281Y017003D01*
X037030Y016752D02*
X035455Y016752D01*
X034431Y016752D01*
X034279Y016904D01*
X034478Y016562D02*
X034279Y016363D01*
X034478Y016562D02*
X035455Y016562D01*
X036102Y016562D01*
X036104Y016560D01*
X035455Y016362D02*
X034819Y016362D01*
X034426Y015969D01*
X034131Y015969D01*
X033737Y016363D01*
X033245Y016215D02*
X033245Y016954D01*
X034869Y017741D02*
X034870Y017742D01*
X035455Y017742D01*
X035455Y016362D02*
X037330Y016362D01*
X039436Y026206D02*
X039446Y026206D01*
X028816Y030461D02*
X023734Y030461D01*
X024669Y029870D02*
X021189Y029870D01*
X021090Y029771D02*
X024710Y029771D01*
X024701Y029673D02*
X024778Y029673D01*
X023368Y028097D02*
X021106Y028097D01*
D60*
X025223Y037967D03*
X029288Y039680D03*
X034771Y034129D03*
X035952Y034129D03*
X036985Y031963D03*
X037969Y032456D03*
X038757Y032456D03*
X038757Y030979D03*
X037969Y030733D03*
X036493Y030487D03*
X036542Y028420D03*
X036001Y027091D03*
X035263Y027091D03*
X034771Y024778D03*
X034082Y024778D03*
X034771Y022662D03*
X035164Y021530D03*
X035460Y020989D03*
X035164Y020448D03*
X035509Y019906D03*
X034377Y021530D03*
X033934Y020497D03*
X033540Y020989D03*
X033688Y019906D03*
X037133Y023499D03*
X037133Y024631D03*
X031966Y025418D03*
X033245Y030192D03*
X031424Y031373D03*
X030735Y031373D03*
X030735Y032357D03*
X031424Y032357D03*
X033048Y032357D03*
X018678Y016265D03*
X017989Y017446D03*
X019170Y014001D03*
X022025Y013902D03*
X023009Y012278D03*
X023944Y009129D03*
X028471Y012820D03*
X028914Y012180D03*
X030686Y014345D03*
X028422Y014887D03*
X032802Y009965D03*
X035017Y013263D03*
X036296Y014887D03*
X036788Y012524D03*
X018137Y008440D03*
X017399Y007013D03*
X016906Y007406D03*
X016365Y007751D03*
X015381Y007702D03*
X015922Y009473D03*
X015529Y012918D03*
D61*
X016257Y012918D01*
X016316Y012859D01*
X016389Y012932D01*
X017190Y012932D01*
X017190Y013432D02*
X015802Y013432D01*
X013708Y015526D01*
X013708Y022396D01*
X012891Y023213D01*
X011316Y023213D01*
X010942Y023587D01*
X010942Y024267D01*
X011601Y024257D02*
X011808Y024257D01*
X012536Y023528D01*
X013048Y023528D01*
X014052Y022524D01*
X014052Y015674D01*
X015794Y013932D01*
X017190Y013932D01*
X017190Y014432D02*
X015786Y014432D01*
X014347Y015871D01*
X014347Y022780D01*
X013255Y023873D01*
X013255Y024247D01*
X013038Y024247D01*
X012773Y024513D01*
X012773Y025221D01*
X013186Y025635D01*
X013363Y025635D01*
X014023Y024247D02*
X014544Y024247D01*
X014643Y024247D01*
X014790Y024247D01*
X014643Y024247D02*
X014643Y016068D01*
X015779Y014932D01*
X017190Y014932D01*
X017190Y015432D02*
X015771Y015432D01*
X014938Y016265D01*
X014938Y023322D01*
X015745Y024129D01*
X015893Y024129D01*
X015538Y024129D01*
X015332Y024335D01*
X015332Y025133D01*
X015469Y025270D01*
X016641Y024089D02*
X016680Y024050D01*
X017359Y024050D01*
X016641Y024011D02*
X016641Y024089D01*
X016641Y024011D02*
X015233Y022603D01*
X015233Y016461D01*
X015763Y015932D01*
X017190Y015932D01*
X017190Y016432D02*
X015755Y016432D01*
X015529Y016658D01*
X015529Y022170D01*
X016857Y023499D01*
X018727Y023499D01*
X017655Y022859D02*
X016867Y022859D01*
X015824Y021816D01*
X015824Y017052D01*
X015944Y016932D01*
X016334Y016932D01*
X016316Y016914D01*
X016334Y016932D02*
X017190Y016932D01*
X018011Y016932D01*
X018678Y016265D01*
X019170Y017052D02*
X019170Y014001D01*
X017190Y012432D02*
X016948Y012190D01*
X016316Y012190D01*
X015588Y012190D01*
X015529Y012131D01*
X015922Y009473D02*
X018206Y009473D01*
X020292Y011560D01*
X021946Y011560D01*
X021532Y012426D02*
X021156Y012426D01*
X021150Y012432D01*
X021532Y012426D02*
X022064Y012957D01*
X022123Y012957D01*
X023009Y012957D01*
X022025Y013902D02*
X025469Y013902D01*
X024879Y015280D02*
X025092Y015493D01*
X025092Y015871D01*
X024879Y015280D02*
X021828Y015280D01*
X021676Y015432D01*
X021150Y015432D01*
X021150Y015932D02*
X023031Y015932D01*
X023092Y015871D01*
X022221Y016412D02*
X022221Y016432D01*
X021150Y016432D01*
X019170Y017052D02*
X018290Y017932D01*
X017190Y017932D01*
X017190Y017432D02*
X017975Y017432D01*
X017989Y017446D01*
X017190Y017432D02*
X016468Y017432D01*
X016316Y017583D01*
X020834Y019020D02*
X021090Y019020D01*
X022418Y019020D01*
X023649Y017790D01*
X024918Y018381D02*
X024918Y018617D01*
X025076Y018774D01*
X026700Y022269D02*
X026316Y022652D01*
X026050Y022652D01*
X026257Y027337D02*
X023156Y027337D01*
X022812Y027682D01*
X024879Y028971D02*
X024879Y029567D01*
X024741Y029705D01*
X024741Y029709D01*
X024402Y030049D01*
X026119Y031835D02*
X026651Y031304D01*
X026651Y030881D01*
X026119Y031835D02*
X020686Y031835D01*
X021188Y032308D02*
X024141Y032308D01*
X020844Y030074D02*
X020056Y030861D01*
X020056Y033804D01*
X019702Y034158D01*
X019702Y035891D01*
X020135Y036324D01*
X020135Y036929D01*
X018398Y038666D01*
X021336Y038912D02*
X021336Y039454D01*
X016237Y033961D02*
X016867Y033331D01*
X016867Y033135D01*
X015962Y033489D02*
X015253Y033489D01*
X014889Y033125D01*
X014889Y032198D01*
X015389Y032198D02*
X015389Y032916D01*
X015489Y033017D01*
X016237Y033961D02*
X014544Y033961D01*
X013889Y033306D01*
X013889Y032198D01*
X017743Y032209D02*
X017812Y032141D01*
X017812Y029350D01*
X018166Y029557D02*
X018166Y032377D01*
X018038Y032505D01*
X020046Y025566D02*
X020204Y025566D01*
X020253Y025517D01*
X026257Y027337D02*
X026847Y027928D01*
X029308Y027928D01*
X029308Y028814D01*
X029357Y028863D01*
X031621Y029257D02*
X032221Y029257D01*
X031877Y028469D02*
X031729Y028322D01*
X031729Y028076D01*
X031729Y027682D01*
X031719Y027672D01*
X031719Y027091D01*
X031877Y026934D01*
X031877Y026894D01*
X031867Y026885D01*
X031867Y026501D01*
X032221Y026146D01*
X032221Y026107D01*
X032212Y026097D01*
X032212Y025517D01*
X032015Y025320D01*
X031966Y025320D01*
X031966Y025310D02*
X032625Y025310D01*
X032664Y025270D01*
X031966Y025310D02*
X031966Y025418D01*
X031966Y024641D02*
X031966Y024156D01*
X032147Y023975D01*
X032147Y023597D01*
X032344Y023400D01*
X034344Y023400D02*
X034574Y023400D01*
X034761Y024778D02*
X034771Y024778D01*
X034092Y024778D02*
X034082Y024778D01*
X034475Y028617D02*
X033688Y029404D01*
X033688Y029749D01*
X033245Y030192D01*
X033245Y030202D01*
X034623Y031973D02*
X035410Y031973D01*
X035410Y032643D02*
X035361Y032692D01*
X035361Y035556D01*
X034759Y036158D01*
X034759Y036485D01*
X034254Y036712D02*
X034254Y036171D01*
X034771Y035654D01*
X034771Y034808D01*
X034180Y035654D02*
X034180Y033784D01*
X034623Y033341D01*
X034623Y032643D01*
X033836Y032643D02*
X033836Y035507D01*
X033196Y036146D01*
X033196Y037180D01*
X033501Y037485D01*
X034259Y037485D01*
X034746Y037205D02*
X034254Y036712D01*
X033759Y036485D02*
X033759Y036076D01*
X034180Y035654D01*
X035263Y036220D02*
X035263Y036762D01*
X035755Y037254D01*
X035755Y040072D01*
X036999Y041316D01*
X034746Y041187D02*
X034019Y041914D01*
X034746Y041187D02*
X034746Y037205D01*
X035263Y036220D02*
X035952Y035531D01*
X035952Y034808D01*
X035952Y034139D02*
X035952Y034129D01*
X036198Y032643D02*
X036542Y032643D01*
X036985Y032643D01*
X036542Y032643D02*
X036542Y035802D01*
X036259Y036085D01*
X036259Y037485D01*
X037546Y034178D02*
X037546Y033902D01*
X037477Y033833D01*
X037477Y032209D01*
X037910Y031776D01*
X037969Y031776D01*
X038757Y031776D01*
X038757Y032446D02*
X038757Y032456D01*
X037969Y032456D02*
X037969Y032446D01*
X037477Y032209D02*
X037231Y031963D01*
X036985Y031963D01*
X036985Y031973D01*
X039544Y034306D02*
X039544Y034818D01*
X039544Y034306D02*
X039672Y034178D01*
X039436Y028684D02*
X039436Y028331D01*
X039436Y028017D01*
X039436Y028331D02*
X039781Y028331D01*
X040036Y028076D01*
X040036Y025664D01*
X039643Y025270D01*
X039387Y025270D01*
X039436Y025991D02*
X039446Y026001D01*
X039446Y026206D01*
X039446Y026343D01*
X039436Y026343D01*
X039436Y027011D01*
X039436Y027664D01*
X039436Y026658D02*
X039436Y026343D01*
X038655Y020219D02*
X038479Y020219D01*
X036296Y015713D02*
X036296Y015566D01*
X036503Y015566D01*
X036788Y015280D01*
X036788Y012524D01*
X036788Y011491D01*
X038060Y010219D01*
X038655Y010219D01*
X038265Y009830D02*
X038265Y006422D01*
X038216Y006373D01*
X038117Y006373D01*
X038265Y006373D02*
X038265Y006422D01*
X036828Y008489D02*
X035907Y007569D01*
X035671Y007569D01*
X035253Y007987D01*
X035253Y008489D01*
X035253Y009835D01*
X034521Y010568D01*
X032430Y010568D01*
X032123Y010261D01*
X032123Y009965D01*
X031316Y009158D01*
X031316Y008489D01*
X032127Y009961D02*
X032123Y009965D01*
X032792Y009965D02*
X032802Y009965D01*
X032507Y012180D02*
X028914Y012180D01*
X028471Y012820D02*
X032025Y012820D01*
X032015Y012830D01*
X032015Y013017D01*
X032497Y013499D01*
X032497Y013656D01*
X031828Y013656D02*
X031383Y013656D01*
X031186Y013459D01*
X030686Y014345D02*
X030686Y014355D01*
X029849Y014355D01*
X029989Y013656D02*
X029544Y013656D01*
X029989Y013656D02*
X030186Y013459D01*
X028875Y013656D02*
X028471Y013656D01*
X028471Y014050D01*
X029446Y015024D01*
X029849Y015024D01*
X029849Y015526D01*
X029899Y015576D01*
X029849Y015024D02*
X030686Y015024D01*
X028471Y013656D02*
X028471Y012820D01*
X027667Y010272D02*
X029867Y010272D01*
X029406Y009670D02*
X029210Y009473D01*
X027979Y009473D01*
X025076Y008587D02*
X024960Y008587D01*
X024960Y007658D01*
X024460Y007658D02*
X024460Y008367D01*
X024436Y008391D01*
X025058Y008570D02*
X025076Y008587D01*
X023944Y009129D02*
X023460Y008644D01*
X023460Y007658D01*
X022446Y005950D02*
X022446Y005263D01*
X023255Y004454D01*
X021975Y007013D02*
X021975Y008341D01*
X021946Y008370D01*
X021446Y008370D02*
X021434Y008358D01*
X021434Y007456D01*
X020942Y007751D02*
X020942Y008366D01*
X020946Y008370D01*
X020446Y008370D02*
X020446Y009428D01*
X020155Y009719D01*
X019318Y009719D01*
X018678Y008981D02*
X018826Y008833D01*
X018946Y008713D01*
X018946Y008370D01*
X018678Y008981D02*
X014544Y008981D01*
X014369Y008806D01*
X014369Y008370D01*
X015369Y008370D02*
X015369Y008428D01*
X015381Y007702D01*
X015869Y007209D02*
X015869Y008370D01*
X016365Y008374D02*
X016365Y007751D01*
X016369Y008370D02*
X016365Y008374D01*
X016857Y008358D02*
X016857Y007456D01*
X016906Y007406D01*
X017399Y007013D02*
X017399Y008046D01*
X017369Y008076D01*
X017369Y008370D01*
X016869Y008370D02*
X016857Y008358D01*
X017869Y008370D02*
X017869Y008440D01*
X018137Y008440D01*
X017869Y008467D02*
X017869Y008370D01*
X019946Y008370D02*
X019946Y007887D01*
X019958Y007849D01*
X017918Y006225D02*
X017869Y006176D01*
X017869Y005950D01*
X029800Y002633D02*
X029800Y002190D01*
X029800Y002633D02*
X030981Y003814D01*
X035017Y003814D01*
X035706Y004503D01*
X035706Y006373D01*
X036332Y006908D02*
X035671Y007569D01*
X036332Y006908D02*
X036332Y004489D01*
X035312Y003469D01*
X032901Y003469D01*
X031129Y003469D01*
X030489Y002830D01*
X030489Y001780D01*
X030719Y001550D01*
X030719Y001123D01*
X030932Y000910D01*
X034320Y000910D01*
X034960Y001550D01*
X035960Y001550D02*
X036040Y001631D01*
X036040Y002977D01*
X036828Y002977D02*
X036828Y001682D01*
X036960Y001550D01*
X034623Y004257D02*
X031178Y004257D01*
X030941Y004494D01*
X031916Y002091D02*
X033245Y002091D01*
X033678Y002524D01*
X033678Y002977D01*
X031916Y002091D02*
X031719Y001894D01*
X031719Y001550D01*
X037625Y008883D02*
X037773Y008883D01*
X036788Y012426D02*
X036788Y012524D01*
X036296Y014896D02*
X036306Y015034D01*
X032694Y012820D02*
X032694Y012367D01*
X032507Y012180D01*
X031572Y019267D02*
X030981Y019857D01*
X030981Y020300D01*
X030981Y020202D01*
X031710Y020251D02*
X031719Y020251D01*
X032261Y032347D02*
X033048Y032347D01*
X033048Y032357D01*
X031072Y033489D02*
X030735Y033152D01*
X030735Y032357D01*
X028580Y034818D02*
X028580Y035211D01*
X012320Y024257D02*
X012261Y024257D01*
X011601Y024257D01*
X006749Y039434D02*
X006572Y039611D01*
X006572Y041186D01*
X006828Y041186D02*
X006828Y040103D01*
X007182Y039749D01*
X007310Y040763D02*
X007084Y040989D01*
X007084Y041186D01*
X007930Y042170D02*
X007851Y042249D01*
X006060Y042249D02*
X006060Y041186D01*
X006060Y042249D02*
X006040Y042249D01*
D62*
X020243Y034670D03*
X021680Y030654D03*
X021532Y030064D03*
X020844Y030074D03*
X020273Y029749D03*
X021631Y028272D03*
X023186Y028322D03*
X026651Y030881D03*
X019170Y024877D03*
X025716Y021038D03*
X026749Y020300D03*
X026749Y019709D03*
X027340Y019709D03*
X027340Y020300D03*
X028029Y021087D03*
X036198Y011934D03*
X037773Y008883D03*
X039200Y008883D03*
X038117Y006373D03*
X035706Y006373D03*
X034968Y005684D03*
X034623Y004257D03*
X032679Y005482D03*
X032015Y005635D03*
X031473Y005536D03*
X030932Y005339D03*
X031473Y006890D03*
X032463Y006717D03*
X033073Y007874D03*
X035204Y007342D03*
X029013Y008538D03*
X027979Y009473D03*
X027143Y008489D03*
X025076Y008587D03*
X024436Y008391D03*
X022910Y008391D03*
X022517Y009621D03*
X022812Y010064D03*
X021446Y010064D03*
X022812Y005930D03*
X018038Y005979D03*
X012527Y009522D03*
X011788Y010950D03*
X011739Y005438D03*
X011444Y018381D03*
X026109Y040231D03*
X036444Y017446D03*
X037281Y017003D03*
X037428Y017593D03*
D63*
X036296Y014887D02*
X036198Y014788D01*
X036198Y011934D01*
X028422Y014887D02*
X027340Y014887D01*
X024731Y012278D01*
X023009Y012278D01*
X019367Y022072D02*
X019406Y022111D01*
X019406Y023253D01*
X019377Y024670D02*
X019219Y024670D01*
X019377Y024670D02*
X019377Y025566D01*
X017094Y028794D02*
X015337Y028794D01*
X015125Y028582D01*
X015169Y028627D01*
X020243Y034670D02*
X020243Y035457D01*
X023993Y035457D01*
X024938Y034513D01*
X023048Y030654D02*
X021680Y030654D01*
X023048Y030654D02*
X023324Y030379D01*
X030253Y038696D02*
X030194Y038755D01*
X030253Y038696D02*
X030292Y038696D01*
D64*
X030292Y038026D02*
X030007Y038026D01*
X030292Y037967D01*
X030194Y037967D02*
X030095Y037967D01*
X030194Y037967D02*
X033072Y035089D01*
X033019Y041316D02*
X032948Y041316D01*
X032556Y041707D01*
X026454Y042052D02*
X026454Y041087D01*
X026454Y040261D02*
X026424Y040231D01*
X026109Y040231D01*
X021414Y040969D02*
X021001Y040969D01*
X018954Y040221D02*
X018471Y039739D01*
X018412Y039739D01*
X029495Y026885D02*
X029308Y026698D01*
X029308Y024434D01*
X029495Y024247D01*
X037133Y024631D02*
X037773Y025270D01*
X038068Y025270D01*
X037182Y024631D02*
X037133Y024631D01*
X039387Y025270D02*
X040135Y024522D01*
X040135Y024335D01*
X040135Y011196D01*
X038769Y009830D01*
X038265Y009830D01*
X038655Y009944D02*
X038655Y010219D01*
X038655Y009944D02*
X038657Y009924D01*
X038662Y009905D01*
X038670Y009887D01*
X038682Y009871D01*
X038696Y009857D01*
X038712Y009845D01*
X038730Y009837D01*
X038749Y009832D01*
X038769Y009830D01*
X036395Y009621D02*
X034328Y011688D01*
X034328Y013272D01*
X022271Y021181D02*
X022320Y021481D01*
X007113Y020761D02*
X007113Y015477D01*
X006127Y014491D01*
X006127Y014267D01*
X006127Y011046D01*
X005046Y009965D01*
X005046Y008587D01*
X006127Y007507D01*
X006127Y006786D01*
X004975Y005635D01*
X003275Y005635D01*
X007113Y020761D02*
X006127Y021747D01*
D65*
X011277Y024788D03*
X012846Y025797D03*
X013599Y024788D03*
X014431Y025610D03*
X013339Y027273D03*
X012335Y027244D03*
X012910Y031402D03*
X013383Y033400D03*
X012261Y034473D03*
X013403Y037633D03*
X016345Y034670D03*
X015962Y033489D03*
X015489Y033017D03*
X016867Y033135D03*
X018865Y029552D03*
X018009Y027820D03*
X018481Y027190D03*
X017094Y028794D03*
X016277Y024690D03*
X017655Y022859D03*
X016956Y022072D03*
X020371Y023883D03*
X021926Y024975D03*
X022812Y027682D03*
X023324Y030379D03*
X020686Y031835D03*
X024938Y034513D03*
X026601Y033981D03*
X027389Y033981D03*
X028619Y037770D03*
X027064Y038893D03*
X025371Y040576D03*
X024938Y040133D03*
X024466Y039690D03*
X022861Y039739D03*
X022861Y040428D03*
X022910Y041068D03*
X022910Y041806D03*
X023353Y042298D03*
X024928Y042298D03*
X025371Y041806D03*
X025371Y041215D03*
X026454Y042052D03*
X027487Y042052D03*
X030686Y040526D03*
X021001Y040969D03*
X019997Y041698D03*
X019662Y036668D03*
X010214Y038568D03*
X010214Y039404D03*
X010214Y040143D03*
X007310Y040763D03*
X019810Y017790D03*
X022320Y018036D03*
X022221Y016412D03*
X020946Y009621D03*
X019318Y009719D03*
X018826Y008833D03*
X019958Y007849D03*
X020942Y007751D03*
X021434Y007456D03*
X021975Y007013D03*
X015869Y007209D03*
X029406Y009670D03*
X029899Y010211D03*
X034328Y013942D03*
X031769Y015526D03*
X031719Y020251D03*
X030981Y020300D03*
X031031Y022957D03*
X031621Y029257D03*
X037084Y022711D03*
X038068Y025270D03*
X039446Y026206D03*
X037034Y019414D03*
X036690Y018774D03*
X038019Y015871D03*
X036395Y009621D03*
X029800Y002190D03*
D66*
X024534Y019660D02*
X024288Y019660D01*
X023452Y020448D01*
X023452Y020940D01*
X020371Y023883D02*
X019584Y024670D01*
X019466Y024670D01*
X019219Y024670D01*
X019062Y024670D01*
X019367Y022072D02*
X016956Y022072D01*
X019367Y022072D02*
X019367Y021924D01*
X019466Y021826D01*
X015936Y029469D02*
X015503Y029469D01*
X014357Y030615D01*
X012576Y030615D01*
X012182Y031009D01*
X012182Y034394D01*
X012261Y034473D01*
X010469Y035418D02*
X009131Y034080D01*
X009131Y030192D01*
X009564Y029759D01*
X011592Y029759D01*
X011995Y029759D01*
X016345Y034670D02*
X015597Y035418D01*
X010469Y035418D01*
X010109Y041658D02*
X009617Y042249D01*
X008029Y042249D01*
X027487Y042052D02*
X027586Y041954D01*
X027586Y041707D01*
X032556Y041707D01*
X030194Y038755D02*
X029288Y039660D01*
X029288Y039680D01*
X028836Y040133D01*
X028836Y040477D01*
X027586Y041707D02*
X027586Y038607D01*
X027684Y038509D01*
D67*
X024141Y032308D03*
X025076Y030536D03*
X025036Y029946D03*
X025863Y029936D03*
X026651Y029896D03*
X027536Y029650D03*
X029357Y028863D03*
X023895Y023499D03*
X019466Y021826D03*
X015100Y026634D03*
X016523Y027702D03*
X015125Y028582D03*
X015937Y029468D03*
X016710Y031717D03*
X021188Y032308D03*
X018531Y037598D03*
X018398Y038666D03*
X010529Y031853D03*
X011995Y029759D03*
X011838Y025418D03*
X010656Y025418D03*
D68*
X018816Y033637D02*
X019239Y033637D01*
X019505Y033371D01*
X019505Y028873D01*
X025125Y023253D01*
X028127Y023253D01*
X028275Y023499D02*
X028176Y023597D01*
X025223Y023597D01*
X019781Y029040D01*
X019781Y033607D01*
X019357Y034030D01*
X018816Y034030D01*
X018816Y033637D02*
X018875Y033637D01*
X024485Y028331D02*
X024682Y028528D01*
X024879Y028528D01*
X024879Y028971D01*
X029849Y027731D02*
X029849Y031619D01*
X030194Y031963D01*
X030243Y031520D02*
X030194Y031471D01*
X030194Y027731D01*
X030784Y027141D01*
X030784Y024286D01*
X030046Y023548D01*
X030046Y022515D01*
X030538Y022022D01*
X030686Y022269D02*
X030342Y022613D01*
X030342Y023400D01*
X031031Y024089D01*
X031031Y027288D01*
X030538Y027780D01*
X030538Y031176D01*
X030735Y031373D01*
X031031Y030979D02*
X031031Y027682D01*
X031326Y027387D01*
X031326Y023991D01*
X030588Y023253D01*
X030588Y022761D01*
X030834Y022515D01*
X030538Y021580D02*
X030538Y019020D01*
X030981Y018578D01*
X030981Y020152D02*
X030981Y020300D01*
X030538Y021580D02*
X029751Y022367D01*
X029751Y023696D01*
X030538Y024483D01*
X030538Y027042D01*
X029849Y027731D01*
X031031Y030979D02*
X031424Y031373D01*
X025381Y021983D02*
X025381Y021865D01*
X025814Y021432D01*
X026060Y021432D01*
X021150Y014932D02*
X021196Y014887D01*
X025371Y014887D01*
X025408Y014432D02*
X021150Y014432D01*
X022812Y010064D02*
X025223Y010064D01*
X025960Y009328D01*
X025960Y007658D01*
X026454Y007664D02*
X026454Y010950D01*
X025174Y009621D02*
X025460Y009335D01*
X025460Y007658D01*
X026454Y007664D02*
X026460Y007658D01*
X027340Y007751D02*
X027340Y007111D01*
X027143Y006914D01*
X024058Y006914D01*
X023960Y007013D01*
X023960Y007658D01*
X023607Y006668D02*
X027389Y006668D01*
X027635Y006914D01*
X027635Y007652D01*
X027881Y007898D01*
X030538Y007898D01*
X031080Y007357D01*
X032212Y007357D01*
X032232Y007337D01*
X035198Y007337D01*
X035204Y007342D01*
X034968Y005684D02*
X034968Y004749D01*
X034918Y004700D01*
X031222Y004700D01*
X031083Y004839D01*
X029798Y004839D01*
X030234Y004494D02*
X030081Y004340D01*
X029297Y004340D01*
X028798Y004839D01*
X029313Y005334D02*
X028808Y005839D01*
X028798Y005839D01*
X029313Y005334D02*
X030927Y005334D01*
X030932Y005339D01*
X030927Y005334D01*
X031298Y005761D02*
X029877Y005761D01*
X029798Y005839D01*
X030888Y006516D02*
X032310Y006516D01*
X032463Y006668D01*
X032463Y006717D01*
X031473Y006890D02*
X031006Y006890D01*
X030243Y007652D01*
X028078Y007652D01*
X027930Y007505D01*
X027930Y006668D01*
X027586Y006324D01*
X024058Y006324D01*
X023960Y006225D01*
X023960Y005238D01*
X024460Y005238D02*
X024460Y005930D01*
X024558Y006028D01*
X027782Y006028D01*
X028225Y006471D01*
X028225Y007357D01*
X028275Y007406D01*
X029997Y007406D01*
X030888Y006516D01*
X031298Y005761D02*
X031473Y005585D01*
X031473Y005536D01*
X030941Y004494D02*
X030234Y004494D01*
X030538Y004060D02*
X030538Y003794D01*
X030056Y003312D01*
X029141Y003312D01*
X028798Y003654D01*
X028798Y003839D01*
X026960Y004434D02*
X026940Y004454D01*
X023255Y004454D01*
X023460Y005238D02*
X023460Y006520D01*
X023607Y006668D01*
X022812Y005930D02*
X022466Y005930D01*
X022446Y005950D01*
X022446Y008370D02*
X022466Y008391D01*
X022910Y008391D01*
X022517Y009621D02*
X025174Y009621D01*
X027340Y007751D02*
X028816Y009227D01*
X030342Y009227D01*
X030686Y008883D01*
X030686Y008292D01*
X031178Y007800D01*
X032999Y007800D01*
X033073Y007874D01*
X029899Y010211D02*
X029899Y010241D01*
X029867Y010272D01*
X026960Y005238D02*
X026960Y005014D01*
X025042Y002831D02*
X025042Y001581D01*
X024411Y000950D01*
X020450Y000950D01*
X018481Y002918D01*
X018481Y006963D01*
X019446Y007928D01*
X019446Y008370D01*
X017743Y006619D02*
X016460Y006619D01*
X015869Y007209D01*
X014369Y005950D02*
X014369Y005656D01*
X017743Y006619D02*
X017869Y006493D01*
X017869Y006176D01*
X017869Y006099D01*
X017891Y006078D01*
X017869Y006099D02*
X017869Y005950D01*
X017898Y005979D01*
X018038Y005979D01*
X032901Y003469D02*
X032901Y002987D01*
X032891Y002977D01*
X036040Y002977D02*
X036040Y003312D01*
X037281Y004552D01*
X037281Y009373D01*
X035460Y011194D01*
X035460Y011394D02*
X035460Y014394D01*
X035012Y014842D01*
X034725Y014842D01*
X035455Y014940D02*
X035455Y015572D01*
X035455Y014940D02*
X035755Y014641D01*
X035755Y011493D01*
X035853Y011394D01*
X035853Y011194D02*
X036003Y011194D01*
X037625Y009572D01*
X037625Y008883D01*
X037625Y003774D01*
X036828Y002977D01*
X037930Y012219D02*
X038655Y012219D01*
X037930Y012219D02*
X037133Y013017D01*
X037133Y015526D01*
X036542Y016117D01*
X037330Y016362D02*
X038512Y016362D01*
X038655Y016219D01*
X038019Y015871D02*
X038019Y014855D01*
X038655Y014219D01*
X034820Y017396D02*
X034525Y017692D01*
X034525Y018479D01*
D69*
X034525Y018479D03*
X033885Y017692D03*
X034279Y016904D03*
X034279Y016363D03*
X033737Y016363D03*
X033245Y016954D03*
X032704Y017003D03*
X032162Y021186D03*
X032310Y021727D03*
X021680Y025959D03*
X021277Y026501D03*
X020253Y025517D03*
X030538Y004060D03*
D70*
X027044Y020005D02*
X027340Y020300D01*
X021926Y024975D02*
X021464Y024975D01*
X020371Y023883D01*
X016641Y026648D02*
X016523Y027692D01*
X016523Y027702D01*
X022025Y036127D02*
X019618Y038533D01*
X019618Y039080D01*
X018959Y039739D01*
X018412Y039739D01*
X014052Y039739D01*
X008029Y042249D02*
X006572Y042249D01*
X007851Y042249D01*
X006572Y042249D02*
X006040Y042249D01*
X005115Y042249D01*
X022025Y036127D02*
X025302Y036127D01*
X027684Y038509D01*
X028964Y038509D01*
X029505Y037967D01*
X030095Y037967D01*
X030292Y037967D01*
X030637Y040497D02*
X030686Y040526D01*
X030637Y040497D02*
X030962Y040477D01*
X025273Y038912D02*
X024879Y038312D01*
X025223Y037967D01*
D71*
X023599Y022859D03*
X024338Y022564D03*
X024534Y021776D03*
X024830Y021038D03*
X025076Y021038D03*
X025076Y020694D03*
X024830Y020694D03*
X024338Y020398D03*
X025076Y020005D03*
X025076Y019168D03*
X025076Y018774D03*
X024190Y018774D03*
X023599Y019365D03*
X023009Y019906D03*
X022861Y020743D03*
X022320Y021481D03*
X022271Y022121D03*
X022812Y022711D03*
X022172Y022957D03*
X026552Y021826D03*
X027192Y022416D03*
X027930Y022121D03*
X028767Y021678D03*
X028718Y021235D03*
X028964Y020841D03*
X029259Y020349D03*
X029210Y019808D03*
X029357Y019316D03*
X029653Y018528D03*
X029259Y018282D03*
X028275Y018036D03*
X031719Y016757D03*
X032851Y018233D03*
X032458Y018528D03*
X033393Y017987D03*
X031277Y021580D03*
X039544Y034818D03*
D72*
X038609Y033440D02*
X038609Y037328D01*
X039692Y038410D01*
X039692Y040221D01*
X037999Y041914D01*
X037999Y042219D01*
X037674Y042544D01*
X033393Y042544D01*
X032556Y041707D01*
X033017Y041314D02*
X033019Y041316D01*
X033072Y035089D02*
X033072Y034670D01*
X038609Y033440D02*
X039003Y033046D01*
X039840Y033046D01*
X039840Y029087D01*
X039436Y028684D01*
X040135Y024335D02*
X038452Y024335D01*
X037822Y023706D01*
X037822Y023154D01*
X037379Y022711D01*
X037084Y022711D01*
X036897Y019552D02*
X036592Y019552D01*
X036897Y019552D02*
X037034Y019414D01*
X035017Y013351D02*
X035017Y013263D01*
X029867Y008772D02*
X029632Y008538D01*
X029013Y008538D01*
X027667Y008772D02*
X027383Y008489D01*
X027143Y008489D01*
X026960Y005014D02*
X026960Y004454D01*
X026940Y004454D01*
X026960Y004434D02*
X026359Y003833D01*
X026045Y003833D01*
X026045Y003831D01*
X026042Y003831D01*
X021769Y011934D02*
X019958Y011934D01*
X017989Y009965D01*
X012969Y009965D01*
X012527Y009522D01*
X011887Y010015D02*
X011887Y005585D01*
X011739Y005438D01*
X011198Y006422D02*
X010127Y005351D01*
X010127Y001786D01*
X011198Y006422D02*
X011198Y008393D01*
X010127Y009267D01*
X010127Y012733D01*
X011149Y013755D01*
X011149Y015133D01*
X010127Y016154D01*
X010127Y016747D01*
X011444Y018381D02*
X011985Y017839D01*
X011985Y011934D01*
X012477Y011442D01*
X017399Y011442D01*
X019889Y013932D01*
X021150Y013932D01*
X021150Y013432D02*
X020078Y013432D01*
X017595Y010950D01*
X011788Y010950D01*
X012330Y010457D02*
X011887Y010015D01*
X012330Y010457D02*
X017792Y010457D01*
X020267Y012932D01*
X021150Y012932D01*
X022123Y012288D02*
X021769Y011934D01*
X022123Y012229D02*
X022123Y012288D01*
X026985Y017938D02*
X026995Y018184D01*
X030981Y020300D02*
X030981Y021333D01*
X031227Y021580D01*
X031277Y021580D01*
X030981Y020310D02*
X031040Y020251D01*
X030981Y020300D01*
X023895Y023499D02*
X021680Y023499D01*
X021582Y023400D01*
X021582Y021102D01*
X021665Y021102D01*
X022271Y020497D01*
X022271Y020005D01*
X021286Y019020D01*
X021090Y019020D01*
X021040Y019020D02*
X020834Y019020D01*
X020164Y019020D02*
X019517Y019668D01*
X019517Y020303D01*
X018517Y020303D02*
X018517Y020746D01*
X018873Y021102D01*
X021582Y021102D01*
X018737Y023253D02*
X018727Y023263D01*
X018727Y023499D01*
X018727Y024001D01*
X018727Y024670D02*
X019062Y024670D01*
X019170Y024877D02*
X019377Y024670D01*
X019466Y024670D01*
X018481Y025763D02*
X018147Y025428D01*
X018147Y025270D01*
X018147Y024788D01*
X017920Y024562D01*
X017359Y024562D01*
X017635Y025270D02*
X015981Y025270D01*
X015893Y024641D02*
X016227Y024641D01*
X016277Y024690D01*
X016365Y024601D01*
X016641Y024601D01*
X017635Y025270D02*
X017635Y025556D01*
X018009Y025930D01*
X018009Y027820D01*
X018481Y027190D02*
X018481Y025763D01*
X020893Y025959D02*
X017812Y029040D01*
X017812Y029350D01*
X018166Y029434D02*
X018166Y029557D01*
X018166Y029434D02*
X021099Y026501D01*
X021277Y026501D01*
X020893Y025959D02*
X021680Y025959D01*
X023698Y027987D02*
X023806Y027879D01*
X023698Y027987D02*
X023698Y029148D01*
X024485Y028331D02*
X024475Y027879D01*
X018038Y032505D02*
X018038Y034483D01*
X015962Y036560D01*
X010371Y036560D01*
X007182Y039749D01*
X006749Y039434D02*
X010135Y036048D01*
X015844Y036048D01*
X017595Y034296D01*
X017595Y032357D01*
X017743Y032209D01*
X015937Y029468D02*
X015936Y029469D01*
X013339Y027273D02*
X013855Y026757D01*
X013855Y026265D01*
X013855Y025635D01*
X013875Y025635D01*
X014431Y025610D02*
X014589Y025610D01*
X014790Y025408D01*
X014790Y024759D01*
X014023Y024759D02*
X013255Y024759D01*
X013570Y024759D01*
X013599Y024788D01*
X012846Y025797D02*
X012851Y026757D01*
X013344Y026265D01*
X012851Y026757D02*
X012379Y027229D01*
X012335Y027244D01*
X011985Y025418D02*
X011838Y025418D01*
X011837Y025418D02*
X011835Y025407D01*
X011831Y025398D01*
X011823Y025390D01*
X011814Y025386D01*
X011803Y025384D01*
X011592Y025384D01*
X011985Y025418D02*
X012261Y025143D01*
X012261Y024769D01*
X011601Y024769D02*
X011296Y024769D01*
X011277Y024788D01*
X011601Y024769D02*
X010952Y024769D01*
X010942Y024778D01*
X010942Y024267D02*
X010337Y024267D01*
X010322Y024281D01*
X010322Y024793D02*
X010322Y025182D01*
X010558Y025418D01*
X010656Y025418D01*
X011045Y025418D01*
X011080Y025384D01*
X012910Y031402D02*
X012889Y031424D01*
X012889Y032198D01*
X013389Y032198D02*
X013389Y033394D01*
X013383Y033400D01*
X018531Y037180D02*
X018816Y037180D01*
X018531Y037180D02*
X018531Y037598D01*
X023698Y038912D02*
X023698Y039542D01*
X024879Y038912D02*
X025273Y038912D01*
X025666Y038912D01*
X026847Y038912D02*
X026867Y038893D01*
X027064Y038893D01*
X017891Y006078D02*
X017891Y003898D01*
X017824Y003831D01*
D73*
X010735Y026648D02*
X010622Y026648D01*
X007812Y029458D01*
X007812Y035359D01*
X008481Y036028D01*
X010214Y038568D02*
X010214Y041652D01*
X010109Y041658D01*
X010529Y031853D02*
X010529Y031176D01*
X010735Y030979D01*
D74*
X010794Y028243D02*
X013486Y028243D01*
X014579Y027150D01*
X014584Y027150D01*
X015100Y026634D01*
X010783Y026696D02*
X010783Y027433D01*
X010794Y028243D01*
X010783Y026696D02*
X010781Y026684D01*
X010777Y026672D01*
X010769Y026662D01*
X010759Y026654D01*
X010747Y026650D01*
X010735Y026648D01*
X016641Y030979D02*
X016729Y031550D01*
X016710Y031717D01*
X013403Y037633D02*
X013403Y039089D01*
X014052Y039739D01*
X026857Y026885D02*
X026306Y026333D01*
X026306Y025566D01*
X026306Y024798D01*
X026857Y024247D01*
D75*
X026257Y018233D03*
X026995Y018184D03*
D76*
X027300Y028292D02*
X025922Y028292D01*
X025666Y028548D01*
X025666Y029148D01*
X025273Y029148D02*
X025273Y029709D01*
X025036Y029946D01*
X025863Y029936D02*
X026060Y029739D01*
X026060Y029148D01*
X026454Y029148D02*
X026454Y029700D01*
X026651Y029896D01*
X027536Y029650D02*
X027536Y028528D01*
X027300Y028292D01*
X021336Y039454D02*
X021336Y040221D01*
X021414Y040300D01*
X020253Y040704D02*
X019840Y040290D01*
X019544Y040290D01*
X019032Y040290D02*
X018964Y040221D01*
X018954Y040221D01*
X020253Y041530D02*
X020086Y041698D01*
X019997Y041698D01*
D77*
X023698Y040024D02*
X023698Y039542D01*
X023698Y040024D02*
X024042Y040369D01*
X024042Y040763D01*
D78*
X023452Y021028D02*
X023452Y020940D01*
M02*
