%
M48
M72
T01C0.0118
T02C0.0157
T03C0.0197
T04C0.0236
T05C0.0240
T06C0.0276
T07C0.0315
T08C0.0320
T09C0.0335
T10C0.0354
T11C0.0394
T12C0.0400
T13C0.0630
T14C0.0650
T15C0.1181
T16C0.1260
%
T01
X32745Y17349
X33877Y18826
X33483Y19121
X34418Y18580
X32302Y22172
X30284Y20942
X30235Y20400
X30383Y19908
X30678Y19121
X30284Y18875
X29300Y18629
X28020Y18776
X27282Y18826
X26101Y19367
X26101Y19761
X26101Y20597
X26101Y21286
X25855Y21286
X25855Y21631
X26101Y21631
X25560Y22369
X25363Y23156
X24625Y23452
X23837Y23304
X23198Y23550
X23296Y22713
X23345Y22074
X23887Y21335
X24034Y20499
X24625Y19957
X25215Y19367
X25363Y20991
X27578Y22418
X28217Y23009
X28956Y22713
X29792Y22270
X29743Y21828
X29989Y21434
X40570Y35410
T02
X31564Y4652
X34763Y16956
X34270Y17546
X33729Y17595
X34910Y18284
X35304Y17497
X35304Y16956
X35550Y19072
X33188Y21778
X33335Y22320
X30383Y29456
X28562Y30243
X27676Y30489
X26889Y30528
X26062Y30538
X26101Y31129
X25166Y32900
X22213Y32900
X20688Y37359
X19457Y38584
X19423Y39259
X11554Y32446
X16150Y29175
X17548Y28294
X16126Y27226
X12863Y26011
X11682Y26011
X20491Y22418
X21278Y26109
X22302Y27093
X22706Y26552
X24920Y24091
T03
X37853Y3570
X37066Y3570
X36278Y3570
X35491Y3570
X34704Y3570
X33916Y3570
X33129Y3570
X32341Y3570
X30826Y2782
X31957Y5932
X32499Y6129
X33040Y6227
X33705Y6075
X33488Y7310
X32499Y7482
X32341Y9081
X33129Y9081
X33916Y9081
X34098Y8466
X34704Y9081
X35491Y9081
X36278Y9081
X37066Y9081
X37853Y9081
X38798Y9475
X40225Y9475
X39143Y6965
X36731Y6965
X35993Y6276
X35648Y4849
X36229Y7935
X37420Y10213
X37223Y12526
X35353Y14534
X32794Y16119
X32745Y20843
X32007Y20893
X32056Y23550
X29054Y21680
X28365Y20893
X27774Y20893
X27774Y20302
X28365Y20302
X26741Y21631
X23345Y18629
X23247Y17005
X20835Y18383
X17981Y22664
X18680Y23452
X17302Y25282
X15456Y26203
X14625Y25381
X13872Y26390
X13360Y27836
X14364Y27866
X12302Y25381
X17017Y30164
X18119Y29387
X19034Y28412
X19507Y27782
X20196Y25469
X21396Y24475
X22952Y25568
X23837Y28274
X24211Y28914
X22656Y28865
X22558Y30656
X21869Y30666
X21249Y30587
X22706Y31247
X21711Y32428
X24349Y30971
X27676Y31473
X27627Y34574
X28414Y34574
X25963Y35105
X21918Y36837
X23887Y40331
X23887Y41020
X23936Y41660
X23936Y42398
X24379Y42891
X25954Y42891
X26396Y42398
X26396Y41808
X26396Y41168
X25963Y40725
X25491Y40282
X27135Y40824
X28089Y39485
X29644Y38363
X31711Y41119
X28513Y42644
X27479Y42644
X22026Y41562
X21022Y42290
X14428Y38225
X17371Y35263
X16987Y34081
X16515Y33609
X17893Y33727
X17538Y32211
X14408Y33993
X13936Y31995
X11239Y39160
X11239Y39997
X11239Y40735
X8335Y41355
X12469Y18973
X12814Y11542
X13552Y10115
X16894Y7802
X19064Y6572
X20983Y8442
X21967Y8343
X22459Y8048
X23001Y7605
X23837Y6522
X23936Y8983
X23542Y10213
X23837Y10656
X22471Y10656
X21971Y10213
X20343Y10312
X19851Y9426
X25461Y8983
X26101Y9180
X28168Y9081
X29005Y10066
X30038Y9131
X30432Y10263
X30924Y10804
X37469Y18038
X38306Y17595
X38454Y18186
X37715Y19367
X38060Y20007
X38109Y23304
X39093Y25863
X40471Y26798
X32646Y29849
X39044Y16463
X12765Y6030
T04
X33828Y10558
X36042Y13855
X37322Y15479
X37814Y13117
X31711Y14938
X29448Y15479
X29497Y13412
X29940Y12772
X24969Y9721
X24034Y12871
X23050Y14495
X20196Y14593
X19704Y16857
X19015Y18038
X16554Y13511
X16948Y10066
X17391Y8343
X17932Y7999
X18424Y7605
X19162Y9032
X16406Y8294
X32991Y26011
X35107Y25371
X35796Y25371
X35796Y23255
X35402Y22123
X36190Y22123
X36485Y21581
X36190Y21040
X36534Y20499
X34959Y21089
X34566Y21581
X34713Y20499
X38158Y24091
X38158Y25223
X37026Y27684
X36288Y27684
X37568Y29013
X37519Y31080
X38995Y31326
X39782Y31572
X39782Y33048
X38995Y33048
X38011Y32556
X36977Y34721
X35796Y34721
X34074Y32950
X32450Y32950
X31761Y32950
X31761Y31965
X32450Y31965
X34270Y30784
X26249Y38560
X30314Y40272
X19802Y30587
X15225Y30489
X11780Y34081
T05
X35369Y23993
X33369Y23993
T06
X26117Y16463
X24117Y16463
T07
X39680Y10812
X39680Y11812
X39680Y12812
X39680Y13812
X39680Y14812
X39680Y15812
X39680Y16812
X39680Y17812
X39680Y18812
X39680Y19812
X39680Y20812
X39680Y21812
X39680Y22812
X39680Y23812
X22542Y20895
X21542Y20895
X20542Y20895
X19542Y20895
X14107Y18812
X14107Y17812
X14107Y16812
X14107Y15812
X7450Y25046
X5481Y25046
X3434Y36621
X9497Y36621
T08
X32211Y14052
X31211Y14052
X10456Y14844
X10417Y17320
X10417Y22320
X4751Y16020
X3751Y16020
X3761Y12300
X4761Y12300
X4751Y8589
X3751Y8589
X10452Y7349
X10456Y9844
X10452Y2349
T09
X8345Y41975
X6849Y41975
T10
X37784Y37078
X36784Y37078
X35784Y37078
X34784Y37078
X35284Y38078
X36284Y38078
X37284Y38078
X38284Y38078
T11
X11172Y2300
X7172Y2300
X7172Y7300
X7172Y9879
X11172Y9879
X11172Y7300
X11172Y14879
X11172Y17457
X7172Y17457
X7172Y14879
X7172Y22457
X11172Y22457
X34044Y41908
X35044Y42507
X38024Y41908
X39024Y42507
T12
X37985Y2143
X36985Y2143
X35985Y2143
X34985Y2143
X33745Y2143
X32745Y2143
X31745Y2143
X30824Y4432
X30824Y5432
X29824Y5432
X29824Y4432
X29824Y6432
X30824Y6432
X30824Y7432
X29824Y7432
X27068Y4424
X27068Y3424
X26068Y3424
X26068Y4424
X25068Y4424
X25068Y3424
X24068Y3424
X24068Y4424
X23068Y4424
X23068Y3424
X18849Y3424
X17849Y3424
X16849Y3424
X16849Y4424
X17849Y4424
X18849Y4424
X15849Y4424
X14849Y4424
X14849Y3424
X15849Y3424
X27883Y24839
X27331Y26158
X27883Y27477
X30520Y27477
X31072Y26158
X30520Y24839
X31097Y34081
X32097Y34081
X33097Y34081
X33097Y35263
X32097Y35263
X31097Y35263
X34097Y35263
X34097Y34081
T13
X39635Y39377
X33434Y39377
T14
X4300Y6227
X4300Y9967
X4300Y13707
X4300Y17448
T15
X40668Y2093
X29202Y26158
X40668Y42349
X4054Y42349
X4054Y2093
T16
X38784Y40578
X34284Y40578
M30
