G75*
G70*
%OFA0B0*%
%FSLAX24Y24*%
%IPPOS*%
%LPD*%
%AMOC8*
5,1,8,0,0,1.08239X$1,22.5*
%
%ADD10C,0.0000*%
%ADD11C,0.0660*%
D10*
X002971Y001207D02*
X041554Y001207D01*
X041554Y043333D01*
X002971Y043333D01*
X002971Y001207D01*
X003463Y002093D02*
X003465Y002141D01*
X003471Y002189D01*
X003481Y002236D01*
X003494Y002282D01*
X003512Y002327D01*
X003532Y002371D01*
X003557Y002413D01*
X003585Y002452D01*
X003615Y002489D01*
X003649Y002523D01*
X003686Y002555D01*
X003724Y002584D01*
X003765Y002609D01*
X003808Y002631D01*
X003853Y002649D01*
X003899Y002663D01*
X003946Y002674D01*
X003994Y002681D01*
X004042Y002684D01*
X004090Y002683D01*
X004138Y002678D01*
X004186Y002669D01*
X004232Y002657D01*
X004277Y002640D01*
X004321Y002620D01*
X004363Y002597D01*
X004403Y002570D01*
X004441Y002540D01*
X004476Y002507D01*
X004508Y002471D01*
X004538Y002433D01*
X004564Y002392D01*
X004586Y002349D01*
X004606Y002305D01*
X004621Y002260D01*
X004633Y002213D01*
X004641Y002165D01*
X004645Y002117D01*
X004645Y002069D01*
X004641Y002021D01*
X004633Y001973D01*
X004621Y001926D01*
X004606Y001881D01*
X004586Y001837D01*
X004564Y001794D01*
X004538Y001753D01*
X004508Y001715D01*
X004476Y001679D01*
X004441Y001646D01*
X004403Y001616D01*
X004363Y001589D01*
X004321Y001566D01*
X004277Y001546D01*
X004232Y001529D01*
X004186Y001517D01*
X004138Y001508D01*
X004090Y001503D01*
X004042Y001502D01*
X003994Y001505D01*
X003946Y001512D01*
X003899Y001523D01*
X003853Y001537D01*
X003808Y001555D01*
X003765Y001577D01*
X003724Y001602D01*
X003686Y001631D01*
X003649Y001663D01*
X003615Y001697D01*
X003585Y001734D01*
X003557Y001773D01*
X003532Y001815D01*
X003512Y001859D01*
X003494Y001904D01*
X003481Y001950D01*
X003471Y001997D01*
X003465Y002045D01*
X003463Y002093D01*
X028611Y026158D02*
X028613Y026206D01*
X028619Y026254D01*
X028629Y026301D01*
X028642Y026347D01*
X028660Y026392D01*
X028680Y026436D01*
X028705Y026478D01*
X028733Y026517D01*
X028763Y026554D01*
X028797Y026588D01*
X028834Y026620D01*
X028872Y026649D01*
X028913Y026674D01*
X028956Y026696D01*
X029001Y026714D01*
X029047Y026728D01*
X029094Y026739D01*
X029142Y026746D01*
X029190Y026749D01*
X029238Y026748D01*
X029286Y026743D01*
X029334Y026734D01*
X029380Y026722D01*
X029425Y026705D01*
X029469Y026685D01*
X029511Y026662D01*
X029551Y026635D01*
X029589Y026605D01*
X029624Y026572D01*
X029656Y026536D01*
X029686Y026498D01*
X029712Y026457D01*
X029734Y026414D01*
X029754Y026370D01*
X029769Y026325D01*
X029781Y026278D01*
X029789Y026230D01*
X029793Y026182D01*
X029793Y026134D01*
X029789Y026086D01*
X029781Y026038D01*
X029769Y025991D01*
X029754Y025946D01*
X029734Y025902D01*
X029712Y025859D01*
X029686Y025818D01*
X029656Y025780D01*
X029624Y025744D01*
X029589Y025711D01*
X029551Y025681D01*
X029511Y025654D01*
X029469Y025631D01*
X029425Y025611D01*
X029380Y025594D01*
X029334Y025582D01*
X029286Y025573D01*
X029238Y025568D01*
X029190Y025567D01*
X029142Y025570D01*
X029094Y025577D01*
X029047Y025588D01*
X029001Y025602D01*
X028956Y025620D01*
X028913Y025642D01*
X028872Y025667D01*
X028834Y025696D01*
X028797Y025728D01*
X028763Y025762D01*
X028733Y025799D01*
X028705Y025838D01*
X028680Y025880D01*
X028660Y025924D01*
X028642Y025969D01*
X028629Y026015D01*
X028619Y026062D01*
X028613Y026110D01*
X028611Y026158D01*
X033654Y040578D02*
X033656Y040628D01*
X033662Y040678D01*
X033672Y040727D01*
X033686Y040775D01*
X033703Y040822D01*
X033724Y040867D01*
X033749Y040911D01*
X033777Y040952D01*
X033809Y040991D01*
X033843Y041028D01*
X033880Y041062D01*
X033920Y041092D01*
X033962Y041119D01*
X034006Y041143D01*
X034052Y041164D01*
X034099Y041180D01*
X034147Y041193D01*
X034197Y041202D01*
X034246Y041207D01*
X034297Y041208D01*
X034347Y041205D01*
X034396Y041198D01*
X034445Y041187D01*
X034493Y041172D01*
X034539Y041154D01*
X034584Y041132D01*
X034627Y041106D01*
X034668Y041077D01*
X034707Y041045D01*
X034743Y041010D01*
X034775Y040972D01*
X034805Y040932D01*
X034832Y040889D01*
X034855Y040845D01*
X034874Y040799D01*
X034890Y040751D01*
X034902Y040702D01*
X034910Y040653D01*
X034914Y040603D01*
X034914Y040553D01*
X034910Y040503D01*
X034902Y040454D01*
X034890Y040405D01*
X034874Y040357D01*
X034855Y040311D01*
X034832Y040267D01*
X034805Y040224D01*
X034775Y040184D01*
X034743Y040146D01*
X034707Y040111D01*
X034668Y040079D01*
X034627Y040050D01*
X034584Y040024D01*
X034539Y040002D01*
X034493Y039984D01*
X034445Y039969D01*
X034396Y039958D01*
X034347Y039951D01*
X034297Y039948D01*
X034246Y039949D01*
X034197Y039954D01*
X034147Y039963D01*
X034099Y039976D01*
X034052Y039992D01*
X034006Y040013D01*
X033962Y040037D01*
X033920Y040064D01*
X033880Y040094D01*
X033843Y040128D01*
X033809Y040165D01*
X033777Y040204D01*
X033749Y040245D01*
X033724Y040289D01*
X033703Y040334D01*
X033686Y040381D01*
X033672Y040429D01*
X033662Y040478D01*
X033656Y040528D01*
X033654Y040578D01*
X038154Y040578D02*
X038156Y040628D01*
X038162Y040678D01*
X038172Y040727D01*
X038186Y040775D01*
X038203Y040822D01*
X038224Y040867D01*
X038249Y040911D01*
X038277Y040952D01*
X038309Y040991D01*
X038343Y041028D01*
X038380Y041062D01*
X038420Y041092D01*
X038462Y041119D01*
X038506Y041143D01*
X038552Y041164D01*
X038599Y041180D01*
X038647Y041193D01*
X038697Y041202D01*
X038746Y041207D01*
X038797Y041208D01*
X038847Y041205D01*
X038896Y041198D01*
X038945Y041187D01*
X038993Y041172D01*
X039039Y041154D01*
X039084Y041132D01*
X039127Y041106D01*
X039168Y041077D01*
X039207Y041045D01*
X039243Y041010D01*
X039275Y040972D01*
X039305Y040932D01*
X039332Y040889D01*
X039355Y040845D01*
X039374Y040799D01*
X039390Y040751D01*
X039402Y040702D01*
X039410Y040653D01*
X039414Y040603D01*
X039414Y040553D01*
X039410Y040503D01*
X039402Y040454D01*
X039390Y040405D01*
X039374Y040357D01*
X039355Y040311D01*
X039332Y040267D01*
X039305Y040224D01*
X039275Y040184D01*
X039243Y040146D01*
X039207Y040111D01*
X039168Y040079D01*
X039127Y040050D01*
X039084Y040024D01*
X039039Y040002D01*
X038993Y039984D01*
X038945Y039969D01*
X038896Y039958D01*
X038847Y039951D01*
X038797Y039948D01*
X038746Y039949D01*
X038697Y039954D01*
X038647Y039963D01*
X038599Y039976D01*
X038552Y039992D01*
X038506Y040013D01*
X038462Y040037D01*
X038420Y040064D01*
X038380Y040094D01*
X038343Y040128D01*
X038309Y040165D01*
X038277Y040204D01*
X038249Y040245D01*
X038224Y040289D01*
X038203Y040334D01*
X038186Y040381D01*
X038172Y040429D01*
X038162Y040478D01*
X038156Y040528D01*
X038154Y040578D01*
X040077Y042349D02*
X040079Y042397D01*
X040085Y042445D01*
X040095Y042492D01*
X040108Y042538D01*
X040126Y042583D01*
X040146Y042627D01*
X040171Y042669D01*
X040199Y042708D01*
X040229Y042745D01*
X040263Y042779D01*
X040300Y042811D01*
X040338Y042840D01*
X040379Y042865D01*
X040422Y042887D01*
X040467Y042905D01*
X040513Y042919D01*
X040560Y042930D01*
X040608Y042937D01*
X040656Y042940D01*
X040704Y042939D01*
X040752Y042934D01*
X040800Y042925D01*
X040846Y042913D01*
X040891Y042896D01*
X040935Y042876D01*
X040977Y042853D01*
X041017Y042826D01*
X041055Y042796D01*
X041090Y042763D01*
X041122Y042727D01*
X041152Y042689D01*
X041178Y042648D01*
X041200Y042605D01*
X041220Y042561D01*
X041235Y042516D01*
X041247Y042469D01*
X041255Y042421D01*
X041259Y042373D01*
X041259Y042325D01*
X041255Y042277D01*
X041247Y042229D01*
X041235Y042182D01*
X041220Y042137D01*
X041200Y042093D01*
X041178Y042050D01*
X041152Y042009D01*
X041122Y041971D01*
X041090Y041935D01*
X041055Y041902D01*
X041017Y041872D01*
X040977Y041845D01*
X040935Y041822D01*
X040891Y041802D01*
X040846Y041785D01*
X040800Y041773D01*
X040752Y041764D01*
X040704Y041759D01*
X040656Y041758D01*
X040608Y041761D01*
X040560Y041768D01*
X040513Y041779D01*
X040467Y041793D01*
X040422Y041811D01*
X040379Y041833D01*
X040338Y041858D01*
X040300Y041887D01*
X040263Y041919D01*
X040229Y041953D01*
X040199Y041990D01*
X040171Y042029D01*
X040146Y042071D01*
X040126Y042115D01*
X040108Y042160D01*
X040095Y042206D01*
X040085Y042253D01*
X040079Y042301D01*
X040077Y042349D01*
X003463Y042349D02*
X003465Y042397D01*
X003471Y042445D01*
X003481Y042492D01*
X003494Y042538D01*
X003512Y042583D01*
X003532Y042627D01*
X003557Y042669D01*
X003585Y042708D01*
X003615Y042745D01*
X003649Y042779D01*
X003686Y042811D01*
X003724Y042840D01*
X003765Y042865D01*
X003808Y042887D01*
X003853Y042905D01*
X003899Y042919D01*
X003946Y042930D01*
X003994Y042937D01*
X004042Y042940D01*
X004090Y042939D01*
X004138Y042934D01*
X004186Y042925D01*
X004232Y042913D01*
X004277Y042896D01*
X004321Y042876D01*
X004363Y042853D01*
X004403Y042826D01*
X004441Y042796D01*
X004476Y042763D01*
X004508Y042727D01*
X004538Y042689D01*
X004564Y042648D01*
X004586Y042605D01*
X004606Y042561D01*
X004621Y042516D01*
X004633Y042469D01*
X004641Y042421D01*
X004645Y042373D01*
X004645Y042325D01*
X004641Y042277D01*
X004633Y042229D01*
X004621Y042182D01*
X004606Y042137D01*
X004586Y042093D01*
X004564Y042050D01*
X004538Y042009D01*
X004508Y041971D01*
X004476Y041935D01*
X004441Y041902D01*
X004403Y041872D01*
X004363Y041845D01*
X004321Y041822D01*
X004277Y041802D01*
X004232Y041785D01*
X004186Y041773D01*
X004138Y041764D01*
X004090Y041759D01*
X004042Y041758D01*
X003994Y041761D01*
X003946Y041768D01*
X003899Y041779D01*
X003853Y041793D01*
X003808Y041811D01*
X003765Y041833D01*
X003724Y041858D01*
X003686Y041887D01*
X003649Y041919D01*
X003615Y041953D01*
X003585Y041990D01*
X003557Y042029D01*
X003532Y042071D01*
X003512Y042115D01*
X003494Y042160D01*
X003481Y042206D01*
X003471Y042253D01*
X003465Y042301D01*
X003463Y042349D01*
X040077Y002093D02*
X040079Y002141D01*
X040085Y002189D01*
X040095Y002236D01*
X040108Y002282D01*
X040126Y002327D01*
X040146Y002371D01*
X040171Y002413D01*
X040199Y002452D01*
X040229Y002489D01*
X040263Y002523D01*
X040300Y002555D01*
X040338Y002584D01*
X040379Y002609D01*
X040422Y002631D01*
X040467Y002649D01*
X040513Y002663D01*
X040560Y002674D01*
X040608Y002681D01*
X040656Y002684D01*
X040704Y002683D01*
X040752Y002678D01*
X040800Y002669D01*
X040846Y002657D01*
X040891Y002640D01*
X040935Y002620D01*
X040977Y002597D01*
X041017Y002570D01*
X041055Y002540D01*
X041090Y002507D01*
X041122Y002471D01*
X041152Y002433D01*
X041178Y002392D01*
X041200Y002349D01*
X041220Y002305D01*
X041235Y002260D01*
X041247Y002213D01*
X041255Y002165D01*
X041259Y002117D01*
X041259Y002069D01*
X041255Y002021D01*
X041247Y001973D01*
X041235Y001926D01*
X041220Y001881D01*
X041200Y001837D01*
X041178Y001794D01*
X041152Y001753D01*
X041122Y001715D01*
X041090Y001679D01*
X041055Y001646D01*
X041017Y001616D01*
X040977Y001589D01*
X040935Y001566D01*
X040891Y001546D01*
X040846Y001529D01*
X040800Y001517D01*
X040752Y001508D01*
X040704Y001503D01*
X040656Y001502D01*
X040608Y001505D01*
X040560Y001512D01*
X040513Y001523D01*
X040467Y001537D01*
X040422Y001555D01*
X040379Y001577D01*
X040338Y001602D01*
X040300Y001631D01*
X040263Y001663D01*
X040229Y001697D01*
X040199Y001734D01*
X040171Y001773D01*
X040146Y001815D01*
X040126Y001859D01*
X040108Y001904D01*
X040095Y001950D01*
X040085Y001997D01*
X040079Y002045D01*
X040077Y002093D01*
D11*
X009270Y016956D02*
X009270Y025125D01*
X009270Y026503D02*
X003906Y026503D01*
X008877Y015233D02*
X008877Y009672D01*
X008877Y007753D02*
X008877Y002339D01*
M02*
