G75*
G70*
%OFA0B0*%
%FSLAX24Y24*%
%IPPOS*%
%LPD*%
%AMOC8*
5,1,8,0,0,1.08239X$1,22.5*
%
%ADD10R,0.0394X0.0433*%
%ADD11R,0.0433X0.0394*%
%ADD12R,0.1378X0.0630*%
%ADD13C,0.0594*%
%ADD14C,0.0945*%
%ADD15C,0.0554*%
%ADD16R,0.0425X0.0413*%
%ADD17C,0.0440*%
%ADD18R,0.0551X0.0394*%
%ADD19C,0.0650*%
%ADD20C,0.0600*%
%ADD21R,0.0630X0.1378*%
%ADD22R,0.0394X0.0551*%
%ADD23OC8,0.0600*%
%ADD24R,0.0354X0.0276*%
%ADD25C,0.0740*%
%ADD26R,0.1250X0.1250*%
%ADD27C,0.0787*%
%ADD28C,0.0660*%
%ADD29C,0.0397*%
%ADD30R,0.0260X0.0800*%
%ADD31C,0.0760*%
%ADD32OC8,0.0520*%
%ADD33C,0.0974*%
%ADD34C,0.0515*%
%ADD35R,0.0515X0.0515*%
%ADD36R,0.0276X0.0354*%
%ADD37R,0.0512X0.0591*%
%ADD38C,0.0515*%
%ADD39R,0.0315X0.1496*%
%ADD40R,0.3543X0.1260*%
%ADD41OC8,0.0700*%
%ADD42OC8,0.0396*%
%ADD43C,0.0357*%
%ADD44C,0.0396*%
%ADD45OC8,0.0317*%
%ADD46OC8,0.0278*%
%ADD47OC8,0.0357*%
%ADD48C,0.0278*%
%ADD49C,0.0317*%
D10*
X026249Y006139D03*
X026249Y006808D03*
X027036Y006808D03*
X027036Y006139D03*
X027824Y006139D03*
X027824Y006808D03*
X028616Y006311D03*
X028616Y005642D03*
X038454Y011158D03*
X038454Y011828D03*
X036475Y023255D03*
X035806Y023255D03*
X034507Y023894D03*
X033837Y023894D03*
X026052Y030499D03*
X026052Y031168D03*
X025215Y031168D03*
X025215Y030499D03*
X017661Y030164D03*
X017661Y029495D03*
X017582Y030878D03*
X017582Y031547D03*
X016844Y031532D03*
X016844Y030863D03*
X019266Y039761D03*
X019935Y039761D03*
X027735Y042644D03*
X028404Y042644D03*
D11*
X029497Y042585D03*
X029497Y041916D03*
X030481Y041916D03*
X030481Y042585D03*
X028562Y031168D03*
X028562Y030499D03*
X027725Y030499D03*
X027725Y031168D03*
X026889Y031168D03*
X026889Y030499D03*
X030333Y026198D03*
X030333Y025528D03*
X033837Y023107D03*
X034507Y023107D03*
X038070Y020007D03*
X038739Y020007D03*
X038247Y018826D03*
X037578Y018826D03*
X025599Y015676D03*
X024930Y015676D03*
X024418Y015676D03*
X023749Y015676D03*
X012558Y005883D03*
X011889Y005883D03*
X011889Y004800D03*
X012558Y004800D03*
X012558Y003914D03*
X011889Y003914D03*
X011741Y011394D03*
X012410Y011394D03*
X012410Y012330D03*
X011741Y012330D03*
X011741Y013314D03*
X012410Y013314D03*
X012213Y019219D03*
X011544Y019219D03*
X011544Y020105D03*
X012213Y020105D03*
X012213Y020991D03*
X011544Y020991D03*
X019113Y041847D03*
X019113Y042517D03*
D12*
X029615Y039347D03*
X031741Y039347D03*
X035078Y026207D03*
X037204Y026207D03*
D13*
X038024Y041908D03*
X039024Y042507D03*
X035044Y042507D03*
X034044Y041908D03*
D14*
X033434Y039377D03*
X039635Y039377D03*
D15*
X038284Y038078D03*
X037284Y038078D03*
X036284Y038078D03*
X035284Y038078D03*
X034784Y037078D03*
X035784Y037078D03*
X036784Y037078D03*
X037784Y037078D03*
D16*
X018148Y032910D03*
X018148Y032221D03*
X017361Y032221D03*
X017361Y032910D03*
D17*
X033369Y024213D02*
X033369Y023773D01*
X035369Y023773D02*
X035369Y024213D01*
D18*
X028099Y041089D03*
X028099Y041837D03*
X027233Y041463D03*
X020727Y042231D03*
X019861Y041857D03*
X019861Y042605D03*
D19*
X024117Y016463D03*
X026117Y016463D03*
D20*
X027883Y024839D03*
X027331Y026158D03*
X027883Y027477D03*
X030520Y027477D03*
X031072Y026158D03*
X030520Y024839D03*
X031097Y034081D03*
X032097Y034081D03*
X032097Y035263D03*
X031097Y035263D03*
X033097Y035263D03*
X034097Y035263D03*
X034097Y034081D03*
X033097Y034081D03*
X032745Y002143D03*
X033745Y002143D03*
X034985Y002143D03*
X035985Y002143D03*
X036985Y002143D03*
X037985Y002143D03*
X031745Y002143D03*
D21*
X021278Y023914D03*
X021278Y026040D03*
D22*
X020963Y038899D03*
X020589Y039766D03*
X021337Y039766D03*
D23*
X029824Y007776D03*
X030824Y007776D03*
X030824Y006776D03*
X030824Y005776D03*
X030824Y004776D03*
X029824Y004776D03*
X029824Y005776D03*
X029824Y006776D03*
X027068Y004424D03*
X027068Y003424D03*
X026068Y003424D03*
X026068Y004424D03*
X025068Y004424D03*
X025068Y003424D03*
X024068Y003424D03*
X024068Y004424D03*
X023068Y004424D03*
X023068Y003424D03*
X018849Y003424D03*
X018849Y004424D03*
X017849Y004424D03*
X016849Y004424D03*
X016849Y003424D03*
X017849Y003424D03*
X015849Y003424D03*
X014849Y003424D03*
X014849Y004424D03*
X015849Y004424D03*
D24*
X029251Y021129D03*
X029251Y021641D03*
X016982Y029460D03*
X016982Y029972D03*
D25*
X028168Y003574D03*
X028168Y001794D03*
X030728Y001794D03*
X030728Y003574D03*
D26*
X027922Y010165D03*
X027922Y016365D03*
D27*
X027528Y013265D02*
X027530Y013304D01*
X027536Y013343D01*
X027546Y013381D01*
X027559Y013418D01*
X027576Y013453D01*
X027596Y013487D01*
X027620Y013518D01*
X027647Y013547D01*
X027676Y013573D01*
X027708Y013596D01*
X027742Y013616D01*
X027778Y013632D01*
X027815Y013644D01*
X027854Y013653D01*
X027893Y013658D01*
X027932Y013659D01*
X027971Y013656D01*
X028010Y013649D01*
X028047Y013638D01*
X028084Y013624D01*
X028119Y013606D01*
X028152Y013585D01*
X028183Y013560D01*
X028211Y013533D01*
X028236Y013503D01*
X028258Y013470D01*
X028277Y013436D01*
X028292Y013400D01*
X028304Y013362D01*
X028312Y013324D01*
X028316Y013285D01*
X028316Y013245D01*
X028312Y013206D01*
X028304Y013168D01*
X028292Y013130D01*
X028277Y013094D01*
X028258Y013060D01*
X028236Y013027D01*
X028211Y012997D01*
X028183Y012970D01*
X028152Y012945D01*
X028119Y012924D01*
X028084Y012906D01*
X028047Y012892D01*
X028010Y012881D01*
X027971Y012874D01*
X027932Y012871D01*
X027893Y012872D01*
X027854Y012877D01*
X027815Y012886D01*
X027778Y012898D01*
X027742Y012914D01*
X027708Y012934D01*
X027676Y012957D01*
X027647Y012983D01*
X027620Y013012D01*
X027596Y013043D01*
X027576Y013077D01*
X027559Y013112D01*
X027546Y013149D01*
X027536Y013187D01*
X027530Y013226D01*
X027528Y013265D01*
D28*
X031211Y014052D03*
X032211Y014052D03*
D29*
X032341Y009478D02*
X032341Y009081D01*
X033129Y009081D02*
X033129Y009478D01*
X033916Y009478D02*
X033916Y009081D01*
X034704Y009081D02*
X034704Y009478D01*
X035491Y009478D02*
X035491Y009081D01*
X036278Y009081D02*
X036278Y009478D01*
X037066Y009478D02*
X037066Y009081D01*
X037853Y009081D02*
X037853Y009478D01*
X037853Y003570D02*
X037853Y003173D01*
X037066Y003173D02*
X037066Y003570D01*
X036278Y003570D02*
X036278Y003173D01*
X035491Y003173D02*
X035491Y003570D01*
X034704Y003570D02*
X034704Y003173D01*
X033916Y003173D02*
X033916Y003570D01*
X033129Y003570D02*
X033129Y003173D01*
X032341Y003173D02*
X032341Y003570D01*
D30*
X032495Y005588D03*
X031995Y005588D03*
X032995Y005588D03*
X033495Y005588D03*
X034652Y005509D03*
X035152Y005509D03*
X035652Y005509D03*
X036152Y005509D03*
X036152Y007929D03*
X035652Y007929D03*
X035152Y007929D03*
X034652Y007929D03*
X033495Y008008D03*
X032995Y008008D03*
X032495Y008008D03*
X031995Y008008D03*
D31*
X011172Y007300D03*
X011172Y009879D03*
X007172Y009879D03*
X007172Y007300D03*
X007172Y002300D03*
X011172Y002300D03*
X011172Y014879D03*
X011172Y017457D03*
X007172Y017457D03*
X007172Y014879D03*
X007172Y022457D03*
X011172Y022457D03*
D32*
X010417Y022320D03*
X010417Y017320D03*
X010456Y014844D03*
X010456Y009844D03*
X010452Y007349D03*
X010452Y002349D03*
X004751Y008589D03*
X003751Y008589D03*
X003761Y012300D03*
X004761Y012300D03*
X004751Y016020D03*
X003751Y016020D03*
D33*
X003813Y006227D02*
X004787Y006227D01*
X004787Y009967D02*
X003813Y009967D01*
X003813Y013707D02*
X004787Y013707D01*
X004787Y017448D02*
X003813Y017448D01*
D34*
X014107Y017812D03*
X014107Y018812D03*
X014107Y016812D03*
X014107Y015812D03*
X039680Y015812D03*
X039680Y014812D03*
X039680Y013812D03*
X039680Y012812D03*
X039680Y010812D03*
X039680Y016812D03*
X039680Y017812D03*
X039680Y018812D03*
X039680Y019812D03*
X039680Y020812D03*
X039680Y021812D03*
X039680Y022812D03*
X039680Y023812D03*
D35*
X039680Y011812D03*
D36*
X026505Y022074D03*
X025993Y022074D03*
D37*
X016081Y028629D03*
X015412Y028629D03*
D38*
X009497Y036363D02*
X009497Y036878D01*
X003434Y036878D02*
X003434Y036363D01*
X005481Y025304D02*
X005481Y024789D01*
X007450Y024789D02*
X007450Y025304D01*
D39*
X007245Y028841D03*
X006745Y028841D03*
X006245Y028841D03*
X005745Y028841D03*
X013097Y028841D03*
X013597Y028841D03*
X014097Y028841D03*
X014597Y028841D03*
X020450Y028841D03*
X020950Y028841D03*
X021450Y028841D03*
X021950Y028841D03*
D40*
X021200Y035814D03*
X013847Y035814D03*
X006495Y035814D03*
D41*
X019542Y020895D03*
X020542Y020895D03*
X021542Y020895D03*
X022542Y020895D03*
D42*
X023050Y014495D03*
X024034Y012871D03*
X024969Y009721D03*
X029497Y013412D03*
X029448Y015479D03*
X031711Y014938D03*
X033828Y010558D03*
X036042Y013855D03*
X037814Y013117D03*
X037322Y015479D03*
X036534Y020499D03*
X036190Y021040D03*
X036485Y021581D03*
X036190Y022123D03*
X035402Y022123D03*
X034566Y021581D03*
X034959Y021089D03*
X034713Y020499D03*
X035796Y023255D03*
X035796Y025371D03*
X035107Y025371D03*
X032991Y026011D03*
X036288Y027684D03*
X037026Y027684D03*
X037568Y029013D03*
X037519Y031080D03*
X038011Y032556D03*
X038995Y033048D03*
X039782Y033048D03*
X039782Y031572D03*
X038995Y031326D03*
X036977Y034721D03*
X035796Y034721D03*
X034074Y032950D03*
X032450Y032950D03*
X031761Y032950D03*
X031761Y031867D03*
X032450Y031867D03*
X034270Y030784D03*
X026249Y038560D03*
X030314Y040272D03*
X020196Y014593D03*
X016554Y013511D03*
X016948Y010066D03*
X017391Y008343D03*
X017932Y007999D03*
X018424Y007605D03*
X019162Y009032D03*
X016406Y008294D03*
D43*
X016894Y007802D03*
X019851Y009426D03*
X020343Y010312D03*
X021971Y010213D03*
X021967Y008343D03*
X022459Y008048D03*
X023001Y007605D03*
X020983Y008442D03*
X018867Y001847D03*
X026741Y001896D03*
X031269Y002733D03*
X031072Y009475D03*
X030186Y011198D03*
X032794Y011198D03*
X033581Y012822D03*
X035353Y014534D03*
X032794Y016119D03*
X032745Y020843D03*
X032007Y020893D03*
X032056Y023550D03*
X032646Y029849D03*
X029546Y029456D03*
X029546Y030243D03*
X028414Y034574D03*
X027627Y034574D03*
X025963Y035105D03*
X029644Y038363D03*
X028089Y039485D03*
X026396Y041168D03*
X025963Y040725D03*
X025491Y040282D03*
X023887Y040331D03*
X023887Y041020D03*
X023936Y041660D03*
X023936Y042398D03*
X024379Y042891D03*
X025954Y042891D03*
X026396Y042398D03*
X026396Y041808D03*
X027479Y042644D03*
X028513Y042644D03*
X031711Y041119D03*
X024349Y030971D03*
X023837Y028274D03*
X022952Y025568D03*
X021396Y024475D03*
X018680Y023452D03*
X018719Y022664D03*
X017302Y025282D03*
X015456Y026203D03*
X014625Y025381D03*
X013872Y026390D03*
X013360Y027836D03*
X014364Y027866D03*
X012302Y025381D03*
X017017Y030164D03*
X018119Y029387D03*
X019034Y028412D03*
X019507Y027782D03*
X017538Y032211D03*
X017893Y033727D03*
X016987Y034081D03*
X016515Y033609D03*
X017371Y035263D03*
X014408Y033993D03*
X013936Y031995D03*
X014428Y038225D03*
X011239Y039160D03*
X011239Y039997D03*
X011239Y040735D03*
X008335Y041355D03*
X021022Y042290D03*
X022026Y041562D03*
X021918Y036837D03*
X021711Y032428D03*
X023345Y018629D03*
X023247Y017005D03*
X020835Y018383D03*
X027528Y011198D03*
X037420Y010213D03*
X039487Y007310D03*
X039044Y016463D03*
X038109Y023304D03*
X039093Y025863D03*
X040471Y026798D03*
X040668Y029456D03*
D44*
X019802Y030587D03*
X015225Y030489D03*
X011780Y034081D03*
X036780Y006965D03*
D45*
X031564Y004652D03*
X034763Y016956D03*
X035304Y016956D03*
X035304Y017497D03*
X034270Y017546D03*
X033729Y017595D03*
X033188Y021778D03*
X033335Y022320D03*
X022706Y026552D03*
X022302Y027093D03*
X021278Y026109D03*
D46*
X027282Y018826D03*
X028020Y018776D03*
X034910Y018284D03*
X035550Y019072D03*
X037814Y017891D03*
X038503Y017497D03*
X038798Y018137D03*
X033488Y007310D03*
X032499Y007581D03*
X032499Y006129D03*
X031810Y005981D03*
X033040Y006227D03*
X033705Y006075D03*
D47*
X035648Y004948D03*
X035993Y006276D03*
X036229Y007935D03*
X034098Y008466D03*
X037223Y012526D03*
X029054Y021680D03*
X028365Y020893D03*
X027774Y020893D03*
X027774Y020302D03*
X028365Y020302D03*
X026741Y021631D03*
X020196Y025469D03*
X022656Y028865D03*
X024211Y028914D03*
X022558Y030656D03*
X022706Y031247D03*
X021869Y030666D03*
X021249Y030587D03*
X027676Y031473D03*
X027135Y040824D03*
X012469Y018973D03*
X019015Y018038D03*
X019704Y016857D03*
X022471Y010656D03*
X023542Y010213D03*
X023837Y010656D03*
X023936Y008983D03*
X025461Y008983D03*
X026101Y009180D03*
X023837Y006522D03*
X019064Y006572D03*
X013552Y010115D03*
X012814Y011542D03*
X012765Y006030D03*
D48*
X025215Y019367D03*
X024625Y019957D03*
X024034Y020499D03*
X023887Y021335D03*
X023345Y022074D03*
X023296Y022713D03*
X023837Y023304D03*
X024625Y023452D03*
X025363Y023156D03*
X025560Y022369D03*
X025855Y021631D03*
X026101Y021631D03*
X026101Y021286D03*
X025855Y021286D03*
X025363Y020991D03*
X026101Y020597D03*
X026101Y019761D03*
X026101Y019367D03*
X027578Y022418D03*
X028217Y023009D03*
X028956Y022713D03*
X029792Y022270D03*
X029743Y021828D03*
X029989Y021434D03*
X030284Y020942D03*
X030235Y020400D03*
X030383Y019908D03*
X030678Y019121D03*
X030284Y018875D03*
X029300Y018629D03*
X032302Y022172D03*
X033483Y019121D03*
X033877Y018826D03*
X034418Y018580D03*
X032745Y017349D03*
X037568Y019072D03*
X023198Y023550D03*
X039881Y034524D03*
X039881Y035066D03*
D49*
X030383Y029456D03*
X028562Y030243D03*
X027676Y030489D03*
X026889Y030528D03*
X026062Y030538D03*
X026101Y031129D03*
X025166Y032900D03*
X022213Y032900D03*
X020688Y037359D03*
X019457Y038584D03*
X019423Y039259D03*
X011554Y032446D03*
X016150Y029175D03*
X017548Y028294D03*
X016126Y027226D03*
X012863Y026011D03*
X011682Y026011D03*
X020491Y022418D03*
X024920Y024091D03*
X038060Y020007D03*
X038158Y019465D03*
M02*
