G75*
G70*
%OFA0B0*%
%FSLAX24Y24*%
%IPPOS*%
%LPD*%
%AMOC8*
5,1,8,0,0,1.08239X$1,22.5*
%
%ADD10C,0.0050*%
%ADD11C,0.0040*%
D10*
X011734Y003582D02*
X011809Y003507D01*
X012110Y003507D01*
X012185Y003582D01*
X012185Y003732D01*
X012110Y003807D01*
X011809Y003807D01*
X011734Y003732D01*
X011734Y003582D01*
X011809Y003967D02*
X012110Y003967D01*
X012185Y004042D01*
X012185Y004192D01*
X012110Y004268D01*
X012110Y004428D02*
X012034Y004428D01*
X011959Y004503D01*
X011959Y004653D01*
X012034Y004728D01*
X012110Y004728D01*
X012185Y004653D01*
X012185Y004503D01*
X012110Y004428D01*
X011959Y004503D02*
X011884Y004428D01*
X011809Y004428D01*
X011734Y004503D01*
X011734Y004653D01*
X011809Y004728D01*
X011884Y004728D01*
X011959Y004653D01*
X011809Y004268D02*
X011734Y004192D01*
X011734Y004042D01*
X011809Y003967D01*
X017274Y004133D02*
X017349Y004058D01*
X017649Y004058D01*
X017724Y004133D01*
X017724Y004283D01*
X017649Y004358D01*
X017349Y004358D01*
X017274Y004283D01*
X017274Y004133D01*
X017349Y004518D02*
X017649Y004518D01*
X017724Y004594D01*
X017724Y004744D01*
X017649Y004819D01*
X017649Y004979D02*
X017724Y004979D01*
X017649Y004979D02*
X017349Y005279D01*
X017274Y005279D01*
X017274Y004979D01*
X017349Y004819D02*
X017274Y004744D01*
X017274Y004594D01*
X017349Y004518D01*
X023640Y004554D02*
X023715Y004479D01*
X024015Y004479D01*
X024090Y004554D01*
X024090Y004704D01*
X024015Y004779D01*
X024015Y004939D02*
X024090Y005015D01*
X024090Y005165D01*
X024015Y005240D01*
X023940Y005240D01*
X023865Y005165D01*
X023865Y004939D01*
X024015Y004939D01*
X023865Y004939D02*
X023715Y005090D01*
X023640Y005240D01*
X023715Y004779D02*
X023640Y004704D01*
X023640Y004554D01*
X023715Y004319D02*
X023640Y004244D01*
X023640Y004094D01*
X023715Y004019D01*
X024015Y004019D01*
X024090Y004094D01*
X024090Y004244D01*
X024015Y004319D01*
X023715Y004319D01*
X030970Y004256D02*
X030970Y004106D01*
X031045Y004030D01*
X031346Y004030D01*
X031421Y004106D01*
X031421Y004256D01*
X031346Y004331D01*
X031045Y004331D01*
X030970Y004256D01*
X031045Y004491D02*
X031346Y004491D01*
X031421Y004566D01*
X031421Y004716D01*
X031346Y004791D01*
X031346Y004951D02*
X031421Y005026D01*
X031421Y005176D01*
X031346Y005252D01*
X031196Y005252D01*
X031121Y005176D01*
X031121Y005101D01*
X031196Y004951D01*
X030970Y004951D01*
X030970Y005252D01*
X031045Y004791D02*
X030970Y004716D01*
X030970Y004566D01*
X031045Y004491D01*
X029637Y014897D02*
X029337Y014897D01*
X029262Y014972D01*
X029262Y015123D01*
X029337Y015198D01*
X029637Y015198D01*
X029712Y015123D01*
X029712Y014972D01*
X029637Y014897D01*
X029637Y015358D02*
X029337Y015358D01*
X029262Y015433D01*
X029262Y015583D01*
X029337Y015658D01*
X029337Y015818D02*
X029262Y015893D01*
X029262Y016043D01*
X029337Y016118D01*
X029412Y016118D01*
X029712Y015818D01*
X029712Y016118D01*
X029637Y015658D02*
X029712Y015583D01*
X029712Y015433D01*
X029637Y015358D01*
X035770Y015433D02*
X035845Y015358D01*
X036145Y015358D01*
X036220Y015433D01*
X036220Y015583D01*
X036145Y015658D01*
X036220Y015818D02*
X036220Y016118D01*
X036220Y015968D02*
X035770Y015968D01*
X035920Y015818D01*
X035845Y015658D02*
X035770Y015583D01*
X035770Y015433D01*
X035845Y015198D02*
X035770Y015123D01*
X035770Y014972D01*
X035845Y014897D01*
X036145Y014897D01*
X036220Y014972D01*
X036220Y015123D01*
X036145Y015198D01*
X035845Y015198D01*
X023086Y015123D02*
X023086Y014972D01*
X023011Y014897D01*
X022711Y014897D01*
X022636Y014972D01*
X022636Y015123D01*
X022711Y015198D01*
X023011Y015198D01*
X023086Y015123D01*
X023011Y015358D02*
X022711Y015358D01*
X022636Y015433D01*
X022636Y015583D01*
X022711Y015658D01*
X022711Y015818D02*
X022636Y015893D01*
X022636Y016043D01*
X022711Y016118D01*
X022786Y016118D01*
X022861Y016043D01*
X022936Y016118D01*
X023011Y016118D01*
X023086Y016043D01*
X023086Y015893D01*
X023011Y015818D01*
X023011Y015658D02*
X023086Y015583D01*
X023086Y015433D01*
X023011Y015358D01*
X022861Y015968D02*
X022861Y016043D01*
X016381Y016043D02*
X015931Y016043D01*
X016156Y015818D01*
X016156Y016118D01*
X016006Y015658D02*
X015931Y015583D01*
X015931Y015433D01*
X016006Y015358D01*
X016306Y015358D01*
X016381Y015433D01*
X016381Y015583D01*
X016306Y015658D01*
X016306Y015198D02*
X016006Y015198D01*
X015931Y015123D01*
X015931Y014972D01*
X016006Y014897D01*
X016306Y014897D01*
X016381Y014972D01*
X016381Y015123D01*
X016306Y015198D01*
X000742Y014545D02*
X000742Y014245D01*
X000742Y014395D02*
X000291Y014395D01*
X000441Y014245D01*
X000366Y014084D02*
X000516Y014084D01*
X000592Y014009D01*
X000592Y013784D01*
X000742Y013784D02*
X000291Y013784D01*
X000291Y014009D01*
X000366Y014084D01*
X000291Y013624D02*
X000291Y013474D01*
X000291Y013549D02*
X000667Y013549D01*
X000742Y013474D01*
X000742Y013399D01*
X000667Y013324D01*
D11*
X008872Y004767D02*
X008872Y004307D01*
X008872Y004460D02*
X009102Y004460D01*
X009179Y004537D01*
X009179Y004691D01*
X009102Y004767D01*
X008872Y004767D01*
X009332Y004691D02*
X009409Y004767D01*
X009563Y004767D01*
X009639Y004691D01*
X009639Y004614D01*
X009563Y004537D01*
X009639Y004460D01*
X009639Y004384D01*
X009563Y004307D01*
X009409Y004307D01*
X009332Y004384D01*
X009179Y004307D02*
X009025Y004460D01*
X009486Y004537D02*
X009563Y004537D01*
X009793Y004691D02*
X009870Y004767D01*
X010023Y004767D01*
X010100Y004691D01*
X010100Y004614D01*
X009793Y004307D01*
X010100Y004307D01*
X010474Y003179D02*
X010705Y003179D01*
X010781Y003102D01*
X010781Y002949D01*
X010705Y002872D01*
X010474Y002872D01*
X010474Y002718D02*
X010474Y003179D01*
X010935Y003102D02*
X011012Y003179D01*
X011165Y003179D01*
X011242Y003102D01*
X011242Y003025D01*
X010935Y002718D01*
X011242Y002718D01*
X011395Y002795D02*
X011472Y002718D01*
X011625Y002718D01*
X011702Y002795D01*
X011702Y003102D01*
X011625Y003179D01*
X011472Y003179D01*
X011395Y003102D01*
X011395Y003025D01*
X011472Y002949D01*
X011702Y002949D01*
X010781Y002718D02*
X010628Y002872D01*
X010714Y005331D02*
X010561Y005484D01*
X010638Y005484D02*
X010407Y005484D01*
X010407Y005331D02*
X010407Y005791D01*
X010638Y005791D01*
X010714Y005714D01*
X010714Y005561D01*
X010638Y005484D01*
X010868Y005331D02*
X011175Y005638D01*
X011175Y005714D01*
X011098Y005791D01*
X010945Y005791D01*
X010868Y005714D01*
X010868Y005331D02*
X011175Y005331D01*
X011328Y005561D02*
X011635Y005561D01*
X011558Y005331D02*
X011558Y005791D01*
X011328Y005561D01*
X008723Y006586D02*
X008723Y006740D01*
X008646Y006817D01*
X008646Y006970D02*
X008570Y006970D01*
X008493Y007047D01*
X008493Y007200D01*
X008570Y007277D01*
X008646Y007277D01*
X008723Y007200D01*
X008723Y007047D01*
X008646Y006970D01*
X008493Y007047D02*
X008416Y006970D01*
X008339Y006970D01*
X008263Y007047D01*
X008263Y007200D01*
X008339Y007277D01*
X008416Y007277D01*
X008493Y007200D01*
X008339Y006817D02*
X008263Y006740D01*
X008263Y006586D01*
X008339Y006510D01*
X008646Y006510D01*
X008723Y006586D01*
X014484Y006681D02*
X014484Y006374D01*
X014561Y006297D01*
X014714Y006297D01*
X014791Y006374D01*
X014944Y006374D02*
X014944Y006297D01*
X014944Y006374D02*
X015251Y006681D01*
X015251Y006758D01*
X014944Y006758D01*
X014791Y006681D02*
X014714Y006758D01*
X014561Y006758D01*
X014484Y006681D01*
X017064Y006534D02*
X017064Y006380D01*
X017141Y006304D01*
X017141Y006150D02*
X017294Y006150D01*
X017371Y006073D01*
X017371Y005843D01*
X017524Y005843D02*
X017064Y005843D01*
X017064Y006073D01*
X017141Y006150D01*
X017371Y005997D02*
X017524Y006150D01*
X017524Y006304D02*
X017217Y006610D01*
X017141Y006610D01*
X017064Y006534D01*
X017294Y006764D02*
X017294Y006994D01*
X017371Y007071D01*
X017447Y007071D01*
X017524Y006994D01*
X017524Y006841D01*
X017447Y006764D01*
X017294Y006764D01*
X017141Y006917D01*
X017064Y007071D01*
X017524Y006610D02*
X017524Y006304D01*
X017969Y006380D02*
X018046Y006304D01*
X017969Y006380D02*
X017969Y006534D01*
X018046Y006610D01*
X018123Y006610D01*
X018430Y006304D01*
X018430Y006610D01*
X018353Y006764D02*
X018430Y006841D01*
X018430Y006994D01*
X018353Y007071D01*
X018200Y007071D01*
X018123Y006994D01*
X018123Y006917D01*
X018200Y006764D01*
X017969Y006764D01*
X017969Y007071D01*
X018046Y006150D02*
X018200Y006150D01*
X018276Y006073D01*
X018276Y005843D01*
X018276Y005997D02*
X018430Y006150D01*
X018046Y006150D02*
X017969Y006073D01*
X017969Y005843D01*
X018430Y005843D01*
X020997Y004738D02*
X020997Y004584D01*
X021074Y004507D01*
X020997Y004200D02*
X021457Y004200D01*
X021457Y004047D02*
X021457Y004354D01*
X021457Y004507D02*
X021150Y004814D01*
X021074Y004814D01*
X020997Y004738D01*
X021457Y004814D02*
X021457Y004507D01*
X021150Y004047D02*
X020997Y004200D01*
X021074Y003893D02*
X021227Y003893D01*
X021304Y003817D01*
X021304Y003587D01*
X021304Y003740D02*
X021457Y003893D01*
X021457Y003587D02*
X020997Y003587D01*
X020997Y003817D01*
X021074Y003893D01*
X022125Y003947D02*
X022125Y003716D01*
X022585Y003716D01*
X022432Y003716D02*
X022432Y003947D01*
X022355Y004023D01*
X022202Y004023D01*
X022125Y003947D01*
X022202Y004177D02*
X022125Y004254D01*
X022125Y004407D01*
X022202Y004484D01*
X022278Y004484D01*
X022355Y004407D01*
X022432Y004484D01*
X022509Y004484D01*
X022585Y004407D01*
X022585Y004254D01*
X022509Y004177D01*
X022585Y004023D02*
X022432Y003870D01*
X022355Y004330D02*
X022355Y004407D01*
X022355Y004637D02*
X022355Y004944D01*
X022125Y004867D02*
X022355Y004637D01*
X022585Y004867D02*
X022125Y004867D01*
X027532Y004425D02*
X027686Y004271D01*
X027532Y004425D02*
X027993Y004425D01*
X027993Y004578D02*
X027993Y004271D01*
X027993Y004118D02*
X027993Y003811D01*
X027993Y003964D02*
X027532Y003964D01*
X027686Y003811D01*
X027763Y003657D02*
X027839Y003580D01*
X027839Y003350D01*
X027993Y003350D02*
X027532Y003350D01*
X027532Y003580D01*
X027609Y003657D01*
X027763Y003657D01*
X027839Y003504D02*
X027993Y003657D01*
X028897Y003913D02*
X028897Y004143D01*
X028973Y004220D01*
X029127Y004220D01*
X029203Y004143D01*
X029203Y003913D01*
X029203Y004067D02*
X029357Y004220D01*
X029127Y004374D02*
X029127Y004681D01*
X029127Y004834D02*
X029127Y005064D01*
X029203Y005141D01*
X029280Y005141D01*
X029357Y005064D01*
X029357Y004911D01*
X029280Y004834D01*
X029127Y004834D01*
X028973Y004988D01*
X028897Y005141D01*
X029032Y005207D02*
X029109Y005284D01*
X029263Y005284D01*
X029339Y005207D01*
X029339Y004977D01*
X029339Y005130D02*
X029493Y005284D01*
X029416Y005437D02*
X029493Y005514D01*
X029493Y005668D01*
X029416Y005744D01*
X029263Y005744D01*
X029186Y005668D01*
X029186Y005591D01*
X029263Y005437D01*
X029032Y005437D01*
X029032Y005744D01*
X029263Y005898D02*
X029263Y006205D01*
X029493Y006128D02*
X029032Y006128D01*
X029263Y005898D01*
X029032Y005207D02*
X029032Y004977D01*
X029493Y004977D01*
X029357Y004604D02*
X028897Y004604D01*
X029127Y004374D01*
X029357Y003913D02*
X028897Y003913D01*
X029096Y008266D02*
X029249Y008266D01*
X029326Y008342D01*
X029479Y008342D02*
X029556Y008266D01*
X029710Y008266D01*
X029786Y008342D01*
X029786Y008419D01*
X029710Y008496D01*
X029479Y008496D01*
X029479Y008342D01*
X029479Y008496D02*
X029633Y008649D01*
X029786Y008726D01*
X029326Y008649D02*
X029249Y008726D01*
X029096Y008726D01*
X029019Y008649D01*
X029019Y008342D01*
X029096Y008266D01*
X022853Y008342D02*
X022776Y008266D01*
X022623Y008266D01*
X022546Y008342D01*
X022393Y008342D02*
X022316Y008266D01*
X022163Y008266D01*
X022086Y008342D01*
X022086Y008649D01*
X022163Y008726D01*
X022316Y008726D01*
X022393Y008649D01*
X022546Y008726D02*
X022546Y008496D01*
X022700Y008573D01*
X022776Y008573D01*
X022853Y008496D01*
X022853Y008342D01*
X022853Y008726D02*
X022546Y008726D01*
X016156Y004300D02*
X016079Y004377D01*
X015926Y004377D01*
X015849Y004300D01*
X015849Y004224D01*
X015926Y004070D01*
X015696Y004070D01*
X015696Y004377D01*
X016156Y004300D02*
X016156Y004147D01*
X016079Y004070D01*
X016156Y003917D02*
X016156Y003610D01*
X016156Y003763D02*
X015696Y003763D01*
X015849Y003610D01*
X015772Y003456D02*
X015926Y003456D01*
X016003Y003380D01*
X016003Y003150D01*
X016003Y003303D02*
X016156Y003456D01*
X015772Y003456D02*
X015696Y003380D01*
X015696Y003150D01*
X016156Y003150D01*
X007717Y012169D02*
X007257Y012169D01*
X007717Y012169D02*
X007717Y012476D01*
X007717Y012630D02*
X007257Y012630D01*
X007257Y012937D01*
X007257Y013090D02*
X007257Y013320D01*
X007333Y013397D01*
X007640Y013397D01*
X007717Y013320D01*
X007717Y013090D01*
X007257Y013090D01*
X007717Y012937D02*
X007717Y012630D01*
X007487Y012630D02*
X007487Y012783D01*
X007410Y013550D02*
X007257Y013704D01*
X007717Y013704D01*
X007717Y013857D02*
X007717Y013550D01*
X009920Y014307D02*
X009920Y014537D01*
X009997Y014614D01*
X010150Y014614D01*
X010227Y014537D01*
X010227Y014307D01*
X010178Y014356D02*
X010332Y014356D01*
X010409Y014279D01*
X010381Y014307D02*
X009920Y014307D01*
X010102Y014279D02*
X010102Y013972D01*
X010178Y013896D01*
X010332Y013896D01*
X010409Y013972D01*
X010562Y013896D02*
X010869Y013896D01*
X010715Y013896D02*
X010715Y014356D01*
X010562Y014203D01*
X010178Y014356D02*
X010102Y014279D01*
X010227Y014460D02*
X010381Y014614D01*
X010304Y014767D02*
X010381Y014844D01*
X010381Y014998D01*
X010304Y015074D01*
X010227Y015074D01*
X010150Y014998D01*
X010150Y014921D01*
X010150Y014998D02*
X010074Y015074D01*
X009997Y015074D01*
X009920Y014998D01*
X009920Y014844D01*
X009997Y014767D01*
X010150Y015228D02*
X010150Y015458D01*
X010227Y015535D01*
X010304Y015535D01*
X010381Y015458D01*
X010381Y015305D01*
X010304Y015228D01*
X010150Y015228D01*
X009997Y015381D01*
X009920Y015535D01*
X010410Y015522D02*
X010410Y015292D01*
X010871Y015292D01*
X010717Y015292D02*
X010717Y015522D01*
X010640Y015599D01*
X010487Y015599D01*
X010410Y015522D01*
X010487Y015752D02*
X010410Y015829D01*
X010410Y015983D01*
X010487Y016059D01*
X010564Y016059D01*
X010640Y015983D01*
X010717Y016059D01*
X010794Y016059D01*
X010871Y015983D01*
X010871Y015829D01*
X010794Y015752D01*
X010871Y015599D02*
X010717Y015445D01*
X010640Y015906D02*
X010640Y015983D01*
X010564Y016213D02*
X010640Y016289D01*
X010640Y016520D01*
X010487Y016520D02*
X010794Y016520D01*
X010871Y016443D01*
X010871Y016289D01*
X010794Y016213D01*
X010564Y016213D02*
X010487Y016213D01*
X010410Y016289D01*
X010410Y016443D01*
X010487Y016520D01*
X015603Y015444D02*
X015603Y015137D01*
X015833Y015137D01*
X015757Y015291D01*
X015757Y015367D01*
X015833Y015444D01*
X015987Y015444D01*
X016064Y015367D01*
X016064Y015214D01*
X015987Y015137D01*
X015987Y014984D02*
X016064Y014907D01*
X016064Y014754D01*
X015987Y014677D01*
X015833Y014677D02*
X015757Y014830D01*
X015757Y014907D01*
X015833Y014984D01*
X015987Y014984D01*
X015603Y014984D02*
X015603Y014677D01*
X015833Y014677D01*
X015833Y014523D02*
X015910Y014447D01*
X015910Y014216D01*
X016064Y014216D02*
X015603Y014216D01*
X015603Y014447D01*
X015680Y014523D01*
X015833Y014523D01*
X015910Y014370D02*
X016064Y014523D01*
X016720Y014279D02*
X016720Y013972D01*
X016796Y013896D01*
X016950Y013896D01*
X017027Y013972D01*
X017180Y013896D02*
X017487Y014203D01*
X017487Y014279D01*
X017410Y014356D01*
X017257Y014356D01*
X017180Y014279D01*
X017027Y014279D02*
X016950Y014356D01*
X016796Y014356D01*
X016720Y014279D01*
X016771Y014622D02*
X016771Y014852D01*
X016847Y014929D01*
X017001Y014929D01*
X017077Y014852D01*
X017077Y014622D01*
X017077Y014775D02*
X017231Y014929D01*
X017001Y015082D02*
X017001Y015389D01*
X017077Y015543D02*
X017001Y015619D01*
X017001Y015773D01*
X017077Y015850D01*
X017154Y015850D01*
X017231Y015773D01*
X017231Y015619D01*
X017154Y015543D01*
X017077Y015543D01*
X017001Y015619D02*
X016924Y015543D01*
X016847Y015543D01*
X016771Y015619D01*
X016771Y015773D01*
X016847Y015850D01*
X016924Y015850D01*
X017001Y015773D01*
X017103Y015804D02*
X017103Y016034D01*
X017180Y016111D01*
X017333Y016111D01*
X017410Y016034D01*
X017410Y015804D01*
X017410Y015957D02*
X017564Y016111D01*
X017564Y016264D02*
X017257Y016571D01*
X017180Y016571D01*
X017103Y016494D01*
X017103Y016341D01*
X017180Y016264D01*
X017564Y016264D02*
X017564Y016571D01*
X017564Y016725D02*
X017257Y017031D01*
X017180Y017031D01*
X017103Y016955D01*
X017103Y016801D01*
X017180Y016725D01*
X017564Y016725D02*
X017564Y017031D01*
X017564Y015804D02*
X017103Y015804D01*
X017231Y015313D02*
X016771Y015313D01*
X017001Y015082D01*
X017231Y014622D02*
X016771Y014622D01*
X017180Y013896D02*
X017487Y013896D01*
X023381Y014012D02*
X023458Y013935D01*
X023611Y013935D01*
X023688Y014012D01*
X023757Y014105D02*
X023757Y013875D01*
X024217Y013875D01*
X024064Y013875D02*
X024064Y014105D01*
X023987Y014182D01*
X023833Y014182D01*
X023757Y014105D01*
X023842Y014165D02*
X024148Y014165D01*
X024217Y014182D02*
X024064Y014028D01*
X024072Y013935D02*
X024072Y014395D01*
X023842Y014165D01*
X023688Y014319D02*
X023611Y014395D01*
X023458Y014395D01*
X023381Y014319D01*
X023381Y014012D01*
X023463Y014386D02*
X023463Y014616D01*
X023540Y014693D01*
X023694Y014693D01*
X023770Y014616D01*
X023770Y014386D01*
X023770Y014539D02*
X023924Y014693D01*
X023987Y014642D02*
X023987Y014335D01*
X023757Y014565D01*
X024217Y014565D01*
X023924Y014386D02*
X023463Y014386D01*
X023540Y014846D02*
X023463Y014923D01*
X023463Y015076D01*
X023540Y015153D01*
X023617Y015153D01*
X023694Y015076D01*
X023770Y015153D01*
X023847Y015153D01*
X023924Y015076D01*
X023924Y014923D01*
X023847Y014846D01*
X023987Y014795D02*
X023987Y015102D01*
X024217Y015026D02*
X023757Y015026D01*
X023987Y014795D01*
X023694Y015000D02*
X023694Y015076D01*
X023770Y015307D02*
X023694Y015383D01*
X023694Y015537D01*
X023770Y015613D01*
X023847Y015613D01*
X023924Y015537D01*
X023924Y015383D01*
X023847Y015307D01*
X023770Y015307D01*
X023694Y015383D02*
X023617Y015307D01*
X023540Y015307D01*
X023463Y015383D01*
X023463Y015537D01*
X023540Y015613D01*
X023617Y015613D01*
X023694Y015537D01*
X023757Y015843D02*
X023757Y016073D01*
X023833Y016150D01*
X023987Y016150D01*
X024064Y016073D01*
X024064Y015843D01*
X024217Y015843D02*
X023757Y015843D01*
X024064Y015997D02*
X024217Y016150D01*
X023987Y016304D02*
X023987Y016610D01*
X023833Y016764D02*
X023757Y016841D01*
X023757Y016994D01*
X023833Y017071D01*
X023910Y017071D01*
X024217Y016764D01*
X024217Y017071D01*
X024217Y016534D02*
X023757Y016534D01*
X023987Y016304D01*
X029716Y014319D02*
X029716Y014012D01*
X029793Y013935D01*
X029946Y013935D01*
X030023Y014012D01*
X030176Y014012D02*
X030253Y013935D01*
X030406Y013935D01*
X030483Y014012D01*
X030483Y014088D01*
X030406Y014165D01*
X030330Y014165D01*
X030406Y014165D02*
X030483Y014242D01*
X030483Y014319D01*
X030406Y014395D01*
X030253Y014395D01*
X030176Y014319D01*
X030023Y014319D02*
X029946Y014395D01*
X029793Y014395D01*
X029716Y014319D01*
X029920Y014543D02*
X029920Y014773D01*
X029997Y014850D01*
X030150Y014850D01*
X030227Y014773D01*
X030227Y014543D01*
X030381Y014543D02*
X029920Y014543D01*
X030227Y014697D02*
X030381Y014850D01*
X030304Y015004D02*
X030381Y015080D01*
X030381Y015234D01*
X030304Y015311D01*
X030150Y015311D01*
X030074Y015234D01*
X030074Y015157D01*
X030150Y015004D01*
X029920Y015004D01*
X029920Y015311D01*
X029997Y015464D02*
X029920Y015541D01*
X029920Y015694D01*
X029997Y015771D01*
X030304Y015464D01*
X030381Y015541D01*
X030381Y015694D01*
X030304Y015771D01*
X029997Y015771D01*
X030253Y015713D02*
X030483Y015713D01*
X030406Y015866D01*
X030406Y015943D01*
X030483Y016020D01*
X030636Y016020D01*
X030713Y015943D01*
X030713Y015790D01*
X030636Y015713D01*
X030713Y015560D02*
X030560Y015406D01*
X030560Y015483D02*
X030560Y015253D01*
X030713Y015253D02*
X030253Y015253D01*
X030253Y015483D01*
X030330Y015560D01*
X030483Y015560D01*
X030560Y015483D01*
X030304Y015464D02*
X029997Y015464D01*
X030253Y015713D02*
X030253Y016020D01*
X030330Y016173D02*
X030253Y016250D01*
X030253Y016404D01*
X030330Y016480D01*
X030406Y016480D01*
X030713Y016173D01*
X030713Y016480D01*
M02*
