G75*
%MOIN*%
%OFA0B0*%
%FSLAX25Y25*%
%IPPOS*%
%LPD*%
%AMOC8*
5,1,8,0,0,1.08239X$1,22.5*
%
%ADD10C,0.05937*%
%ADD11R,0.03937X0.04331*%
%ADD12R,0.06299X0.07098*%
%ADD13R,0.04331X0.03937*%
%ADD14R,0.07098X0.06299*%
%ADD15R,0.07087X0.12598*%
%ADD16R,0.12598X0.07087*%
%ADD17OC8,0.06909*%
%ADD18R,0.17323X0.11811*%
%ADD19OC8,0.06000*%
%ADD20R,0.03543X0.02756*%
%ADD21R,0.07874X0.03150*%
%ADD22C,0.05000*%
%ADD23C,0.03569*%
%ADD24C,0.04000*%
%ADD25C,0.02400*%
%ADD26C,0.01600*%
%ADD27C,0.03200*%
%ADD28C,0.05600*%
D10*
X0101150Y0089960D02*
X0101150Y0095897D01*
X0111150Y0095897D02*
X0111150Y0089960D01*
X0121150Y0089960D02*
X0121150Y0095897D01*
X0120756Y0109252D02*
X0120756Y0115189D01*
X0110756Y0115189D02*
X0110756Y0109252D01*
X0100756Y0109252D02*
X0100756Y0115189D01*
X0171622Y0115189D02*
X0171622Y0109252D01*
X0181622Y0109252D02*
X0181622Y0115189D01*
X0191622Y0115189D02*
X0191622Y0109252D01*
X0192016Y0095897D02*
X0192016Y0089960D01*
X0182016Y0089960D02*
X0182016Y0095897D01*
X0172016Y0095897D02*
X0172016Y0089960D01*
X0240913Y0089960D02*
X0240913Y0095897D01*
X0250913Y0095897D02*
X0250913Y0089960D01*
X0260913Y0089960D02*
X0260913Y0095897D01*
X0262488Y0109252D02*
X0262488Y0115189D01*
X0252488Y0115189D02*
X0252488Y0109252D01*
X0242488Y0109252D02*
X0242488Y0115189D01*
X0313354Y0115189D02*
X0313354Y0109252D01*
X0323354Y0109252D02*
X0323354Y0115189D01*
X0333354Y0115189D02*
X0333354Y0109252D01*
X0335717Y0095897D02*
X0335717Y0089960D01*
X0325717Y0089960D02*
X0325717Y0095897D01*
X0315717Y0095897D02*
X0315717Y0089960D01*
D11*
X0338276Y0035212D03*
X0344969Y0035212D03*
X0202291Y0035606D03*
X0195598Y0035606D03*
X0142921Y0035212D03*
X0136228Y0035212D03*
X0133079Y0168756D03*
X0126386Y0168756D03*
X0190795Y0172693D03*
X0197488Y0172693D03*
X0259693Y0167889D03*
X0266386Y0167889D03*
X0326071Y0168677D03*
X0332764Y0168677D03*
D12*
X0327441Y0138519D03*
X0338638Y0138519D03*
X0267220Y0138598D03*
X0256024Y0138598D03*
X0199583Y0136945D03*
X0188386Y0136945D03*
X0133205Y0132378D03*
X0122008Y0132378D03*
X0188858Y0070803D03*
X0200055Y0070803D03*
X0256496Y0071590D03*
X0267693Y0071590D03*
X0331850Y0073952D03*
X0343047Y0073952D03*
X0132181Y0065291D03*
X0120984Y0065291D03*
X0111236Y0063598D03*
X0100039Y0063598D03*
D13*
X0265835Y0044661D03*
X0265835Y0037968D03*
D14*
X0291858Y0036346D03*
X0291858Y0047543D03*
X0219417Y0049118D03*
X0219417Y0058393D03*
X0219417Y0069590D03*
X0166307Y0073134D03*
X0166307Y0061937D03*
X0219417Y0037921D03*
X0290283Y0136346D03*
X0290283Y0147543D03*
X0290283Y0156031D03*
X0290283Y0167228D03*
X0220598Y0161937D03*
X0220598Y0173134D03*
X0151701Y0173035D03*
X0151701Y0161838D03*
X0091858Y0156425D03*
X0091858Y0147937D03*
X0091858Y0136740D03*
X0091858Y0167622D03*
D15*
X0123748Y0146669D03*
X0145795Y0146669D03*
X0182803Y0158874D03*
X0204850Y0158874D03*
X0253669Y0155724D03*
X0275717Y0155724D03*
X0324535Y0155330D03*
X0346583Y0155330D03*
X0199339Y0056905D03*
X0177291Y0056905D03*
X0148157Y0051000D03*
X0126110Y0051000D03*
X0112331Y0039976D03*
X0090283Y0039976D03*
X0163512Y0038401D03*
X0185559Y0038401D03*
X0234378Y0036039D03*
X0256425Y0036039D03*
X0306425Y0037220D03*
X0328472Y0037220D03*
D16*
X0317843Y0050606D03*
X0317843Y0072653D03*
X0241858Y0072260D03*
X0241858Y0050212D03*
X0104457Y0141157D03*
X0104457Y0163204D03*
X0168236Y0166354D03*
X0168236Y0144307D03*
X0239890Y0143126D03*
X0239890Y0165173D03*
X0309181Y0167141D03*
X0309181Y0145094D03*
D17*
X0322567Y0182102D03*
X0251701Y0182102D03*
X0180835Y0182102D03*
X0109969Y0182102D03*
X0109969Y0016748D03*
X0180835Y0016748D03*
X0251701Y0016748D03*
X0322567Y0016748D03*
D18*
X0291858Y0104937D03*
X0220992Y0104937D03*
X0150126Y0104937D03*
X0079260Y0104937D03*
D19*
X0018118Y0138480D03*
X0008118Y0138480D03*
X0008118Y0148480D03*
X0018118Y0148480D03*
X0018118Y0158480D03*
X0008118Y0158480D03*
X0008118Y0168480D03*
X0018118Y0168480D03*
X0018118Y0178480D03*
X0008118Y0178480D03*
D20*
X0007606Y0122063D03*
X0007606Y0116945D03*
D21*
X0032803Y0114386D03*
X0032803Y0123047D03*
X0050126Y0123047D03*
X0050126Y0114386D03*
X0050126Y0105724D03*
X0032803Y0105724D03*
X0032803Y0091551D03*
X0050126Y0091551D03*
X0050126Y0078952D03*
X0050126Y0070291D03*
X0050126Y0061630D03*
X0032803Y0061630D03*
X0032803Y0070291D03*
X0032803Y0078952D03*
X0032803Y0046669D03*
X0032803Y0038008D03*
X0032803Y0029346D03*
X0050126Y0029346D03*
X0050126Y0038008D03*
X0050126Y0046669D03*
X0050126Y0016748D03*
X0032803Y0016748D03*
X0032803Y0135645D03*
X0050126Y0135645D03*
X0044614Y0149819D03*
X0061937Y0149819D03*
X0061937Y0162417D03*
X0044614Y0162417D03*
X0044614Y0171078D03*
X0044614Y0179740D03*
X0061937Y0179740D03*
X0061937Y0171078D03*
X0370598Y0167141D03*
X0387921Y0167141D03*
X0387921Y0158480D03*
X0387921Y0149819D03*
X0370598Y0149819D03*
X0370598Y0158480D03*
X0370598Y0179740D03*
X0387921Y0179740D03*
X0387921Y0135645D03*
X0370598Y0135645D03*
X0370598Y0123047D03*
X0370598Y0114386D03*
X0387921Y0114386D03*
X0387921Y0123047D03*
X0387921Y0105724D03*
X0370598Y0105724D03*
X0370598Y0091551D03*
X0387921Y0091551D03*
X0387921Y0078952D03*
X0387921Y0070291D03*
X0387921Y0061630D03*
X0370598Y0061630D03*
X0370598Y0070291D03*
X0370598Y0078952D03*
X0370598Y0046669D03*
X0387921Y0046669D03*
X0387921Y0034071D03*
X0387921Y0025409D03*
X0387921Y0016748D03*
X0370598Y0016748D03*
X0370598Y0025409D03*
X0370598Y0034071D03*
D22*
X0375323Y0043126D02*
X0379654Y0043126D01*
X0375323Y0043126D02*
X0371780Y0046669D01*
X0370598Y0046669D01*
X0379260Y0051787D02*
X0382803Y0051787D01*
X0387921Y0046669D01*
X0332508Y0074610D02*
X0332508Y0077673D01*
X0328571Y0081610D01*
X0319713Y0081610D01*
X0315717Y0085606D01*
X0315717Y0092929D01*
X0268531Y0086531D02*
X0268531Y0071275D01*
X0268531Y0072429D01*
X0267693Y0071590D01*
X0256496Y0071590D02*
X0256496Y0077405D01*
X0252783Y0081118D01*
X0244909Y0081118D01*
X0240972Y0085055D01*
X0240972Y0092870D01*
X0240913Y0092929D01*
X0260913Y0092929D02*
X0262134Y0092929D01*
X0268531Y0086531D01*
X0244417Y0069701D02*
X0241858Y0072260D01*
X0244417Y0069701D02*
X0244417Y0067338D01*
X0219417Y0058393D02*
X0219331Y0058480D01*
X0213413Y0058480D01*
X0219417Y0049118D02*
X0226689Y0049118D01*
X0226701Y0049130D01*
X0219417Y0037921D02*
X0215087Y0037921D01*
X0212724Y0035559D01*
X0212724Y0032496D01*
X0226701Y0027476D02*
X0234378Y0035153D01*
X0234378Y0036039D01*
X0200055Y0070803D02*
X0201110Y0071858D01*
X0201110Y0077279D01*
X0188858Y0070803D02*
X0186819Y0070803D01*
X0172016Y0085606D01*
X0172016Y0092929D01*
X0166307Y0061937D02*
X0162232Y0057862D01*
X0162232Y0052575D01*
X0050126Y0016748D02*
X0047764Y0014386D01*
X0040677Y0014386D01*
X0032803Y0016748D02*
X0032803Y0018323D01*
X0035559Y0021078D01*
X0042252Y0021078D01*
X0041465Y0087220D02*
X0044220Y0087220D01*
X0048551Y0091551D01*
X0050126Y0091551D01*
X0041858Y0096669D02*
X0039496Y0096669D01*
X0034378Y0091551D01*
X0032803Y0091551D01*
X0043039Y0135645D02*
X0041071Y0137614D01*
X0041071Y0141945D01*
X0041071Y0146275D01*
X0044614Y0149819D01*
X0050126Y0144307D02*
X0056425Y0144307D01*
X0061937Y0149819D01*
X0081622Y0155724D02*
X0081622Y0161236D01*
X0088008Y0167622D01*
X0091858Y0167622D01*
X0103276Y0173441D02*
X0095008Y0181708D01*
X0086740Y0181708D01*
X0076504Y0171472D01*
X0067843Y0171472D01*
X0103276Y0173441D02*
X0116661Y0173441D01*
X0126898Y0183677D01*
X0179260Y0183677D01*
X0180835Y0182102D01*
X0151701Y0173035D02*
X0149929Y0174807D01*
X0149929Y0174819D01*
X0061937Y0136827D02*
X0060756Y0135645D01*
X0050126Y0135645D01*
X0043039Y0135645D01*
X0370598Y0135645D02*
X0371386Y0135645D01*
X0375323Y0131708D01*
X0379654Y0131708D01*
X0387921Y0135645D02*
X0382409Y0141157D01*
X0379654Y0141157D01*
X0379654Y0175015D02*
X0382016Y0175015D01*
X0386740Y0179740D01*
X0387921Y0179740D01*
X0380047Y0184464D02*
X0375323Y0184464D01*
X0370598Y0179740D01*
X0374142Y0097063D02*
X0379654Y0097063D01*
X0374142Y0097063D02*
X0370598Y0093519D01*
X0370598Y0091551D01*
X0379260Y0088008D02*
X0383197Y0088008D01*
X0386740Y0091551D01*
X0387921Y0091551D01*
D23*
X0379260Y0088008D03*
X0379654Y0097063D03*
X0387921Y0114386D03*
X0387921Y0123047D03*
X0379654Y0131708D03*
X0370598Y0123047D03*
X0370598Y0114386D03*
X0379654Y0141157D03*
X0388118Y0158382D03*
X0388118Y0167240D03*
X0379654Y0175015D03*
X0380047Y0184464D03*
X0369614Y0167240D03*
X0370402Y0158382D03*
X0346780Y0150015D03*
X0332409Y0165960D03*
X0341858Y0168716D03*
X0306819Y0145094D03*
X0313315Y0135744D03*
X0303276Y0133874D03*
X0289693Y0134267D03*
X0278374Y0138697D03*
X0258689Y0143618D03*
X0239988Y0145586D03*
X0225224Y0153460D03*
X0209161Y0168716D03*
X0199634Y0172161D03*
X0191465Y0175409D03*
X0169417Y0177378D03*
X0149929Y0174819D03*
X0142646Y0168323D03*
X0133197Y0172161D03*
X0126504Y0161630D03*
X0135165Y0143618D03*
X0145500Y0143618D03*
X0158787Y0153460D03*
X0171583Y0145586D03*
X0192744Y0147555D03*
X0209969Y0137220D03*
X0239496Y0131807D03*
X0266661Y0162811D03*
X0277685Y0168716D03*
X0290185Y0170685D03*
X0225323Y0180134D03*
X0215382Y0178067D03*
X0104654Y0144110D03*
X0091858Y0132299D03*
X0061937Y0136827D03*
X0050126Y0144307D03*
X0041071Y0141945D03*
X0032803Y0148244D03*
X0032409Y0158086D03*
X0044614Y0162417D03*
X0061937Y0162417D03*
X0058000Y0171472D03*
X0044614Y0171472D03*
X0026898Y0181708D03*
X0070992Y0182889D03*
X0076110Y0182889D03*
X0081622Y0155724D03*
X0050126Y0123047D03*
X0050126Y0113992D03*
X0032409Y0113992D03*
X0032409Y0123047D03*
X0013118Y0124228D03*
X0008000Y0115173D03*
X0007606Y0107693D03*
X0012724Y0098244D03*
X0019811Y0091551D03*
X0021386Y0083677D03*
X0032803Y0079149D03*
X0032803Y0069799D03*
X0050028Y0069799D03*
X0050028Y0079149D03*
X0041465Y0087220D03*
X0041858Y0096669D03*
X0111051Y0063401D03*
X0115972Y0072653D03*
X0146976Y0064878D03*
X0167646Y0074228D03*
X0201110Y0077279D03*
X0215382Y0072260D03*
X0213413Y0058480D03*
X0199142Y0057004D03*
X0226701Y0049130D03*
X0195697Y0041748D03*
X0212724Y0032496D03*
X0226701Y0027476D03*
X0265579Y0047161D03*
X0264693Y0056512D03*
X0244417Y0067338D03*
X0268531Y0071275D03*
X0294122Y0056019D03*
X0318236Y0066354D03*
X0343039Y0060449D03*
X0337528Y0052181D03*
X0305933Y0038303D03*
X0280835Y0033382D03*
X0337921Y0025015D03*
X0370205Y0025409D03*
X0370205Y0034071D03*
X0387921Y0034071D03*
X0387921Y0025409D03*
X0379654Y0043126D03*
X0379260Y0051787D03*
X0388512Y0070291D03*
X0388118Y0079149D03*
X0369614Y0079149D03*
X0370008Y0070291D03*
X0343335Y0071275D03*
X0163217Y0034858D03*
X0150913Y0036433D03*
X0143039Y0036039D03*
X0135165Y0031413D03*
X0124831Y0044208D03*
X0146484Y0052575D03*
X0162213Y0052594D03*
X0162232Y0052575D03*
X0090382Y0042043D03*
X0060657Y0029346D03*
X0050028Y0038303D03*
X0032803Y0038303D03*
X0032803Y0028952D03*
X0042252Y0021078D03*
X0040677Y0014386D03*
D24*
X0022173Y0016748D02*
X0019811Y0019110D01*
X0019811Y0082102D01*
X0021386Y0083677D01*
X0019811Y0091551D02*
X0019811Y0124622D01*
X0030835Y0135645D01*
X0032803Y0135645D01*
X0032803Y0148244D01*
X0065087Y0171472D02*
X0067843Y0171472D01*
X0069811Y0171472D01*
X0133079Y0168756D02*
X0133197Y0168874D01*
X0133197Y0172161D01*
X0197488Y0172693D02*
X0199102Y0172693D01*
X0199634Y0172161D01*
X0332409Y0165960D02*
X0332764Y0166315D01*
X0332764Y0168677D01*
X0359969Y0172260D02*
X0367449Y0179740D01*
X0370598Y0179740D01*
X0359969Y0172260D02*
X0359969Y0141157D01*
X0359969Y0094701D01*
X0359969Y0051393D01*
X0364693Y0046669D01*
X0371780Y0046669D01*
X0338276Y0035212D02*
X0338276Y0025370D01*
X0337921Y0025015D01*
X0265835Y0044661D02*
X0265579Y0044917D01*
X0265579Y0047161D01*
X0331850Y0073952D02*
X0332508Y0074610D01*
X0359969Y0094701D02*
X0363118Y0091551D01*
X0368630Y0091551D01*
X0370598Y0093519D01*
X0370598Y0135645D02*
X0365480Y0135645D01*
X0359969Y0141157D01*
X0195697Y0041748D02*
X0195697Y0035704D01*
X0195598Y0035606D01*
X0136228Y0035212D02*
X0135165Y0034149D01*
X0135165Y0031413D01*
X0032803Y0016748D02*
X0022173Y0016748D01*
X0019811Y0091551D02*
X0032803Y0091551D01*
D25*
X0008000Y0115173D02*
X0008000Y0116551D01*
X0007606Y0116945D01*
X0007606Y0122063D02*
X0007606Y0132496D01*
X0012134Y0132496D01*
X0018118Y0138480D01*
X0018118Y0137889D01*
X0019811Y0124622D02*
X0019417Y0124228D01*
X0013118Y0124228D01*
X0143039Y0036039D02*
X0143039Y0035330D01*
X0142921Y0035212D01*
X0337528Y0052181D02*
X0344969Y0044740D01*
X0344969Y0035212D01*
D26*
X0272567Y0039189D02*
X0271346Y0037968D01*
X0265835Y0037968D01*
X0272567Y0039189D02*
X0272567Y0049819D01*
X0265874Y0056512D01*
X0264693Y0056512D01*
X0202291Y0035606D02*
X0202291Y0029937D01*
X0199732Y0027378D01*
X0155638Y0027378D01*
X0150913Y0032102D01*
X0150913Y0036433D01*
X0032409Y0158086D02*
X0026898Y0163598D01*
X0013000Y0163598D01*
X0008118Y0168480D01*
X0126386Y0168756D02*
X0126386Y0161748D01*
X0126504Y0161630D01*
X0169417Y0177378D02*
X0170205Y0176590D01*
X0172173Y0175015D01*
X0184378Y0175015D01*
X0194614Y0185252D01*
X0233197Y0185252D01*
X0243433Y0175015D01*
X0259181Y0175015D01*
X0263118Y0178952D01*
X0309181Y0178952D01*
X0313512Y0174622D01*
X0317843Y0174622D01*
X0323787Y0168677D01*
X0326071Y0168677D01*
X0259693Y0167889D02*
X0250953Y0167889D01*
X0247764Y0171078D01*
X0241858Y0171078D01*
X0238709Y0174228D01*
X0231228Y0174228D01*
X0225323Y0180134D01*
X0191465Y0175409D02*
X0190795Y0175291D01*
X0190795Y0172693D01*
D27*
X0266386Y0167889D02*
X0266386Y0163086D01*
X0266661Y0162811D01*
X0262488Y0112220D02*
X0262488Y0107555D01*
X0257213Y0102279D01*
X0245894Y0102279D01*
X0240913Y0097299D01*
X0240913Y0092929D01*
X0191622Y0107555D02*
X0191622Y0112220D01*
X0191622Y0107555D02*
X0186346Y0102279D01*
X0176996Y0102279D01*
X0172016Y0097299D01*
X0172016Y0092929D01*
X0120756Y0107063D02*
X0120756Y0112220D01*
X0120756Y0107063D02*
X0116465Y0102771D01*
X0105638Y0102771D01*
X0101150Y0098283D01*
X0101150Y0092929D01*
X0050126Y0078952D02*
X0050028Y0079051D01*
X0050028Y0079149D01*
X0050126Y0070291D02*
X0050126Y0069799D01*
X0050028Y0069799D01*
X0050028Y0070193D02*
X0050126Y0070291D01*
X0032803Y0070291D02*
X0032803Y0069799D01*
X0032803Y0078952D02*
X0032803Y0079149D01*
X0032409Y0113992D02*
X0032803Y0114386D01*
X0032803Y0123047D02*
X0032409Y0123047D01*
X0050126Y0114386D02*
X0050126Y0113992D01*
X0044614Y0171078D02*
X0044614Y0171472D01*
X0058000Y0171472D02*
X0061543Y0171472D01*
X0061937Y0171078D01*
X0062331Y0171472D01*
X0065087Y0171472D01*
X0315717Y0098283D02*
X0315717Y0092929D01*
X0315717Y0098283D02*
X0319713Y0102279D01*
X0329063Y0102279D01*
X0333354Y0106571D01*
X0333354Y0112220D01*
X0369614Y0079149D02*
X0370598Y0078952D01*
X0370402Y0070488D02*
X0370008Y0070291D01*
X0370402Y0070488D02*
X0370598Y0070291D01*
X0387921Y0070291D02*
X0388118Y0070488D01*
X0388512Y0070291D01*
X0387921Y0078952D02*
X0388118Y0079149D01*
X0370598Y0034071D02*
X0370205Y0034071D01*
X0370205Y0025409D02*
X0370598Y0025409D01*
X0370402Y0158185D02*
X0370402Y0158382D01*
X0370402Y0158185D02*
X0370598Y0158480D01*
X0387921Y0158480D02*
X0388118Y0158185D01*
X0388118Y0158382D01*
X0387921Y0167141D02*
X0388118Y0167338D01*
X0388118Y0167240D01*
X0370598Y0167141D02*
X0370402Y0167338D01*
X0369614Y0167240D01*
X0060657Y0029346D02*
X0050126Y0029346D01*
X0050126Y0038008D02*
X0050126Y0038303D01*
X0050028Y0038303D01*
X0032803Y0038303D02*
X0032803Y0038008D01*
X0032803Y0029346D02*
X0032803Y0028952D01*
D28*
X0060657Y0029346D02*
X0076110Y0029346D01*
X0088709Y0016748D01*
X0109969Y0016748D01*
X0109969Y0037614D01*
X0112331Y0039976D01*
X0112331Y0042437D01*
X0100039Y0054728D01*
X0100039Y0063598D01*
X0100039Y0071090D01*
X0111150Y0082201D01*
X0111150Y0092929D01*
X0121150Y0092929D02*
X0132181Y0081897D01*
X0132181Y0065291D01*
X0132594Y0064878D01*
X0146976Y0064878D01*
X0166307Y0073134D02*
X0166551Y0073134D01*
X0167646Y0074228D01*
X0199142Y0057004D02*
X0199240Y0056905D01*
X0199339Y0056905D01*
X0185559Y0048638D02*
X0185559Y0038401D01*
X0185559Y0048638D02*
X0177291Y0056905D01*
X0148157Y0051000D02*
X0146583Y0052575D01*
X0146484Y0052575D01*
X0126110Y0051000D02*
X0126110Y0045488D01*
X0124831Y0044208D01*
X0090382Y0042043D02*
X0090283Y0037417D01*
X0090283Y0039976D01*
X0111051Y0063401D02*
X0111236Y0063401D01*
X0111236Y0063598D01*
X0120984Y0065291D02*
X0120984Y0067641D01*
X0115972Y0072653D01*
X0101150Y0092929D02*
X0091268Y0092929D01*
X0079260Y0104937D01*
X0120756Y0112220D02*
X0122008Y0113472D01*
X0122008Y0132378D01*
X0133205Y0132378D02*
X0135165Y0134338D01*
X0135165Y0143618D01*
X0145500Y0143618D02*
X0145795Y0143913D01*
X0145795Y0146669D01*
X0158787Y0153460D02*
X0158787Y0154752D01*
X0151701Y0161838D01*
X0168236Y0166354D02*
X0175717Y0158874D01*
X0182803Y0158874D01*
X0204850Y0158874D02*
X0209969Y0153756D01*
X0209969Y0137220D01*
X0199583Y0136945D02*
X0199583Y0120181D01*
X0191622Y0112220D01*
X0220992Y0104937D02*
X0233000Y0092929D01*
X0240913Y0092929D01*
X0262488Y0112220D02*
X0267220Y0116952D01*
X0267220Y0126393D01*
X0244909Y0126393D01*
X0239496Y0131807D01*
X0256024Y0138598D02*
X0256024Y0140952D01*
X0258689Y0143618D01*
X0267220Y0138598D02*
X0267220Y0126393D01*
X0278374Y0138697D02*
X0278374Y0153067D01*
X0275717Y0155724D01*
X0290283Y0156031D02*
X0290283Y0147543D01*
X0306819Y0145094D02*
X0309181Y0145094D01*
X0324665Y0135744D02*
X0327441Y0138519D01*
X0324665Y0135744D02*
X0313315Y0135744D01*
X0303276Y0133874D02*
X0303276Y0129051D01*
X0306917Y0125409D01*
X0338638Y0125409D01*
X0338638Y0138519D01*
X0346780Y0150015D02*
X0346583Y0150212D01*
X0346583Y0155330D01*
X0324535Y0155330D02*
X0318827Y0155330D01*
X0309181Y0164976D01*
X0309181Y0167141D01*
X0290283Y0167228D02*
X0290283Y0170586D01*
X0290185Y0170685D01*
X0253669Y0155724D02*
X0249339Y0155724D01*
X0239890Y0165173D01*
X0225224Y0157311D02*
X0225224Y0153460D01*
X0225224Y0157311D02*
X0220598Y0161937D01*
X0220598Y0173134D02*
X0220315Y0173134D01*
X0215382Y0178067D01*
X0192744Y0147555D02*
X0188386Y0143197D01*
X0188386Y0136945D01*
X0171583Y0145586D02*
X0169516Y0145586D01*
X0168236Y0144307D01*
X0123748Y0146669D02*
X0123748Y0148638D01*
X0109181Y0163204D01*
X0104457Y0163204D01*
X0091858Y0156425D02*
X0091858Y0147937D01*
X0104654Y0144110D02*
X0104654Y0141157D01*
X0104457Y0141157D01*
X0091858Y0136740D02*
X0091858Y0132299D01*
X0150126Y0104937D02*
X0162134Y0092929D01*
X0172016Y0092929D01*
X0215382Y0072260D02*
X0218051Y0069590D01*
X0219417Y0069590D01*
X0241858Y0050212D02*
X0242252Y0050212D01*
X0256425Y0036039D01*
X0280835Y0033382D02*
X0288894Y0033382D01*
X0291858Y0036346D01*
X0305933Y0038303D02*
X0306425Y0037811D01*
X0306425Y0037220D01*
X0291858Y0047543D02*
X0291858Y0053756D01*
X0294122Y0056019D01*
X0317843Y0050606D02*
X0322665Y0050606D01*
X0328472Y0044799D01*
X0328472Y0037220D01*
X0335559Y0060449D02*
X0332016Y0063992D01*
X0332016Y0073787D01*
X0331850Y0073952D01*
X0343047Y0073952D02*
X0343047Y0071563D01*
X0343335Y0071275D01*
X0343047Y0073952D02*
X0343047Y0077181D01*
X0343047Y0085598D01*
X0335717Y0092929D01*
X0315717Y0092929D02*
X0303866Y0092929D01*
X0291858Y0104937D01*
X0333354Y0112220D02*
X0338638Y0117504D01*
X0338638Y0125409D01*
X0290283Y0134858D02*
X0289693Y0134267D01*
X0290283Y0134858D02*
X0290283Y0136346D01*
X0239988Y0143224D02*
X0239890Y0143126D01*
X0239988Y0143224D02*
X0239988Y0145586D01*
X0317843Y0072653D02*
X0317843Y0066748D01*
X0318236Y0066354D01*
X0335559Y0060449D02*
X0343039Y0060449D01*
X0163512Y0038401D02*
X0163217Y0038106D01*
X0163217Y0034858D01*
M02*
