G75*
%MOIN*%
%OFA0B0*%
%FSLAX25Y25*%
%IPPOS*%
%LPD*%
%AMOC8*
5,1,8,0,0,1.08239X$1,22.5*
%
%ADD10C,0.05937*%
%ADD11C,0.06909*%
%ADD12C,0.06000*%
%ADD13C,0.03569*%
%ADD14C,0.01600*%
%ADD15C,0.05000*%
%ADD16C,0.05600*%
%ADD17C,0.03200*%
D10*
X0101150Y0092929D03*
X0111150Y0092929D03*
X0121150Y0092929D03*
X0120756Y0112220D03*
X0110756Y0112220D03*
X0100756Y0112220D03*
X0171622Y0112220D03*
X0181622Y0112220D03*
X0191622Y0112220D03*
X0192016Y0092929D03*
X0182016Y0092929D03*
X0172016Y0092929D03*
X0240913Y0092929D03*
X0250913Y0092929D03*
X0260913Y0092929D03*
X0262488Y0112220D03*
X0252488Y0112220D03*
X0242488Y0112220D03*
X0313354Y0112220D03*
X0323354Y0112220D03*
X0333354Y0112220D03*
X0335717Y0092929D03*
X0325717Y0092929D03*
X0315717Y0092929D03*
D11*
X0322567Y0016748D03*
X0251701Y0016748D03*
X0180835Y0016748D03*
X0109969Y0016748D03*
X0109969Y0182102D03*
X0180835Y0182102D03*
X0251701Y0182102D03*
X0322567Y0182102D03*
D12*
X0018118Y0178480D03*
X0008118Y0178480D03*
X0008118Y0168480D03*
X0018118Y0168480D03*
X0018118Y0158480D03*
X0008118Y0158480D03*
X0008118Y0148480D03*
X0018118Y0148480D03*
X0018118Y0138480D03*
X0008118Y0138480D03*
D13*
X0040677Y0014386D03*
X0042252Y0021078D03*
X0032803Y0028952D03*
X0032803Y0038303D03*
X0050028Y0038303D03*
X0060657Y0029346D03*
X0090382Y0042043D03*
X0124831Y0044208D03*
X0143039Y0036039D03*
X0150913Y0036433D03*
X0163217Y0034858D03*
X0135165Y0031413D03*
X0146484Y0052575D03*
X0162213Y0052594D03*
X0162232Y0052575D03*
X0146976Y0064878D03*
X0167646Y0074228D03*
X0201110Y0077279D03*
X0215382Y0072260D03*
X0213413Y0058480D03*
X0199142Y0057004D03*
X0226701Y0049130D03*
X0195697Y0041748D03*
X0212724Y0032496D03*
X0226701Y0027476D03*
X0265579Y0047161D03*
X0264693Y0056512D03*
X0244417Y0067338D03*
X0268531Y0071275D03*
X0294122Y0056019D03*
X0318236Y0066354D03*
X0343039Y0060449D03*
X0337528Y0052181D03*
X0305933Y0038303D03*
X0280835Y0033382D03*
X0337921Y0025015D03*
X0370205Y0025409D03*
X0370205Y0034071D03*
X0387921Y0034071D03*
X0387921Y0025409D03*
X0379654Y0043126D03*
X0379260Y0051787D03*
X0388512Y0070291D03*
X0388118Y0079149D03*
X0379260Y0088008D03*
X0379654Y0097063D03*
X0387921Y0114386D03*
X0387921Y0123047D03*
X0379654Y0131708D03*
X0370598Y0123047D03*
X0370598Y0114386D03*
X0379654Y0141157D03*
X0388118Y0158382D03*
X0388118Y0167240D03*
X0379654Y0175015D03*
X0380047Y0184464D03*
X0369614Y0167240D03*
X0370402Y0158382D03*
X0346780Y0150015D03*
X0332409Y0165960D03*
X0341858Y0168716D03*
X0306819Y0145094D03*
X0313315Y0135744D03*
X0303276Y0133874D03*
X0289693Y0134267D03*
X0278374Y0138697D03*
X0258689Y0143618D03*
X0239988Y0145586D03*
X0225224Y0153460D03*
X0209161Y0168716D03*
X0199634Y0172161D03*
X0191465Y0175409D03*
X0169417Y0177378D03*
X0149929Y0174819D03*
X0142646Y0168323D03*
X0133197Y0172161D03*
X0126504Y0161630D03*
X0135165Y0143618D03*
X0145500Y0143618D03*
X0158787Y0153460D03*
X0171583Y0145586D03*
X0192744Y0147555D03*
X0209969Y0137220D03*
X0239496Y0131807D03*
X0266661Y0162811D03*
X0277685Y0168716D03*
X0290185Y0170685D03*
X0225323Y0180134D03*
X0215382Y0178067D03*
X0104654Y0144110D03*
X0091858Y0132299D03*
X0061937Y0136827D03*
X0050126Y0144307D03*
X0041071Y0141945D03*
X0032803Y0148244D03*
X0032409Y0158086D03*
X0044614Y0162417D03*
X0061937Y0162417D03*
X0058000Y0171472D03*
X0044614Y0171472D03*
X0026898Y0181708D03*
X0070992Y0182889D03*
X0076110Y0182889D03*
X0081622Y0155724D03*
X0050126Y0123047D03*
X0050126Y0113992D03*
X0032409Y0113992D03*
X0032409Y0123047D03*
X0013118Y0124228D03*
X0008000Y0115173D03*
X0007606Y0107693D03*
X0012724Y0098244D03*
X0019811Y0091551D03*
X0021386Y0083677D03*
X0032803Y0079149D03*
X0032803Y0069799D03*
X0050028Y0069799D03*
X0050028Y0079149D03*
X0041465Y0087220D03*
X0041858Y0096669D03*
X0111051Y0063401D03*
X0115972Y0072653D03*
X0343335Y0071275D03*
X0370008Y0070291D03*
X0369614Y0079149D03*
D14*
X0150913Y0037614D02*
X0150913Y0036433D01*
X0150913Y0037614D02*
X0148551Y0039976D01*
X0131622Y0039976D01*
X0121386Y0029740D01*
X0080441Y0029740D01*
X0054063Y0056118D01*
X0019024Y0056118D01*
X0012724Y0062417D01*
X0012724Y0091945D01*
X0024142Y0103362D01*
X0024142Y0127771D01*
X0028079Y0131708D01*
X0028079Y0145094D01*
X0026110Y0147063D01*
X0026110Y0151000D01*
X0032409Y0157299D01*
X0032409Y0158086D01*
X0025323Y0160055D02*
X0025323Y0155685D01*
X0018118Y0148480D01*
X0022173Y0143519D02*
X0012724Y0143519D01*
X0008118Y0148126D01*
X0008118Y0148480D01*
X0022173Y0143519D02*
X0024142Y0141551D01*
X0024142Y0135252D01*
X0018630Y0129740D01*
X0018630Y0115960D01*
X0012724Y0110055D01*
X0012724Y0098244D01*
X0007606Y0107693D02*
X0007606Y0055330D01*
X0011150Y0051787D01*
X0051701Y0051787D01*
X0077291Y0026197D01*
X0123748Y0026197D01*
X0132803Y0035252D01*
X0142252Y0035252D01*
X0143039Y0036039D01*
X0018118Y0158480D02*
X0042528Y0182889D01*
X0070992Y0182889D01*
X0071780Y0178559D02*
X0076110Y0182889D01*
X0071780Y0178559D02*
X0043827Y0178559D01*
X0025323Y0160055D01*
D15*
X0050126Y0113992D02*
X0083197Y0080921D01*
X0144220Y0080921D01*
X0162213Y0062929D01*
X0162213Y0052594D01*
X0226701Y0049130D02*
X0226701Y0041748D01*
X0251701Y0016748D01*
X0294122Y0023933D02*
X0301307Y0016748D01*
X0322567Y0016748D01*
X0294122Y0023933D02*
X0294122Y0056019D01*
X0250913Y0080527D02*
X0250126Y0079740D01*
X0250913Y0080527D02*
X0250913Y0092929D01*
X0246386Y0079641D02*
X0235067Y0079641D01*
X0226701Y0071275D01*
X0226701Y0049130D01*
X0313315Y0112260D02*
X0313315Y0135744D01*
X0323354Y0141551D02*
X0323354Y0112220D01*
D16*
X0313354Y0112220D02*
X0313315Y0112260D01*
X0323354Y0141551D02*
X0323354Y0181315D01*
X0322567Y0182102D01*
X0251701Y0182102D02*
X0249339Y0179740D01*
X0249339Y0133283D01*
X0252488Y0130134D01*
X0252488Y0112220D01*
X0250126Y0079740D02*
X0246484Y0079740D01*
X0246386Y0079641D01*
X0250126Y0079740D02*
X0340677Y0079740D01*
X0370598Y0109661D01*
X0370598Y0112417D01*
X0369024Y0069110D02*
X0360362Y0060449D01*
X0343039Y0060449D01*
X0182016Y0075311D02*
X0162232Y0055527D01*
X0162232Y0052575D01*
X0162213Y0052594D02*
X0180835Y0033972D01*
X0180835Y0016748D01*
X0182016Y0075311D02*
X0182016Y0092929D01*
X0181622Y0112220D02*
X0181622Y0182102D01*
X0180835Y0182102D01*
X0110756Y0182102D02*
X0109969Y0182102D01*
X0110756Y0182102D02*
X0110756Y0112220D01*
D17*
X0370598Y0112417D02*
X0370598Y0114386D01*
X0370008Y0070291D02*
X0369024Y0069307D01*
X0369024Y0069110D01*
M02*
