G75*
%MOIN*%
%OFA0B0*%
%FSLAX25Y25*%
%IPPOS*%
%LPD*%
%AMOC8*
5,1,8,0,0,1.08239X$1,22.5*
%
%ADD10R,0.07008X0.05984*%
%ADD11C,0.05937*%
%ADD12R,0.06299X0.10630*%
%ADD13R,0.12598X0.07087*%
%ADD14R,0.10630X0.06299*%
%ADD15R,0.07098X0.06299*%
%ADD16R,0.07087X0.12598*%
%ADD17R,0.06299X0.07098*%
%ADD18OC8,0.06909*%
%ADD19OC8,0.06000*%
%ADD20R,0.04724X0.04724*%
%ADD21R,0.07874X0.03150*%
%ADD22C,0.03569*%
%ADD23C,0.05000*%
%ADD24C,0.03200*%
%ADD25C,0.04000*%
%ADD26C,0.01600*%
%ADD27C,0.05600*%
%ADD28C,0.02400*%
D10*
X0125047Y0029523D03*
X0135047Y0029523D03*
X0145047Y0029523D03*
X0180441Y0035035D03*
X0190441Y0035035D03*
X0200441Y0035035D03*
X0244102Y0034641D03*
X0254102Y0034641D03*
X0264102Y0034641D03*
X0317409Y0034760D03*
X0327409Y0034760D03*
X0337409Y0034760D03*
X0337409Y0071334D03*
X0327409Y0071334D03*
X0317409Y0071334D03*
X0264102Y0071216D03*
X0254102Y0071216D03*
X0244102Y0071216D03*
X0200441Y0071610D03*
X0190441Y0071610D03*
X0180441Y0071610D03*
X0145047Y0066098D03*
X0135047Y0066098D03*
X0125047Y0066098D03*
X0122016Y0132240D03*
X0132016Y0132240D03*
X0142016Y0132240D03*
X0189063Y0132240D03*
X0199063Y0132240D03*
X0209063Y0132240D03*
X0255323Y0132240D03*
X0265323Y0132240D03*
X0275323Y0132240D03*
X0320402Y0132240D03*
X0330402Y0132240D03*
X0340402Y0132240D03*
X0340402Y0168815D03*
X0330402Y0168815D03*
X0320402Y0168815D03*
X0275323Y0168815D03*
X0265323Y0168815D03*
X0255323Y0168815D03*
X0209063Y0168815D03*
X0199063Y0168815D03*
X0189063Y0168815D03*
X0142016Y0168815D03*
X0132016Y0168815D03*
X0122016Y0168815D03*
D11*
X0120756Y0115189D02*
X0120756Y0109252D01*
X0110756Y0109252D02*
X0110756Y0115189D01*
X0100756Y0115189D02*
X0100756Y0109252D01*
X0101150Y0095897D02*
X0101150Y0089960D01*
X0111150Y0089960D02*
X0111150Y0095897D01*
X0121150Y0095897D02*
X0121150Y0089960D01*
X0172016Y0089960D02*
X0172016Y0095897D01*
X0182016Y0095897D02*
X0182016Y0089960D01*
X0192016Y0089960D02*
X0192016Y0095897D01*
X0191622Y0109252D02*
X0191622Y0115189D01*
X0181622Y0115189D02*
X0181622Y0109252D01*
X0171622Y0109252D02*
X0171622Y0115189D01*
X0240913Y0095897D02*
X0240913Y0089960D01*
X0250913Y0089960D02*
X0250913Y0095897D01*
X0260913Y0095897D02*
X0260913Y0089960D01*
X0262488Y0109252D02*
X0262488Y0115189D01*
X0252488Y0115189D02*
X0252488Y0109252D01*
X0242488Y0109252D02*
X0242488Y0115189D01*
X0313354Y0115189D02*
X0313354Y0109252D01*
X0323354Y0109252D02*
X0323354Y0115189D01*
X0333354Y0115189D02*
X0333354Y0109252D01*
X0335717Y0095897D02*
X0335717Y0089960D01*
X0325717Y0089960D02*
X0325717Y0095897D01*
X0315717Y0095897D02*
X0315717Y0089960D01*
D12*
X0295953Y0075449D03*
X0284929Y0075449D03*
X0226622Y0075449D03*
X0215598Y0075449D03*
X0144811Y0075764D03*
X0133787Y0075764D03*
X0106780Y0131748D03*
X0095756Y0131748D03*
X0161937Y0131354D03*
X0172961Y0131354D03*
X0228551Y0131748D03*
X0239575Y0131748D03*
X0291898Y0132141D03*
X0302921Y0132141D03*
D13*
X0304457Y0144701D03*
X0304457Y0166748D03*
X0239890Y0165173D03*
X0239890Y0143126D03*
X0172961Y0145488D03*
X0172961Y0167535D03*
X0104457Y0166354D03*
X0104457Y0144307D03*
X0226504Y0058480D03*
X0226504Y0036433D03*
X0162213Y0030764D03*
X0162213Y0052811D03*
X0294220Y0060449D03*
X0294220Y0038401D03*
D14*
X0087882Y0067378D03*
X0087882Y0078401D03*
D15*
X0158394Y0073134D03*
X0167449Y0073134D03*
X0167449Y0061937D03*
X0158394Y0061937D03*
X0212724Y0046756D03*
X0212724Y0035559D03*
X0278079Y0033197D03*
X0278079Y0044393D03*
X0278079Y0053275D03*
X0278079Y0064472D03*
X0225323Y0142252D03*
X0225323Y0153449D03*
X0225323Y0161937D03*
X0225323Y0173134D03*
X0158787Y0172740D03*
X0158787Y0161543D03*
X0158787Y0153055D03*
X0158787Y0141858D03*
X0091858Y0156425D03*
X0091858Y0167622D03*
X0290087Y0167130D03*
X0290087Y0155933D03*
D16*
X0112331Y0039976D03*
X0090283Y0039976D03*
D17*
X0084685Y0053362D03*
X0095882Y0053362D03*
X0100039Y0063598D03*
X0111236Y0063598D03*
D18*
X0109969Y0016748D03*
X0180835Y0016748D03*
X0251701Y0016748D03*
X0322567Y0016748D03*
X0322567Y0182102D03*
X0251701Y0182102D03*
X0180835Y0182102D03*
X0109969Y0182102D03*
D19*
X0018118Y0178480D03*
X0008118Y0178480D03*
X0008118Y0168480D03*
X0018118Y0168480D03*
X0018118Y0158480D03*
X0008118Y0158480D03*
X0008118Y0148480D03*
X0018118Y0148480D03*
X0018118Y0138480D03*
X0008118Y0138480D03*
D20*
X0008000Y0123638D03*
X0008000Y0115370D03*
D21*
X0032803Y0114386D03*
X0032803Y0123047D03*
X0050126Y0123047D03*
X0050126Y0114386D03*
X0050126Y0105724D03*
X0032803Y0105724D03*
X0032803Y0091551D03*
X0050126Y0091551D03*
X0050126Y0078952D03*
X0050126Y0070291D03*
X0050126Y0061630D03*
X0032803Y0061630D03*
X0032803Y0070291D03*
X0032803Y0078952D03*
X0032803Y0046669D03*
X0032803Y0038008D03*
X0032803Y0029346D03*
X0050126Y0029346D03*
X0050126Y0038008D03*
X0050126Y0046669D03*
X0050126Y0016748D03*
X0032803Y0016748D03*
X0032803Y0135645D03*
X0050126Y0135645D03*
X0044614Y0149819D03*
X0061937Y0149819D03*
X0061937Y0162417D03*
X0044614Y0162417D03*
X0044614Y0171078D03*
X0044614Y0179740D03*
X0061937Y0179740D03*
X0061937Y0171078D03*
X0370598Y0167141D03*
X0387921Y0167141D03*
X0387921Y0158480D03*
X0387921Y0149819D03*
X0370598Y0149819D03*
X0370598Y0158480D03*
X0370598Y0179740D03*
X0387921Y0179740D03*
X0387921Y0135645D03*
X0370598Y0135645D03*
X0370598Y0123047D03*
X0370598Y0114386D03*
X0387921Y0114386D03*
X0387921Y0123047D03*
X0387921Y0105724D03*
X0370598Y0105724D03*
X0370598Y0091551D03*
X0387921Y0091551D03*
X0387921Y0078952D03*
X0387921Y0070291D03*
X0387921Y0061630D03*
X0370598Y0061630D03*
X0370598Y0070291D03*
X0370598Y0078952D03*
X0370598Y0046669D03*
X0387921Y0046669D03*
X0387921Y0034071D03*
X0387921Y0025409D03*
X0387921Y0016748D03*
X0370598Y0016748D03*
X0370598Y0025409D03*
X0370598Y0034071D03*
D22*
X0370205Y0034071D03*
X0370205Y0025409D03*
X0387921Y0025409D03*
X0387921Y0034071D03*
X0379654Y0043126D03*
X0379260Y0051787D03*
X0388512Y0070291D03*
X0388118Y0079149D03*
X0379260Y0088008D03*
X0379654Y0097063D03*
X0387921Y0114386D03*
X0387921Y0123047D03*
X0379654Y0131708D03*
X0370598Y0123047D03*
X0370598Y0114386D03*
X0379654Y0141157D03*
X0388118Y0158382D03*
X0388118Y0167240D03*
X0379654Y0175015D03*
X0380047Y0184464D03*
X0369614Y0167240D03*
X0370402Y0158382D03*
X0346780Y0150015D03*
X0332409Y0165960D03*
X0341858Y0168716D03*
X0306819Y0145094D03*
X0313315Y0135744D03*
X0303276Y0133874D03*
X0289693Y0134267D03*
X0278374Y0138697D03*
X0258689Y0143618D03*
X0239988Y0145586D03*
X0225224Y0153460D03*
X0209161Y0168716D03*
X0199634Y0172161D03*
X0191465Y0175409D03*
X0169417Y0177378D03*
X0149929Y0174819D03*
X0142646Y0168323D03*
X0133197Y0172161D03*
X0126504Y0161630D03*
X0135165Y0143618D03*
X0145500Y0143618D03*
X0158787Y0153460D03*
X0171583Y0145586D03*
X0192744Y0147555D03*
X0209969Y0137220D03*
X0239496Y0131807D03*
X0266661Y0162811D03*
X0277685Y0168716D03*
X0290185Y0170685D03*
X0225323Y0180134D03*
X0215382Y0178067D03*
X0104654Y0144110D03*
X0091858Y0132299D03*
X0061937Y0136827D03*
X0050126Y0144307D03*
X0041071Y0141945D03*
X0032803Y0148244D03*
X0032409Y0158086D03*
X0044614Y0162417D03*
X0061937Y0162417D03*
X0058000Y0171472D03*
X0044614Y0171472D03*
X0026898Y0181708D03*
X0070992Y0182889D03*
X0076110Y0182889D03*
X0081622Y0155724D03*
X0050126Y0123047D03*
X0050126Y0113992D03*
X0032409Y0113992D03*
X0032409Y0123047D03*
X0013118Y0124228D03*
X0008000Y0115173D03*
X0007606Y0107693D03*
X0012724Y0098244D03*
X0019811Y0091551D03*
X0021386Y0083677D03*
X0032803Y0079149D03*
X0032803Y0069799D03*
X0050028Y0069799D03*
X0050028Y0079149D03*
X0041465Y0087220D03*
X0041858Y0096669D03*
X0111051Y0063401D03*
X0115972Y0072653D03*
X0146976Y0064878D03*
X0167646Y0074228D03*
X0201110Y0077279D03*
X0215382Y0072260D03*
X0213413Y0058480D03*
X0199142Y0057004D03*
X0226701Y0049130D03*
X0195697Y0041748D03*
X0212724Y0032496D03*
X0226701Y0027476D03*
X0265579Y0047161D03*
X0264693Y0056512D03*
X0244417Y0067338D03*
X0268531Y0071275D03*
X0294122Y0056019D03*
X0318236Y0066354D03*
X0343039Y0060449D03*
X0337528Y0052181D03*
X0305933Y0038303D03*
X0280835Y0033382D03*
X0337921Y0025015D03*
X0370008Y0070291D03*
X0369614Y0079149D03*
X0343335Y0071275D03*
X0163217Y0034858D03*
X0150913Y0036433D03*
X0143039Y0036039D03*
X0135165Y0031413D03*
X0124831Y0044208D03*
X0146484Y0052575D03*
X0162213Y0052594D03*
X0162232Y0052575D03*
X0090382Y0042043D03*
X0060657Y0029346D03*
X0050028Y0038303D03*
X0032803Y0038303D03*
X0032803Y0028952D03*
X0042252Y0021078D03*
X0040677Y0014386D03*
D23*
X0035165Y0014386D01*
X0032803Y0016748D01*
X0042252Y0021078D02*
X0045795Y0021078D01*
X0050126Y0016748D01*
X0162213Y0052594D02*
X0162213Y0052811D01*
X0162213Y0052594D02*
X0162232Y0052575D01*
X0200441Y0071610D02*
X0201110Y0072279D01*
X0201110Y0077279D01*
X0201110Y0083834D01*
X0192016Y0092929D01*
X0244102Y0071216D02*
X0244102Y0067653D01*
X0244417Y0067338D01*
X0226701Y0058283D02*
X0226701Y0049130D01*
X0226701Y0058283D02*
X0226504Y0058480D01*
X0213413Y0058480D02*
X0212724Y0057791D01*
X0212724Y0046756D01*
X0212724Y0035559D02*
X0212724Y0032496D01*
X0226504Y0036433D02*
X0226701Y0036236D01*
X0226701Y0027476D01*
X0264102Y0071216D02*
X0268098Y0071275D01*
X0268531Y0071275D01*
X0347764Y0016748D02*
X0355638Y0024622D01*
X0367843Y0024622D01*
X0347764Y0016748D02*
X0322567Y0016748D01*
X0370598Y0046669D02*
X0375717Y0051787D01*
X0379260Y0051787D01*
X0386740Y0046669D02*
X0387921Y0046669D01*
X0386740Y0046669D02*
X0383197Y0043126D01*
X0379654Y0043126D01*
X0379260Y0088008D02*
X0375323Y0088008D01*
X0371780Y0091551D01*
X0379654Y0097063D02*
X0382409Y0097063D01*
X0387921Y0091551D01*
X0383197Y0131708D02*
X0379654Y0131708D01*
X0383197Y0131708D02*
X0387134Y0135645D01*
X0387921Y0135645D01*
X0379654Y0141157D02*
X0376110Y0141157D01*
X0370598Y0135645D01*
X0340402Y0168815D02*
X0351327Y0179740D01*
X0370598Y0179740D01*
X0372173Y0179740D01*
X0376898Y0175015D01*
X0379654Y0175015D01*
X0387921Y0179740D02*
X0383197Y0184464D01*
X0380047Y0184464D01*
X0172961Y0167535D02*
X0172222Y0168273D01*
X0170598Y0168273D01*
X0167892Y0168273D01*
X0163906Y0172260D01*
X0158787Y0172260D01*
X0158787Y0172740D01*
X0109969Y0182102D02*
X0095488Y0167622D01*
X0091858Y0167622D01*
X0101220Y0167622D01*
X0104457Y0166354D01*
X0091858Y0156425D02*
X0091157Y0155724D01*
X0081622Y0155724D01*
X0061937Y0149819D02*
X0061937Y0136827D01*
X0050126Y0135645D02*
X0050126Y0144307D01*
X0041071Y0141945D02*
X0039102Y0141945D01*
X0032803Y0135645D01*
X0106780Y0131748D02*
X0107173Y0131748D01*
X0120756Y0118165D01*
X0120756Y0112220D01*
X0050126Y0091551D02*
X0045008Y0096669D01*
X0041858Y0096669D01*
X0034378Y0091551D02*
X0038709Y0087220D01*
X0041465Y0087220D01*
X0034378Y0091551D02*
X0032803Y0091551D01*
D24*
X0032803Y0079149D02*
X0032803Y0078952D01*
X0033000Y0079149D01*
X0050028Y0079149D01*
X0050028Y0079051D01*
X0050126Y0078952D01*
X0050126Y0070291D02*
X0049634Y0069799D01*
X0050028Y0069799D02*
X0041661Y0069799D01*
X0041169Y0069307D01*
X0041169Y0038008D01*
X0050126Y0038008D01*
X0050028Y0038008D01*
X0050028Y0038303D01*
X0041169Y0038008D02*
X0032803Y0038008D01*
X0032803Y0038303D01*
X0032803Y0029346D02*
X0050126Y0029346D01*
X0050028Y0029346D01*
X0050126Y0029346D02*
X0060657Y0029346D01*
X0050126Y0016748D02*
X0090283Y0016748D01*
X0100520Y0026984D01*
X0124929Y0026984D01*
X0124929Y0025409D01*
X0130047Y0020291D01*
X0169811Y0020291D01*
X0180441Y0030921D01*
X0180441Y0035035D01*
X0180441Y0031708D01*
X0188315Y0023834D01*
X0211937Y0023834D01*
X0216661Y0019110D01*
X0232409Y0019110D01*
X0242252Y0028952D01*
X0242252Y0033283D01*
X0243610Y0034641D01*
X0244102Y0034641D01*
X0244102Y0030252D01*
X0248157Y0026197D01*
X0259181Y0026197D01*
X0261543Y0023834D01*
X0306484Y0023834D01*
X0317409Y0034760D01*
X0317409Y0039937D01*
X0324142Y0046669D01*
X0370598Y0046669D01*
X0370598Y0034071D02*
X0370205Y0034071D01*
X0387921Y0034071D01*
X0387921Y0025409D02*
X0370598Y0025409D01*
X0370205Y0025409D01*
X0369417Y0024622D01*
X0367843Y0024622D01*
X0370008Y0070291D02*
X0370402Y0070488D01*
X0370598Y0070291D01*
X0387921Y0070291D01*
X0388118Y0070488D01*
X0388512Y0070291D01*
X0387921Y0078952D02*
X0370598Y0078952D01*
X0369614Y0079149D01*
X0387921Y0078952D02*
X0388118Y0079149D01*
X0387921Y0114386D02*
X0370598Y0114386D01*
X0370598Y0123047D02*
X0387921Y0123047D01*
X0387921Y0158185D02*
X0387921Y0158480D01*
X0388118Y0158480D02*
X0388118Y0158382D01*
X0387921Y0158185D01*
X0388118Y0158480D02*
X0370598Y0158480D01*
X0370598Y0158185D01*
X0370402Y0158382D01*
X0370598Y0167043D02*
X0370598Y0167141D01*
X0387921Y0167141D01*
X0387921Y0167043D01*
X0388118Y0167240D01*
X0370598Y0167043D02*
X0369614Y0167240D01*
X0266661Y0167476D02*
X0266661Y0162811D01*
X0266661Y0167476D02*
X0265323Y0168815D01*
X0150913Y0174622D02*
X0150126Y0174622D01*
X0149929Y0174819D01*
X0061937Y0171078D02*
X0061543Y0171472D01*
X0058000Y0171472D01*
X0061937Y0171078D02*
X0044614Y0171078D01*
X0044614Y0171472D01*
X0044614Y0162417D02*
X0061937Y0162417D01*
X0050126Y0123047D02*
X0032803Y0123047D01*
X0032409Y0123047D01*
X0032803Y0114386D02*
X0050126Y0114386D01*
X0050126Y0113992D01*
X0032803Y0114386D02*
X0032409Y0113992D01*
X0090382Y0099327D02*
X0093827Y0102771D01*
X0110559Y0102771D01*
X0110756Y0102968D01*
X0110756Y0112220D01*
X0041661Y0069799D02*
X0032803Y0069799D01*
X0032803Y0070291D01*
X0032803Y0029346D02*
X0032803Y0028952D01*
X0124929Y0026984D02*
X0126898Y0028952D01*
X0125618Y0028952D01*
X0125047Y0029523D01*
D25*
X0022173Y0016748D02*
X0013906Y0025015D01*
X0013906Y0085645D01*
X0019811Y0091551D01*
X0021386Y0083677D02*
X0029260Y0091551D01*
X0032803Y0091551D01*
X0019811Y0104543D01*
X0019811Y0124622D01*
X0019811Y0136787D01*
X0018118Y0138480D01*
X0030835Y0135645D02*
X0032803Y0135645D01*
X0030835Y0135645D02*
X0019811Y0124622D01*
X0050126Y0144307D02*
X0050126Y0149819D01*
X0044614Y0149819D01*
X0032803Y0149819D01*
X0032803Y0148244D01*
X0142016Y0168815D02*
X0142508Y0168323D01*
X0142646Y0168323D01*
X0150913Y0174622D02*
X0150913Y0161543D01*
X0158787Y0161543D01*
X0209063Y0168815D02*
X0209161Y0168716D01*
X0217350Y0161937D02*
X0217350Y0176098D01*
X0215382Y0178067D01*
X0217350Y0161937D02*
X0225323Y0161937D01*
X0275323Y0168815D02*
X0275421Y0168716D01*
X0277685Y0168716D01*
X0330402Y0168815D02*
X0332409Y0166807D01*
X0332409Y0165960D01*
X0340402Y0168815D02*
X0341760Y0168815D01*
X0341858Y0168716D01*
X0359969Y0172260D02*
X0359969Y0141157D01*
X0359969Y0094701D01*
X0359969Y0051393D01*
X0364693Y0046669D01*
X0370598Y0046669D01*
X0337921Y0025015D02*
X0332508Y0025015D01*
X0327409Y0030114D01*
X0327409Y0034760D01*
X0265579Y0047161D02*
X0259181Y0047161D01*
X0254102Y0042082D01*
X0254102Y0034641D01*
X0195697Y0041748D02*
X0190441Y0036492D01*
X0190441Y0035035D01*
X0135165Y0031413D02*
X0135047Y0031295D01*
X0135047Y0029523D01*
X0068531Y0069799D02*
X0050028Y0069799D01*
X0049634Y0069799D01*
X0050126Y0078952D02*
X0050520Y0079346D01*
X0057114Y0079346D01*
X0057902Y0080134D01*
X0032803Y0091551D02*
X0029654Y0091551D01*
X0032803Y0016748D02*
X0022173Y0016748D01*
X0191622Y0112220D02*
X0191622Y0118657D01*
X0186346Y0123933D01*
X0180776Y0123933D01*
X0172961Y0131354D01*
X0359969Y0141157D02*
X0365480Y0135645D01*
X0370598Y0135645D01*
X0359969Y0172260D02*
X0367449Y0179740D01*
X0370598Y0179740D01*
X0359969Y0094701D02*
X0363118Y0091551D01*
X0370598Y0091551D01*
X0371780Y0091551D01*
D26*
X0026898Y0177260D02*
X0018118Y0168480D01*
X0026898Y0177260D02*
X0026898Y0181708D01*
D27*
X0091858Y0156425D02*
X0091858Y0156413D01*
X0104457Y0144602D02*
X0104457Y0144307D01*
X0104654Y0144110D02*
X0104457Y0144602D01*
X0122016Y0143618D02*
X0122016Y0132240D01*
X0142016Y0132240D02*
X0145500Y0135724D01*
X0145500Y0143618D01*
X0135165Y0143618D02*
X0122016Y0143618D01*
X0095756Y0131748D02*
X0091858Y0131748D01*
X0091858Y0132299D01*
X0090382Y0099327D02*
X0081524Y0090468D01*
X0071189Y0090468D01*
X0060854Y0080134D01*
X0057902Y0080134D01*
X0068531Y0069799D02*
X0077134Y0078401D01*
X0087882Y0078401D01*
X0089890Y0078401D01*
X0092350Y0078401D01*
X0110224Y0078401D01*
X0115972Y0072653D01*
X0125047Y0066098D02*
X0125047Y0057771D01*
X0129260Y0053559D01*
X0145500Y0053559D01*
X0146484Y0052575D01*
X0158394Y0061937D02*
X0167449Y0061937D01*
X0180441Y0060941D02*
X0184378Y0057004D01*
X0199142Y0057004D01*
X0180441Y0060941D02*
X0180441Y0071610D01*
X0167646Y0073330D02*
X0167449Y0073134D01*
X0167646Y0073330D02*
X0167646Y0074228D01*
X0158394Y0073134D02*
X0155764Y0075764D01*
X0144811Y0075764D01*
X0133787Y0075764D02*
X0133787Y0086138D01*
X0140579Y0092929D01*
X0172016Y0092929D01*
X0215382Y0075232D02*
X0215382Y0072260D01*
X0215382Y0075232D02*
X0215598Y0075449D01*
X0226622Y0075449D02*
X0226622Y0086551D01*
X0233000Y0092929D01*
X0240913Y0092929D01*
X0278079Y0068598D02*
X0284929Y0075449D01*
X0295953Y0075449D02*
X0295953Y0085015D01*
X0303866Y0092929D01*
X0315717Y0092929D01*
X0317409Y0071334D02*
X0317409Y0067181D01*
X0318236Y0066354D01*
X0337409Y0071334D02*
X0337469Y0071275D01*
X0343335Y0071275D01*
X0294220Y0060449D02*
X0294220Y0056118D01*
X0294122Y0056019D01*
X0278079Y0053275D02*
X0278079Y0044393D01*
X0294220Y0038401D02*
X0294319Y0038303D01*
X0305933Y0038303D01*
X0280835Y0033382D02*
X0278264Y0033382D01*
X0278079Y0033197D01*
X0278079Y0064472D02*
X0278079Y0068598D01*
X0163217Y0034858D02*
X0163217Y0031767D01*
X0162213Y0030764D01*
X0124831Y0044208D02*
X0120598Y0039976D01*
X0112331Y0039976D01*
X0090382Y0039878D02*
X0090382Y0042043D01*
X0090283Y0039976D02*
X0090382Y0039878D01*
X0095882Y0053362D02*
X0100039Y0057519D01*
X0100039Y0063598D01*
X0111051Y0063401D02*
X0111236Y0063401D01*
X0111236Y0063598D01*
X0087882Y0065330D02*
X0084685Y0062134D01*
X0084685Y0053362D01*
X0087882Y0065330D02*
X0087882Y0067378D01*
X0092350Y0078401D02*
X0094319Y0080370D01*
X0094319Y0083578D01*
X0101150Y0090409D01*
X0101150Y0092929D01*
X0145047Y0066098D02*
X0145756Y0066098D01*
X0146976Y0064878D01*
X0161937Y0131354D02*
X0158787Y0134504D01*
X0158787Y0141858D01*
X0171583Y0145586D02*
X0171681Y0145488D01*
X0172961Y0145488D01*
X0158787Y0153055D02*
X0158787Y0153460D01*
X0170598Y0168273D02*
X0173305Y0168273D01*
X0180835Y0175803D01*
X0180835Y0182102D01*
X0199634Y0172161D02*
X0199634Y0169386D01*
X0199063Y0168815D01*
X0225323Y0173134D02*
X0235571Y0173134D01*
X0244539Y0182102D01*
X0251701Y0182102D01*
X0239496Y0169208D02*
X0235571Y0173134D01*
X0239496Y0169208D02*
X0239496Y0165567D01*
X0239890Y0165173D01*
X0225323Y0153559D02*
X0225323Y0153449D01*
X0225224Y0153460D02*
X0225323Y0153559D01*
X0239890Y0145488D02*
X0239988Y0145586D01*
X0239890Y0145488D02*
X0239890Y0143126D01*
X0225323Y0142252D02*
X0225323Y0134976D01*
X0228551Y0131748D01*
X0239496Y0131728D02*
X0239575Y0131748D01*
X0239496Y0131728D02*
X0239496Y0131807D01*
X0255323Y0132240D02*
X0255323Y0140252D01*
X0258689Y0143618D01*
X0275323Y0132240D02*
X0278374Y0135291D01*
X0278374Y0138697D01*
X0289693Y0134267D02*
X0289772Y0134267D01*
X0291898Y0132141D01*
X0302921Y0132141D02*
X0303079Y0132299D01*
X0303276Y0133874D01*
X0313315Y0135744D02*
X0316898Y0135744D01*
X0320402Y0132240D01*
X0340402Y0132240D02*
X0346780Y0138618D01*
X0346780Y0150015D01*
X0306819Y0145094D02*
X0304850Y0145094D01*
X0304457Y0144701D01*
X0297579Y0155933D02*
X0290087Y0155933D01*
X0297579Y0155933D02*
X0303965Y0162319D01*
X0303965Y0166256D01*
X0304457Y0166748D01*
X0304457Y0173638D01*
X0312921Y0182102D01*
X0322567Y0182102D01*
X0290185Y0170685D02*
X0290185Y0167228D01*
X0290087Y0167130D01*
X0209969Y0137220D02*
X0209969Y0133145D01*
X0209063Y0132240D01*
X0189063Y0132240D02*
X0189063Y0143874D01*
X0192744Y0147555D01*
X0133197Y0169996D02*
X0132016Y0168815D01*
X0133197Y0169996D02*
X0133197Y0172161D01*
D28*
X0013118Y0124228D02*
X0008591Y0124228D01*
X0008000Y0123638D01*
X0008118Y0123756D01*
X0008118Y0138480D01*
X0008000Y0115370D02*
X0008000Y0115173D01*
M02*
