G75*
%MOIN*%
%OFA0B0*%
%FSLAX25Y25*%
%IPPOS*%
%LPD*%
%AMOC8*
5,1,8,0,0,1.08239X$1,22.5*
%
%ADD10C,0.00600*%
%ADD11C,0.00200*%
%ADD12C,0.00400*%
%ADD13C,0.00700*%
%ADD14C,0.00000*%
%ADD15C,0.00300*%
%ADD16R,0.04000X0.10000*%
%ADD17R,0.04000X0.12500*%
%ADD18C,0.00500*%
D10*
X0084850Y0020660D02*
X0088850Y0020660D01*
X0088850Y0079660D01*
X0133350Y0079660D01*
X0133350Y0020660D01*
X0137350Y0020660D01*
X0137350Y0093160D01*
X0133350Y0093160D01*
X0133350Y0079660D01*
X0131650Y0092614D02*
X0131650Y0043614D01*
X0128150Y0043614D01*
X0128150Y0037614D01*
X0131650Y0037614D01*
X0131650Y0030114D01*
X0090650Y0030114D01*
X0090650Y0037614D01*
X0094150Y0037614D01*
X0094150Y0043614D01*
X0090650Y0043614D01*
X0090650Y0092614D01*
X0131650Y0092614D01*
X0155716Y0093160D02*
X0159716Y0093160D01*
X0159716Y0079660D01*
X0159716Y0020660D01*
X0204216Y0020660D01*
X0204216Y0079660D01*
X0159716Y0079660D01*
X0161516Y0092614D02*
X0161516Y0043614D01*
X0165016Y0043614D01*
X0165016Y0037614D01*
X0161516Y0037614D01*
X0161516Y0030114D01*
X0202516Y0030114D01*
X0202516Y0037614D01*
X0199016Y0037614D01*
X0199016Y0043614D01*
X0202516Y0043614D01*
X0202516Y0092614D01*
X0161516Y0092614D01*
X0155716Y0093160D02*
X0155716Y0020660D01*
X0159716Y0020660D01*
X0133350Y0020660D02*
X0088850Y0020660D01*
X0084850Y0020660D02*
X0084850Y0093160D01*
X0088850Y0093160D01*
X0088850Y0079660D01*
X0111150Y0049460D02*
X0111150Y0039460D01*
X0104050Y0043614D02*
X0104052Y0043788D01*
X0104059Y0043962D01*
X0104069Y0044136D01*
X0104084Y0044310D01*
X0104103Y0044483D01*
X0104127Y0044656D01*
X0104155Y0044828D01*
X0104186Y0044999D01*
X0104223Y0045170D01*
X0104263Y0045339D01*
X0104307Y0045508D01*
X0104356Y0045675D01*
X0104408Y0045841D01*
X0104465Y0046006D01*
X0104526Y0046169D01*
X0104590Y0046331D01*
X0104659Y0046491D01*
X0104732Y0046650D01*
X0104808Y0046806D01*
X0104888Y0046961D01*
X0104972Y0047114D01*
X0105060Y0047264D01*
X0105152Y0047412D01*
X0105247Y0047559D01*
X0105345Y0047702D01*
X0105447Y0047843D01*
X0105553Y0047982D01*
X0105662Y0048118D01*
X0105774Y0048252D01*
X0105889Y0048382D01*
X0106008Y0048510D01*
X0106130Y0048634D01*
X0106254Y0048756D01*
X0106382Y0048875D01*
X0106512Y0048990D01*
X0106646Y0049102D01*
X0106782Y0049211D01*
X0106921Y0049317D01*
X0107062Y0049419D01*
X0107205Y0049517D01*
X0107352Y0049612D01*
X0107500Y0049704D01*
X0107650Y0049792D01*
X0107803Y0049876D01*
X0107958Y0049956D01*
X0108114Y0050032D01*
X0108273Y0050105D01*
X0108433Y0050174D01*
X0108595Y0050238D01*
X0108758Y0050299D01*
X0108923Y0050356D01*
X0109089Y0050408D01*
X0109256Y0050457D01*
X0109425Y0050501D01*
X0109594Y0050541D01*
X0109765Y0050578D01*
X0109936Y0050609D01*
X0110108Y0050637D01*
X0110281Y0050661D01*
X0110454Y0050680D01*
X0110628Y0050695D01*
X0110802Y0050705D01*
X0110976Y0050712D01*
X0111150Y0050714D01*
X0111324Y0050712D01*
X0111498Y0050705D01*
X0111672Y0050695D01*
X0111846Y0050680D01*
X0112019Y0050661D01*
X0112192Y0050637D01*
X0112364Y0050609D01*
X0112535Y0050578D01*
X0112706Y0050541D01*
X0112875Y0050501D01*
X0113044Y0050457D01*
X0113211Y0050408D01*
X0113377Y0050356D01*
X0113542Y0050299D01*
X0113705Y0050238D01*
X0113867Y0050174D01*
X0114027Y0050105D01*
X0114186Y0050032D01*
X0114342Y0049956D01*
X0114497Y0049876D01*
X0114650Y0049792D01*
X0114800Y0049704D01*
X0114948Y0049612D01*
X0115095Y0049517D01*
X0115238Y0049419D01*
X0115379Y0049317D01*
X0115518Y0049211D01*
X0115654Y0049102D01*
X0115788Y0048990D01*
X0115918Y0048875D01*
X0116046Y0048756D01*
X0116170Y0048634D01*
X0116292Y0048510D01*
X0116411Y0048382D01*
X0116526Y0048252D01*
X0116638Y0048118D01*
X0116747Y0047982D01*
X0116853Y0047843D01*
X0116955Y0047702D01*
X0117053Y0047559D01*
X0117148Y0047412D01*
X0117240Y0047264D01*
X0117328Y0047114D01*
X0117412Y0046961D01*
X0117492Y0046806D01*
X0117568Y0046650D01*
X0117641Y0046491D01*
X0117710Y0046331D01*
X0117774Y0046169D01*
X0117835Y0046006D01*
X0117892Y0045841D01*
X0117944Y0045675D01*
X0117993Y0045508D01*
X0118037Y0045339D01*
X0118077Y0045170D01*
X0118114Y0044999D01*
X0118145Y0044828D01*
X0118173Y0044656D01*
X0118197Y0044483D01*
X0118216Y0044310D01*
X0118231Y0044136D01*
X0118241Y0043962D01*
X0118248Y0043788D01*
X0118250Y0043614D01*
X0118248Y0043440D01*
X0118241Y0043266D01*
X0118231Y0043092D01*
X0118216Y0042918D01*
X0118197Y0042745D01*
X0118173Y0042572D01*
X0118145Y0042400D01*
X0118114Y0042229D01*
X0118077Y0042058D01*
X0118037Y0041889D01*
X0117993Y0041720D01*
X0117944Y0041553D01*
X0117892Y0041387D01*
X0117835Y0041222D01*
X0117774Y0041059D01*
X0117710Y0040897D01*
X0117641Y0040737D01*
X0117568Y0040578D01*
X0117492Y0040422D01*
X0117412Y0040267D01*
X0117328Y0040114D01*
X0117240Y0039964D01*
X0117148Y0039816D01*
X0117053Y0039669D01*
X0116955Y0039526D01*
X0116853Y0039385D01*
X0116747Y0039246D01*
X0116638Y0039110D01*
X0116526Y0038976D01*
X0116411Y0038846D01*
X0116292Y0038718D01*
X0116170Y0038594D01*
X0116046Y0038472D01*
X0115918Y0038353D01*
X0115788Y0038238D01*
X0115654Y0038126D01*
X0115518Y0038017D01*
X0115379Y0037911D01*
X0115238Y0037809D01*
X0115095Y0037711D01*
X0114948Y0037616D01*
X0114800Y0037524D01*
X0114650Y0037436D01*
X0114497Y0037352D01*
X0114342Y0037272D01*
X0114186Y0037196D01*
X0114027Y0037123D01*
X0113867Y0037054D01*
X0113705Y0036990D01*
X0113542Y0036929D01*
X0113377Y0036872D01*
X0113211Y0036820D01*
X0113044Y0036771D01*
X0112875Y0036727D01*
X0112706Y0036687D01*
X0112535Y0036650D01*
X0112364Y0036619D01*
X0112192Y0036591D01*
X0112019Y0036567D01*
X0111846Y0036548D01*
X0111672Y0036533D01*
X0111498Y0036523D01*
X0111324Y0036516D01*
X0111150Y0036514D01*
X0110976Y0036516D01*
X0110802Y0036523D01*
X0110628Y0036533D01*
X0110454Y0036548D01*
X0110281Y0036567D01*
X0110108Y0036591D01*
X0109936Y0036619D01*
X0109765Y0036650D01*
X0109594Y0036687D01*
X0109425Y0036727D01*
X0109256Y0036771D01*
X0109089Y0036820D01*
X0108923Y0036872D01*
X0108758Y0036929D01*
X0108595Y0036990D01*
X0108433Y0037054D01*
X0108273Y0037123D01*
X0108114Y0037196D01*
X0107958Y0037272D01*
X0107803Y0037352D01*
X0107650Y0037436D01*
X0107500Y0037524D01*
X0107352Y0037616D01*
X0107205Y0037711D01*
X0107062Y0037809D01*
X0106921Y0037911D01*
X0106782Y0038017D01*
X0106646Y0038126D01*
X0106512Y0038238D01*
X0106382Y0038353D01*
X0106254Y0038472D01*
X0106130Y0038594D01*
X0106008Y0038718D01*
X0105889Y0038846D01*
X0105774Y0038976D01*
X0105662Y0039110D01*
X0105553Y0039246D01*
X0105447Y0039385D01*
X0105345Y0039526D01*
X0105247Y0039669D01*
X0105152Y0039816D01*
X0105060Y0039964D01*
X0104972Y0040114D01*
X0104888Y0040267D01*
X0104808Y0040422D01*
X0104732Y0040578D01*
X0104659Y0040737D01*
X0104590Y0040897D01*
X0104526Y0041059D01*
X0104465Y0041222D01*
X0104408Y0041387D01*
X0104356Y0041553D01*
X0104307Y0041720D01*
X0104263Y0041889D01*
X0104223Y0042058D01*
X0104186Y0042229D01*
X0104155Y0042400D01*
X0104127Y0042572D01*
X0104103Y0042745D01*
X0104084Y0042918D01*
X0104069Y0043092D01*
X0104059Y0043266D01*
X0104052Y0043440D01*
X0104050Y0043614D01*
X0106050Y0044460D02*
X0116050Y0044460D01*
X0107350Y0044460D02*
X0107352Y0044581D01*
X0107358Y0044702D01*
X0107368Y0044823D01*
X0107382Y0044943D01*
X0107399Y0045063D01*
X0107421Y0045182D01*
X0107447Y0045300D01*
X0107476Y0045418D01*
X0107509Y0045534D01*
X0107546Y0045649D01*
X0107587Y0045763D01*
X0107632Y0045876D01*
X0107680Y0045987D01*
X0107732Y0046096D01*
X0107787Y0046204D01*
X0107846Y0046310D01*
X0107908Y0046414D01*
X0107974Y0046516D01*
X0108042Y0046615D01*
X0108115Y0046712D01*
X0108190Y0046807D01*
X0108268Y0046900D01*
X0108350Y0046989D01*
X0108434Y0047076D01*
X0108521Y0047160D01*
X0108610Y0047242D01*
X0108703Y0047320D01*
X0108798Y0047395D01*
X0108895Y0047468D01*
X0108994Y0047536D01*
X0109096Y0047602D01*
X0109200Y0047664D01*
X0109306Y0047723D01*
X0109414Y0047778D01*
X0109523Y0047830D01*
X0109634Y0047878D01*
X0109747Y0047923D01*
X0109861Y0047964D01*
X0109976Y0048001D01*
X0110092Y0048034D01*
X0110210Y0048063D01*
X0110328Y0048089D01*
X0110447Y0048111D01*
X0110567Y0048128D01*
X0110687Y0048142D01*
X0110808Y0048152D01*
X0110929Y0048158D01*
X0111050Y0048160D01*
X0111171Y0048158D01*
X0111292Y0048152D01*
X0111413Y0048142D01*
X0111533Y0048128D01*
X0111653Y0048111D01*
X0111772Y0048089D01*
X0111890Y0048063D01*
X0112008Y0048034D01*
X0112124Y0048001D01*
X0112239Y0047964D01*
X0112353Y0047923D01*
X0112466Y0047878D01*
X0112577Y0047830D01*
X0112686Y0047778D01*
X0112794Y0047723D01*
X0112900Y0047664D01*
X0113004Y0047602D01*
X0113106Y0047536D01*
X0113205Y0047468D01*
X0113302Y0047395D01*
X0113397Y0047320D01*
X0113490Y0047242D01*
X0113579Y0047160D01*
X0113666Y0047076D01*
X0113750Y0046989D01*
X0113832Y0046900D01*
X0113910Y0046807D01*
X0113985Y0046712D01*
X0114058Y0046615D01*
X0114126Y0046516D01*
X0114192Y0046414D01*
X0114254Y0046310D01*
X0114313Y0046204D01*
X0114368Y0046096D01*
X0114420Y0045987D01*
X0114468Y0045876D01*
X0114513Y0045763D01*
X0114554Y0045649D01*
X0114591Y0045534D01*
X0114624Y0045418D01*
X0114653Y0045300D01*
X0114679Y0045182D01*
X0114701Y0045063D01*
X0114718Y0044943D01*
X0114732Y0044823D01*
X0114742Y0044702D01*
X0114748Y0044581D01*
X0114750Y0044460D01*
X0114748Y0044339D01*
X0114742Y0044218D01*
X0114732Y0044097D01*
X0114718Y0043977D01*
X0114701Y0043857D01*
X0114679Y0043738D01*
X0114653Y0043620D01*
X0114624Y0043502D01*
X0114591Y0043386D01*
X0114554Y0043271D01*
X0114513Y0043157D01*
X0114468Y0043044D01*
X0114420Y0042933D01*
X0114368Y0042824D01*
X0114313Y0042716D01*
X0114254Y0042610D01*
X0114192Y0042506D01*
X0114126Y0042404D01*
X0114058Y0042305D01*
X0113985Y0042208D01*
X0113910Y0042113D01*
X0113832Y0042020D01*
X0113750Y0041931D01*
X0113666Y0041844D01*
X0113579Y0041760D01*
X0113490Y0041678D01*
X0113397Y0041600D01*
X0113302Y0041525D01*
X0113205Y0041452D01*
X0113106Y0041384D01*
X0113004Y0041318D01*
X0112900Y0041256D01*
X0112794Y0041197D01*
X0112686Y0041142D01*
X0112577Y0041090D01*
X0112466Y0041042D01*
X0112353Y0040997D01*
X0112239Y0040956D01*
X0112124Y0040919D01*
X0112008Y0040886D01*
X0111890Y0040857D01*
X0111772Y0040831D01*
X0111653Y0040809D01*
X0111533Y0040792D01*
X0111413Y0040778D01*
X0111292Y0040768D01*
X0111171Y0040762D01*
X0111050Y0040760D01*
X0110929Y0040762D01*
X0110808Y0040768D01*
X0110687Y0040778D01*
X0110567Y0040792D01*
X0110447Y0040809D01*
X0110328Y0040831D01*
X0110210Y0040857D01*
X0110092Y0040886D01*
X0109976Y0040919D01*
X0109861Y0040956D01*
X0109747Y0040997D01*
X0109634Y0041042D01*
X0109523Y0041090D01*
X0109414Y0041142D01*
X0109306Y0041197D01*
X0109200Y0041256D01*
X0109096Y0041318D01*
X0108994Y0041384D01*
X0108895Y0041452D01*
X0108798Y0041525D01*
X0108703Y0041600D01*
X0108610Y0041678D01*
X0108521Y0041760D01*
X0108434Y0041844D01*
X0108350Y0041931D01*
X0108268Y0042020D01*
X0108190Y0042113D01*
X0108115Y0042208D01*
X0108042Y0042305D01*
X0107974Y0042404D01*
X0107908Y0042506D01*
X0107846Y0042610D01*
X0107787Y0042716D01*
X0107732Y0042824D01*
X0107680Y0042933D01*
X0107632Y0043044D01*
X0107587Y0043157D01*
X0107546Y0043271D01*
X0107509Y0043386D01*
X0107476Y0043502D01*
X0107447Y0043620D01*
X0107421Y0043738D01*
X0107399Y0043857D01*
X0107382Y0043977D01*
X0107368Y0044097D01*
X0107358Y0044218D01*
X0107352Y0044339D01*
X0107350Y0044460D01*
X0176916Y0044460D02*
X0186916Y0044460D01*
X0174916Y0043614D02*
X0174918Y0043788D01*
X0174925Y0043962D01*
X0174935Y0044136D01*
X0174950Y0044310D01*
X0174969Y0044483D01*
X0174993Y0044656D01*
X0175021Y0044828D01*
X0175052Y0044999D01*
X0175089Y0045170D01*
X0175129Y0045339D01*
X0175173Y0045508D01*
X0175222Y0045675D01*
X0175274Y0045841D01*
X0175331Y0046006D01*
X0175392Y0046169D01*
X0175456Y0046331D01*
X0175525Y0046491D01*
X0175598Y0046650D01*
X0175674Y0046806D01*
X0175754Y0046961D01*
X0175838Y0047114D01*
X0175926Y0047264D01*
X0176018Y0047412D01*
X0176113Y0047559D01*
X0176211Y0047702D01*
X0176313Y0047843D01*
X0176419Y0047982D01*
X0176528Y0048118D01*
X0176640Y0048252D01*
X0176755Y0048382D01*
X0176874Y0048510D01*
X0176996Y0048634D01*
X0177120Y0048756D01*
X0177248Y0048875D01*
X0177378Y0048990D01*
X0177512Y0049102D01*
X0177648Y0049211D01*
X0177787Y0049317D01*
X0177928Y0049419D01*
X0178071Y0049517D01*
X0178218Y0049612D01*
X0178366Y0049704D01*
X0178516Y0049792D01*
X0178669Y0049876D01*
X0178824Y0049956D01*
X0178980Y0050032D01*
X0179139Y0050105D01*
X0179299Y0050174D01*
X0179461Y0050238D01*
X0179624Y0050299D01*
X0179789Y0050356D01*
X0179955Y0050408D01*
X0180122Y0050457D01*
X0180291Y0050501D01*
X0180460Y0050541D01*
X0180631Y0050578D01*
X0180802Y0050609D01*
X0180974Y0050637D01*
X0181147Y0050661D01*
X0181320Y0050680D01*
X0181494Y0050695D01*
X0181668Y0050705D01*
X0181842Y0050712D01*
X0182016Y0050714D01*
X0182190Y0050712D01*
X0182364Y0050705D01*
X0182538Y0050695D01*
X0182712Y0050680D01*
X0182885Y0050661D01*
X0183058Y0050637D01*
X0183230Y0050609D01*
X0183401Y0050578D01*
X0183572Y0050541D01*
X0183741Y0050501D01*
X0183910Y0050457D01*
X0184077Y0050408D01*
X0184243Y0050356D01*
X0184408Y0050299D01*
X0184571Y0050238D01*
X0184733Y0050174D01*
X0184893Y0050105D01*
X0185052Y0050032D01*
X0185208Y0049956D01*
X0185363Y0049876D01*
X0185516Y0049792D01*
X0185666Y0049704D01*
X0185814Y0049612D01*
X0185961Y0049517D01*
X0186104Y0049419D01*
X0186245Y0049317D01*
X0186384Y0049211D01*
X0186520Y0049102D01*
X0186654Y0048990D01*
X0186784Y0048875D01*
X0186912Y0048756D01*
X0187036Y0048634D01*
X0187158Y0048510D01*
X0187277Y0048382D01*
X0187392Y0048252D01*
X0187504Y0048118D01*
X0187613Y0047982D01*
X0187719Y0047843D01*
X0187821Y0047702D01*
X0187919Y0047559D01*
X0188014Y0047412D01*
X0188106Y0047264D01*
X0188194Y0047114D01*
X0188278Y0046961D01*
X0188358Y0046806D01*
X0188434Y0046650D01*
X0188507Y0046491D01*
X0188576Y0046331D01*
X0188640Y0046169D01*
X0188701Y0046006D01*
X0188758Y0045841D01*
X0188810Y0045675D01*
X0188859Y0045508D01*
X0188903Y0045339D01*
X0188943Y0045170D01*
X0188980Y0044999D01*
X0189011Y0044828D01*
X0189039Y0044656D01*
X0189063Y0044483D01*
X0189082Y0044310D01*
X0189097Y0044136D01*
X0189107Y0043962D01*
X0189114Y0043788D01*
X0189116Y0043614D01*
X0189114Y0043440D01*
X0189107Y0043266D01*
X0189097Y0043092D01*
X0189082Y0042918D01*
X0189063Y0042745D01*
X0189039Y0042572D01*
X0189011Y0042400D01*
X0188980Y0042229D01*
X0188943Y0042058D01*
X0188903Y0041889D01*
X0188859Y0041720D01*
X0188810Y0041553D01*
X0188758Y0041387D01*
X0188701Y0041222D01*
X0188640Y0041059D01*
X0188576Y0040897D01*
X0188507Y0040737D01*
X0188434Y0040578D01*
X0188358Y0040422D01*
X0188278Y0040267D01*
X0188194Y0040114D01*
X0188106Y0039964D01*
X0188014Y0039816D01*
X0187919Y0039669D01*
X0187821Y0039526D01*
X0187719Y0039385D01*
X0187613Y0039246D01*
X0187504Y0039110D01*
X0187392Y0038976D01*
X0187277Y0038846D01*
X0187158Y0038718D01*
X0187036Y0038594D01*
X0186912Y0038472D01*
X0186784Y0038353D01*
X0186654Y0038238D01*
X0186520Y0038126D01*
X0186384Y0038017D01*
X0186245Y0037911D01*
X0186104Y0037809D01*
X0185961Y0037711D01*
X0185814Y0037616D01*
X0185666Y0037524D01*
X0185516Y0037436D01*
X0185363Y0037352D01*
X0185208Y0037272D01*
X0185052Y0037196D01*
X0184893Y0037123D01*
X0184733Y0037054D01*
X0184571Y0036990D01*
X0184408Y0036929D01*
X0184243Y0036872D01*
X0184077Y0036820D01*
X0183910Y0036771D01*
X0183741Y0036727D01*
X0183572Y0036687D01*
X0183401Y0036650D01*
X0183230Y0036619D01*
X0183058Y0036591D01*
X0182885Y0036567D01*
X0182712Y0036548D01*
X0182538Y0036533D01*
X0182364Y0036523D01*
X0182190Y0036516D01*
X0182016Y0036514D01*
X0181842Y0036516D01*
X0181668Y0036523D01*
X0181494Y0036533D01*
X0181320Y0036548D01*
X0181147Y0036567D01*
X0180974Y0036591D01*
X0180802Y0036619D01*
X0180631Y0036650D01*
X0180460Y0036687D01*
X0180291Y0036727D01*
X0180122Y0036771D01*
X0179955Y0036820D01*
X0179789Y0036872D01*
X0179624Y0036929D01*
X0179461Y0036990D01*
X0179299Y0037054D01*
X0179139Y0037123D01*
X0178980Y0037196D01*
X0178824Y0037272D01*
X0178669Y0037352D01*
X0178516Y0037436D01*
X0178366Y0037524D01*
X0178218Y0037616D01*
X0178071Y0037711D01*
X0177928Y0037809D01*
X0177787Y0037911D01*
X0177648Y0038017D01*
X0177512Y0038126D01*
X0177378Y0038238D01*
X0177248Y0038353D01*
X0177120Y0038472D01*
X0176996Y0038594D01*
X0176874Y0038718D01*
X0176755Y0038846D01*
X0176640Y0038976D01*
X0176528Y0039110D01*
X0176419Y0039246D01*
X0176313Y0039385D01*
X0176211Y0039526D01*
X0176113Y0039669D01*
X0176018Y0039816D01*
X0175926Y0039964D01*
X0175838Y0040114D01*
X0175754Y0040267D01*
X0175674Y0040422D01*
X0175598Y0040578D01*
X0175525Y0040737D01*
X0175456Y0040897D01*
X0175392Y0041059D01*
X0175331Y0041222D01*
X0175274Y0041387D01*
X0175222Y0041553D01*
X0175173Y0041720D01*
X0175129Y0041889D01*
X0175089Y0042058D01*
X0175052Y0042229D01*
X0175021Y0042400D01*
X0174993Y0042572D01*
X0174969Y0042745D01*
X0174950Y0042918D01*
X0174935Y0043092D01*
X0174925Y0043266D01*
X0174918Y0043440D01*
X0174916Y0043614D01*
X0178216Y0044460D02*
X0178218Y0044581D01*
X0178224Y0044702D01*
X0178234Y0044823D01*
X0178248Y0044943D01*
X0178265Y0045063D01*
X0178287Y0045182D01*
X0178313Y0045300D01*
X0178342Y0045418D01*
X0178375Y0045534D01*
X0178412Y0045649D01*
X0178453Y0045763D01*
X0178498Y0045876D01*
X0178546Y0045987D01*
X0178598Y0046096D01*
X0178653Y0046204D01*
X0178712Y0046310D01*
X0178774Y0046414D01*
X0178840Y0046516D01*
X0178908Y0046615D01*
X0178981Y0046712D01*
X0179056Y0046807D01*
X0179134Y0046900D01*
X0179216Y0046989D01*
X0179300Y0047076D01*
X0179387Y0047160D01*
X0179476Y0047242D01*
X0179569Y0047320D01*
X0179664Y0047395D01*
X0179761Y0047468D01*
X0179860Y0047536D01*
X0179962Y0047602D01*
X0180066Y0047664D01*
X0180172Y0047723D01*
X0180280Y0047778D01*
X0180389Y0047830D01*
X0180500Y0047878D01*
X0180613Y0047923D01*
X0180727Y0047964D01*
X0180842Y0048001D01*
X0180958Y0048034D01*
X0181076Y0048063D01*
X0181194Y0048089D01*
X0181313Y0048111D01*
X0181433Y0048128D01*
X0181553Y0048142D01*
X0181674Y0048152D01*
X0181795Y0048158D01*
X0181916Y0048160D01*
X0182037Y0048158D01*
X0182158Y0048152D01*
X0182279Y0048142D01*
X0182399Y0048128D01*
X0182519Y0048111D01*
X0182638Y0048089D01*
X0182756Y0048063D01*
X0182874Y0048034D01*
X0182990Y0048001D01*
X0183105Y0047964D01*
X0183219Y0047923D01*
X0183332Y0047878D01*
X0183443Y0047830D01*
X0183552Y0047778D01*
X0183660Y0047723D01*
X0183766Y0047664D01*
X0183870Y0047602D01*
X0183972Y0047536D01*
X0184071Y0047468D01*
X0184168Y0047395D01*
X0184263Y0047320D01*
X0184356Y0047242D01*
X0184445Y0047160D01*
X0184532Y0047076D01*
X0184616Y0046989D01*
X0184698Y0046900D01*
X0184776Y0046807D01*
X0184851Y0046712D01*
X0184924Y0046615D01*
X0184992Y0046516D01*
X0185058Y0046414D01*
X0185120Y0046310D01*
X0185179Y0046204D01*
X0185234Y0046096D01*
X0185286Y0045987D01*
X0185334Y0045876D01*
X0185379Y0045763D01*
X0185420Y0045649D01*
X0185457Y0045534D01*
X0185490Y0045418D01*
X0185519Y0045300D01*
X0185545Y0045182D01*
X0185567Y0045063D01*
X0185584Y0044943D01*
X0185598Y0044823D01*
X0185608Y0044702D01*
X0185614Y0044581D01*
X0185616Y0044460D01*
X0185614Y0044339D01*
X0185608Y0044218D01*
X0185598Y0044097D01*
X0185584Y0043977D01*
X0185567Y0043857D01*
X0185545Y0043738D01*
X0185519Y0043620D01*
X0185490Y0043502D01*
X0185457Y0043386D01*
X0185420Y0043271D01*
X0185379Y0043157D01*
X0185334Y0043044D01*
X0185286Y0042933D01*
X0185234Y0042824D01*
X0185179Y0042716D01*
X0185120Y0042610D01*
X0185058Y0042506D01*
X0184992Y0042404D01*
X0184924Y0042305D01*
X0184851Y0042208D01*
X0184776Y0042113D01*
X0184698Y0042020D01*
X0184616Y0041931D01*
X0184532Y0041844D01*
X0184445Y0041760D01*
X0184356Y0041678D01*
X0184263Y0041600D01*
X0184168Y0041525D01*
X0184071Y0041452D01*
X0183972Y0041384D01*
X0183870Y0041318D01*
X0183766Y0041256D01*
X0183660Y0041197D01*
X0183552Y0041142D01*
X0183443Y0041090D01*
X0183332Y0041042D01*
X0183219Y0040997D01*
X0183105Y0040956D01*
X0182990Y0040919D01*
X0182874Y0040886D01*
X0182756Y0040857D01*
X0182638Y0040831D01*
X0182519Y0040809D01*
X0182399Y0040792D01*
X0182279Y0040778D01*
X0182158Y0040768D01*
X0182037Y0040762D01*
X0181916Y0040760D01*
X0181795Y0040762D01*
X0181674Y0040768D01*
X0181553Y0040778D01*
X0181433Y0040792D01*
X0181313Y0040809D01*
X0181194Y0040831D01*
X0181076Y0040857D01*
X0180958Y0040886D01*
X0180842Y0040919D01*
X0180727Y0040956D01*
X0180613Y0040997D01*
X0180500Y0041042D01*
X0180389Y0041090D01*
X0180280Y0041142D01*
X0180172Y0041197D01*
X0180066Y0041256D01*
X0179962Y0041318D01*
X0179860Y0041384D01*
X0179761Y0041452D01*
X0179664Y0041525D01*
X0179569Y0041600D01*
X0179476Y0041678D01*
X0179387Y0041760D01*
X0179300Y0041844D01*
X0179216Y0041931D01*
X0179134Y0042020D01*
X0179056Y0042113D01*
X0178981Y0042208D01*
X0178908Y0042305D01*
X0178840Y0042404D01*
X0178774Y0042506D01*
X0178712Y0042610D01*
X0178653Y0042716D01*
X0178598Y0042824D01*
X0178546Y0042933D01*
X0178498Y0043044D01*
X0178453Y0043157D01*
X0178412Y0043271D01*
X0178375Y0043386D01*
X0178342Y0043502D01*
X0178313Y0043620D01*
X0178287Y0043738D01*
X0178265Y0043857D01*
X0178248Y0043977D01*
X0178234Y0044097D01*
X0178224Y0044218D01*
X0178218Y0044339D01*
X0178216Y0044460D01*
X0182016Y0039460D02*
X0182016Y0049460D01*
X0230413Y0043614D02*
X0233913Y0043614D01*
X0233913Y0037614D01*
X0230413Y0037614D01*
X0230413Y0030114D01*
X0271413Y0030114D01*
X0271413Y0037614D01*
X0267913Y0037614D01*
X0267913Y0043614D01*
X0271413Y0043614D01*
X0271413Y0092614D01*
X0230413Y0092614D01*
X0230413Y0043614D01*
X0245813Y0044460D02*
X0255813Y0044460D01*
X0243813Y0043614D02*
X0243815Y0043788D01*
X0243822Y0043962D01*
X0243832Y0044136D01*
X0243847Y0044310D01*
X0243866Y0044483D01*
X0243890Y0044656D01*
X0243918Y0044828D01*
X0243949Y0044999D01*
X0243986Y0045170D01*
X0244026Y0045339D01*
X0244070Y0045508D01*
X0244119Y0045675D01*
X0244171Y0045841D01*
X0244228Y0046006D01*
X0244289Y0046169D01*
X0244353Y0046331D01*
X0244422Y0046491D01*
X0244495Y0046650D01*
X0244571Y0046806D01*
X0244651Y0046961D01*
X0244735Y0047114D01*
X0244823Y0047264D01*
X0244915Y0047412D01*
X0245010Y0047559D01*
X0245108Y0047702D01*
X0245210Y0047843D01*
X0245316Y0047982D01*
X0245425Y0048118D01*
X0245537Y0048252D01*
X0245652Y0048382D01*
X0245771Y0048510D01*
X0245893Y0048634D01*
X0246017Y0048756D01*
X0246145Y0048875D01*
X0246275Y0048990D01*
X0246409Y0049102D01*
X0246545Y0049211D01*
X0246684Y0049317D01*
X0246825Y0049419D01*
X0246968Y0049517D01*
X0247115Y0049612D01*
X0247263Y0049704D01*
X0247413Y0049792D01*
X0247566Y0049876D01*
X0247721Y0049956D01*
X0247877Y0050032D01*
X0248036Y0050105D01*
X0248196Y0050174D01*
X0248358Y0050238D01*
X0248521Y0050299D01*
X0248686Y0050356D01*
X0248852Y0050408D01*
X0249019Y0050457D01*
X0249188Y0050501D01*
X0249357Y0050541D01*
X0249528Y0050578D01*
X0249699Y0050609D01*
X0249871Y0050637D01*
X0250044Y0050661D01*
X0250217Y0050680D01*
X0250391Y0050695D01*
X0250565Y0050705D01*
X0250739Y0050712D01*
X0250913Y0050714D01*
X0251087Y0050712D01*
X0251261Y0050705D01*
X0251435Y0050695D01*
X0251609Y0050680D01*
X0251782Y0050661D01*
X0251955Y0050637D01*
X0252127Y0050609D01*
X0252298Y0050578D01*
X0252469Y0050541D01*
X0252638Y0050501D01*
X0252807Y0050457D01*
X0252974Y0050408D01*
X0253140Y0050356D01*
X0253305Y0050299D01*
X0253468Y0050238D01*
X0253630Y0050174D01*
X0253790Y0050105D01*
X0253949Y0050032D01*
X0254105Y0049956D01*
X0254260Y0049876D01*
X0254413Y0049792D01*
X0254563Y0049704D01*
X0254711Y0049612D01*
X0254858Y0049517D01*
X0255001Y0049419D01*
X0255142Y0049317D01*
X0255281Y0049211D01*
X0255417Y0049102D01*
X0255551Y0048990D01*
X0255681Y0048875D01*
X0255809Y0048756D01*
X0255933Y0048634D01*
X0256055Y0048510D01*
X0256174Y0048382D01*
X0256289Y0048252D01*
X0256401Y0048118D01*
X0256510Y0047982D01*
X0256616Y0047843D01*
X0256718Y0047702D01*
X0256816Y0047559D01*
X0256911Y0047412D01*
X0257003Y0047264D01*
X0257091Y0047114D01*
X0257175Y0046961D01*
X0257255Y0046806D01*
X0257331Y0046650D01*
X0257404Y0046491D01*
X0257473Y0046331D01*
X0257537Y0046169D01*
X0257598Y0046006D01*
X0257655Y0045841D01*
X0257707Y0045675D01*
X0257756Y0045508D01*
X0257800Y0045339D01*
X0257840Y0045170D01*
X0257877Y0044999D01*
X0257908Y0044828D01*
X0257936Y0044656D01*
X0257960Y0044483D01*
X0257979Y0044310D01*
X0257994Y0044136D01*
X0258004Y0043962D01*
X0258011Y0043788D01*
X0258013Y0043614D01*
X0258011Y0043440D01*
X0258004Y0043266D01*
X0257994Y0043092D01*
X0257979Y0042918D01*
X0257960Y0042745D01*
X0257936Y0042572D01*
X0257908Y0042400D01*
X0257877Y0042229D01*
X0257840Y0042058D01*
X0257800Y0041889D01*
X0257756Y0041720D01*
X0257707Y0041553D01*
X0257655Y0041387D01*
X0257598Y0041222D01*
X0257537Y0041059D01*
X0257473Y0040897D01*
X0257404Y0040737D01*
X0257331Y0040578D01*
X0257255Y0040422D01*
X0257175Y0040267D01*
X0257091Y0040114D01*
X0257003Y0039964D01*
X0256911Y0039816D01*
X0256816Y0039669D01*
X0256718Y0039526D01*
X0256616Y0039385D01*
X0256510Y0039246D01*
X0256401Y0039110D01*
X0256289Y0038976D01*
X0256174Y0038846D01*
X0256055Y0038718D01*
X0255933Y0038594D01*
X0255809Y0038472D01*
X0255681Y0038353D01*
X0255551Y0038238D01*
X0255417Y0038126D01*
X0255281Y0038017D01*
X0255142Y0037911D01*
X0255001Y0037809D01*
X0254858Y0037711D01*
X0254711Y0037616D01*
X0254563Y0037524D01*
X0254413Y0037436D01*
X0254260Y0037352D01*
X0254105Y0037272D01*
X0253949Y0037196D01*
X0253790Y0037123D01*
X0253630Y0037054D01*
X0253468Y0036990D01*
X0253305Y0036929D01*
X0253140Y0036872D01*
X0252974Y0036820D01*
X0252807Y0036771D01*
X0252638Y0036727D01*
X0252469Y0036687D01*
X0252298Y0036650D01*
X0252127Y0036619D01*
X0251955Y0036591D01*
X0251782Y0036567D01*
X0251609Y0036548D01*
X0251435Y0036533D01*
X0251261Y0036523D01*
X0251087Y0036516D01*
X0250913Y0036514D01*
X0250739Y0036516D01*
X0250565Y0036523D01*
X0250391Y0036533D01*
X0250217Y0036548D01*
X0250044Y0036567D01*
X0249871Y0036591D01*
X0249699Y0036619D01*
X0249528Y0036650D01*
X0249357Y0036687D01*
X0249188Y0036727D01*
X0249019Y0036771D01*
X0248852Y0036820D01*
X0248686Y0036872D01*
X0248521Y0036929D01*
X0248358Y0036990D01*
X0248196Y0037054D01*
X0248036Y0037123D01*
X0247877Y0037196D01*
X0247721Y0037272D01*
X0247566Y0037352D01*
X0247413Y0037436D01*
X0247263Y0037524D01*
X0247115Y0037616D01*
X0246968Y0037711D01*
X0246825Y0037809D01*
X0246684Y0037911D01*
X0246545Y0038017D01*
X0246409Y0038126D01*
X0246275Y0038238D01*
X0246145Y0038353D01*
X0246017Y0038472D01*
X0245893Y0038594D01*
X0245771Y0038718D01*
X0245652Y0038846D01*
X0245537Y0038976D01*
X0245425Y0039110D01*
X0245316Y0039246D01*
X0245210Y0039385D01*
X0245108Y0039526D01*
X0245010Y0039669D01*
X0244915Y0039816D01*
X0244823Y0039964D01*
X0244735Y0040114D01*
X0244651Y0040267D01*
X0244571Y0040422D01*
X0244495Y0040578D01*
X0244422Y0040737D01*
X0244353Y0040897D01*
X0244289Y0041059D01*
X0244228Y0041222D01*
X0244171Y0041387D01*
X0244119Y0041553D01*
X0244070Y0041720D01*
X0244026Y0041889D01*
X0243986Y0042058D01*
X0243949Y0042229D01*
X0243918Y0042400D01*
X0243890Y0042572D01*
X0243866Y0042745D01*
X0243847Y0042918D01*
X0243832Y0043092D01*
X0243822Y0043266D01*
X0243815Y0043440D01*
X0243813Y0043614D01*
X0247113Y0044460D02*
X0247115Y0044581D01*
X0247121Y0044702D01*
X0247131Y0044823D01*
X0247145Y0044943D01*
X0247162Y0045063D01*
X0247184Y0045182D01*
X0247210Y0045300D01*
X0247239Y0045418D01*
X0247272Y0045534D01*
X0247309Y0045649D01*
X0247350Y0045763D01*
X0247395Y0045876D01*
X0247443Y0045987D01*
X0247495Y0046096D01*
X0247550Y0046204D01*
X0247609Y0046310D01*
X0247671Y0046414D01*
X0247737Y0046516D01*
X0247805Y0046615D01*
X0247878Y0046712D01*
X0247953Y0046807D01*
X0248031Y0046900D01*
X0248113Y0046989D01*
X0248197Y0047076D01*
X0248284Y0047160D01*
X0248373Y0047242D01*
X0248466Y0047320D01*
X0248561Y0047395D01*
X0248658Y0047468D01*
X0248757Y0047536D01*
X0248859Y0047602D01*
X0248963Y0047664D01*
X0249069Y0047723D01*
X0249177Y0047778D01*
X0249286Y0047830D01*
X0249397Y0047878D01*
X0249510Y0047923D01*
X0249624Y0047964D01*
X0249739Y0048001D01*
X0249855Y0048034D01*
X0249973Y0048063D01*
X0250091Y0048089D01*
X0250210Y0048111D01*
X0250330Y0048128D01*
X0250450Y0048142D01*
X0250571Y0048152D01*
X0250692Y0048158D01*
X0250813Y0048160D01*
X0250934Y0048158D01*
X0251055Y0048152D01*
X0251176Y0048142D01*
X0251296Y0048128D01*
X0251416Y0048111D01*
X0251535Y0048089D01*
X0251653Y0048063D01*
X0251771Y0048034D01*
X0251887Y0048001D01*
X0252002Y0047964D01*
X0252116Y0047923D01*
X0252229Y0047878D01*
X0252340Y0047830D01*
X0252449Y0047778D01*
X0252557Y0047723D01*
X0252663Y0047664D01*
X0252767Y0047602D01*
X0252869Y0047536D01*
X0252968Y0047468D01*
X0253065Y0047395D01*
X0253160Y0047320D01*
X0253253Y0047242D01*
X0253342Y0047160D01*
X0253429Y0047076D01*
X0253513Y0046989D01*
X0253595Y0046900D01*
X0253673Y0046807D01*
X0253748Y0046712D01*
X0253821Y0046615D01*
X0253889Y0046516D01*
X0253955Y0046414D01*
X0254017Y0046310D01*
X0254076Y0046204D01*
X0254131Y0046096D01*
X0254183Y0045987D01*
X0254231Y0045876D01*
X0254276Y0045763D01*
X0254317Y0045649D01*
X0254354Y0045534D01*
X0254387Y0045418D01*
X0254416Y0045300D01*
X0254442Y0045182D01*
X0254464Y0045063D01*
X0254481Y0044943D01*
X0254495Y0044823D01*
X0254505Y0044702D01*
X0254511Y0044581D01*
X0254513Y0044460D01*
X0254511Y0044339D01*
X0254505Y0044218D01*
X0254495Y0044097D01*
X0254481Y0043977D01*
X0254464Y0043857D01*
X0254442Y0043738D01*
X0254416Y0043620D01*
X0254387Y0043502D01*
X0254354Y0043386D01*
X0254317Y0043271D01*
X0254276Y0043157D01*
X0254231Y0043044D01*
X0254183Y0042933D01*
X0254131Y0042824D01*
X0254076Y0042716D01*
X0254017Y0042610D01*
X0253955Y0042506D01*
X0253889Y0042404D01*
X0253821Y0042305D01*
X0253748Y0042208D01*
X0253673Y0042113D01*
X0253595Y0042020D01*
X0253513Y0041931D01*
X0253429Y0041844D01*
X0253342Y0041760D01*
X0253253Y0041678D01*
X0253160Y0041600D01*
X0253065Y0041525D01*
X0252968Y0041452D01*
X0252869Y0041384D01*
X0252767Y0041318D01*
X0252663Y0041256D01*
X0252557Y0041197D01*
X0252449Y0041142D01*
X0252340Y0041090D01*
X0252229Y0041042D01*
X0252116Y0040997D01*
X0252002Y0040956D01*
X0251887Y0040919D01*
X0251771Y0040886D01*
X0251653Y0040857D01*
X0251535Y0040831D01*
X0251416Y0040809D01*
X0251296Y0040792D01*
X0251176Y0040778D01*
X0251055Y0040768D01*
X0250934Y0040762D01*
X0250813Y0040760D01*
X0250692Y0040762D01*
X0250571Y0040768D01*
X0250450Y0040778D01*
X0250330Y0040792D01*
X0250210Y0040809D01*
X0250091Y0040831D01*
X0249973Y0040857D01*
X0249855Y0040886D01*
X0249739Y0040919D01*
X0249624Y0040956D01*
X0249510Y0040997D01*
X0249397Y0041042D01*
X0249286Y0041090D01*
X0249177Y0041142D01*
X0249069Y0041197D01*
X0248963Y0041256D01*
X0248859Y0041318D01*
X0248757Y0041384D01*
X0248658Y0041452D01*
X0248561Y0041525D01*
X0248466Y0041600D01*
X0248373Y0041678D01*
X0248284Y0041760D01*
X0248197Y0041844D01*
X0248113Y0041931D01*
X0248031Y0042020D01*
X0247953Y0042113D01*
X0247878Y0042208D01*
X0247805Y0042305D01*
X0247737Y0042404D01*
X0247671Y0042506D01*
X0247609Y0042610D01*
X0247550Y0042716D01*
X0247495Y0042824D01*
X0247443Y0042933D01*
X0247395Y0043044D01*
X0247350Y0043157D01*
X0247309Y0043271D01*
X0247272Y0043386D01*
X0247239Y0043502D01*
X0247210Y0043620D01*
X0247184Y0043738D01*
X0247162Y0043857D01*
X0247145Y0043977D01*
X0247131Y0044097D01*
X0247121Y0044218D01*
X0247115Y0044339D01*
X0247113Y0044460D01*
X0250913Y0039460D02*
X0250913Y0049460D01*
X0273113Y0020660D02*
X0228613Y0020660D01*
X0228613Y0079660D01*
X0273113Y0079660D01*
X0273113Y0020660D01*
X0277113Y0020660D01*
X0277113Y0093160D01*
X0273113Y0093160D01*
X0273113Y0079660D01*
X0299417Y0093160D02*
X0303417Y0093160D01*
X0303417Y0079660D01*
X0303417Y0020660D01*
X0347917Y0020660D01*
X0347917Y0079660D01*
X0303417Y0079660D01*
X0305217Y0092614D02*
X0305217Y0043614D01*
X0308717Y0043614D01*
X0308717Y0037614D01*
X0305217Y0037614D01*
X0305217Y0030114D01*
X0346217Y0030114D01*
X0346217Y0037614D01*
X0342717Y0037614D01*
X0342717Y0043614D01*
X0346217Y0043614D01*
X0346217Y0092614D01*
X0305217Y0092614D01*
X0299417Y0093160D02*
X0299417Y0020660D01*
X0303417Y0020660D01*
X0325717Y0039460D02*
X0325717Y0049460D01*
X0321917Y0044460D02*
X0321919Y0044581D01*
X0321925Y0044702D01*
X0321935Y0044823D01*
X0321949Y0044943D01*
X0321966Y0045063D01*
X0321988Y0045182D01*
X0322014Y0045300D01*
X0322043Y0045418D01*
X0322076Y0045534D01*
X0322113Y0045649D01*
X0322154Y0045763D01*
X0322199Y0045876D01*
X0322247Y0045987D01*
X0322299Y0046096D01*
X0322354Y0046204D01*
X0322413Y0046310D01*
X0322475Y0046414D01*
X0322541Y0046516D01*
X0322609Y0046615D01*
X0322682Y0046712D01*
X0322757Y0046807D01*
X0322835Y0046900D01*
X0322917Y0046989D01*
X0323001Y0047076D01*
X0323088Y0047160D01*
X0323177Y0047242D01*
X0323270Y0047320D01*
X0323365Y0047395D01*
X0323462Y0047468D01*
X0323561Y0047536D01*
X0323663Y0047602D01*
X0323767Y0047664D01*
X0323873Y0047723D01*
X0323981Y0047778D01*
X0324090Y0047830D01*
X0324201Y0047878D01*
X0324314Y0047923D01*
X0324428Y0047964D01*
X0324543Y0048001D01*
X0324659Y0048034D01*
X0324777Y0048063D01*
X0324895Y0048089D01*
X0325014Y0048111D01*
X0325134Y0048128D01*
X0325254Y0048142D01*
X0325375Y0048152D01*
X0325496Y0048158D01*
X0325617Y0048160D01*
X0325738Y0048158D01*
X0325859Y0048152D01*
X0325980Y0048142D01*
X0326100Y0048128D01*
X0326220Y0048111D01*
X0326339Y0048089D01*
X0326457Y0048063D01*
X0326575Y0048034D01*
X0326691Y0048001D01*
X0326806Y0047964D01*
X0326920Y0047923D01*
X0327033Y0047878D01*
X0327144Y0047830D01*
X0327253Y0047778D01*
X0327361Y0047723D01*
X0327467Y0047664D01*
X0327571Y0047602D01*
X0327673Y0047536D01*
X0327772Y0047468D01*
X0327869Y0047395D01*
X0327964Y0047320D01*
X0328057Y0047242D01*
X0328146Y0047160D01*
X0328233Y0047076D01*
X0328317Y0046989D01*
X0328399Y0046900D01*
X0328477Y0046807D01*
X0328552Y0046712D01*
X0328625Y0046615D01*
X0328693Y0046516D01*
X0328759Y0046414D01*
X0328821Y0046310D01*
X0328880Y0046204D01*
X0328935Y0046096D01*
X0328987Y0045987D01*
X0329035Y0045876D01*
X0329080Y0045763D01*
X0329121Y0045649D01*
X0329158Y0045534D01*
X0329191Y0045418D01*
X0329220Y0045300D01*
X0329246Y0045182D01*
X0329268Y0045063D01*
X0329285Y0044943D01*
X0329299Y0044823D01*
X0329309Y0044702D01*
X0329315Y0044581D01*
X0329317Y0044460D01*
X0329315Y0044339D01*
X0329309Y0044218D01*
X0329299Y0044097D01*
X0329285Y0043977D01*
X0329268Y0043857D01*
X0329246Y0043738D01*
X0329220Y0043620D01*
X0329191Y0043502D01*
X0329158Y0043386D01*
X0329121Y0043271D01*
X0329080Y0043157D01*
X0329035Y0043044D01*
X0328987Y0042933D01*
X0328935Y0042824D01*
X0328880Y0042716D01*
X0328821Y0042610D01*
X0328759Y0042506D01*
X0328693Y0042404D01*
X0328625Y0042305D01*
X0328552Y0042208D01*
X0328477Y0042113D01*
X0328399Y0042020D01*
X0328317Y0041931D01*
X0328233Y0041844D01*
X0328146Y0041760D01*
X0328057Y0041678D01*
X0327964Y0041600D01*
X0327869Y0041525D01*
X0327772Y0041452D01*
X0327673Y0041384D01*
X0327571Y0041318D01*
X0327467Y0041256D01*
X0327361Y0041197D01*
X0327253Y0041142D01*
X0327144Y0041090D01*
X0327033Y0041042D01*
X0326920Y0040997D01*
X0326806Y0040956D01*
X0326691Y0040919D01*
X0326575Y0040886D01*
X0326457Y0040857D01*
X0326339Y0040831D01*
X0326220Y0040809D01*
X0326100Y0040792D01*
X0325980Y0040778D01*
X0325859Y0040768D01*
X0325738Y0040762D01*
X0325617Y0040760D01*
X0325496Y0040762D01*
X0325375Y0040768D01*
X0325254Y0040778D01*
X0325134Y0040792D01*
X0325014Y0040809D01*
X0324895Y0040831D01*
X0324777Y0040857D01*
X0324659Y0040886D01*
X0324543Y0040919D01*
X0324428Y0040956D01*
X0324314Y0040997D01*
X0324201Y0041042D01*
X0324090Y0041090D01*
X0323981Y0041142D01*
X0323873Y0041197D01*
X0323767Y0041256D01*
X0323663Y0041318D01*
X0323561Y0041384D01*
X0323462Y0041452D01*
X0323365Y0041525D01*
X0323270Y0041600D01*
X0323177Y0041678D01*
X0323088Y0041760D01*
X0323001Y0041844D01*
X0322917Y0041931D01*
X0322835Y0042020D01*
X0322757Y0042113D01*
X0322682Y0042208D01*
X0322609Y0042305D01*
X0322541Y0042404D01*
X0322475Y0042506D01*
X0322413Y0042610D01*
X0322354Y0042716D01*
X0322299Y0042824D01*
X0322247Y0042933D01*
X0322199Y0043044D01*
X0322154Y0043157D01*
X0322113Y0043271D01*
X0322076Y0043386D01*
X0322043Y0043502D01*
X0322014Y0043620D01*
X0321988Y0043738D01*
X0321966Y0043857D01*
X0321949Y0043977D01*
X0321935Y0044097D01*
X0321925Y0044218D01*
X0321919Y0044339D01*
X0321917Y0044460D01*
X0320617Y0044460D02*
X0330617Y0044460D01*
X0318617Y0043614D02*
X0318619Y0043788D01*
X0318626Y0043962D01*
X0318636Y0044136D01*
X0318651Y0044310D01*
X0318670Y0044483D01*
X0318694Y0044656D01*
X0318722Y0044828D01*
X0318753Y0044999D01*
X0318790Y0045170D01*
X0318830Y0045339D01*
X0318874Y0045508D01*
X0318923Y0045675D01*
X0318975Y0045841D01*
X0319032Y0046006D01*
X0319093Y0046169D01*
X0319157Y0046331D01*
X0319226Y0046491D01*
X0319299Y0046650D01*
X0319375Y0046806D01*
X0319455Y0046961D01*
X0319539Y0047114D01*
X0319627Y0047264D01*
X0319719Y0047412D01*
X0319814Y0047559D01*
X0319912Y0047702D01*
X0320014Y0047843D01*
X0320120Y0047982D01*
X0320229Y0048118D01*
X0320341Y0048252D01*
X0320456Y0048382D01*
X0320575Y0048510D01*
X0320697Y0048634D01*
X0320821Y0048756D01*
X0320949Y0048875D01*
X0321079Y0048990D01*
X0321213Y0049102D01*
X0321349Y0049211D01*
X0321488Y0049317D01*
X0321629Y0049419D01*
X0321772Y0049517D01*
X0321919Y0049612D01*
X0322067Y0049704D01*
X0322217Y0049792D01*
X0322370Y0049876D01*
X0322525Y0049956D01*
X0322681Y0050032D01*
X0322840Y0050105D01*
X0323000Y0050174D01*
X0323162Y0050238D01*
X0323325Y0050299D01*
X0323490Y0050356D01*
X0323656Y0050408D01*
X0323823Y0050457D01*
X0323992Y0050501D01*
X0324161Y0050541D01*
X0324332Y0050578D01*
X0324503Y0050609D01*
X0324675Y0050637D01*
X0324848Y0050661D01*
X0325021Y0050680D01*
X0325195Y0050695D01*
X0325369Y0050705D01*
X0325543Y0050712D01*
X0325717Y0050714D01*
X0325891Y0050712D01*
X0326065Y0050705D01*
X0326239Y0050695D01*
X0326413Y0050680D01*
X0326586Y0050661D01*
X0326759Y0050637D01*
X0326931Y0050609D01*
X0327102Y0050578D01*
X0327273Y0050541D01*
X0327442Y0050501D01*
X0327611Y0050457D01*
X0327778Y0050408D01*
X0327944Y0050356D01*
X0328109Y0050299D01*
X0328272Y0050238D01*
X0328434Y0050174D01*
X0328594Y0050105D01*
X0328753Y0050032D01*
X0328909Y0049956D01*
X0329064Y0049876D01*
X0329217Y0049792D01*
X0329367Y0049704D01*
X0329515Y0049612D01*
X0329662Y0049517D01*
X0329805Y0049419D01*
X0329946Y0049317D01*
X0330085Y0049211D01*
X0330221Y0049102D01*
X0330355Y0048990D01*
X0330485Y0048875D01*
X0330613Y0048756D01*
X0330737Y0048634D01*
X0330859Y0048510D01*
X0330978Y0048382D01*
X0331093Y0048252D01*
X0331205Y0048118D01*
X0331314Y0047982D01*
X0331420Y0047843D01*
X0331522Y0047702D01*
X0331620Y0047559D01*
X0331715Y0047412D01*
X0331807Y0047264D01*
X0331895Y0047114D01*
X0331979Y0046961D01*
X0332059Y0046806D01*
X0332135Y0046650D01*
X0332208Y0046491D01*
X0332277Y0046331D01*
X0332341Y0046169D01*
X0332402Y0046006D01*
X0332459Y0045841D01*
X0332511Y0045675D01*
X0332560Y0045508D01*
X0332604Y0045339D01*
X0332644Y0045170D01*
X0332681Y0044999D01*
X0332712Y0044828D01*
X0332740Y0044656D01*
X0332764Y0044483D01*
X0332783Y0044310D01*
X0332798Y0044136D01*
X0332808Y0043962D01*
X0332815Y0043788D01*
X0332817Y0043614D01*
X0332815Y0043440D01*
X0332808Y0043266D01*
X0332798Y0043092D01*
X0332783Y0042918D01*
X0332764Y0042745D01*
X0332740Y0042572D01*
X0332712Y0042400D01*
X0332681Y0042229D01*
X0332644Y0042058D01*
X0332604Y0041889D01*
X0332560Y0041720D01*
X0332511Y0041553D01*
X0332459Y0041387D01*
X0332402Y0041222D01*
X0332341Y0041059D01*
X0332277Y0040897D01*
X0332208Y0040737D01*
X0332135Y0040578D01*
X0332059Y0040422D01*
X0331979Y0040267D01*
X0331895Y0040114D01*
X0331807Y0039964D01*
X0331715Y0039816D01*
X0331620Y0039669D01*
X0331522Y0039526D01*
X0331420Y0039385D01*
X0331314Y0039246D01*
X0331205Y0039110D01*
X0331093Y0038976D01*
X0330978Y0038846D01*
X0330859Y0038718D01*
X0330737Y0038594D01*
X0330613Y0038472D01*
X0330485Y0038353D01*
X0330355Y0038238D01*
X0330221Y0038126D01*
X0330085Y0038017D01*
X0329946Y0037911D01*
X0329805Y0037809D01*
X0329662Y0037711D01*
X0329515Y0037616D01*
X0329367Y0037524D01*
X0329217Y0037436D01*
X0329064Y0037352D01*
X0328909Y0037272D01*
X0328753Y0037196D01*
X0328594Y0037123D01*
X0328434Y0037054D01*
X0328272Y0036990D01*
X0328109Y0036929D01*
X0327944Y0036872D01*
X0327778Y0036820D01*
X0327611Y0036771D01*
X0327442Y0036727D01*
X0327273Y0036687D01*
X0327102Y0036650D01*
X0326931Y0036619D01*
X0326759Y0036591D01*
X0326586Y0036567D01*
X0326413Y0036548D01*
X0326239Y0036533D01*
X0326065Y0036523D01*
X0325891Y0036516D01*
X0325717Y0036514D01*
X0325543Y0036516D01*
X0325369Y0036523D01*
X0325195Y0036533D01*
X0325021Y0036548D01*
X0324848Y0036567D01*
X0324675Y0036591D01*
X0324503Y0036619D01*
X0324332Y0036650D01*
X0324161Y0036687D01*
X0323992Y0036727D01*
X0323823Y0036771D01*
X0323656Y0036820D01*
X0323490Y0036872D01*
X0323325Y0036929D01*
X0323162Y0036990D01*
X0323000Y0037054D01*
X0322840Y0037123D01*
X0322681Y0037196D01*
X0322525Y0037272D01*
X0322370Y0037352D01*
X0322217Y0037436D01*
X0322067Y0037524D01*
X0321919Y0037616D01*
X0321772Y0037711D01*
X0321629Y0037809D01*
X0321488Y0037911D01*
X0321349Y0038017D01*
X0321213Y0038126D01*
X0321079Y0038238D01*
X0320949Y0038353D01*
X0320821Y0038472D01*
X0320697Y0038594D01*
X0320575Y0038718D01*
X0320456Y0038846D01*
X0320341Y0038976D01*
X0320229Y0039110D01*
X0320120Y0039246D01*
X0320014Y0039385D01*
X0319912Y0039526D01*
X0319814Y0039669D01*
X0319719Y0039816D01*
X0319627Y0039964D01*
X0319539Y0040114D01*
X0319455Y0040267D01*
X0319375Y0040422D01*
X0319299Y0040578D01*
X0319226Y0040737D01*
X0319157Y0040897D01*
X0319093Y0041059D01*
X0319032Y0041222D01*
X0318975Y0041387D01*
X0318923Y0041553D01*
X0318874Y0041720D01*
X0318830Y0041889D01*
X0318790Y0042058D01*
X0318753Y0042229D01*
X0318722Y0042400D01*
X0318694Y0042572D01*
X0318670Y0042745D01*
X0318651Y0042918D01*
X0318636Y0043092D01*
X0318626Y0043266D01*
X0318619Y0043440D01*
X0318617Y0043614D01*
X0347917Y0020660D02*
X0351917Y0020660D01*
X0351917Y0093160D01*
X0347917Y0093160D01*
X0347917Y0079660D01*
X0343854Y0112535D02*
X0302854Y0112535D01*
X0302854Y0161535D01*
X0306354Y0161535D01*
X0306354Y0167535D01*
X0302854Y0167535D01*
X0302854Y0175035D01*
X0343854Y0175035D01*
X0343854Y0167535D01*
X0340354Y0167535D01*
X0340354Y0161535D01*
X0343854Y0161535D01*
X0343854Y0112535D01*
X0345654Y0112776D02*
X0345654Y0126276D01*
X0345654Y0185276D01*
X0301154Y0185276D01*
X0301154Y0126276D01*
X0345654Y0126276D01*
X0345654Y0112776D02*
X0349654Y0112776D01*
X0349654Y0185276D01*
X0345654Y0185276D01*
X0323354Y0166476D02*
X0323354Y0156476D01*
X0319754Y0161476D02*
X0319756Y0161597D01*
X0319762Y0161718D01*
X0319772Y0161839D01*
X0319786Y0161959D01*
X0319803Y0162079D01*
X0319825Y0162198D01*
X0319851Y0162316D01*
X0319880Y0162434D01*
X0319913Y0162550D01*
X0319950Y0162665D01*
X0319991Y0162779D01*
X0320036Y0162892D01*
X0320084Y0163003D01*
X0320136Y0163112D01*
X0320191Y0163220D01*
X0320250Y0163326D01*
X0320312Y0163430D01*
X0320378Y0163532D01*
X0320446Y0163631D01*
X0320519Y0163728D01*
X0320594Y0163823D01*
X0320672Y0163916D01*
X0320754Y0164005D01*
X0320838Y0164092D01*
X0320925Y0164176D01*
X0321014Y0164258D01*
X0321107Y0164336D01*
X0321202Y0164411D01*
X0321299Y0164484D01*
X0321398Y0164552D01*
X0321500Y0164618D01*
X0321604Y0164680D01*
X0321710Y0164739D01*
X0321818Y0164794D01*
X0321927Y0164846D01*
X0322038Y0164894D01*
X0322151Y0164939D01*
X0322265Y0164980D01*
X0322380Y0165017D01*
X0322496Y0165050D01*
X0322614Y0165079D01*
X0322732Y0165105D01*
X0322851Y0165127D01*
X0322971Y0165144D01*
X0323091Y0165158D01*
X0323212Y0165168D01*
X0323333Y0165174D01*
X0323454Y0165176D01*
X0323575Y0165174D01*
X0323696Y0165168D01*
X0323817Y0165158D01*
X0323937Y0165144D01*
X0324057Y0165127D01*
X0324176Y0165105D01*
X0324294Y0165079D01*
X0324412Y0165050D01*
X0324528Y0165017D01*
X0324643Y0164980D01*
X0324757Y0164939D01*
X0324870Y0164894D01*
X0324981Y0164846D01*
X0325090Y0164794D01*
X0325198Y0164739D01*
X0325304Y0164680D01*
X0325408Y0164618D01*
X0325510Y0164552D01*
X0325609Y0164484D01*
X0325706Y0164411D01*
X0325801Y0164336D01*
X0325894Y0164258D01*
X0325983Y0164176D01*
X0326070Y0164092D01*
X0326154Y0164005D01*
X0326236Y0163916D01*
X0326314Y0163823D01*
X0326389Y0163728D01*
X0326462Y0163631D01*
X0326530Y0163532D01*
X0326596Y0163430D01*
X0326658Y0163326D01*
X0326717Y0163220D01*
X0326772Y0163112D01*
X0326824Y0163003D01*
X0326872Y0162892D01*
X0326917Y0162779D01*
X0326958Y0162665D01*
X0326995Y0162550D01*
X0327028Y0162434D01*
X0327057Y0162316D01*
X0327083Y0162198D01*
X0327105Y0162079D01*
X0327122Y0161959D01*
X0327136Y0161839D01*
X0327146Y0161718D01*
X0327152Y0161597D01*
X0327154Y0161476D01*
X0327152Y0161355D01*
X0327146Y0161234D01*
X0327136Y0161113D01*
X0327122Y0160993D01*
X0327105Y0160873D01*
X0327083Y0160754D01*
X0327057Y0160636D01*
X0327028Y0160518D01*
X0326995Y0160402D01*
X0326958Y0160287D01*
X0326917Y0160173D01*
X0326872Y0160060D01*
X0326824Y0159949D01*
X0326772Y0159840D01*
X0326717Y0159732D01*
X0326658Y0159626D01*
X0326596Y0159522D01*
X0326530Y0159420D01*
X0326462Y0159321D01*
X0326389Y0159224D01*
X0326314Y0159129D01*
X0326236Y0159036D01*
X0326154Y0158947D01*
X0326070Y0158860D01*
X0325983Y0158776D01*
X0325894Y0158694D01*
X0325801Y0158616D01*
X0325706Y0158541D01*
X0325609Y0158468D01*
X0325510Y0158400D01*
X0325408Y0158334D01*
X0325304Y0158272D01*
X0325198Y0158213D01*
X0325090Y0158158D01*
X0324981Y0158106D01*
X0324870Y0158058D01*
X0324757Y0158013D01*
X0324643Y0157972D01*
X0324528Y0157935D01*
X0324412Y0157902D01*
X0324294Y0157873D01*
X0324176Y0157847D01*
X0324057Y0157825D01*
X0323937Y0157808D01*
X0323817Y0157794D01*
X0323696Y0157784D01*
X0323575Y0157778D01*
X0323454Y0157776D01*
X0323333Y0157778D01*
X0323212Y0157784D01*
X0323091Y0157794D01*
X0322971Y0157808D01*
X0322851Y0157825D01*
X0322732Y0157847D01*
X0322614Y0157873D01*
X0322496Y0157902D01*
X0322380Y0157935D01*
X0322265Y0157972D01*
X0322151Y0158013D01*
X0322038Y0158058D01*
X0321927Y0158106D01*
X0321818Y0158158D01*
X0321710Y0158213D01*
X0321604Y0158272D01*
X0321500Y0158334D01*
X0321398Y0158400D01*
X0321299Y0158468D01*
X0321202Y0158541D01*
X0321107Y0158616D01*
X0321014Y0158694D01*
X0320925Y0158776D01*
X0320838Y0158860D01*
X0320754Y0158947D01*
X0320672Y0159036D01*
X0320594Y0159129D01*
X0320519Y0159224D01*
X0320446Y0159321D01*
X0320378Y0159420D01*
X0320312Y0159522D01*
X0320250Y0159626D01*
X0320191Y0159732D01*
X0320136Y0159840D01*
X0320084Y0159949D01*
X0320036Y0160060D01*
X0319991Y0160173D01*
X0319950Y0160287D01*
X0319913Y0160402D01*
X0319880Y0160518D01*
X0319851Y0160636D01*
X0319825Y0160754D01*
X0319803Y0160873D01*
X0319786Y0160993D01*
X0319772Y0161113D01*
X0319762Y0161234D01*
X0319756Y0161355D01*
X0319754Y0161476D01*
X0318454Y0161476D02*
X0328454Y0161476D01*
X0316254Y0161535D02*
X0316256Y0161709D01*
X0316263Y0161883D01*
X0316273Y0162057D01*
X0316288Y0162231D01*
X0316307Y0162404D01*
X0316331Y0162577D01*
X0316359Y0162749D01*
X0316390Y0162920D01*
X0316427Y0163091D01*
X0316467Y0163260D01*
X0316511Y0163429D01*
X0316560Y0163596D01*
X0316612Y0163762D01*
X0316669Y0163927D01*
X0316730Y0164090D01*
X0316794Y0164252D01*
X0316863Y0164412D01*
X0316936Y0164571D01*
X0317012Y0164727D01*
X0317092Y0164882D01*
X0317176Y0165035D01*
X0317264Y0165185D01*
X0317356Y0165333D01*
X0317451Y0165480D01*
X0317549Y0165623D01*
X0317651Y0165764D01*
X0317757Y0165903D01*
X0317866Y0166039D01*
X0317978Y0166173D01*
X0318093Y0166303D01*
X0318212Y0166431D01*
X0318334Y0166555D01*
X0318458Y0166677D01*
X0318586Y0166796D01*
X0318716Y0166911D01*
X0318850Y0167023D01*
X0318986Y0167132D01*
X0319125Y0167238D01*
X0319266Y0167340D01*
X0319409Y0167438D01*
X0319556Y0167533D01*
X0319704Y0167625D01*
X0319854Y0167713D01*
X0320007Y0167797D01*
X0320162Y0167877D01*
X0320318Y0167953D01*
X0320477Y0168026D01*
X0320637Y0168095D01*
X0320799Y0168159D01*
X0320962Y0168220D01*
X0321127Y0168277D01*
X0321293Y0168329D01*
X0321460Y0168378D01*
X0321629Y0168422D01*
X0321798Y0168462D01*
X0321969Y0168499D01*
X0322140Y0168530D01*
X0322312Y0168558D01*
X0322485Y0168582D01*
X0322658Y0168601D01*
X0322832Y0168616D01*
X0323006Y0168626D01*
X0323180Y0168633D01*
X0323354Y0168635D01*
X0323528Y0168633D01*
X0323702Y0168626D01*
X0323876Y0168616D01*
X0324050Y0168601D01*
X0324223Y0168582D01*
X0324396Y0168558D01*
X0324568Y0168530D01*
X0324739Y0168499D01*
X0324910Y0168462D01*
X0325079Y0168422D01*
X0325248Y0168378D01*
X0325415Y0168329D01*
X0325581Y0168277D01*
X0325746Y0168220D01*
X0325909Y0168159D01*
X0326071Y0168095D01*
X0326231Y0168026D01*
X0326390Y0167953D01*
X0326546Y0167877D01*
X0326701Y0167797D01*
X0326854Y0167713D01*
X0327004Y0167625D01*
X0327152Y0167533D01*
X0327299Y0167438D01*
X0327442Y0167340D01*
X0327583Y0167238D01*
X0327722Y0167132D01*
X0327858Y0167023D01*
X0327992Y0166911D01*
X0328122Y0166796D01*
X0328250Y0166677D01*
X0328374Y0166555D01*
X0328496Y0166431D01*
X0328615Y0166303D01*
X0328730Y0166173D01*
X0328842Y0166039D01*
X0328951Y0165903D01*
X0329057Y0165764D01*
X0329159Y0165623D01*
X0329257Y0165480D01*
X0329352Y0165333D01*
X0329444Y0165185D01*
X0329532Y0165035D01*
X0329616Y0164882D01*
X0329696Y0164727D01*
X0329772Y0164571D01*
X0329845Y0164412D01*
X0329914Y0164252D01*
X0329978Y0164090D01*
X0330039Y0163927D01*
X0330096Y0163762D01*
X0330148Y0163596D01*
X0330197Y0163429D01*
X0330241Y0163260D01*
X0330281Y0163091D01*
X0330318Y0162920D01*
X0330349Y0162749D01*
X0330377Y0162577D01*
X0330401Y0162404D01*
X0330420Y0162231D01*
X0330435Y0162057D01*
X0330445Y0161883D01*
X0330452Y0161709D01*
X0330454Y0161535D01*
X0330452Y0161361D01*
X0330445Y0161187D01*
X0330435Y0161013D01*
X0330420Y0160839D01*
X0330401Y0160666D01*
X0330377Y0160493D01*
X0330349Y0160321D01*
X0330318Y0160150D01*
X0330281Y0159979D01*
X0330241Y0159810D01*
X0330197Y0159641D01*
X0330148Y0159474D01*
X0330096Y0159308D01*
X0330039Y0159143D01*
X0329978Y0158980D01*
X0329914Y0158818D01*
X0329845Y0158658D01*
X0329772Y0158499D01*
X0329696Y0158343D01*
X0329616Y0158188D01*
X0329532Y0158035D01*
X0329444Y0157885D01*
X0329352Y0157737D01*
X0329257Y0157590D01*
X0329159Y0157447D01*
X0329057Y0157306D01*
X0328951Y0157167D01*
X0328842Y0157031D01*
X0328730Y0156897D01*
X0328615Y0156767D01*
X0328496Y0156639D01*
X0328374Y0156515D01*
X0328250Y0156393D01*
X0328122Y0156274D01*
X0327992Y0156159D01*
X0327858Y0156047D01*
X0327722Y0155938D01*
X0327583Y0155832D01*
X0327442Y0155730D01*
X0327299Y0155632D01*
X0327152Y0155537D01*
X0327004Y0155445D01*
X0326854Y0155357D01*
X0326701Y0155273D01*
X0326546Y0155193D01*
X0326390Y0155117D01*
X0326231Y0155044D01*
X0326071Y0154975D01*
X0325909Y0154911D01*
X0325746Y0154850D01*
X0325581Y0154793D01*
X0325415Y0154741D01*
X0325248Y0154692D01*
X0325079Y0154648D01*
X0324910Y0154608D01*
X0324739Y0154571D01*
X0324568Y0154540D01*
X0324396Y0154512D01*
X0324223Y0154488D01*
X0324050Y0154469D01*
X0323876Y0154454D01*
X0323702Y0154444D01*
X0323528Y0154437D01*
X0323354Y0154435D01*
X0323180Y0154437D01*
X0323006Y0154444D01*
X0322832Y0154454D01*
X0322658Y0154469D01*
X0322485Y0154488D01*
X0322312Y0154512D01*
X0322140Y0154540D01*
X0321969Y0154571D01*
X0321798Y0154608D01*
X0321629Y0154648D01*
X0321460Y0154692D01*
X0321293Y0154741D01*
X0321127Y0154793D01*
X0320962Y0154850D01*
X0320799Y0154911D01*
X0320637Y0154975D01*
X0320477Y0155044D01*
X0320318Y0155117D01*
X0320162Y0155193D01*
X0320007Y0155273D01*
X0319854Y0155357D01*
X0319704Y0155445D01*
X0319556Y0155537D01*
X0319409Y0155632D01*
X0319266Y0155730D01*
X0319125Y0155832D01*
X0318986Y0155938D01*
X0318850Y0156047D01*
X0318716Y0156159D01*
X0318586Y0156274D01*
X0318458Y0156393D01*
X0318334Y0156515D01*
X0318212Y0156639D01*
X0318093Y0156767D01*
X0317978Y0156897D01*
X0317866Y0157031D01*
X0317757Y0157167D01*
X0317651Y0157306D01*
X0317549Y0157447D01*
X0317451Y0157590D01*
X0317356Y0157737D01*
X0317264Y0157885D01*
X0317176Y0158035D01*
X0317092Y0158188D01*
X0317012Y0158343D01*
X0316936Y0158499D01*
X0316863Y0158658D01*
X0316794Y0158818D01*
X0316730Y0158980D01*
X0316669Y0159143D01*
X0316612Y0159308D01*
X0316560Y0159474D01*
X0316511Y0159641D01*
X0316467Y0159810D01*
X0316427Y0159979D01*
X0316390Y0160150D01*
X0316359Y0160321D01*
X0316331Y0160493D01*
X0316307Y0160666D01*
X0316288Y0160839D01*
X0316273Y0161013D01*
X0316263Y0161187D01*
X0316256Y0161361D01*
X0316254Y0161535D01*
X0272988Y0161535D02*
X0269488Y0161535D01*
X0269488Y0167535D01*
X0272988Y0167535D01*
X0272988Y0175035D01*
X0231988Y0175035D01*
X0231988Y0167535D01*
X0235488Y0167535D01*
X0235488Y0161535D01*
X0231988Y0161535D01*
X0231988Y0112535D01*
X0272988Y0112535D01*
X0272988Y0161535D01*
X0257588Y0161476D02*
X0247588Y0161476D01*
X0245388Y0161535D02*
X0245390Y0161709D01*
X0245397Y0161883D01*
X0245407Y0162057D01*
X0245422Y0162231D01*
X0245441Y0162404D01*
X0245465Y0162577D01*
X0245493Y0162749D01*
X0245524Y0162920D01*
X0245561Y0163091D01*
X0245601Y0163260D01*
X0245645Y0163429D01*
X0245694Y0163596D01*
X0245746Y0163762D01*
X0245803Y0163927D01*
X0245864Y0164090D01*
X0245928Y0164252D01*
X0245997Y0164412D01*
X0246070Y0164571D01*
X0246146Y0164727D01*
X0246226Y0164882D01*
X0246310Y0165035D01*
X0246398Y0165185D01*
X0246490Y0165333D01*
X0246585Y0165480D01*
X0246683Y0165623D01*
X0246785Y0165764D01*
X0246891Y0165903D01*
X0247000Y0166039D01*
X0247112Y0166173D01*
X0247227Y0166303D01*
X0247346Y0166431D01*
X0247468Y0166555D01*
X0247592Y0166677D01*
X0247720Y0166796D01*
X0247850Y0166911D01*
X0247984Y0167023D01*
X0248120Y0167132D01*
X0248259Y0167238D01*
X0248400Y0167340D01*
X0248543Y0167438D01*
X0248690Y0167533D01*
X0248838Y0167625D01*
X0248988Y0167713D01*
X0249141Y0167797D01*
X0249296Y0167877D01*
X0249452Y0167953D01*
X0249611Y0168026D01*
X0249771Y0168095D01*
X0249933Y0168159D01*
X0250096Y0168220D01*
X0250261Y0168277D01*
X0250427Y0168329D01*
X0250594Y0168378D01*
X0250763Y0168422D01*
X0250932Y0168462D01*
X0251103Y0168499D01*
X0251274Y0168530D01*
X0251446Y0168558D01*
X0251619Y0168582D01*
X0251792Y0168601D01*
X0251966Y0168616D01*
X0252140Y0168626D01*
X0252314Y0168633D01*
X0252488Y0168635D01*
X0252662Y0168633D01*
X0252836Y0168626D01*
X0253010Y0168616D01*
X0253184Y0168601D01*
X0253357Y0168582D01*
X0253530Y0168558D01*
X0253702Y0168530D01*
X0253873Y0168499D01*
X0254044Y0168462D01*
X0254213Y0168422D01*
X0254382Y0168378D01*
X0254549Y0168329D01*
X0254715Y0168277D01*
X0254880Y0168220D01*
X0255043Y0168159D01*
X0255205Y0168095D01*
X0255365Y0168026D01*
X0255524Y0167953D01*
X0255680Y0167877D01*
X0255835Y0167797D01*
X0255988Y0167713D01*
X0256138Y0167625D01*
X0256286Y0167533D01*
X0256433Y0167438D01*
X0256576Y0167340D01*
X0256717Y0167238D01*
X0256856Y0167132D01*
X0256992Y0167023D01*
X0257126Y0166911D01*
X0257256Y0166796D01*
X0257384Y0166677D01*
X0257508Y0166555D01*
X0257630Y0166431D01*
X0257749Y0166303D01*
X0257864Y0166173D01*
X0257976Y0166039D01*
X0258085Y0165903D01*
X0258191Y0165764D01*
X0258293Y0165623D01*
X0258391Y0165480D01*
X0258486Y0165333D01*
X0258578Y0165185D01*
X0258666Y0165035D01*
X0258750Y0164882D01*
X0258830Y0164727D01*
X0258906Y0164571D01*
X0258979Y0164412D01*
X0259048Y0164252D01*
X0259112Y0164090D01*
X0259173Y0163927D01*
X0259230Y0163762D01*
X0259282Y0163596D01*
X0259331Y0163429D01*
X0259375Y0163260D01*
X0259415Y0163091D01*
X0259452Y0162920D01*
X0259483Y0162749D01*
X0259511Y0162577D01*
X0259535Y0162404D01*
X0259554Y0162231D01*
X0259569Y0162057D01*
X0259579Y0161883D01*
X0259586Y0161709D01*
X0259588Y0161535D01*
X0259586Y0161361D01*
X0259579Y0161187D01*
X0259569Y0161013D01*
X0259554Y0160839D01*
X0259535Y0160666D01*
X0259511Y0160493D01*
X0259483Y0160321D01*
X0259452Y0160150D01*
X0259415Y0159979D01*
X0259375Y0159810D01*
X0259331Y0159641D01*
X0259282Y0159474D01*
X0259230Y0159308D01*
X0259173Y0159143D01*
X0259112Y0158980D01*
X0259048Y0158818D01*
X0258979Y0158658D01*
X0258906Y0158499D01*
X0258830Y0158343D01*
X0258750Y0158188D01*
X0258666Y0158035D01*
X0258578Y0157885D01*
X0258486Y0157737D01*
X0258391Y0157590D01*
X0258293Y0157447D01*
X0258191Y0157306D01*
X0258085Y0157167D01*
X0257976Y0157031D01*
X0257864Y0156897D01*
X0257749Y0156767D01*
X0257630Y0156639D01*
X0257508Y0156515D01*
X0257384Y0156393D01*
X0257256Y0156274D01*
X0257126Y0156159D01*
X0256992Y0156047D01*
X0256856Y0155938D01*
X0256717Y0155832D01*
X0256576Y0155730D01*
X0256433Y0155632D01*
X0256286Y0155537D01*
X0256138Y0155445D01*
X0255988Y0155357D01*
X0255835Y0155273D01*
X0255680Y0155193D01*
X0255524Y0155117D01*
X0255365Y0155044D01*
X0255205Y0154975D01*
X0255043Y0154911D01*
X0254880Y0154850D01*
X0254715Y0154793D01*
X0254549Y0154741D01*
X0254382Y0154692D01*
X0254213Y0154648D01*
X0254044Y0154608D01*
X0253873Y0154571D01*
X0253702Y0154540D01*
X0253530Y0154512D01*
X0253357Y0154488D01*
X0253184Y0154469D01*
X0253010Y0154454D01*
X0252836Y0154444D01*
X0252662Y0154437D01*
X0252488Y0154435D01*
X0252314Y0154437D01*
X0252140Y0154444D01*
X0251966Y0154454D01*
X0251792Y0154469D01*
X0251619Y0154488D01*
X0251446Y0154512D01*
X0251274Y0154540D01*
X0251103Y0154571D01*
X0250932Y0154608D01*
X0250763Y0154648D01*
X0250594Y0154692D01*
X0250427Y0154741D01*
X0250261Y0154793D01*
X0250096Y0154850D01*
X0249933Y0154911D01*
X0249771Y0154975D01*
X0249611Y0155044D01*
X0249452Y0155117D01*
X0249296Y0155193D01*
X0249141Y0155273D01*
X0248988Y0155357D01*
X0248838Y0155445D01*
X0248690Y0155537D01*
X0248543Y0155632D01*
X0248400Y0155730D01*
X0248259Y0155832D01*
X0248120Y0155938D01*
X0247984Y0156047D01*
X0247850Y0156159D01*
X0247720Y0156274D01*
X0247592Y0156393D01*
X0247468Y0156515D01*
X0247346Y0156639D01*
X0247227Y0156767D01*
X0247112Y0156897D01*
X0247000Y0157031D01*
X0246891Y0157167D01*
X0246785Y0157306D01*
X0246683Y0157447D01*
X0246585Y0157590D01*
X0246490Y0157737D01*
X0246398Y0157885D01*
X0246310Y0158035D01*
X0246226Y0158188D01*
X0246146Y0158343D01*
X0246070Y0158499D01*
X0245997Y0158658D01*
X0245928Y0158818D01*
X0245864Y0158980D01*
X0245803Y0159143D01*
X0245746Y0159308D01*
X0245694Y0159474D01*
X0245645Y0159641D01*
X0245601Y0159810D01*
X0245561Y0159979D01*
X0245524Y0160150D01*
X0245493Y0160321D01*
X0245465Y0160493D01*
X0245441Y0160666D01*
X0245422Y0160839D01*
X0245407Y0161013D01*
X0245397Y0161187D01*
X0245390Y0161361D01*
X0245388Y0161535D01*
X0248888Y0161476D02*
X0248890Y0161597D01*
X0248896Y0161718D01*
X0248906Y0161839D01*
X0248920Y0161959D01*
X0248937Y0162079D01*
X0248959Y0162198D01*
X0248985Y0162316D01*
X0249014Y0162434D01*
X0249047Y0162550D01*
X0249084Y0162665D01*
X0249125Y0162779D01*
X0249170Y0162892D01*
X0249218Y0163003D01*
X0249270Y0163112D01*
X0249325Y0163220D01*
X0249384Y0163326D01*
X0249446Y0163430D01*
X0249512Y0163532D01*
X0249580Y0163631D01*
X0249653Y0163728D01*
X0249728Y0163823D01*
X0249806Y0163916D01*
X0249888Y0164005D01*
X0249972Y0164092D01*
X0250059Y0164176D01*
X0250148Y0164258D01*
X0250241Y0164336D01*
X0250336Y0164411D01*
X0250433Y0164484D01*
X0250532Y0164552D01*
X0250634Y0164618D01*
X0250738Y0164680D01*
X0250844Y0164739D01*
X0250952Y0164794D01*
X0251061Y0164846D01*
X0251172Y0164894D01*
X0251285Y0164939D01*
X0251399Y0164980D01*
X0251514Y0165017D01*
X0251630Y0165050D01*
X0251748Y0165079D01*
X0251866Y0165105D01*
X0251985Y0165127D01*
X0252105Y0165144D01*
X0252225Y0165158D01*
X0252346Y0165168D01*
X0252467Y0165174D01*
X0252588Y0165176D01*
X0252709Y0165174D01*
X0252830Y0165168D01*
X0252951Y0165158D01*
X0253071Y0165144D01*
X0253191Y0165127D01*
X0253310Y0165105D01*
X0253428Y0165079D01*
X0253546Y0165050D01*
X0253662Y0165017D01*
X0253777Y0164980D01*
X0253891Y0164939D01*
X0254004Y0164894D01*
X0254115Y0164846D01*
X0254224Y0164794D01*
X0254332Y0164739D01*
X0254438Y0164680D01*
X0254542Y0164618D01*
X0254644Y0164552D01*
X0254743Y0164484D01*
X0254840Y0164411D01*
X0254935Y0164336D01*
X0255028Y0164258D01*
X0255117Y0164176D01*
X0255204Y0164092D01*
X0255288Y0164005D01*
X0255370Y0163916D01*
X0255448Y0163823D01*
X0255523Y0163728D01*
X0255596Y0163631D01*
X0255664Y0163532D01*
X0255730Y0163430D01*
X0255792Y0163326D01*
X0255851Y0163220D01*
X0255906Y0163112D01*
X0255958Y0163003D01*
X0256006Y0162892D01*
X0256051Y0162779D01*
X0256092Y0162665D01*
X0256129Y0162550D01*
X0256162Y0162434D01*
X0256191Y0162316D01*
X0256217Y0162198D01*
X0256239Y0162079D01*
X0256256Y0161959D01*
X0256270Y0161839D01*
X0256280Y0161718D01*
X0256286Y0161597D01*
X0256288Y0161476D01*
X0256286Y0161355D01*
X0256280Y0161234D01*
X0256270Y0161113D01*
X0256256Y0160993D01*
X0256239Y0160873D01*
X0256217Y0160754D01*
X0256191Y0160636D01*
X0256162Y0160518D01*
X0256129Y0160402D01*
X0256092Y0160287D01*
X0256051Y0160173D01*
X0256006Y0160060D01*
X0255958Y0159949D01*
X0255906Y0159840D01*
X0255851Y0159732D01*
X0255792Y0159626D01*
X0255730Y0159522D01*
X0255664Y0159420D01*
X0255596Y0159321D01*
X0255523Y0159224D01*
X0255448Y0159129D01*
X0255370Y0159036D01*
X0255288Y0158947D01*
X0255204Y0158860D01*
X0255117Y0158776D01*
X0255028Y0158694D01*
X0254935Y0158616D01*
X0254840Y0158541D01*
X0254743Y0158468D01*
X0254644Y0158400D01*
X0254542Y0158334D01*
X0254438Y0158272D01*
X0254332Y0158213D01*
X0254224Y0158158D01*
X0254115Y0158106D01*
X0254004Y0158058D01*
X0253891Y0158013D01*
X0253777Y0157972D01*
X0253662Y0157935D01*
X0253546Y0157902D01*
X0253428Y0157873D01*
X0253310Y0157847D01*
X0253191Y0157825D01*
X0253071Y0157808D01*
X0252951Y0157794D01*
X0252830Y0157784D01*
X0252709Y0157778D01*
X0252588Y0157776D01*
X0252467Y0157778D01*
X0252346Y0157784D01*
X0252225Y0157794D01*
X0252105Y0157808D01*
X0251985Y0157825D01*
X0251866Y0157847D01*
X0251748Y0157873D01*
X0251630Y0157902D01*
X0251514Y0157935D01*
X0251399Y0157972D01*
X0251285Y0158013D01*
X0251172Y0158058D01*
X0251061Y0158106D01*
X0250952Y0158158D01*
X0250844Y0158213D01*
X0250738Y0158272D01*
X0250634Y0158334D01*
X0250532Y0158400D01*
X0250433Y0158468D01*
X0250336Y0158541D01*
X0250241Y0158616D01*
X0250148Y0158694D01*
X0250059Y0158776D01*
X0249972Y0158860D01*
X0249888Y0158947D01*
X0249806Y0159036D01*
X0249728Y0159129D01*
X0249653Y0159224D01*
X0249580Y0159321D01*
X0249512Y0159420D01*
X0249446Y0159522D01*
X0249384Y0159626D01*
X0249325Y0159732D01*
X0249270Y0159840D01*
X0249218Y0159949D01*
X0249170Y0160060D01*
X0249125Y0160173D01*
X0249084Y0160287D01*
X0249047Y0160402D01*
X0249014Y0160518D01*
X0248985Y0160636D01*
X0248959Y0160754D01*
X0248937Y0160873D01*
X0248920Y0160993D01*
X0248906Y0161113D01*
X0248896Y0161234D01*
X0248890Y0161355D01*
X0248888Y0161476D01*
X0252488Y0166476D02*
X0252488Y0156476D01*
X0202122Y0161535D02*
X0198622Y0161535D01*
X0198622Y0167535D01*
X0202122Y0167535D01*
X0202122Y0175035D01*
X0161122Y0175035D01*
X0161122Y0167535D01*
X0164622Y0167535D01*
X0164622Y0161535D01*
X0161122Y0161535D01*
X0161122Y0112535D01*
X0202122Y0112535D01*
X0202122Y0161535D01*
X0186722Y0161476D02*
X0176722Y0161476D01*
X0174522Y0161535D02*
X0174524Y0161709D01*
X0174531Y0161883D01*
X0174541Y0162057D01*
X0174556Y0162231D01*
X0174575Y0162404D01*
X0174599Y0162577D01*
X0174627Y0162749D01*
X0174658Y0162920D01*
X0174695Y0163091D01*
X0174735Y0163260D01*
X0174779Y0163429D01*
X0174828Y0163596D01*
X0174880Y0163762D01*
X0174937Y0163927D01*
X0174998Y0164090D01*
X0175062Y0164252D01*
X0175131Y0164412D01*
X0175204Y0164571D01*
X0175280Y0164727D01*
X0175360Y0164882D01*
X0175444Y0165035D01*
X0175532Y0165185D01*
X0175624Y0165333D01*
X0175719Y0165480D01*
X0175817Y0165623D01*
X0175919Y0165764D01*
X0176025Y0165903D01*
X0176134Y0166039D01*
X0176246Y0166173D01*
X0176361Y0166303D01*
X0176480Y0166431D01*
X0176602Y0166555D01*
X0176726Y0166677D01*
X0176854Y0166796D01*
X0176984Y0166911D01*
X0177118Y0167023D01*
X0177254Y0167132D01*
X0177393Y0167238D01*
X0177534Y0167340D01*
X0177677Y0167438D01*
X0177824Y0167533D01*
X0177972Y0167625D01*
X0178122Y0167713D01*
X0178275Y0167797D01*
X0178430Y0167877D01*
X0178586Y0167953D01*
X0178745Y0168026D01*
X0178905Y0168095D01*
X0179067Y0168159D01*
X0179230Y0168220D01*
X0179395Y0168277D01*
X0179561Y0168329D01*
X0179728Y0168378D01*
X0179897Y0168422D01*
X0180066Y0168462D01*
X0180237Y0168499D01*
X0180408Y0168530D01*
X0180580Y0168558D01*
X0180753Y0168582D01*
X0180926Y0168601D01*
X0181100Y0168616D01*
X0181274Y0168626D01*
X0181448Y0168633D01*
X0181622Y0168635D01*
X0181796Y0168633D01*
X0181970Y0168626D01*
X0182144Y0168616D01*
X0182318Y0168601D01*
X0182491Y0168582D01*
X0182664Y0168558D01*
X0182836Y0168530D01*
X0183007Y0168499D01*
X0183178Y0168462D01*
X0183347Y0168422D01*
X0183516Y0168378D01*
X0183683Y0168329D01*
X0183849Y0168277D01*
X0184014Y0168220D01*
X0184177Y0168159D01*
X0184339Y0168095D01*
X0184499Y0168026D01*
X0184658Y0167953D01*
X0184814Y0167877D01*
X0184969Y0167797D01*
X0185122Y0167713D01*
X0185272Y0167625D01*
X0185420Y0167533D01*
X0185567Y0167438D01*
X0185710Y0167340D01*
X0185851Y0167238D01*
X0185990Y0167132D01*
X0186126Y0167023D01*
X0186260Y0166911D01*
X0186390Y0166796D01*
X0186518Y0166677D01*
X0186642Y0166555D01*
X0186764Y0166431D01*
X0186883Y0166303D01*
X0186998Y0166173D01*
X0187110Y0166039D01*
X0187219Y0165903D01*
X0187325Y0165764D01*
X0187427Y0165623D01*
X0187525Y0165480D01*
X0187620Y0165333D01*
X0187712Y0165185D01*
X0187800Y0165035D01*
X0187884Y0164882D01*
X0187964Y0164727D01*
X0188040Y0164571D01*
X0188113Y0164412D01*
X0188182Y0164252D01*
X0188246Y0164090D01*
X0188307Y0163927D01*
X0188364Y0163762D01*
X0188416Y0163596D01*
X0188465Y0163429D01*
X0188509Y0163260D01*
X0188549Y0163091D01*
X0188586Y0162920D01*
X0188617Y0162749D01*
X0188645Y0162577D01*
X0188669Y0162404D01*
X0188688Y0162231D01*
X0188703Y0162057D01*
X0188713Y0161883D01*
X0188720Y0161709D01*
X0188722Y0161535D01*
X0188720Y0161361D01*
X0188713Y0161187D01*
X0188703Y0161013D01*
X0188688Y0160839D01*
X0188669Y0160666D01*
X0188645Y0160493D01*
X0188617Y0160321D01*
X0188586Y0160150D01*
X0188549Y0159979D01*
X0188509Y0159810D01*
X0188465Y0159641D01*
X0188416Y0159474D01*
X0188364Y0159308D01*
X0188307Y0159143D01*
X0188246Y0158980D01*
X0188182Y0158818D01*
X0188113Y0158658D01*
X0188040Y0158499D01*
X0187964Y0158343D01*
X0187884Y0158188D01*
X0187800Y0158035D01*
X0187712Y0157885D01*
X0187620Y0157737D01*
X0187525Y0157590D01*
X0187427Y0157447D01*
X0187325Y0157306D01*
X0187219Y0157167D01*
X0187110Y0157031D01*
X0186998Y0156897D01*
X0186883Y0156767D01*
X0186764Y0156639D01*
X0186642Y0156515D01*
X0186518Y0156393D01*
X0186390Y0156274D01*
X0186260Y0156159D01*
X0186126Y0156047D01*
X0185990Y0155938D01*
X0185851Y0155832D01*
X0185710Y0155730D01*
X0185567Y0155632D01*
X0185420Y0155537D01*
X0185272Y0155445D01*
X0185122Y0155357D01*
X0184969Y0155273D01*
X0184814Y0155193D01*
X0184658Y0155117D01*
X0184499Y0155044D01*
X0184339Y0154975D01*
X0184177Y0154911D01*
X0184014Y0154850D01*
X0183849Y0154793D01*
X0183683Y0154741D01*
X0183516Y0154692D01*
X0183347Y0154648D01*
X0183178Y0154608D01*
X0183007Y0154571D01*
X0182836Y0154540D01*
X0182664Y0154512D01*
X0182491Y0154488D01*
X0182318Y0154469D01*
X0182144Y0154454D01*
X0181970Y0154444D01*
X0181796Y0154437D01*
X0181622Y0154435D01*
X0181448Y0154437D01*
X0181274Y0154444D01*
X0181100Y0154454D01*
X0180926Y0154469D01*
X0180753Y0154488D01*
X0180580Y0154512D01*
X0180408Y0154540D01*
X0180237Y0154571D01*
X0180066Y0154608D01*
X0179897Y0154648D01*
X0179728Y0154692D01*
X0179561Y0154741D01*
X0179395Y0154793D01*
X0179230Y0154850D01*
X0179067Y0154911D01*
X0178905Y0154975D01*
X0178745Y0155044D01*
X0178586Y0155117D01*
X0178430Y0155193D01*
X0178275Y0155273D01*
X0178122Y0155357D01*
X0177972Y0155445D01*
X0177824Y0155537D01*
X0177677Y0155632D01*
X0177534Y0155730D01*
X0177393Y0155832D01*
X0177254Y0155938D01*
X0177118Y0156047D01*
X0176984Y0156159D01*
X0176854Y0156274D01*
X0176726Y0156393D01*
X0176602Y0156515D01*
X0176480Y0156639D01*
X0176361Y0156767D01*
X0176246Y0156897D01*
X0176134Y0157031D01*
X0176025Y0157167D01*
X0175919Y0157306D01*
X0175817Y0157447D01*
X0175719Y0157590D01*
X0175624Y0157737D01*
X0175532Y0157885D01*
X0175444Y0158035D01*
X0175360Y0158188D01*
X0175280Y0158343D01*
X0175204Y0158499D01*
X0175131Y0158658D01*
X0175062Y0158818D01*
X0174998Y0158980D01*
X0174937Y0159143D01*
X0174880Y0159308D01*
X0174828Y0159474D01*
X0174779Y0159641D01*
X0174735Y0159810D01*
X0174695Y0159979D01*
X0174658Y0160150D01*
X0174627Y0160321D01*
X0174599Y0160493D01*
X0174575Y0160666D01*
X0174556Y0160839D01*
X0174541Y0161013D01*
X0174531Y0161187D01*
X0174524Y0161361D01*
X0174522Y0161535D01*
X0178022Y0161476D02*
X0178024Y0161597D01*
X0178030Y0161718D01*
X0178040Y0161839D01*
X0178054Y0161959D01*
X0178071Y0162079D01*
X0178093Y0162198D01*
X0178119Y0162316D01*
X0178148Y0162434D01*
X0178181Y0162550D01*
X0178218Y0162665D01*
X0178259Y0162779D01*
X0178304Y0162892D01*
X0178352Y0163003D01*
X0178404Y0163112D01*
X0178459Y0163220D01*
X0178518Y0163326D01*
X0178580Y0163430D01*
X0178646Y0163532D01*
X0178714Y0163631D01*
X0178787Y0163728D01*
X0178862Y0163823D01*
X0178940Y0163916D01*
X0179022Y0164005D01*
X0179106Y0164092D01*
X0179193Y0164176D01*
X0179282Y0164258D01*
X0179375Y0164336D01*
X0179470Y0164411D01*
X0179567Y0164484D01*
X0179666Y0164552D01*
X0179768Y0164618D01*
X0179872Y0164680D01*
X0179978Y0164739D01*
X0180086Y0164794D01*
X0180195Y0164846D01*
X0180306Y0164894D01*
X0180419Y0164939D01*
X0180533Y0164980D01*
X0180648Y0165017D01*
X0180764Y0165050D01*
X0180882Y0165079D01*
X0181000Y0165105D01*
X0181119Y0165127D01*
X0181239Y0165144D01*
X0181359Y0165158D01*
X0181480Y0165168D01*
X0181601Y0165174D01*
X0181722Y0165176D01*
X0181843Y0165174D01*
X0181964Y0165168D01*
X0182085Y0165158D01*
X0182205Y0165144D01*
X0182325Y0165127D01*
X0182444Y0165105D01*
X0182562Y0165079D01*
X0182680Y0165050D01*
X0182796Y0165017D01*
X0182911Y0164980D01*
X0183025Y0164939D01*
X0183138Y0164894D01*
X0183249Y0164846D01*
X0183358Y0164794D01*
X0183466Y0164739D01*
X0183572Y0164680D01*
X0183676Y0164618D01*
X0183778Y0164552D01*
X0183877Y0164484D01*
X0183974Y0164411D01*
X0184069Y0164336D01*
X0184162Y0164258D01*
X0184251Y0164176D01*
X0184338Y0164092D01*
X0184422Y0164005D01*
X0184504Y0163916D01*
X0184582Y0163823D01*
X0184657Y0163728D01*
X0184730Y0163631D01*
X0184798Y0163532D01*
X0184864Y0163430D01*
X0184926Y0163326D01*
X0184985Y0163220D01*
X0185040Y0163112D01*
X0185092Y0163003D01*
X0185140Y0162892D01*
X0185185Y0162779D01*
X0185226Y0162665D01*
X0185263Y0162550D01*
X0185296Y0162434D01*
X0185325Y0162316D01*
X0185351Y0162198D01*
X0185373Y0162079D01*
X0185390Y0161959D01*
X0185404Y0161839D01*
X0185414Y0161718D01*
X0185420Y0161597D01*
X0185422Y0161476D01*
X0185420Y0161355D01*
X0185414Y0161234D01*
X0185404Y0161113D01*
X0185390Y0160993D01*
X0185373Y0160873D01*
X0185351Y0160754D01*
X0185325Y0160636D01*
X0185296Y0160518D01*
X0185263Y0160402D01*
X0185226Y0160287D01*
X0185185Y0160173D01*
X0185140Y0160060D01*
X0185092Y0159949D01*
X0185040Y0159840D01*
X0184985Y0159732D01*
X0184926Y0159626D01*
X0184864Y0159522D01*
X0184798Y0159420D01*
X0184730Y0159321D01*
X0184657Y0159224D01*
X0184582Y0159129D01*
X0184504Y0159036D01*
X0184422Y0158947D01*
X0184338Y0158860D01*
X0184251Y0158776D01*
X0184162Y0158694D01*
X0184069Y0158616D01*
X0183974Y0158541D01*
X0183877Y0158468D01*
X0183778Y0158400D01*
X0183676Y0158334D01*
X0183572Y0158272D01*
X0183466Y0158213D01*
X0183358Y0158158D01*
X0183249Y0158106D01*
X0183138Y0158058D01*
X0183025Y0158013D01*
X0182911Y0157972D01*
X0182796Y0157935D01*
X0182680Y0157902D01*
X0182562Y0157873D01*
X0182444Y0157847D01*
X0182325Y0157825D01*
X0182205Y0157808D01*
X0182085Y0157794D01*
X0181964Y0157784D01*
X0181843Y0157778D01*
X0181722Y0157776D01*
X0181601Y0157778D01*
X0181480Y0157784D01*
X0181359Y0157794D01*
X0181239Y0157808D01*
X0181119Y0157825D01*
X0181000Y0157847D01*
X0180882Y0157873D01*
X0180764Y0157902D01*
X0180648Y0157935D01*
X0180533Y0157972D01*
X0180419Y0158013D01*
X0180306Y0158058D01*
X0180195Y0158106D01*
X0180086Y0158158D01*
X0179978Y0158213D01*
X0179872Y0158272D01*
X0179768Y0158334D01*
X0179666Y0158400D01*
X0179567Y0158468D01*
X0179470Y0158541D01*
X0179375Y0158616D01*
X0179282Y0158694D01*
X0179193Y0158776D01*
X0179106Y0158860D01*
X0179022Y0158947D01*
X0178940Y0159036D01*
X0178862Y0159129D01*
X0178787Y0159224D01*
X0178714Y0159321D01*
X0178646Y0159420D01*
X0178580Y0159522D01*
X0178518Y0159626D01*
X0178459Y0159732D01*
X0178404Y0159840D01*
X0178352Y0159949D01*
X0178304Y0160060D01*
X0178259Y0160173D01*
X0178218Y0160287D01*
X0178181Y0160402D01*
X0178148Y0160518D01*
X0178119Y0160636D01*
X0178093Y0160754D01*
X0178071Y0160873D01*
X0178054Y0160993D01*
X0178040Y0161113D01*
X0178030Y0161234D01*
X0178024Y0161355D01*
X0178022Y0161476D01*
X0181622Y0166476D02*
X0181622Y0156476D01*
X0131256Y0161535D02*
X0127756Y0161535D01*
X0127756Y0167535D01*
X0131256Y0167535D01*
X0131256Y0175035D01*
X0090256Y0175035D01*
X0090256Y0167535D01*
X0093756Y0167535D01*
X0093756Y0161535D01*
X0090256Y0161535D01*
X0090256Y0112535D01*
X0131256Y0112535D01*
X0131256Y0161535D01*
X0115856Y0161476D02*
X0105856Y0161476D01*
X0103656Y0161535D02*
X0103658Y0161709D01*
X0103665Y0161883D01*
X0103675Y0162057D01*
X0103690Y0162231D01*
X0103709Y0162404D01*
X0103733Y0162577D01*
X0103761Y0162749D01*
X0103792Y0162920D01*
X0103829Y0163091D01*
X0103869Y0163260D01*
X0103913Y0163429D01*
X0103962Y0163596D01*
X0104014Y0163762D01*
X0104071Y0163927D01*
X0104132Y0164090D01*
X0104196Y0164252D01*
X0104265Y0164412D01*
X0104338Y0164571D01*
X0104414Y0164727D01*
X0104494Y0164882D01*
X0104578Y0165035D01*
X0104666Y0165185D01*
X0104758Y0165333D01*
X0104853Y0165480D01*
X0104951Y0165623D01*
X0105053Y0165764D01*
X0105159Y0165903D01*
X0105268Y0166039D01*
X0105380Y0166173D01*
X0105495Y0166303D01*
X0105614Y0166431D01*
X0105736Y0166555D01*
X0105860Y0166677D01*
X0105988Y0166796D01*
X0106118Y0166911D01*
X0106252Y0167023D01*
X0106388Y0167132D01*
X0106527Y0167238D01*
X0106668Y0167340D01*
X0106811Y0167438D01*
X0106958Y0167533D01*
X0107106Y0167625D01*
X0107256Y0167713D01*
X0107409Y0167797D01*
X0107564Y0167877D01*
X0107720Y0167953D01*
X0107879Y0168026D01*
X0108039Y0168095D01*
X0108201Y0168159D01*
X0108364Y0168220D01*
X0108529Y0168277D01*
X0108695Y0168329D01*
X0108862Y0168378D01*
X0109031Y0168422D01*
X0109200Y0168462D01*
X0109371Y0168499D01*
X0109542Y0168530D01*
X0109714Y0168558D01*
X0109887Y0168582D01*
X0110060Y0168601D01*
X0110234Y0168616D01*
X0110408Y0168626D01*
X0110582Y0168633D01*
X0110756Y0168635D01*
X0110930Y0168633D01*
X0111104Y0168626D01*
X0111278Y0168616D01*
X0111452Y0168601D01*
X0111625Y0168582D01*
X0111798Y0168558D01*
X0111970Y0168530D01*
X0112141Y0168499D01*
X0112312Y0168462D01*
X0112481Y0168422D01*
X0112650Y0168378D01*
X0112817Y0168329D01*
X0112983Y0168277D01*
X0113148Y0168220D01*
X0113311Y0168159D01*
X0113473Y0168095D01*
X0113633Y0168026D01*
X0113792Y0167953D01*
X0113948Y0167877D01*
X0114103Y0167797D01*
X0114256Y0167713D01*
X0114406Y0167625D01*
X0114554Y0167533D01*
X0114701Y0167438D01*
X0114844Y0167340D01*
X0114985Y0167238D01*
X0115124Y0167132D01*
X0115260Y0167023D01*
X0115394Y0166911D01*
X0115524Y0166796D01*
X0115652Y0166677D01*
X0115776Y0166555D01*
X0115898Y0166431D01*
X0116017Y0166303D01*
X0116132Y0166173D01*
X0116244Y0166039D01*
X0116353Y0165903D01*
X0116459Y0165764D01*
X0116561Y0165623D01*
X0116659Y0165480D01*
X0116754Y0165333D01*
X0116846Y0165185D01*
X0116934Y0165035D01*
X0117018Y0164882D01*
X0117098Y0164727D01*
X0117174Y0164571D01*
X0117247Y0164412D01*
X0117316Y0164252D01*
X0117380Y0164090D01*
X0117441Y0163927D01*
X0117498Y0163762D01*
X0117550Y0163596D01*
X0117599Y0163429D01*
X0117643Y0163260D01*
X0117683Y0163091D01*
X0117720Y0162920D01*
X0117751Y0162749D01*
X0117779Y0162577D01*
X0117803Y0162404D01*
X0117822Y0162231D01*
X0117837Y0162057D01*
X0117847Y0161883D01*
X0117854Y0161709D01*
X0117856Y0161535D01*
X0117854Y0161361D01*
X0117847Y0161187D01*
X0117837Y0161013D01*
X0117822Y0160839D01*
X0117803Y0160666D01*
X0117779Y0160493D01*
X0117751Y0160321D01*
X0117720Y0160150D01*
X0117683Y0159979D01*
X0117643Y0159810D01*
X0117599Y0159641D01*
X0117550Y0159474D01*
X0117498Y0159308D01*
X0117441Y0159143D01*
X0117380Y0158980D01*
X0117316Y0158818D01*
X0117247Y0158658D01*
X0117174Y0158499D01*
X0117098Y0158343D01*
X0117018Y0158188D01*
X0116934Y0158035D01*
X0116846Y0157885D01*
X0116754Y0157737D01*
X0116659Y0157590D01*
X0116561Y0157447D01*
X0116459Y0157306D01*
X0116353Y0157167D01*
X0116244Y0157031D01*
X0116132Y0156897D01*
X0116017Y0156767D01*
X0115898Y0156639D01*
X0115776Y0156515D01*
X0115652Y0156393D01*
X0115524Y0156274D01*
X0115394Y0156159D01*
X0115260Y0156047D01*
X0115124Y0155938D01*
X0114985Y0155832D01*
X0114844Y0155730D01*
X0114701Y0155632D01*
X0114554Y0155537D01*
X0114406Y0155445D01*
X0114256Y0155357D01*
X0114103Y0155273D01*
X0113948Y0155193D01*
X0113792Y0155117D01*
X0113633Y0155044D01*
X0113473Y0154975D01*
X0113311Y0154911D01*
X0113148Y0154850D01*
X0112983Y0154793D01*
X0112817Y0154741D01*
X0112650Y0154692D01*
X0112481Y0154648D01*
X0112312Y0154608D01*
X0112141Y0154571D01*
X0111970Y0154540D01*
X0111798Y0154512D01*
X0111625Y0154488D01*
X0111452Y0154469D01*
X0111278Y0154454D01*
X0111104Y0154444D01*
X0110930Y0154437D01*
X0110756Y0154435D01*
X0110582Y0154437D01*
X0110408Y0154444D01*
X0110234Y0154454D01*
X0110060Y0154469D01*
X0109887Y0154488D01*
X0109714Y0154512D01*
X0109542Y0154540D01*
X0109371Y0154571D01*
X0109200Y0154608D01*
X0109031Y0154648D01*
X0108862Y0154692D01*
X0108695Y0154741D01*
X0108529Y0154793D01*
X0108364Y0154850D01*
X0108201Y0154911D01*
X0108039Y0154975D01*
X0107879Y0155044D01*
X0107720Y0155117D01*
X0107564Y0155193D01*
X0107409Y0155273D01*
X0107256Y0155357D01*
X0107106Y0155445D01*
X0106958Y0155537D01*
X0106811Y0155632D01*
X0106668Y0155730D01*
X0106527Y0155832D01*
X0106388Y0155938D01*
X0106252Y0156047D01*
X0106118Y0156159D01*
X0105988Y0156274D01*
X0105860Y0156393D01*
X0105736Y0156515D01*
X0105614Y0156639D01*
X0105495Y0156767D01*
X0105380Y0156897D01*
X0105268Y0157031D01*
X0105159Y0157167D01*
X0105053Y0157306D01*
X0104951Y0157447D01*
X0104853Y0157590D01*
X0104758Y0157737D01*
X0104666Y0157885D01*
X0104578Y0158035D01*
X0104494Y0158188D01*
X0104414Y0158343D01*
X0104338Y0158499D01*
X0104265Y0158658D01*
X0104196Y0158818D01*
X0104132Y0158980D01*
X0104071Y0159143D01*
X0104014Y0159308D01*
X0103962Y0159474D01*
X0103913Y0159641D01*
X0103869Y0159810D01*
X0103829Y0159979D01*
X0103792Y0160150D01*
X0103761Y0160321D01*
X0103733Y0160493D01*
X0103709Y0160666D01*
X0103690Y0160839D01*
X0103675Y0161013D01*
X0103665Y0161187D01*
X0103658Y0161361D01*
X0103656Y0161535D01*
X0107156Y0161476D02*
X0107158Y0161597D01*
X0107164Y0161718D01*
X0107174Y0161839D01*
X0107188Y0161959D01*
X0107205Y0162079D01*
X0107227Y0162198D01*
X0107253Y0162316D01*
X0107282Y0162434D01*
X0107315Y0162550D01*
X0107352Y0162665D01*
X0107393Y0162779D01*
X0107438Y0162892D01*
X0107486Y0163003D01*
X0107538Y0163112D01*
X0107593Y0163220D01*
X0107652Y0163326D01*
X0107714Y0163430D01*
X0107780Y0163532D01*
X0107848Y0163631D01*
X0107921Y0163728D01*
X0107996Y0163823D01*
X0108074Y0163916D01*
X0108156Y0164005D01*
X0108240Y0164092D01*
X0108327Y0164176D01*
X0108416Y0164258D01*
X0108509Y0164336D01*
X0108604Y0164411D01*
X0108701Y0164484D01*
X0108800Y0164552D01*
X0108902Y0164618D01*
X0109006Y0164680D01*
X0109112Y0164739D01*
X0109220Y0164794D01*
X0109329Y0164846D01*
X0109440Y0164894D01*
X0109553Y0164939D01*
X0109667Y0164980D01*
X0109782Y0165017D01*
X0109898Y0165050D01*
X0110016Y0165079D01*
X0110134Y0165105D01*
X0110253Y0165127D01*
X0110373Y0165144D01*
X0110493Y0165158D01*
X0110614Y0165168D01*
X0110735Y0165174D01*
X0110856Y0165176D01*
X0110977Y0165174D01*
X0111098Y0165168D01*
X0111219Y0165158D01*
X0111339Y0165144D01*
X0111459Y0165127D01*
X0111578Y0165105D01*
X0111696Y0165079D01*
X0111814Y0165050D01*
X0111930Y0165017D01*
X0112045Y0164980D01*
X0112159Y0164939D01*
X0112272Y0164894D01*
X0112383Y0164846D01*
X0112492Y0164794D01*
X0112600Y0164739D01*
X0112706Y0164680D01*
X0112810Y0164618D01*
X0112912Y0164552D01*
X0113011Y0164484D01*
X0113108Y0164411D01*
X0113203Y0164336D01*
X0113296Y0164258D01*
X0113385Y0164176D01*
X0113472Y0164092D01*
X0113556Y0164005D01*
X0113638Y0163916D01*
X0113716Y0163823D01*
X0113791Y0163728D01*
X0113864Y0163631D01*
X0113932Y0163532D01*
X0113998Y0163430D01*
X0114060Y0163326D01*
X0114119Y0163220D01*
X0114174Y0163112D01*
X0114226Y0163003D01*
X0114274Y0162892D01*
X0114319Y0162779D01*
X0114360Y0162665D01*
X0114397Y0162550D01*
X0114430Y0162434D01*
X0114459Y0162316D01*
X0114485Y0162198D01*
X0114507Y0162079D01*
X0114524Y0161959D01*
X0114538Y0161839D01*
X0114548Y0161718D01*
X0114554Y0161597D01*
X0114556Y0161476D01*
X0114554Y0161355D01*
X0114548Y0161234D01*
X0114538Y0161113D01*
X0114524Y0160993D01*
X0114507Y0160873D01*
X0114485Y0160754D01*
X0114459Y0160636D01*
X0114430Y0160518D01*
X0114397Y0160402D01*
X0114360Y0160287D01*
X0114319Y0160173D01*
X0114274Y0160060D01*
X0114226Y0159949D01*
X0114174Y0159840D01*
X0114119Y0159732D01*
X0114060Y0159626D01*
X0113998Y0159522D01*
X0113932Y0159420D01*
X0113864Y0159321D01*
X0113791Y0159224D01*
X0113716Y0159129D01*
X0113638Y0159036D01*
X0113556Y0158947D01*
X0113472Y0158860D01*
X0113385Y0158776D01*
X0113296Y0158694D01*
X0113203Y0158616D01*
X0113108Y0158541D01*
X0113011Y0158468D01*
X0112912Y0158400D01*
X0112810Y0158334D01*
X0112706Y0158272D01*
X0112600Y0158213D01*
X0112492Y0158158D01*
X0112383Y0158106D01*
X0112272Y0158058D01*
X0112159Y0158013D01*
X0112045Y0157972D01*
X0111930Y0157935D01*
X0111814Y0157902D01*
X0111696Y0157873D01*
X0111578Y0157847D01*
X0111459Y0157825D01*
X0111339Y0157808D01*
X0111219Y0157794D01*
X0111098Y0157784D01*
X0110977Y0157778D01*
X0110856Y0157776D01*
X0110735Y0157778D01*
X0110614Y0157784D01*
X0110493Y0157794D01*
X0110373Y0157808D01*
X0110253Y0157825D01*
X0110134Y0157847D01*
X0110016Y0157873D01*
X0109898Y0157902D01*
X0109782Y0157935D01*
X0109667Y0157972D01*
X0109553Y0158013D01*
X0109440Y0158058D01*
X0109329Y0158106D01*
X0109220Y0158158D01*
X0109112Y0158213D01*
X0109006Y0158272D01*
X0108902Y0158334D01*
X0108800Y0158400D01*
X0108701Y0158468D01*
X0108604Y0158541D01*
X0108509Y0158616D01*
X0108416Y0158694D01*
X0108327Y0158776D01*
X0108240Y0158860D01*
X0108156Y0158947D01*
X0108074Y0159036D01*
X0107996Y0159129D01*
X0107921Y0159224D01*
X0107848Y0159321D01*
X0107780Y0159420D01*
X0107714Y0159522D01*
X0107652Y0159626D01*
X0107593Y0159732D01*
X0107538Y0159840D01*
X0107486Y0159949D01*
X0107438Y0160060D01*
X0107393Y0160173D01*
X0107352Y0160287D01*
X0107315Y0160402D01*
X0107282Y0160518D01*
X0107253Y0160636D01*
X0107227Y0160754D01*
X0107205Y0160873D01*
X0107188Y0160993D01*
X0107174Y0161113D01*
X0107164Y0161234D01*
X0107158Y0161355D01*
X0107156Y0161476D01*
X0110756Y0166476D02*
X0110756Y0156476D01*
X0088556Y0185276D02*
X0088556Y0126276D01*
X0133056Y0126276D01*
X0133056Y0185276D01*
X0088556Y0185276D01*
X0084556Y0185276D01*
X0084556Y0112776D01*
X0088556Y0112776D01*
X0088556Y0126276D01*
X0133056Y0126276D02*
X0133056Y0112776D01*
X0137056Y0112776D01*
X0137056Y0185276D01*
X0133056Y0185276D01*
X0155422Y0185276D02*
X0159422Y0185276D01*
X0159422Y0126276D01*
X0203922Y0126276D01*
X0203922Y0185276D01*
X0159422Y0185276D01*
X0155422Y0185276D02*
X0155422Y0112776D01*
X0159422Y0112776D01*
X0159422Y0126276D01*
X0203922Y0126276D02*
X0203922Y0112776D01*
X0207922Y0112776D01*
X0207922Y0185276D01*
X0203922Y0185276D01*
X0226288Y0185276D02*
X0230288Y0185276D01*
X0230288Y0126276D01*
X0274788Y0126276D01*
X0274788Y0185276D01*
X0230288Y0185276D01*
X0226288Y0185276D02*
X0226288Y0112776D01*
X0230288Y0112776D01*
X0230288Y0126276D01*
X0274788Y0126276D02*
X0274788Y0112776D01*
X0278788Y0112776D01*
X0278788Y0185276D01*
X0274788Y0185276D01*
X0297154Y0185276D02*
X0301154Y0185276D01*
X0297154Y0185276D02*
X0297154Y0112776D01*
X0301154Y0112776D01*
X0301154Y0126276D01*
X0228613Y0093160D02*
X0228613Y0079660D01*
X0228613Y0093160D02*
X0224613Y0093160D01*
X0224613Y0020660D01*
X0228613Y0020660D01*
X0208216Y0020660D02*
X0204216Y0020660D01*
X0208216Y0020660D02*
X0208216Y0093160D01*
X0204216Y0093160D01*
X0204216Y0079660D01*
D11*
X0200016Y0090114D02*
X0200016Y0057614D01*
X0164016Y0057614D01*
X0164016Y0090114D01*
X0200016Y0090114D01*
X0232913Y0090114D02*
X0232913Y0057614D01*
X0268913Y0057614D01*
X0268913Y0090114D01*
X0232913Y0090114D01*
X0234488Y0115035D02*
X0234488Y0147535D01*
X0270488Y0147535D01*
X0270488Y0115035D01*
X0234488Y0115035D01*
X0199622Y0115035D02*
X0199622Y0147535D01*
X0163622Y0147535D01*
X0163622Y0115035D01*
X0199622Y0115035D01*
X0128756Y0115035D02*
X0128756Y0147535D01*
X0092756Y0147535D01*
X0092756Y0115035D01*
X0128756Y0115035D01*
X0129150Y0090114D02*
X0093150Y0090114D01*
X0093150Y0057614D01*
X0129150Y0057614D01*
X0129150Y0090114D01*
X0305354Y0115035D02*
X0305354Y0147535D01*
X0341354Y0147535D01*
X0341354Y0115035D01*
X0305354Y0115035D01*
X0307717Y0090114D02*
X0307717Y0057614D01*
X0343717Y0057614D01*
X0343717Y0090114D01*
X0307717Y0090114D01*
D12*
X0358693Y0084513D02*
X0364831Y0084513D01*
X0364064Y0083746D02*
X0363296Y0082978D01*
X0362529Y0082978D01*
X0361762Y0083746D01*
X0361762Y0085280D01*
X0360994Y0086048D01*
X0360227Y0086048D01*
X0359460Y0085280D01*
X0359460Y0083746D01*
X0360227Y0082978D01*
X0360227Y0081444D02*
X0364064Y0081444D01*
X0364064Y0083746D02*
X0364064Y0085280D01*
X0363296Y0086048D01*
X0363296Y0087582D02*
X0364064Y0088350D01*
X0364064Y0089884D01*
X0363296Y0090652D01*
X0362529Y0090652D01*
X0359460Y0087582D01*
X0359460Y0090652D01*
X0360227Y0092186D02*
X0359460Y0092954D01*
X0359460Y0094488D01*
X0360227Y0095256D01*
X0361762Y0095256D01*
X0362529Y0094488D01*
X0362529Y0093721D01*
X0361762Y0092186D01*
X0364064Y0092186D01*
X0364064Y0095256D01*
X0360227Y0081444D02*
X0359460Y0080677D01*
X0359460Y0079142D01*
X0360227Y0078375D01*
X0364064Y0078375D01*
X0332571Y0055216D02*
X0331370Y0056417D01*
X0330169Y0055216D01*
X0330169Y0052814D01*
X0328888Y0052814D02*
X0326486Y0052814D01*
X0327687Y0052814D02*
X0327687Y0056417D01*
X0328888Y0055216D01*
X0330169Y0054615D02*
X0332571Y0054615D01*
X0332571Y0055216D02*
X0332571Y0052814D01*
X0325205Y0052814D02*
X0325205Y0053414D01*
X0322803Y0055816D01*
X0322803Y0056417D01*
X0325205Y0056417D01*
X0320921Y0053414D02*
X0320921Y0052814D01*
X0320320Y0052814D01*
X0320320Y0053414D01*
X0320921Y0053414D01*
X0320320Y0052814D02*
X0321521Y0051613D01*
X0319066Y0053414D02*
X0318465Y0052814D01*
X0317264Y0052814D01*
X0316664Y0053414D01*
X0316664Y0054615D01*
X0317264Y0055216D01*
X0317865Y0055216D01*
X0319066Y0054615D01*
X0319066Y0056417D01*
X0316664Y0056417D01*
X0315383Y0055216D02*
X0314782Y0055216D01*
X0314182Y0054615D01*
X0313581Y0055216D01*
X0312981Y0054615D01*
X0312981Y0052814D01*
X0314182Y0052814D02*
X0314182Y0054615D01*
X0315383Y0055216D02*
X0315383Y0052814D01*
X0311700Y0052814D02*
X0311700Y0055216D01*
X0311099Y0055216D01*
X0310499Y0054615D01*
X0309898Y0055216D01*
X0309298Y0054615D01*
X0309298Y0052814D01*
X0310499Y0052814D02*
X0310499Y0054615D01*
X0359460Y0049606D02*
X0359460Y0048072D01*
X0360227Y0047304D01*
X0359460Y0045770D02*
X0359460Y0042701D01*
X0362529Y0045770D01*
X0363296Y0045770D01*
X0364064Y0045002D01*
X0364064Y0043468D01*
X0363296Y0042701D01*
X0363296Y0041166D02*
X0364064Y0040399D01*
X0364064Y0038864D01*
X0363296Y0038097D01*
X0362529Y0038097D01*
X0361762Y0038864D01*
X0361762Y0040399D01*
X0360994Y0041166D01*
X0360227Y0041166D01*
X0359460Y0040399D01*
X0359460Y0038864D01*
X0360227Y0038097D01*
X0360227Y0036562D02*
X0364064Y0036562D01*
X0364064Y0033493D02*
X0360227Y0033493D01*
X0359460Y0034260D01*
X0359460Y0035795D01*
X0360227Y0036562D01*
X0358693Y0039631D02*
X0364831Y0039631D01*
X0363296Y0047304D02*
X0364064Y0048072D01*
X0364064Y0049606D01*
X0363296Y0050374D01*
X0362529Y0050374D01*
X0361762Y0049606D01*
X0360994Y0050374D01*
X0360227Y0050374D01*
X0359460Y0049606D01*
X0361762Y0049606D02*
X0361762Y0048839D01*
X0257768Y0052814D02*
X0257768Y0055216D01*
X0256567Y0056417D01*
X0255366Y0055216D01*
X0255366Y0052814D01*
X0254085Y0052814D02*
X0251683Y0052814D01*
X0252884Y0052814D02*
X0252884Y0056417D01*
X0254085Y0055216D01*
X0255366Y0054615D02*
X0257768Y0054615D01*
X0250401Y0053414D02*
X0250401Y0052814D01*
X0250401Y0053414D02*
X0247999Y0055816D01*
X0247999Y0056417D01*
X0250401Y0056417D01*
X0246118Y0053414D02*
X0246118Y0052814D01*
X0245517Y0052814D01*
X0245517Y0053414D01*
X0246118Y0053414D01*
X0245517Y0052814D02*
X0246718Y0051613D01*
X0244263Y0053414D02*
X0243662Y0052814D01*
X0242461Y0052814D01*
X0241861Y0053414D01*
X0241861Y0054615D01*
X0242461Y0055216D01*
X0243062Y0055216D01*
X0244263Y0054615D01*
X0244263Y0056417D01*
X0241861Y0056417D01*
X0240580Y0055216D02*
X0239979Y0055216D01*
X0239379Y0054615D01*
X0238778Y0055216D01*
X0238178Y0054615D01*
X0238178Y0052814D01*
X0239379Y0052814D02*
X0239379Y0054615D01*
X0240580Y0055216D02*
X0240580Y0052814D01*
X0236897Y0052814D02*
X0236897Y0055216D01*
X0236296Y0055216D01*
X0235696Y0054615D01*
X0235095Y0055216D01*
X0234495Y0054615D01*
X0234495Y0052814D01*
X0235696Y0052814D02*
X0235696Y0054615D01*
X0188870Y0054615D02*
X0186468Y0054615D01*
X0186468Y0055216D02*
X0186468Y0052814D01*
X0185187Y0052814D02*
X0182785Y0052814D01*
X0183986Y0052814D02*
X0183986Y0056417D01*
X0185187Y0055216D01*
X0186468Y0055216D02*
X0187669Y0056417D01*
X0188870Y0055216D01*
X0188870Y0052814D01*
X0181504Y0052814D02*
X0181504Y0053414D01*
X0179102Y0055816D01*
X0179102Y0056417D01*
X0181504Y0056417D01*
X0177220Y0053414D02*
X0177220Y0052814D01*
X0176620Y0052814D01*
X0176620Y0053414D01*
X0177220Y0053414D01*
X0176620Y0052814D02*
X0177821Y0051613D01*
X0175365Y0053414D02*
X0174765Y0052814D01*
X0173564Y0052814D01*
X0172963Y0053414D01*
X0172963Y0054615D01*
X0173564Y0055216D01*
X0174164Y0055216D01*
X0175365Y0054615D01*
X0175365Y0056417D01*
X0172963Y0056417D01*
X0171682Y0055216D02*
X0171082Y0055216D01*
X0170481Y0054615D01*
X0169881Y0055216D01*
X0169280Y0054615D01*
X0169280Y0052814D01*
X0170481Y0052814D02*
X0170481Y0054615D01*
X0171682Y0055216D02*
X0171682Y0052814D01*
X0167999Y0052814D02*
X0167999Y0055216D01*
X0167398Y0055216D01*
X0166798Y0054615D01*
X0166197Y0055216D01*
X0165597Y0054615D01*
X0165597Y0052814D01*
X0166798Y0052814D02*
X0166798Y0054615D01*
X0118004Y0054615D02*
X0115602Y0054615D01*
X0115602Y0055216D02*
X0115602Y0052814D01*
X0114321Y0052814D02*
X0111919Y0052814D01*
X0113120Y0052814D02*
X0113120Y0056417D01*
X0114321Y0055216D01*
X0115602Y0055216D02*
X0116803Y0056417D01*
X0118004Y0055216D01*
X0118004Y0052814D01*
X0110638Y0052814D02*
X0110638Y0053414D01*
X0108236Y0055816D01*
X0108236Y0056417D01*
X0110638Y0056417D01*
X0106354Y0053414D02*
X0106354Y0052814D01*
X0105753Y0052814D01*
X0105753Y0053414D01*
X0106354Y0053414D01*
X0105753Y0052814D02*
X0106954Y0051613D01*
X0104499Y0053414D02*
X0103899Y0052814D01*
X0102698Y0052814D01*
X0102097Y0053414D01*
X0102097Y0054615D01*
X0102698Y0055216D01*
X0103298Y0055216D01*
X0104499Y0054615D01*
X0104499Y0056417D01*
X0102097Y0056417D01*
X0100816Y0055216D02*
X0100215Y0055216D01*
X0099615Y0054615D01*
X0099014Y0055216D01*
X0098414Y0054615D01*
X0098414Y0052814D01*
X0099615Y0052814D02*
X0099615Y0054615D01*
X0100816Y0055216D02*
X0100816Y0052814D01*
X0097133Y0052814D02*
X0097133Y0055216D01*
X0096532Y0055216D01*
X0095932Y0054615D01*
X0095331Y0055216D01*
X0094731Y0054615D01*
X0094731Y0052814D01*
X0095932Y0052814D02*
X0095932Y0054615D01*
X0061268Y0030384D02*
X0060501Y0031152D01*
X0059734Y0031152D01*
X0058967Y0030384D01*
X0058967Y0028850D01*
X0059734Y0028082D01*
X0060501Y0028082D01*
X0061268Y0028850D01*
X0061268Y0030384D01*
X0058967Y0030384D02*
X0058199Y0031152D01*
X0057432Y0031152D01*
X0056665Y0030384D01*
X0056665Y0028850D01*
X0057432Y0028082D01*
X0058199Y0028082D01*
X0058967Y0028850D01*
X0056665Y0026548D02*
X0056665Y0023478D01*
X0056665Y0025013D02*
X0061268Y0025013D01*
X0059734Y0023478D01*
X0060501Y0021944D02*
X0061268Y0021176D01*
X0061268Y0019642D01*
X0060501Y0018875D01*
X0059734Y0018875D01*
X0058967Y0019642D01*
X0058967Y0021176D01*
X0058199Y0021944D01*
X0057432Y0021944D01*
X0056665Y0021176D01*
X0056665Y0019642D01*
X0057432Y0018875D01*
X0057432Y0017340D02*
X0061268Y0017340D01*
X0061268Y0014271D02*
X0057432Y0014271D01*
X0056665Y0015038D01*
X0056665Y0016573D01*
X0057432Y0017340D01*
X0055897Y0020409D02*
X0062036Y0020409D01*
X0026268Y0078375D02*
X0022432Y0078375D01*
X0021665Y0079142D01*
X0021665Y0080677D01*
X0022432Y0081444D01*
X0026268Y0081444D01*
X0025501Y0082978D02*
X0026268Y0083746D01*
X0026268Y0085280D01*
X0025501Y0086048D01*
X0024734Y0087582D02*
X0026268Y0089117D01*
X0021665Y0089117D01*
X0021665Y0087582D02*
X0021665Y0090652D01*
X0022432Y0092186D02*
X0021665Y0092954D01*
X0021665Y0094488D01*
X0022432Y0095256D01*
X0025501Y0095256D01*
X0026268Y0094488D01*
X0026268Y0092954D01*
X0025501Y0092186D01*
X0024734Y0092186D01*
X0023967Y0092954D01*
X0023967Y0095256D01*
X0023199Y0086048D02*
X0023967Y0085280D01*
X0023967Y0083746D01*
X0024734Y0082978D01*
X0025501Y0082978D01*
X0027036Y0084513D02*
X0020897Y0084513D01*
X0021665Y0083746D02*
X0021665Y0085280D01*
X0022432Y0086048D01*
X0023199Y0086048D01*
X0021665Y0083746D02*
X0022432Y0082978D01*
X0069243Y0144979D02*
X0068476Y0145747D01*
X0068476Y0147281D01*
X0069243Y0148049D01*
X0073080Y0148049D01*
X0072312Y0149583D02*
X0073080Y0150350D01*
X0073080Y0151885D01*
X0072312Y0152652D01*
X0072312Y0154187D02*
X0073080Y0154954D01*
X0073080Y0156489D01*
X0072312Y0157256D01*
X0071545Y0157256D01*
X0068476Y0154187D01*
X0068476Y0157256D01*
X0068476Y0158791D02*
X0068476Y0161860D01*
X0068476Y0160326D02*
X0073080Y0160326D01*
X0071545Y0158791D01*
X0070010Y0152652D02*
X0070778Y0151885D01*
X0070778Y0150350D01*
X0071545Y0149583D01*
X0072312Y0149583D01*
X0073847Y0151118D02*
X0067708Y0151118D01*
X0068476Y0151885D02*
X0069243Y0152652D01*
X0070010Y0152652D01*
X0068476Y0151885D02*
X0068476Y0150350D01*
X0069243Y0149583D01*
X0069243Y0144979D02*
X0073080Y0144979D01*
X0104783Y0148735D02*
X0104783Y0150537D01*
X0105383Y0151137D01*
X0105984Y0150537D01*
X0105984Y0148735D01*
X0107185Y0148735D02*
X0107185Y0151137D01*
X0106584Y0151137D01*
X0105984Y0150537D01*
X0108466Y0150537D02*
X0109066Y0151137D01*
X0109667Y0150537D01*
X0109667Y0148735D01*
X0110868Y0148735D02*
X0110868Y0151137D01*
X0110267Y0151137D01*
X0109667Y0150537D01*
X0108466Y0150537D02*
X0108466Y0148735D01*
X0112149Y0149336D02*
X0112750Y0148735D01*
X0113951Y0148735D01*
X0114551Y0149336D01*
X0114551Y0150537D02*
X0113350Y0151137D01*
X0112750Y0151137D01*
X0112149Y0150537D01*
X0112149Y0149336D01*
X0114551Y0150537D02*
X0114551Y0152338D01*
X0112149Y0152338D01*
X0115805Y0149336D02*
X0116406Y0149336D01*
X0116406Y0148735D01*
X0115805Y0148735D01*
X0115805Y0149336D01*
X0115805Y0148735D02*
X0117006Y0147534D01*
X0120690Y0148735D02*
X0120690Y0149336D01*
X0118288Y0151738D01*
X0118288Y0152338D01*
X0120690Y0152338D01*
X0123172Y0152338D02*
X0123172Y0148735D01*
X0124373Y0148735D02*
X0121971Y0148735D01*
X0124373Y0151137D02*
X0123172Y0152338D01*
X0125654Y0151137D02*
X0125654Y0148735D01*
X0125654Y0150537D02*
X0128056Y0150537D01*
X0128056Y0151137D02*
X0128056Y0148735D01*
X0128056Y0151137D02*
X0126855Y0152338D01*
X0125654Y0151137D01*
X0175649Y0150537D02*
X0175649Y0148735D01*
X0176850Y0148735D02*
X0176850Y0150537D01*
X0176249Y0151137D01*
X0175649Y0150537D01*
X0176850Y0150537D02*
X0177450Y0151137D01*
X0178051Y0151137D01*
X0178051Y0148735D01*
X0179332Y0148735D02*
X0179332Y0150537D01*
X0179933Y0151137D01*
X0180533Y0150537D01*
X0180533Y0148735D01*
X0181734Y0148735D02*
X0181734Y0151137D01*
X0181134Y0151137D01*
X0180533Y0150537D01*
X0183015Y0150537D02*
X0183616Y0151137D01*
X0184216Y0151137D01*
X0185417Y0150537D01*
X0185417Y0152338D01*
X0183015Y0152338D01*
X0183015Y0150537D02*
X0183015Y0149336D01*
X0183616Y0148735D01*
X0184817Y0148735D01*
X0185417Y0149336D01*
X0186672Y0149336D02*
X0187272Y0149336D01*
X0187272Y0148735D01*
X0186672Y0148735D01*
X0186672Y0149336D01*
X0186672Y0148735D02*
X0187873Y0147534D01*
X0191556Y0148735D02*
X0191556Y0149336D01*
X0189154Y0151738D01*
X0189154Y0152338D01*
X0191556Y0152338D01*
X0194038Y0152338D02*
X0194038Y0148735D01*
X0195239Y0148735D02*
X0192837Y0148735D01*
X0195239Y0151137D02*
X0194038Y0152338D01*
X0196520Y0151137D02*
X0196520Y0148735D01*
X0196520Y0150537D02*
X0198922Y0150537D01*
X0198922Y0151137D02*
X0198922Y0148735D01*
X0198922Y0151137D02*
X0197721Y0152338D01*
X0196520Y0151137D01*
X0246515Y0150537D02*
X0246515Y0148735D01*
X0247716Y0148735D02*
X0247716Y0150537D01*
X0247116Y0151137D01*
X0246515Y0150537D01*
X0247716Y0150537D02*
X0248317Y0151137D01*
X0248917Y0151137D01*
X0248917Y0148735D01*
X0250198Y0148735D02*
X0250198Y0150537D01*
X0250799Y0151137D01*
X0251399Y0150537D01*
X0251399Y0148735D01*
X0252600Y0148735D02*
X0252600Y0151137D01*
X0252000Y0151137D01*
X0251399Y0150537D01*
X0253881Y0150537D02*
X0254482Y0151137D01*
X0255082Y0151137D01*
X0256283Y0150537D01*
X0256283Y0152338D01*
X0253881Y0152338D01*
X0253881Y0150537D02*
X0253881Y0149336D01*
X0254482Y0148735D01*
X0255683Y0148735D01*
X0256283Y0149336D01*
X0257538Y0149336D02*
X0258138Y0149336D01*
X0258138Y0148735D01*
X0257538Y0148735D01*
X0257538Y0149336D01*
X0257538Y0148735D02*
X0258739Y0147534D01*
X0262422Y0148735D02*
X0262422Y0149336D01*
X0260020Y0151738D01*
X0260020Y0152338D01*
X0262422Y0152338D01*
X0264904Y0152338D02*
X0264904Y0148735D01*
X0266105Y0148735D02*
X0263703Y0148735D01*
X0266105Y0151137D02*
X0264904Y0152338D01*
X0267386Y0151137D02*
X0267386Y0148735D01*
X0267386Y0150537D02*
X0269788Y0150537D01*
X0269788Y0151137D02*
X0269788Y0148735D01*
X0269788Y0151137D02*
X0268587Y0152338D01*
X0267386Y0151137D01*
X0265630Y0133402D02*
X0263328Y0133402D01*
X0262561Y0132635D01*
X0262561Y0131100D01*
X0263328Y0130333D01*
X0265630Y0130333D01*
X0264095Y0130333D02*
X0262561Y0128798D01*
X0261026Y0128798D02*
X0261026Y0129565D01*
X0257957Y0132635D01*
X0257957Y0133402D01*
X0261026Y0133402D01*
X0265630Y0133402D02*
X0265630Y0128798D01*
X0317381Y0148735D02*
X0317381Y0150537D01*
X0317982Y0151137D01*
X0318582Y0150537D01*
X0318582Y0148735D01*
X0319783Y0148735D02*
X0319783Y0151137D01*
X0319183Y0151137D01*
X0318582Y0150537D01*
X0321064Y0150537D02*
X0321665Y0151137D01*
X0322265Y0150537D01*
X0322265Y0148735D01*
X0321064Y0148735D02*
X0321064Y0150537D01*
X0322265Y0150537D02*
X0322866Y0151137D01*
X0323466Y0151137D01*
X0323466Y0148735D01*
X0324747Y0149336D02*
X0325348Y0148735D01*
X0326549Y0148735D01*
X0327149Y0149336D01*
X0327149Y0150537D02*
X0325948Y0151137D01*
X0325348Y0151137D01*
X0324747Y0150537D01*
X0324747Y0149336D01*
X0327149Y0150537D02*
X0327149Y0152338D01*
X0324747Y0152338D01*
X0328404Y0149336D02*
X0329004Y0149336D01*
X0329004Y0148735D01*
X0328404Y0148735D01*
X0328404Y0149336D01*
X0328404Y0148735D02*
X0329605Y0147534D01*
X0333288Y0148735D02*
X0333288Y0149336D01*
X0330886Y0151738D01*
X0330886Y0152338D01*
X0333288Y0152338D01*
X0335770Y0152338D02*
X0335770Y0148735D01*
X0336971Y0148735D02*
X0334569Y0148735D01*
X0336971Y0151137D02*
X0335770Y0152338D01*
X0338252Y0151137D02*
X0338252Y0148735D01*
X0338252Y0150537D02*
X0340654Y0150537D01*
X0340654Y0151137D02*
X0340654Y0148735D01*
X0340654Y0151137D02*
X0339453Y0152338D01*
X0338252Y0151137D01*
X0360227Y0136281D02*
X0363296Y0139350D01*
X0364064Y0139350D01*
X0364064Y0136281D01*
X0363296Y0134746D02*
X0364064Y0133979D01*
X0364064Y0132444D01*
X0363296Y0131677D01*
X0363296Y0130142D02*
X0364064Y0129375D01*
X0364064Y0127840D01*
X0363296Y0127073D01*
X0362529Y0127073D01*
X0361762Y0127840D01*
X0361762Y0129375D01*
X0360994Y0130142D01*
X0360227Y0130142D01*
X0359460Y0129375D01*
X0359460Y0127840D01*
X0360227Y0127073D01*
X0360227Y0125538D02*
X0364064Y0125538D01*
X0364064Y0122469D02*
X0360227Y0122469D01*
X0359460Y0123236D01*
X0359460Y0124771D01*
X0360227Y0125538D01*
X0358693Y0128608D02*
X0364831Y0128608D01*
X0359460Y0131677D02*
X0362529Y0134746D01*
X0363296Y0134746D01*
X0360227Y0136281D02*
X0359460Y0136281D01*
X0359460Y0134746D02*
X0359460Y0131677D01*
X0360227Y0166564D02*
X0359460Y0167331D01*
X0359460Y0168865D01*
X0360227Y0169633D01*
X0364064Y0169633D01*
X0363296Y0171167D02*
X0364064Y0171935D01*
X0364064Y0173469D01*
X0363296Y0174237D01*
X0363296Y0175771D02*
X0364064Y0176539D01*
X0364064Y0178073D01*
X0363296Y0178841D01*
X0362529Y0178841D01*
X0359460Y0175771D01*
X0359460Y0178841D01*
X0360227Y0180375D02*
X0359460Y0181143D01*
X0359460Y0182677D01*
X0360227Y0183445D01*
X0363296Y0183445D01*
X0364064Y0182677D01*
X0364064Y0181143D01*
X0363296Y0180375D01*
X0362529Y0180375D01*
X0361762Y0181143D01*
X0361762Y0183445D01*
X0360994Y0174237D02*
X0360227Y0174237D01*
X0359460Y0173469D01*
X0359460Y0171935D01*
X0360227Y0171167D01*
X0361762Y0171935D02*
X0361762Y0173469D01*
X0360994Y0174237D01*
X0361762Y0171935D02*
X0362529Y0171167D01*
X0363296Y0171167D01*
X0364831Y0172702D02*
X0358693Y0172702D01*
X0360227Y0166564D02*
X0364064Y0166564D01*
D13*
X0316351Y0126187D02*
X0312147Y0126187D01*
X0314249Y0126187D02*
X0314249Y0119881D01*
X0309905Y0119881D02*
X0305702Y0119881D01*
X0307803Y0119881D02*
X0307803Y0126187D01*
X0309905Y0124085D01*
X0245485Y0126580D02*
X0241281Y0126580D01*
X0243383Y0126580D02*
X0243383Y0120275D01*
X0239039Y0120275D02*
X0234836Y0124479D01*
X0234836Y0125529D01*
X0235886Y0126580D01*
X0237988Y0126580D01*
X0239039Y0125529D01*
X0239039Y0120275D02*
X0234836Y0120275D01*
X0175012Y0126974D02*
X0170809Y0126974D01*
X0172910Y0126974D02*
X0172910Y0120669D01*
X0168567Y0121720D02*
X0167516Y0120669D01*
X0165414Y0120669D01*
X0164363Y0121720D01*
X0164363Y0122770D01*
X0165414Y0123821D01*
X0166465Y0123821D01*
X0165414Y0123821D02*
X0164363Y0124872D01*
X0164363Y0125923D01*
X0165414Y0126974D01*
X0167516Y0126974D01*
X0168567Y0125923D01*
X0103752Y0127761D02*
X0099549Y0127761D01*
X0101651Y0127761D02*
X0101651Y0121456D01*
X0097307Y0124609D02*
X0093103Y0124609D01*
X0094154Y0127761D02*
X0097307Y0124609D01*
X0094154Y0127761D02*
X0094154Y0121456D01*
X0117596Y0084880D02*
X0116545Y0083829D01*
X0116545Y0082778D01*
X0117596Y0081727D01*
X0119698Y0081727D01*
X0120749Y0082778D01*
X0120749Y0083829D01*
X0119698Y0084880D01*
X0117596Y0084880D01*
X0117596Y0081727D02*
X0116545Y0080676D01*
X0116545Y0079625D01*
X0117596Y0078574D01*
X0119698Y0078574D01*
X0120749Y0079625D01*
X0120749Y0080676D01*
X0119698Y0081727D01*
X0122991Y0084880D02*
X0127195Y0084880D01*
X0125093Y0084880D02*
X0125093Y0078574D01*
X0186624Y0084222D02*
X0190828Y0080019D01*
X0190828Y0078968D01*
X0195171Y0078968D02*
X0195171Y0085273D01*
X0193070Y0085273D02*
X0197273Y0085273D01*
X0190828Y0085273D02*
X0186624Y0085273D01*
X0186624Y0084222D01*
X0258671Y0084880D02*
X0260773Y0083829D01*
X0262875Y0081727D01*
X0259722Y0081727D01*
X0258671Y0080676D01*
X0258671Y0079625D01*
X0259722Y0078574D01*
X0261824Y0078574D01*
X0262875Y0079625D01*
X0262875Y0081727D01*
X0265117Y0084880D02*
X0269321Y0084880D01*
X0267219Y0084880D02*
X0267219Y0078574D01*
X0336624Y0079625D02*
X0337675Y0078574D01*
X0339777Y0078574D01*
X0340828Y0079625D01*
X0340828Y0081727D02*
X0338726Y0082778D01*
X0337675Y0082778D01*
X0336624Y0081727D01*
X0336624Y0079625D01*
X0340828Y0081727D02*
X0340828Y0084880D01*
X0336624Y0084880D01*
X0343070Y0084880D02*
X0347273Y0084880D01*
X0345171Y0084880D02*
X0345171Y0078574D01*
D14*
X0341449Y0073952D02*
X0333449Y0073952D01*
X0337449Y0069952D02*
X0337449Y0077952D01*
X0325717Y0083614D02*
X0325717Y0091614D01*
X0321717Y0087614D02*
X0329717Y0087614D01*
X0325717Y0069960D02*
X0325717Y0061960D01*
X0321843Y0061630D02*
X0313843Y0061630D01*
X0317843Y0057630D02*
X0317843Y0065630D01*
X0321717Y0065960D02*
X0329717Y0065960D01*
X0291858Y0045945D02*
X0291858Y0037945D01*
X0287858Y0041945D02*
X0295858Y0041945D01*
X0313449Y0037220D02*
X0321449Y0037220D01*
X0317449Y0033220D02*
X0317449Y0041220D01*
X0337622Y0035212D02*
X0345622Y0035212D01*
X0341622Y0031212D02*
X0341622Y0039212D01*
X0375260Y0031708D02*
X0383260Y0031708D01*
X0379260Y0027708D02*
X0379260Y0035708D01*
X0379260Y0072590D02*
X0379260Y0080590D01*
X0375260Y0076590D02*
X0383260Y0076590D01*
X0323354Y0113535D02*
X0323354Y0121535D01*
X0319354Y0117535D02*
X0327354Y0117535D01*
X0295858Y0108086D02*
X0287858Y0108086D01*
X0291858Y0104086D02*
X0291858Y0112086D01*
X0256488Y0117535D02*
X0248488Y0117535D01*
X0252488Y0113535D02*
X0252488Y0121535D01*
X0252488Y0135976D02*
X0252488Y0143976D01*
X0248488Y0139976D02*
X0256488Y0139976D01*
X0257622Y0138598D02*
X0265622Y0138598D01*
X0261622Y0134598D02*
X0261622Y0142598D01*
X0264693Y0151724D02*
X0264693Y0159724D01*
X0263039Y0163889D02*
X0263039Y0171889D01*
X0259039Y0167889D02*
X0267039Y0167889D01*
X0286283Y0161630D02*
X0294283Y0161630D01*
X0290283Y0157630D02*
X0290283Y0165630D01*
X0305181Y0156118D02*
X0313181Y0156118D01*
X0309181Y0152118D02*
X0309181Y0160118D01*
X0325417Y0168677D02*
X0333417Y0168677D01*
X0329417Y0164677D02*
X0329417Y0172677D01*
X0335559Y0159330D02*
X0335559Y0151330D01*
X0331559Y0155330D02*
X0339559Y0155330D01*
X0333039Y0142519D02*
X0333039Y0134519D01*
X0329039Y0138519D02*
X0337039Y0138519D01*
X0327354Y0139976D02*
X0319354Y0139976D01*
X0323354Y0135976D02*
X0323354Y0143976D01*
X0294283Y0141945D02*
X0286283Y0141945D01*
X0290283Y0137945D02*
X0290283Y0145945D01*
X0268693Y0155724D02*
X0260693Y0155724D01*
X0243890Y0154149D02*
X0235890Y0154149D01*
X0239890Y0150149D02*
X0239890Y0158149D01*
X0224598Y0167535D02*
X0216598Y0167535D01*
X0220598Y0163535D02*
X0220598Y0171535D01*
X0198142Y0172693D02*
X0190142Y0172693D01*
X0194142Y0168693D02*
X0194142Y0176693D01*
X0193827Y0162874D02*
X0193827Y0154874D01*
X0189827Y0158874D02*
X0197827Y0158874D01*
X0172236Y0155330D02*
X0164236Y0155330D01*
X0168236Y0151330D02*
X0168236Y0159330D01*
X0155701Y0167437D02*
X0147701Y0167437D01*
X0151701Y0163437D02*
X0151701Y0171437D01*
X0133732Y0168756D02*
X0125732Y0168756D01*
X0129732Y0164756D02*
X0129732Y0172756D01*
X0104457Y0156181D02*
X0104457Y0148181D01*
X0100457Y0152181D02*
X0108457Y0152181D01*
X0110756Y0143976D02*
X0110756Y0135976D01*
X0106756Y0139976D02*
X0114756Y0139976D01*
X0123606Y0132378D02*
X0131606Y0132378D01*
X0127606Y0128378D02*
X0127606Y0136378D01*
X0134772Y0142669D02*
X0134772Y0150669D01*
X0130772Y0146669D02*
X0138772Y0146669D01*
X0177622Y0139976D02*
X0185622Y0139976D01*
X0189984Y0136945D02*
X0197984Y0136945D01*
X0193984Y0132945D02*
X0193984Y0140945D01*
X0181622Y0143976D02*
X0181622Y0135976D01*
X0181622Y0121535D02*
X0181622Y0113535D01*
X0177622Y0117535D02*
X0185622Y0117535D01*
X0216992Y0108086D02*
X0224992Y0108086D01*
X0220992Y0104086D02*
X0220992Y0112086D01*
X0250913Y0091614D02*
X0250913Y0083614D01*
X0246913Y0087614D02*
X0254913Y0087614D01*
X0262094Y0075590D02*
X0262094Y0067590D01*
X0258094Y0071590D02*
X0266094Y0071590D01*
X0254913Y0065960D02*
X0246913Y0065960D01*
X0241858Y0065236D02*
X0241858Y0057236D01*
X0237858Y0061236D02*
X0245858Y0061236D01*
X0250913Y0061960D02*
X0250913Y0069960D01*
X0223417Y0063992D02*
X0215417Y0063992D01*
X0219417Y0059992D02*
X0219417Y0067992D01*
X0198457Y0070803D02*
X0190457Y0070803D01*
X0194457Y0066803D02*
X0194457Y0074803D01*
X0186016Y0065960D02*
X0178016Y0065960D01*
X0170307Y0067535D02*
X0162307Y0067535D01*
X0166307Y0063535D02*
X0166307Y0071535D01*
X0182016Y0069960D02*
X0182016Y0061960D01*
X0188315Y0060905D02*
X0188315Y0052905D01*
X0184315Y0056905D02*
X0192315Y0056905D01*
X0215417Y0043519D02*
X0223417Y0043519D01*
X0219417Y0039519D02*
X0219417Y0047519D01*
X0198945Y0039606D02*
X0198945Y0031606D01*
X0194945Y0035606D02*
X0202945Y0035606D01*
X0178535Y0038401D02*
X0170535Y0038401D01*
X0174535Y0034401D02*
X0174535Y0042401D01*
X0143575Y0035212D02*
X0135575Y0035212D01*
X0139575Y0031212D02*
X0139575Y0039212D01*
X0137134Y0047000D02*
X0137134Y0055000D01*
X0133134Y0051000D02*
X0141134Y0051000D01*
X0126583Y0061291D02*
X0126583Y0069291D01*
X0122583Y0065291D02*
X0130583Y0065291D01*
X0115150Y0065960D02*
X0107150Y0065960D01*
X0105638Y0067598D02*
X0105638Y0059598D01*
X0101638Y0063598D02*
X0109638Y0063598D01*
X0111150Y0061960D02*
X0111150Y0069960D01*
X0111150Y0083614D02*
X0111150Y0091614D01*
X0107150Y0087614D02*
X0115150Y0087614D01*
X0150126Y0104086D02*
X0150126Y0112086D01*
X0146126Y0108086D02*
X0154126Y0108086D01*
X0182016Y0091614D02*
X0182016Y0083614D01*
X0178016Y0087614D02*
X0186016Y0087614D01*
X0114756Y0117535D02*
X0106756Y0117535D01*
X0110756Y0113535D02*
X0110756Y0121535D01*
X0083260Y0108086D02*
X0075260Y0108086D01*
X0079260Y0104086D02*
X0079260Y0112086D01*
X0045465Y0120685D02*
X0037465Y0120685D01*
X0041465Y0116685D02*
X0041465Y0124685D01*
X0011606Y0119504D02*
X0003606Y0119504D01*
X0007606Y0115504D02*
X0007606Y0123504D01*
X0053276Y0160779D02*
X0053276Y0168779D01*
X0049276Y0164779D02*
X0057276Y0164779D01*
X0087858Y0162023D02*
X0095858Y0162023D01*
X0091858Y0158023D02*
X0091858Y0166023D01*
X0091858Y0146338D02*
X0091858Y0138338D01*
X0087858Y0142338D02*
X0095858Y0142338D01*
X0041465Y0080590D02*
X0041465Y0072590D01*
X0037465Y0076590D02*
X0045465Y0076590D01*
X0101307Y0043976D02*
X0101307Y0035976D01*
X0097307Y0039976D02*
X0105307Y0039976D01*
X0045465Y0031708D02*
X0037465Y0031708D01*
X0041465Y0027708D02*
X0041465Y0035708D01*
X0241402Y0036039D02*
X0249402Y0036039D01*
X0245402Y0032039D02*
X0245402Y0040039D01*
X0261835Y0041315D02*
X0269835Y0041315D01*
X0265835Y0037315D02*
X0265835Y0045315D01*
X0379260Y0116685D02*
X0379260Y0124685D01*
X0375260Y0120685D02*
X0383260Y0120685D01*
X0379260Y0160779D02*
X0379260Y0168779D01*
X0375260Y0164779D02*
X0383260Y0164779D01*
D15*
X0348559Y0163948D02*
X0347107Y0163948D01*
X0346624Y0164432D01*
X0346624Y0165399D01*
X0347107Y0165883D01*
X0348559Y0165883D01*
X0348559Y0162980D01*
X0347591Y0163948D02*
X0346624Y0162980D01*
X0345612Y0162980D02*
X0343677Y0162980D01*
X0344645Y0162980D02*
X0344645Y0165883D01*
X0345612Y0164915D01*
X0342666Y0165399D02*
X0342182Y0165883D01*
X0341214Y0165883D01*
X0340731Y0165399D01*
X0340731Y0164915D01*
X0341214Y0164432D01*
X0340731Y0163948D01*
X0340731Y0163464D01*
X0341214Y0162980D01*
X0342182Y0162980D01*
X0342666Y0163464D01*
X0341698Y0164432D02*
X0341214Y0164432D01*
X0333638Y0171788D02*
X0333638Y0174691D01*
X0332187Y0174691D01*
X0331703Y0174207D01*
X0331703Y0173240D01*
X0332187Y0172756D01*
X0333638Y0172756D01*
X0332671Y0172756D02*
X0331703Y0171788D01*
X0330692Y0172272D02*
X0330208Y0171788D01*
X0329241Y0171788D01*
X0328757Y0172272D01*
X0328757Y0172756D01*
X0329241Y0173240D01*
X0330692Y0173240D01*
X0330692Y0172272D01*
X0330692Y0173240D02*
X0329724Y0174207D01*
X0328757Y0174691D01*
X0327745Y0174207D02*
X0327262Y0174691D01*
X0326294Y0174691D01*
X0325810Y0174207D01*
X0325810Y0173723D01*
X0326294Y0173240D01*
X0325810Y0172756D01*
X0325810Y0172272D01*
X0326294Y0171788D01*
X0327262Y0171788D01*
X0327745Y0172272D01*
X0326778Y0173240D02*
X0326294Y0173240D01*
X0300746Y0169103D02*
X0300746Y0168136D01*
X0300262Y0167652D01*
X0299779Y0167652D01*
X0299295Y0168136D01*
X0299295Y0169587D01*
X0300262Y0169587D02*
X0300746Y0169103D01*
X0300262Y0169587D02*
X0298327Y0169587D01*
X0297844Y0169103D01*
X0297844Y0168136D01*
X0298327Y0167652D01*
X0299295Y0166640D02*
X0299295Y0164706D01*
X0300746Y0166157D01*
X0297844Y0166157D01*
X0297844Y0163694D02*
X0298811Y0162726D01*
X0298811Y0163210D02*
X0298811Y0161759D01*
X0297844Y0161759D02*
X0300746Y0161759D01*
X0300746Y0163210D01*
X0300262Y0163694D01*
X0299295Y0163694D01*
X0298811Y0163210D01*
X0285136Y0162822D02*
X0285136Y0160887D01*
X0283685Y0160887D01*
X0284168Y0161854D01*
X0284168Y0162338D01*
X0283685Y0162822D01*
X0282717Y0162822D01*
X0282233Y0162338D01*
X0282233Y0161370D01*
X0282717Y0160887D01*
X0282233Y0159875D02*
X0283201Y0158908D01*
X0283201Y0159391D02*
X0283201Y0157940D01*
X0282233Y0157940D02*
X0285136Y0157940D01*
X0285136Y0159391D01*
X0284652Y0159875D01*
X0283685Y0159875D01*
X0283201Y0159391D01*
X0277693Y0162587D02*
X0277693Y0165489D01*
X0276241Y0165489D01*
X0275758Y0165005D01*
X0275758Y0164038D01*
X0276241Y0163554D01*
X0277693Y0163554D01*
X0276725Y0163554D02*
X0275758Y0162587D01*
X0274746Y0163070D02*
X0274262Y0162587D01*
X0273295Y0162587D01*
X0272811Y0163070D01*
X0272811Y0163554D01*
X0273295Y0164038D01*
X0274262Y0164038D01*
X0274746Y0164522D01*
X0274746Y0165005D01*
X0274262Y0165489D01*
X0273295Y0165489D01*
X0272811Y0165005D01*
X0272811Y0164522D01*
X0273295Y0164038D01*
X0274262Y0164038D02*
X0274746Y0163554D01*
X0274746Y0163070D01*
X0282233Y0164317D02*
X0282717Y0163833D01*
X0282233Y0164317D02*
X0282233Y0165284D01*
X0282717Y0165768D01*
X0283201Y0165768D01*
X0283685Y0165284D01*
X0283685Y0164801D01*
X0283685Y0165284D02*
X0284168Y0165768D01*
X0284652Y0165768D01*
X0285136Y0165284D01*
X0285136Y0164317D01*
X0284652Y0163833D01*
X0267654Y0170607D02*
X0267654Y0173510D01*
X0266203Y0173510D01*
X0265719Y0173026D01*
X0265719Y0172058D01*
X0266203Y0171575D01*
X0267654Y0171575D01*
X0266687Y0171575D02*
X0265719Y0170607D01*
X0264708Y0171091D02*
X0264224Y0170607D01*
X0263256Y0170607D01*
X0262773Y0171091D01*
X0262773Y0171575D01*
X0263256Y0172058D01*
X0264708Y0172058D01*
X0264708Y0171091D01*
X0264708Y0172058D02*
X0263740Y0173026D01*
X0262773Y0173510D01*
X0261761Y0173510D02*
X0259826Y0173510D01*
X0259826Y0173026D01*
X0261761Y0171091D01*
X0261761Y0170607D01*
X0231849Y0166831D02*
X0231365Y0166831D01*
X0229430Y0164896D01*
X0228946Y0164896D01*
X0229430Y0163885D02*
X0228946Y0163401D01*
X0228946Y0162433D01*
X0229430Y0161950D01*
X0228946Y0160938D02*
X0229914Y0159971D01*
X0229914Y0160454D02*
X0229914Y0159003D01*
X0228946Y0159003D02*
X0231849Y0159003D01*
X0231849Y0160454D01*
X0231365Y0160938D01*
X0230397Y0160938D01*
X0229914Y0160454D01*
X0231365Y0161950D02*
X0231849Y0162433D01*
X0231849Y0163401D01*
X0231365Y0163885D01*
X0230881Y0163885D01*
X0230397Y0163401D01*
X0229914Y0163885D01*
X0229430Y0163885D01*
X0230397Y0163401D02*
X0230397Y0162917D01*
X0231849Y0164896D02*
X0231849Y0166831D01*
X0215845Y0166872D02*
X0215845Y0165420D01*
X0212942Y0165420D01*
X0213910Y0165420D02*
X0213910Y0166872D01*
X0214393Y0167355D01*
X0215361Y0167355D01*
X0215845Y0166872D01*
X0213910Y0166388D02*
X0212942Y0167355D01*
X0214393Y0168367D02*
X0214393Y0170302D01*
X0213426Y0171313D02*
X0212942Y0171797D01*
X0212942Y0172765D01*
X0213426Y0173248D01*
X0213910Y0173248D01*
X0214393Y0172765D01*
X0214393Y0172281D01*
X0214393Y0172765D02*
X0214877Y0173248D01*
X0215361Y0173248D01*
X0215845Y0172765D01*
X0215845Y0171797D01*
X0215361Y0171313D01*
X0215845Y0169818D02*
X0212942Y0169818D01*
X0214393Y0168367D02*
X0215845Y0169818D01*
X0205645Y0169033D02*
X0205645Y0166130D01*
X0205645Y0167098D02*
X0204194Y0167098D01*
X0203710Y0167581D01*
X0203710Y0168549D01*
X0204194Y0169033D01*
X0205645Y0169033D01*
X0204678Y0167098D02*
X0203710Y0166130D01*
X0202699Y0166614D02*
X0202215Y0166130D01*
X0201248Y0166130D01*
X0200764Y0166614D01*
X0200764Y0167098D01*
X0201248Y0167581D01*
X0202699Y0167581D01*
X0202699Y0166614D01*
X0202699Y0167581D02*
X0201731Y0168549D01*
X0200764Y0169033D01*
X0200444Y0175804D02*
X0199477Y0175804D01*
X0198993Y0176288D01*
X0198993Y0176772D01*
X0199477Y0177255D01*
X0200928Y0177255D01*
X0200928Y0176288D01*
X0200444Y0175804D01*
X0201940Y0175804D02*
X0202907Y0176772D01*
X0202423Y0176772D02*
X0203875Y0176772D01*
X0203875Y0175804D02*
X0203875Y0178707D01*
X0202423Y0178707D01*
X0201940Y0178223D01*
X0201940Y0177255D01*
X0202423Y0176772D01*
X0200928Y0177255D02*
X0199961Y0178223D01*
X0198993Y0178707D01*
X0197982Y0178223D02*
X0197498Y0178707D01*
X0196530Y0178707D01*
X0196047Y0178223D01*
X0196047Y0177739D01*
X0197982Y0175804D01*
X0196047Y0175804D01*
X0159801Y0168012D02*
X0159801Y0166077D01*
X0159801Y0164582D02*
X0158350Y0163131D01*
X0158350Y0165066D01*
X0157383Y0166077D02*
X0156899Y0166077D01*
X0157383Y0166077D02*
X0159318Y0168012D01*
X0159801Y0168012D01*
X0159801Y0164582D02*
X0156899Y0164582D01*
X0156899Y0162119D02*
X0157866Y0161152D01*
X0157866Y0161635D02*
X0157866Y0160184D01*
X0156899Y0160184D02*
X0159801Y0160184D01*
X0159801Y0161635D01*
X0159318Y0162119D01*
X0158350Y0162119D01*
X0157866Y0161635D01*
X0146984Y0157221D02*
X0145533Y0157221D01*
X0145049Y0156738D01*
X0145049Y0155770D01*
X0145533Y0155287D01*
X0146984Y0155287D01*
X0146016Y0155287D02*
X0145049Y0154319D01*
X0144037Y0155770D02*
X0142102Y0155770D01*
X0142586Y0154319D02*
X0142586Y0157221D01*
X0144037Y0155770D01*
X0146984Y0154319D02*
X0146984Y0157221D01*
X0145766Y0165322D02*
X0145766Y0166773D01*
X0145282Y0167257D01*
X0144315Y0167257D01*
X0143831Y0166773D01*
X0143831Y0165322D01*
X0143831Y0166289D02*
X0142863Y0167257D01*
X0143347Y0168269D02*
X0142863Y0168752D01*
X0142863Y0169720D01*
X0143347Y0170203D01*
X0144315Y0170203D01*
X0144798Y0169720D01*
X0144798Y0169236D01*
X0144315Y0168269D01*
X0145766Y0168269D01*
X0145766Y0170203D01*
X0144798Y0171215D02*
X0145766Y0172183D01*
X0142863Y0172183D01*
X0142863Y0173150D02*
X0142863Y0171215D01*
X0142863Y0165322D02*
X0145766Y0165322D01*
X0131985Y0171867D02*
X0131985Y0174770D01*
X0130534Y0174770D01*
X0130050Y0174286D01*
X0130050Y0173318D01*
X0130534Y0172835D01*
X0131985Y0172835D01*
X0131017Y0172835D02*
X0130050Y0171867D01*
X0129038Y0172351D02*
X0128555Y0171867D01*
X0127587Y0171867D01*
X0127103Y0172351D01*
X0127103Y0172835D01*
X0127587Y0173318D01*
X0129038Y0173318D01*
X0129038Y0172351D01*
X0129038Y0173318D02*
X0128071Y0174286D01*
X0127103Y0174770D01*
X0126092Y0173318D02*
X0126092Y0172351D01*
X0125608Y0171867D01*
X0124641Y0171867D01*
X0124157Y0172351D01*
X0124157Y0172835D01*
X0124641Y0173318D01*
X0126092Y0173318D01*
X0125124Y0174286D01*
X0124157Y0174770D01*
X0086317Y0168828D02*
X0085833Y0169311D01*
X0083898Y0167376D01*
X0083415Y0167860D01*
X0083415Y0168828D01*
X0083898Y0169311D01*
X0085833Y0169311D01*
X0086317Y0168828D02*
X0086317Y0167860D01*
X0085833Y0167376D01*
X0083898Y0167376D01*
X0084866Y0166365D02*
X0084866Y0164430D01*
X0086317Y0165881D01*
X0083415Y0165881D01*
X0083415Y0163418D02*
X0084382Y0162451D01*
X0084382Y0162935D02*
X0084382Y0161483D01*
X0083415Y0161483D02*
X0086317Y0161483D01*
X0086317Y0162935D01*
X0085833Y0163418D01*
X0084866Y0163418D01*
X0084382Y0162935D01*
X0083808Y0146477D02*
X0083808Y0144542D01*
X0083808Y0145509D02*
X0086711Y0145509D01*
X0085743Y0144542D01*
X0085259Y0143530D02*
X0085259Y0141595D01*
X0086711Y0143047D01*
X0083808Y0143047D01*
X0083808Y0140584D02*
X0084776Y0139616D01*
X0084776Y0140100D02*
X0084776Y0138649D01*
X0083808Y0138649D02*
X0086711Y0138649D01*
X0086711Y0140100D01*
X0086227Y0140584D01*
X0085259Y0140584D01*
X0084776Y0140100D01*
X0112107Y0140643D02*
X0112590Y0140159D01*
X0112107Y0140643D02*
X0112107Y0141610D01*
X0112590Y0142094D01*
X0113074Y0142094D01*
X0113558Y0141610D01*
X0113558Y0141127D01*
X0113558Y0141610D02*
X0114042Y0142094D01*
X0114525Y0142094D01*
X0115009Y0141610D01*
X0115009Y0140643D01*
X0114525Y0140159D01*
X0114525Y0139148D02*
X0113558Y0139148D01*
X0113074Y0138664D01*
X0113074Y0137213D01*
X0113074Y0138180D02*
X0112107Y0139148D01*
X0112107Y0137213D02*
X0115009Y0137213D01*
X0115009Y0138664D01*
X0114525Y0139148D01*
X0115009Y0143106D02*
X0113558Y0143106D01*
X0114042Y0144073D01*
X0114042Y0144557D01*
X0113558Y0145041D01*
X0112590Y0145041D01*
X0112107Y0144557D01*
X0112107Y0143589D01*
X0112590Y0143106D01*
X0115009Y0143106D02*
X0115009Y0145041D01*
X0125213Y0140036D02*
X0127148Y0140036D01*
X0127148Y0138585D01*
X0126180Y0139069D01*
X0125696Y0139069D01*
X0125213Y0138585D01*
X0125213Y0137618D01*
X0125696Y0137134D01*
X0126664Y0137134D01*
X0127148Y0137618D01*
X0128159Y0137134D02*
X0129127Y0138101D01*
X0128643Y0138101D02*
X0130094Y0138101D01*
X0130094Y0137134D02*
X0130094Y0140036D01*
X0128643Y0140036D01*
X0128159Y0139553D01*
X0128159Y0138585D01*
X0128643Y0138101D01*
X0187090Y0131313D02*
X0187090Y0130830D01*
X0187574Y0130346D01*
X0187090Y0129862D01*
X0187090Y0129378D01*
X0187574Y0128895D01*
X0188541Y0128895D01*
X0189025Y0129378D01*
X0190036Y0128895D02*
X0191004Y0129862D01*
X0190520Y0129862D02*
X0191971Y0129862D01*
X0191971Y0128895D02*
X0191971Y0131797D01*
X0190520Y0131797D01*
X0190036Y0131313D01*
X0190036Y0130346D01*
X0190520Y0129862D01*
X0189025Y0131313D02*
X0188541Y0131797D01*
X0187574Y0131797D01*
X0187090Y0131313D01*
X0187574Y0130346D02*
X0188057Y0130346D01*
X0189904Y0078068D02*
X0189904Y0077584D01*
X0191839Y0075649D01*
X0191839Y0075165D01*
X0192850Y0075165D02*
X0194785Y0075165D01*
X0193818Y0075165D02*
X0193818Y0078068D01*
X0194785Y0077100D01*
X0195797Y0076617D02*
X0196281Y0076133D01*
X0197732Y0076133D01*
X0197732Y0075165D02*
X0197732Y0078068D01*
X0196281Y0078068D01*
X0195797Y0077584D01*
X0195797Y0076617D01*
X0196764Y0076133D02*
X0195797Y0075165D01*
X0191839Y0078068D02*
X0189904Y0078068D01*
X0174753Y0074754D02*
X0174270Y0075238D01*
X0173786Y0075238D01*
X0173302Y0074754D01*
X0172818Y0075238D01*
X0172335Y0075238D01*
X0171851Y0074754D01*
X0171851Y0073786D01*
X0172335Y0073303D01*
X0171851Y0072291D02*
X0171851Y0070356D01*
X0173786Y0072291D01*
X0174270Y0072291D01*
X0174753Y0071807D01*
X0174753Y0070840D01*
X0174270Y0070356D01*
X0174270Y0069345D02*
X0173302Y0069345D01*
X0172818Y0068861D01*
X0172818Y0067410D01*
X0172818Y0068377D02*
X0171851Y0069345D01*
X0171851Y0067410D02*
X0174753Y0067410D01*
X0174753Y0068861D01*
X0174270Y0069345D01*
X0174270Y0073303D02*
X0174753Y0073786D01*
X0174753Y0074754D01*
X0173302Y0074754D02*
X0173302Y0074270D01*
X0150527Y0061159D02*
X0149076Y0061159D01*
X0148592Y0060675D01*
X0148592Y0059707D01*
X0149076Y0059224D01*
X0150527Y0059224D01*
X0149560Y0059224D02*
X0148592Y0058256D01*
X0147581Y0058256D02*
X0145646Y0058256D01*
X0146613Y0058256D02*
X0146613Y0061159D01*
X0147581Y0060191D01*
X0144634Y0059707D02*
X0144634Y0058740D01*
X0144150Y0058256D01*
X0143183Y0058256D01*
X0142699Y0058740D01*
X0142699Y0059224D01*
X0143183Y0059707D01*
X0144634Y0059707D01*
X0143667Y0060675D01*
X0142699Y0061159D01*
X0150527Y0061159D02*
X0150527Y0058256D01*
X0131433Y0070441D02*
X0131433Y0073344D01*
X0129981Y0073344D01*
X0129498Y0072860D01*
X0129498Y0071892D01*
X0129981Y0071409D01*
X0131433Y0071409D01*
X0130465Y0071409D02*
X0129498Y0070441D01*
X0128486Y0070441D02*
X0126551Y0070441D01*
X0127519Y0070441D02*
X0127519Y0073344D01*
X0128486Y0072376D01*
X0125540Y0072376D02*
X0125540Y0072860D01*
X0125056Y0073344D01*
X0124088Y0073344D01*
X0123605Y0072860D01*
X0123605Y0072376D01*
X0124088Y0071892D01*
X0125056Y0071892D01*
X0125540Y0072376D01*
X0125056Y0071892D02*
X0125540Y0071409D01*
X0125540Y0070925D01*
X0125056Y0070441D01*
X0124088Y0070441D01*
X0123605Y0070925D01*
X0123605Y0071409D01*
X0124088Y0071892D01*
X0106178Y0071836D02*
X0106178Y0068934D01*
X0106178Y0069901D02*
X0104727Y0069901D01*
X0104243Y0070385D01*
X0104243Y0071353D01*
X0104727Y0071836D01*
X0106178Y0071836D01*
X0105210Y0069901D02*
X0104243Y0068934D01*
X0103231Y0069418D02*
X0102747Y0068934D01*
X0101780Y0068934D01*
X0101296Y0069418D01*
X0101296Y0069901D01*
X0101780Y0070385D01*
X0102264Y0070385D01*
X0101780Y0070385D02*
X0101296Y0070869D01*
X0101296Y0071353D01*
X0101780Y0071836D01*
X0102747Y0071836D01*
X0103231Y0071353D01*
X0100285Y0070869D02*
X0099317Y0071836D01*
X0099317Y0068934D01*
X0098350Y0068934D02*
X0100285Y0068934D01*
X0135762Y0041552D02*
X0137213Y0040101D01*
X0135278Y0040101D01*
X0135762Y0038650D02*
X0135762Y0041552D01*
X0138224Y0041552D02*
X0139192Y0041068D01*
X0140159Y0040101D01*
X0138708Y0040101D01*
X0138224Y0039617D01*
X0138224Y0039133D01*
X0138708Y0038650D01*
X0139676Y0038650D01*
X0140159Y0039133D01*
X0140159Y0040101D01*
X0141171Y0040101D02*
X0141655Y0039617D01*
X0143106Y0039617D01*
X0143106Y0038650D02*
X0143106Y0041552D01*
X0141655Y0041552D01*
X0141171Y0041068D01*
X0141171Y0040101D01*
X0142138Y0039617D02*
X0141171Y0038650D01*
X0165140Y0029572D02*
X0165140Y0029089D01*
X0165624Y0028605D01*
X0166591Y0028605D01*
X0167075Y0029089D01*
X0167075Y0029572D01*
X0166591Y0030056D01*
X0165624Y0030056D01*
X0165140Y0029572D01*
X0165624Y0028605D02*
X0165140Y0028121D01*
X0165140Y0027637D01*
X0165624Y0027154D01*
X0166591Y0027154D01*
X0167075Y0027637D01*
X0167075Y0028121D01*
X0166591Y0028605D01*
X0168087Y0029089D02*
X0168087Y0029572D01*
X0168570Y0030056D01*
X0169538Y0030056D01*
X0170022Y0029572D01*
X0171033Y0029572D02*
X0171033Y0028605D01*
X0171517Y0028121D01*
X0172968Y0028121D01*
X0172968Y0027154D02*
X0172968Y0030056D01*
X0171517Y0030056D01*
X0171033Y0029572D01*
X0172001Y0028121D02*
X0171033Y0027154D01*
X0170022Y0027154D02*
X0168087Y0029089D01*
X0168087Y0027154D02*
X0170022Y0027154D01*
X0196616Y0039043D02*
X0198551Y0039043D01*
X0197584Y0039043D02*
X0197584Y0041946D01*
X0198551Y0040978D01*
X0199563Y0040011D02*
X0200047Y0040495D01*
X0201498Y0040495D01*
X0201498Y0039527D01*
X0201014Y0039043D01*
X0200047Y0039043D01*
X0199563Y0039527D01*
X0199563Y0040011D01*
X0200530Y0041462D02*
X0201498Y0040495D01*
X0202510Y0040495D02*
X0202510Y0041462D01*
X0202993Y0041946D01*
X0204444Y0041946D01*
X0204444Y0039043D01*
X0204444Y0040011D02*
X0202993Y0040011D01*
X0202510Y0040495D01*
X0203477Y0040011D02*
X0202510Y0039043D01*
X0200530Y0041462D02*
X0199563Y0041946D01*
X0199773Y0046051D02*
X0200741Y0047019D01*
X0200257Y0047019D02*
X0201708Y0047019D01*
X0201708Y0046051D02*
X0201708Y0048954D01*
X0200257Y0048954D01*
X0199773Y0048470D01*
X0199773Y0047503D01*
X0200257Y0047019D01*
X0198762Y0046051D02*
X0196827Y0046051D01*
X0195815Y0046051D02*
X0195815Y0046535D01*
X0193880Y0048470D01*
X0193880Y0048954D01*
X0195815Y0048954D01*
X0196827Y0048470D02*
X0197311Y0048954D01*
X0198278Y0048954D01*
X0198762Y0048470D01*
X0196827Y0048470D02*
X0196827Y0047986D01*
X0198762Y0046051D01*
X0211367Y0046207D02*
X0211367Y0047174D01*
X0211851Y0047658D01*
X0213786Y0047658D01*
X0214270Y0047174D01*
X0214270Y0046207D01*
X0213786Y0045723D01*
X0213302Y0045723D01*
X0212819Y0046207D01*
X0212819Y0047658D01*
X0211367Y0046207D02*
X0211851Y0045723D01*
X0211367Y0044711D02*
X0212335Y0043744D01*
X0212335Y0044228D02*
X0212335Y0042776D01*
X0211367Y0042776D02*
X0214270Y0042776D01*
X0214270Y0044228D01*
X0213786Y0044711D01*
X0212819Y0044711D01*
X0212335Y0044228D01*
X0233340Y0028088D02*
X0234792Y0026636D01*
X0232857Y0026636D01*
X0233340Y0025185D02*
X0233340Y0028088D01*
X0236771Y0028088D02*
X0236771Y0025185D01*
X0237738Y0025185D02*
X0235803Y0025185D01*
X0237738Y0027120D02*
X0236771Y0028088D01*
X0238750Y0027604D02*
X0238750Y0026636D01*
X0239233Y0026153D01*
X0240685Y0026153D01*
X0239717Y0026153D02*
X0238750Y0025185D01*
X0240685Y0025185D02*
X0240685Y0028088D01*
X0239233Y0028088D01*
X0238750Y0027604D01*
X0270059Y0038571D02*
X0272962Y0038571D01*
X0272962Y0040022D01*
X0272478Y0040506D01*
X0271511Y0040506D01*
X0271027Y0040022D01*
X0271027Y0038571D01*
X0271027Y0039538D02*
X0270059Y0040506D01*
X0270543Y0041518D02*
X0270059Y0042001D01*
X0270059Y0042969D01*
X0270543Y0043452D01*
X0271027Y0043452D01*
X0271511Y0042969D01*
X0271511Y0041518D01*
X0270543Y0041518D01*
X0271511Y0041518D02*
X0272478Y0042485D01*
X0272962Y0043452D01*
X0272962Y0044464D02*
X0271511Y0044464D01*
X0271994Y0045432D01*
X0271994Y0045915D01*
X0271511Y0046399D01*
X0270543Y0046399D01*
X0270059Y0045915D01*
X0270059Y0044948D01*
X0270543Y0044464D01*
X0272962Y0044464D02*
X0272962Y0046399D01*
X0283415Y0046286D02*
X0283415Y0044351D01*
X0283415Y0045319D02*
X0286317Y0045319D01*
X0285350Y0044351D01*
X0285833Y0043340D02*
X0284866Y0043340D01*
X0284382Y0042856D01*
X0284382Y0041405D01*
X0284382Y0042372D02*
X0283415Y0043340D01*
X0283415Y0041405D02*
X0286317Y0041405D01*
X0286317Y0042856D01*
X0285833Y0043340D01*
X0285833Y0047298D02*
X0283898Y0047298D01*
X0285833Y0049233D01*
X0283898Y0049233D01*
X0283415Y0048749D01*
X0283415Y0047781D01*
X0283898Y0047298D01*
X0285833Y0047298D02*
X0286317Y0047781D01*
X0286317Y0048749D01*
X0285833Y0049233D01*
X0270881Y0063748D02*
X0270881Y0066651D01*
X0269430Y0066651D01*
X0268947Y0066167D01*
X0268947Y0065199D01*
X0269430Y0064716D01*
X0270881Y0064716D01*
X0269914Y0064716D02*
X0268947Y0063748D01*
X0267935Y0063748D02*
X0266000Y0065683D01*
X0266000Y0066167D01*
X0266484Y0066651D01*
X0267451Y0066651D01*
X0267935Y0066167D01*
X0267935Y0063748D02*
X0266000Y0063748D01*
X0264988Y0064232D02*
X0263053Y0066167D01*
X0263053Y0064232D01*
X0263537Y0063748D01*
X0264505Y0063748D01*
X0264988Y0064232D01*
X0264988Y0066167D01*
X0264505Y0066651D01*
X0263537Y0066651D01*
X0263053Y0066167D01*
X0233817Y0066483D02*
X0233817Y0067935D01*
X0233333Y0068418D01*
X0232366Y0068418D01*
X0231882Y0067935D01*
X0231882Y0066483D01*
X0230915Y0066483D02*
X0233817Y0066483D01*
X0231882Y0067451D02*
X0230915Y0068418D01*
X0231398Y0069430D02*
X0230915Y0069914D01*
X0230915Y0070881D01*
X0231398Y0071365D01*
X0231882Y0071365D01*
X0232366Y0070881D01*
X0232366Y0070397D01*
X0232366Y0070881D02*
X0232850Y0071365D01*
X0233333Y0071365D01*
X0233817Y0070881D01*
X0233817Y0069914D01*
X0233333Y0069430D01*
X0233333Y0072376D02*
X0233817Y0072860D01*
X0233817Y0073828D01*
X0233333Y0074311D01*
X0232850Y0074311D01*
X0232366Y0073828D01*
X0231882Y0074311D01*
X0231398Y0074311D01*
X0230915Y0073828D01*
X0230915Y0072860D01*
X0231398Y0072376D01*
X0232366Y0073344D02*
X0232366Y0073828D01*
X0227470Y0072302D02*
X0224567Y0072302D01*
X0224567Y0073269D02*
X0224567Y0071334D01*
X0224567Y0070323D02*
X0224567Y0068388D01*
X0226502Y0070323D01*
X0226986Y0070323D01*
X0227470Y0069839D01*
X0227470Y0068871D01*
X0226986Y0068388D01*
X0226986Y0067376D02*
X0226019Y0067376D01*
X0225535Y0066892D01*
X0225535Y0065441D01*
X0225535Y0066409D02*
X0224567Y0067376D01*
X0224567Y0065441D02*
X0227470Y0065441D01*
X0227470Y0066892D01*
X0226986Y0067376D01*
X0226502Y0071334D02*
X0227470Y0072302D01*
X0306899Y0072770D02*
X0308834Y0074705D01*
X0309318Y0074705D01*
X0309801Y0074221D01*
X0309801Y0073254D01*
X0309318Y0072770D01*
X0309318Y0071759D02*
X0308350Y0071759D01*
X0307866Y0071275D01*
X0307866Y0069824D01*
X0307866Y0070791D02*
X0306899Y0071759D01*
X0306899Y0072770D02*
X0306899Y0074705D01*
X0309318Y0071759D02*
X0309801Y0071275D01*
X0309801Y0069824D01*
X0306899Y0069824D01*
X0338802Y0067348D02*
X0338802Y0065413D01*
X0339285Y0064929D01*
X0340253Y0064929D01*
X0340736Y0065413D01*
X0340253Y0066380D02*
X0340736Y0066864D01*
X0340736Y0067348D01*
X0340253Y0067832D01*
X0339285Y0067832D01*
X0338802Y0067348D01*
X0338802Y0066380D02*
X0340253Y0066380D01*
X0341748Y0064929D02*
X0343683Y0064929D01*
X0342716Y0064929D02*
X0342716Y0067832D01*
X0343683Y0066864D01*
X0344695Y0067348D02*
X0344695Y0066380D01*
X0345178Y0065897D01*
X0346630Y0065897D01*
X0346630Y0064929D02*
X0346630Y0067832D01*
X0345178Y0067832D01*
X0344695Y0067348D01*
X0345662Y0065897D02*
X0344695Y0064929D01*
X0344759Y0041552D02*
X0343308Y0041552D01*
X0342824Y0041068D01*
X0342824Y0040101D01*
X0343308Y0039617D01*
X0344759Y0039617D01*
X0343792Y0039617D02*
X0342824Y0038650D01*
X0341813Y0039133D02*
X0341329Y0038650D01*
X0340362Y0038650D01*
X0339878Y0039133D01*
X0339878Y0039617D01*
X0340362Y0040101D01*
X0341813Y0040101D01*
X0341813Y0039133D01*
X0341813Y0040101D02*
X0340845Y0041068D01*
X0339878Y0041552D01*
X0338866Y0041068D02*
X0338383Y0041552D01*
X0337415Y0041552D01*
X0336931Y0041068D01*
X0338866Y0039133D01*
X0338383Y0038650D01*
X0337415Y0038650D01*
X0336931Y0039133D01*
X0336931Y0041068D01*
X0338866Y0041068D02*
X0338866Y0039133D01*
X0344759Y0038650D02*
X0344759Y0041552D01*
X0318637Y0030056D02*
X0318637Y0027154D01*
X0318637Y0028121D02*
X0317186Y0028121D01*
X0316702Y0028605D01*
X0316702Y0029572D01*
X0317186Y0030056D01*
X0318637Y0030056D01*
X0317670Y0028121D02*
X0316702Y0027154D01*
X0315691Y0028605D02*
X0313756Y0028605D01*
X0312744Y0028605D02*
X0311777Y0029089D01*
X0311293Y0029089D01*
X0310809Y0028605D01*
X0310809Y0027637D01*
X0311293Y0027154D01*
X0312261Y0027154D01*
X0312744Y0027637D01*
X0312744Y0028605D02*
X0312744Y0030056D01*
X0310809Y0030056D01*
X0314240Y0030056D02*
X0314240Y0027154D01*
X0315691Y0028605D02*
X0314240Y0030056D01*
X0337562Y0130469D02*
X0339497Y0130469D01*
X0338530Y0130469D02*
X0338530Y0133372D01*
X0339497Y0132404D01*
X0340509Y0132888D02*
X0340509Y0131921D01*
X0340993Y0131437D01*
X0342444Y0131437D01*
X0342444Y0130469D02*
X0342444Y0133372D01*
X0340993Y0133372D01*
X0340509Y0132888D01*
X0341476Y0131437D02*
X0340509Y0130469D01*
X0299123Y0133945D02*
X0299123Y0135396D01*
X0298640Y0135880D01*
X0297672Y0135880D01*
X0297188Y0135396D01*
X0297188Y0133945D01*
X0296221Y0133945D02*
X0299123Y0133945D01*
X0297188Y0134912D02*
X0296221Y0135880D01*
X0296705Y0136892D02*
X0296221Y0137375D01*
X0296221Y0138343D01*
X0296705Y0138827D01*
X0297672Y0138827D01*
X0298156Y0138343D01*
X0298156Y0137859D01*
X0297672Y0136892D01*
X0299123Y0136892D01*
X0299123Y0138827D01*
X0297672Y0139838D02*
X0297672Y0141289D01*
X0297188Y0141773D01*
X0296705Y0141773D01*
X0296221Y0141289D01*
X0296221Y0140322D01*
X0296705Y0139838D01*
X0297672Y0139838D01*
X0298640Y0140806D01*
X0299123Y0141773D01*
X0101571Y0031541D02*
X0100120Y0031541D01*
X0099636Y0031057D01*
X0099636Y0030090D01*
X0100120Y0029606D01*
X0101571Y0029606D01*
X0100604Y0029606D02*
X0099636Y0028639D01*
X0098625Y0029122D02*
X0098141Y0028639D01*
X0097174Y0028639D01*
X0096690Y0029122D01*
X0096690Y0029606D01*
X0097174Y0030090D01*
X0097657Y0030090D01*
X0097174Y0030090D02*
X0096690Y0030574D01*
X0096690Y0031057D01*
X0097174Y0031541D01*
X0098141Y0031541D01*
X0098625Y0031057D01*
X0095678Y0031057D02*
X0095195Y0031541D01*
X0094227Y0031541D01*
X0093743Y0031057D01*
X0095678Y0029122D01*
X0095195Y0028639D01*
X0094227Y0028639D01*
X0093743Y0029122D01*
X0093743Y0031057D01*
X0095678Y0031057D02*
X0095678Y0029122D01*
X0101571Y0028639D02*
X0101571Y0031541D01*
X0014301Y0110952D02*
X0011399Y0110952D01*
X0012366Y0110952D02*
X0012366Y0112403D01*
X0012850Y0112887D01*
X0013818Y0112887D01*
X0014301Y0112403D01*
X0014301Y0110952D01*
X0012366Y0111919D02*
X0011399Y0112887D01*
X0011883Y0113898D02*
X0011399Y0114382D01*
X0011399Y0115350D01*
X0011883Y0115833D01*
X0012850Y0115833D01*
X0013334Y0115350D01*
X0013334Y0114866D01*
X0012850Y0113898D01*
X0014301Y0113898D01*
X0014301Y0115833D01*
X0014301Y0116845D02*
X0014301Y0118780D01*
X0013818Y0118780D01*
X0011883Y0116845D01*
X0011399Y0116845D01*
X0023898Y0129049D02*
X0023415Y0129532D01*
X0023415Y0130500D01*
X0023898Y0130984D01*
X0026317Y0130984D01*
X0025833Y0131995D02*
X0026317Y0132479D01*
X0026317Y0133446D01*
X0025833Y0133930D01*
X0025833Y0134942D02*
X0026317Y0135425D01*
X0026317Y0136393D01*
X0025833Y0136877D01*
X0025350Y0136877D01*
X0023415Y0134942D01*
X0023415Y0136877D01*
X0023898Y0137888D02*
X0023415Y0138372D01*
X0023415Y0139339D01*
X0023898Y0139823D01*
X0025833Y0139823D01*
X0023898Y0137888D01*
X0025833Y0137888D01*
X0026317Y0138372D01*
X0026317Y0139339D01*
X0025833Y0139823D01*
X0024382Y0133930D02*
X0024866Y0133446D01*
X0024866Y0132479D01*
X0025350Y0131995D01*
X0025833Y0131995D01*
X0026801Y0132963D02*
X0022931Y0132963D01*
X0023415Y0133446D02*
X0023898Y0133930D01*
X0024382Y0133930D01*
X0023415Y0133446D02*
X0023415Y0132479D01*
X0023898Y0131995D01*
X0023898Y0129049D02*
X0026317Y0129049D01*
D16*
X0086556Y0132776D03*
X0086556Y0147776D03*
X0086556Y0162776D03*
X0135056Y0162776D03*
X0157422Y0162776D03*
X0157422Y0147776D03*
X0135056Y0147776D03*
X0135056Y0132776D03*
X0157422Y0132776D03*
X0157422Y0117776D03*
X0135056Y0117776D03*
X0086556Y0117776D03*
X0086850Y0088160D03*
X0086850Y0073160D03*
X0086850Y0058160D03*
X0086850Y0043160D03*
X0135350Y0043160D03*
X0157716Y0043160D03*
X0157716Y0058160D03*
X0135350Y0058160D03*
X0135350Y0073160D03*
X0157716Y0073160D03*
X0157716Y0088160D03*
X0135350Y0088160D03*
X0205922Y0117776D03*
X0228288Y0117776D03*
X0228288Y0132776D03*
X0205922Y0132776D03*
X0205922Y0147776D03*
X0228288Y0147776D03*
X0228288Y0162776D03*
X0205922Y0162776D03*
X0276788Y0162776D03*
X0299154Y0162776D03*
X0299154Y0147776D03*
X0276788Y0147776D03*
X0276788Y0132776D03*
X0299154Y0132776D03*
X0299154Y0117776D03*
X0276788Y0117776D03*
X0275113Y0088160D03*
X0301417Y0088160D03*
X0301417Y0073160D03*
X0301417Y0058160D03*
X0301417Y0043160D03*
X0275113Y0043160D03*
X0275113Y0058160D03*
X0275113Y0073160D03*
X0226613Y0073160D03*
X0206216Y0073160D03*
X0206216Y0058160D03*
X0226613Y0058160D03*
X0226613Y0043160D03*
X0206216Y0043160D03*
X0206216Y0088160D03*
X0226613Y0088160D03*
X0347654Y0117776D03*
X0347654Y0132776D03*
X0347654Y0147776D03*
X0347654Y0162776D03*
X0349917Y0088160D03*
X0349917Y0073160D03*
X0349917Y0058160D03*
X0349917Y0043160D03*
D17*
X0349917Y0026910D03*
X0301417Y0026910D03*
X0275113Y0026910D03*
X0226613Y0026910D03*
X0206216Y0026910D03*
X0157716Y0026910D03*
X0135350Y0026910D03*
X0086850Y0026910D03*
X0086556Y0179026D03*
X0135056Y0179026D03*
X0157422Y0179026D03*
X0205922Y0179026D03*
X0228288Y0179026D03*
X0276788Y0179026D03*
X0299154Y0179026D03*
X0347654Y0179026D03*
D18*
X0028472Y0051393D02*
X0028472Y0012023D01*
X0054457Y0012023D01*
X0054457Y0051393D01*
X0028472Y0051393D01*
X0028472Y0056905D02*
X0054457Y0056905D01*
X0054457Y0096275D01*
X0028472Y0096275D01*
X0028472Y0056905D01*
X0028472Y0101000D02*
X0054457Y0101000D01*
X0054457Y0140370D01*
X0028472Y0140370D01*
X0028472Y0101000D01*
X0040283Y0145094D02*
X0040283Y0184464D01*
X0066268Y0184464D01*
X0066268Y0145094D01*
X0040283Y0145094D01*
X0366268Y0145094D02*
X0392252Y0145094D01*
X0392252Y0184464D01*
X0366268Y0184464D01*
X0366268Y0145094D01*
X0366268Y0140370D02*
X0392252Y0140370D01*
X0392252Y0101000D01*
X0366268Y0101000D01*
X0366268Y0140370D01*
X0366268Y0096275D02*
X0392252Y0096275D01*
X0392252Y0056905D01*
X0366268Y0056905D01*
X0366268Y0096275D01*
X0366268Y0051393D02*
X0392252Y0051393D01*
X0392252Y0012023D01*
X0366268Y0012023D01*
X0366268Y0051393D01*
M02*
