G75*
G70*
%OFA0B0*%
%FSLAX24Y24*%
%IPPOS*%
%LPD*%
%AMOC8*
5,1,8,0,0,1.08239X$1,22.5*
%
%ADD10C,0.0070*%
%ADD11C,0.0040*%
%ADD12C,0.0050*%
D10*
X010509Y006102D02*
X010614Y005997D01*
X010824Y005997D01*
X010929Y006102D01*
X010929Y006207D01*
X010824Y006312D01*
X010614Y006312D01*
X010509Y006207D01*
X010509Y006102D01*
X010614Y006312D02*
X010509Y006418D01*
X010509Y006523D01*
X010614Y006628D01*
X010824Y006628D01*
X010929Y006523D01*
X010929Y006418D01*
X010824Y006312D01*
X011154Y006628D02*
X011574Y006628D01*
X011364Y006628D02*
X011364Y005997D01*
X017596Y006523D02*
X018016Y006102D01*
X018016Y005997D01*
X018450Y005997D02*
X018450Y006628D01*
X018240Y006628D02*
X018661Y006628D01*
X018016Y006628D02*
X017596Y006628D01*
X017596Y006523D01*
X024485Y006628D02*
X024696Y006523D01*
X024906Y006312D01*
X024590Y006312D01*
X024485Y006207D01*
X024485Y006102D01*
X024590Y005997D01*
X024801Y005997D01*
X024906Y006102D01*
X024906Y006312D01*
X025130Y006628D02*
X025550Y006628D01*
X025340Y006628D02*
X025340Y005997D01*
X031966Y006102D02*
X032071Y005997D01*
X032281Y005997D01*
X032386Y006102D01*
X031966Y006102D02*
X031966Y006312D01*
X032071Y006418D01*
X032176Y006418D01*
X032386Y006312D01*
X032386Y006628D01*
X031966Y006628D01*
X032610Y006628D02*
X033031Y006628D01*
X032820Y006628D02*
X032820Y005997D01*
X033440Y013789D02*
X033861Y013789D01*
X033651Y013789D02*
X033651Y014420D01*
X033861Y014210D01*
X034085Y014420D02*
X034505Y014420D01*
X034295Y014420D02*
X034295Y013789D01*
X027419Y014420D02*
X026998Y014420D01*
X027208Y014420D02*
X027208Y013789D01*
X026774Y013789D02*
X026354Y014210D01*
X026354Y014315D01*
X026459Y014420D01*
X026669Y014420D01*
X026774Y014315D01*
X026774Y013789D02*
X026354Y013789D01*
X020332Y014420D02*
X019912Y014420D01*
X020122Y014420D02*
X020122Y013789D01*
X019688Y013894D02*
X019582Y013789D01*
X019372Y013789D01*
X019267Y013894D01*
X019267Y013999D01*
X019372Y014105D01*
X019477Y014105D01*
X019372Y014105D02*
X019267Y014210D01*
X019267Y014315D01*
X019372Y014420D01*
X019582Y014420D01*
X019688Y014315D01*
X013245Y014420D02*
X012825Y014420D01*
X013035Y014420D02*
X013035Y013789D01*
X012286Y013789D02*
X012286Y014420D01*
X012601Y014105D01*
X012181Y014105D01*
D11*
X013178Y014169D02*
X013485Y014169D01*
X013485Y013939D01*
X013332Y014015D01*
X013255Y014015D01*
X013178Y013939D01*
X013178Y013785D01*
X013255Y013709D01*
X013408Y013709D01*
X013485Y013785D01*
X013639Y013709D02*
X013792Y013862D01*
X013715Y013862D02*
X013945Y013862D01*
X013945Y013709D02*
X013945Y014169D01*
X013715Y014169D01*
X013639Y014092D01*
X013639Y013939D01*
X013715Y013862D01*
X016298Y015123D02*
X016759Y015123D01*
X016759Y015353D01*
X016682Y015430D01*
X016529Y015430D01*
X016452Y015353D01*
X016452Y015123D01*
X016452Y015276D02*
X016298Y015430D01*
X016529Y015583D02*
X016529Y015890D01*
X016375Y016043D02*
X016298Y016043D01*
X016375Y016043D02*
X016682Y016350D01*
X016759Y016350D01*
X016759Y016043D01*
X016759Y015813D02*
X016298Y015813D01*
X016529Y015583D02*
X016759Y015813D01*
X015355Y015883D02*
X015355Y016113D01*
X015279Y016189D01*
X015125Y016189D01*
X015048Y016113D01*
X015048Y015883D01*
X015162Y015848D02*
X014932Y015848D01*
X014855Y015771D01*
X014855Y015618D01*
X014932Y015541D01*
X015162Y015541D01*
X015162Y015388D02*
X015162Y015848D01*
X015355Y015883D02*
X014895Y015883D01*
X015048Y016036D02*
X014895Y016189D01*
X014789Y016250D02*
X014559Y016250D01*
X014482Y016327D01*
X014482Y016480D01*
X014559Y016557D01*
X014789Y016557D01*
X014789Y016096D01*
X014636Y016250D02*
X014482Y016096D01*
X014329Y016173D02*
X014252Y016096D01*
X014099Y016096D01*
X014022Y016173D01*
X014022Y016250D01*
X014099Y016327D01*
X014329Y016327D01*
X014329Y016173D01*
X014329Y016327D02*
X014175Y016480D01*
X014022Y016557D01*
X013868Y016327D02*
X013638Y016327D01*
X013562Y016250D01*
X013562Y016173D01*
X013638Y016096D01*
X013792Y016096D01*
X013868Y016173D01*
X013868Y016327D01*
X013715Y016480D01*
X013562Y016557D01*
X014471Y015848D02*
X014702Y015618D01*
X014395Y015618D01*
X014471Y015388D02*
X014471Y015848D01*
X014855Y015388D02*
X015009Y015541D01*
X014972Y016343D02*
X014895Y016420D01*
X014895Y016573D01*
X014972Y016650D01*
X015125Y016650D01*
X015202Y016573D01*
X015202Y016496D01*
X015125Y016343D01*
X015355Y016343D01*
X015355Y016650D01*
X015202Y016803D02*
X015355Y016957D01*
X014895Y016957D01*
X014895Y017110D02*
X014895Y016803D01*
X010381Y016035D02*
X010381Y015728D01*
X010151Y015728D01*
X010227Y015882D01*
X010227Y015959D01*
X010151Y016035D01*
X009997Y016035D01*
X009921Y015959D01*
X009921Y015805D01*
X009997Y015728D01*
X009997Y015575D02*
X009921Y015498D01*
X009921Y015345D01*
X009997Y015268D01*
X009921Y015115D02*
X010074Y014961D01*
X010074Y015038D02*
X010074Y014808D01*
X009921Y014808D02*
X010381Y014808D01*
X010381Y015038D01*
X010304Y015115D01*
X010151Y015115D01*
X010074Y015038D01*
X010304Y015268D02*
X010381Y015345D01*
X010381Y015498D01*
X010304Y015575D01*
X010227Y015575D01*
X010151Y015498D01*
X010074Y015575D01*
X009997Y015575D01*
X010151Y015498D02*
X010151Y015422D01*
X009371Y015522D02*
X009371Y015292D01*
X008911Y015292D01*
X009064Y015292D02*
X009064Y015522D01*
X009141Y015599D01*
X009294Y015599D01*
X009371Y015522D01*
X009064Y015445D02*
X008911Y015599D01*
X009141Y015752D02*
X009141Y016059D01*
X008987Y016213D02*
X009294Y016213D01*
X009371Y016289D01*
X009371Y016443D01*
X009294Y016520D01*
X008987Y016213D01*
X008911Y016289D01*
X008911Y016443D01*
X008987Y016520D01*
X009294Y016520D01*
X009371Y015983D02*
X008911Y015983D01*
X009141Y015752D02*
X009371Y015983D01*
X008911Y014551D02*
X008911Y014244D01*
X008911Y014398D02*
X009371Y014398D01*
X009218Y014244D01*
X009141Y014091D02*
X009141Y013784D01*
X009371Y014014D01*
X008911Y014014D01*
X008941Y013647D02*
X008634Y013340D01*
X008557Y013340D01*
X008634Y013187D02*
X008557Y013110D01*
X008557Y012956D01*
X008634Y012880D01*
X008787Y012880D02*
X008864Y013033D01*
X008864Y013110D01*
X008787Y013187D01*
X008634Y013187D01*
X008911Y013323D02*
X009371Y013323D01*
X009371Y013554D01*
X009294Y013630D01*
X009141Y013630D01*
X009064Y013554D01*
X009064Y013323D01*
X009018Y013340D02*
X009018Y013647D01*
X008941Y013647D01*
X008911Y013630D02*
X009064Y013477D01*
X009018Y013187D02*
X009018Y012880D01*
X008787Y012880D01*
X008787Y012726D02*
X008711Y012649D01*
X008711Y012419D01*
X008711Y012573D02*
X008557Y012726D01*
X008787Y012726D02*
X008941Y012726D01*
X009018Y012649D01*
X009018Y012419D01*
X008557Y012419D01*
X012692Y007460D02*
X012615Y007384D01*
X012615Y007307D01*
X012692Y007230D01*
X012846Y007230D01*
X012922Y007307D01*
X012922Y007384D01*
X012846Y007460D01*
X012692Y007460D01*
X012692Y007230D02*
X012615Y007153D01*
X012615Y007077D01*
X012692Y007000D01*
X012846Y007000D01*
X012922Y007077D01*
X012922Y007153D01*
X012846Y007230D01*
X013076Y007000D02*
X013383Y007000D01*
X013536Y007000D02*
X013690Y007153D01*
X013613Y007153D02*
X013843Y007153D01*
X013843Y007000D02*
X013843Y007460D01*
X013613Y007460D01*
X013536Y007384D01*
X013536Y007230D01*
X013613Y007153D01*
X013383Y007307D02*
X013229Y007460D01*
X013229Y007000D01*
X014171Y006281D02*
X014324Y006204D01*
X014477Y006051D01*
X014247Y006051D01*
X014171Y005974D01*
X014171Y005898D01*
X014247Y005821D01*
X014401Y005821D01*
X014477Y005898D01*
X014477Y006051D01*
X014631Y005821D02*
X014938Y005821D01*
X015091Y005821D02*
X015245Y005974D01*
X015168Y005974D02*
X015398Y005974D01*
X015398Y005821D02*
X015398Y006281D01*
X015168Y006281D01*
X015091Y006204D01*
X015091Y006051D01*
X015168Y005974D01*
X014938Y006128D02*
X014784Y006281D01*
X014784Y005821D01*
X012130Y005791D02*
X012130Y005331D01*
X012130Y005484D02*
X011900Y005484D01*
X011823Y005561D01*
X011823Y005714D01*
X011900Y005791D01*
X012130Y005791D01*
X011669Y005714D02*
X011593Y005791D01*
X011439Y005791D01*
X011362Y005714D01*
X011362Y005638D01*
X011439Y005561D01*
X011362Y005484D01*
X011362Y005407D01*
X011439Y005331D01*
X011593Y005331D01*
X011669Y005407D01*
X011823Y005331D02*
X011976Y005484D01*
X011516Y005561D02*
X011439Y005561D01*
X011209Y005638D02*
X011056Y005791D01*
X011056Y005331D01*
X011209Y005331D02*
X010902Y005331D01*
X013741Y004202D02*
X013972Y003972D01*
X013665Y003972D01*
X013741Y003742D02*
X013741Y004202D01*
X014125Y004202D02*
X014278Y004126D01*
X014432Y003972D01*
X014202Y003972D01*
X014125Y003895D01*
X014125Y003819D01*
X014202Y003742D01*
X014355Y003742D01*
X014432Y003819D01*
X014432Y003972D01*
X014585Y003972D02*
X014662Y003895D01*
X014892Y003895D01*
X014892Y003742D02*
X014892Y004202D01*
X014662Y004202D01*
X014585Y004126D01*
X014585Y003972D01*
X014739Y003895D02*
X014585Y003742D01*
X011197Y003179D02*
X011197Y002718D01*
X011197Y002872D02*
X010967Y002872D01*
X010890Y002949D01*
X010890Y003102D01*
X010967Y003179D01*
X011197Y003179D01*
X010736Y003102D02*
X010660Y003179D01*
X010506Y003179D01*
X010429Y003102D01*
X010429Y003025D01*
X010506Y002949D01*
X010429Y002872D01*
X010429Y002795D01*
X010506Y002718D01*
X010660Y002718D01*
X010736Y002795D01*
X010890Y002718D02*
X011043Y002872D01*
X010583Y002949D02*
X010506Y002949D01*
X010276Y002795D02*
X010276Y003102D01*
X010199Y003179D01*
X010046Y003179D01*
X009969Y003102D01*
X010276Y002795D01*
X010199Y002718D01*
X010046Y002718D01*
X009969Y002795D01*
X009969Y003102D01*
X017911Y004638D02*
X017987Y004561D01*
X018141Y004561D01*
X018218Y004638D01*
X018218Y004714D01*
X018141Y004791D01*
X017987Y004791D01*
X017911Y004714D01*
X017911Y004638D01*
X017987Y004791D02*
X017911Y004868D01*
X017911Y004945D01*
X017987Y005021D01*
X018141Y005021D01*
X018218Y004945D01*
X018218Y004868D01*
X018141Y004791D01*
X018371Y004868D02*
X018371Y004945D01*
X018448Y005021D01*
X018601Y005021D01*
X018678Y004945D01*
X018831Y004945D02*
X018831Y004791D01*
X018908Y004714D01*
X019138Y004714D01*
X018985Y004714D02*
X018831Y004561D01*
X018678Y004561D02*
X018371Y004868D01*
X018371Y004561D02*
X018678Y004561D01*
X019138Y004561D02*
X019138Y005021D01*
X018908Y005021D01*
X018831Y004945D01*
X019755Y004242D02*
X019755Y003781D01*
X019602Y003781D02*
X019909Y003781D01*
X020062Y003858D02*
X020062Y003935D01*
X020139Y004012D01*
X020369Y004012D01*
X020369Y003858D01*
X020292Y003781D01*
X020139Y003781D01*
X020062Y003858D01*
X019909Y004088D02*
X019755Y004242D01*
X020062Y004242D02*
X020215Y004165D01*
X020369Y004012D01*
X020522Y004012D02*
X020599Y003935D01*
X020829Y003935D01*
X020676Y003935D02*
X020522Y003781D01*
X020522Y004012D02*
X020522Y004165D01*
X020599Y004242D01*
X020829Y004242D01*
X020829Y003781D01*
X021667Y003902D02*
X022127Y003902D01*
X022127Y004132D01*
X022050Y004209D01*
X021897Y004209D01*
X021820Y004132D01*
X021820Y003902D01*
X021820Y004055D02*
X021667Y004209D01*
X021743Y004362D02*
X021667Y004439D01*
X021667Y004593D01*
X021743Y004669D01*
X022050Y004669D01*
X022127Y004593D01*
X022127Y004439D01*
X022050Y004362D01*
X021974Y004362D01*
X021897Y004439D01*
X021897Y004669D01*
X023661Y005713D02*
X024121Y005713D01*
X024121Y005943D01*
X024044Y006020D01*
X023891Y006020D01*
X023814Y005943D01*
X023814Y005713D01*
X023814Y005867D02*
X023661Y006020D01*
X023627Y006100D02*
X023550Y006177D01*
X023397Y006177D01*
X023320Y006100D01*
X023320Y005870D01*
X023167Y005870D02*
X023627Y005870D01*
X023627Y006100D01*
X023737Y006174D02*
X023661Y006250D01*
X023661Y006404D01*
X023737Y006481D01*
X023814Y006481D01*
X023891Y006404D01*
X023891Y006327D01*
X023891Y006404D02*
X023968Y006481D01*
X024044Y006481D01*
X024121Y006404D01*
X024121Y006250D01*
X024044Y006174D01*
X023627Y006407D02*
X023550Y006330D01*
X023627Y006407D02*
X023627Y006561D01*
X023550Y006637D01*
X023474Y006637D01*
X023167Y006330D01*
X023167Y006637D01*
X023167Y006791D02*
X023167Y007098D01*
X023167Y006944D02*
X023627Y006944D01*
X023474Y006791D01*
X023661Y006864D02*
X023661Y006711D01*
X023737Y006634D01*
X023891Y006787D02*
X023891Y006864D01*
X023814Y006941D01*
X023737Y006941D01*
X023661Y006864D01*
X023891Y006864D02*
X023968Y006941D01*
X024044Y006941D01*
X024121Y006864D01*
X024121Y006711D01*
X024044Y006634D01*
X023320Y006023D02*
X023167Y006177D01*
X020516Y006411D02*
X020516Y006872D01*
X020286Y006872D01*
X020209Y006795D01*
X020209Y006642D01*
X020286Y006565D01*
X020516Y006565D01*
X020363Y006565D02*
X020209Y006411D01*
X020056Y006411D02*
X019749Y006718D01*
X019749Y006795D01*
X019826Y006872D01*
X019979Y006872D01*
X020056Y006795D01*
X020056Y006411D02*
X019749Y006411D01*
X019596Y006411D02*
X019596Y006488D01*
X019289Y006795D01*
X019289Y006872D01*
X019596Y006872D01*
X018316Y006915D02*
X018316Y006761D01*
X018239Y006685D01*
X018239Y006531D02*
X018086Y006531D01*
X018009Y006455D01*
X018009Y006224D01*
X017856Y006224D02*
X018316Y006224D01*
X018316Y006455D01*
X018239Y006531D01*
X018009Y006378D02*
X017856Y006531D01*
X017856Y006685D02*
X018162Y006992D01*
X018239Y006992D01*
X018316Y006915D01*
X018239Y007145D02*
X018316Y007222D01*
X018316Y007375D01*
X018239Y007452D01*
X018162Y007452D01*
X018086Y007375D01*
X018009Y007452D01*
X017932Y007452D01*
X017856Y007375D01*
X017856Y007222D01*
X017932Y007145D01*
X017856Y006992D02*
X017856Y006685D01*
X018086Y007299D02*
X018086Y007375D01*
X019403Y007935D02*
X019710Y007628D01*
X019710Y007551D01*
X019863Y007551D02*
X020170Y007551D01*
X020017Y007551D02*
X020017Y008011D01*
X020170Y007858D01*
X020324Y007781D02*
X020400Y007705D01*
X020631Y007705D01*
X020631Y007551D02*
X020631Y008011D01*
X020400Y008011D01*
X020324Y007935D01*
X020324Y007781D01*
X020477Y007705D02*
X020324Y007551D01*
X019710Y008011D02*
X019403Y008011D01*
X019403Y007935D01*
X025074Y004785D02*
X025304Y004555D01*
X024997Y004555D01*
X025074Y004325D02*
X025074Y004785D01*
X025611Y004785D02*
X025765Y004632D01*
X025918Y004708D02*
X025995Y004785D01*
X026225Y004785D01*
X026225Y004325D01*
X026225Y004478D02*
X025995Y004478D01*
X025918Y004555D01*
X025918Y004708D01*
X026072Y004478D02*
X025918Y004325D01*
X025765Y004325D02*
X025458Y004325D01*
X025611Y004325D02*
X025611Y004785D01*
X027558Y004850D02*
X027635Y004773D01*
X027558Y004850D02*
X027558Y005003D01*
X027635Y005080D01*
X027789Y005080D01*
X027865Y005003D01*
X027865Y004927D01*
X027789Y004773D01*
X028019Y004773D01*
X028019Y005080D01*
X028019Y004620D02*
X027942Y004466D01*
X027789Y004313D01*
X027789Y004543D01*
X027712Y004620D01*
X027635Y004620D01*
X027558Y004543D01*
X027558Y004389D01*
X027635Y004313D01*
X027789Y004313D01*
X027789Y004159D02*
X027712Y004082D01*
X027712Y003852D01*
X027558Y003852D02*
X028019Y003852D01*
X028019Y004082D01*
X027942Y004159D01*
X027789Y004159D01*
X027712Y004006D02*
X027558Y004159D01*
X028911Y004051D02*
X028911Y003744D01*
X028911Y003591D02*
X029064Y003438D01*
X029064Y003514D02*
X029064Y003284D01*
X028911Y003284D02*
X029371Y003284D01*
X029371Y003514D01*
X029294Y003591D01*
X029141Y003591D01*
X029064Y003514D01*
X029218Y003744D02*
X029371Y003898D01*
X028911Y003898D01*
X028987Y004205D02*
X029294Y004512D01*
X028987Y004512D01*
X028911Y004435D01*
X028911Y004282D01*
X028987Y004205D01*
X029294Y004205D01*
X029371Y004282D01*
X029371Y004435D01*
X029294Y004512D01*
X032202Y004520D02*
X032279Y004443D01*
X032432Y004443D01*
X032509Y004520D01*
X032509Y004673D02*
X032355Y004750D01*
X032279Y004750D01*
X032202Y004673D01*
X032202Y004520D01*
X032509Y004673D02*
X032509Y004903D01*
X032202Y004903D01*
X032662Y004673D02*
X032969Y004673D01*
X032739Y004903D01*
X032739Y004443D01*
X033123Y004443D02*
X033276Y004596D01*
X033200Y004596D02*
X033430Y004596D01*
X033430Y004443D02*
X033430Y004903D01*
X033200Y004903D01*
X033123Y004826D01*
X033123Y004673D01*
X033200Y004596D01*
X033869Y004126D02*
X033946Y004202D01*
X034100Y004202D01*
X034176Y004126D01*
X034176Y003819D01*
X033869Y004126D01*
X033869Y003819D01*
X033946Y003742D01*
X034100Y003742D01*
X034176Y003819D01*
X034330Y003819D02*
X034330Y003895D01*
X034406Y003972D01*
X034637Y003972D01*
X034637Y003819D01*
X034560Y003742D01*
X034406Y003742D01*
X034330Y003819D01*
X034483Y004126D02*
X034637Y003972D01*
X034790Y003972D02*
X034867Y003895D01*
X035097Y003895D01*
X035097Y003742D02*
X035097Y004202D01*
X034867Y004202D01*
X034790Y004126D01*
X034790Y003972D01*
X034944Y003895D02*
X034790Y003742D01*
X034483Y004126D02*
X034330Y004202D01*
X031719Y006213D02*
X031259Y006213D01*
X031413Y006213D02*
X031413Y006443D01*
X031489Y006520D01*
X031643Y006520D01*
X031719Y006443D01*
X031719Y006213D01*
X031413Y006366D02*
X031259Y006520D01*
X031259Y006673D02*
X031566Y006980D01*
X031643Y006980D01*
X031719Y006904D01*
X031719Y006750D01*
X031643Y006673D01*
X031259Y006673D02*
X031259Y006980D01*
X033702Y007943D02*
X033702Y008250D01*
X033779Y008326D01*
X033932Y008326D01*
X034009Y008250D01*
X034009Y008173D01*
X033932Y008096D01*
X033702Y008096D01*
X033702Y007943D02*
X033779Y007866D01*
X033932Y007866D01*
X034009Y007943D01*
X034162Y007866D02*
X034469Y007866D01*
X034316Y007866D02*
X034316Y008326D01*
X034469Y008173D01*
X034623Y008250D02*
X034623Y008096D01*
X034700Y008020D01*
X034930Y008020D01*
X034776Y008020D02*
X034623Y007866D01*
X034930Y007866D02*
X034930Y008326D01*
X034700Y008326D01*
X034623Y008250D01*
X027394Y008090D02*
X027394Y007630D01*
X027394Y007783D02*
X027164Y007783D01*
X027087Y007860D01*
X027087Y008013D01*
X027164Y008090D01*
X027394Y008090D01*
X026934Y008013D02*
X026857Y008090D01*
X026704Y008090D01*
X026627Y008013D01*
X026627Y007937D01*
X026934Y007630D01*
X026627Y007630D01*
X026474Y007707D02*
X026167Y008013D01*
X026167Y007707D01*
X026243Y007630D01*
X026397Y007630D01*
X026474Y007707D01*
X026474Y008013D01*
X026397Y008090D01*
X026243Y008090D01*
X026167Y008013D01*
X027087Y007630D02*
X027241Y007783D01*
X020504Y012665D02*
X020504Y013126D01*
X020274Y013126D01*
X020197Y013049D01*
X020197Y012895D01*
X020274Y012819D01*
X020504Y012819D01*
X020351Y012819D02*
X020197Y012665D01*
X020044Y012742D02*
X019967Y012665D01*
X019813Y012665D01*
X019737Y012742D01*
X019737Y012819D01*
X019813Y012895D01*
X019890Y012895D01*
X019813Y012895D02*
X019737Y012972D01*
X019737Y013049D01*
X019813Y013126D01*
X019967Y013126D01*
X020044Y013049D01*
X023464Y015005D02*
X023924Y015005D01*
X023924Y015235D01*
X023847Y015311D01*
X023694Y015311D01*
X023617Y015235D01*
X023617Y015005D01*
X023617Y015158D02*
X023464Y015311D01*
X023541Y015465D02*
X023464Y015542D01*
X023464Y015695D01*
X023541Y015772D01*
X023617Y015772D01*
X023694Y015695D01*
X023694Y015618D01*
X023694Y015695D02*
X023771Y015772D01*
X023847Y015772D01*
X023924Y015695D01*
X023924Y015542D01*
X023847Y015465D01*
X023924Y015925D02*
X023924Y016232D01*
X023847Y016232D01*
X023541Y015925D01*
X023464Y015925D01*
X022245Y015843D02*
X022245Y016073D01*
X022168Y016150D01*
X022015Y016150D01*
X021938Y016073D01*
X021938Y015843D01*
X021785Y015843D02*
X022245Y015843D01*
X021938Y015997D02*
X021785Y016150D01*
X022015Y016304D02*
X022015Y016610D01*
X022168Y016764D02*
X022245Y016841D01*
X022245Y016994D01*
X022168Y017071D01*
X022092Y017071D01*
X022015Y016994D01*
X021938Y017071D01*
X021861Y017071D01*
X021785Y016994D01*
X021785Y016841D01*
X021861Y016764D01*
X022015Y016917D02*
X022015Y016994D01*
X021230Y016950D02*
X021000Y016950D01*
X020923Y016874D01*
X020923Y016720D01*
X021000Y016644D01*
X021230Y016644D01*
X021077Y016644D02*
X020923Y016490D01*
X020770Y016567D02*
X020693Y016490D01*
X020540Y016490D01*
X020463Y016567D01*
X020463Y016644D01*
X020540Y016720D01*
X020770Y016720D01*
X020770Y016567D01*
X020761Y016608D02*
X020914Y016762D01*
X020837Y016762D02*
X021068Y016762D01*
X021068Y016608D02*
X021068Y017069D01*
X020837Y017069D01*
X020761Y016992D01*
X020761Y016838D01*
X020837Y016762D01*
X020770Y016720D02*
X020616Y016874D01*
X020463Y016950D01*
X020454Y016992D02*
X020607Y016838D01*
X020377Y016838D01*
X020300Y016762D01*
X020300Y016685D01*
X020377Y016608D01*
X020530Y016608D01*
X020607Y016685D01*
X020607Y016838D01*
X020454Y016992D02*
X020300Y017069D01*
X020233Y016950D02*
X020309Y016874D01*
X020233Y016950D02*
X020079Y016950D01*
X020002Y016874D01*
X020002Y016797D01*
X020309Y016490D01*
X020002Y016490D01*
X021230Y016490D02*
X021230Y016950D01*
X021785Y016534D02*
X022245Y016534D01*
X022015Y016304D01*
X026892Y016393D02*
X027199Y016086D01*
X027199Y016010D01*
X027353Y016086D02*
X027353Y016163D01*
X027429Y016240D01*
X027660Y016240D01*
X027660Y016086D01*
X027583Y016010D01*
X027429Y016010D01*
X027353Y016086D01*
X027464Y016293D02*
X027617Y016293D01*
X027694Y016370D01*
X027694Y016447D01*
X027617Y016523D01*
X027464Y016523D01*
X027387Y016447D01*
X027387Y016370D01*
X027464Y016293D01*
X027506Y016393D02*
X027660Y016240D01*
X027813Y016240D02*
X027890Y016163D01*
X028120Y016163D01*
X028154Y016293D02*
X028154Y016754D01*
X027924Y016754D01*
X027847Y016677D01*
X027847Y016523D01*
X027924Y016447D01*
X028154Y016447D01*
X028120Y016470D02*
X027890Y016470D01*
X027813Y016393D01*
X027813Y016240D01*
X027847Y016293D02*
X028001Y016447D01*
X028120Y016470D02*
X028120Y016010D01*
X027967Y016163D02*
X027813Y016010D01*
X027506Y016393D02*
X027353Y016470D01*
X027464Y016523D02*
X027387Y016600D01*
X027387Y016677D01*
X027464Y016754D01*
X027617Y016754D01*
X027694Y016677D01*
X027694Y016600D01*
X027617Y016523D01*
X027199Y016470D02*
X026892Y016470D01*
X026892Y016393D01*
X028753Y016404D02*
X028753Y016250D01*
X028830Y016173D01*
X028830Y016020D02*
X028753Y015943D01*
X028753Y015790D01*
X028830Y015713D01*
X028983Y015713D02*
X029060Y015866D01*
X029060Y015943D01*
X028983Y016020D01*
X028830Y016020D01*
X028983Y016327D02*
X028983Y016404D01*
X028907Y016480D01*
X028830Y016480D01*
X028753Y016404D01*
X028983Y016404D02*
X029060Y016480D01*
X029137Y016480D01*
X029214Y016404D01*
X029214Y016250D01*
X029137Y016173D01*
X029214Y016020D02*
X029214Y015713D01*
X028983Y015713D01*
X028983Y015560D02*
X028907Y015483D01*
X028907Y015253D01*
X028907Y015406D02*
X028753Y015560D01*
X028983Y015560D02*
X029137Y015560D01*
X029214Y015483D01*
X029214Y015253D01*
X028753Y015253D01*
X030253Y014816D02*
X030253Y014663D01*
X030330Y014586D01*
X030483Y014586D01*
X030483Y014816D01*
X030407Y014893D01*
X030330Y014893D01*
X030253Y014816D01*
X030483Y014586D02*
X030637Y014740D01*
X030714Y014893D01*
X030853Y015201D02*
X030393Y015201D01*
X030546Y015201D02*
X030546Y015432D01*
X030623Y015508D01*
X030777Y015508D01*
X030853Y015432D01*
X030853Y015201D01*
X030546Y015355D02*
X030393Y015508D01*
X030623Y015662D02*
X030623Y015969D01*
X030700Y016122D02*
X030623Y016199D01*
X030623Y016429D01*
X030470Y016429D02*
X030777Y016429D01*
X030853Y016352D01*
X030853Y016199D01*
X030777Y016122D01*
X030700Y016122D01*
X030470Y016122D02*
X030393Y016199D01*
X030393Y016352D01*
X030470Y016429D01*
X030393Y015892D02*
X030853Y015892D01*
X030623Y015662D01*
X030714Y014433D02*
X030714Y014126D01*
X030483Y014126D01*
X030560Y014279D01*
X030560Y014356D01*
X030483Y014433D01*
X030330Y014433D01*
X030253Y014356D01*
X030253Y014202D01*
X030330Y014126D01*
X030253Y013972D02*
X030407Y013819D01*
X030407Y013895D02*
X030407Y013665D01*
X030253Y013665D02*
X030714Y013665D01*
X030714Y013895D01*
X030637Y013972D01*
X030483Y013972D01*
X030407Y013895D01*
X027268Y013291D02*
X027268Y012831D01*
X027268Y012984D02*
X027038Y012984D01*
X026961Y013061D01*
X026961Y013214D01*
X027038Y013291D01*
X027268Y013291D01*
X026807Y013291D02*
X026501Y013291D01*
X026501Y013214D01*
X026807Y012907D01*
X026807Y012831D01*
X026961Y012831D02*
X027114Y012984D01*
X033642Y012823D02*
X033949Y012823D01*
X033796Y012823D02*
X033796Y013283D01*
X033949Y013130D01*
X034103Y013206D02*
X034103Y013053D01*
X034179Y012976D01*
X034410Y012976D01*
X034410Y012823D02*
X034410Y013283D01*
X034179Y013283D01*
X034103Y013206D01*
X034256Y012976D02*
X034103Y012823D01*
X034067Y016088D02*
X033990Y016165D01*
X033990Y016242D01*
X034067Y016319D01*
X034297Y016319D01*
X034297Y016165D01*
X034221Y016088D01*
X034067Y016088D01*
X034090Y016254D02*
X034243Y016254D01*
X034320Y016331D01*
X034297Y016319D02*
X034144Y016472D01*
X033990Y016549D01*
X034013Y016561D02*
X034090Y016484D01*
X034013Y016407D01*
X034013Y016331D01*
X034090Y016254D01*
X034090Y016484D02*
X034167Y016484D01*
X034013Y016561D02*
X034013Y016638D01*
X034090Y016714D01*
X034243Y016714D01*
X034320Y016638D01*
X034451Y016472D02*
X034451Y016319D01*
X034528Y016242D01*
X034758Y016242D01*
X034780Y016254D02*
X034473Y016254D01*
X034604Y016242D02*
X034451Y016088D01*
X034627Y016254D02*
X034627Y016714D01*
X034780Y016561D01*
X034758Y016549D02*
X034528Y016549D01*
X034451Y016472D01*
X034758Y016549D02*
X034758Y016088D01*
X034934Y016254D02*
X035087Y016407D01*
X035011Y016407D02*
X035241Y016407D01*
X035241Y016254D02*
X035241Y016714D01*
X035011Y016714D01*
X034934Y016638D01*
X034934Y016484D01*
X035011Y016407D01*
X033837Y016472D02*
X033760Y016549D01*
X033607Y016549D01*
X033530Y016472D01*
X033530Y016395D01*
X033607Y016319D01*
X033530Y016242D01*
X033530Y016165D01*
X033607Y016088D01*
X033760Y016088D01*
X033837Y016165D01*
X033684Y016319D02*
X033607Y016319D01*
D12*
X010020Y001072D02*
X009945Y001147D01*
X009945Y001222D01*
X010020Y001297D01*
X010170Y001297D01*
X010245Y001372D01*
X010245Y001447D01*
X010170Y001522D01*
X010020Y001522D01*
X009945Y001447D01*
X009945Y001372D01*
X010020Y001297D01*
X010170Y001297D02*
X010245Y001222D01*
X010245Y001147D01*
X010170Y001072D01*
X010020Y001072D01*
X010405Y001072D02*
X010631Y001297D01*
X010706Y001222D02*
X010405Y001522D01*
X010706Y001522D02*
X010706Y001072D01*
X010866Y001072D02*
X011091Y001297D01*
X011166Y001222D02*
X010866Y001522D01*
X011166Y001522D02*
X011166Y001072D01*
X017032Y001447D02*
X017332Y001147D01*
X017332Y001072D01*
X017492Y001072D02*
X017717Y001297D01*
X017792Y001222D02*
X017492Y001522D01*
X017332Y001522D02*
X017032Y001522D01*
X017032Y001447D01*
X017792Y001522D02*
X017792Y001072D01*
X017952Y001072D02*
X018178Y001297D01*
X018253Y001222D02*
X017952Y001522D01*
X018253Y001522D02*
X018253Y001072D01*
X023921Y001147D02*
X023921Y001222D01*
X023996Y001297D01*
X024222Y001297D01*
X024222Y001147D01*
X024147Y001072D01*
X023996Y001072D01*
X023921Y001147D01*
X024071Y001447D02*
X024222Y001297D01*
X024071Y001447D02*
X023921Y001522D01*
X024382Y001522D02*
X024682Y001222D01*
X024607Y001297D02*
X024382Y001072D01*
X024682Y001072D02*
X024682Y001522D01*
X024842Y001522D02*
X025142Y001222D01*
X025067Y001297D02*
X024842Y001072D01*
X025142Y001072D02*
X025142Y001522D01*
X031402Y001522D02*
X031702Y001522D01*
X031702Y001297D01*
X031552Y001372D01*
X031477Y001372D01*
X031402Y001297D01*
X031402Y001147D01*
X031477Y001072D01*
X031627Y001072D01*
X031702Y001147D01*
X031862Y001072D02*
X032087Y001297D01*
X032162Y001222D02*
X031862Y001522D01*
X032162Y001522D02*
X032162Y001072D01*
X032322Y001072D02*
X032548Y001297D01*
X032623Y001222D02*
X032322Y001522D01*
X032623Y001522D02*
X032623Y001072D01*
X033804Y018973D02*
X034105Y018973D01*
X033804Y019274D01*
X033804Y019349D01*
X033879Y019424D01*
X034029Y019424D01*
X034105Y019349D01*
X034265Y019424D02*
X034565Y019124D01*
X034490Y019199D02*
X034265Y018973D01*
X034565Y018973D02*
X034565Y019424D01*
X034725Y019424D02*
X035025Y019124D01*
X034950Y019199D02*
X034725Y018973D01*
X035025Y018973D02*
X035025Y019424D01*
X027939Y019424D02*
X027939Y018973D01*
X027939Y019124D02*
X027638Y019424D01*
X027478Y019424D02*
X027478Y018973D01*
X027478Y019124D02*
X027178Y019424D01*
X027018Y019274D02*
X026868Y019424D01*
X026868Y018973D01*
X027018Y018973D02*
X026718Y018973D01*
X027178Y018973D02*
X027403Y019199D01*
X027638Y018973D02*
X027864Y019199D01*
X020852Y019124D02*
X020552Y019424D01*
X020392Y019424D02*
X020392Y018973D01*
X020392Y019124D02*
X020091Y019424D01*
X019931Y019349D02*
X019856Y019424D01*
X019706Y019424D01*
X019631Y019349D01*
X019631Y019274D01*
X019706Y019199D01*
X019631Y019124D01*
X019631Y019048D01*
X019706Y018973D01*
X019856Y018973D01*
X019931Y019048D01*
X020091Y018973D02*
X020317Y019199D01*
X020552Y018973D02*
X020777Y019199D01*
X020852Y019424D02*
X020852Y018973D01*
X019781Y019199D02*
X019706Y019199D01*
X013765Y019124D02*
X013465Y019424D01*
X013305Y019424D02*
X013305Y018973D01*
X013305Y019124D02*
X013005Y019424D01*
X012845Y019199D02*
X012544Y019199D01*
X012619Y019424D02*
X012619Y018973D01*
X012845Y019199D02*
X012619Y019424D01*
X013005Y018973D02*
X013230Y019199D01*
X013465Y018973D02*
X013690Y019199D01*
X013765Y019424D02*
X013765Y018973D01*
M02*
