G75*
%MOIN*%
%OFA0B0*%
%FSLAX25Y25*%
%IPPOS*%
%LPD*%
%AMOC8*
5,1,8,0,0,1.08239X$1,22.5*
%
%ADD10R,0.07008X0.05984*%
%ADD11R,0.06299X0.10630*%
%ADD12R,0.12598X0.07087*%
%ADD13R,0.10630X0.06299*%
%ADD14R,0.07098X0.06299*%
%ADD15R,0.07087X0.12598*%
%ADD16R,0.06299X0.07098*%
%ADD17R,0.04724X0.04724*%
%ADD18R,0.07874X0.03150*%
D10*
X0125047Y0029523D03*
X0135047Y0029523D03*
X0145047Y0029523D03*
X0180441Y0035035D03*
X0190441Y0035035D03*
X0200441Y0035035D03*
X0244102Y0034641D03*
X0254102Y0034641D03*
X0264102Y0034641D03*
X0317409Y0034760D03*
X0327409Y0034760D03*
X0337409Y0034760D03*
X0337409Y0071334D03*
X0327409Y0071334D03*
X0317409Y0071334D03*
X0264102Y0071216D03*
X0254102Y0071216D03*
X0244102Y0071216D03*
X0200441Y0071610D03*
X0190441Y0071610D03*
X0180441Y0071610D03*
X0145047Y0066098D03*
X0135047Y0066098D03*
X0125047Y0066098D03*
X0122016Y0132240D03*
X0132016Y0132240D03*
X0142016Y0132240D03*
X0189063Y0132240D03*
X0199063Y0132240D03*
X0209063Y0132240D03*
X0255323Y0132240D03*
X0265323Y0132240D03*
X0275323Y0132240D03*
X0320402Y0132240D03*
X0330402Y0132240D03*
X0340402Y0132240D03*
X0340402Y0168815D03*
X0330402Y0168815D03*
X0320402Y0168815D03*
X0275323Y0168815D03*
X0265323Y0168815D03*
X0255323Y0168815D03*
X0209063Y0168815D03*
X0199063Y0168815D03*
X0189063Y0168815D03*
X0142016Y0168815D03*
X0132016Y0168815D03*
X0122016Y0168815D03*
D11*
X0106780Y0131748D03*
X0095756Y0131748D03*
X0161937Y0131354D03*
X0172961Y0131354D03*
X0228551Y0131748D03*
X0239575Y0131748D03*
X0291898Y0132141D03*
X0302921Y0132141D03*
X0295953Y0075449D03*
X0284929Y0075449D03*
X0226622Y0075449D03*
X0215598Y0075449D03*
X0144811Y0075764D03*
X0133787Y0075764D03*
D12*
X0162213Y0052811D03*
X0162213Y0030764D03*
X0226504Y0036433D03*
X0226504Y0058480D03*
X0294220Y0060449D03*
X0294220Y0038401D03*
X0239890Y0143126D03*
X0239890Y0165173D03*
X0304457Y0166748D03*
X0304457Y0144701D03*
X0172961Y0145488D03*
X0172961Y0167535D03*
X0104457Y0166354D03*
X0104457Y0144307D03*
D13*
X0087882Y0078401D03*
X0087882Y0067378D03*
D14*
X0158394Y0061937D03*
X0167449Y0061937D03*
X0167449Y0073134D03*
X0158394Y0073134D03*
X0212724Y0046756D03*
X0212724Y0035559D03*
X0278079Y0033197D03*
X0278079Y0044393D03*
X0278079Y0053275D03*
X0278079Y0064472D03*
X0225323Y0142252D03*
X0225323Y0153449D03*
X0225323Y0161937D03*
X0225323Y0173134D03*
X0158787Y0172740D03*
X0158787Y0161543D03*
X0158787Y0153055D03*
X0158787Y0141858D03*
X0091858Y0156425D03*
X0091858Y0167622D03*
X0290087Y0167130D03*
X0290087Y0155933D03*
D15*
X0112331Y0039976D03*
X0090283Y0039976D03*
D16*
X0084685Y0053362D03*
X0095882Y0053362D03*
X0100039Y0063598D03*
X0111236Y0063598D03*
D17*
X0008000Y0115370D03*
X0008000Y0123638D03*
D18*
X0032803Y0016748D03*
X0050126Y0016748D03*
X0050126Y0029346D03*
X0050126Y0038008D03*
X0050126Y0046669D03*
X0032803Y0046669D03*
X0032803Y0038008D03*
X0032803Y0029346D03*
X0032803Y0061630D03*
X0032803Y0070291D03*
X0032803Y0078952D03*
X0050126Y0078952D03*
X0050126Y0070291D03*
X0050126Y0061630D03*
X0050126Y0091551D03*
X0032803Y0091551D03*
X0032803Y0105724D03*
X0050126Y0105724D03*
X0050126Y0114386D03*
X0050126Y0123047D03*
X0032803Y0123047D03*
X0032803Y0114386D03*
X0032803Y0135645D03*
X0050126Y0135645D03*
X0044614Y0149819D03*
X0061937Y0149819D03*
X0061937Y0162417D03*
X0044614Y0162417D03*
X0044614Y0171078D03*
X0044614Y0179740D03*
X0061937Y0179740D03*
X0061937Y0171078D03*
X0370598Y0167141D03*
X0387921Y0167141D03*
X0387921Y0158480D03*
X0387921Y0149819D03*
X0370598Y0149819D03*
X0370598Y0158480D03*
X0370598Y0179740D03*
X0387921Y0179740D03*
X0387921Y0135645D03*
X0370598Y0135645D03*
X0370598Y0123047D03*
X0370598Y0114386D03*
X0387921Y0114386D03*
X0387921Y0123047D03*
X0387921Y0105724D03*
X0370598Y0105724D03*
X0370598Y0091551D03*
X0387921Y0091551D03*
X0387921Y0078952D03*
X0387921Y0070291D03*
X0387921Y0061630D03*
X0370598Y0061630D03*
X0370598Y0070291D03*
X0370598Y0078952D03*
X0370598Y0046669D03*
X0387921Y0046669D03*
X0387921Y0034071D03*
X0387921Y0025409D03*
X0387921Y0016748D03*
X0370598Y0016748D03*
X0370598Y0025409D03*
X0370598Y0034071D03*
M02*
