%
M48
M72
T01C0.0394
T02C0.0400
T03C0.0461
%
T01
X10820Y9244
X11820Y9244
X12820Y9244
X12780Y11173
X11780Y11173
X10780Y11173
X17867Y11173
X18867Y11173
X19867Y11173
X19906Y9244
X18906Y9244
X17906Y9244
X24796Y9244
X25796Y9244
X26796Y9244
X26954Y11173
X25954Y11173
X24954Y11173
X32040Y11173
X33040Y11173
X34040Y11173
X34277Y9244
X33277Y9244
X32277Y9244
T02
X2517Y13799
X1517Y13799
X1517Y14799
X2517Y14799
X2517Y15799
X1517Y15799
X1517Y16799
X2517Y16799
X2517Y17799
X1517Y17799
T03
X11702Y1626
X18788Y1626
X25875Y1626
X32962Y1626
X32962Y18161
X25875Y18161
X18788Y18161
X11702Y18161
M30
