G75*
G70*
%OFA0B0*%
%FSLAX24Y24*%
%IPPOS*%
%LPD*%
%AMOC8*
5,1,8,0,0,1.08239X$1,22.5*
%
%ADD10R,0.0701X0.0598*%
%ADD11C,0.0594*%
%ADD12R,0.0630X0.1063*%
%ADD13R,0.1260X0.0709*%
%ADD14R,0.1063X0.0630*%
%ADD15R,0.0710X0.0630*%
%ADD16R,0.0709X0.1260*%
%ADD17R,0.0630X0.0710*%
%ADD18OC8,0.0691*%
%ADD19OC8,0.0600*%
%ADD20R,0.0472X0.0472*%
%ADD21R,0.0787X0.0315*%
D10*
X013210Y002903D03*
X014210Y002903D03*
X015210Y002903D03*
X018749Y003454D03*
X019749Y003454D03*
X020749Y003454D03*
X025115Y003415D03*
X026115Y003415D03*
X027115Y003415D03*
X032446Y003427D03*
X033446Y003427D03*
X034446Y003427D03*
X034446Y007084D03*
X033446Y007084D03*
X032446Y007084D03*
X027115Y007072D03*
X026115Y007072D03*
X025115Y007072D03*
X020749Y007112D03*
X019749Y007112D03*
X018749Y007112D03*
X015210Y006561D03*
X014210Y006561D03*
X013210Y006561D03*
X012906Y013175D03*
X013906Y013175D03*
X014906Y013175D03*
X019611Y013175D03*
X020611Y013175D03*
X021611Y013175D03*
X026237Y013175D03*
X027237Y013175D03*
X028237Y013175D03*
X032745Y013175D03*
X033745Y013175D03*
X034745Y013175D03*
X034745Y016832D03*
X033745Y016832D03*
X032745Y016832D03*
X028237Y016832D03*
X027237Y016832D03*
X026237Y016832D03*
X021611Y016832D03*
X020611Y016832D03*
X019611Y016832D03*
X014906Y016832D03*
X013906Y016832D03*
X012906Y016832D03*
D11*
X012780Y011470D02*
X012780Y010876D01*
X011780Y010876D02*
X011780Y011470D01*
X010780Y011470D02*
X010780Y010876D01*
X010820Y009541D02*
X010820Y008947D01*
X011820Y008947D02*
X011820Y009541D01*
X012820Y009541D02*
X012820Y008947D01*
X017906Y008947D02*
X017906Y009541D01*
X018906Y009541D02*
X018906Y008947D01*
X019906Y008947D02*
X019906Y009541D01*
X019867Y010876D02*
X019867Y011470D01*
X018867Y011470D02*
X018867Y010876D01*
X017867Y010876D02*
X017867Y011470D01*
X024796Y009541D02*
X024796Y008947D01*
X025796Y008947D02*
X025796Y009541D01*
X026796Y009541D02*
X026796Y008947D01*
X026954Y010876D02*
X026954Y011470D01*
X025954Y011470D02*
X025954Y010876D01*
X024954Y010876D02*
X024954Y011470D01*
X032040Y011470D02*
X032040Y010876D01*
X033040Y010876D02*
X033040Y011470D01*
X034040Y011470D02*
X034040Y010876D01*
X034277Y009541D02*
X034277Y008947D01*
X033277Y008947D02*
X033277Y009541D01*
X032277Y009541D02*
X032277Y008947D01*
D12*
X030300Y007496D03*
X029198Y007496D03*
X023367Y007496D03*
X022265Y007496D03*
X015186Y007527D03*
X014084Y007527D03*
X011383Y013126D03*
X010280Y013126D03*
X016899Y013126D03*
X018001Y013126D03*
X023560Y013165D03*
X024662Y013165D03*
X029895Y013165D03*
X030997Y013165D03*
D13*
X031151Y014421D03*
X031151Y016626D03*
X024694Y016468D03*
X024694Y014263D03*
X018001Y014500D03*
X018001Y016704D03*
X011151Y016389D03*
X011151Y014185D03*
X023355Y005799D03*
X023355Y003594D03*
X016926Y003027D03*
X016926Y005232D03*
X030127Y005996D03*
X030127Y003791D03*
D14*
X009493Y006689D03*
X009493Y007791D03*
D15*
X016544Y007264D03*
X017450Y007264D03*
X017450Y006144D03*
X016544Y006144D03*
X021977Y004626D03*
X021977Y003507D03*
X028513Y003270D03*
X028513Y004390D03*
X028513Y005278D03*
X028513Y006398D03*
X023237Y014176D03*
X023237Y015296D03*
X023237Y016144D03*
X023237Y017264D03*
X029733Y016674D03*
X029733Y015554D03*
X016584Y015256D03*
X016584Y016105D03*
X016584Y017225D03*
X016584Y014137D03*
X009891Y015593D03*
X009891Y016713D03*
D16*
X009733Y003948D03*
X011938Y003948D03*
D17*
X010293Y005287D03*
X009173Y005287D03*
X010709Y006311D03*
X011828Y006311D03*
D18*
X011702Y001626D03*
X018788Y001626D03*
X025875Y001626D03*
X032962Y001626D03*
X032962Y018161D03*
X025875Y018161D03*
X018788Y018161D03*
X011702Y018161D03*
D19*
X002517Y017799D03*
X001517Y017799D03*
X001517Y016799D03*
X002517Y016799D03*
X002517Y015799D03*
X001517Y015799D03*
X001517Y014799D03*
X002517Y014799D03*
X002517Y013799D03*
X001517Y013799D03*
D20*
X008237Y013063D03*
X008237Y012236D03*
D21*
X003985Y001626D03*
X005717Y001626D03*
X005717Y002885D03*
X003985Y002885D03*
X003985Y003752D03*
X003985Y004618D03*
X005717Y004618D03*
X005717Y003752D03*
X005717Y006114D03*
X005717Y006980D03*
X005717Y007846D03*
X003985Y007846D03*
X003985Y006980D03*
X003985Y006114D03*
X003985Y009106D03*
X005717Y009106D03*
X005717Y010523D03*
X005717Y011389D03*
X003985Y011389D03*
X003985Y010523D03*
X003985Y012255D03*
X005717Y012255D03*
X005717Y013515D03*
X003985Y013515D03*
X005166Y014933D03*
X006899Y014933D03*
X006899Y016193D03*
X006899Y017059D03*
X006899Y017925D03*
X005166Y017925D03*
X005166Y017059D03*
X005166Y016193D03*
X037765Y015799D03*
X037765Y016665D03*
X039497Y016665D03*
X039497Y015799D03*
X039497Y014933D03*
X037765Y014933D03*
X037765Y013515D03*
X039497Y013515D03*
X039497Y012255D03*
X037765Y012255D03*
X037765Y011389D03*
X037765Y010523D03*
X039497Y010523D03*
X039497Y011389D03*
X039497Y009106D03*
X037765Y009106D03*
X037765Y007846D03*
X037765Y006980D03*
X037765Y006114D03*
X039497Y006114D03*
X039497Y006980D03*
X039497Y007846D03*
X039497Y004618D03*
X037765Y004618D03*
X037765Y003358D03*
X039497Y003358D03*
X039497Y002492D03*
X039497Y001626D03*
X037765Y001626D03*
X037765Y002492D03*
X037765Y017925D03*
X039497Y017925D03*
M02*
