%
M48
M72
T01C0.01969
T02C0.03937
T03C0.04000
T04C0.04606
%
T01
X40677Y14386
X42252Y21078
X32803Y28952
X32803Y38303
X50028Y38303
X60657Y29346
X90382Y42043
X124831Y44208
X143039Y36039
X150913Y36433
X163217Y34858
X135165Y31413
X146484Y52575
X162213Y52594
X162232Y52575
X146976Y64878
X167646Y74228
X201110Y77279
X215382Y72260
X213413Y58480
X199142Y57004
X226701Y49130
X195697Y41748
X212724Y32496
X226701Y27476
X265579Y47161
X264693Y56512
X244417Y67338
X268531Y71275
X294122Y56019
X318236Y66354
X343039Y60449
X337528Y52181
X305933Y38303
X280835Y33382
X337921Y25015
X370205Y25409
X370205Y34071
X387921Y34071
X387921Y25409
X379654Y43126
X379260Y51787
X388512Y70291
X388118Y79149
X379260Y88008
X379654Y97063
X387921Y114386
X387921Y123047
X379654Y131708
X370598Y123047
X370598Y114386
X379654Y141157
X388118Y158382
X388118Y167240
X379654Y175015
X380047Y184464
X369614Y167240
X370402Y158382
X346780Y150015
X332409Y165960
X341858Y168716
X306819Y145094
X313315Y135744
X303276Y133874
X289693Y134267
X278374Y138697
X258689Y143618
X239988Y145586
X225224Y153460
X209161Y168716
X199634Y172161
X191465Y175409
X169417Y177378
X149929Y174819
X142646Y168323
X133197Y172161
X126504Y161630
X135165Y143618
X145500Y143618
X158787Y153460
X171583Y145586
X192744Y147555
X209969Y137220
X239496Y131807
X266661Y162811
X277685Y168716
X290185Y170685
X225323Y180134
X215382Y178067
X104654Y144110
X91858Y132299
X61937Y136827
X50126Y144307
X41071Y141945
X32803Y148244
X32409Y158086
X44614Y162417
X61937Y162417
X58000Y171472
X44614Y171472
X26898Y181708
X70992Y182889
X76110Y182889
X81622Y155724
X50126Y123047
X50126Y113992
X32409Y113992
X32409Y123047
X13118Y124228
X8000Y115173
X7606Y107693
X12724Y98244
X19811Y91551
X21386Y83677
X32803Y79149
X32803Y69799
X50028Y69799
X50028Y79149
X41465Y87220
X41858Y96669
X111051Y63401
X115972Y72653
X343335Y71275
X370008Y70291
X369614Y79149
T02
X335717Y92929
X325717Y92929
X315717Y92929
X313354Y112220
X323354Y112220
X333354Y112220
X262488Y112220
X252488Y112220
X242488Y112220
X240913Y92929
X250913Y92929
X260913Y92929
X192016Y92929
X182016Y92929
X172016Y92929
X171622Y112220
X181622Y112220
X191622Y112220
X120756Y112220
X110756Y112220
X100756Y112220
X101150Y92929
X111150Y92929
X121150Y92929
T03
X18118Y138480
X8118Y138480
X8118Y148480
X18118Y148480
X18118Y158480
X8118Y158480
X8118Y168480
X18118Y168480
X18118Y178480
X8118Y178480
T04
X109969Y182102
X180835Y182102
X251701Y182102
X322567Y182102
X322567Y16748
X251701Y16748
X180835Y16748
X109969Y16748
M30
