G75*
G70*
%OFA0B0*%
%FSLAX24Y24*%
%IPPOS*%
%LPD*%
%AMOC8*
5,1,8,0,0,1.08239X$1,22.5*
%
%ADD10C,0.0060*%
%ADD11C,0.0020*%
%ADD12C,0.0070*%
%ADD13C,0.0040*%
%ADD14C,0.0050*%
%ADD15R,0.0400X0.1000*%
%ADD16R,0.0400X0.1250*%
D10*
X001213Y008863D02*
X001613Y008863D01*
X001613Y014763D01*
X006063Y014763D01*
X006063Y008863D01*
X006463Y008863D01*
X006463Y016113D01*
X006063Y016113D01*
X006063Y014763D01*
X005893Y016058D02*
X005893Y011158D01*
X005543Y011158D01*
X005543Y010558D01*
X005893Y010558D01*
X005893Y009808D01*
X001793Y009808D01*
X001793Y010558D01*
X002143Y010558D01*
X002143Y011158D01*
X001793Y011158D01*
X001793Y016058D01*
X005893Y016058D01*
X008300Y016113D02*
X008700Y016113D01*
X008700Y014763D01*
X008700Y008863D01*
X013150Y008863D01*
X013150Y014763D01*
X008700Y014763D01*
X008880Y016058D02*
X008880Y011158D01*
X009230Y011158D01*
X009230Y010558D01*
X008880Y010558D01*
X008880Y009808D01*
X012980Y009808D01*
X012980Y010558D01*
X012630Y010558D01*
X012630Y011158D01*
X012980Y011158D01*
X012980Y016058D01*
X008880Y016058D01*
X008300Y016113D02*
X008300Y008863D01*
X008700Y008863D01*
X010420Y011243D02*
X011420Y011243D01*
X010220Y011158D02*
X010222Y011211D01*
X010228Y011264D01*
X010238Y011316D01*
X010252Y011367D01*
X010269Y011417D01*
X010290Y011466D01*
X010315Y011513D01*
X010343Y011558D01*
X010375Y011601D01*
X010410Y011641D01*
X010447Y011678D01*
X010487Y011713D01*
X010530Y011745D01*
X010575Y011773D01*
X010622Y011798D01*
X010671Y011819D01*
X010721Y011836D01*
X010772Y011850D01*
X010824Y011860D01*
X010877Y011866D01*
X010930Y011868D01*
X010983Y011866D01*
X011036Y011860D01*
X011088Y011850D01*
X011139Y011836D01*
X011189Y011819D01*
X011238Y011798D01*
X011285Y011773D01*
X011330Y011745D01*
X011373Y011713D01*
X011413Y011678D01*
X011450Y011641D01*
X011485Y011601D01*
X011517Y011558D01*
X011545Y011513D01*
X011570Y011466D01*
X011591Y011417D01*
X011608Y011367D01*
X011622Y011316D01*
X011632Y011264D01*
X011638Y011211D01*
X011640Y011158D01*
X011638Y011105D01*
X011632Y011052D01*
X011622Y011000D01*
X011608Y010949D01*
X011591Y010899D01*
X011570Y010850D01*
X011545Y010803D01*
X011517Y010758D01*
X011485Y010715D01*
X011450Y010675D01*
X011413Y010638D01*
X011373Y010603D01*
X011330Y010571D01*
X011285Y010543D01*
X011238Y010518D01*
X011189Y010497D01*
X011139Y010480D01*
X011088Y010466D01*
X011036Y010456D01*
X010983Y010450D01*
X010930Y010448D01*
X010877Y010450D01*
X010824Y010456D01*
X010772Y010466D01*
X010721Y010480D01*
X010671Y010497D01*
X010622Y010518D01*
X010575Y010543D01*
X010530Y010571D01*
X010487Y010603D01*
X010447Y010638D01*
X010410Y010675D01*
X010375Y010715D01*
X010343Y010758D01*
X010315Y010803D01*
X010290Y010850D01*
X010269Y010899D01*
X010252Y010949D01*
X010238Y011000D01*
X010228Y011052D01*
X010222Y011105D01*
X010220Y011158D01*
X010550Y011243D02*
X010552Y011281D01*
X010558Y011319D01*
X010568Y011356D01*
X010581Y011391D01*
X010598Y011425D01*
X010618Y011457D01*
X010642Y011487D01*
X010669Y011515D01*
X010698Y011539D01*
X010730Y011560D01*
X010763Y011578D01*
X010798Y011592D01*
X010835Y011603D01*
X010872Y011610D01*
X010910Y011613D01*
X010949Y011612D01*
X010986Y011607D01*
X011023Y011598D01*
X011059Y011586D01*
X011094Y011570D01*
X011127Y011550D01*
X011157Y011527D01*
X011185Y011501D01*
X011210Y011473D01*
X011232Y011442D01*
X011251Y011408D01*
X011266Y011374D01*
X011278Y011337D01*
X011286Y011300D01*
X011290Y011262D01*
X011290Y011224D01*
X011286Y011186D01*
X011278Y011149D01*
X011266Y011112D01*
X011251Y011078D01*
X011232Y011044D01*
X011210Y011013D01*
X011185Y010985D01*
X011157Y010959D01*
X011127Y010936D01*
X011094Y010916D01*
X011059Y010900D01*
X011023Y010888D01*
X010986Y010879D01*
X010949Y010874D01*
X010910Y010873D01*
X010872Y010876D01*
X010835Y010883D01*
X010798Y010894D01*
X010763Y010908D01*
X010730Y010926D01*
X010698Y010947D01*
X010669Y010971D01*
X010642Y010999D01*
X010618Y011029D01*
X010598Y011061D01*
X010581Y011095D01*
X010568Y011130D01*
X010558Y011167D01*
X010552Y011205D01*
X010550Y011243D01*
X010930Y010743D02*
X010930Y011743D01*
X013150Y008863D02*
X013550Y008863D01*
X013550Y016113D01*
X013150Y016113D01*
X013150Y014763D01*
X015190Y016113D02*
X015590Y016113D01*
X015590Y014763D01*
X015590Y008863D01*
X020040Y008863D01*
X020040Y014763D01*
X015590Y014763D01*
X015770Y016058D02*
X015770Y011158D01*
X016120Y011158D01*
X016120Y010558D01*
X015770Y010558D01*
X015770Y009808D01*
X019870Y009808D01*
X019870Y010558D01*
X019520Y010558D01*
X019520Y011158D01*
X019870Y011158D01*
X019870Y016058D01*
X015770Y016058D01*
X015190Y016113D02*
X015190Y008863D01*
X015590Y008863D01*
X017310Y011243D02*
X018310Y011243D01*
X017110Y011158D02*
X017112Y011211D01*
X017118Y011264D01*
X017128Y011316D01*
X017142Y011367D01*
X017159Y011417D01*
X017180Y011466D01*
X017205Y011513D01*
X017233Y011558D01*
X017265Y011601D01*
X017300Y011641D01*
X017337Y011678D01*
X017377Y011713D01*
X017420Y011745D01*
X017465Y011773D01*
X017512Y011798D01*
X017561Y011819D01*
X017611Y011836D01*
X017662Y011850D01*
X017714Y011860D01*
X017767Y011866D01*
X017820Y011868D01*
X017873Y011866D01*
X017926Y011860D01*
X017978Y011850D01*
X018029Y011836D01*
X018079Y011819D01*
X018128Y011798D01*
X018175Y011773D01*
X018220Y011745D01*
X018263Y011713D01*
X018303Y011678D01*
X018340Y011641D01*
X018375Y011601D01*
X018407Y011558D01*
X018435Y011513D01*
X018460Y011466D01*
X018481Y011417D01*
X018498Y011367D01*
X018512Y011316D01*
X018522Y011264D01*
X018528Y011211D01*
X018530Y011158D01*
X018528Y011105D01*
X018522Y011052D01*
X018512Y011000D01*
X018498Y010949D01*
X018481Y010899D01*
X018460Y010850D01*
X018435Y010803D01*
X018407Y010758D01*
X018375Y010715D01*
X018340Y010675D01*
X018303Y010638D01*
X018263Y010603D01*
X018220Y010571D01*
X018175Y010543D01*
X018128Y010518D01*
X018079Y010497D01*
X018029Y010480D01*
X017978Y010466D01*
X017926Y010456D01*
X017873Y010450D01*
X017820Y010448D01*
X017767Y010450D01*
X017714Y010456D01*
X017662Y010466D01*
X017611Y010480D01*
X017561Y010497D01*
X017512Y010518D01*
X017465Y010543D01*
X017420Y010571D01*
X017377Y010603D01*
X017337Y010638D01*
X017300Y010675D01*
X017265Y010715D01*
X017233Y010758D01*
X017205Y010803D01*
X017180Y010850D01*
X017159Y010899D01*
X017142Y010949D01*
X017128Y011000D01*
X017118Y011052D01*
X017112Y011105D01*
X017110Y011158D01*
X017440Y011243D02*
X017442Y011281D01*
X017448Y011319D01*
X017458Y011356D01*
X017471Y011391D01*
X017488Y011425D01*
X017508Y011457D01*
X017532Y011487D01*
X017559Y011515D01*
X017588Y011539D01*
X017620Y011560D01*
X017653Y011578D01*
X017688Y011592D01*
X017725Y011603D01*
X017762Y011610D01*
X017800Y011613D01*
X017839Y011612D01*
X017876Y011607D01*
X017913Y011598D01*
X017949Y011586D01*
X017984Y011570D01*
X018017Y011550D01*
X018047Y011527D01*
X018075Y011501D01*
X018100Y011473D01*
X018122Y011442D01*
X018141Y011408D01*
X018156Y011374D01*
X018168Y011337D01*
X018176Y011300D01*
X018180Y011262D01*
X018180Y011224D01*
X018176Y011186D01*
X018168Y011149D01*
X018156Y011112D01*
X018141Y011078D01*
X018122Y011044D01*
X018100Y011013D01*
X018075Y010985D01*
X018047Y010959D01*
X018017Y010936D01*
X017984Y010916D01*
X017949Y010900D01*
X017913Y010888D01*
X017876Y010879D01*
X017839Y010874D01*
X017800Y010873D01*
X017762Y010876D01*
X017725Y010883D01*
X017688Y010894D01*
X017653Y010908D01*
X017620Y010926D01*
X017588Y010947D01*
X017559Y010971D01*
X017532Y010999D01*
X017508Y011029D01*
X017488Y011061D01*
X017471Y011095D01*
X017458Y011130D01*
X017448Y011167D01*
X017442Y011205D01*
X017440Y011243D01*
X017820Y010743D02*
X017820Y011743D01*
X020040Y008863D02*
X020440Y008863D01*
X020440Y016113D01*
X020040Y016113D01*
X020040Y014763D01*
X022670Y016113D02*
X023070Y016113D01*
X023070Y014763D01*
X023070Y008863D01*
X027520Y008863D01*
X027520Y014763D01*
X023070Y014763D01*
X023250Y016058D02*
X023250Y011158D01*
X023600Y011158D01*
X023600Y010558D01*
X023250Y010558D01*
X023250Y009808D01*
X027350Y009808D01*
X027350Y010558D01*
X027000Y010558D01*
X027000Y011158D01*
X027350Y011158D01*
X027350Y016058D01*
X023250Y016058D01*
X022670Y016113D02*
X022670Y008863D01*
X023070Y008863D01*
X024790Y011243D02*
X025790Y011243D01*
X024590Y011158D02*
X024592Y011211D01*
X024598Y011264D01*
X024608Y011316D01*
X024622Y011367D01*
X024639Y011417D01*
X024660Y011466D01*
X024685Y011513D01*
X024713Y011558D01*
X024745Y011601D01*
X024780Y011641D01*
X024817Y011678D01*
X024857Y011713D01*
X024900Y011745D01*
X024945Y011773D01*
X024992Y011798D01*
X025041Y011819D01*
X025091Y011836D01*
X025142Y011850D01*
X025194Y011860D01*
X025247Y011866D01*
X025300Y011868D01*
X025353Y011866D01*
X025406Y011860D01*
X025458Y011850D01*
X025509Y011836D01*
X025559Y011819D01*
X025608Y011798D01*
X025655Y011773D01*
X025700Y011745D01*
X025743Y011713D01*
X025783Y011678D01*
X025820Y011641D01*
X025855Y011601D01*
X025887Y011558D01*
X025915Y011513D01*
X025940Y011466D01*
X025961Y011417D01*
X025978Y011367D01*
X025992Y011316D01*
X026002Y011264D01*
X026008Y011211D01*
X026010Y011158D01*
X026008Y011105D01*
X026002Y011052D01*
X025992Y011000D01*
X025978Y010949D01*
X025961Y010899D01*
X025940Y010850D01*
X025915Y010803D01*
X025887Y010758D01*
X025855Y010715D01*
X025820Y010675D01*
X025783Y010638D01*
X025743Y010603D01*
X025700Y010571D01*
X025655Y010543D01*
X025608Y010518D01*
X025559Y010497D01*
X025509Y010480D01*
X025458Y010466D01*
X025406Y010456D01*
X025353Y010450D01*
X025300Y010448D01*
X025247Y010450D01*
X025194Y010456D01*
X025142Y010466D01*
X025091Y010480D01*
X025041Y010497D01*
X024992Y010518D01*
X024945Y010543D01*
X024900Y010571D01*
X024857Y010603D01*
X024817Y010638D01*
X024780Y010675D01*
X024745Y010715D01*
X024713Y010758D01*
X024685Y010803D01*
X024660Y010850D01*
X024639Y010899D01*
X024622Y010949D01*
X024608Y011000D01*
X024598Y011052D01*
X024592Y011105D01*
X024590Y011158D01*
X024920Y011243D02*
X024922Y011281D01*
X024928Y011319D01*
X024938Y011356D01*
X024951Y011391D01*
X024968Y011425D01*
X024988Y011457D01*
X025012Y011487D01*
X025039Y011515D01*
X025068Y011539D01*
X025100Y011560D01*
X025133Y011578D01*
X025168Y011592D01*
X025205Y011603D01*
X025242Y011610D01*
X025280Y011613D01*
X025319Y011612D01*
X025356Y011607D01*
X025393Y011598D01*
X025429Y011586D01*
X025464Y011570D01*
X025497Y011550D01*
X025527Y011527D01*
X025555Y011501D01*
X025580Y011473D01*
X025602Y011442D01*
X025621Y011408D01*
X025636Y011374D01*
X025648Y011337D01*
X025656Y011300D01*
X025660Y011262D01*
X025660Y011224D01*
X025656Y011186D01*
X025648Y011149D01*
X025636Y011112D01*
X025621Y011078D01*
X025602Y011044D01*
X025580Y011013D01*
X025555Y010985D01*
X025527Y010959D01*
X025497Y010936D01*
X025464Y010916D01*
X025429Y010900D01*
X025393Y010888D01*
X025356Y010879D01*
X025319Y010874D01*
X025280Y010873D01*
X025242Y010876D01*
X025205Y010883D01*
X025168Y010894D01*
X025133Y010908D01*
X025100Y010926D01*
X025068Y010947D01*
X025039Y010971D01*
X025012Y010999D01*
X024988Y011029D01*
X024968Y011061D01*
X024951Y011095D01*
X024938Y011130D01*
X024928Y011167D01*
X024922Y011205D01*
X024920Y011243D01*
X025300Y010743D02*
X025300Y011743D01*
X027520Y008863D02*
X027920Y008863D01*
X027920Y016113D01*
X027520Y016113D01*
X027520Y014763D01*
X027114Y018838D02*
X027114Y023738D01*
X026764Y023738D01*
X026764Y024338D01*
X027114Y024338D01*
X027114Y025088D01*
X023014Y025088D01*
X023014Y024338D01*
X023364Y024338D01*
X023364Y023738D01*
X023014Y023738D01*
X023014Y018838D01*
X027114Y018838D01*
X027294Y018862D02*
X027294Y020212D01*
X027294Y026112D01*
X022844Y026112D01*
X022844Y020212D01*
X027294Y020212D01*
X027294Y018862D02*
X027694Y018862D01*
X027694Y026112D01*
X027294Y026112D01*
X025574Y023732D02*
X024574Y023732D01*
X024354Y023738D02*
X024356Y023791D01*
X024362Y023844D01*
X024372Y023896D01*
X024386Y023947D01*
X024403Y023997D01*
X024424Y024046D01*
X024449Y024093D01*
X024477Y024138D01*
X024509Y024181D01*
X024544Y024221D01*
X024581Y024258D01*
X024621Y024293D01*
X024664Y024325D01*
X024709Y024353D01*
X024756Y024378D01*
X024805Y024399D01*
X024855Y024416D01*
X024906Y024430D01*
X024958Y024440D01*
X025011Y024446D01*
X025064Y024448D01*
X025117Y024446D01*
X025170Y024440D01*
X025222Y024430D01*
X025273Y024416D01*
X025323Y024399D01*
X025372Y024378D01*
X025419Y024353D01*
X025464Y024325D01*
X025507Y024293D01*
X025547Y024258D01*
X025584Y024221D01*
X025619Y024181D01*
X025651Y024138D01*
X025679Y024093D01*
X025704Y024046D01*
X025725Y023997D01*
X025742Y023947D01*
X025756Y023896D01*
X025766Y023844D01*
X025772Y023791D01*
X025774Y023738D01*
X025772Y023685D01*
X025766Y023632D01*
X025756Y023580D01*
X025742Y023529D01*
X025725Y023479D01*
X025704Y023430D01*
X025679Y023383D01*
X025651Y023338D01*
X025619Y023295D01*
X025584Y023255D01*
X025547Y023218D01*
X025507Y023183D01*
X025464Y023151D01*
X025419Y023123D01*
X025372Y023098D01*
X025323Y023077D01*
X025273Y023060D01*
X025222Y023046D01*
X025170Y023036D01*
X025117Y023030D01*
X025064Y023028D01*
X025011Y023030D01*
X024958Y023036D01*
X024906Y023046D01*
X024855Y023060D01*
X024805Y023077D01*
X024756Y023098D01*
X024709Y023123D01*
X024664Y023151D01*
X024621Y023183D01*
X024581Y023218D01*
X024544Y023255D01*
X024509Y023295D01*
X024477Y023338D01*
X024449Y023383D01*
X024424Y023430D01*
X024403Y023479D01*
X024386Y023529D01*
X024372Y023580D01*
X024362Y023632D01*
X024356Y023685D01*
X024354Y023738D01*
X024704Y023732D02*
X024706Y023770D01*
X024712Y023808D01*
X024722Y023845D01*
X024735Y023880D01*
X024752Y023914D01*
X024772Y023946D01*
X024796Y023976D01*
X024823Y024004D01*
X024852Y024028D01*
X024884Y024049D01*
X024917Y024067D01*
X024952Y024081D01*
X024989Y024092D01*
X025026Y024099D01*
X025064Y024102D01*
X025103Y024101D01*
X025140Y024096D01*
X025177Y024087D01*
X025213Y024075D01*
X025248Y024059D01*
X025281Y024039D01*
X025311Y024016D01*
X025339Y023990D01*
X025364Y023962D01*
X025386Y023931D01*
X025405Y023897D01*
X025420Y023863D01*
X025432Y023826D01*
X025440Y023789D01*
X025444Y023751D01*
X025444Y023713D01*
X025440Y023675D01*
X025432Y023638D01*
X025420Y023601D01*
X025405Y023567D01*
X025386Y023533D01*
X025364Y023502D01*
X025339Y023474D01*
X025311Y023448D01*
X025281Y023425D01*
X025248Y023405D01*
X025213Y023389D01*
X025177Y023377D01*
X025140Y023368D01*
X025103Y023363D01*
X025064Y023362D01*
X025026Y023365D01*
X024989Y023372D01*
X024952Y023383D01*
X024917Y023397D01*
X024884Y023415D01*
X024852Y023436D01*
X024823Y023460D01*
X024796Y023488D01*
X024772Y023518D01*
X024752Y023550D01*
X024735Y023584D01*
X024722Y023619D01*
X024712Y023656D01*
X024706Y023694D01*
X024704Y023732D01*
X025064Y024232D02*
X025064Y023232D01*
X022844Y026112D02*
X022444Y026112D01*
X022444Y018862D01*
X022844Y018862D01*
X022844Y020212D01*
X020607Y018862D02*
X020207Y018862D01*
X020207Y020212D01*
X020207Y026112D01*
X015757Y026112D01*
X015757Y020212D01*
X020207Y020212D01*
X020027Y018838D02*
X020027Y023738D01*
X019677Y023738D01*
X019677Y024338D01*
X020027Y024338D01*
X020027Y025088D01*
X015927Y025088D01*
X015927Y024338D01*
X016277Y024338D01*
X016277Y023738D01*
X015927Y023738D01*
X015927Y018838D01*
X020027Y018838D01*
X020607Y018862D02*
X020607Y026112D01*
X020207Y026112D01*
X017977Y024232D02*
X017977Y023232D01*
X017617Y023732D02*
X017619Y023770D01*
X017625Y023808D01*
X017635Y023845D01*
X017648Y023880D01*
X017665Y023914D01*
X017685Y023946D01*
X017709Y023976D01*
X017736Y024004D01*
X017765Y024028D01*
X017797Y024049D01*
X017830Y024067D01*
X017865Y024081D01*
X017902Y024092D01*
X017939Y024099D01*
X017977Y024102D01*
X018016Y024101D01*
X018053Y024096D01*
X018090Y024087D01*
X018126Y024075D01*
X018161Y024059D01*
X018194Y024039D01*
X018224Y024016D01*
X018252Y023990D01*
X018277Y023962D01*
X018299Y023931D01*
X018318Y023897D01*
X018333Y023863D01*
X018345Y023826D01*
X018353Y023789D01*
X018357Y023751D01*
X018357Y023713D01*
X018353Y023675D01*
X018345Y023638D01*
X018333Y023601D01*
X018318Y023567D01*
X018299Y023533D01*
X018277Y023502D01*
X018252Y023474D01*
X018224Y023448D01*
X018194Y023425D01*
X018161Y023405D01*
X018126Y023389D01*
X018090Y023377D01*
X018053Y023368D01*
X018016Y023363D01*
X017977Y023362D01*
X017939Y023365D01*
X017902Y023372D01*
X017865Y023383D01*
X017830Y023397D01*
X017797Y023415D01*
X017765Y023436D01*
X017736Y023460D01*
X017709Y023488D01*
X017685Y023518D01*
X017665Y023550D01*
X017648Y023584D01*
X017635Y023619D01*
X017625Y023656D01*
X017619Y023694D01*
X017617Y023732D01*
X017487Y023732D02*
X018487Y023732D01*
X017267Y023738D02*
X017269Y023791D01*
X017275Y023844D01*
X017285Y023896D01*
X017299Y023947D01*
X017316Y023997D01*
X017337Y024046D01*
X017362Y024093D01*
X017390Y024138D01*
X017422Y024181D01*
X017457Y024221D01*
X017494Y024258D01*
X017534Y024293D01*
X017577Y024325D01*
X017622Y024353D01*
X017669Y024378D01*
X017718Y024399D01*
X017768Y024416D01*
X017819Y024430D01*
X017871Y024440D01*
X017924Y024446D01*
X017977Y024448D01*
X018030Y024446D01*
X018083Y024440D01*
X018135Y024430D01*
X018186Y024416D01*
X018236Y024399D01*
X018285Y024378D01*
X018332Y024353D01*
X018377Y024325D01*
X018420Y024293D01*
X018460Y024258D01*
X018497Y024221D01*
X018532Y024181D01*
X018564Y024138D01*
X018592Y024093D01*
X018617Y024046D01*
X018638Y023997D01*
X018655Y023947D01*
X018669Y023896D01*
X018679Y023844D01*
X018685Y023791D01*
X018687Y023738D01*
X018685Y023685D01*
X018679Y023632D01*
X018669Y023580D01*
X018655Y023529D01*
X018638Y023479D01*
X018617Y023430D01*
X018592Y023383D01*
X018564Y023338D01*
X018532Y023295D01*
X018497Y023255D01*
X018460Y023218D01*
X018420Y023183D01*
X018377Y023151D01*
X018332Y023123D01*
X018285Y023098D01*
X018236Y023077D01*
X018186Y023060D01*
X018135Y023046D01*
X018083Y023036D01*
X018030Y023030D01*
X017977Y023028D01*
X017924Y023030D01*
X017871Y023036D01*
X017819Y023046D01*
X017768Y023060D01*
X017718Y023077D01*
X017669Y023098D01*
X017622Y023123D01*
X017577Y023151D01*
X017534Y023183D01*
X017494Y023218D01*
X017457Y023255D01*
X017422Y023295D01*
X017390Y023338D01*
X017362Y023383D01*
X017337Y023430D01*
X017316Y023479D01*
X017299Y023529D01*
X017285Y023580D01*
X017275Y023632D01*
X017269Y023685D01*
X017267Y023738D01*
X015757Y026112D02*
X015357Y026112D01*
X015357Y018862D01*
X015757Y018862D01*
X015757Y020212D01*
X013521Y018862D02*
X013121Y018862D01*
X013121Y020212D01*
X013121Y026112D01*
X008671Y026112D01*
X008671Y020212D01*
X013121Y020212D01*
X012941Y018838D02*
X012941Y023738D01*
X012591Y023738D01*
X012591Y024338D01*
X012941Y024338D01*
X012941Y025088D01*
X008841Y025088D01*
X008841Y024338D01*
X009191Y024338D01*
X009191Y023738D01*
X008841Y023738D01*
X008841Y018838D01*
X012941Y018838D01*
X013521Y018862D02*
X013521Y026112D01*
X013121Y026112D01*
X010891Y024232D02*
X010891Y023232D01*
X010531Y023732D02*
X010533Y023770D01*
X010539Y023808D01*
X010549Y023845D01*
X010562Y023880D01*
X010579Y023914D01*
X010599Y023946D01*
X010623Y023976D01*
X010650Y024004D01*
X010679Y024028D01*
X010711Y024049D01*
X010744Y024067D01*
X010779Y024081D01*
X010816Y024092D01*
X010853Y024099D01*
X010891Y024102D01*
X010930Y024101D01*
X010967Y024096D01*
X011004Y024087D01*
X011040Y024075D01*
X011075Y024059D01*
X011108Y024039D01*
X011138Y024016D01*
X011166Y023990D01*
X011191Y023962D01*
X011213Y023931D01*
X011232Y023897D01*
X011247Y023863D01*
X011259Y023826D01*
X011267Y023789D01*
X011271Y023751D01*
X011271Y023713D01*
X011267Y023675D01*
X011259Y023638D01*
X011247Y023601D01*
X011232Y023567D01*
X011213Y023533D01*
X011191Y023502D01*
X011166Y023474D01*
X011138Y023448D01*
X011108Y023425D01*
X011075Y023405D01*
X011040Y023389D01*
X011004Y023377D01*
X010967Y023368D01*
X010930Y023363D01*
X010891Y023362D01*
X010853Y023365D01*
X010816Y023372D01*
X010779Y023383D01*
X010744Y023397D01*
X010711Y023415D01*
X010679Y023436D01*
X010650Y023460D01*
X010623Y023488D01*
X010599Y023518D01*
X010579Y023550D01*
X010562Y023584D01*
X010549Y023619D01*
X010539Y023656D01*
X010533Y023694D01*
X010531Y023732D01*
X010401Y023732D02*
X011401Y023732D01*
X010181Y023738D02*
X010183Y023791D01*
X010189Y023844D01*
X010199Y023896D01*
X010213Y023947D01*
X010230Y023997D01*
X010251Y024046D01*
X010276Y024093D01*
X010304Y024138D01*
X010336Y024181D01*
X010371Y024221D01*
X010408Y024258D01*
X010448Y024293D01*
X010491Y024325D01*
X010536Y024353D01*
X010583Y024378D01*
X010632Y024399D01*
X010682Y024416D01*
X010733Y024430D01*
X010785Y024440D01*
X010838Y024446D01*
X010891Y024448D01*
X010944Y024446D01*
X010997Y024440D01*
X011049Y024430D01*
X011100Y024416D01*
X011150Y024399D01*
X011199Y024378D01*
X011246Y024353D01*
X011291Y024325D01*
X011334Y024293D01*
X011374Y024258D01*
X011411Y024221D01*
X011446Y024181D01*
X011478Y024138D01*
X011506Y024093D01*
X011531Y024046D01*
X011552Y023997D01*
X011569Y023947D01*
X011583Y023896D01*
X011593Y023844D01*
X011599Y023791D01*
X011601Y023738D01*
X011599Y023685D01*
X011593Y023632D01*
X011583Y023580D01*
X011569Y023529D01*
X011552Y023479D01*
X011531Y023430D01*
X011506Y023383D01*
X011478Y023338D01*
X011446Y023295D01*
X011411Y023255D01*
X011374Y023218D01*
X011334Y023183D01*
X011291Y023151D01*
X011246Y023123D01*
X011199Y023098D01*
X011150Y023077D01*
X011100Y023060D01*
X011049Y023046D01*
X010997Y023036D01*
X010944Y023030D01*
X010891Y023028D01*
X010838Y023030D01*
X010785Y023036D01*
X010733Y023046D01*
X010682Y023060D01*
X010632Y023077D01*
X010583Y023098D01*
X010536Y023123D01*
X010491Y023151D01*
X010448Y023183D01*
X010408Y023218D01*
X010371Y023255D01*
X010336Y023295D01*
X010304Y023338D01*
X010276Y023383D01*
X010251Y023430D01*
X010230Y023479D01*
X010213Y023529D01*
X010199Y023580D01*
X010189Y023632D01*
X010183Y023685D01*
X010181Y023738D01*
X008671Y026112D02*
X008271Y026112D01*
X008271Y018862D01*
X008671Y018862D01*
X008671Y020212D01*
X006434Y018862D02*
X006034Y018862D01*
X006034Y020212D01*
X006034Y026112D01*
X001584Y026112D01*
X001584Y020212D01*
X006034Y020212D01*
X005854Y018838D02*
X005854Y023738D01*
X005504Y023738D01*
X005504Y024338D01*
X005854Y024338D01*
X005854Y025088D01*
X001754Y025088D01*
X001754Y024338D01*
X002104Y024338D01*
X002104Y023738D01*
X001754Y023738D01*
X001754Y018838D01*
X005854Y018838D01*
X006434Y018862D02*
X006434Y026112D01*
X006034Y026112D01*
X004314Y023732D02*
X003314Y023732D01*
X003094Y023738D02*
X003096Y023791D01*
X003102Y023844D01*
X003112Y023896D01*
X003126Y023947D01*
X003143Y023997D01*
X003164Y024046D01*
X003189Y024093D01*
X003217Y024138D01*
X003249Y024181D01*
X003284Y024221D01*
X003321Y024258D01*
X003361Y024293D01*
X003404Y024325D01*
X003449Y024353D01*
X003496Y024378D01*
X003545Y024399D01*
X003595Y024416D01*
X003646Y024430D01*
X003698Y024440D01*
X003751Y024446D01*
X003804Y024448D01*
X003857Y024446D01*
X003910Y024440D01*
X003962Y024430D01*
X004013Y024416D01*
X004063Y024399D01*
X004112Y024378D01*
X004159Y024353D01*
X004204Y024325D01*
X004247Y024293D01*
X004287Y024258D01*
X004324Y024221D01*
X004359Y024181D01*
X004391Y024138D01*
X004419Y024093D01*
X004444Y024046D01*
X004465Y023997D01*
X004482Y023947D01*
X004496Y023896D01*
X004506Y023844D01*
X004512Y023791D01*
X004514Y023738D01*
X004512Y023685D01*
X004506Y023632D01*
X004496Y023580D01*
X004482Y023529D01*
X004465Y023479D01*
X004444Y023430D01*
X004419Y023383D01*
X004391Y023338D01*
X004359Y023295D01*
X004324Y023255D01*
X004287Y023218D01*
X004247Y023183D01*
X004204Y023151D01*
X004159Y023123D01*
X004112Y023098D01*
X004063Y023077D01*
X004013Y023060D01*
X003962Y023046D01*
X003910Y023036D01*
X003857Y023030D01*
X003804Y023028D01*
X003751Y023030D01*
X003698Y023036D01*
X003646Y023046D01*
X003595Y023060D01*
X003545Y023077D01*
X003496Y023098D01*
X003449Y023123D01*
X003404Y023151D01*
X003361Y023183D01*
X003321Y023218D01*
X003284Y023255D01*
X003249Y023295D01*
X003217Y023338D01*
X003189Y023383D01*
X003164Y023430D01*
X003143Y023479D01*
X003126Y023529D01*
X003112Y023580D01*
X003102Y023632D01*
X003096Y023685D01*
X003094Y023738D01*
X003804Y024232D02*
X003804Y023232D01*
X003444Y023732D02*
X003446Y023770D01*
X003452Y023808D01*
X003462Y023845D01*
X003475Y023880D01*
X003492Y023914D01*
X003512Y023946D01*
X003536Y023976D01*
X003563Y024004D01*
X003592Y024028D01*
X003624Y024049D01*
X003657Y024067D01*
X003692Y024081D01*
X003729Y024092D01*
X003766Y024099D01*
X003804Y024102D01*
X003843Y024101D01*
X003880Y024096D01*
X003917Y024087D01*
X003953Y024075D01*
X003988Y024059D01*
X004021Y024039D01*
X004051Y024016D01*
X004079Y023990D01*
X004104Y023962D01*
X004126Y023931D01*
X004145Y023897D01*
X004160Y023863D01*
X004172Y023826D01*
X004180Y023789D01*
X004184Y023751D01*
X004184Y023713D01*
X004180Y023675D01*
X004172Y023638D01*
X004160Y023601D01*
X004145Y023567D01*
X004126Y023533D01*
X004104Y023502D01*
X004079Y023474D01*
X004051Y023448D01*
X004021Y023425D01*
X003988Y023405D01*
X003953Y023389D01*
X003917Y023377D01*
X003880Y023368D01*
X003843Y023363D01*
X003804Y023362D01*
X003766Y023365D01*
X003729Y023372D01*
X003692Y023383D01*
X003657Y023397D01*
X003624Y023415D01*
X003592Y023436D01*
X003563Y023460D01*
X003536Y023488D01*
X003512Y023518D01*
X003492Y023550D01*
X003475Y023584D01*
X003462Y023619D01*
X003452Y023656D01*
X003446Y023694D01*
X003444Y023732D01*
X001584Y026112D02*
X001184Y026112D01*
X001184Y018862D01*
X001584Y018862D01*
X001584Y020212D01*
X001613Y016113D02*
X001213Y016113D01*
X001213Y008863D01*
X001613Y008863D02*
X006063Y008863D01*
X004333Y011243D02*
X003333Y011243D01*
X003463Y011243D02*
X003465Y011281D01*
X003471Y011319D01*
X003481Y011356D01*
X003494Y011391D01*
X003511Y011425D01*
X003531Y011457D01*
X003555Y011487D01*
X003582Y011515D01*
X003611Y011539D01*
X003643Y011560D01*
X003676Y011578D01*
X003711Y011592D01*
X003748Y011603D01*
X003785Y011610D01*
X003823Y011613D01*
X003862Y011612D01*
X003899Y011607D01*
X003936Y011598D01*
X003972Y011586D01*
X004007Y011570D01*
X004040Y011550D01*
X004070Y011527D01*
X004098Y011501D01*
X004123Y011473D01*
X004145Y011442D01*
X004164Y011408D01*
X004179Y011374D01*
X004191Y011337D01*
X004199Y011300D01*
X004203Y011262D01*
X004203Y011224D01*
X004199Y011186D01*
X004191Y011149D01*
X004179Y011112D01*
X004164Y011078D01*
X004145Y011044D01*
X004123Y011013D01*
X004098Y010985D01*
X004070Y010959D01*
X004040Y010936D01*
X004007Y010916D01*
X003972Y010900D01*
X003936Y010888D01*
X003899Y010879D01*
X003862Y010874D01*
X003823Y010873D01*
X003785Y010876D01*
X003748Y010883D01*
X003711Y010894D01*
X003676Y010908D01*
X003643Y010926D01*
X003611Y010947D01*
X003582Y010971D01*
X003555Y010999D01*
X003531Y011029D01*
X003511Y011061D01*
X003494Y011095D01*
X003481Y011130D01*
X003471Y011167D01*
X003465Y011205D01*
X003463Y011243D01*
X003133Y011158D02*
X003135Y011211D01*
X003141Y011264D01*
X003151Y011316D01*
X003165Y011367D01*
X003182Y011417D01*
X003203Y011466D01*
X003228Y011513D01*
X003256Y011558D01*
X003288Y011601D01*
X003323Y011641D01*
X003360Y011678D01*
X003400Y011713D01*
X003443Y011745D01*
X003488Y011773D01*
X003535Y011798D01*
X003584Y011819D01*
X003634Y011836D01*
X003685Y011850D01*
X003737Y011860D01*
X003790Y011866D01*
X003843Y011868D01*
X003896Y011866D01*
X003949Y011860D01*
X004001Y011850D01*
X004052Y011836D01*
X004102Y011819D01*
X004151Y011798D01*
X004198Y011773D01*
X004243Y011745D01*
X004286Y011713D01*
X004326Y011678D01*
X004363Y011641D01*
X004398Y011601D01*
X004430Y011558D01*
X004458Y011513D01*
X004483Y011466D01*
X004504Y011417D01*
X004521Y011367D01*
X004535Y011316D01*
X004545Y011264D01*
X004551Y011211D01*
X004553Y011158D01*
X004551Y011105D01*
X004545Y011052D01*
X004535Y011000D01*
X004521Y010949D01*
X004504Y010899D01*
X004483Y010850D01*
X004458Y010803D01*
X004430Y010758D01*
X004398Y010715D01*
X004363Y010675D01*
X004326Y010638D01*
X004286Y010603D01*
X004243Y010571D01*
X004198Y010543D01*
X004151Y010518D01*
X004102Y010497D01*
X004052Y010480D01*
X004001Y010466D01*
X003949Y010456D01*
X003896Y010450D01*
X003843Y010448D01*
X003790Y010450D01*
X003737Y010456D01*
X003685Y010466D01*
X003634Y010480D01*
X003584Y010497D01*
X003535Y010518D01*
X003488Y010543D01*
X003443Y010571D01*
X003400Y010603D01*
X003360Y010638D01*
X003323Y010675D01*
X003288Y010715D01*
X003256Y010758D01*
X003228Y010803D01*
X003203Y010850D01*
X003182Y010899D01*
X003165Y010949D01*
X003151Y011000D01*
X003141Y011052D01*
X003135Y011105D01*
X003133Y011158D01*
X003843Y010743D02*
X003843Y011743D01*
X001613Y014763D02*
X001613Y016113D01*
D11*
X002043Y015808D02*
X002043Y012558D01*
X005643Y012558D01*
X005643Y015808D01*
X002043Y015808D01*
X002004Y019088D02*
X002004Y022338D01*
X005604Y022338D01*
X005604Y019088D01*
X002004Y019088D01*
X009091Y019088D02*
X009091Y022338D01*
X012691Y022338D01*
X012691Y019088D01*
X009091Y019088D01*
X009130Y015808D02*
X009130Y012558D01*
X012730Y012558D01*
X012730Y015808D01*
X009130Y015808D01*
X016020Y015808D02*
X016020Y012558D01*
X019620Y012558D01*
X019620Y015808D01*
X016020Y015808D01*
X016177Y019088D02*
X016177Y022338D01*
X019777Y022338D01*
X019777Y019088D01*
X016177Y019088D01*
X023264Y019088D02*
X023264Y022338D01*
X026864Y022338D01*
X026864Y019088D01*
X023264Y019088D01*
X023500Y015808D02*
X023500Y012558D01*
X027100Y012558D01*
X027100Y015808D01*
X023500Y015808D01*
D12*
X023989Y013474D02*
X024410Y013474D01*
X024410Y013158D01*
X024200Y013263D01*
X024094Y013263D01*
X023989Y013158D01*
X023989Y012948D01*
X024094Y012843D01*
X024305Y012843D01*
X024410Y012948D01*
X024844Y012843D02*
X024844Y013474D01*
X025054Y013474D02*
X024634Y013474D01*
X025464Y021423D02*
X025884Y021423D01*
X025674Y021423D02*
X025674Y022053D01*
X025884Y021843D01*
X026109Y022053D02*
X026529Y022053D01*
X026319Y022053D02*
X026319Y021423D01*
X019442Y022053D02*
X019022Y022053D01*
X019232Y022053D02*
X019232Y021423D01*
X018798Y021423D02*
X018377Y021843D01*
X018377Y021948D01*
X018482Y022053D01*
X018693Y022053D01*
X018798Y021948D01*
X018798Y021423D02*
X018377Y021423D01*
X012356Y022053D02*
X011935Y022053D01*
X012146Y022053D02*
X012146Y021423D01*
X011711Y021528D02*
X011606Y021423D01*
X011396Y021423D01*
X011291Y021528D01*
X011291Y021633D01*
X011396Y021738D01*
X011501Y021738D01*
X011396Y021738D02*
X011291Y021843D01*
X011291Y021948D01*
X011396Y022053D01*
X011606Y022053D01*
X011711Y021948D01*
X005269Y022053D02*
X004849Y022053D01*
X005059Y022053D02*
X005059Y021423D01*
X004625Y021738D02*
X004204Y021738D01*
X004309Y021423D02*
X004309Y022053D01*
X004625Y021738D01*
X003598Y013474D02*
X003177Y013474D01*
X003387Y013474D02*
X003387Y012843D01*
X002953Y012948D02*
X002953Y013053D01*
X002848Y013158D01*
X002638Y013158D01*
X002533Y013053D01*
X002533Y012948D01*
X002638Y012843D01*
X002848Y012843D01*
X002953Y012948D01*
X002848Y013158D02*
X002953Y013263D01*
X002953Y013369D01*
X002848Y013474D01*
X002638Y013474D01*
X002533Y013369D01*
X002533Y013263D01*
X002638Y013158D01*
X009619Y013369D02*
X010040Y012948D01*
X010040Y012843D01*
X010474Y012843D02*
X010474Y013474D01*
X010684Y013474D02*
X010264Y013474D01*
X010040Y013474D02*
X009619Y013474D01*
X009619Y013369D01*
X016509Y013474D02*
X016719Y013369D01*
X016929Y013158D01*
X016614Y013158D01*
X016509Y013053D01*
X016509Y012948D01*
X016614Y012843D01*
X016824Y012843D01*
X016929Y012948D01*
X016929Y013158D01*
X017154Y013474D02*
X017574Y013474D01*
X017364Y013474D02*
X017364Y012843D01*
D13*
X017528Y012438D02*
X017528Y012378D01*
X017769Y012138D01*
X017769Y012078D01*
X017897Y012078D02*
X018137Y012078D01*
X018017Y012078D02*
X018017Y012438D01*
X018137Y012318D01*
X018265Y012318D02*
X018265Y012078D01*
X018265Y012258D02*
X018505Y012258D01*
X018505Y012318D02*
X018505Y012078D01*
X018505Y012318D02*
X018385Y012438D01*
X018265Y012318D01*
X017769Y012438D02*
X017528Y012438D01*
X017340Y012138D02*
X017280Y012138D01*
X017280Y012078D01*
X017340Y012078D01*
X017340Y012138D01*
X017280Y012078D02*
X017400Y011958D01*
X017155Y012138D02*
X017095Y012078D01*
X016975Y012078D01*
X016915Y012138D01*
X016915Y012258D01*
X016975Y012318D01*
X017035Y012318D01*
X017155Y012258D01*
X017155Y012438D01*
X016915Y012438D01*
X016786Y012318D02*
X016726Y012318D01*
X016666Y012258D01*
X016606Y012318D01*
X016546Y012258D01*
X016546Y012078D01*
X016666Y012078D02*
X016666Y012258D01*
X016786Y012318D02*
X016786Y012078D01*
X016418Y012078D02*
X016418Y012318D01*
X016358Y012318D01*
X016298Y012258D01*
X016238Y012318D01*
X016178Y012258D01*
X016178Y012078D01*
X016298Y012078D02*
X016298Y012258D01*
X016145Y012559D02*
X016145Y012789D01*
X016068Y012866D01*
X015914Y012866D01*
X015838Y012789D01*
X015838Y012559D01*
X015838Y012713D02*
X015684Y012866D01*
X015651Y012946D02*
X015574Y013023D01*
X015420Y013023D01*
X015344Y012946D01*
X015344Y012716D01*
X015344Y012869D02*
X015190Y013023D01*
X015190Y013176D02*
X015497Y013483D01*
X015574Y013483D01*
X015651Y013406D01*
X015651Y013253D01*
X015574Y013176D01*
X015684Y013250D02*
X015684Y013096D01*
X015761Y013019D01*
X015651Y012946D02*
X015651Y012716D01*
X015190Y012716D01*
X015190Y013176D02*
X015190Y013483D01*
X015190Y013637D02*
X015190Y013944D01*
X015190Y013790D02*
X015651Y013790D01*
X015497Y013637D01*
X015684Y013710D02*
X015684Y013557D01*
X015761Y013480D01*
X015761Y013326D02*
X015684Y013250D01*
X015761Y013326D02*
X015838Y013326D01*
X015914Y013250D01*
X015914Y013173D01*
X015914Y013250D02*
X015991Y013326D01*
X016068Y013326D01*
X016145Y013250D01*
X016145Y013096D01*
X016068Y013019D01*
X016068Y013480D02*
X016145Y013557D01*
X016145Y013710D01*
X016068Y013787D01*
X015991Y013787D01*
X015914Y013710D01*
X015838Y013787D01*
X015761Y013787D01*
X015684Y013710D01*
X015914Y013710D02*
X015914Y013633D01*
X015684Y012559D02*
X016145Y012559D01*
X017098Y011631D02*
X017328Y011401D01*
X017021Y011401D01*
X017098Y011171D02*
X017098Y011631D01*
X017635Y011631D02*
X017635Y011171D01*
X017788Y011171D02*
X017481Y011171D01*
X017788Y011478D02*
X017635Y011631D01*
X017942Y011554D02*
X017942Y011401D01*
X018018Y011324D01*
X018249Y011324D01*
X018249Y011171D02*
X018249Y011631D01*
X018018Y011631D01*
X017942Y011554D01*
X018095Y011324D02*
X017942Y011171D01*
X019582Y011235D02*
X019582Y011389D01*
X019659Y011465D01*
X019735Y011465D01*
X019812Y011389D01*
X019812Y011159D01*
X019659Y011159D01*
X019582Y011235D01*
X019582Y011005D02*
X019735Y010852D01*
X019735Y010928D02*
X019735Y010698D01*
X019582Y010698D02*
X020042Y010698D01*
X020042Y010928D01*
X019966Y011005D01*
X019812Y011005D01*
X019735Y010928D01*
X019812Y011159D02*
X019966Y011312D01*
X020042Y011465D01*
X020042Y011619D02*
X019812Y011619D01*
X019889Y011772D01*
X019889Y011849D01*
X019812Y011926D01*
X019659Y011926D01*
X019582Y011849D01*
X019582Y011696D01*
X019659Y011619D01*
X020042Y011619D02*
X020042Y011926D01*
X020934Y011281D02*
X020934Y011127D01*
X021011Y011051D01*
X021318Y011358D01*
X021011Y011358D01*
X020934Y011281D01*
X021011Y011051D02*
X021318Y011051D01*
X021395Y011127D01*
X021395Y011281D01*
X021318Y011358D01*
X020934Y010897D02*
X020934Y010590D01*
X020934Y010437D02*
X021088Y010283D01*
X021088Y010360D02*
X021088Y010130D01*
X020934Y010130D02*
X021395Y010130D01*
X021395Y010360D01*
X021318Y010437D01*
X021164Y010437D01*
X021088Y010360D01*
X021241Y010590D02*
X021395Y010744D01*
X020934Y010744D01*
X023283Y013059D02*
X023743Y013059D01*
X023743Y013289D01*
X023666Y013366D01*
X023513Y013366D01*
X023436Y013289D01*
X023436Y013059D01*
X023436Y013212D02*
X023283Y013366D01*
X023283Y013519D02*
X023590Y013826D01*
X023666Y013826D01*
X023743Y013749D01*
X023743Y013596D01*
X023666Y013519D01*
X023283Y013519D02*
X023283Y013826D01*
X023718Y012318D02*
X023658Y012258D01*
X023658Y012078D01*
X023778Y012078D02*
X023778Y012258D01*
X023718Y012318D01*
X023778Y012258D02*
X023838Y012318D01*
X023898Y012318D01*
X023898Y012078D01*
X024027Y012078D02*
X024027Y012258D01*
X024087Y012318D01*
X024147Y012258D01*
X024147Y012078D01*
X024267Y012078D02*
X024267Y012318D01*
X024207Y012318D01*
X024147Y012258D01*
X024395Y012258D02*
X024455Y012318D01*
X024515Y012318D01*
X024635Y012258D01*
X024635Y012438D01*
X024395Y012438D01*
X024395Y012258D02*
X024395Y012138D01*
X024455Y012078D01*
X024575Y012078D01*
X024635Y012138D01*
X024761Y012138D02*
X024821Y012138D01*
X024821Y012078D01*
X024761Y012078D01*
X024761Y012138D01*
X024761Y012078D02*
X024881Y011958D01*
X024763Y011749D02*
X024993Y011519D01*
X024686Y011519D01*
X024533Y011519D02*
X024379Y011596D01*
X024302Y011596D01*
X024226Y011519D01*
X024226Y011365D01*
X024302Y011289D01*
X024456Y011289D01*
X024533Y011365D01*
X024533Y011519D02*
X024533Y011749D01*
X024226Y011749D01*
X024763Y011749D02*
X024763Y011289D01*
X025146Y011289D02*
X025300Y011442D01*
X025223Y011442D02*
X025453Y011442D01*
X025453Y011289D02*
X025453Y011749D01*
X025223Y011749D01*
X025146Y011672D01*
X025146Y011519D01*
X025223Y011442D01*
X025249Y012078D02*
X025249Y012138D01*
X025009Y012378D01*
X025009Y012438D01*
X025249Y012438D01*
X025497Y012438D02*
X025497Y012078D01*
X025617Y012078D02*
X025377Y012078D01*
X025617Y012318D02*
X025497Y012438D01*
X025745Y012318D02*
X025745Y012078D01*
X025745Y012258D02*
X025986Y012258D01*
X025986Y012318D02*
X025986Y012078D01*
X025986Y012318D02*
X025865Y012438D01*
X025745Y012318D01*
X025970Y011048D02*
X025893Y010972D01*
X026200Y010665D01*
X026123Y010588D01*
X025970Y010588D01*
X025893Y010665D01*
X025893Y010972D01*
X025970Y011048D02*
X026123Y011048D01*
X026200Y010972D01*
X026200Y010665D01*
X026353Y010665D02*
X026353Y010741D01*
X026430Y010818D01*
X026660Y010818D01*
X026660Y010665D01*
X026584Y010588D01*
X026430Y010588D01*
X026353Y010665D01*
X026507Y010972D02*
X026353Y011048D01*
X026507Y010972D02*
X026660Y010818D01*
X026814Y010818D02*
X026814Y010972D01*
X026890Y011048D01*
X027121Y011048D01*
X027121Y010588D01*
X027121Y010741D02*
X026890Y010741D01*
X026814Y010818D01*
X026967Y010741D02*
X026814Y010588D01*
X026953Y014712D02*
X026953Y015172D01*
X026723Y015172D01*
X026646Y015096D01*
X026646Y014942D01*
X026723Y014865D01*
X026953Y014865D01*
X026800Y014865D02*
X026646Y014712D01*
X026493Y014712D02*
X026186Y014712D01*
X026340Y014712D02*
X026340Y015172D01*
X026493Y015019D01*
X026033Y015019D02*
X025956Y014942D01*
X025726Y014942D01*
X025726Y014789D02*
X025726Y015096D01*
X025802Y015172D01*
X025956Y015172D01*
X026033Y015096D01*
X026033Y015019D01*
X026033Y014789D02*
X025956Y014712D01*
X025802Y014712D01*
X025726Y014789D01*
X025666Y020456D02*
X025973Y020456D01*
X026126Y020456D02*
X026280Y020609D01*
X026203Y020609D02*
X026433Y020609D01*
X026433Y020456D02*
X026433Y020916D01*
X026203Y020916D01*
X026126Y020840D01*
X026126Y020686D01*
X026203Y020609D01*
X025973Y020763D02*
X025819Y020916D01*
X025819Y020456D01*
X025689Y022337D02*
X025569Y022458D01*
X025629Y022458D01*
X025629Y022518D01*
X025569Y022518D01*
X025569Y022458D01*
X025443Y022518D02*
X025383Y022458D01*
X025263Y022458D01*
X025203Y022518D01*
X025203Y022638D01*
X025263Y022698D01*
X025323Y022698D01*
X025443Y022638D01*
X025443Y022818D01*
X025203Y022818D01*
X025075Y022698D02*
X025075Y022458D01*
X024955Y022458D02*
X024955Y022638D01*
X024895Y022698D01*
X024835Y022638D01*
X024835Y022458D01*
X024707Y022458D02*
X024707Y022698D01*
X024647Y022698D01*
X024587Y022638D01*
X024527Y022698D01*
X024467Y022638D01*
X024467Y022458D01*
X024587Y022458D02*
X024587Y022638D01*
X024955Y022638D02*
X025015Y022698D01*
X025075Y022698D01*
X025817Y022758D02*
X026057Y022518D01*
X026057Y022458D01*
X026185Y022458D02*
X026426Y022458D01*
X026305Y022458D02*
X026305Y022818D01*
X026426Y022698D01*
X026554Y022698D02*
X026554Y022458D01*
X026554Y022638D02*
X026794Y022638D01*
X026794Y022698D02*
X026674Y022818D01*
X026554Y022698D01*
X026794Y022698D02*
X026794Y022458D01*
X026057Y022818D02*
X025817Y022818D01*
X025817Y022758D01*
X025784Y023722D02*
X025630Y023722D01*
X025554Y023799D01*
X025554Y023875D01*
X025630Y023952D01*
X025707Y023952D01*
X025630Y023952D02*
X025554Y024029D01*
X025554Y024105D01*
X025630Y024182D01*
X025784Y024182D01*
X025861Y024105D01*
X026014Y024182D02*
X026168Y024105D01*
X026321Y023952D01*
X026091Y023952D01*
X026014Y023875D01*
X026014Y023799D01*
X026091Y023722D01*
X026244Y023722D01*
X026321Y023799D01*
X026321Y023952D01*
X026344Y023964D02*
X026267Y023887D01*
X026113Y023887D01*
X026037Y023964D01*
X026037Y024041D01*
X026113Y024117D01*
X026190Y024117D01*
X026113Y024117D02*
X026037Y024194D01*
X026037Y024271D01*
X026113Y024348D01*
X026267Y024348D01*
X026344Y024271D01*
X026474Y024105D02*
X026474Y023952D01*
X026551Y023875D01*
X026781Y023875D01*
X026804Y023887D02*
X026497Y023887D01*
X026628Y023875D02*
X026474Y023722D01*
X026651Y023887D02*
X026651Y024348D01*
X026804Y024194D01*
X026781Y024182D02*
X026551Y024182D01*
X026474Y024105D01*
X026781Y024182D02*
X026781Y023722D01*
X026957Y023887D02*
X027111Y024041D01*
X027034Y024041D02*
X027264Y024041D01*
X027264Y023887D02*
X027264Y024348D01*
X027034Y024348D01*
X026957Y024271D01*
X026957Y024117D01*
X027034Y024041D01*
X025861Y023799D02*
X025784Y023722D01*
X022877Y023832D02*
X022800Y023755D01*
X022724Y023755D01*
X022647Y023832D01*
X022647Y024062D01*
X022800Y024062D02*
X022877Y023986D01*
X022877Y023832D01*
X022800Y024062D02*
X022493Y024062D01*
X022417Y023986D01*
X022417Y023832D01*
X022493Y023755D01*
X022647Y023602D02*
X022647Y023295D01*
X022877Y023525D01*
X022417Y023525D01*
X022417Y023142D02*
X022570Y022988D01*
X022570Y023065D02*
X022570Y022835D01*
X022417Y022835D02*
X022877Y022835D01*
X022877Y023065D01*
X022800Y023142D01*
X022647Y023142D01*
X022570Y023065D01*
X022430Y022526D02*
X022507Y022450D01*
X022507Y022219D01*
X022354Y022219D01*
X022277Y022296D01*
X022277Y022450D01*
X022354Y022526D01*
X022430Y022526D01*
X022660Y022373D02*
X022507Y022219D01*
X022507Y022066D02*
X022354Y022066D01*
X022277Y021989D01*
X022277Y021836D01*
X022354Y021759D01*
X022507Y021759D02*
X022584Y021912D01*
X022584Y021989D01*
X022507Y022066D01*
X022737Y022066D02*
X022737Y021759D01*
X022507Y021759D01*
X022507Y021605D02*
X022430Y021529D01*
X022430Y021299D01*
X022430Y021452D02*
X022277Y021605D01*
X022507Y021605D02*
X022660Y021605D01*
X022737Y021529D01*
X022737Y021299D01*
X022277Y021299D01*
X022660Y022373D02*
X022737Y022526D01*
X021237Y022886D02*
X021237Y023116D01*
X021160Y023193D01*
X021007Y023193D01*
X020930Y023116D01*
X020930Y022886D01*
X020777Y022886D02*
X021237Y022886D01*
X020930Y023039D02*
X020777Y023193D01*
X020854Y023346D02*
X020777Y023423D01*
X020777Y023576D01*
X020854Y023653D01*
X021007Y023653D01*
X021084Y023576D01*
X021084Y023500D01*
X021007Y023346D01*
X021237Y023346D01*
X021237Y023653D01*
X021160Y023807D02*
X021237Y023883D01*
X021237Y024037D01*
X021160Y024114D01*
X021084Y024114D01*
X021007Y024037D01*
X020930Y024114D01*
X020854Y024114D01*
X020777Y024037D01*
X020777Y023883D01*
X020854Y023807D01*
X021007Y023960D02*
X021007Y024037D01*
X020178Y024080D02*
X019948Y024080D01*
X019871Y024157D01*
X019871Y024310D01*
X019948Y024387D01*
X020178Y024387D01*
X020178Y023926D01*
X020144Y023796D02*
X019913Y023796D01*
X019837Y023873D01*
X019837Y024027D01*
X019913Y024103D01*
X020144Y024103D01*
X020144Y023643D01*
X019990Y023796D02*
X019837Y023643D01*
X019683Y023720D02*
X019606Y023643D01*
X019453Y023643D01*
X019376Y023720D01*
X019376Y023796D01*
X019453Y023873D01*
X019683Y023873D01*
X019683Y023720D01*
X019683Y023873D02*
X019530Y024027D01*
X019376Y024103D01*
X019410Y024080D02*
X019410Y024003D01*
X019487Y023926D01*
X019641Y023926D01*
X019717Y024003D01*
X019717Y024080D01*
X019641Y024157D01*
X019487Y024157D01*
X019410Y024080D01*
X019487Y024157D02*
X019410Y024233D01*
X019410Y024310D01*
X019487Y024387D01*
X019641Y024387D01*
X019717Y024310D01*
X019717Y024233D01*
X019641Y024157D01*
X019871Y023926D02*
X020024Y024080D01*
X019223Y024103D02*
X018916Y024103D01*
X018916Y024027D01*
X019223Y023720D01*
X019223Y023643D01*
X019219Y022818D02*
X019219Y022458D01*
X019339Y022458D02*
X019099Y022458D01*
X018971Y022458D02*
X018971Y022518D01*
X018730Y022758D01*
X018730Y022818D01*
X018971Y022818D01*
X019219Y022818D02*
X019339Y022698D01*
X019467Y022698D02*
X019467Y022458D01*
X019467Y022638D02*
X019707Y022638D01*
X019707Y022698D02*
X019587Y022818D01*
X019467Y022698D01*
X019707Y022698D02*
X019707Y022458D01*
X018602Y022337D02*
X018482Y022458D01*
X018542Y022458D01*
X018542Y022518D01*
X018482Y022518D01*
X018482Y022458D01*
X018357Y022518D02*
X018297Y022458D01*
X018177Y022458D01*
X018117Y022518D01*
X018117Y022638D01*
X018177Y022698D01*
X018237Y022698D01*
X018357Y022638D01*
X018357Y022818D01*
X018117Y022818D01*
X017988Y022698D02*
X017928Y022698D01*
X017868Y022638D01*
X017808Y022698D01*
X017748Y022638D01*
X017748Y022458D01*
X017868Y022458D02*
X017868Y022638D01*
X017988Y022698D02*
X017988Y022458D01*
X017620Y022458D02*
X017620Y022698D01*
X017560Y022698D01*
X017500Y022638D01*
X017440Y022698D01*
X017380Y022638D01*
X017380Y022458D01*
X017500Y022458D02*
X017500Y022638D01*
X015948Y022638D02*
X015948Y022868D01*
X015871Y022945D01*
X015718Y022945D01*
X015641Y022868D01*
X015641Y022638D01*
X015641Y022791D02*
X015487Y022945D01*
X015564Y023098D02*
X015487Y023175D01*
X015487Y023328D01*
X015564Y023405D01*
X015641Y023405D01*
X015718Y023328D01*
X015718Y023252D01*
X015718Y023328D02*
X015794Y023405D01*
X015871Y023405D01*
X015948Y023328D01*
X015948Y023175D01*
X015871Y023098D01*
X015948Y022638D02*
X015487Y022638D01*
X015487Y023559D02*
X015564Y023559D01*
X015871Y023866D01*
X015948Y023866D01*
X015948Y023559D01*
X014269Y023476D02*
X014269Y023707D01*
X014192Y023783D01*
X014039Y023783D01*
X013962Y023707D01*
X013962Y023476D01*
X013808Y023476D02*
X014269Y023476D01*
X013962Y023630D02*
X013808Y023783D01*
X014039Y023937D02*
X014039Y024244D01*
X014192Y024397D02*
X014269Y024474D01*
X014269Y024627D01*
X014192Y024704D01*
X014115Y024704D01*
X014039Y024627D01*
X013962Y024704D01*
X013885Y024704D01*
X013808Y024627D01*
X013808Y024474D01*
X013885Y024397D01*
X014039Y024551D02*
X014039Y024627D01*
X014269Y024167D02*
X014039Y023937D01*
X013808Y024167D02*
X014269Y024167D01*
X013254Y024123D02*
X013254Y024584D01*
X013024Y024584D01*
X012947Y024507D01*
X012947Y024354D01*
X013024Y024277D01*
X013254Y024277D01*
X013100Y024277D02*
X012947Y024123D01*
X012793Y024200D02*
X012717Y024123D01*
X012563Y024123D01*
X012487Y024200D01*
X012487Y024277D01*
X012563Y024354D01*
X012793Y024354D01*
X012793Y024200D01*
X012784Y024241D02*
X012938Y024395D01*
X012861Y024395D02*
X013091Y024395D01*
X013091Y024241D02*
X013091Y024702D01*
X012861Y024702D01*
X012784Y024625D01*
X012784Y024472D01*
X012861Y024395D01*
X012793Y024354D02*
X012640Y024507D01*
X012487Y024584D01*
X012477Y024625D02*
X012631Y024472D01*
X012401Y024472D01*
X012324Y024395D01*
X012324Y024318D01*
X012401Y024241D01*
X012554Y024241D01*
X012631Y024318D01*
X012631Y024472D01*
X012477Y024625D02*
X012324Y024702D01*
X012256Y024584D02*
X012333Y024507D01*
X012256Y024584D02*
X012103Y024584D01*
X012026Y024507D01*
X012026Y024430D01*
X012333Y024123D01*
X012026Y024123D01*
X012132Y022818D02*
X012132Y022458D01*
X012252Y022458D02*
X012012Y022458D01*
X011884Y022458D02*
X011884Y022518D01*
X011644Y022758D01*
X011644Y022818D01*
X011884Y022818D01*
X012132Y022818D02*
X012252Y022698D01*
X012380Y022698D02*
X012380Y022458D01*
X012380Y022638D02*
X012621Y022638D01*
X012621Y022698D02*
X012501Y022818D01*
X012380Y022698D01*
X012621Y022698D02*
X012621Y022458D01*
X011516Y022337D02*
X011396Y022458D01*
X011456Y022458D01*
X011456Y022518D01*
X011396Y022518D01*
X011396Y022458D01*
X011270Y022518D02*
X011210Y022458D01*
X011090Y022458D01*
X011030Y022518D01*
X011030Y022638D01*
X011090Y022698D01*
X011150Y022698D01*
X011270Y022638D01*
X011270Y022818D01*
X011030Y022818D01*
X010902Y022698D02*
X010842Y022698D01*
X010782Y022638D01*
X010722Y022698D01*
X010662Y022638D01*
X010662Y022458D01*
X010782Y022458D02*
X010782Y022638D01*
X010902Y022698D02*
X010902Y022458D01*
X010534Y022458D02*
X010534Y022698D01*
X010474Y022698D01*
X010413Y022638D01*
X010353Y022698D01*
X010293Y022638D01*
X010293Y022458D01*
X010413Y022458D02*
X010413Y022638D01*
X008782Y022756D02*
X008782Y022986D01*
X008706Y023063D01*
X008552Y023063D01*
X008476Y022986D01*
X008476Y022756D01*
X008476Y022909D02*
X008322Y023063D01*
X008552Y023216D02*
X008552Y023523D01*
X008399Y023677D02*
X008706Y023984D01*
X008782Y023984D01*
X008782Y023677D01*
X008782Y023447D02*
X008322Y023447D01*
X008322Y023677D02*
X008399Y023677D01*
X008782Y023447D02*
X008552Y023216D01*
X008322Y022756D02*
X008782Y022756D01*
X007379Y023516D02*
X007379Y023746D01*
X007302Y023823D01*
X007149Y023823D01*
X007072Y023746D01*
X007072Y023516D01*
X007186Y023481D02*
X006955Y023481D01*
X006879Y023405D01*
X006879Y023251D01*
X006955Y023174D01*
X007186Y023174D01*
X007186Y023021D02*
X007186Y023481D01*
X007379Y023516D02*
X006919Y023516D01*
X007072Y023669D02*
X006919Y023823D01*
X006813Y023883D02*
X006583Y023883D01*
X006506Y023960D01*
X006506Y024113D01*
X006583Y024190D01*
X006813Y024190D01*
X006813Y023730D01*
X006659Y023883D02*
X006506Y023730D01*
X006352Y023806D02*
X006352Y023960D01*
X006122Y023960D01*
X006046Y023883D01*
X006046Y023806D01*
X006122Y023730D01*
X006276Y023730D01*
X006352Y023806D01*
X006352Y023960D02*
X006199Y024113D01*
X006046Y024190D01*
X005892Y023960D02*
X005662Y023960D01*
X005585Y023883D01*
X005585Y023806D01*
X005662Y023730D01*
X005815Y023730D01*
X005892Y023806D01*
X005892Y023960D01*
X005739Y024113D01*
X005585Y024190D01*
X006495Y023481D02*
X006725Y023251D01*
X006418Y023251D01*
X006495Y023021D02*
X006495Y023481D01*
X006879Y023021D02*
X007032Y023174D01*
X006995Y023976D02*
X006919Y024053D01*
X006919Y024206D01*
X006995Y024283D01*
X007149Y024283D01*
X007225Y024206D01*
X007225Y024130D01*
X007149Y023976D01*
X007379Y023976D01*
X007379Y024283D01*
X007225Y024437D02*
X007379Y024590D01*
X006919Y024590D01*
X006919Y024437D02*
X006919Y024744D01*
X005414Y022818D02*
X005294Y022698D01*
X005294Y022458D01*
X005166Y022458D02*
X004926Y022458D01*
X005046Y022458D02*
X005046Y022818D01*
X005166Y022698D01*
X005294Y022638D02*
X005534Y022638D01*
X005534Y022698D02*
X005414Y022818D01*
X005534Y022698D02*
X005534Y022458D01*
X005509Y021802D02*
X005202Y021802D01*
X005279Y021649D02*
X005202Y021572D01*
X005202Y021419D01*
X005279Y021342D01*
X005432Y021342D01*
X005509Y021419D01*
X005509Y021572D02*
X005355Y021649D01*
X005279Y021649D01*
X005509Y021572D02*
X005509Y021802D01*
X005662Y021726D02*
X005662Y021572D01*
X005739Y021495D01*
X005969Y021495D01*
X005969Y021342D02*
X005969Y021802D01*
X005739Y021802D01*
X005662Y021726D01*
X005816Y021495D02*
X005662Y021342D01*
X004797Y022458D02*
X004797Y022518D01*
X004557Y022758D01*
X004557Y022818D01*
X004797Y022818D01*
X004429Y022337D02*
X004309Y022458D01*
X004369Y022458D01*
X004369Y022518D01*
X004309Y022518D01*
X004309Y022458D01*
X004184Y022518D02*
X004124Y022458D01*
X004003Y022458D01*
X003943Y022518D01*
X003943Y022638D01*
X004003Y022698D01*
X004063Y022698D01*
X004184Y022638D01*
X004184Y022818D01*
X003943Y022818D01*
X003815Y022698D02*
X003755Y022698D01*
X003695Y022638D01*
X003635Y022698D01*
X003575Y022638D01*
X003575Y022458D01*
X003695Y022458D02*
X003695Y022638D01*
X003815Y022698D02*
X003815Y022458D01*
X003447Y022458D02*
X003447Y022698D01*
X003387Y022698D01*
X003327Y022638D01*
X003267Y022698D01*
X003207Y022638D01*
X003207Y022458D01*
X003327Y022458D02*
X003327Y022638D01*
X002405Y022671D02*
X002405Y022441D01*
X001944Y022441D01*
X002098Y022441D02*
X002098Y022671D01*
X002174Y022748D01*
X002328Y022748D01*
X002405Y022671D01*
X002328Y022901D02*
X002405Y022978D01*
X002405Y023132D01*
X002328Y023208D01*
X002251Y023208D01*
X002174Y023132D01*
X002098Y023208D01*
X002021Y023208D01*
X001944Y023132D01*
X001944Y022978D01*
X002021Y022901D01*
X001944Y022748D02*
X002098Y022594D01*
X002174Y023055D02*
X002174Y023132D01*
X002174Y023362D02*
X002251Y023515D01*
X002251Y023592D01*
X002174Y023669D01*
X002021Y023669D01*
X001944Y023592D01*
X001944Y023439D01*
X002021Y023362D01*
X002174Y023362D02*
X002405Y023362D01*
X002405Y023669D01*
X001395Y023616D02*
X001164Y023386D01*
X001164Y023693D01*
X001011Y023846D02*
X001318Y024153D01*
X001011Y024153D01*
X000934Y024076D01*
X000934Y023923D01*
X001011Y023846D01*
X001318Y023846D01*
X001395Y023923D01*
X001395Y024076D01*
X001318Y024153D01*
X001395Y023616D02*
X000934Y023616D01*
X000934Y023232D02*
X001088Y023079D01*
X001088Y023155D02*
X001088Y022925D01*
X000934Y022925D02*
X001395Y022925D01*
X001395Y023155D01*
X001318Y023232D01*
X001164Y023232D01*
X001088Y023155D01*
X000934Y022184D02*
X000934Y021878D01*
X000934Y022031D02*
X001395Y022031D01*
X001241Y021878D01*
X001164Y021724D02*
X001164Y021417D01*
X001395Y021647D01*
X000934Y021647D01*
X000934Y021264D02*
X001088Y021110D01*
X001088Y021187D02*
X001088Y020957D01*
X000934Y020957D02*
X001395Y020957D01*
X001395Y021187D01*
X001318Y021264D01*
X001164Y021264D01*
X001088Y021187D01*
X003891Y014298D02*
X003891Y013991D01*
X003891Y014144D02*
X004351Y014144D01*
X004198Y013991D01*
X004198Y013838D02*
X004121Y013761D01*
X004044Y013838D01*
X003968Y013838D01*
X003891Y013761D01*
X003891Y013607D01*
X003968Y013531D01*
X003891Y013377D02*
X004044Y013224D01*
X004044Y013300D02*
X004044Y013070D01*
X003891Y013070D02*
X004351Y013070D01*
X004351Y013300D01*
X004275Y013377D01*
X004121Y013377D01*
X004044Y013300D01*
X004275Y013531D02*
X004351Y013607D01*
X004351Y013761D01*
X004275Y013838D01*
X004198Y013838D01*
X004121Y013761D02*
X004121Y013684D01*
X004442Y013923D02*
X004442Y013999D01*
X004519Y014076D01*
X004672Y014076D01*
X004749Y014153D01*
X004749Y014229D01*
X004672Y014306D01*
X004519Y014306D01*
X004442Y014229D01*
X004442Y014153D01*
X004519Y014076D01*
X004672Y014076D02*
X004749Y013999D01*
X004749Y013923D01*
X004672Y013846D01*
X004519Y013846D01*
X004442Y013923D01*
X004903Y013846D02*
X005210Y013846D01*
X005363Y013846D02*
X005516Y013999D01*
X005440Y013999D02*
X005670Y013999D01*
X005670Y013846D02*
X005670Y014306D01*
X005440Y014306D01*
X005363Y014229D01*
X005363Y014076D01*
X005440Y013999D01*
X005210Y014153D02*
X005056Y014306D01*
X005056Y013846D01*
X005997Y013127D02*
X006151Y013050D01*
X006304Y012897D01*
X006074Y012897D01*
X005997Y012820D01*
X005997Y012743D01*
X006074Y012667D01*
X006227Y012667D01*
X006304Y012743D01*
X006304Y012897D01*
X006458Y012667D02*
X006765Y012667D01*
X006918Y012667D02*
X007072Y012820D01*
X006995Y012820D02*
X007225Y012820D01*
X007225Y012667D02*
X007225Y013127D01*
X006995Y013127D01*
X006918Y013050D01*
X006918Y012897D01*
X006995Y012820D01*
X006765Y012974D02*
X006611Y013127D01*
X006611Y012667D01*
X006686Y011048D02*
X006609Y010972D01*
X006609Y010818D01*
X006686Y010741D01*
X006916Y010741D01*
X006916Y010588D02*
X006916Y011048D01*
X006686Y011048D01*
X006762Y010741D02*
X006609Y010588D01*
X006456Y010665D02*
X006379Y010588D01*
X006225Y010588D01*
X006149Y010665D01*
X006149Y010741D01*
X006225Y010818D01*
X006456Y010818D01*
X006456Y010665D01*
X006456Y010818D02*
X006302Y010972D01*
X006149Y011048D01*
X005995Y010818D02*
X005688Y010818D01*
X005765Y010588D02*
X005765Y011048D01*
X005995Y010818D01*
X004798Y010969D02*
X004722Y010893D01*
X004415Y010893D01*
X004722Y011199D01*
X004415Y011199D01*
X004338Y011123D01*
X004338Y010969D01*
X004415Y010893D01*
X004415Y010739D02*
X004338Y010662D01*
X004338Y010509D01*
X004415Y010432D01*
X004338Y010279D02*
X004491Y010125D01*
X004491Y010202D02*
X004491Y009972D01*
X004338Y009972D02*
X004798Y009972D01*
X004798Y010202D01*
X004722Y010279D01*
X004568Y010279D01*
X004491Y010202D01*
X004722Y010432D02*
X004798Y010509D01*
X004798Y010662D01*
X004722Y010739D01*
X004645Y010739D01*
X004568Y010662D01*
X004491Y010739D01*
X004415Y010739D01*
X004568Y010662D02*
X004568Y010586D01*
X004798Y010969D02*
X004798Y011123D01*
X004722Y011199D01*
X004529Y012078D02*
X004529Y012318D01*
X004409Y012438D01*
X004289Y012318D01*
X004289Y012078D01*
X004161Y012078D02*
X003920Y012078D01*
X004040Y012078D02*
X004040Y012438D01*
X004161Y012318D01*
X004289Y012258D02*
X004529Y012258D01*
X003792Y012138D02*
X003792Y012078D01*
X003792Y012138D02*
X003552Y012378D01*
X003552Y012438D01*
X003792Y012438D01*
X003364Y012138D02*
X003364Y012078D01*
X003304Y012078D01*
X003304Y012138D01*
X003364Y012138D01*
X003304Y012078D02*
X003424Y011958D01*
X003178Y012138D02*
X003118Y012078D01*
X002998Y012078D01*
X002938Y012138D01*
X002938Y012258D01*
X002998Y012318D01*
X003058Y012318D01*
X003178Y012258D01*
X003178Y012438D01*
X002938Y012438D01*
X002810Y012318D02*
X002810Y012078D01*
X002690Y012078D02*
X002690Y012258D01*
X002630Y012318D01*
X002570Y012258D01*
X002570Y012078D01*
X002442Y012078D02*
X002442Y012318D01*
X002382Y012318D01*
X002322Y012258D01*
X002262Y012318D01*
X002202Y012258D01*
X002202Y012078D01*
X002322Y012078D02*
X002322Y012258D01*
X002690Y012258D02*
X002750Y012318D01*
X002810Y012318D01*
X009288Y012258D02*
X009288Y012078D01*
X009408Y012078D02*
X009408Y012258D01*
X009348Y012318D01*
X009288Y012258D01*
X009408Y012258D02*
X009468Y012318D01*
X009528Y012318D01*
X009528Y012078D01*
X009656Y012078D02*
X009656Y012258D01*
X009717Y012318D01*
X009777Y012258D01*
X009777Y012078D01*
X009897Y012078D02*
X009897Y012318D01*
X009837Y012318D01*
X009777Y012258D01*
X010025Y012258D02*
X010085Y012318D01*
X010145Y012318D01*
X010265Y012258D01*
X010265Y012438D01*
X010025Y012438D01*
X010025Y012258D02*
X010025Y012138D01*
X010085Y012078D01*
X010205Y012078D01*
X010265Y012138D01*
X010390Y012138D02*
X010450Y012138D01*
X010450Y012078D01*
X010390Y012078D01*
X010390Y012138D01*
X010390Y012078D02*
X010511Y011958D01*
X010471Y011867D02*
X010625Y011867D01*
X010702Y011790D01*
X010855Y011790D02*
X010855Y011637D01*
X010932Y011560D01*
X011162Y011560D01*
X011162Y011407D02*
X011162Y011867D01*
X010932Y011867D01*
X010855Y011790D01*
X011009Y011560D02*
X010855Y011407D01*
X010702Y011407D02*
X010395Y011714D01*
X010395Y011790D01*
X010471Y011867D01*
X010241Y011790D02*
X010241Y011714D01*
X010165Y011637D01*
X010011Y011637D01*
X009934Y011560D01*
X009934Y011484D01*
X010011Y011407D01*
X010165Y011407D01*
X010241Y011484D01*
X010241Y011560D01*
X010165Y011637D01*
X010011Y011637D02*
X009934Y011714D01*
X009934Y011790D01*
X010011Y011867D01*
X010165Y011867D01*
X010241Y011790D01*
X010395Y011407D02*
X010702Y011407D01*
X010879Y012078D02*
X010879Y012138D01*
X010639Y012378D01*
X010639Y012438D01*
X010879Y012438D01*
X011127Y012438D02*
X011127Y012078D01*
X011247Y012078D02*
X011007Y012078D01*
X011247Y012318D02*
X011127Y012438D01*
X011375Y012318D02*
X011375Y012078D01*
X011375Y012258D02*
X011615Y012258D01*
X011615Y012318D02*
X011615Y012078D01*
X011615Y012318D02*
X011495Y012438D01*
X011375Y012318D01*
X011619Y013257D02*
X011619Y013334D01*
X011312Y013641D01*
X011312Y013718D01*
X011619Y013718D01*
X011773Y013641D02*
X011773Y013564D01*
X012080Y013257D01*
X011773Y013257D01*
X012233Y013257D02*
X012387Y013411D01*
X012310Y013411D02*
X012540Y013411D01*
X012540Y013257D02*
X012540Y013718D01*
X012310Y013718D01*
X012233Y013641D01*
X012233Y013487D01*
X012310Y013411D01*
X012080Y013641D02*
X012003Y013718D01*
X011849Y013718D01*
X011773Y013641D01*
X011733Y014397D02*
X011733Y014474D01*
X011426Y014781D01*
X011426Y014857D01*
X011733Y014857D01*
X012040Y014857D02*
X012040Y014397D01*
X011887Y014397D02*
X012194Y014397D01*
X012347Y014397D02*
X012501Y014550D01*
X012424Y014550D02*
X012654Y014550D01*
X012654Y014397D02*
X012654Y014857D01*
X012424Y014857D01*
X012347Y014781D01*
X012347Y014627D01*
X012424Y014550D01*
X012194Y014704D02*
X012040Y014857D01*
X010340Y014221D02*
X010263Y014298D01*
X010186Y014298D01*
X010109Y014221D01*
X010033Y014298D01*
X009956Y014298D01*
X009879Y014221D01*
X009879Y014068D01*
X009956Y013991D01*
X009879Y013838D02*
X009879Y013531D01*
X010186Y013838D01*
X010263Y013838D01*
X010340Y013761D01*
X010340Y013607D01*
X010263Y013531D01*
X010263Y013377D02*
X010109Y013377D01*
X010033Y013300D01*
X010033Y013070D01*
X010033Y013224D02*
X009879Y013377D01*
X009879Y013070D02*
X010340Y013070D01*
X010340Y013300D01*
X010263Y013377D01*
X010263Y013991D02*
X010340Y014068D01*
X010340Y014221D01*
X010109Y014221D02*
X010109Y014144D01*
X011779Y011088D02*
X011779Y010627D01*
X011932Y010627D02*
X011625Y010627D01*
X011932Y010934D02*
X011779Y011088D01*
X012086Y011088D02*
X012239Y011011D01*
X012393Y010857D01*
X012162Y010857D01*
X012086Y010781D01*
X012086Y010704D01*
X012162Y010627D01*
X012316Y010627D01*
X012393Y010704D01*
X012393Y010857D01*
X012546Y010857D02*
X012623Y010781D01*
X012853Y010781D01*
X012700Y010781D02*
X012546Y010627D01*
X012546Y010857D02*
X012546Y011011D01*
X012623Y011088D01*
X012853Y011088D01*
X012853Y010627D01*
X013690Y010748D02*
X014151Y010748D01*
X014151Y010978D01*
X014074Y011055D01*
X013920Y011055D01*
X013844Y010978D01*
X013844Y010748D01*
X013844Y010901D02*
X013690Y011055D01*
X013767Y011208D02*
X013690Y011285D01*
X013690Y011438D01*
X013767Y011515D01*
X014074Y011515D01*
X014151Y011438D01*
X014151Y011285D01*
X014074Y011208D01*
X013997Y011208D01*
X013920Y011285D01*
X013920Y011515D01*
X018190Y014552D02*
X018267Y014476D01*
X018420Y014476D01*
X018497Y014552D01*
X018190Y014859D01*
X018190Y014552D01*
X018497Y014552D02*
X018497Y014859D01*
X018420Y014936D01*
X018267Y014936D01*
X018190Y014859D01*
X018651Y014859D02*
X018727Y014936D01*
X018881Y014936D01*
X018958Y014859D01*
X019111Y014859D02*
X019111Y014706D01*
X019188Y014629D01*
X019418Y014629D01*
X019418Y014476D02*
X019418Y014936D01*
X019188Y014936D01*
X019111Y014859D01*
X019264Y014629D02*
X019111Y014476D01*
X018958Y014476D02*
X018651Y014783D01*
X018651Y014859D01*
X018651Y014476D02*
X018958Y014476D01*
X018985Y020464D02*
X019138Y020617D01*
X019061Y020617D02*
X019291Y020617D01*
X019291Y020464D02*
X019291Y020924D01*
X019061Y020924D01*
X018985Y020848D01*
X018985Y020694D01*
X019061Y020617D01*
X018831Y020541D02*
X018831Y020464D01*
X018831Y020541D02*
X018524Y020848D01*
X018524Y020924D01*
X018831Y020924D01*
X012528Y020759D02*
X012528Y020299D01*
X012528Y020452D02*
X012297Y020452D01*
X012221Y020529D01*
X012221Y020682D01*
X012297Y020759D01*
X012528Y020759D01*
X012374Y020452D02*
X012221Y020299D01*
X012067Y020375D02*
X011991Y020299D01*
X011837Y020299D01*
X011760Y020375D01*
X011760Y020452D01*
X011837Y020529D01*
X011914Y020529D01*
X011837Y020529D02*
X011760Y020605D01*
X011760Y020682D01*
X011837Y020759D01*
X011991Y020759D01*
X012067Y020682D01*
D14*
X002194Y007918D02*
X002044Y007918D01*
X001969Y007993D01*
X001969Y008068D01*
X002044Y008143D01*
X002194Y008143D01*
X002269Y008218D01*
X002269Y008293D01*
X002194Y008368D01*
X002044Y008368D01*
X001969Y008293D01*
X001969Y008218D01*
X002044Y008143D01*
X002194Y008143D02*
X002269Y008068D01*
X002269Y007993D01*
X002194Y007918D01*
X002429Y007918D02*
X002654Y008143D01*
X002729Y008068D02*
X002429Y008368D01*
X002729Y008368D02*
X002729Y007918D01*
X002889Y007918D02*
X003115Y008143D01*
X003190Y008068D02*
X002889Y008368D01*
X003190Y008368D02*
X003190Y007918D01*
X009055Y008293D02*
X009355Y007993D01*
X009355Y007918D01*
X009516Y007918D02*
X009741Y008143D01*
X009816Y008068D02*
X009516Y008368D01*
X009355Y008368D02*
X009055Y008368D01*
X009055Y008293D01*
X009816Y008368D02*
X009816Y007918D01*
X009976Y007918D02*
X010201Y008143D01*
X010276Y008068D02*
X009976Y008368D01*
X010276Y008368D02*
X010276Y007918D01*
X015945Y007993D02*
X015945Y008068D01*
X016020Y008143D01*
X016245Y008143D01*
X016245Y007993D01*
X016170Y007918D01*
X016020Y007918D01*
X015945Y007993D01*
X016095Y008293D02*
X016245Y008143D01*
X016095Y008293D02*
X015945Y008368D01*
X016405Y008368D02*
X016706Y008068D01*
X016631Y008143D02*
X016405Y007918D01*
X016706Y007918D02*
X016706Y008368D01*
X016866Y008368D02*
X017166Y008068D01*
X017091Y008143D02*
X016866Y007918D01*
X017166Y007918D02*
X017166Y008368D01*
X023425Y008368D02*
X023726Y008368D01*
X023726Y008143D01*
X023575Y008218D01*
X023500Y008218D01*
X023425Y008143D01*
X023425Y007993D01*
X023500Y007918D01*
X023650Y007918D01*
X023726Y007993D01*
X023886Y007918D02*
X024111Y008143D01*
X024186Y008068D02*
X023886Y008368D01*
X024186Y008368D02*
X024186Y007918D01*
X024346Y007918D02*
X024571Y008143D01*
X024646Y008068D02*
X024346Y008368D01*
X024646Y008368D02*
X024646Y007918D01*
X025828Y026607D02*
X026128Y026607D01*
X025828Y026907D01*
X025828Y026982D01*
X025903Y027057D01*
X026053Y027057D01*
X026128Y026982D01*
X026288Y027057D02*
X026589Y026757D01*
X026513Y026832D02*
X026288Y026607D01*
X026589Y026607D02*
X026589Y027057D01*
X026749Y027057D02*
X027049Y026757D01*
X026974Y026832D02*
X026749Y026607D01*
X027049Y026607D02*
X027049Y027057D01*
X019962Y027057D02*
X019962Y026607D01*
X019962Y026757D02*
X019662Y027057D01*
X019502Y027057D02*
X019502Y026607D01*
X019502Y026757D02*
X019202Y027057D01*
X019042Y026907D02*
X018891Y027057D01*
X018891Y026607D01*
X018741Y026607D02*
X019042Y026607D01*
X019202Y026607D02*
X019427Y026832D01*
X019662Y026607D02*
X019887Y026832D01*
X012876Y026757D02*
X012575Y027057D01*
X012415Y027057D02*
X012415Y026607D01*
X012415Y026757D02*
X012115Y027057D01*
X011955Y026982D02*
X011880Y027057D01*
X011730Y027057D01*
X011655Y026982D01*
X011655Y026907D01*
X011730Y026832D01*
X011655Y026757D01*
X011655Y026682D01*
X011730Y026607D01*
X011880Y026607D01*
X011955Y026682D01*
X012115Y026607D02*
X012340Y026832D01*
X012575Y026607D02*
X012801Y026832D01*
X012876Y027057D02*
X012876Y026607D01*
X011805Y026832D02*
X011730Y026832D01*
X005789Y026757D02*
X005489Y027057D01*
X005329Y027057D02*
X005329Y026607D01*
X005329Y026757D02*
X005028Y027057D01*
X004868Y026832D02*
X004568Y026832D01*
X004643Y026607D02*
X004643Y027057D01*
X004868Y026832D01*
X005028Y026607D02*
X005254Y026832D01*
X005489Y026607D02*
X005714Y026832D01*
X005789Y027057D02*
X005789Y026607D01*
D15*
X006234Y023862D03*
X006234Y022362D03*
X006234Y020862D03*
X006234Y019362D03*
X008471Y019362D03*
X008471Y020862D03*
X008471Y022362D03*
X008471Y023862D03*
X013321Y023862D03*
X013321Y022362D03*
X013321Y020862D03*
X013321Y019362D03*
X015557Y019362D03*
X015557Y020862D03*
X015557Y022362D03*
X015557Y023862D03*
X020407Y023862D03*
X020407Y022362D03*
X020407Y020862D03*
X020407Y019362D03*
X022644Y019362D03*
X022644Y020862D03*
X022644Y022362D03*
X022644Y023862D03*
X027494Y023862D03*
X027494Y022362D03*
X027494Y020862D03*
X027494Y019362D03*
X027720Y015613D03*
X027720Y014113D03*
X027720Y012613D03*
X027720Y011113D03*
X022870Y011113D03*
X022870Y012613D03*
X022870Y014113D03*
X022870Y015613D03*
X020240Y015613D03*
X020240Y014113D03*
X020240Y012613D03*
X020240Y011113D03*
X015390Y011113D03*
X015390Y012613D03*
X015390Y014113D03*
X015390Y015613D03*
X013350Y015613D03*
X013350Y014113D03*
X013350Y012613D03*
X013350Y011113D03*
X008500Y011113D03*
X008500Y012613D03*
X008500Y014113D03*
X008500Y015613D03*
X006263Y015613D03*
X006263Y014113D03*
X006263Y012613D03*
X006263Y011113D03*
X001413Y011113D03*
X001413Y012613D03*
X001413Y014113D03*
X001413Y015613D03*
X001384Y019362D03*
X001384Y020862D03*
X001384Y022362D03*
X001384Y023862D03*
D16*
X001384Y025487D03*
X006234Y025487D03*
X008471Y025487D03*
X013321Y025487D03*
X015557Y025487D03*
X020407Y025487D03*
X022644Y025487D03*
X027494Y025487D03*
X027720Y009488D03*
X022870Y009488D03*
X020240Y009488D03*
X015390Y009488D03*
X013350Y009488D03*
X008500Y009488D03*
X006263Y009488D03*
X001413Y009488D03*
M02*
