G75*
G70*
%OFA0B0*%
%FSLAX24Y24*%
%IPPOS*%
%LPD*%
%AMOC8*
5,1,8,0,0,1.08239X$1,22.5*
%
%ADD10R,0.0701X0.0598*%
%ADD11C,0.0594*%
%ADD12OC8,0.0520*%
%ADD13R,0.1260X0.0709*%
%ADD14R,0.0710X0.0630*%
%ADD15R,0.0630X0.0710*%
%ADD16C,0.1772*%
D10*
X005233Y009749D03*
X006233Y009749D03*
X007233Y009749D03*
X007233Y013406D03*
X006233Y013406D03*
X005233Y013406D03*
X010773Y013958D03*
X011773Y013958D03*
X012773Y013958D03*
X012773Y010300D03*
X011773Y010300D03*
X010773Y010300D03*
X017139Y010261D03*
X018139Y010261D03*
X019139Y010261D03*
X019139Y013918D03*
X018139Y013918D03*
X017139Y013918D03*
X018261Y020808D03*
X019261Y020808D03*
X020261Y020808D03*
X020261Y024466D03*
X019261Y024466D03*
X018261Y024466D03*
X013635Y024466D03*
X012635Y024466D03*
X011635Y024466D03*
X011635Y020808D03*
X012635Y020808D03*
X013635Y020808D03*
X006930Y020808D03*
X005930Y020808D03*
X004930Y020808D03*
X004930Y024466D03*
X005930Y024466D03*
X006930Y024466D03*
X024469Y013930D03*
X025469Y013930D03*
X026469Y013930D03*
X026469Y010273D03*
X025469Y010273D03*
X024469Y010273D03*
X024769Y020808D03*
X025769Y020808D03*
X026769Y020808D03*
X026769Y024466D03*
X025769Y024466D03*
X024769Y024466D03*
D11*
X025064Y019103D02*
X025064Y018509D01*
X026064Y018509D02*
X026064Y019103D01*
X024064Y019103D02*
X024064Y018509D01*
X024300Y016386D02*
X024300Y015793D01*
X025300Y015793D02*
X025300Y016386D01*
X026300Y016386D02*
X026300Y015793D01*
X018820Y015793D02*
X018820Y016386D01*
X017820Y016386D02*
X017820Y015793D01*
X016820Y015793D02*
X016820Y016386D01*
X016977Y018509D02*
X016977Y019103D01*
X017977Y019103D02*
X017977Y018509D01*
X018977Y018509D02*
X018977Y019103D01*
X011891Y019103D02*
X011891Y018509D01*
X010891Y018509D02*
X010891Y019103D01*
X009891Y019103D02*
X009891Y018509D01*
X009930Y016386D02*
X009930Y015793D01*
X010930Y015793D02*
X010930Y016386D01*
X011930Y016386D02*
X011930Y015793D01*
X004843Y015793D02*
X004843Y016386D01*
X003843Y016386D02*
X003843Y015793D01*
X002843Y015793D02*
X002843Y016386D01*
X002804Y018509D02*
X002804Y019103D01*
X003804Y019103D02*
X003804Y018509D01*
X004804Y018509D02*
X004804Y019103D01*
D12*
X003855Y020759D03*
X001855Y020759D03*
X001517Y015086D03*
X001517Y013086D03*
X005658Y014373D03*
X007658Y014373D03*
X008473Y020759D03*
X010473Y020759D03*
X015135Y020798D03*
X017135Y020798D03*
X021469Y020798D03*
X023469Y020798D03*
X022773Y014342D03*
X020773Y014342D03*
X015840Y014342D03*
X013840Y014342D03*
D13*
X015379Y012645D03*
X015379Y010440D03*
X008950Y009873D03*
X008950Y012078D03*
X003568Y012054D03*
X003568Y009849D03*
X003174Y021818D03*
X003174Y024023D03*
X010025Y024338D03*
X010025Y022133D03*
X016717Y021897D03*
X016717Y024101D03*
X023174Y024259D03*
X023174Y022054D03*
X022151Y012842D03*
X022151Y010637D03*
D14*
X020536Y010116D03*
X020536Y011236D03*
X020536Y012124D03*
X020536Y013244D03*
X014001Y011472D03*
X014001Y010353D03*
X009473Y012990D03*
X008568Y012990D03*
X008568Y014110D03*
X009473Y014110D03*
X003371Y014110D03*
X003371Y012990D03*
X008607Y021770D03*
X008607Y022890D03*
X008607Y023738D03*
X008607Y024858D03*
X015261Y024897D03*
X015261Y023778D03*
X015261Y022929D03*
X015261Y021809D03*
X021757Y023187D03*
X021757Y024307D03*
X001914Y024346D03*
X001914Y023227D03*
D15*
X002317Y012133D03*
X001197Y012133D03*
D16*
X003154Y002668D02*
X004926Y002668D01*
X004926Y007818D02*
X003154Y007818D01*
X010753Y007897D02*
X012525Y007897D01*
X012525Y002747D02*
X010753Y002747D01*
X017170Y002589D02*
X018942Y002589D01*
X018942Y007739D02*
X017170Y007739D01*
X024651Y007976D02*
X026422Y007976D01*
X026422Y002826D02*
X024651Y002826D01*
X018863Y026172D02*
X017091Y026172D01*
X017091Y031322D02*
X018863Y031322D01*
X024336Y031480D02*
X026107Y031480D01*
X026107Y026330D02*
X024336Y026330D01*
X011816Y026211D02*
X010044Y026211D01*
X010044Y031361D02*
X011816Y031361D01*
X004651Y031283D02*
X002879Y031283D01*
X002879Y026133D02*
X004651Y026133D01*
M02*
