G75*
G70*
%OFA0B0*%
%FSLAX24Y24*%
%IPPOS*%
%LPD*%
%AMOC8*
5,1,8,0,0,1.08239X$1,22.5*
%
%ADD10C,0.0594*%
%ADD11R,0.0394X0.0433*%
%ADD12R,0.0630X0.0710*%
%ADD13OC8,0.0520*%
%ADD14R,0.0433X0.0394*%
%ADD15R,0.0710X0.0630*%
%ADD16R,0.0709X0.1260*%
%ADD17R,0.1260X0.0709*%
%ADD18C,0.1772*%
D10*
X002843Y015793D02*
X002843Y016386D01*
X003843Y016386D02*
X003843Y015793D01*
X004843Y015793D02*
X004843Y016386D01*
X004804Y018509D02*
X004804Y019103D01*
X003804Y019103D02*
X003804Y018509D01*
X002804Y018509D02*
X002804Y019103D01*
X009891Y019103D02*
X009891Y018509D01*
X010891Y018509D02*
X010891Y019103D01*
X011891Y019103D02*
X011891Y018509D01*
X011930Y016386D02*
X011930Y015793D01*
X010930Y015793D02*
X010930Y016386D01*
X009930Y016386D02*
X009930Y015793D01*
X016820Y015793D02*
X016820Y016386D01*
X017820Y016386D02*
X017820Y015793D01*
X018820Y015793D02*
X018820Y016386D01*
X018977Y018509D02*
X018977Y019103D01*
X017977Y019103D02*
X017977Y018509D01*
X016977Y018509D02*
X016977Y019103D01*
X024064Y019103D02*
X024064Y018509D01*
X025064Y018509D02*
X025064Y019103D01*
X026064Y019103D02*
X026064Y018509D01*
X026300Y016386D02*
X026300Y015793D01*
X025300Y015793D02*
X025300Y016386D01*
X024300Y016386D02*
X024300Y015793D01*
D11*
X026556Y010318D03*
X027225Y010318D03*
X026005Y024452D03*
X025336Y024452D03*
X019367Y024373D03*
X018698Y024373D03*
X012477Y024853D03*
X011808Y024853D03*
X006036Y024460D03*
X005367Y024460D03*
X006351Y010318D03*
X007021Y010318D03*
X012288Y010357D03*
X012958Y010357D03*
D12*
X012734Y013877D03*
X011614Y013877D03*
X005750Y013326D03*
X004630Y013326D03*
X004929Y020822D03*
X006049Y020822D03*
X011567Y021279D03*
X012687Y021279D03*
X018331Y021444D03*
X019451Y021444D03*
X025473Y021436D03*
X026592Y021436D03*
X027033Y014192D03*
X025914Y014192D03*
X019498Y013956D03*
X018378Y013956D03*
D13*
X020773Y014342D03*
X022773Y014342D03*
X023469Y020798D03*
X021469Y020798D03*
X017135Y020798D03*
X015135Y020798D03*
X010473Y020759D03*
X008473Y020759D03*
X003855Y020759D03*
X001855Y020759D03*
X001517Y015086D03*
X001517Y013086D03*
X005658Y014373D03*
X007658Y014373D03*
X013840Y014342D03*
X015840Y014342D03*
D14*
X019312Y011263D03*
X019312Y010594D03*
D15*
X021914Y010431D03*
X021914Y011551D03*
X014670Y011708D03*
X014670Y012636D03*
X014670Y013756D03*
X014670Y010589D03*
X009359Y012990D03*
X009359Y014110D03*
X003371Y014110D03*
X003371Y012990D03*
X001914Y021258D03*
X001914Y022378D03*
X001914Y023227D03*
X001914Y024346D03*
X007899Y023817D03*
X007899Y024937D03*
X014788Y024897D03*
X014788Y023778D03*
X021757Y024307D03*
X021757Y023187D03*
X021757Y022338D03*
X021757Y021219D03*
D16*
X020300Y023156D03*
X018095Y023156D03*
X013214Y023471D03*
X011009Y023471D03*
X007308Y022251D03*
X005103Y022251D03*
X010458Y012487D03*
X011284Y010637D03*
X012662Y012487D03*
X016166Y010401D03*
X018371Y010401D03*
X023371Y010519D03*
X025576Y010519D03*
X025182Y023117D03*
X027387Y023117D03*
X009080Y010637D03*
X007347Y011897D03*
X005143Y011897D03*
D17*
X003568Y012054D03*
X003568Y009849D03*
X003174Y021700D03*
X003174Y023905D03*
X009552Y024219D03*
X009552Y022015D03*
X016717Y021897D03*
X016717Y024101D03*
X023647Y024298D03*
X023647Y022094D03*
X024513Y014062D03*
X024513Y011857D03*
X016914Y011818D03*
X016914Y014023D03*
D18*
X004926Y002668D02*
X003154Y002668D01*
X003154Y007818D02*
X004926Y007818D01*
X010753Y007897D02*
X012525Y007897D01*
X012525Y002747D02*
X010753Y002747D01*
X017170Y002589D02*
X018942Y002589D01*
X018942Y007739D02*
X017170Y007739D01*
X024651Y007976D02*
X026422Y007976D01*
X026422Y002826D02*
X024651Y002826D01*
X018863Y026172D02*
X017091Y026172D01*
X017091Y031322D02*
X018863Y031322D01*
X024336Y031480D02*
X026107Y031480D01*
X026107Y026330D02*
X024336Y026330D01*
X011816Y026211D02*
X010044Y026211D01*
X010044Y031361D02*
X011816Y031361D01*
X004651Y031283D02*
X002879Y031283D01*
X002879Y026133D02*
X004651Y026133D01*
M02*
