G75*
G70*
%OFA0B0*%
%FSLAX24Y24*%
%IPPOS*%
%LPD*%
%AMOC8*
5,1,8,0,0,1.08239X$1,22.5*
%
%ADD10C,0.0060*%
%ADD11C,0.0217*%
%ADD12C,0.0050*%
%ADD13C,0.0120*%
%ADD14C,0.0040*%
D10*
X004507Y010326D02*
X004507Y012830D01*
X007950Y012830D01*
X007950Y010529D01*
X004546Y010529D01*
X004507Y010326D02*
X007950Y010326D01*
X007950Y010529D01*
X010046Y010877D02*
X010046Y013381D01*
X013489Y013381D01*
X013489Y011080D01*
X010086Y011080D01*
X010046Y010877D02*
X013489Y010877D01*
X013489Y011080D01*
X013490Y013742D02*
X016190Y013742D01*
X016207Y013744D01*
X016224Y013748D01*
X016240Y013755D01*
X016254Y013765D01*
X016267Y013778D01*
X016277Y013792D01*
X016284Y013808D01*
X016288Y013825D01*
X016290Y013842D01*
X016290Y014842D01*
X016288Y014859D01*
X016284Y014876D01*
X016277Y014892D01*
X016267Y014906D01*
X016254Y014919D01*
X016240Y014929D01*
X016224Y014936D01*
X016207Y014940D01*
X016190Y014942D01*
X013490Y014942D01*
X013473Y014940D01*
X013456Y014936D01*
X013440Y014929D01*
X013426Y014919D01*
X013413Y014906D01*
X013403Y014892D01*
X013396Y014876D01*
X013392Y014859D01*
X013390Y014842D01*
X013390Y013842D01*
X013392Y013825D01*
X013396Y013808D01*
X013403Y013792D01*
X013413Y013778D01*
X013426Y013765D01*
X013440Y013755D01*
X013456Y013748D01*
X013473Y013744D01*
X013490Y013742D01*
X014240Y014342D02*
X014720Y014342D01*
X014970Y014342D02*
X015440Y014342D01*
X016412Y013342D02*
X016412Y010838D01*
X019855Y010838D01*
X019855Y011041D01*
X016452Y011041D01*
X016412Y013342D02*
X019855Y013342D01*
X019855Y011041D01*
X020423Y013742D02*
X023123Y013742D01*
X023140Y013744D01*
X023157Y013748D01*
X023173Y013755D01*
X023187Y013765D01*
X023200Y013778D01*
X023210Y013792D01*
X023217Y013808D01*
X023221Y013825D01*
X023223Y013842D01*
X023223Y014842D01*
X023221Y014859D01*
X023217Y014876D01*
X023210Y014892D01*
X023200Y014906D01*
X023187Y014919D01*
X023173Y014929D01*
X023157Y014936D01*
X023140Y014940D01*
X023123Y014942D01*
X020423Y014942D01*
X020406Y014940D01*
X020389Y014936D01*
X020373Y014929D01*
X020359Y014919D01*
X020346Y014906D01*
X020336Y014892D01*
X020329Y014876D01*
X020325Y014859D01*
X020323Y014842D01*
X020323Y013842D01*
X020325Y013825D01*
X020329Y013808D01*
X020336Y013792D01*
X020346Y013778D01*
X020359Y013765D01*
X020373Y013755D01*
X020389Y013748D01*
X020406Y013744D01*
X020423Y013742D01*
X021173Y014342D02*
X021653Y014342D01*
X021903Y014342D02*
X022373Y014342D01*
X023743Y013353D02*
X023743Y010849D01*
X027186Y010849D01*
X027186Y011053D01*
X023782Y011053D01*
X023743Y013353D02*
X027186Y013353D01*
X027186Y011053D01*
X023819Y020198D02*
X021119Y020198D01*
X021102Y020200D01*
X021085Y020204D01*
X021069Y020211D01*
X021055Y020221D01*
X021042Y020234D01*
X021032Y020248D01*
X021025Y020264D01*
X021021Y020281D01*
X021019Y020298D01*
X021019Y021298D01*
X020987Y021385D02*
X020987Y023889D01*
X017544Y023889D01*
X017544Y023686D01*
X020948Y023686D01*
X021119Y021398D02*
X023819Y021398D01*
X023836Y021396D01*
X023853Y021392D01*
X023869Y021385D01*
X023883Y021375D01*
X023896Y021362D01*
X023906Y021348D01*
X023913Y021332D01*
X023917Y021315D01*
X023919Y021298D01*
X023919Y020298D01*
X023917Y020281D01*
X023913Y020264D01*
X023906Y020248D01*
X023896Y020234D01*
X023883Y020221D01*
X023869Y020211D01*
X023853Y020204D01*
X023836Y020200D01*
X023819Y020198D01*
X023069Y020798D02*
X022599Y020798D01*
X022349Y020798D02*
X021869Y020798D01*
X021119Y021398D02*
X021102Y021396D01*
X021085Y021392D01*
X021069Y021385D01*
X021055Y021375D01*
X021042Y021362D01*
X021032Y021348D01*
X021025Y021332D01*
X021021Y021315D01*
X021019Y021298D01*
X020987Y021385D02*
X017544Y021385D01*
X017544Y023686D01*
X017485Y021398D02*
X014785Y021398D01*
X014768Y021396D01*
X014751Y021392D01*
X014735Y021385D01*
X014721Y021375D01*
X014708Y021362D01*
X014698Y021348D01*
X014691Y021332D01*
X014687Y021315D01*
X014685Y021298D01*
X014685Y020298D01*
X014687Y020281D01*
X014691Y020264D01*
X014698Y020248D01*
X014708Y020234D01*
X014721Y020221D01*
X014735Y020211D01*
X014751Y020204D01*
X014768Y020200D01*
X014785Y020198D01*
X017485Y020198D01*
X017502Y020200D01*
X017519Y020204D01*
X017535Y020211D01*
X017549Y020221D01*
X017562Y020234D01*
X017572Y020248D01*
X017579Y020264D01*
X017583Y020281D01*
X017585Y020298D01*
X017585Y021298D01*
X017583Y021315D01*
X017579Y021332D01*
X017572Y021348D01*
X017562Y021362D01*
X017549Y021375D01*
X017535Y021385D01*
X017519Y021392D01*
X017502Y021396D01*
X017485Y021398D01*
X016735Y020798D02*
X016265Y020798D01*
X016015Y020798D02*
X015535Y020798D01*
X014361Y021385D02*
X014361Y023889D01*
X010918Y023889D01*
X010918Y023686D01*
X014322Y023686D01*
X014361Y021385D02*
X010918Y021385D01*
X010918Y023686D01*
X010823Y021359D02*
X008123Y021359D01*
X008106Y021357D01*
X008089Y021353D01*
X008073Y021346D01*
X008059Y021336D01*
X008046Y021323D01*
X008036Y021309D01*
X008029Y021293D01*
X008025Y021276D01*
X008023Y021259D01*
X008023Y020259D01*
X008025Y020242D01*
X008029Y020225D01*
X008036Y020209D01*
X008046Y020195D01*
X008059Y020182D01*
X008073Y020172D01*
X008089Y020165D01*
X008106Y020161D01*
X008123Y020159D01*
X010823Y020159D01*
X010840Y020161D01*
X010857Y020165D01*
X010873Y020172D01*
X010887Y020182D01*
X010900Y020195D01*
X010910Y020209D01*
X010917Y020225D01*
X010921Y020242D01*
X010923Y020259D01*
X010923Y021259D01*
X010921Y021276D01*
X010917Y021293D01*
X010910Y021309D01*
X010900Y021323D01*
X010887Y021336D01*
X010873Y021346D01*
X010857Y021353D01*
X010840Y021357D01*
X010823Y021359D01*
X010073Y020759D02*
X009603Y020759D01*
X009353Y020759D02*
X008873Y020759D01*
X007656Y021385D02*
X007656Y023889D01*
X004214Y023889D01*
X004214Y023686D01*
X007617Y023686D01*
X007656Y021385D02*
X004214Y021385D01*
X004214Y023686D01*
X004205Y021359D02*
X001505Y021359D01*
X001488Y021357D01*
X001471Y021353D01*
X001455Y021346D01*
X001441Y021336D01*
X001428Y021323D01*
X001418Y021309D01*
X001411Y021293D01*
X001407Y021276D01*
X001405Y021259D01*
X001405Y020259D01*
X001407Y020242D01*
X001411Y020225D01*
X001418Y020209D01*
X001428Y020195D01*
X001441Y020182D01*
X001455Y020172D01*
X001471Y020165D01*
X001488Y020161D01*
X001505Y020159D01*
X004205Y020159D01*
X004222Y020161D01*
X004239Y020165D01*
X004255Y020172D01*
X004269Y020182D01*
X004282Y020195D01*
X004292Y020209D01*
X004299Y020225D01*
X004303Y020242D01*
X004305Y020259D01*
X004305Y021259D01*
X004303Y021276D01*
X004299Y021293D01*
X004292Y021309D01*
X004282Y021323D01*
X004269Y021336D01*
X004255Y021346D01*
X004239Y021353D01*
X004222Y021357D01*
X004205Y021359D01*
X003455Y020759D02*
X002985Y020759D01*
X002735Y020759D02*
X002255Y020759D01*
X002017Y015536D02*
X001017Y015536D01*
X001000Y015534D01*
X000983Y015530D01*
X000967Y015523D01*
X000953Y015513D01*
X000940Y015500D01*
X000930Y015486D01*
X000923Y015470D01*
X000919Y015453D01*
X000917Y015436D01*
X000917Y012736D01*
X000919Y012719D01*
X000923Y012702D01*
X000930Y012686D01*
X000940Y012672D01*
X000953Y012659D01*
X000967Y012649D01*
X000983Y012642D01*
X001000Y012638D01*
X001017Y012636D01*
X002017Y012636D01*
X002034Y012638D01*
X002051Y012642D01*
X002067Y012649D01*
X002081Y012659D01*
X002094Y012672D01*
X002104Y012686D01*
X002111Y012702D01*
X002115Y012719D01*
X002117Y012736D01*
X002117Y015436D01*
X002115Y015453D01*
X002111Y015470D01*
X002104Y015486D01*
X002094Y015500D01*
X002081Y015513D01*
X002067Y015523D01*
X002051Y015530D01*
X002034Y015534D01*
X002017Y015536D01*
X001517Y014686D02*
X001517Y014216D01*
X001517Y013966D02*
X001517Y013486D01*
X005208Y013873D02*
X005208Y014873D01*
X005210Y014890D01*
X005214Y014907D01*
X005221Y014923D01*
X005231Y014937D01*
X005244Y014950D01*
X005258Y014960D01*
X005274Y014967D01*
X005291Y014971D01*
X005308Y014973D01*
X008008Y014973D01*
X008025Y014971D01*
X008042Y014967D01*
X008058Y014960D01*
X008072Y014950D01*
X008085Y014937D01*
X008095Y014923D01*
X008102Y014907D01*
X008106Y014890D01*
X008108Y014873D01*
X008108Y013873D01*
X008106Y013856D01*
X008102Y013839D01*
X008095Y013823D01*
X008085Y013809D01*
X008072Y013796D01*
X008058Y013786D01*
X008042Y013779D01*
X008025Y013775D01*
X008008Y013773D01*
X005308Y013773D01*
X005291Y013775D01*
X005274Y013779D01*
X005258Y013786D01*
X005244Y013796D01*
X005231Y013809D01*
X005221Y013823D01*
X005214Y013839D01*
X005210Y013856D01*
X005208Y013873D01*
X006058Y014373D02*
X006528Y014373D01*
X006778Y014373D02*
X007258Y014373D01*
X024052Y021385D02*
X027495Y021385D01*
X027495Y023889D01*
X024052Y023889D01*
X024052Y023686D01*
X027456Y023686D01*
X024052Y023686D02*
X024052Y021385D01*
D11*
X027147Y023424D03*
X020639Y023424D03*
X014013Y023424D03*
X007308Y023424D03*
X010395Y011342D03*
X004855Y010790D03*
X016761Y011302D03*
X024091Y011314D03*
D12*
X006145Y000204D02*
X001935Y000204D01*
X001935Y000256D02*
X001935Y009180D01*
X006145Y009180D01*
X006145Y009141D02*
X006145Y000204D01*
X009534Y000282D02*
X013744Y000282D01*
X013744Y009219D01*
X013744Y009259D02*
X009534Y009259D01*
X009534Y000335D01*
X015951Y000178D02*
X015951Y009101D01*
X020161Y009101D01*
X020161Y009062D02*
X020161Y000125D01*
X015951Y000125D01*
X023431Y000361D02*
X027641Y000361D01*
X027641Y009298D01*
X027641Y009338D02*
X023431Y009338D01*
X023431Y000414D01*
X023369Y010876D02*
X023069Y010876D01*
X022994Y010951D01*
X022994Y011102D01*
X023069Y011177D01*
X023369Y011177D01*
X023444Y011102D01*
X023444Y010951D01*
X023369Y010876D01*
X023369Y011337D02*
X023069Y011337D01*
X022994Y011412D01*
X022994Y011562D01*
X023069Y011637D01*
X022994Y011797D02*
X023219Y011797D01*
X023144Y011947D01*
X023144Y012022D01*
X023219Y012097D01*
X023369Y012097D01*
X023444Y012022D01*
X023444Y011872D01*
X023369Y011797D01*
X023369Y011637D02*
X023444Y011562D01*
X023444Y011412D01*
X023369Y011337D01*
X022994Y011797D02*
X022994Y012097D01*
X021083Y015117D02*
X021158Y015192D01*
X021158Y015267D01*
X021083Y015342D01*
X020858Y015342D01*
X020858Y015192D01*
X020933Y015117D01*
X021083Y015117D01*
X020858Y015342D02*
X021008Y015492D01*
X021158Y015567D01*
X020698Y015492D02*
X020623Y015567D01*
X020473Y015567D01*
X020398Y015492D01*
X020398Y015192D01*
X020473Y015117D01*
X020623Y015117D01*
X020698Y015192D01*
X016114Y012011D02*
X016114Y011860D01*
X016039Y011785D01*
X015889Y011785D01*
X015889Y012011D01*
X015964Y012086D01*
X016039Y012086D01*
X016114Y012011D01*
X015889Y011785D02*
X015738Y011935D01*
X015663Y012086D01*
X015738Y011625D02*
X015663Y011550D01*
X015663Y011400D01*
X015738Y011325D01*
X016039Y011325D01*
X016114Y011400D01*
X016114Y011550D01*
X016039Y011625D01*
X016039Y011165D02*
X015738Y011165D01*
X015663Y011090D01*
X015663Y010940D01*
X015738Y010865D01*
X016039Y010865D01*
X016114Y010940D01*
X016114Y011090D01*
X016039Y011165D01*
X014150Y015117D02*
X014000Y015117D01*
X013925Y015192D01*
X013925Y015342D02*
X014075Y015417D01*
X014150Y015417D01*
X014225Y015342D01*
X014225Y015192D01*
X014150Y015117D01*
X013925Y015342D02*
X013925Y015567D01*
X014225Y015567D01*
X013765Y015492D02*
X013690Y015567D01*
X013540Y015567D01*
X013465Y015492D01*
X013465Y015192D01*
X013540Y015117D01*
X013690Y015117D01*
X013765Y015192D01*
X009748Y011825D02*
X009673Y011825D01*
X009372Y012125D01*
X009297Y012125D01*
X009297Y011825D01*
X009372Y011665D02*
X009297Y011590D01*
X009297Y011439D01*
X009372Y011364D01*
X009673Y011364D01*
X009748Y011439D01*
X009748Y011590D01*
X009673Y011665D01*
X009673Y011204D02*
X009372Y011204D01*
X009297Y011129D01*
X009297Y010979D01*
X009372Y010904D01*
X009673Y010904D01*
X009748Y010979D01*
X009748Y011129D01*
X009673Y011204D01*
X007623Y013148D02*
X007623Y013223D01*
X007923Y013523D01*
X007923Y013598D01*
X007623Y013598D01*
X007463Y013523D02*
X007388Y013598D01*
X007238Y013598D01*
X007163Y013523D01*
X007163Y013223D01*
X007238Y013148D01*
X007388Y013148D01*
X007463Y013223D01*
X004208Y011499D02*
X004208Y011349D01*
X004133Y011274D01*
X004058Y011274D01*
X003983Y011349D01*
X003983Y011499D01*
X004058Y011574D01*
X004133Y011574D01*
X004208Y011499D01*
X003983Y011499D02*
X003908Y011574D01*
X003833Y011574D01*
X003758Y011499D01*
X003758Y011349D01*
X003833Y011274D01*
X003908Y011274D01*
X003983Y011349D01*
X003833Y011113D02*
X003758Y011038D01*
X003758Y010888D01*
X003833Y010813D01*
X004133Y010813D01*
X004208Y010888D01*
X004208Y011038D01*
X004133Y011113D01*
X004133Y010653D02*
X003833Y010653D01*
X003758Y010578D01*
X003758Y010428D01*
X003833Y010353D01*
X004133Y010353D01*
X004208Y010428D01*
X004208Y010578D01*
X004133Y010653D01*
X000742Y012786D02*
X000742Y012936D01*
X000667Y013011D01*
X000667Y013171D02*
X000592Y013171D01*
X000516Y013246D01*
X000516Y013396D01*
X000592Y013471D01*
X000667Y013471D01*
X000742Y013396D01*
X000742Y013246D01*
X000667Y013171D01*
X000516Y013246D02*
X000441Y013171D01*
X000366Y013171D01*
X000291Y013246D01*
X000291Y013396D01*
X000366Y013471D01*
X000441Y013471D01*
X000516Y013396D01*
X000366Y013011D02*
X000291Y012936D01*
X000291Y012786D01*
X000366Y012711D01*
X000667Y012711D01*
X000742Y012786D01*
X001555Y021534D02*
X001705Y021534D01*
X001781Y021609D01*
X001941Y021534D02*
X002241Y021534D01*
X002091Y021534D02*
X002091Y021984D01*
X001941Y021834D01*
X001781Y021909D02*
X001705Y021984D01*
X001555Y021984D01*
X001480Y021909D01*
X001480Y021609D01*
X001555Y021534D01*
X001660Y024771D02*
X005870Y024771D01*
X005870Y033694D01*
X005870Y033747D02*
X001660Y033747D01*
X001660Y024810D01*
X007955Y023677D02*
X008180Y023451D01*
X008180Y023752D01*
X008405Y023677D02*
X007955Y023677D01*
X008030Y023291D02*
X007955Y023216D01*
X007955Y023066D01*
X008030Y022991D01*
X008330Y022991D01*
X008405Y023066D01*
X008405Y023216D01*
X008330Y023291D01*
X008330Y022831D02*
X008030Y022831D01*
X007955Y022756D01*
X007955Y022606D01*
X008030Y022531D01*
X008330Y022531D01*
X008405Y022606D01*
X008405Y022756D01*
X008330Y022831D01*
X008324Y021984D02*
X008173Y021984D01*
X008098Y021909D01*
X008098Y021609D01*
X008173Y021534D01*
X008324Y021534D01*
X008399Y021609D01*
X008559Y021534D02*
X008859Y021834D01*
X008859Y021909D01*
X008784Y021984D01*
X008634Y021984D01*
X008559Y021909D01*
X008399Y021909D02*
X008324Y021984D01*
X008559Y021534D02*
X008859Y021534D01*
X008825Y024849D02*
X013035Y024849D01*
X013035Y033773D01*
X013035Y033826D02*
X008825Y033826D01*
X008825Y024889D01*
X014659Y023677D02*
X014734Y023752D01*
X014810Y023752D01*
X014885Y023677D01*
X014960Y023752D01*
X015035Y023752D01*
X015110Y023677D01*
X015110Y023526D01*
X015035Y023451D01*
X015035Y023291D02*
X015110Y023216D01*
X015110Y023066D01*
X015035Y022991D01*
X014734Y022991D01*
X014659Y023066D01*
X014659Y023216D01*
X014734Y023291D01*
X014734Y023451D02*
X014659Y023526D01*
X014659Y023677D01*
X014885Y023677D02*
X014885Y023602D01*
X015035Y022831D02*
X014734Y022831D01*
X014659Y022756D01*
X014659Y022606D01*
X014734Y022531D01*
X015035Y022531D01*
X015110Y022606D01*
X015110Y022756D01*
X015035Y022831D01*
X014985Y022024D02*
X014835Y022024D01*
X014760Y021949D01*
X014760Y021648D01*
X014835Y021573D01*
X014985Y021573D01*
X015060Y021648D01*
X015220Y021798D02*
X015520Y021798D01*
X015445Y021573D02*
X015445Y022024D01*
X015220Y021798D01*
X015060Y021949D02*
X014985Y022024D01*
X015872Y024810D02*
X020082Y024810D01*
X020082Y033734D01*
X020082Y033786D02*
X015872Y033786D01*
X015872Y024849D01*
X021094Y021949D02*
X021094Y021648D01*
X021169Y021573D01*
X021320Y021573D01*
X021395Y021648D01*
X021555Y021648D02*
X021630Y021573D01*
X021780Y021573D01*
X021855Y021648D01*
X021855Y021723D01*
X021780Y021798D01*
X021705Y021798D01*
X021780Y021798D02*
X021855Y021873D01*
X021855Y021949D01*
X021780Y022024D01*
X021630Y022024D01*
X021555Y021949D01*
X021395Y021949D02*
X021320Y022024D01*
X021169Y022024D01*
X021094Y021949D01*
X021360Y022531D02*
X021661Y022531D01*
X021736Y022606D01*
X021736Y022756D01*
X021661Y022831D01*
X021360Y022831D01*
X021285Y022756D01*
X021285Y022606D01*
X021360Y022531D01*
X021360Y022991D02*
X021661Y022991D01*
X021736Y023066D01*
X021736Y023216D01*
X021661Y023291D01*
X021736Y023451D02*
X021436Y023752D01*
X021360Y023752D01*
X021285Y023677D01*
X021285Y023526D01*
X021360Y023451D01*
X021360Y023291D02*
X021285Y023216D01*
X021285Y023066D01*
X021360Y022991D01*
X021736Y023451D02*
X021736Y023752D01*
X023116Y024968D02*
X027326Y024968D01*
X027326Y033891D01*
X027326Y033944D02*
X023116Y033944D01*
X023116Y025007D01*
X027793Y023602D02*
X028244Y023602D01*
X028244Y023752D02*
X028244Y023451D01*
X028169Y023291D02*
X028244Y023216D01*
X028244Y023066D01*
X028169Y022991D01*
X027868Y022991D01*
X027793Y023066D01*
X027793Y023216D01*
X027868Y023291D01*
X027943Y023451D02*
X027793Y023602D01*
X027868Y022831D02*
X027793Y022756D01*
X027793Y022606D01*
X027868Y022531D01*
X028169Y022531D01*
X028244Y022606D01*
X028244Y022756D01*
X028169Y022831D01*
X027868Y022831D01*
D13*
X022599Y021048D02*
X022599Y020798D01*
X022599Y020548D01*
X022349Y020548D02*
X022349Y020798D01*
X022349Y021048D01*
X021903Y014592D02*
X021903Y014342D01*
X021903Y014092D01*
X021653Y014092D02*
X021653Y014342D01*
X021653Y014592D01*
X016265Y020548D02*
X016265Y020798D01*
X016265Y021048D01*
X016015Y021048D02*
X016015Y020798D01*
X016015Y020548D01*
X014970Y014592D02*
X014970Y014342D01*
X014970Y014092D01*
X014720Y014092D02*
X014720Y014342D01*
X014720Y014592D01*
X009603Y020509D02*
X009603Y020759D01*
X009603Y021009D01*
X009353Y021009D02*
X009353Y020759D01*
X009353Y020509D01*
X006778Y014623D02*
X006778Y014373D01*
X006778Y014123D01*
X006528Y014123D02*
X006528Y014373D01*
X006528Y014623D01*
X001767Y014216D02*
X001517Y014216D01*
X001267Y014216D01*
X001267Y013966D02*
X001517Y013966D01*
X001767Y013966D01*
X002735Y020509D02*
X002735Y020759D01*
X002735Y021009D01*
X002985Y021009D02*
X002985Y020759D01*
X002985Y020509D01*
D14*
X002404Y021940D02*
X001944Y021940D01*
X001944Y022170D01*
X002020Y022247D01*
X002174Y022247D01*
X002251Y022170D01*
X002251Y021940D01*
X002251Y022094D02*
X002404Y022247D01*
X002327Y022401D02*
X002404Y022477D01*
X002404Y022631D01*
X002327Y022708D01*
X002251Y022708D01*
X002174Y022631D01*
X002174Y022554D01*
X002174Y022631D02*
X002097Y022708D01*
X002020Y022708D01*
X001944Y022631D01*
X001944Y022477D01*
X002020Y022401D01*
X002174Y022861D02*
X002020Y023015D01*
X001944Y023168D01*
X002174Y023091D02*
X002174Y022861D01*
X002327Y022861D01*
X002404Y022938D01*
X002404Y023091D01*
X002327Y023168D01*
X002251Y023168D01*
X002174Y023091D01*
X002434Y023155D02*
X002511Y023232D01*
X002664Y023232D01*
X002741Y023155D01*
X002741Y022925D01*
X002894Y022925D02*
X002434Y022925D01*
X002434Y023155D01*
X002511Y023386D02*
X002434Y023462D01*
X002434Y023616D01*
X002511Y023693D01*
X002587Y023693D01*
X002664Y023616D01*
X002741Y023693D01*
X002818Y023693D01*
X002894Y023616D01*
X002894Y023462D01*
X002818Y023386D01*
X002894Y023232D02*
X002741Y023079D01*
X002664Y023539D02*
X002664Y023616D01*
X002587Y023846D02*
X002664Y023923D01*
X002664Y024153D01*
X002511Y024153D02*
X002818Y024153D01*
X002894Y024076D01*
X002894Y023923D01*
X002818Y023846D01*
X002587Y023846D02*
X002511Y023846D01*
X002434Y023923D01*
X002434Y024076D01*
X002511Y024153D01*
X007627Y023077D02*
X007627Y022771D01*
X007857Y022771D01*
X007780Y022924D01*
X007780Y023001D01*
X007857Y023077D01*
X008010Y023077D01*
X008087Y023001D01*
X008087Y022847D01*
X008010Y022771D01*
X008010Y022617D02*
X008087Y022540D01*
X008087Y022387D01*
X008010Y022310D01*
X007857Y022310D02*
X007780Y022464D01*
X007780Y022540D01*
X007857Y022617D01*
X008010Y022617D01*
X007857Y022310D02*
X007627Y022310D01*
X007627Y022617D01*
X007704Y022157D02*
X007857Y022157D01*
X007934Y022080D01*
X007934Y021850D01*
X007934Y022003D02*
X008087Y022157D01*
X008087Y021850D02*
X007627Y021850D01*
X007627Y022080D01*
X007704Y022157D01*
X008794Y022255D02*
X008794Y022485D01*
X008871Y022562D01*
X009024Y022562D01*
X009101Y022485D01*
X009101Y022255D01*
X009255Y022255D02*
X008794Y022255D01*
X009101Y022409D02*
X009255Y022562D01*
X009024Y022716D02*
X009024Y023023D01*
X008948Y023176D02*
X008871Y023176D01*
X008794Y023253D01*
X008794Y023406D01*
X008871Y023483D01*
X008948Y023483D01*
X009024Y023406D01*
X009024Y023253D01*
X008948Y023176D01*
X009024Y023253D02*
X009101Y023176D01*
X009178Y023176D01*
X009255Y023253D01*
X009255Y023406D01*
X009178Y023483D01*
X009101Y023483D01*
X009024Y023406D01*
X009127Y023437D02*
X009127Y023667D01*
X009204Y023744D01*
X009357Y023744D01*
X009434Y023667D01*
X009434Y023437D01*
X009587Y023437D02*
X009127Y023437D01*
X009434Y023591D02*
X009587Y023744D01*
X009587Y023897D02*
X009280Y024204D01*
X009204Y024204D01*
X009127Y024128D01*
X009127Y023974D01*
X009204Y023897D01*
X009587Y023897D02*
X009587Y024204D01*
X009587Y024358D02*
X009280Y024665D01*
X009204Y024665D01*
X009127Y024588D01*
X009127Y024435D01*
X009204Y024358D01*
X009587Y024358D02*
X009587Y024665D01*
X009255Y022946D02*
X008794Y022946D01*
X009024Y022716D01*
X015487Y022710D02*
X015564Y022786D01*
X015641Y022786D01*
X015717Y022710D01*
X015794Y022786D01*
X015871Y022786D01*
X015947Y022710D01*
X015947Y022556D01*
X015871Y022479D01*
X016011Y022429D02*
X016011Y022736D01*
X016241Y022659D02*
X015780Y022659D01*
X016011Y022429D01*
X015947Y022326D02*
X015794Y022172D01*
X015780Y022199D02*
X016011Y021968D01*
X016011Y022275D01*
X015794Y022249D02*
X015794Y022019D01*
X015947Y022019D02*
X015487Y022019D01*
X015487Y022249D01*
X015564Y022326D01*
X015717Y022326D01*
X015794Y022249D01*
X015780Y022199D02*
X016241Y022199D01*
X016241Y021815D02*
X016087Y021661D01*
X016087Y021738D02*
X016087Y021508D01*
X016241Y021508D02*
X015780Y021508D01*
X015780Y021738D01*
X015857Y021815D01*
X016011Y021815D01*
X016087Y021738D01*
X015564Y022479D02*
X015487Y022556D01*
X015487Y022710D01*
X015717Y022710D02*
X015717Y022633D01*
X015641Y022940D02*
X015564Y022940D01*
X015487Y023017D01*
X015487Y023170D01*
X015564Y023247D01*
X015641Y023247D01*
X015717Y023170D01*
X015717Y023017D01*
X015641Y022940D01*
X015717Y023017D02*
X015794Y022940D01*
X015871Y022940D01*
X015947Y023017D01*
X015947Y023170D01*
X015871Y023247D01*
X015794Y023247D01*
X015717Y023170D01*
X015780Y023476D02*
X015780Y023707D01*
X015857Y023783D01*
X016011Y023783D01*
X016087Y023707D01*
X016087Y023476D01*
X016241Y023476D02*
X015780Y023476D01*
X016087Y023630D02*
X016241Y023783D01*
X016011Y023937D02*
X016011Y024244D01*
X015857Y024397D02*
X015780Y024474D01*
X015780Y024627D01*
X015857Y024704D01*
X015934Y024704D01*
X016241Y024397D01*
X016241Y024704D01*
X016241Y024167D02*
X015780Y024167D01*
X016011Y023937D01*
X021944Y023327D02*
X022020Y023404D01*
X022327Y023097D01*
X022404Y023174D01*
X022404Y023327D01*
X022327Y023404D01*
X022020Y023404D01*
X021944Y023327D02*
X021944Y023174D01*
X022020Y023097D01*
X022327Y023097D01*
X022276Y023116D02*
X022353Y023193D01*
X022507Y023193D01*
X022583Y023116D01*
X022583Y022886D01*
X022583Y023039D02*
X022737Y023193D01*
X022660Y023346D02*
X022737Y023423D01*
X022737Y023576D01*
X022660Y023653D01*
X022507Y023653D01*
X022430Y023576D01*
X022430Y023500D01*
X022507Y023346D01*
X022276Y023346D01*
X022276Y023653D01*
X022353Y023807D02*
X022276Y023883D01*
X022276Y024037D01*
X022353Y024114D01*
X022430Y024114D01*
X022737Y023807D01*
X022737Y024114D01*
X022276Y023116D02*
X022276Y022886D01*
X022737Y022886D01*
X022404Y022867D02*
X022404Y022714D01*
X022327Y022637D01*
X022174Y022637D02*
X022097Y022790D01*
X022097Y022867D01*
X022174Y022944D01*
X022327Y022944D01*
X022404Y022867D01*
X022174Y022637D02*
X021944Y022637D01*
X021944Y022944D01*
X022020Y022483D02*
X021944Y022407D01*
X021944Y022176D01*
X022404Y022176D01*
X022251Y022176D02*
X022251Y022407D01*
X022174Y022483D01*
X022020Y022483D01*
X022251Y022330D02*
X022404Y022483D01*
X021286Y013051D02*
X021286Y012744D01*
X021056Y012974D01*
X021516Y012974D01*
X021440Y012590D02*
X021286Y012590D01*
X021209Y012513D01*
X021209Y012437D01*
X021286Y012283D01*
X021056Y012283D01*
X021056Y012590D01*
X021133Y012130D02*
X021056Y012053D01*
X021056Y011823D01*
X021516Y011823D01*
X021381Y011757D02*
X021381Y011910D01*
X021304Y011987D01*
X021227Y011987D01*
X021150Y011910D01*
X021150Y011680D01*
X021304Y011680D01*
X021381Y011757D01*
X021363Y011823D02*
X021363Y012053D01*
X021286Y012130D01*
X021133Y012130D01*
X020920Y011987D02*
X020997Y011833D01*
X021150Y011680D01*
X021150Y011526D02*
X021150Y011220D01*
X020920Y011450D01*
X021381Y011450D01*
X021381Y011066D02*
X021227Y010913D01*
X021227Y010989D02*
X021227Y010759D01*
X021381Y010759D02*
X020920Y010759D01*
X020920Y010989D01*
X020997Y011066D01*
X021150Y011066D01*
X021227Y010989D01*
X021363Y011976D02*
X021516Y012130D01*
X021440Y012283D02*
X021516Y012360D01*
X021516Y012513D01*
X021440Y012590D01*
X020016Y011424D02*
X020016Y011117D01*
X020016Y011270D02*
X019556Y011270D01*
X019709Y011117D01*
X019556Y010810D02*
X020016Y010810D01*
X020016Y010657D02*
X020016Y010964D01*
X019709Y010657D02*
X019556Y010810D01*
X019633Y010503D02*
X019556Y010426D01*
X019556Y010196D01*
X020016Y010196D01*
X019863Y010196D02*
X019863Y010426D01*
X019786Y010503D01*
X019633Y010503D01*
X019863Y010350D02*
X020016Y010503D01*
X014609Y010562D02*
X014148Y010562D01*
X014148Y010793D01*
X014225Y010869D01*
X014379Y010869D01*
X014455Y010793D01*
X014455Y010562D01*
X014455Y010716D02*
X014609Y010869D01*
X014532Y011023D02*
X014609Y011099D01*
X014609Y011253D01*
X014532Y011330D01*
X014455Y011330D01*
X014379Y011253D01*
X014379Y011176D01*
X014379Y011253D02*
X014302Y011330D01*
X014225Y011330D01*
X014148Y011253D01*
X014148Y011099D01*
X014225Y011023D01*
X014379Y011483D02*
X014379Y011790D01*
X014609Y011713D02*
X014148Y011713D01*
X014379Y011483D01*
X013481Y011353D02*
X013174Y011660D01*
X013097Y011660D01*
X013021Y011583D01*
X013021Y011430D01*
X013097Y011353D01*
X013021Y011046D02*
X013481Y011046D01*
X013481Y010893D02*
X013481Y011200D01*
X013481Y011353D02*
X013481Y011660D01*
X013021Y011046D02*
X013174Y010893D01*
X013097Y010739D02*
X013251Y010739D01*
X013327Y010663D01*
X013327Y010432D01*
X013327Y010586D02*
X013481Y010739D01*
X013481Y010432D02*
X013021Y010432D01*
X013021Y010663D01*
X013097Y010739D01*
X010453Y012689D02*
X009993Y012689D01*
X009993Y012919D01*
X010070Y012996D01*
X010223Y012996D01*
X010300Y012919D01*
X010300Y012689D01*
X010300Y012842D02*
X010453Y012996D01*
X010453Y013149D02*
X010146Y013456D01*
X010070Y013456D01*
X009993Y013380D01*
X009993Y013226D01*
X010070Y013149D01*
X010453Y013149D02*
X010453Y013456D01*
X010377Y013610D02*
X010453Y013687D01*
X010453Y013840D01*
X010377Y013917D01*
X010223Y013917D01*
X010146Y013840D01*
X010146Y013763D01*
X010223Y013610D01*
X009993Y013610D01*
X009993Y013917D01*
X009548Y013840D02*
X009471Y013917D01*
X009394Y013917D01*
X009318Y013840D01*
X009318Y013610D01*
X009471Y013610D01*
X009548Y013687D01*
X009548Y013840D01*
X009318Y013610D02*
X009164Y013763D01*
X009087Y013917D01*
X009164Y013456D02*
X009087Y013380D01*
X009087Y013226D01*
X009164Y013149D01*
X009164Y012996D02*
X009318Y012996D01*
X009394Y012919D01*
X009394Y012689D01*
X009394Y012842D02*
X009548Y012996D01*
X009548Y013149D02*
X009241Y013456D01*
X009164Y013456D01*
X009548Y013456D02*
X009548Y013149D01*
X009164Y012996D02*
X009087Y012919D01*
X009087Y012689D01*
X009548Y012689D01*
X008103Y011223D02*
X008180Y011146D01*
X008180Y010993D01*
X008103Y010916D01*
X007950Y010916D02*
X007873Y011070D01*
X007873Y011146D01*
X007950Y011223D01*
X008103Y011223D01*
X007950Y010916D02*
X007719Y010916D01*
X007719Y011223D01*
X007719Y010609D02*
X008180Y010609D01*
X008180Y010456D02*
X008180Y010763D01*
X007873Y010456D02*
X007719Y010609D01*
X007796Y010302D02*
X007950Y010302D01*
X008026Y010226D01*
X008026Y009995D01*
X008180Y009995D02*
X007719Y009995D01*
X007719Y010226D01*
X007796Y010302D01*
X008026Y010149D02*
X008180Y010302D01*
X004798Y010591D02*
X004337Y010591D01*
X004337Y010821D01*
X004414Y010898D01*
X004568Y010898D01*
X004644Y010821D01*
X004644Y010591D01*
X004644Y010744D02*
X004798Y010898D01*
X004798Y011051D02*
X004491Y011358D01*
X004414Y011358D01*
X004337Y011281D01*
X004337Y011128D01*
X004414Y011051D01*
X004798Y011051D02*
X004798Y011358D01*
X004721Y011511D02*
X004798Y011588D01*
X004798Y011742D01*
X004721Y011818D01*
X004414Y011818D01*
X004337Y011742D01*
X004337Y011588D01*
X004414Y011511D01*
X004491Y011511D01*
X004568Y011588D01*
X004568Y011818D01*
X004351Y012689D02*
X003891Y012689D01*
X003891Y012919D01*
X003967Y012996D01*
X004121Y012996D01*
X004198Y012919D01*
X004198Y012689D01*
X004198Y012842D02*
X004351Y012996D01*
X004351Y013149D02*
X004044Y013456D01*
X003967Y013456D01*
X003891Y013380D01*
X003891Y013226D01*
X003967Y013149D01*
X004351Y013149D02*
X004351Y013456D01*
X004121Y013610D02*
X004121Y013917D01*
X004351Y013840D02*
X003891Y013840D01*
X004121Y013610D01*
X002123Y011537D02*
X002047Y011613D01*
X001893Y011613D01*
X001816Y011537D01*
X001663Y011537D02*
X001586Y011613D01*
X001433Y011613D01*
X001356Y011537D01*
X001203Y011537D02*
X001203Y011383D01*
X001126Y011306D01*
X000896Y011306D01*
X001049Y011306D02*
X001203Y011153D01*
X001356Y011230D02*
X001433Y011153D01*
X001586Y011153D01*
X001663Y011230D01*
X001663Y011306D01*
X001586Y011383D01*
X001509Y011383D01*
X001586Y011383D02*
X001663Y011460D01*
X001663Y011537D01*
X001816Y011153D02*
X002123Y011460D01*
X002123Y011537D01*
X002123Y011153D02*
X001816Y011153D01*
X001203Y011537D02*
X001126Y011613D01*
X000896Y011613D01*
X000896Y011153D01*
M02*
