%
M48
M72
T01C0.0320
T02C0.0394
T03C0.0600
%
T01
X1517Y13086
X1517Y15086
X5658Y14373
X7658Y14373
X8473Y20759
X10473Y20759
X15135Y20798
X17135Y20798
X21469Y20798
X23469Y20798
X22773Y14342
X20773Y14342
X15840Y14342
X13840Y14342
X3855Y20759
X1855Y20759
T02
X2804Y18806
X3804Y18806
X4804Y18806
X4843Y16090
X3843Y16090
X2843Y16090
X9930Y16090
X10930Y16090
X11930Y16090
X11891Y18806
X10891Y18806
X9891Y18806
X16977Y18806
X17977Y18806
X18977Y18806
X18820Y16090
X17820Y16090
X16820Y16090
X24300Y16090
X25300Y16090
X26300Y16090
X26064Y18806
X25064Y18806
X24064Y18806
T03
X4040Y2668
X4040Y7818
X11639Y7897
X11639Y2747
X18056Y2589
X18056Y7739
X25536Y7976
X25536Y2826
X17977Y26172
X17977Y31322
X10930Y31361
X10930Y26211
X3765Y26133
X3765Y31283
X25221Y31480
X25221Y26330
M30
