G75*
G70*
%OFA0B0*%
%FSLAX24Y24*%
%IPPOS*%
%LPD*%
%AMOC8*
5,1,8,0,0,1.08239X$1,22.5*
%
%ADD10R,0.0394X0.0433*%
%ADD11R,0.0433X0.0394*%
%ADD12R,0.1378X0.0630*%
%ADD13C,0.0594*%
%ADD14C,0.0945*%
%ADD15C,0.0554*%
%ADD16R,0.0425X0.0413*%
%ADD17C,0.0440*%
%ADD18R,0.0551X0.0394*%
%ADD19C,0.0650*%
%ADD20C,0.0600*%
%ADD21R,0.0630X0.1378*%
%ADD22R,0.0394X0.0551*%
%ADD23OC8,0.0600*%
%ADD24R,0.0354X0.0276*%
%ADD25C,0.0740*%
%ADD26R,0.1250X0.1250*%
%ADD27C,0.0787*%
%ADD28C,0.0660*%
%ADD29C,0.0397*%
%ADD30R,0.0260X0.0800*%
%ADD31C,0.0760*%
%ADD32OC8,0.0520*%
%ADD33C,0.0974*%
%ADD34C,0.0515*%
%ADD35R,0.0515X0.0515*%
%ADD36R,0.0276X0.0354*%
%ADD37R,0.0512X0.0591*%
%ADD38C,0.0515*%
%ADD39R,0.0315X0.1496*%
%ADD40R,0.3543X0.1260*%
%ADD41OC8,0.0700*%
%ADD42OC8,0.0396*%
%ADD43C,0.0357*%
%ADD44C,0.0396*%
%ADD45C,0.0317*%
%ADD46OC8,0.0317*%
%ADD47OC8,0.0278*%
%ADD48OC8,0.0357*%
%ADD49C,0.0278*%
D10*
X026446Y006335D03*
X026446Y007005D03*
X027233Y007005D03*
X027233Y006335D03*
X028020Y006335D03*
X028020Y007005D03*
X028813Y006508D03*
X028813Y005838D03*
X038650Y011355D03*
X038650Y012024D03*
X036672Y023452D03*
X036003Y023452D03*
X034704Y024091D03*
X034034Y024091D03*
X026249Y030696D03*
X026249Y031365D03*
X025412Y031365D03*
X025412Y030696D03*
X017858Y030361D03*
X017858Y029692D03*
X017779Y031075D03*
X017779Y031744D03*
X017041Y031729D03*
X017041Y031060D03*
X019462Y039957D03*
X020132Y039957D03*
X027932Y042841D03*
X028601Y042841D03*
D11*
X029694Y042782D03*
X029694Y042113D03*
X030678Y042113D03*
X030678Y042782D03*
X019310Y042713D03*
X019310Y042044D03*
X027085Y031365D03*
X027085Y030696D03*
X027922Y030696D03*
X027922Y031365D03*
X028759Y031365D03*
X028759Y030696D03*
X030530Y026394D03*
X030530Y025725D03*
X034034Y023304D03*
X034704Y023304D03*
X038267Y020204D03*
X038936Y020204D03*
X038444Y019022D03*
X037774Y019022D03*
X025796Y015873D03*
X025127Y015873D03*
X024615Y015873D03*
X023946Y015873D03*
X012607Y013511D03*
X011938Y013511D03*
X011938Y012526D03*
X012607Y012526D03*
X012607Y011591D03*
X011938Y011591D03*
X012085Y006080D03*
X012755Y006080D03*
X012755Y004997D03*
X012085Y004997D03*
X012085Y004111D03*
X012755Y004111D03*
X012410Y019957D03*
X012410Y020548D03*
X012410Y021188D03*
X011741Y021188D03*
X011741Y020548D03*
X011741Y019957D03*
D12*
X029812Y039544D03*
X031938Y039544D03*
X035274Y026404D03*
X037400Y026404D03*
D13*
X038221Y042105D03*
X039221Y042704D03*
X035241Y042704D03*
X034241Y042105D03*
D14*
X033631Y039574D03*
X039831Y039574D03*
D15*
X038481Y038274D03*
X037481Y038274D03*
X036481Y038274D03*
X035481Y038274D03*
X034981Y037274D03*
X035981Y037274D03*
X036981Y037274D03*
X037981Y037274D03*
D16*
X018345Y033107D03*
X018345Y032418D03*
X017558Y032418D03*
X017558Y033107D03*
D17*
X033566Y024410D02*
X033566Y023970D01*
X035566Y023970D02*
X035566Y024410D01*
D18*
X028296Y041286D03*
X028296Y042034D03*
X027430Y041660D03*
X020924Y042428D03*
X020058Y042802D03*
X020058Y042054D03*
D19*
X024314Y016660D03*
X026314Y016660D03*
D20*
X028080Y025036D03*
X027528Y026355D03*
X028080Y027674D03*
X030717Y027674D03*
X031269Y026355D03*
X030717Y025036D03*
X031294Y034278D03*
X032294Y034278D03*
X033294Y034278D03*
X033294Y035459D03*
X032294Y035459D03*
X031294Y035459D03*
X034294Y035459D03*
X034294Y034278D03*
X033942Y002339D03*
X032942Y002339D03*
X031942Y002339D03*
X035182Y002339D03*
X036182Y002339D03*
X037182Y002339D03*
X038182Y002339D03*
D21*
X021475Y024111D03*
X021475Y026237D03*
D22*
X021160Y039096D03*
X020786Y039962D03*
X021534Y039962D03*
D23*
X030020Y007973D03*
X030020Y006973D03*
X030020Y005973D03*
X031020Y005973D03*
X031020Y006973D03*
X031020Y007973D03*
X031020Y004973D03*
X030020Y004973D03*
X027265Y004621D03*
X026265Y004621D03*
X025265Y004621D03*
X025265Y003621D03*
X026265Y003621D03*
X027265Y003621D03*
X024265Y003621D03*
X023265Y003621D03*
X023265Y004621D03*
X024265Y004621D03*
X019046Y004621D03*
X018046Y004621D03*
X017046Y004621D03*
X016046Y004621D03*
X015046Y004621D03*
X015046Y003621D03*
X016046Y003621D03*
X017046Y003621D03*
X018046Y003621D03*
X019046Y003621D03*
D24*
X029448Y021326D03*
X029448Y021837D03*
X017179Y029657D03*
X017179Y030169D03*
D25*
X028364Y003771D03*
X028364Y001991D03*
X030924Y001991D03*
X030924Y003771D03*
D26*
X028119Y010361D03*
X028119Y016561D03*
D27*
X027725Y013461D02*
X027727Y013500D01*
X027733Y013539D01*
X027743Y013577D01*
X027756Y013614D01*
X027773Y013649D01*
X027793Y013683D01*
X027817Y013714D01*
X027844Y013743D01*
X027873Y013769D01*
X027905Y013792D01*
X027939Y013812D01*
X027975Y013828D01*
X028012Y013840D01*
X028051Y013849D01*
X028090Y013854D01*
X028129Y013855D01*
X028168Y013852D01*
X028207Y013845D01*
X028244Y013834D01*
X028281Y013820D01*
X028316Y013802D01*
X028349Y013781D01*
X028380Y013756D01*
X028408Y013729D01*
X028433Y013699D01*
X028455Y013666D01*
X028474Y013632D01*
X028489Y013596D01*
X028501Y013558D01*
X028509Y013520D01*
X028513Y013481D01*
X028513Y013441D01*
X028509Y013402D01*
X028501Y013364D01*
X028489Y013326D01*
X028474Y013290D01*
X028455Y013256D01*
X028433Y013223D01*
X028408Y013193D01*
X028380Y013166D01*
X028349Y013141D01*
X028316Y013120D01*
X028281Y013102D01*
X028244Y013088D01*
X028207Y013077D01*
X028168Y013070D01*
X028129Y013067D01*
X028090Y013068D01*
X028051Y013073D01*
X028012Y013082D01*
X027975Y013094D01*
X027939Y013110D01*
X027905Y013130D01*
X027873Y013153D01*
X027844Y013179D01*
X027817Y013208D01*
X027793Y013239D01*
X027773Y013273D01*
X027756Y013308D01*
X027743Y013345D01*
X027733Y013383D01*
X027727Y013422D01*
X027725Y013461D01*
D28*
X031408Y014249D03*
X032408Y014249D03*
D29*
X032538Y009675D02*
X032538Y009278D01*
X033326Y009278D02*
X033326Y009675D01*
X034113Y009675D02*
X034113Y009278D01*
X034900Y009278D02*
X034900Y009675D01*
X035688Y009675D02*
X035688Y009278D01*
X036475Y009278D02*
X036475Y009675D01*
X037263Y009675D02*
X037263Y009278D01*
X038050Y009278D02*
X038050Y009675D01*
X038050Y003767D02*
X038050Y003370D01*
X037263Y003370D02*
X037263Y003767D01*
X036475Y003767D02*
X036475Y003370D01*
X035688Y003370D02*
X035688Y003767D01*
X034900Y003767D02*
X034900Y003370D01*
X034113Y003370D02*
X034113Y003767D01*
X033326Y003767D02*
X033326Y003370D01*
X032538Y003370D02*
X032538Y003767D01*
D30*
X032692Y005785D03*
X033192Y005785D03*
X033692Y005785D03*
X034849Y005706D03*
X035349Y005706D03*
X035849Y005706D03*
X036349Y005706D03*
X036349Y008126D03*
X035849Y008126D03*
X035349Y008126D03*
X034849Y008126D03*
X033692Y008205D03*
X033192Y008205D03*
X032692Y008205D03*
X032192Y008205D03*
X032192Y005785D03*
D31*
X011369Y007300D03*
X010188Y009879D03*
X007369Y007300D03*
X006188Y009879D03*
X006188Y014879D03*
X006188Y017654D03*
X010188Y017654D03*
X010188Y014879D03*
X010188Y022654D03*
X006188Y022654D03*
X007369Y002300D03*
X011369Y002300D03*
D32*
X010648Y002546D03*
X010648Y007546D03*
X011008Y009962D03*
X011008Y014962D03*
X011008Y017635D03*
X011008Y022635D03*
X004593Y016296D03*
X003593Y016296D03*
X003828Y013056D03*
X003828Y012056D03*
X003948Y008393D03*
X004948Y008393D03*
D33*
X004787Y006424D02*
X003813Y006424D01*
X003813Y010164D02*
X004787Y010164D01*
X004787Y013904D02*
X003813Y013904D01*
X003813Y017644D02*
X004787Y017644D01*
D34*
X012975Y017652D03*
X012975Y016652D03*
X012975Y015652D03*
X012975Y018652D03*
X041786Y018652D03*
X041786Y019652D03*
X041786Y020652D03*
X041786Y021652D03*
X041786Y022652D03*
X041786Y023652D03*
X041786Y017652D03*
X041786Y016652D03*
X041786Y015652D03*
X041786Y014652D03*
X041786Y013652D03*
X041786Y012652D03*
X041786Y010652D03*
D35*
X041786Y011652D03*
D36*
X026702Y022270D03*
X026190Y022270D03*
D37*
X016278Y028826D03*
X015609Y028826D03*
D38*
X009694Y036560D02*
X009694Y037075D01*
X003631Y037075D02*
X003631Y036560D01*
X005678Y025500D02*
X005678Y024985D01*
X007646Y024985D02*
X007646Y025500D01*
D39*
X007442Y029038D03*
X006942Y029038D03*
X006442Y029038D03*
X005942Y029038D03*
X013294Y029038D03*
X013794Y029038D03*
X014294Y029038D03*
X014794Y029038D03*
X020646Y029038D03*
X021146Y029038D03*
X021646Y029038D03*
X022146Y029038D03*
D40*
X021396Y036011D03*
X014044Y036011D03*
X006692Y036011D03*
D41*
X019739Y021092D03*
X020739Y021092D03*
X021739Y021092D03*
X022739Y021092D03*
D42*
X023247Y014692D03*
X024231Y013068D03*
X025166Y009918D03*
X029694Y013609D03*
X029644Y015676D03*
X031908Y015135D03*
X034024Y010755D03*
X038011Y013314D03*
X037519Y015676D03*
X036731Y020696D03*
X036387Y021237D03*
X036682Y021778D03*
X036387Y022320D03*
X035599Y022320D03*
X034763Y021778D03*
X035156Y021286D03*
X034910Y020696D03*
X035993Y023452D03*
X035993Y025568D03*
X035304Y025568D03*
X033188Y026207D03*
X036485Y027881D03*
X037223Y027881D03*
X037765Y029209D03*
X037715Y031276D03*
X039192Y031522D03*
X039979Y031769D03*
X039979Y033245D03*
X039192Y033245D03*
X038207Y032753D03*
X037174Y034918D03*
X035993Y034918D03*
X034270Y033146D03*
X032646Y033146D03*
X031957Y033146D03*
X031957Y032064D03*
X032646Y032064D03*
X034467Y030981D03*
X026446Y038757D03*
X030511Y040469D03*
X020393Y014790D03*
X016751Y013707D03*
X017144Y010263D03*
X017587Y008540D03*
X018129Y008196D03*
X018621Y007802D03*
X019359Y009229D03*
X016603Y008491D03*
D43*
X017091Y007999D03*
X020048Y009623D03*
X020540Y010509D03*
X022168Y010410D03*
X022164Y008540D03*
X022656Y008245D03*
X023198Y007802D03*
X021180Y008639D03*
X019064Y002044D03*
X026938Y002093D03*
X031465Y002930D03*
X031269Y009672D03*
X030383Y011394D03*
X032991Y011394D03*
X033778Y013019D03*
X035550Y014731D03*
X032991Y016316D03*
X032942Y021040D03*
X032204Y021089D03*
X032253Y023747D03*
X029743Y029652D03*
X029743Y030440D03*
X032843Y030046D03*
X028611Y034770D03*
X027824Y034770D03*
X026160Y035302D03*
X029841Y038560D03*
X028286Y039682D03*
X026593Y041365D03*
X026160Y040922D03*
X025688Y040479D03*
X026593Y042005D03*
X026593Y042595D03*
X026150Y043087D03*
X027676Y042841D03*
X028709Y042841D03*
X031908Y041316D03*
X024576Y043087D03*
X024133Y042595D03*
X024133Y041857D03*
X024083Y041217D03*
X024083Y040528D03*
X022223Y041759D03*
X021219Y042487D03*
X022115Y037034D03*
X018089Y033924D03*
X017184Y034278D03*
X016711Y033806D03*
X017735Y032408D03*
X017213Y030361D03*
X018316Y029583D03*
X019231Y028609D03*
X019704Y027979D03*
X017499Y025479D03*
X015653Y026399D03*
X015215Y025578D03*
X014069Y026586D03*
X013557Y028033D03*
X014561Y028063D03*
X014133Y032192D03*
X014605Y034190D03*
X017568Y035459D03*
X014625Y038422D03*
X011436Y039357D03*
X011436Y040194D03*
X011436Y040932D03*
X008532Y041552D03*
X021908Y032625D03*
X024546Y031168D03*
X024034Y028471D03*
X023148Y025765D03*
X021593Y024672D03*
X018877Y023648D03*
X018916Y022861D03*
X021032Y018580D03*
X023444Y017202D03*
X023542Y018826D03*
X027725Y011394D03*
X038306Y023501D03*
X038454Y026650D03*
X040668Y026995D03*
X040865Y029652D03*
X039438Y016660D03*
X039684Y007507D03*
D44*
X036977Y007162D03*
X019999Y030784D03*
X015422Y030686D03*
X011977Y034278D03*
D45*
X011751Y032643D03*
X016347Y029372D03*
X017745Y028491D03*
X016323Y027423D03*
X013060Y026207D03*
X012450Y025676D03*
X011879Y026207D03*
X011633Y021286D03*
X012765Y019908D03*
X020688Y022615D03*
X025117Y024288D03*
X028759Y030440D03*
X027873Y030686D03*
X027085Y030725D03*
X026259Y030735D03*
X026298Y031326D03*
X025363Y033097D03*
X022410Y033097D03*
X020885Y037556D03*
X019654Y038781D03*
X019620Y039456D03*
X030580Y029652D03*
X038306Y022320D03*
X039881Y022123D03*
X039881Y021188D03*
X040422Y020696D03*
X041062Y021089D03*
X039339Y019564D03*
X038355Y019662D03*
X038257Y020204D03*
X040422Y018186D03*
X041062Y018087D03*
X039881Y015676D03*
X039339Y013658D03*
X039093Y011345D03*
X035993Y011936D03*
X036239Y013609D03*
X040422Y023501D03*
X014389Y010952D03*
X014241Y007507D03*
D46*
X031761Y004849D03*
X034959Y017152D03*
X035501Y017152D03*
X035501Y017694D03*
X034467Y017743D03*
X033926Y017792D03*
X033385Y021975D03*
X033532Y022517D03*
X022902Y026749D03*
X022499Y027290D03*
X021475Y026306D03*
D47*
X027479Y019022D03*
X028217Y018973D03*
X035107Y018481D03*
X035747Y019269D03*
X038011Y018087D03*
X038700Y017694D03*
X039438Y017891D03*
X032696Y007777D03*
X033685Y007507D03*
X033237Y006424D03*
X032696Y006326D03*
X032007Y006178D03*
X033901Y006271D03*
D48*
X035845Y005144D03*
X036190Y006473D03*
X036426Y008132D03*
X034295Y008663D03*
X037420Y012723D03*
X028562Y020499D03*
X028562Y021089D03*
X027971Y021089D03*
X027971Y020499D03*
X026938Y021828D03*
X029251Y021877D03*
X022853Y029062D03*
X024408Y029111D03*
X022755Y030853D03*
X022902Y031444D03*
X022066Y030863D03*
X021446Y030784D03*
X020393Y025666D03*
X019211Y018235D03*
X019900Y017054D03*
X022668Y010853D03*
X023739Y010410D03*
X024034Y010853D03*
X024133Y009180D03*
X025658Y009180D03*
X026298Y009377D03*
X024034Y006719D03*
X019261Y006769D03*
X012961Y006227D03*
X013011Y011739D03*
X027873Y031670D03*
X027331Y041020D03*
D49*
X040078Y035263D03*
X040078Y034721D03*
X029152Y022910D03*
X028414Y023206D03*
X027774Y022615D03*
X026298Y021828D03*
X026052Y021828D03*
X026052Y021483D03*
X026298Y021483D03*
X026298Y020794D03*
X026298Y019957D03*
X026298Y019564D03*
X025412Y019564D03*
X024822Y020154D03*
X024231Y020696D03*
X024083Y021532D03*
X023542Y022270D03*
X023493Y022910D03*
X024034Y023501D03*
X023394Y023747D03*
X024822Y023648D03*
X025560Y023353D03*
X025757Y022566D03*
X025560Y021188D03*
X029497Y018826D03*
X030481Y019072D03*
X030875Y019318D03*
X030580Y020105D03*
X030432Y020597D03*
X030481Y021139D03*
X030186Y021631D03*
X029940Y022024D03*
X029989Y022467D03*
X032499Y022369D03*
X033680Y019318D03*
X034074Y019022D03*
X034615Y018776D03*
X032942Y017546D03*
X037765Y019269D03*
M02*
