G75*
G70*
%OFA0B0*%
%FSLAX24Y24*%
%IPPOS*%
%LPD*%
%AMOC8*
5,1,8,0,0,1.08239X$1,22.5*
%
%ADD10C,0.0030*%
%ADD11C,0.0040*%
%ADD12C,0.0160*%
%ADD13C,0.0010*%
%ADD14C,0.0220*%
%ADD15C,0.0080*%
%ADD16C,0.0060*%
%ADD17C,0.0320*%
%ADD18C,0.0020*%
%ADD19C,0.0050*%
%ADD20R,0.0350X0.0075*%
%ADD21R,0.0280X0.0160*%
%ADD22R,0.0160X0.0280*%
%ADD23R,0.0300X0.0180*%
%ADD24C,0.0039*%
%ADD25C,0.0000*%
%ADD26R,0.0118X0.0118*%
%ADD27R,0.0230X0.0240*%
%ADD28R,0.0240X0.0230*%
%ADD29R,0.0551X0.0039*%
%ADD30R,0.0551X0.0079*%
%ADD31R,0.0039X0.0079*%
%ADD32C,0.0079*%
%ADD33C,0.0197*%
%ADD34R,0.0118X0.0157*%
%ADD35C,0.0120*%
D10*
X006817Y007978D02*
X006817Y008269D01*
X006721Y008269D02*
X006914Y008269D01*
X007015Y008269D02*
X007015Y008075D01*
X007112Y007978D01*
X007209Y008075D01*
X007209Y008269D01*
X007310Y008172D02*
X007407Y008269D01*
X007407Y007978D01*
X007503Y007978D02*
X007310Y007978D01*
X007604Y008027D02*
X007653Y007978D01*
X007750Y007978D01*
X007798Y008027D01*
X007798Y008075D01*
X007750Y008124D01*
X007604Y008124D01*
X007604Y008027D01*
X007604Y008124D02*
X007701Y008220D01*
X007798Y008269D01*
X007899Y008124D02*
X008093Y008124D01*
X008194Y008220D02*
X008242Y008269D01*
X008339Y008269D01*
X008387Y008220D01*
X008387Y008172D01*
X008339Y008124D01*
X008387Y008075D01*
X008387Y008027D01*
X008339Y007978D01*
X008242Y007978D01*
X008194Y008027D01*
X008291Y008124D02*
X008339Y008124D01*
X005345Y008856D02*
X005297Y008808D01*
X005200Y008808D01*
X005152Y008856D01*
X005249Y008953D02*
X005297Y008953D01*
X005345Y008904D01*
X005345Y008856D01*
X005297Y008953D02*
X005345Y009001D01*
X005345Y009049D01*
X005297Y009098D01*
X005200Y009098D01*
X005152Y009049D01*
X005051Y009098D02*
X004857Y009098D01*
X004954Y009098D02*
X004954Y008808D01*
X004756Y008808D02*
X004659Y008904D01*
X004708Y008904D02*
X004563Y008904D01*
X004563Y008808D02*
X004563Y009098D01*
X004708Y009098D01*
X004756Y009049D01*
X004756Y008953D01*
X004708Y008904D01*
X004533Y011587D02*
X004242Y011587D01*
X004242Y011732D01*
X004291Y011780D01*
X004387Y011780D01*
X004436Y011732D01*
X004436Y011587D01*
X004436Y011684D02*
X004533Y011780D01*
X004533Y011978D02*
X004242Y011978D01*
X004242Y011882D02*
X004242Y012075D01*
X004291Y012176D02*
X004242Y012225D01*
X004242Y012321D01*
X004291Y012370D01*
X004339Y012370D01*
X004533Y012176D01*
X004533Y012370D01*
X005636Y015409D02*
X005636Y015700D01*
X005539Y015700D02*
X005733Y015700D01*
X005834Y015700D02*
X005834Y015506D01*
X005931Y015409D01*
X006028Y015506D01*
X006028Y015700D01*
X006129Y015603D02*
X006225Y015700D01*
X006225Y015409D01*
X006129Y015409D02*
X006322Y015409D01*
X006423Y015458D02*
X006423Y015555D01*
X006568Y015555D01*
X006617Y015506D01*
X006617Y015458D01*
X006568Y015409D01*
X006472Y015409D01*
X006423Y015458D01*
X006423Y015555D02*
X006520Y015651D01*
X006617Y015700D01*
X006718Y015555D02*
X006912Y015555D01*
X007013Y015651D02*
X007061Y015700D01*
X007158Y015700D01*
X007206Y015651D01*
X007206Y015603D01*
X007013Y015409D01*
X007206Y015409D01*
X004991Y016711D02*
X004798Y016711D01*
X004894Y016711D02*
X004894Y017001D01*
X004798Y016905D01*
X004696Y017001D02*
X004503Y017001D01*
X004600Y017001D02*
X004600Y016711D01*
X004402Y016711D02*
X004305Y016808D01*
X004353Y016808D02*
X004208Y016808D01*
X004208Y016711D02*
X004208Y017001D01*
X004353Y017001D01*
X004402Y016953D01*
X004402Y016856D01*
X004353Y016808D01*
X005636Y023185D02*
X005636Y023475D01*
X005539Y023475D02*
X005733Y023475D01*
X005834Y023475D02*
X005834Y023282D01*
X005931Y023185D01*
X006028Y023282D01*
X006028Y023475D01*
X006129Y023379D02*
X006225Y023475D01*
X006225Y023185D01*
X006129Y023185D02*
X006322Y023185D01*
X006423Y023233D02*
X006472Y023185D01*
X006568Y023185D01*
X006617Y023233D01*
X006617Y023282D01*
X006568Y023330D01*
X006423Y023330D01*
X006423Y023233D01*
X006423Y023330D02*
X006520Y023427D01*
X006617Y023475D01*
X006718Y023330D02*
X006912Y023330D01*
X007013Y023379D02*
X007109Y023475D01*
X007109Y023185D01*
X007013Y023185D02*
X007206Y023185D01*
X005632Y024498D02*
X005439Y024498D01*
X005535Y024498D02*
X005535Y024788D01*
X005439Y024692D01*
X005337Y024740D02*
X005144Y024546D01*
X005192Y024498D01*
X005289Y024498D01*
X005337Y024546D01*
X005337Y024740D01*
X005289Y024788D01*
X005192Y024788D01*
X005144Y024740D01*
X005144Y024546D01*
X005043Y024498D02*
X005043Y024788D01*
X004946Y024692D01*
X004849Y024788D01*
X004849Y024498D01*
X004748Y024643D02*
X004700Y024595D01*
X004555Y024595D01*
X004555Y024498D02*
X004555Y024788D01*
X004700Y024788D01*
X004748Y024740D01*
X004748Y024643D01*
X004453Y024643D02*
X004260Y024643D01*
X004159Y024498D02*
X004014Y024643D01*
X003965Y024595D02*
X004159Y024788D01*
X003965Y024788D02*
X003965Y024498D01*
X003864Y024498D02*
X003671Y024498D01*
X003671Y024788D01*
X003570Y024788D02*
X003570Y024498D01*
X003570Y024643D02*
X003376Y024643D01*
X003376Y024498D02*
X003376Y024788D01*
X011469Y031923D02*
X011614Y031923D01*
X011662Y031972D01*
X011662Y032165D01*
X011614Y032214D01*
X011469Y032214D01*
X011469Y031923D01*
X011763Y031972D02*
X011812Y031923D01*
X011908Y031923D01*
X011957Y031972D01*
X012058Y031923D02*
X012203Y031923D01*
X012251Y031972D01*
X012251Y032165D01*
X012203Y032214D01*
X012058Y032214D01*
X012058Y031923D01*
X011957Y032165D02*
X011908Y032214D01*
X011812Y032214D01*
X011763Y032165D01*
X011763Y031972D01*
X012352Y031972D02*
X012401Y031923D01*
X012498Y031923D01*
X012546Y031972D01*
X012546Y032165D02*
X012498Y032214D01*
X012401Y032214D01*
X012352Y032165D01*
X012352Y031972D01*
X012374Y033199D02*
X012277Y033199D01*
X012325Y033199D02*
X012325Y033489D01*
X012277Y033489D02*
X012374Y033489D01*
X012473Y033489D02*
X012473Y033199D01*
X012667Y033199D02*
X012667Y033489D01*
X012570Y033392D01*
X012473Y033489D01*
X012768Y033489D02*
X012768Y033199D01*
X012768Y033344D02*
X012962Y033344D01*
X013063Y033441D02*
X013063Y033247D01*
X013111Y033199D01*
X013208Y033199D01*
X013256Y033247D01*
X013256Y033441D01*
X013208Y033489D01*
X013111Y033489D01*
X013063Y033441D01*
X012962Y033489D02*
X012962Y033199D01*
X013357Y033199D02*
X013357Y033489D01*
X013357Y033199D02*
X013551Y033199D01*
X013652Y033199D02*
X013797Y033199D01*
X013846Y033247D01*
X013846Y033441D01*
X013797Y033489D01*
X013652Y033489D01*
X013652Y033199D01*
X013947Y033199D02*
X013947Y033489D01*
X014140Y033489D01*
X014241Y033489D02*
X014386Y033489D01*
X014435Y033441D01*
X014435Y033344D01*
X014386Y033296D01*
X014241Y033296D01*
X014338Y033296D02*
X014435Y033199D01*
X014241Y033199D02*
X014241Y033489D01*
X014043Y033344D02*
X013947Y033344D01*
X013947Y033199D02*
X014140Y033199D01*
X012176Y033247D02*
X012127Y033199D01*
X012031Y033199D01*
X011982Y033247D01*
X012031Y033344D02*
X012127Y033344D01*
X012176Y033296D01*
X012176Y033247D01*
X012031Y033344D02*
X011982Y033392D01*
X011982Y033441D01*
X012031Y033489D01*
X012127Y033489D01*
X012176Y033441D01*
X019941Y041374D02*
X019941Y041664D01*
X020086Y041664D01*
X020134Y041616D01*
X020134Y041519D01*
X020086Y041471D01*
X019941Y041471D01*
X020038Y041471D02*
X020134Y041374D01*
X020236Y041422D02*
X020284Y041374D01*
X020381Y041374D01*
X020429Y041422D01*
X020429Y041616D01*
X020381Y041664D01*
X020284Y041664D01*
X020236Y041616D01*
X020236Y041568D01*
X020284Y041519D01*
X020429Y041519D01*
X020530Y041519D02*
X020724Y041519D01*
X020675Y041374D02*
X020675Y041664D01*
X020530Y041519D01*
X022072Y041608D02*
X022072Y041414D01*
X022217Y041414D01*
X022168Y041511D01*
X022168Y041559D01*
X022217Y041608D01*
X022313Y041608D01*
X022362Y041559D01*
X022362Y041463D01*
X022313Y041414D01*
X022313Y041313D02*
X022120Y041313D01*
X022072Y041265D01*
X022072Y041168D01*
X022120Y041119D01*
X022168Y041119D01*
X022217Y041168D01*
X022217Y041313D01*
X022313Y041313D02*
X022362Y041265D01*
X022362Y041168D01*
X022313Y041119D01*
X022362Y041018D02*
X022265Y040922D01*
X022265Y040970D02*
X022265Y040825D01*
X022362Y040825D02*
X022072Y040825D01*
X022072Y040970D01*
X022120Y041018D01*
X022217Y041018D01*
X022265Y040970D01*
X024591Y040934D02*
X024591Y040740D01*
X024591Y040885D02*
X024784Y040885D01*
X024784Y040934D02*
X024784Y040740D01*
X024885Y040740D02*
X024885Y041030D01*
X025079Y040740D01*
X025079Y041030D01*
X025180Y041030D02*
X025373Y041030D01*
X025277Y041030D02*
X025277Y040740D01*
X025475Y040740D02*
X025668Y040740D01*
X025571Y040740D02*
X025571Y041030D01*
X025475Y040934D01*
X024784Y040934D02*
X024687Y041030D01*
X024591Y040934D01*
X026478Y044205D02*
X026672Y044205D01*
X026773Y044253D02*
X026821Y044205D01*
X026918Y044205D01*
X026967Y044253D01*
X027068Y044205D02*
X027213Y044205D01*
X027261Y044253D01*
X027261Y044447D01*
X027213Y044495D01*
X027068Y044495D01*
X027068Y044205D01*
X026967Y044447D02*
X026918Y044495D01*
X026821Y044495D01*
X026773Y044447D01*
X026773Y044253D01*
X026478Y044205D02*
X026478Y044495D01*
X027362Y044398D02*
X027459Y044495D01*
X027459Y044205D01*
X027362Y044205D02*
X027556Y044205D01*
X027657Y044350D02*
X027850Y044350D01*
X027802Y044495D02*
X027657Y044350D01*
X027802Y044205D02*
X027802Y044495D01*
X032565Y042466D02*
X032613Y042369D01*
X032710Y042272D01*
X032710Y042417D01*
X032758Y042466D01*
X032807Y042466D01*
X032855Y042417D01*
X032855Y042321D01*
X032807Y042272D01*
X032710Y042272D01*
X032710Y042171D02*
X032710Y042026D01*
X032662Y041978D01*
X032613Y041978D01*
X032565Y042026D01*
X032565Y042123D01*
X032613Y042171D01*
X032807Y042171D01*
X032855Y042123D01*
X032855Y042026D01*
X032807Y041978D01*
X032807Y041877D02*
X032855Y041828D01*
X032855Y041731D01*
X032807Y041683D01*
X032613Y041683D01*
X032565Y041731D01*
X032565Y041828D01*
X032613Y041877D01*
X031147Y038877D02*
X031147Y038683D01*
X030954Y038877D01*
X030905Y038877D01*
X030857Y038829D01*
X030857Y038732D01*
X030905Y038683D01*
X031147Y038582D02*
X031147Y038389D01*
X030857Y038389D01*
X030955Y036398D02*
X030906Y036350D01*
X030906Y036301D01*
X030955Y036253D01*
X031052Y036253D01*
X031100Y036204D01*
X031100Y036156D01*
X031052Y036108D01*
X030955Y036108D01*
X030906Y036156D01*
X030955Y036398D02*
X031052Y036398D01*
X031100Y036350D01*
X031201Y036398D02*
X031395Y036398D01*
X031298Y036398D02*
X031298Y036108D01*
X031496Y036108D02*
X031496Y036398D01*
X031593Y036301D01*
X031689Y036398D01*
X031689Y036108D01*
X031790Y036253D02*
X031984Y036253D01*
X032085Y036301D02*
X032133Y036253D01*
X032230Y036253D01*
X032279Y036204D01*
X032279Y036156D01*
X032230Y036108D01*
X032133Y036108D01*
X032085Y036156D01*
X032085Y036301D02*
X032085Y036350D01*
X032133Y036398D01*
X032230Y036398D01*
X032279Y036350D01*
X032380Y036398D02*
X032380Y036108D01*
X032476Y036204D01*
X032573Y036108D01*
X032573Y036398D01*
X032674Y036398D02*
X032819Y036398D01*
X032868Y036350D01*
X032868Y036156D01*
X032819Y036108D01*
X032674Y036108D01*
X032674Y036398D01*
X035338Y036447D02*
X035338Y036253D01*
X035483Y036253D01*
X035434Y036350D01*
X035434Y036398D01*
X035483Y036447D01*
X035580Y036447D01*
X035628Y036398D01*
X035628Y036302D01*
X035580Y036253D01*
X035628Y036152D02*
X035531Y036055D01*
X035531Y036104D02*
X035531Y035959D01*
X035628Y035959D02*
X035338Y035959D01*
X035338Y036104D01*
X035386Y036152D01*
X035483Y036152D01*
X035531Y036104D01*
X035483Y035857D02*
X035483Y035664D01*
X035483Y035563D02*
X035483Y035369D01*
X035628Y035369D02*
X035338Y035369D01*
X035338Y035268D02*
X035338Y035075D01*
X035338Y035171D02*
X035628Y035171D01*
X035628Y034973D02*
X035628Y034780D01*
X035338Y034780D01*
X035338Y034973D01*
X035483Y034877D02*
X035483Y034780D01*
X035338Y035563D02*
X035628Y035563D01*
X036519Y035563D02*
X036809Y035563D01*
X036664Y035563D02*
X036664Y035369D01*
X036809Y035369D02*
X036519Y035369D01*
X036519Y035268D02*
X036519Y035075D01*
X036519Y035171D02*
X036809Y035171D01*
X036809Y034973D02*
X036809Y034780D01*
X036519Y034780D01*
X036519Y034973D01*
X036664Y034877D02*
X036664Y034780D01*
X036664Y035664D02*
X036664Y035857D01*
X036712Y035959D02*
X036712Y036104D01*
X036664Y036152D01*
X036567Y036152D01*
X036519Y036104D01*
X036519Y035959D01*
X036809Y035959D01*
X036712Y036055D02*
X036809Y036152D01*
X036664Y036253D02*
X036664Y036447D01*
X036809Y036398D02*
X036519Y036398D01*
X036664Y036253D01*
X036366Y033299D02*
X036366Y033105D01*
X036173Y033299D01*
X036124Y033299D01*
X036076Y033251D01*
X036076Y033154D01*
X036124Y033105D01*
X036124Y033004D02*
X036173Y033004D01*
X036221Y032956D01*
X036269Y033004D01*
X036318Y033004D01*
X036366Y032956D01*
X036366Y032859D01*
X036318Y032811D01*
X036366Y032710D02*
X036269Y032613D01*
X036269Y032661D02*
X036269Y032516D01*
X036366Y032516D02*
X036076Y032516D01*
X036076Y032661D01*
X036124Y032710D01*
X036221Y032710D01*
X036269Y032661D01*
X036124Y032811D02*
X036076Y032859D01*
X036076Y032956D01*
X036124Y033004D01*
X036221Y032956D02*
X036221Y032908D01*
X035629Y032908D02*
X035629Y032812D01*
X035581Y032763D01*
X035581Y032662D02*
X035629Y032614D01*
X035629Y032517D01*
X035581Y032469D01*
X035388Y032469D01*
X035339Y032517D01*
X035339Y032614D01*
X035388Y032662D01*
X035388Y032763D02*
X035339Y032812D01*
X035339Y032908D01*
X035388Y032957D01*
X035436Y032957D01*
X035484Y032908D01*
X035533Y032957D01*
X035581Y032957D01*
X035629Y032908D01*
X035484Y032908D02*
X035484Y032860D01*
X035484Y033058D02*
X035484Y033251D01*
X035629Y033203D02*
X035339Y033203D01*
X035484Y033058D01*
X034842Y033058D02*
X034649Y033251D01*
X034600Y033251D01*
X034552Y033203D01*
X034552Y033106D01*
X034600Y033058D01*
X034600Y032957D02*
X034649Y032957D01*
X034697Y032908D01*
X034745Y032957D01*
X034794Y032957D01*
X034842Y032908D01*
X034842Y032812D01*
X034794Y032763D01*
X034794Y032662D02*
X034842Y032614D01*
X034842Y032517D01*
X034794Y032469D01*
X034600Y032469D01*
X034552Y032517D01*
X034552Y032614D01*
X034600Y032662D01*
X034600Y032763D02*
X034552Y032812D01*
X034552Y032908D01*
X034600Y032957D01*
X034697Y032908D02*
X034697Y032860D01*
X034842Y033058D02*
X034842Y033251D01*
X034053Y032906D02*
X034053Y032809D01*
X034005Y032761D01*
X033811Y032954D01*
X034005Y032954D01*
X034053Y032906D01*
X034005Y032761D02*
X033811Y032761D01*
X033763Y032809D01*
X033763Y032906D01*
X033811Y032954D01*
X033811Y032660D02*
X033860Y032660D01*
X033908Y032611D01*
X033956Y032660D01*
X034005Y032660D01*
X034053Y032611D01*
X034053Y032515D01*
X034005Y032466D01*
X034053Y032365D02*
X033956Y032268D01*
X033956Y032317D02*
X033956Y032172D01*
X034053Y032172D02*
X033763Y032172D01*
X033763Y032317D01*
X033811Y032365D01*
X033908Y032365D01*
X033956Y032317D01*
X033811Y032466D02*
X033763Y032515D01*
X033763Y032611D01*
X033811Y032660D01*
X033908Y032611D02*
X033908Y032563D01*
X033267Y032516D02*
X033219Y032468D01*
X033267Y032516D02*
X033267Y032613D01*
X033219Y032661D01*
X033171Y032661D01*
X033122Y032613D01*
X033122Y032565D01*
X033122Y032613D02*
X033074Y032661D01*
X033025Y032661D01*
X032977Y032613D01*
X032977Y032516D01*
X033025Y032468D01*
X033025Y032367D02*
X032977Y032318D01*
X032977Y032222D01*
X033025Y032173D01*
X033219Y032173D01*
X033267Y032222D01*
X033267Y032318D01*
X033219Y032367D01*
X033219Y032763D02*
X033025Y032956D01*
X033219Y032956D01*
X033267Y032908D01*
X033267Y032811D01*
X033219Y032763D01*
X033025Y032763D01*
X032977Y032811D01*
X032977Y032908D01*
X033025Y032956D01*
X032820Y033352D02*
X032820Y033642D01*
X032724Y033642D02*
X032917Y033642D01*
X032622Y033594D02*
X032622Y033497D01*
X032574Y033449D01*
X032429Y033449D01*
X032526Y033449D02*
X032622Y033352D01*
X032429Y033352D02*
X032429Y033642D01*
X032574Y033642D01*
X032622Y033594D01*
X032328Y033545D02*
X032328Y033352D01*
X032328Y033497D02*
X032134Y033497D01*
X032134Y033545D02*
X032231Y033642D01*
X032328Y033545D01*
X032134Y033545D02*
X032134Y033352D01*
X032033Y033400D02*
X031985Y033352D01*
X031888Y033352D01*
X031840Y033400D01*
X031738Y033400D02*
X031738Y033642D01*
X031840Y033594D02*
X031840Y033545D01*
X031888Y033497D01*
X031985Y033497D01*
X032033Y033449D01*
X032033Y033400D01*
X032033Y033594D02*
X031985Y033642D01*
X031888Y033642D01*
X031840Y033594D01*
X031738Y033400D02*
X031690Y033352D01*
X031593Y033352D01*
X031545Y033400D01*
X031545Y033642D01*
X031444Y033497D02*
X031250Y033497D01*
X031149Y033642D02*
X031149Y033352D01*
X030956Y033352D02*
X030956Y033642D01*
X031052Y033545D01*
X031149Y033642D01*
X030855Y033642D02*
X030661Y033642D01*
X030758Y033642D02*
X030758Y033352D01*
X030560Y033400D02*
X030511Y033352D01*
X030415Y033352D01*
X030366Y033400D01*
X030415Y033497D02*
X030511Y033497D01*
X030560Y033449D01*
X030560Y033400D01*
X030415Y033497D02*
X030366Y033545D01*
X030366Y033594D01*
X030415Y033642D01*
X030511Y033642D01*
X030560Y033594D01*
X033198Y030601D02*
X033150Y030553D01*
X033150Y030359D01*
X033198Y030311D01*
X033295Y030311D01*
X033343Y030359D01*
X033444Y030359D02*
X033493Y030311D01*
X033589Y030311D01*
X033638Y030359D01*
X033638Y030456D01*
X033589Y030505D01*
X033541Y030505D01*
X033444Y030456D01*
X033444Y030601D01*
X033638Y030601D01*
X033739Y030553D02*
X033739Y030359D01*
X033932Y030553D01*
X033932Y030359D01*
X033884Y030311D01*
X033787Y030311D01*
X033739Y030359D01*
X033739Y030553D02*
X033787Y030601D01*
X033884Y030601D01*
X033932Y030553D01*
X034010Y030598D02*
X034203Y030598D01*
X034252Y030647D01*
X034252Y030744D01*
X034203Y030792D01*
X034203Y030893D02*
X034252Y030941D01*
X034252Y031038D01*
X034203Y031087D01*
X034155Y031087D01*
X034106Y031038D01*
X034106Y030990D01*
X034106Y031038D02*
X034058Y031087D01*
X034010Y031087D01*
X033961Y031038D01*
X033961Y030941D01*
X034010Y030893D01*
X034010Y030792D02*
X033961Y030744D01*
X033961Y030647D01*
X034010Y030598D01*
X034058Y031188D02*
X033961Y031285D01*
X034252Y031285D01*
X034252Y031381D02*
X034252Y031188D01*
X034796Y031185D02*
X034844Y031233D01*
X034892Y031233D01*
X034941Y031185D01*
X034989Y031233D01*
X035037Y031233D01*
X035086Y031185D01*
X035086Y031088D01*
X035037Y031040D01*
X035086Y030939D02*
X034989Y030842D01*
X034989Y030890D02*
X034989Y030745D01*
X035086Y030745D02*
X034796Y030745D01*
X034796Y030890D01*
X034844Y030939D01*
X034941Y030939D01*
X034989Y030890D01*
X034844Y031040D02*
X034796Y031088D01*
X034796Y031185D01*
X034941Y031185D02*
X034941Y031137D01*
X034892Y031335D02*
X034796Y031431D01*
X035086Y031431D01*
X035086Y031335D02*
X035086Y031528D01*
X035782Y031531D02*
X035782Y031628D01*
X035831Y031677D01*
X035879Y031677D01*
X035927Y031628D01*
X035976Y031677D01*
X036024Y031677D01*
X036072Y031628D01*
X036072Y031531D01*
X036024Y031483D01*
X036024Y031382D02*
X036072Y031334D01*
X036072Y031237D01*
X036024Y031188D01*
X036024Y031087D02*
X036072Y031039D01*
X036072Y030942D01*
X036024Y030894D01*
X035831Y030894D01*
X035782Y030942D01*
X035782Y031039D01*
X035831Y031087D01*
X035831Y031188D02*
X035782Y031237D01*
X035782Y031334D01*
X035831Y031382D01*
X035879Y031382D01*
X035927Y031334D01*
X035976Y031382D01*
X036024Y031382D01*
X035927Y031334D02*
X035927Y031285D01*
X035831Y031483D02*
X035782Y031531D01*
X035927Y031580D02*
X035927Y031628D01*
X036914Y032517D02*
X036962Y032469D01*
X037156Y032469D01*
X037204Y032517D01*
X037204Y032614D01*
X037156Y032662D01*
X037156Y032763D02*
X037204Y032812D01*
X037204Y032908D01*
X037156Y032957D01*
X037108Y032957D01*
X037059Y032908D01*
X037059Y032860D01*
X037059Y032908D02*
X037011Y032957D01*
X036962Y032957D01*
X036914Y032908D01*
X036914Y032812D01*
X036962Y032763D01*
X036962Y032662D02*
X036914Y032614D01*
X036914Y032517D01*
X037059Y033058D02*
X037059Y033203D01*
X037108Y033251D01*
X037156Y033251D01*
X037204Y033203D01*
X037204Y033106D01*
X037156Y033058D01*
X037059Y033058D01*
X036962Y033155D01*
X036914Y033251D01*
X037651Y033201D02*
X037651Y033105D01*
X037699Y033056D01*
X037699Y032955D02*
X037747Y032955D01*
X037796Y032907D01*
X037844Y032955D01*
X037893Y032955D01*
X037941Y032907D01*
X037941Y032810D01*
X037893Y032762D01*
X037941Y032660D02*
X037844Y032564D01*
X037844Y032612D02*
X037844Y032467D01*
X037941Y032467D02*
X037651Y032467D01*
X037651Y032612D01*
X037699Y032660D01*
X037796Y032660D01*
X037844Y032612D01*
X037699Y032762D02*
X037651Y032810D01*
X037651Y032907D01*
X037699Y032955D01*
X037796Y032907D02*
X037796Y032858D01*
X037893Y033056D02*
X037941Y033105D01*
X037941Y033201D01*
X037893Y033250D01*
X037844Y033250D01*
X037796Y033201D01*
X037796Y033153D01*
X037796Y033201D02*
X037747Y033250D01*
X037699Y033250D01*
X037651Y033201D01*
X038684Y033005D02*
X038829Y032859D01*
X038829Y033053D01*
X038974Y033005D02*
X038684Y033005D01*
X038732Y032758D02*
X038781Y032758D01*
X038829Y032710D01*
X038878Y032758D01*
X038926Y032758D01*
X038974Y032710D01*
X038974Y032613D01*
X038926Y032565D01*
X038974Y032464D02*
X038878Y032367D01*
X038878Y032415D02*
X038878Y032270D01*
X038974Y032270D02*
X038684Y032270D01*
X038684Y032415D01*
X038732Y032464D01*
X038829Y032464D01*
X038878Y032415D01*
X038732Y032565D02*
X038684Y032613D01*
X038684Y032710D01*
X038732Y032758D01*
X038829Y032710D02*
X038829Y032662D01*
X039422Y032662D02*
X039422Y032759D01*
X039471Y032807D01*
X039519Y032807D01*
X039567Y032759D01*
X039616Y032807D01*
X039664Y032807D01*
X039713Y032759D01*
X039713Y032662D01*
X039664Y032614D01*
X039713Y032513D02*
X039616Y032416D01*
X039616Y032464D02*
X039616Y032319D01*
X039713Y032319D02*
X039422Y032319D01*
X039422Y032464D01*
X039471Y032513D01*
X039567Y032513D01*
X039616Y032464D01*
X039471Y032614D02*
X039422Y032662D01*
X039567Y032711D02*
X039567Y032759D01*
X039567Y032909D02*
X039519Y033005D01*
X039519Y033054D01*
X039567Y033102D01*
X039664Y033102D01*
X039713Y033054D01*
X039713Y032957D01*
X039664Y032909D01*
X039567Y032909D02*
X039422Y032909D01*
X039422Y033102D01*
X037450Y031677D02*
X037450Y031581D01*
X037402Y031532D01*
X037305Y031532D02*
X037257Y031629D01*
X037257Y031677D01*
X037305Y031726D01*
X037402Y031726D01*
X037450Y031677D01*
X037305Y031532D02*
X037160Y031532D01*
X037160Y031726D01*
X037208Y031431D02*
X037257Y031431D01*
X037305Y031383D01*
X037354Y031431D01*
X037402Y031431D01*
X037450Y031383D01*
X037450Y031286D01*
X037402Y031238D01*
X037402Y031136D02*
X037450Y031088D01*
X037450Y030991D01*
X037402Y030943D01*
X037208Y030943D01*
X037160Y030991D01*
X037160Y031088D01*
X037208Y031136D01*
X037208Y031238D02*
X037160Y031286D01*
X037160Y031383D01*
X037208Y031431D01*
X037305Y031383D02*
X037305Y031334D01*
X040978Y029616D02*
X040978Y029520D01*
X041027Y029471D01*
X040978Y029370D02*
X040978Y029176D01*
X041123Y029176D01*
X041075Y029273D01*
X041075Y029322D01*
X041123Y029370D01*
X041220Y029370D01*
X041268Y029322D01*
X041268Y029225D01*
X041220Y029176D01*
X041268Y029075D02*
X041172Y028979D01*
X041172Y029027D02*
X041172Y028882D01*
X041268Y028882D02*
X040978Y028882D01*
X040978Y029027D01*
X041027Y029075D01*
X041123Y029075D01*
X041172Y029027D01*
X041220Y029471D02*
X041268Y029520D01*
X041268Y029616D01*
X041220Y029665D01*
X041172Y029665D01*
X041123Y029616D01*
X041123Y029568D01*
X041123Y029616D02*
X041075Y029665D01*
X041027Y029665D01*
X040978Y029616D01*
X039521Y027448D02*
X039521Y027255D01*
X039328Y027448D01*
X039279Y027448D01*
X039231Y027400D01*
X039231Y027303D01*
X039279Y027255D01*
X039231Y027154D02*
X039231Y026960D01*
X039376Y026960D01*
X039328Y027057D01*
X039328Y027105D01*
X039376Y027154D01*
X039473Y027154D01*
X039521Y027105D01*
X039521Y027008D01*
X039473Y026960D01*
X039521Y026859D02*
X039424Y026762D01*
X039424Y026811D02*
X039424Y026665D01*
X039521Y026665D02*
X039231Y026665D01*
X039231Y026811D01*
X039279Y026859D01*
X039376Y026859D01*
X039424Y026811D01*
X039259Y025795D02*
X039259Y025505D01*
X039162Y025505D02*
X039356Y025505D01*
X039162Y025698D02*
X039259Y025795D01*
X039061Y025795D02*
X038867Y025795D01*
X038867Y025650D01*
X038964Y025698D01*
X039013Y025698D01*
X039061Y025650D01*
X039061Y025553D01*
X039013Y025505D01*
X038916Y025505D01*
X038867Y025553D01*
X038766Y025505D02*
X038670Y025602D01*
X038718Y025602D02*
X038573Y025602D01*
X038573Y025505D02*
X038573Y025795D01*
X038718Y025795D01*
X038766Y025747D01*
X038766Y025650D01*
X038718Y025602D01*
X035803Y025881D02*
X035803Y025929D01*
X035754Y025978D01*
X035609Y025978D01*
X035609Y025881D01*
X035657Y025833D01*
X035754Y025833D01*
X035803Y025881D01*
X035706Y026075D02*
X035609Y025978D01*
X035508Y025978D02*
X035508Y025881D01*
X035459Y025833D01*
X035363Y025833D01*
X035314Y025881D01*
X035314Y025978D02*
X035411Y026026D01*
X035459Y026026D01*
X035508Y025978D01*
X035508Y026123D02*
X035314Y026123D01*
X035314Y025978D01*
X035213Y026075D02*
X035165Y026123D01*
X035068Y026123D01*
X035020Y026075D01*
X035020Y025881D01*
X035068Y025833D01*
X035165Y025833D01*
X035213Y025881D01*
X034987Y025545D02*
X035036Y025497D01*
X035036Y025448D01*
X034842Y025255D01*
X035036Y025255D01*
X034987Y025545D02*
X034890Y025545D01*
X034842Y025497D01*
X034741Y025255D02*
X034547Y025255D01*
X034547Y025545D01*
X034446Y025448D02*
X034349Y025545D01*
X034253Y025448D01*
X034253Y025255D01*
X034253Y025400D02*
X034446Y025400D01*
X034446Y025448D02*
X034446Y025255D01*
X034055Y025255D02*
X034055Y025545D01*
X033958Y025545D02*
X034152Y025545D01*
X033857Y025545D02*
X033663Y025255D01*
X033857Y025255D02*
X033663Y025545D01*
X032923Y025578D02*
X032923Y025675D01*
X032874Y025723D01*
X032874Y025824D02*
X032923Y025873D01*
X032923Y025969D01*
X032874Y026018D01*
X032778Y026018D01*
X032729Y025969D01*
X032729Y025921D01*
X032778Y025824D01*
X032633Y025824D01*
X032633Y026018D01*
X032778Y026119D02*
X032778Y026312D01*
X032923Y026264D02*
X032633Y026264D01*
X032778Y026119D01*
X032681Y025723D02*
X032633Y025675D01*
X032633Y025578D01*
X032681Y025530D01*
X032874Y025530D01*
X032923Y025578D01*
X033640Y026326D02*
X033640Y026617D01*
X033785Y026617D01*
X033834Y026568D01*
X033834Y026472D01*
X033785Y026423D01*
X033640Y026423D01*
X033737Y026423D02*
X033834Y026326D01*
X033935Y026375D02*
X033983Y026326D01*
X034080Y026326D01*
X034128Y026375D01*
X034128Y026472D01*
X034080Y026520D01*
X034032Y026520D01*
X033935Y026472D01*
X033935Y026617D01*
X034128Y026617D01*
X034230Y026568D02*
X034230Y026375D01*
X034423Y026568D01*
X034423Y026375D01*
X034375Y026326D01*
X034278Y026326D01*
X034230Y026375D01*
X034230Y026568D02*
X034278Y026617D01*
X034375Y026617D01*
X034423Y026568D01*
X033894Y027129D02*
X033797Y027129D01*
X033749Y027177D01*
X033749Y027274D02*
X033845Y027322D01*
X033894Y027322D01*
X033942Y027274D01*
X033942Y027177D01*
X033894Y027129D01*
X033749Y027274D02*
X033749Y027419D01*
X033942Y027419D01*
X033648Y027419D02*
X033454Y027419D01*
X033454Y027274D01*
X033551Y027322D01*
X033599Y027322D01*
X033648Y027274D01*
X033648Y027177D01*
X033599Y027129D01*
X033502Y027129D01*
X033454Y027177D01*
X033353Y027177D02*
X033305Y027129D01*
X033208Y027129D01*
X033159Y027177D01*
X033159Y027371D01*
X033208Y027419D01*
X033305Y027419D01*
X033353Y027371D01*
X033443Y027900D02*
X033394Y027948D01*
X033443Y027900D02*
X033540Y027900D01*
X033588Y027948D01*
X033588Y027996D01*
X033540Y028045D01*
X033491Y028045D01*
X033540Y028045D02*
X033588Y028093D01*
X033588Y028142D01*
X033540Y028190D01*
X033443Y028190D01*
X033394Y028142D01*
X033293Y028190D02*
X033100Y028190D01*
X033100Y028045D01*
X033197Y028093D01*
X033245Y028093D01*
X033293Y028045D01*
X033293Y027948D01*
X033245Y027900D01*
X033148Y027900D01*
X033100Y027948D01*
X032999Y027948D02*
X032950Y027900D01*
X032854Y027900D01*
X032805Y027948D01*
X032805Y028142D01*
X032854Y028190D01*
X032950Y028190D01*
X032999Y028142D01*
X033001Y028687D02*
X032952Y028735D01*
X033001Y028687D02*
X033097Y028687D01*
X033146Y028735D01*
X033146Y028832D01*
X033097Y028881D01*
X033049Y028881D01*
X032952Y028832D01*
X032952Y028977D01*
X033146Y028977D01*
X033247Y028929D02*
X033295Y028977D01*
X033392Y028977D01*
X033440Y028929D01*
X033440Y028881D01*
X033247Y028687D01*
X033440Y028687D01*
X033394Y029524D02*
X033588Y029524D01*
X033491Y029524D02*
X033491Y029814D01*
X033394Y029717D01*
X033293Y029669D02*
X033293Y029572D01*
X033245Y029524D01*
X033148Y029524D01*
X033100Y029572D01*
X033100Y029669D02*
X033197Y029717D01*
X033245Y029717D01*
X033293Y029669D01*
X033293Y029814D02*
X033100Y029814D01*
X033100Y029669D01*
X032999Y029766D02*
X032950Y029814D01*
X032854Y029814D01*
X032805Y029766D01*
X032805Y029572D01*
X032854Y029524D01*
X032950Y029524D01*
X032999Y029572D01*
X032803Y028977D02*
X032706Y028977D01*
X032658Y028929D01*
X032658Y028735D01*
X032706Y028687D01*
X032803Y028687D01*
X032851Y028735D01*
X032851Y028929D02*
X032803Y028977D01*
X033343Y030553D02*
X033295Y030601D01*
X033198Y030601D01*
X035706Y026075D02*
X035803Y026123D01*
X034275Y021595D02*
X034324Y021547D01*
X034324Y021499D01*
X034275Y021450D01*
X034324Y021402D01*
X034324Y021354D01*
X034275Y021305D01*
X034179Y021305D01*
X034130Y021354D01*
X034029Y021305D02*
X033836Y021305D01*
X033932Y021305D02*
X033932Y021595D01*
X033836Y021499D01*
X033734Y021547D02*
X033686Y021595D01*
X033589Y021595D01*
X033541Y021547D01*
X033541Y021354D01*
X033589Y021305D01*
X033686Y021305D01*
X033734Y021354D01*
X033440Y021450D02*
X033246Y021450D01*
X033145Y021595D02*
X033145Y021305D01*
X032952Y021305D02*
X032952Y021595D01*
X033048Y021499D01*
X033145Y021595D01*
X032850Y021595D02*
X032657Y021595D01*
X032754Y021595D02*
X032754Y021305D01*
X032556Y021354D02*
X032507Y021305D01*
X032411Y021305D01*
X032362Y021354D01*
X032411Y021450D02*
X032507Y021450D01*
X032556Y021402D01*
X032556Y021354D01*
X032411Y021450D02*
X032362Y021499D01*
X032362Y021547D01*
X032411Y021595D01*
X032507Y021595D01*
X032556Y021547D01*
X034130Y021547D02*
X034179Y021595D01*
X034275Y021595D01*
X034275Y021450D02*
X034227Y021450D01*
X037291Y020367D02*
X037340Y020367D01*
X037533Y020174D01*
X037581Y020174D01*
X037581Y020073D02*
X037581Y019879D01*
X037388Y020073D01*
X037340Y020073D01*
X037291Y020024D01*
X037291Y019928D01*
X037340Y019879D01*
X037340Y019778D02*
X037291Y019730D01*
X037291Y019633D01*
X037340Y019585D01*
X037533Y019585D01*
X037581Y019633D01*
X037581Y019730D01*
X037533Y019778D01*
X037291Y020174D02*
X037291Y020367D01*
X037783Y016184D02*
X037832Y016088D01*
X037928Y015991D01*
X037928Y016136D01*
X037977Y016184D01*
X038025Y016184D01*
X038074Y016136D01*
X038074Y016039D01*
X038025Y015991D01*
X037928Y015991D01*
X037880Y015890D02*
X037832Y015890D01*
X037783Y015841D01*
X037783Y015745D01*
X037832Y015696D01*
X037832Y015595D02*
X037783Y015547D01*
X037783Y015450D01*
X037832Y015402D01*
X038025Y015402D01*
X038074Y015450D01*
X038074Y015547D01*
X038025Y015595D01*
X038074Y015696D02*
X037880Y015890D01*
X038074Y015890D02*
X038074Y015696D01*
X036023Y014208D02*
X036023Y014111D01*
X035975Y014062D01*
X036023Y013961D02*
X036023Y013768D01*
X035733Y013768D01*
X035781Y014062D02*
X035733Y014111D01*
X035733Y014208D01*
X035781Y014256D01*
X035830Y014256D01*
X035878Y014208D01*
X035926Y014256D01*
X035975Y014256D01*
X036023Y014208D01*
X035878Y014208D02*
X035878Y014159D01*
X035285Y014210D02*
X035285Y014307D01*
X035237Y014355D01*
X035285Y014456D02*
X035092Y014650D01*
X035043Y014650D01*
X034995Y014601D01*
X034995Y014504D01*
X035043Y014456D01*
X035043Y014355D02*
X034995Y014307D01*
X034995Y014210D01*
X035043Y014161D01*
X035237Y014161D01*
X035285Y014210D01*
X035285Y014456D02*
X035285Y014650D01*
X035237Y014751D02*
X035285Y014799D01*
X035285Y014896D01*
X035237Y014944D01*
X035140Y014944D01*
X035092Y014896D01*
X035092Y014848D01*
X035140Y014751D01*
X034995Y014751D01*
X034995Y014944D01*
X034444Y015106D02*
X034250Y015106D01*
X034347Y015106D02*
X034347Y015397D01*
X034250Y015300D01*
X034149Y015348D02*
X033956Y015155D01*
X034004Y015106D01*
X034101Y015106D01*
X034149Y015155D01*
X034149Y015348D01*
X034101Y015397D01*
X034004Y015397D01*
X033956Y015348D01*
X033956Y015155D01*
X033855Y015251D02*
X033661Y015251D01*
X033806Y015397D01*
X033806Y015106D01*
X033463Y015251D02*
X033367Y015251D01*
X033367Y015106D02*
X033367Y015397D01*
X033560Y015397D01*
X033265Y015397D02*
X033265Y015106D01*
X033072Y015106D02*
X033072Y015397D01*
X033169Y015300D01*
X033265Y015397D01*
X032971Y015397D02*
X032777Y015397D01*
X032874Y015397D02*
X032874Y015106D01*
X032904Y015033D02*
X032590Y015033D01*
X032904Y015033D01*
X032904Y014876D02*
X032590Y015190D01*
X032904Y014876D01*
X032747Y014876D02*
X032747Y015190D01*
X032747Y014876D01*
X032590Y014876D02*
X032904Y015190D01*
X032590Y014876D01*
X032628Y015106D02*
X032531Y015106D01*
X032483Y015155D01*
X032531Y015251D02*
X032628Y015251D01*
X032676Y015203D01*
X032676Y015155D01*
X032628Y015106D01*
X032531Y015251D02*
X032483Y015300D01*
X032483Y015348D01*
X032531Y015397D01*
X032628Y015397D01*
X032676Y015348D01*
X033208Y014181D02*
X033159Y014133D01*
X033159Y013939D01*
X033208Y013891D01*
X033305Y013891D01*
X033353Y013939D01*
X033454Y013891D02*
X033648Y014084D01*
X033648Y014133D01*
X033599Y014181D01*
X033502Y014181D01*
X033454Y014133D01*
X033353Y014133D02*
X033305Y014181D01*
X033208Y014181D01*
X033454Y013891D02*
X033648Y013891D01*
X033749Y013891D02*
X033942Y013891D01*
X033845Y013891D02*
X033845Y014181D01*
X033749Y014084D01*
X033796Y013344D02*
X033699Y013344D01*
X033651Y013296D01*
X033550Y013296D02*
X033501Y013344D01*
X033405Y013344D01*
X033356Y013296D01*
X033356Y013102D01*
X033405Y013054D01*
X033501Y013054D01*
X033550Y013102D01*
X033651Y013054D02*
X033844Y013248D01*
X033844Y013296D01*
X033796Y013344D01*
X033946Y013296D02*
X033994Y013344D01*
X034091Y013344D01*
X034139Y013296D01*
X033946Y013102D01*
X033994Y013054D01*
X034091Y013054D01*
X034139Y013102D01*
X034139Y013296D01*
X033946Y013296D02*
X033946Y013102D01*
X033844Y013054D02*
X033651Y013054D01*
X031545Y015145D02*
X031545Y015242D01*
X031496Y015290D01*
X031545Y015391D02*
X031351Y015585D01*
X031303Y015585D01*
X031255Y015536D01*
X031255Y015440D01*
X031303Y015391D01*
X031303Y015290D02*
X031255Y015242D01*
X031255Y015145D01*
X031303Y015096D01*
X031496Y015096D01*
X031545Y015145D01*
X031545Y015391D02*
X031545Y015585D01*
X031400Y015686D02*
X031400Y015879D01*
X031545Y015831D02*
X031255Y015831D01*
X031400Y015686D01*
X030807Y015685D02*
X030758Y015637D01*
X030807Y015685D02*
X030807Y015782D01*
X030758Y015830D01*
X030710Y015830D01*
X030662Y015782D01*
X030662Y015733D01*
X030662Y015782D02*
X030613Y015830D01*
X030565Y015830D01*
X030516Y015782D01*
X030516Y015685D01*
X030565Y015637D01*
X030565Y015535D02*
X030516Y015487D01*
X030516Y015390D01*
X030565Y015342D01*
X030565Y015241D02*
X030516Y015192D01*
X030516Y015096D01*
X030565Y015047D01*
X030758Y015047D01*
X030807Y015096D01*
X030807Y015192D01*
X030758Y015241D01*
X030807Y015342D02*
X030613Y015535D01*
X030565Y015535D01*
X030807Y015535D02*
X030807Y015342D01*
X030389Y014953D02*
X030341Y015001D01*
X030244Y015001D01*
X030196Y014953D01*
X030094Y014953D02*
X030046Y015001D01*
X029949Y015001D01*
X029901Y014953D01*
X029800Y014953D02*
X029751Y015001D01*
X029655Y015001D01*
X029606Y014953D01*
X029606Y014759D01*
X029655Y014711D01*
X029751Y014711D01*
X029800Y014759D01*
X029901Y014711D02*
X030094Y014904D01*
X030094Y014953D01*
X030094Y014711D02*
X029901Y014711D01*
X030196Y014711D02*
X030389Y014904D01*
X030389Y014953D01*
X030389Y014711D02*
X030196Y014711D01*
X026243Y017717D02*
X026050Y017717D01*
X026050Y018007D01*
X025949Y017910D02*
X025949Y017717D01*
X025949Y017862D02*
X025755Y017862D01*
X025755Y017910D02*
X025852Y018007D01*
X025949Y017910D01*
X025755Y017910D02*
X025755Y017717D01*
X025557Y017717D02*
X025557Y018007D01*
X025461Y018007D02*
X025654Y018007D01*
X025359Y018007D02*
X025166Y017717D01*
X025065Y017862D02*
X024871Y017862D01*
X024770Y018007D02*
X024577Y018007D01*
X024577Y017717D01*
X024770Y017717D01*
X024673Y017862D02*
X024577Y017862D01*
X024475Y017959D02*
X024427Y018007D01*
X024282Y018007D01*
X024282Y017717D01*
X024427Y017717D01*
X024475Y017765D01*
X024475Y017959D01*
X024181Y017910D02*
X024181Y017717D01*
X024181Y017862D02*
X023987Y017862D01*
X023987Y017910D02*
X024084Y018007D01*
X024181Y017910D01*
X023987Y017910D02*
X023987Y017717D01*
X025166Y018007D02*
X025359Y017717D01*
X026269Y019501D02*
X026366Y019501D01*
X026414Y019549D01*
X026515Y019646D02*
X026709Y019646D01*
X026810Y019549D02*
X026858Y019501D01*
X026955Y019501D01*
X027003Y019549D01*
X027003Y019598D01*
X026955Y019646D01*
X026906Y019646D01*
X026955Y019646D02*
X027003Y019694D01*
X027003Y019743D01*
X026955Y019791D01*
X026858Y019791D01*
X026810Y019743D01*
X026660Y019791D02*
X026515Y019646D01*
X026414Y019743D02*
X026366Y019791D01*
X026269Y019791D01*
X026220Y019743D01*
X026220Y019549D01*
X026269Y019501D01*
X026660Y019501D02*
X026660Y019791D01*
X028967Y019726D02*
X028967Y019533D01*
X029015Y019484D01*
X029112Y019484D01*
X029160Y019533D01*
X029261Y019629D02*
X029455Y019629D01*
X029556Y019533D02*
X029749Y019726D01*
X029749Y019533D01*
X029701Y019484D01*
X029604Y019484D01*
X029556Y019533D01*
X029556Y019726D01*
X029604Y019775D01*
X029701Y019775D01*
X029749Y019726D01*
X029406Y019775D02*
X029406Y019484D01*
X029261Y019629D02*
X029406Y019775D01*
X029160Y019726D02*
X029112Y019775D01*
X029015Y019775D01*
X028967Y019726D01*
X025225Y023171D02*
X025032Y023171D01*
X025225Y023365D01*
X025225Y023413D01*
X025177Y023462D01*
X025080Y023462D01*
X025032Y023413D01*
X024930Y023462D02*
X024737Y023462D01*
X024834Y023462D02*
X024834Y023171D01*
X024636Y023171D02*
X024636Y023462D01*
X024442Y023462D02*
X024636Y023171D01*
X024442Y023171D02*
X024442Y023462D01*
X024341Y023365D02*
X024341Y023171D01*
X024341Y023316D02*
X024148Y023316D01*
X024148Y023365D02*
X024244Y023462D01*
X024341Y023365D01*
X024148Y023365D02*
X024148Y023171D01*
X020901Y023487D02*
X020707Y023487D01*
X020901Y023681D01*
X020901Y023729D01*
X020852Y023777D01*
X020756Y023777D01*
X020707Y023729D01*
X020606Y023729D02*
X020558Y023777D01*
X020461Y023777D01*
X020413Y023729D01*
X020413Y023535D01*
X020461Y023487D01*
X020558Y023487D01*
X020606Y023535D01*
X020312Y023632D02*
X020118Y023632D01*
X020017Y023584D02*
X020017Y023535D01*
X019969Y023487D01*
X019872Y023487D01*
X019823Y023535D01*
X019872Y023632D02*
X019969Y023632D01*
X020017Y023584D01*
X020017Y023729D02*
X019969Y023777D01*
X019872Y023777D01*
X019823Y023729D01*
X019823Y023681D01*
X019872Y023632D01*
X019722Y023729D02*
X019722Y023777D01*
X019722Y023729D02*
X019625Y023632D01*
X019625Y023487D01*
X019625Y023632D02*
X019529Y023729D01*
X019529Y023777D01*
X019428Y023729D02*
X019379Y023777D01*
X019282Y023777D01*
X019234Y023729D01*
X019234Y023681D01*
X019282Y023632D01*
X019379Y023632D01*
X019428Y023584D01*
X019428Y023535D01*
X019379Y023487D01*
X019282Y023487D01*
X019234Y023535D01*
X020747Y026620D02*
X020699Y026668D01*
X020747Y026620D02*
X020844Y026620D01*
X020892Y026668D01*
X020892Y026717D01*
X020844Y026765D01*
X020747Y026765D01*
X020699Y026814D01*
X020699Y026862D01*
X020747Y026910D01*
X020844Y026910D01*
X020892Y026862D01*
X020994Y026862D02*
X021090Y026765D01*
X021090Y026620D01*
X021090Y026765D02*
X021187Y026862D01*
X021187Y026910D01*
X021288Y026862D02*
X021288Y026814D01*
X021337Y026765D01*
X021433Y026765D01*
X021482Y026717D01*
X021482Y026668D01*
X021433Y026620D01*
X021337Y026620D01*
X021288Y026668D01*
X021288Y026862D02*
X021337Y026910D01*
X021433Y026910D01*
X021482Y026862D01*
X021583Y026765D02*
X021776Y026765D01*
X021877Y026862D02*
X021877Y026668D01*
X021926Y026620D01*
X022023Y026620D01*
X022071Y026668D01*
X022172Y026620D02*
X022366Y026620D01*
X022269Y026620D02*
X022269Y026910D01*
X022172Y026814D01*
X022071Y026862D02*
X022023Y026910D01*
X021926Y026910D01*
X021877Y026862D01*
X020994Y026862D02*
X020994Y026910D01*
X018537Y019974D02*
X018343Y019974D01*
X018537Y019780D01*
X018585Y019829D01*
X018585Y019925D01*
X018537Y019974D01*
X018343Y019974D02*
X018295Y019925D01*
X018295Y019829D01*
X018343Y019780D01*
X018537Y019780D01*
X018343Y019679D02*
X018537Y019486D01*
X018585Y019486D01*
X018537Y019384D02*
X018585Y019336D01*
X018585Y019239D01*
X018537Y019191D01*
X018343Y019191D01*
X018295Y019239D01*
X018295Y019336D01*
X018343Y019384D01*
X018295Y019486D02*
X018295Y019679D01*
X018343Y019679D01*
X017273Y013665D02*
X017273Y013471D01*
X017273Y013568D02*
X016983Y013568D01*
X017080Y013471D01*
X017031Y013370D02*
X017225Y013177D01*
X017273Y013177D01*
X017225Y013075D02*
X017273Y013027D01*
X017273Y012930D01*
X017225Y012882D01*
X017031Y012882D01*
X016983Y012930D01*
X016983Y013027D01*
X017031Y013075D01*
X016983Y013177D02*
X016983Y013370D01*
X017031Y013370D01*
X016391Y013230D02*
X016343Y013230D01*
X016149Y013423D01*
X016101Y013423D01*
X016101Y013230D01*
X016149Y013129D02*
X016101Y013080D01*
X016101Y012983D01*
X016149Y012935D01*
X016343Y012935D01*
X016391Y012983D01*
X016391Y013080D01*
X016343Y013129D01*
X016391Y013524D02*
X016198Y013718D01*
X016149Y013718D01*
X016101Y013670D01*
X016101Y013573D01*
X016149Y013524D01*
X016391Y013524D02*
X016391Y013718D01*
X027986Y024155D02*
X028035Y024106D01*
X028131Y024106D01*
X028180Y024155D01*
X028180Y024203D01*
X028131Y024251D01*
X028035Y024251D01*
X027986Y024300D01*
X027986Y024348D01*
X028035Y024397D01*
X028131Y024397D01*
X028180Y024348D01*
X028281Y024397D02*
X028281Y024106D01*
X028474Y024106D01*
X028576Y024106D02*
X028576Y024397D01*
X028769Y024106D01*
X028769Y024397D01*
X028870Y024348D02*
X028870Y024300D01*
X028919Y024251D01*
X029015Y024251D01*
X029064Y024203D01*
X029064Y024155D01*
X029015Y024106D01*
X028919Y024106D01*
X028870Y024155D01*
X028870Y024348D02*
X028919Y024397D01*
X029015Y024397D01*
X029064Y024348D01*
X029165Y024348D02*
X029165Y024155D01*
X029213Y024106D01*
X029310Y024106D01*
X029358Y024155D01*
X029358Y024348D01*
X029310Y024397D01*
X029213Y024397D01*
X029165Y024348D01*
X029460Y024397D02*
X029605Y024397D01*
X029653Y024348D01*
X029653Y024251D01*
X029605Y024203D01*
X029460Y024203D01*
X029556Y024203D02*
X029653Y024106D01*
X029754Y024251D02*
X029948Y024251D01*
X030049Y024106D02*
X030049Y024397D01*
X030146Y024300D01*
X030242Y024397D01*
X030242Y024106D01*
X030343Y024155D02*
X030392Y024106D01*
X030489Y024106D01*
X030537Y024155D01*
X030537Y024348D01*
X030489Y024397D01*
X030392Y024397D01*
X030343Y024348D01*
X030343Y024155D01*
X030440Y024203D02*
X030537Y024106D01*
X030638Y024106D02*
X030832Y024300D01*
X030832Y024348D01*
X030783Y024397D01*
X030686Y024397D01*
X030638Y024348D01*
X030638Y024106D02*
X030832Y024106D01*
X029460Y024106D02*
X029460Y024397D01*
X028474Y024397D02*
X028281Y024397D01*
X028281Y024251D02*
X028378Y024251D01*
X036225Y012434D02*
X036515Y012241D01*
X036515Y012140D02*
X036419Y012043D01*
X036419Y012091D02*
X036419Y011946D01*
X036515Y011946D02*
X036225Y011946D01*
X036225Y012091D01*
X036273Y012140D01*
X036370Y012140D01*
X036419Y012091D01*
X036225Y012241D02*
X036515Y012434D01*
X036225Y011845D02*
X036225Y011748D01*
X036225Y011797D02*
X036467Y011797D01*
X036515Y011748D01*
X036515Y011700D01*
X036467Y011652D01*
X037259Y011748D02*
X037259Y011845D01*
X037259Y011797D02*
X037500Y011797D01*
X037549Y011748D01*
X037549Y011700D01*
X037500Y011652D01*
X037259Y011946D02*
X037259Y012140D01*
X037259Y012043D02*
X037549Y012043D01*
X037549Y012241D02*
X037259Y012434D01*
X037259Y012241D02*
X037549Y012434D01*
X039404Y010076D02*
X039404Y009785D01*
X039597Y009785D01*
X039698Y009834D02*
X039747Y009785D01*
X039843Y009785D01*
X039892Y009834D01*
X039892Y009882D01*
X039843Y009931D01*
X039747Y009931D01*
X039698Y009979D01*
X039698Y010027D01*
X039747Y010076D01*
X039843Y010076D01*
X039892Y010027D01*
X039993Y010076D02*
X040138Y010076D01*
X040186Y010027D01*
X040186Y009931D01*
X040138Y009882D01*
X039993Y009882D01*
X039993Y009785D02*
X039993Y010076D01*
X040288Y010027D02*
X040288Y009979D01*
X040336Y009931D01*
X040433Y009931D01*
X040481Y009882D01*
X040481Y009834D01*
X040433Y009785D01*
X040336Y009785D01*
X040288Y009834D01*
X040288Y009882D01*
X040336Y009931D01*
X040433Y009931D02*
X040481Y009979D01*
X040481Y010027D01*
X040433Y010076D01*
X040336Y010076D01*
X040288Y010027D01*
X040582Y010027D02*
X040631Y010076D01*
X040727Y010076D01*
X040776Y010027D01*
X040776Y009979D01*
X040582Y009785D01*
X040776Y009785D01*
X040877Y009834D02*
X040925Y009785D01*
X041022Y009785D01*
X041070Y009834D01*
X041070Y009882D01*
X041022Y009931D01*
X040877Y009931D01*
X040877Y009834D01*
X040877Y009931D02*
X040974Y010027D01*
X041070Y010076D01*
X041171Y009931D02*
X041268Y010027D01*
X041365Y010076D01*
X041317Y009931D02*
X041171Y009931D01*
X041171Y009834D01*
X041220Y009785D01*
X041317Y009785D01*
X041365Y009834D01*
X041365Y009882D01*
X041317Y009931D01*
X039597Y010076D02*
X039404Y010076D01*
X039404Y009931D02*
X039500Y009931D01*
X036628Y003365D02*
X036435Y003365D01*
X036532Y003365D02*
X036532Y003074D01*
X036334Y003074D02*
X036140Y003365D01*
X036039Y003365D02*
X035845Y003365D01*
X035845Y003074D01*
X036039Y003074D01*
X036140Y003074D02*
X036334Y003365D01*
X035942Y003219D02*
X035845Y003219D01*
X035744Y003026D02*
X035551Y003026D01*
X035401Y003171D02*
X035450Y003219D01*
X035450Y003316D01*
X035401Y003365D01*
X035256Y003365D01*
X035256Y003074D01*
X035256Y003171D02*
X035401Y003171D01*
X035155Y003171D02*
X035155Y003123D01*
X035107Y003074D01*
X035010Y003074D01*
X034962Y003123D01*
X035010Y003219D02*
X035107Y003219D01*
X035155Y003171D01*
X035155Y003316D02*
X035107Y003365D01*
X035010Y003365D01*
X034962Y003316D01*
X034962Y003268D01*
X035010Y003219D01*
X034860Y003074D02*
X034667Y003074D01*
X034667Y003365D01*
X034860Y003365D01*
X034764Y003219D02*
X034667Y003219D01*
X033879Y003123D02*
X033831Y003074D01*
X033734Y003074D01*
X033686Y003123D01*
X033879Y003316D01*
X033879Y003123D01*
X033879Y003316D02*
X033831Y003365D01*
X033734Y003365D01*
X033686Y003316D01*
X033686Y003123D01*
X033585Y003123D02*
X033585Y003316D01*
X033536Y003365D01*
X033439Y003365D01*
X033391Y003316D01*
X033391Y003123D01*
X033439Y003074D01*
X033536Y003074D01*
X033585Y003123D01*
X033291Y003074D02*
X033195Y003074D01*
X033243Y003074D02*
X033243Y003365D01*
X033195Y003365D02*
X033291Y003365D01*
X033093Y003316D02*
X033093Y003219D01*
X033045Y003171D01*
X032900Y003171D01*
X032900Y003074D02*
X032900Y003365D01*
X033045Y003365D01*
X033093Y003316D01*
X032799Y003316D02*
X032750Y003365D01*
X032654Y003365D01*
X032605Y003316D01*
X032605Y003123D01*
X032654Y003074D01*
X032750Y003074D01*
X032799Y003123D01*
X032799Y003219D01*
X032702Y003219D01*
X032504Y003219D02*
X032311Y003219D01*
X032210Y003219D02*
X032161Y003171D01*
X032016Y003171D01*
X032016Y003074D02*
X032016Y003365D01*
X032161Y003365D01*
X032210Y003316D01*
X032210Y003219D01*
X031915Y003171D02*
X031915Y003123D01*
X031867Y003074D01*
X031770Y003074D01*
X031721Y003123D01*
X031770Y003219D02*
X031867Y003219D01*
X031915Y003171D01*
X031915Y003316D02*
X031867Y003365D01*
X031770Y003365D01*
X031721Y003316D01*
X031721Y003268D01*
X031770Y003219D01*
X031620Y003074D02*
X031427Y003074D01*
X031427Y003365D01*
X031620Y003365D01*
X031523Y003219D02*
X031427Y003219D01*
X040296Y036383D02*
X040393Y036383D01*
X040441Y036431D01*
X040543Y036431D02*
X040591Y036383D01*
X040688Y036383D01*
X040736Y036431D01*
X040736Y036480D01*
X040688Y036528D01*
X040639Y036528D01*
X040688Y036528D02*
X040736Y036576D01*
X040736Y036625D01*
X040688Y036673D01*
X040591Y036673D01*
X040543Y036625D01*
X040441Y036625D02*
X040393Y036673D01*
X040296Y036673D01*
X040248Y036625D01*
X040248Y036431D01*
X040296Y036383D01*
X040837Y036383D02*
X040837Y036431D01*
X041031Y036625D01*
X041031Y036673D01*
X040837Y036673D01*
D11*
X028970Y029322D02*
X028970Y029245D01*
X028893Y029168D01*
X028970Y029092D01*
X028970Y029015D01*
X028893Y028938D01*
X028739Y028938D01*
X028663Y029015D01*
X028509Y029015D02*
X028432Y028938D01*
X028279Y028938D01*
X028202Y029015D01*
X028202Y029322D01*
X028279Y029399D01*
X028432Y029399D01*
X028509Y029322D01*
X028663Y029322D02*
X028739Y029399D01*
X028893Y029399D01*
X028970Y029322D01*
X028893Y029168D02*
X028816Y029168D01*
X028049Y029168D02*
X027742Y029168D01*
X027588Y029322D02*
X027588Y029015D01*
X027512Y028938D01*
X027358Y028938D01*
X027281Y029015D01*
X027588Y029322D01*
X027512Y029399D01*
X027358Y029399D01*
X027281Y029322D01*
X027281Y029015D01*
X027128Y029015D02*
X027051Y028938D01*
X026898Y028938D01*
X026821Y029015D01*
X027128Y029322D01*
X027128Y029015D01*
X027128Y029322D02*
X027051Y029399D01*
X026898Y029399D01*
X026821Y029322D01*
X026821Y029015D01*
X026668Y029015D02*
X026668Y029322D01*
X026591Y029399D01*
X026437Y029399D01*
X026361Y029322D01*
X026361Y029245D01*
X026437Y029168D01*
X026668Y029168D01*
X026668Y029015D02*
X026591Y028938D01*
X026437Y028938D01*
X026361Y029015D01*
X026207Y028938D02*
X026207Y029399D01*
X026054Y029245D01*
X025900Y029399D01*
X025900Y028938D01*
X025747Y028938D02*
X025593Y028938D01*
X025670Y028938D02*
X025670Y029399D01*
X025593Y029399D02*
X025747Y029399D01*
X025440Y029322D02*
X025363Y029399D01*
X025210Y029399D01*
X025133Y029322D01*
X025133Y029245D01*
X025210Y029168D01*
X025363Y029168D01*
X025440Y029092D01*
X025440Y029015D01*
X025363Y028938D01*
X025210Y028938D01*
X025133Y029015D01*
X022234Y028173D02*
X022234Y027712D01*
X022081Y027712D02*
X022387Y027712D01*
X022081Y028019D02*
X022234Y028173D01*
X021927Y027712D02*
X021620Y027712D01*
X021774Y027712D02*
X021774Y028173D01*
X021620Y028019D01*
X021467Y028173D02*
X021160Y028173D01*
X021313Y028173D02*
X021313Y027712D01*
X021006Y027712D02*
X021006Y028173D01*
X021006Y027943D02*
X020699Y027943D01*
X020546Y028096D02*
X020469Y028173D01*
X020239Y028173D01*
X020239Y027712D01*
X020469Y027712D01*
X020546Y027789D01*
X020546Y028096D01*
X020699Y028173D02*
X020699Y027712D01*
X018199Y027694D02*
X018122Y027771D01*
X018122Y028078D01*
X018046Y028001D02*
X018199Y028001D01*
X017892Y028001D02*
X017892Y027694D01*
X017662Y027694D01*
X017585Y027771D01*
X017585Y028001D01*
X017432Y027924D02*
X017355Y028001D01*
X017202Y028001D01*
X017125Y027924D01*
X017125Y027771D01*
X017202Y027694D01*
X017355Y027694D01*
X017432Y027771D01*
X017432Y027924D01*
X016971Y027847D02*
X016818Y027694D01*
X016664Y027847D01*
X016664Y028154D01*
X016971Y028154D02*
X016971Y027847D01*
X016934Y031103D02*
X017011Y031180D01*
X017011Y031334D01*
X016857Y031334D01*
X016704Y031487D02*
X016704Y031180D01*
X016781Y031103D01*
X016934Y031103D01*
X017164Y031103D02*
X017164Y031410D01*
X017394Y031410D01*
X017471Y031334D01*
X017471Y031103D01*
X017625Y031180D02*
X017625Y031334D01*
X017701Y031410D01*
X017932Y031410D01*
X017932Y031564D02*
X017932Y031103D01*
X017701Y031103D01*
X017625Y031180D01*
X017011Y031487D02*
X016934Y031564D01*
X016781Y031564D01*
X016704Y031487D01*
X012896Y031450D02*
X012666Y031450D01*
X012589Y031373D01*
X012589Y031220D01*
X012666Y031143D01*
X012896Y031143D01*
X012896Y031603D01*
X012436Y031373D02*
X012436Y031143D01*
X012436Y031373D02*
X012359Y031450D01*
X012129Y031450D01*
X012129Y031143D01*
X011975Y031220D02*
X011975Y031373D01*
X011822Y031373D01*
X011975Y031220D02*
X011899Y031143D01*
X011745Y031143D01*
X011668Y031220D01*
X011668Y031526D01*
X011745Y031603D01*
X011899Y031603D01*
X011975Y031526D01*
X012245Y028231D02*
X012245Y028154D01*
X012245Y028001D02*
X012245Y027694D01*
X012168Y027694D02*
X012322Y027694D01*
X012475Y027694D02*
X012475Y028001D01*
X012705Y028001D01*
X012782Y027924D01*
X012782Y027694D01*
X012245Y028001D02*
X012168Y028001D01*
X012015Y028154D02*
X012015Y027847D01*
X011861Y027694D01*
X011708Y027847D01*
X011708Y028154D01*
X019969Y020572D02*
X019969Y020112D01*
X020199Y020112D01*
X020276Y020188D01*
X020276Y020495D01*
X020199Y020572D01*
X019969Y020572D01*
X020429Y020572D02*
X020429Y020112D01*
X020429Y020342D02*
X020736Y020342D01*
X020736Y020572D02*
X020736Y020112D01*
X021043Y020112D02*
X021043Y020572D01*
X021196Y020572D02*
X020889Y020572D01*
X021350Y020342D02*
X021657Y020342D01*
X021810Y020265D02*
X022040Y020265D01*
X022117Y020342D01*
X022117Y020495D01*
X022040Y020572D01*
X021810Y020572D01*
X021810Y020112D01*
X021964Y020265D02*
X022117Y020112D01*
X022271Y020112D02*
X022578Y020112D01*
X022424Y020112D02*
X022424Y020572D01*
X022271Y020419D01*
X024889Y019219D02*
X024889Y018759D01*
X025196Y018759D01*
X025349Y018836D02*
X025426Y018759D01*
X025579Y018759D01*
X025656Y018836D01*
X025810Y018759D02*
X026040Y018759D01*
X026117Y018836D01*
X026117Y019143D01*
X026040Y019219D01*
X025810Y019219D01*
X025810Y018759D01*
X025656Y019143D02*
X025579Y019219D01*
X025426Y019219D01*
X025349Y019143D01*
X025349Y018836D01*
X026270Y018759D02*
X026577Y018759D01*
X026424Y018759D02*
X026424Y019219D01*
X026270Y019066D01*
X026730Y018989D02*
X027037Y018989D01*
X026961Y018759D02*
X026961Y019219D01*
X026730Y018989D01*
X026810Y016147D02*
X027040Y016147D01*
X027117Y016070D01*
X027117Y015763D01*
X027040Y015686D01*
X026810Y015686D01*
X026810Y016147D01*
X026656Y016070D02*
X026579Y016147D01*
X026426Y016147D01*
X026349Y016070D01*
X026349Y015763D01*
X026426Y015686D01*
X026579Y015686D01*
X026656Y015763D01*
X026196Y015686D02*
X025889Y015686D01*
X025889Y016147D01*
X027270Y015609D02*
X027577Y015609D01*
X027730Y015686D02*
X028037Y015993D01*
X028037Y016070D01*
X027961Y016147D01*
X027807Y016147D01*
X027730Y016070D01*
X027730Y015686D02*
X028037Y015686D01*
X028191Y015686D02*
X028268Y015686D01*
X028268Y015763D01*
X028191Y015763D01*
X028191Y015686D01*
X028421Y015916D02*
X028728Y015916D01*
X028651Y015686D02*
X028651Y016147D01*
X028421Y015916D01*
X033450Y011485D02*
X033450Y011025D01*
X033757Y011025D01*
X033910Y011101D02*
X033987Y011025D01*
X034141Y011025D01*
X034217Y011101D01*
X034217Y011178D01*
X034141Y011255D01*
X033987Y011255D01*
X033910Y011332D01*
X033910Y011408D01*
X033987Y011485D01*
X034141Y011485D01*
X034217Y011408D01*
X034371Y011485D02*
X034601Y011485D01*
X034678Y011408D01*
X034678Y011255D01*
X034601Y011178D01*
X034371Y011178D01*
X034371Y011025D02*
X034371Y011485D01*
X034831Y011255D02*
X035138Y011255D01*
X035291Y011408D02*
X035291Y011101D01*
X035368Y011025D01*
X035522Y011025D01*
X035598Y011101D01*
X035752Y011025D02*
X036059Y011025D01*
X035905Y011025D02*
X035905Y011485D01*
X035752Y011332D01*
X035598Y011408D02*
X035522Y011485D01*
X035368Y011485D01*
X035291Y011408D01*
X033757Y011485D02*
X033450Y011485D01*
X033450Y011255D02*
X033603Y011255D01*
X026849Y023718D02*
X026663Y023718D01*
X026756Y023718D02*
X026756Y023998D01*
X026663Y023904D01*
X026555Y023998D02*
X026368Y023718D01*
X026555Y023718D02*
X026368Y023998D01*
D12*
X017875Y025135D02*
X017851Y025135D01*
X017127Y025174D02*
X017103Y025174D01*
X015552Y025292D02*
X015528Y025292D01*
X014883Y025292D02*
X014859Y025292D01*
X013030Y025615D02*
X013030Y025639D01*
X012176Y025312D02*
X012152Y025312D01*
D13*
X011925Y025320D02*
X011900Y025345D01*
X011925Y025320D02*
X011925Y025270D01*
X011900Y025245D01*
X011800Y025245D01*
X011775Y025270D01*
X011775Y025320D01*
X011800Y025345D01*
X011825Y025392D02*
X011775Y025442D01*
X011925Y025442D01*
X011925Y025392D02*
X011925Y025492D01*
X011900Y025539D02*
X011925Y025564D01*
X011925Y025614D01*
X011900Y025639D01*
X011875Y025639D01*
X011850Y025614D01*
X011850Y025539D01*
X011900Y025539D01*
X011850Y025539D02*
X011800Y025589D01*
X011775Y025639D01*
X011850Y025197D02*
X011850Y025097D01*
X011925Y025050D02*
X011925Y024950D01*
X011775Y024950D01*
X011775Y025050D01*
X011850Y025000D02*
X011850Y024950D01*
X011900Y024903D02*
X011800Y024903D01*
X011775Y024878D01*
X011775Y024803D01*
X011925Y024803D01*
X011925Y024878D01*
X011900Y024903D01*
X011925Y024755D02*
X011825Y024755D01*
X011775Y024705D01*
X011825Y024655D01*
X011925Y024655D01*
X011850Y024655D02*
X011850Y024755D01*
X011285Y024750D02*
X011185Y024750D01*
X011135Y024700D01*
X011185Y024650D01*
X011285Y024650D01*
X011210Y024650D02*
X011210Y024750D01*
X011135Y024798D02*
X011135Y024873D01*
X011160Y024898D01*
X011260Y024898D01*
X011285Y024873D01*
X011285Y024798D01*
X011135Y024798D01*
X011135Y024945D02*
X011285Y024945D01*
X011285Y025045D01*
X011210Y025092D02*
X011210Y025192D01*
X011235Y025240D02*
X011235Y025315D01*
X011210Y025340D01*
X011160Y025340D01*
X011135Y025315D01*
X011135Y025240D01*
X011285Y025240D01*
X011235Y025290D02*
X011285Y025340D01*
X011285Y025387D02*
X011285Y025487D01*
X011285Y025437D02*
X011135Y025437D01*
X011185Y025387D01*
X011210Y025534D02*
X011210Y025609D01*
X011235Y025634D01*
X011260Y025634D01*
X011285Y025609D01*
X011285Y025559D01*
X011260Y025534D01*
X011210Y025534D01*
X011160Y025584D01*
X011135Y025634D01*
X011135Y025045D02*
X011135Y024945D01*
X011210Y024945D02*
X011210Y024995D01*
X012646Y025297D02*
X012646Y025397D01*
X012696Y025447D01*
X012746Y025397D01*
X012746Y025297D01*
X012793Y025297D02*
X012868Y025297D01*
X012893Y025322D01*
X012893Y025422D01*
X012868Y025447D01*
X012793Y025447D01*
X012793Y025297D01*
X012746Y025372D02*
X012646Y025372D01*
X012941Y025372D02*
X012991Y025372D01*
X013041Y025447D02*
X012941Y025447D01*
X012941Y025297D01*
X013041Y025297D01*
X013088Y025372D02*
X013188Y025372D01*
X013235Y025422D02*
X013235Y025322D01*
X013260Y025297D01*
X013310Y025297D01*
X013335Y025322D01*
X013346Y025366D02*
X013346Y025265D01*
X013321Y025265D02*
X013271Y025315D01*
X013321Y025366D01*
X013421Y025366D01*
X013421Y025413D02*
X013421Y025488D01*
X013396Y025513D01*
X013296Y025513D01*
X013271Y025488D01*
X013271Y025413D01*
X013421Y025413D01*
X013433Y025447D02*
X013433Y025297D01*
X013421Y025265D02*
X013321Y025265D01*
X013383Y025297D02*
X013483Y025297D01*
X013530Y025322D02*
X013555Y025297D01*
X013605Y025297D01*
X013630Y025322D01*
X013630Y025372D01*
X013605Y025397D01*
X013580Y025397D01*
X013530Y025372D01*
X013530Y025447D01*
X013630Y025447D01*
X013433Y025447D02*
X013383Y025397D01*
X013335Y025422D02*
X013310Y025447D01*
X013260Y025447D01*
X013235Y025422D01*
X013271Y025560D02*
X013421Y025560D01*
X013421Y025660D01*
X013346Y025707D02*
X013346Y025808D01*
X013371Y025855D02*
X013371Y025930D01*
X013346Y025955D01*
X013296Y025955D01*
X013271Y025930D01*
X013271Y025855D01*
X013421Y025855D01*
X013371Y025905D02*
X013421Y025955D01*
X013421Y026002D02*
X013421Y026102D01*
X013421Y026052D02*
X013271Y026052D01*
X013321Y026002D01*
X013346Y026149D02*
X013321Y026199D01*
X013321Y026224D01*
X013346Y026249D01*
X013396Y026249D01*
X013421Y026224D01*
X013421Y026174D01*
X013396Y026149D01*
X013346Y026149D02*
X013271Y026149D01*
X013271Y026249D01*
X013172Y026453D02*
X013172Y026603D01*
X013097Y026528D01*
X013197Y026528D01*
X013050Y026453D02*
X012950Y026453D01*
X012902Y026453D02*
X012852Y026503D01*
X012877Y026503D02*
X012802Y026503D01*
X012802Y026453D02*
X012802Y026603D01*
X012877Y026603D01*
X012902Y026578D01*
X012902Y026528D01*
X012877Y026503D01*
X012950Y026553D02*
X013000Y026603D01*
X013000Y026453D01*
X012755Y026528D02*
X012655Y026528D01*
X012608Y026453D02*
X012508Y026453D01*
X012508Y026603D01*
X012608Y026603D01*
X012558Y026528D02*
X012508Y026528D01*
X012460Y026478D02*
X012460Y026578D01*
X012435Y026603D01*
X012360Y026603D01*
X012360Y026453D01*
X012435Y026453D01*
X012460Y026478D01*
X012313Y026453D02*
X012313Y026553D01*
X012263Y026603D01*
X012213Y026553D01*
X012213Y026453D01*
X012213Y026528D02*
X012313Y026528D01*
X013271Y025660D02*
X013271Y025560D01*
X013346Y025560D02*
X013346Y025610D01*
X014165Y025994D02*
X014165Y026094D01*
X014215Y026144D01*
X014265Y026094D01*
X014265Y025994D01*
X014312Y025994D02*
X014387Y025994D01*
X014412Y026019D01*
X014412Y026119D01*
X014387Y026144D01*
X014312Y026144D01*
X014312Y025994D01*
X014265Y026069D02*
X014165Y026069D01*
X014460Y026069D02*
X014510Y026069D01*
X014460Y025994D02*
X014560Y025994D01*
X014607Y026069D02*
X014707Y026069D01*
X014754Y026044D02*
X014829Y026044D01*
X014854Y026069D01*
X014854Y026119D01*
X014829Y026144D01*
X014754Y026144D01*
X014754Y025994D01*
X014804Y026044D02*
X014854Y025994D01*
X014902Y025994D02*
X015002Y025994D01*
X014952Y025994D02*
X014952Y026144D01*
X014902Y026094D01*
X015049Y026119D02*
X015074Y026144D01*
X015124Y026144D01*
X015149Y026119D01*
X015149Y026094D01*
X015124Y026069D01*
X015149Y026044D01*
X015149Y026019D01*
X015124Y025994D01*
X015074Y025994D01*
X015049Y026019D01*
X015099Y026069D02*
X015124Y026069D01*
X015135Y025931D02*
X015160Y025931D01*
X015185Y025906D01*
X015210Y025931D01*
X015235Y025931D01*
X015260Y025906D01*
X015260Y025856D01*
X015235Y025831D01*
X015260Y025784D02*
X015260Y025684D01*
X015260Y025734D02*
X015110Y025734D01*
X015160Y025684D01*
X015135Y025637D02*
X015110Y025611D01*
X015110Y025561D01*
X015135Y025536D01*
X015235Y025536D01*
X015260Y025561D01*
X015260Y025611D01*
X015235Y025637D01*
X015185Y025489D02*
X015185Y025389D01*
X015110Y025342D02*
X015110Y025242D01*
X015260Y025242D01*
X015260Y025342D01*
X015185Y025292D02*
X015185Y025242D01*
X015135Y025195D02*
X015110Y025170D01*
X015110Y025094D01*
X015260Y025094D01*
X015260Y025170D01*
X015235Y025195D01*
X015135Y025195D01*
X015160Y025047D02*
X015260Y025047D01*
X015185Y025047D02*
X015185Y024947D01*
X015160Y024947D02*
X015110Y024997D01*
X015160Y025047D01*
X015160Y024947D02*
X015260Y024947D01*
X014632Y024920D02*
X014632Y025020D01*
X014557Y025068D02*
X014557Y025168D01*
X014607Y025215D02*
X014632Y025240D01*
X014632Y025290D01*
X014607Y025315D01*
X014632Y025362D02*
X014632Y025462D01*
X014632Y025412D02*
X014481Y025412D01*
X014531Y025362D01*
X014506Y025315D02*
X014481Y025290D01*
X014481Y025240D01*
X014506Y025215D01*
X014607Y025215D01*
X014481Y025020D02*
X014481Y024920D01*
X014632Y024920D01*
X014607Y024873D02*
X014506Y024873D01*
X014481Y024848D01*
X014481Y024773D01*
X014632Y024773D01*
X014632Y024848D01*
X014607Y024873D01*
X014557Y024920D02*
X014557Y024970D01*
X014557Y024726D02*
X014557Y024626D01*
X014531Y024626D02*
X014481Y024676D01*
X014531Y024726D01*
X014632Y024726D01*
X014632Y024626D02*
X014531Y024626D01*
X014557Y025510D02*
X014481Y025585D01*
X014632Y025585D01*
X014557Y025610D02*
X014557Y025510D01*
X014460Y025994D02*
X014460Y026144D01*
X014560Y026144D01*
X014540Y026673D02*
X014440Y026673D01*
X014440Y026823D01*
X014540Y026823D01*
X014587Y026748D02*
X014687Y026748D01*
X014735Y026723D02*
X014810Y026723D01*
X014835Y026748D01*
X014835Y026798D01*
X014810Y026823D01*
X014735Y026823D01*
X014735Y026673D01*
X014785Y026723D02*
X014835Y026673D01*
X014882Y026673D02*
X014982Y026673D01*
X015029Y026673D02*
X015129Y026673D01*
X015079Y026673D02*
X015079Y026823D01*
X015029Y026773D01*
X014932Y026823D02*
X014932Y026673D01*
X014882Y026773D02*
X014932Y026823D01*
X014490Y026748D02*
X014440Y026748D01*
X014393Y026698D02*
X014393Y026798D01*
X014368Y026823D01*
X014293Y026823D01*
X014293Y026673D01*
X014368Y026673D01*
X014393Y026698D01*
X014245Y026673D02*
X014245Y026773D01*
X014195Y026823D01*
X014145Y026773D01*
X014145Y026673D01*
X014145Y026748D02*
X014245Y026748D01*
X015110Y025906D02*
X015135Y025931D01*
X015110Y025906D02*
X015110Y025856D01*
X015135Y025831D01*
X015185Y025881D02*
X015185Y025906D01*
X016292Y025575D02*
X016292Y025525D01*
X016317Y025500D01*
X016292Y025575D02*
X016317Y025600D01*
X016343Y025600D01*
X016443Y025500D01*
X016443Y025600D01*
X016443Y025453D02*
X016443Y025352D01*
X016443Y025305D02*
X016393Y025255D01*
X016393Y025280D02*
X016393Y025205D01*
X016443Y025205D02*
X016292Y025205D01*
X016292Y025280D01*
X016317Y025305D01*
X016368Y025305D01*
X016393Y025280D01*
X016343Y025352D02*
X016292Y025403D01*
X016443Y025403D01*
X016685Y025443D02*
X016685Y025493D01*
X016710Y025518D01*
X016735Y025566D02*
X016685Y025616D01*
X016835Y025616D01*
X016835Y025566D02*
X016835Y025666D01*
X016835Y025713D02*
X016735Y025813D01*
X016710Y025813D01*
X016685Y025788D01*
X016685Y025738D01*
X016710Y025713D01*
X016835Y025713D02*
X016835Y025813D01*
X016810Y025518D02*
X016835Y025493D01*
X016835Y025443D01*
X016810Y025418D01*
X016710Y025418D01*
X016685Y025443D01*
X016760Y025371D02*
X016760Y025271D01*
X016835Y025224D02*
X016835Y025124D01*
X016685Y025124D01*
X016685Y025224D01*
X016760Y025174D02*
X016760Y025124D01*
X016810Y025076D02*
X016710Y025076D01*
X016685Y025051D01*
X016685Y024976D01*
X016835Y024976D01*
X016835Y025051D01*
X016810Y025076D01*
X016835Y024929D02*
X016735Y024929D01*
X016685Y024879D01*
X016735Y024829D01*
X016835Y024829D01*
X016760Y024829D02*
X016760Y024929D01*
X016443Y024910D02*
X016443Y025011D01*
X016368Y025058D02*
X016368Y025158D01*
X016292Y025011D02*
X016292Y024910D01*
X016443Y024910D01*
X016418Y024863D02*
X016317Y024863D01*
X016292Y024838D01*
X016292Y024763D01*
X016443Y024763D01*
X016443Y024838D01*
X016418Y024863D01*
X016368Y024910D02*
X016368Y024961D01*
X016368Y024716D02*
X016368Y024616D01*
X016343Y024616D02*
X016292Y024666D01*
X016343Y024716D01*
X016443Y024716D01*
X016443Y024616D02*
X016343Y024616D01*
X017482Y024692D02*
X017532Y024742D01*
X017632Y024742D01*
X017632Y024789D02*
X017632Y024864D01*
X017607Y024889D01*
X017507Y024889D01*
X017482Y024864D01*
X017482Y024789D01*
X017632Y024789D01*
X017557Y024742D02*
X017557Y024642D01*
X017532Y024642D02*
X017482Y024692D01*
X017532Y024642D02*
X017632Y024642D01*
X017632Y024937D02*
X017632Y025037D01*
X017557Y025084D02*
X017557Y025184D01*
X017507Y025231D02*
X017607Y025231D01*
X017632Y025256D01*
X017632Y025306D01*
X017607Y025331D01*
X017632Y025379D02*
X017632Y025479D01*
X017632Y025526D02*
X017632Y025626D01*
X017632Y025576D02*
X017482Y025576D01*
X017532Y025526D01*
X017482Y025429D02*
X017632Y025429D01*
X017532Y025379D02*
X017482Y025429D01*
X017507Y025331D02*
X017482Y025306D01*
X017482Y025256D01*
X017507Y025231D01*
X017482Y025037D02*
X017482Y024937D01*
X017632Y024937D01*
X017557Y024937D02*
X017557Y024987D01*
X017329Y026270D02*
X017279Y026270D01*
X017254Y026295D01*
X017354Y026395D01*
X017354Y026295D01*
X017329Y026270D01*
X017254Y026295D02*
X017254Y026395D01*
X017279Y026420D01*
X017329Y026420D01*
X017354Y026395D01*
X017206Y026270D02*
X017106Y026270D01*
X017059Y026270D02*
X017009Y026320D01*
X017034Y026320D02*
X016959Y026320D01*
X016959Y026270D02*
X016959Y026420D01*
X017034Y026420D01*
X017059Y026395D01*
X017059Y026345D01*
X017034Y026320D01*
X017106Y026370D02*
X017156Y026420D01*
X017156Y026270D01*
X016912Y026345D02*
X016812Y026345D01*
X016765Y026420D02*
X016664Y026420D01*
X016664Y026270D01*
X016765Y026270D01*
X016714Y026345D02*
X016664Y026345D01*
X016617Y026395D02*
X016592Y026420D01*
X016517Y026420D01*
X016517Y026270D01*
X016592Y026270D01*
X016617Y026295D01*
X016617Y026395D01*
X016470Y026370D02*
X016420Y026420D01*
X016370Y026370D01*
X016370Y026270D01*
X016370Y026345D02*
X016470Y026345D01*
X016470Y026370D02*
X016470Y026270D01*
X018768Y026340D02*
X018768Y026440D01*
X018818Y026490D01*
X018868Y026440D01*
X018868Y026340D01*
X018915Y026340D02*
X018990Y026340D01*
X019015Y026365D01*
X019015Y026465D01*
X018990Y026490D01*
X018915Y026490D01*
X018915Y026340D01*
X018868Y026415D02*
X018768Y026415D01*
X019063Y026415D02*
X019113Y026415D01*
X019163Y026490D02*
X019063Y026490D01*
X019063Y026340D01*
X019163Y026340D01*
X019210Y026415D02*
X019310Y026415D01*
X019357Y026390D02*
X019432Y026390D01*
X019457Y026415D01*
X019457Y026465D01*
X019432Y026490D01*
X019357Y026490D01*
X019357Y026340D01*
X019407Y026390D02*
X019457Y026340D01*
X019505Y026365D02*
X019505Y026390D01*
X019530Y026415D01*
X019580Y026415D01*
X019605Y026390D01*
X019605Y026365D01*
X019580Y026340D01*
X019530Y026340D01*
X019505Y026365D01*
X019530Y026415D02*
X019505Y026440D01*
X019505Y026465D01*
X019530Y026490D01*
X019580Y026490D01*
X019605Y026465D01*
X019605Y026440D01*
X019580Y026415D01*
X018986Y025403D02*
X018886Y025403D01*
X018861Y025378D01*
X018861Y025328D01*
X018886Y025303D01*
X018911Y025303D01*
X018936Y025328D01*
X018936Y025403D01*
X018986Y025403D02*
X019011Y025378D01*
X019011Y025328D01*
X018986Y025303D01*
X019011Y025256D02*
X018961Y025206D01*
X018961Y025231D02*
X018961Y025156D01*
X019011Y025156D02*
X018861Y025156D01*
X018861Y025231D01*
X018886Y025256D01*
X018936Y025256D01*
X018961Y025231D01*
X018936Y025108D02*
X018936Y025008D01*
X018861Y024961D02*
X018861Y024861D01*
X019011Y024861D01*
X019011Y024961D01*
X018936Y024911D02*
X018936Y024861D01*
X018886Y024814D02*
X018861Y024789D01*
X018861Y024714D01*
X019011Y024714D01*
X019011Y024789D01*
X018986Y024814D01*
X018886Y024814D01*
X018911Y024666D02*
X019011Y024666D01*
X018936Y024666D02*
X018936Y024566D01*
X018911Y024566D02*
X018861Y024616D01*
X018911Y024666D01*
X018911Y024566D02*
X019011Y024566D01*
X020254Y024621D02*
X020280Y024596D01*
X020305Y024596D01*
X020330Y024621D01*
X020330Y024671D01*
X020355Y024696D01*
X020380Y024696D01*
X020405Y024671D01*
X020405Y024621D01*
X020380Y024596D01*
X020254Y024621D02*
X020254Y024671D01*
X020280Y024696D01*
X020280Y024743D02*
X020330Y024793D01*
X020405Y024793D01*
X020330Y024793D02*
X020280Y024843D01*
X020254Y024843D01*
X020280Y024890D02*
X020305Y024890D01*
X020330Y024916D01*
X020330Y024966D01*
X020355Y024991D01*
X020380Y024991D01*
X020405Y024966D01*
X020405Y024916D01*
X020380Y024890D01*
X020280Y024890D02*
X020254Y024916D01*
X020254Y024966D01*
X020280Y024991D01*
X020330Y025038D02*
X020330Y025138D01*
X020355Y025185D02*
X020355Y025260D01*
X020330Y025285D01*
X020280Y025285D01*
X020254Y025260D01*
X020254Y025185D01*
X020405Y025185D01*
X020355Y025235D02*
X020405Y025285D01*
X020405Y025332D02*
X020405Y025433D01*
X020405Y025383D02*
X020254Y025383D01*
X020305Y025332D01*
X020280Y024743D02*
X020254Y024743D01*
X019069Y019045D02*
X019069Y018995D01*
X019068Y018996D02*
X019047Y018993D01*
X019028Y018987D01*
X019009Y018978D01*
X018992Y018966D01*
X018978Y018952D01*
X018966Y018935D01*
X018957Y018916D01*
X018951Y018897D01*
X018948Y018876D01*
X018899Y018875D01*
X018898Y018876D01*
X018900Y018900D01*
X018906Y018923D01*
X018915Y018946D01*
X018927Y018967D01*
X018941Y018986D01*
X018958Y019003D01*
X018977Y019017D01*
X018998Y019029D01*
X019021Y019038D01*
X019044Y019044D01*
X019068Y019046D01*
X019068Y019037D01*
X019043Y019034D01*
X019019Y019028D01*
X018996Y019018D01*
X018975Y019005D01*
X018956Y018988D01*
X018939Y018969D01*
X018926Y018948D01*
X018916Y018925D01*
X018910Y018901D01*
X018907Y018876D01*
X018916Y018876D01*
X018919Y018900D01*
X018925Y018922D01*
X018934Y018944D01*
X018947Y018964D01*
X018962Y018982D01*
X018980Y018997D01*
X019000Y019010D01*
X019022Y019019D01*
X019044Y019025D01*
X019068Y019028D01*
X019068Y019019D01*
X019046Y019016D01*
X019024Y019011D01*
X019004Y019002D01*
X018985Y018990D01*
X018968Y018976D01*
X018954Y018959D01*
X018942Y018940D01*
X018933Y018920D01*
X018928Y018898D01*
X018925Y018876D01*
X018934Y018876D01*
X018936Y018897D01*
X018942Y018917D01*
X018950Y018936D01*
X018961Y018954D01*
X018975Y018969D01*
X018990Y018983D01*
X019008Y018994D01*
X019027Y019002D01*
X019047Y019008D01*
X019068Y019010D01*
X019068Y019001D01*
X019047Y018998D01*
X019026Y018992D01*
X019007Y018983D01*
X018989Y018970D01*
X018974Y018955D01*
X018961Y018937D01*
X018952Y018918D01*
X018946Y018897D01*
X018943Y018876D01*
X021887Y018875D02*
X021837Y018875D01*
X021838Y018876D02*
X021835Y018897D01*
X021829Y018916D01*
X021820Y018935D01*
X021808Y018952D01*
X021794Y018966D01*
X021777Y018978D01*
X021758Y018987D01*
X021739Y018993D01*
X021718Y018996D01*
X021717Y019045D01*
X021718Y019046D01*
X021742Y019044D01*
X021765Y019038D01*
X021788Y019029D01*
X021809Y019017D01*
X021828Y019003D01*
X021845Y018986D01*
X021859Y018967D01*
X021871Y018946D01*
X021880Y018923D01*
X021886Y018900D01*
X021888Y018876D01*
X021879Y018876D01*
X021876Y018901D01*
X021870Y018925D01*
X021860Y018948D01*
X021847Y018969D01*
X021830Y018988D01*
X021811Y019005D01*
X021790Y019018D01*
X021767Y019028D01*
X021743Y019034D01*
X021718Y019037D01*
X021718Y019028D01*
X021742Y019025D01*
X021764Y019019D01*
X021786Y019010D01*
X021806Y018997D01*
X021824Y018982D01*
X021839Y018964D01*
X021852Y018944D01*
X021861Y018922D01*
X021867Y018900D01*
X021870Y018876D01*
X021861Y018876D01*
X021858Y018898D01*
X021853Y018920D01*
X021844Y018940D01*
X021832Y018959D01*
X021818Y018976D01*
X021801Y018990D01*
X021782Y019002D01*
X021762Y019011D01*
X021740Y019016D01*
X021718Y019019D01*
X021718Y019010D01*
X021739Y019008D01*
X021759Y019002D01*
X021778Y018994D01*
X021796Y018983D01*
X021811Y018969D01*
X021825Y018954D01*
X021836Y018936D01*
X021844Y018917D01*
X021850Y018897D01*
X021852Y018876D01*
X021843Y018876D01*
X021840Y018897D01*
X021834Y018918D01*
X021825Y018937D01*
X021812Y018955D01*
X021797Y018970D01*
X021779Y018983D01*
X021760Y018992D01*
X021739Y018998D01*
X021718Y019001D01*
X026015Y018497D02*
X026090Y018497D01*
X026115Y018471D01*
X026115Y018421D01*
X026090Y018396D01*
X026015Y018396D01*
X026015Y018346D02*
X026015Y018497D01*
X026065Y018396D02*
X026115Y018346D01*
X026162Y018346D02*
X026237Y018346D01*
X026262Y018371D01*
X026262Y018396D01*
X026237Y018421D01*
X026162Y018421D01*
X026162Y018346D02*
X026162Y018497D01*
X026237Y018497D01*
X026262Y018471D01*
X026262Y018446D01*
X026237Y018421D01*
X026309Y018346D02*
X026359Y018346D01*
X026334Y018346D02*
X026334Y018497D01*
X026309Y018497D02*
X026359Y018497D01*
X026408Y018446D02*
X026458Y018497D01*
X026508Y018446D01*
X026508Y018346D01*
X026555Y018371D02*
X026580Y018346D01*
X026630Y018346D01*
X026655Y018371D01*
X026655Y018396D01*
X026630Y018421D01*
X026580Y018421D01*
X026555Y018446D01*
X026555Y018471D01*
X026580Y018497D01*
X026630Y018497D01*
X026655Y018471D01*
X026508Y018421D02*
X026408Y018421D01*
X026408Y018446D02*
X026408Y018346D01*
X027934Y018347D02*
X028009Y018347D01*
X028035Y018372D01*
X028035Y018422D01*
X028009Y018447D01*
X027934Y018447D01*
X027934Y018297D01*
X027984Y018347D02*
X028035Y018297D01*
X028082Y018272D02*
X028182Y018272D01*
X028229Y018347D02*
X028279Y018297D01*
X028329Y018347D01*
X028329Y018447D01*
X028376Y018447D02*
X028451Y018447D01*
X028476Y018422D01*
X028476Y018372D01*
X028451Y018347D01*
X028376Y018347D01*
X028376Y018297D02*
X028376Y018447D01*
X028426Y018347D02*
X028476Y018297D01*
X028524Y018297D02*
X028624Y018297D01*
X028671Y018322D02*
X028696Y018297D01*
X028746Y018297D01*
X028771Y018322D01*
X028771Y018372D01*
X028721Y018372D01*
X028671Y018422D02*
X028671Y018322D01*
X028671Y018422D02*
X028696Y018447D01*
X028746Y018447D01*
X028771Y018422D01*
X028624Y018447D02*
X028524Y018447D01*
X028524Y018297D01*
X028524Y018372D02*
X028574Y018372D01*
X028229Y018347D02*
X028229Y018447D01*
X024661Y013720D02*
X024686Y013695D01*
X024686Y013645D01*
X024661Y013620D01*
X024561Y013720D01*
X024661Y013720D01*
X024561Y013720D02*
X024536Y013695D01*
X024536Y013645D01*
X024561Y013620D01*
X024661Y013620D01*
X024686Y013573D02*
X024686Y013473D01*
X024686Y013523D02*
X024536Y013523D01*
X024586Y013473D01*
X024561Y013425D02*
X024536Y013400D01*
X024536Y013350D01*
X024561Y013325D01*
X024661Y013325D01*
X024686Y013350D01*
X024686Y013400D01*
X024661Y013425D01*
X024611Y013278D02*
X024611Y013178D01*
X024536Y013131D02*
X024536Y013031D01*
X024686Y013031D01*
X024686Y013131D01*
X024611Y013081D02*
X024611Y013031D01*
X024561Y012983D02*
X024536Y012958D01*
X024536Y012883D01*
X024686Y012883D01*
X024686Y012958D01*
X024661Y012983D01*
X024561Y012983D01*
X024586Y012836D02*
X024686Y012836D01*
X024611Y012836D02*
X024611Y012736D01*
X024586Y012736D02*
X024536Y012786D01*
X024586Y012836D01*
X024586Y012736D02*
X024686Y012736D01*
X023040Y013067D02*
X022940Y013067D01*
X022890Y013117D01*
X022940Y013167D01*
X023040Y013167D01*
X023040Y013215D02*
X023040Y013290D01*
X023015Y013315D01*
X022915Y013315D01*
X022890Y013290D01*
X022890Y013215D01*
X023040Y013215D01*
X022965Y013167D02*
X022965Y013067D01*
X022965Y013362D02*
X022965Y013412D01*
X022890Y013462D02*
X022890Y013362D01*
X023040Y013362D01*
X023040Y013462D01*
X022965Y013509D02*
X022965Y013609D01*
X022990Y013657D02*
X022990Y013732D01*
X022965Y013757D01*
X022915Y013757D01*
X022890Y013732D01*
X022890Y013657D01*
X023040Y013657D01*
X022990Y013707D02*
X023040Y013757D01*
X023040Y013804D02*
X023015Y013804D01*
X022915Y013904D01*
X022890Y013904D01*
X022890Y013804D01*
X021717Y012897D02*
X021717Y012947D01*
X021718Y012946D02*
X021739Y012949D01*
X021758Y012955D01*
X021777Y012964D01*
X021794Y012976D01*
X021808Y012990D01*
X021820Y013007D01*
X021829Y013026D01*
X021835Y013045D01*
X021838Y013066D01*
X021887Y013067D01*
X021888Y013066D01*
X021886Y013042D01*
X021880Y013019D01*
X021871Y012996D01*
X021859Y012975D01*
X021845Y012956D01*
X021828Y012939D01*
X021809Y012925D01*
X021788Y012913D01*
X021765Y012904D01*
X021742Y012898D01*
X021718Y012896D01*
X021718Y012905D01*
X021743Y012908D01*
X021767Y012914D01*
X021790Y012924D01*
X021811Y012937D01*
X021830Y012954D01*
X021847Y012973D01*
X021860Y012994D01*
X021870Y013017D01*
X021876Y013041D01*
X021879Y013066D01*
X021870Y013066D01*
X021867Y013042D01*
X021861Y013020D01*
X021852Y012998D01*
X021839Y012978D01*
X021824Y012960D01*
X021806Y012945D01*
X021786Y012932D01*
X021764Y012923D01*
X021742Y012917D01*
X021718Y012914D01*
X021718Y012923D01*
X021740Y012926D01*
X021762Y012931D01*
X021782Y012940D01*
X021801Y012952D01*
X021818Y012966D01*
X021832Y012983D01*
X021844Y013002D01*
X021853Y013022D01*
X021858Y013044D01*
X021861Y013066D01*
X021852Y013066D01*
X021850Y013045D01*
X021844Y013025D01*
X021836Y013006D01*
X021825Y012988D01*
X021811Y012973D01*
X021796Y012959D01*
X021778Y012948D01*
X021759Y012940D01*
X021739Y012934D01*
X021718Y012932D01*
X021718Y012941D01*
X021739Y012944D01*
X021760Y012950D01*
X021779Y012959D01*
X021797Y012972D01*
X021812Y012987D01*
X021825Y013005D01*
X021834Y013024D01*
X021840Y013045D01*
X021843Y013066D01*
X018899Y013067D02*
X018949Y013067D01*
X018948Y013066D02*
X018951Y013045D01*
X018957Y013026D01*
X018966Y013007D01*
X018978Y012990D01*
X018992Y012976D01*
X019009Y012964D01*
X019028Y012955D01*
X019047Y012949D01*
X019068Y012946D01*
X019069Y012897D01*
X019068Y012896D01*
X019044Y012898D01*
X019021Y012904D01*
X018998Y012913D01*
X018977Y012925D01*
X018958Y012939D01*
X018941Y012956D01*
X018927Y012975D01*
X018915Y012996D01*
X018906Y013019D01*
X018900Y013042D01*
X018898Y013066D01*
X018907Y013066D01*
X018910Y013041D01*
X018916Y013017D01*
X018926Y012994D01*
X018939Y012973D01*
X018956Y012954D01*
X018975Y012937D01*
X018996Y012924D01*
X019019Y012914D01*
X019043Y012908D01*
X019068Y012905D01*
X019068Y012914D01*
X019044Y012917D01*
X019022Y012923D01*
X019000Y012932D01*
X018980Y012945D01*
X018962Y012960D01*
X018947Y012978D01*
X018934Y012998D01*
X018925Y013020D01*
X018919Y013042D01*
X018916Y013066D01*
X018925Y013066D01*
X018928Y013044D01*
X018933Y013022D01*
X018942Y013002D01*
X018954Y012983D01*
X018968Y012966D01*
X018985Y012952D01*
X019004Y012940D01*
X019024Y012931D01*
X019046Y012926D01*
X019068Y012923D01*
X019068Y012932D01*
X019047Y012934D01*
X019027Y012940D01*
X019008Y012948D01*
X018990Y012959D01*
X018975Y012973D01*
X018961Y012988D01*
X018950Y013006D01*
X018942Y013025D01*
X018936Y013045D01*
X018934Y013066D01*
X018943Y013066D01*
X018946Y013045D01*
X018952Y013024D01*
X018961Y013005D01*
X018974Y012987D01*
X018989Y012972D01*
X019007Y012959D01*
X019026Y012950D01*
X019047Y012944D01*
X019068Y012941D01*
X010225Y041626D02*
X010250Y041651D01*
X010250Y041701D01*
X010225Y041726D01*
X010100Y041726D01*
X010125Y041773D02*
X010150Y041773D01*
X010175Y041798D01*
X010175Y041848D01*
X010200Y041873D01*
X010225Y041873D01*
X010250Y041848D01*
X010250Y041798D01*
X010225Y041773D01*
X010125Y041773D02*
X010100Y041798D01*
X010100Y041848D01*
X010125Y041873D01*
X010100Y041920D02*
X010100Y041995D01*
X010125Y042020D01*
X010150Y042020D01*
X010175Y041995D01*
X010175Y041920D01*
X010250Y041920D02*
X010100Y041920D01*
X010175Y041995D02*
X010200Y042020D01*
X010225Y042020D01*
X010250Y041995D01*
X010250Y041920D01*
X010275Y042068D02*
X010275Y042168D01*
X010250Y042215D02*
X010250Y042265D01*
X010250Y042240D02*
X010100Y042240D01*
X010100Y042215D02*
X010100Y042265D01*
X010100Y042313D02*
X010250Y042413D01*
X010100Y042413D01*
X010100Y042313D02*
X010250Y042313D01*
X010225Y041626D02*
X010100Y041626D01*
D14*
X024219Y013412D02*
X024243Y013412D01*
D15*
X023964Y015760D02*
X026664Y015760D01*
X026723Y015762D01*
X026781Y015768D01*
X026840Y015777D01*
X026897Y015791D01*
X026953Y015808D01*
X027008Y015829D01*
X027062Y015853D01*
X027114Y015881D01*
X027164Y015912D01*
X027212Y015946D01*
X027257Y015983D01*
X027300Y016024D01*
X027341Y016067D01*
X027378Y016112D01*
X027412Y016160D01*
X027443Y016210D01*
X027471Y016262D01*
X027495Y016316D01*
X027516Y016371D01*
X027533Y016427D01*
X027547Y016484D01*
X027556Y016543D01*
X027562Y016601D01*
X027564Y016660D01*
X027562Y016719D01*
X027556Y016777D01*
X027547Y016836D01*
X027533Y016893D01*
X027516Y016949D01*
X027495Y017004D01*
X027471Y017058D01*
X027443Y017110D01*
X027412Y017160D01*
X027378Y017208D01*
X027341Y017253D01*
X027300Y017296D01*
X027257Y017337D01*
X027212Y017374D01*
X027164Y017408D01*
X027114Y017439D01*
X027062Y017467D01*
X027008Y017491D01*
X026953Y017512D01*
X026897Y017529D01*
X026840Y017543D01*
X026781Y017552D01*
X026723Y017558D01*
X026664Y017560D01*
X023964Y017560D01*
X023905Y017558D01*
X023847Y017552D01*
X023788Y017543D01*
X023731Y017529D01*
X023675Y017512D01*
X023620Y017491D01*
X023566Y017467D01*
X023514Y017439D01*
X023464Y017408D01*
X023416Y017374D01*
X023371Y017337D01*
X023328Y017296D01*
X023287Y017253D01*
X023250Y017208D01*
X023216Y017160D01*
X023185Y017110D01*
X023157Y017058D01*
X023133Y017004D01*
X023112Y016949D01*
X023095Y016893D01*
X023081Y016836D01*
X023072Y016777D01*
X023066Y016719D01*
X023064Y016660D01*
X023066Y016601D01*
X023072Y016543D01*
X023081Y016484D01*
X023095Y016427D01*
X023112Y016371D01*
X023133Y016316D01*
X023157Y016262D01*
X023185Y016210D01*
X023216Y016160D01*
X023250Y016112D01*
X023287Y016067D01*
X023328Y016024D01*
X023371Y015983D01*
X023416Y015946D01*
X023464Y015912D01*
X023514Y015881D01*
X023566Y015853D01*
X023620Y015829D01*
X023675Y015808D01*
X023731Y015791D01*
X023788Y015777D01*
X023847Y015768D01*
X023905Y015762D01*
X023964Y015760D01*
X028794Y004081D02*
X030494Y004081D01*
X030844Y003274D02*
X030844Y002481D01*
X030494Y001681D02*
X028794Y001681D01*
X028444Y002481D02*
X028444Y003285D01*
X028944Y002881D02*
X028946Y002933D01*
X028952Y002985D01*
X028962Y003037D01*
X028975Y003087D01*
X028992Y003137D01*
X029013Y003185D01*
X029038Y003231D01*
X029066Y003275D01*
X029097Y003317D01*
X029131Y003357D01*
X029168Y003394D01*
X029208Y003428D01*
X029250Y003459D01*
X029294Y003487D01*
X029340Y003512D01*
X029388Y003533D01*
X029438Y003550D01*
X029488Y003563D01*
X029540Y003573D01*
X029592Y003579D01*
X029644Y003581D01*
X029696Y003579D01*
X029748Y003573D01*
X029800Y003563D01*
X029850Y003550D01*
X029900Y003533D01*
X029948Y003512D01*
X029994Y003487D01*
X030038Y003459D01*
X030080Y003428D01*
X030120Y003394D01*
X030157Y003357D01*
X030191Y003317D01*
X030222Y003275D01*
X030250Y003231D01*
X030275Y003185D01*
X030296Y003137D01*
X030313Y003087D01*
X030326Y003037D01*
X030336Y002985D01*
X030342Y002933D01*
X030344Y002881D01*
X030342Y002829D01*
X030336Y002777D01*
X030326Y002725D01*
X030313Y002675D01*
X030296Y002625D01*
X030275Y002577D01*
X030250Y002531D01*
X030222Y002487D01*
X030191Y002445D01*
X030157Y002405D01*
X030120Y002368D01*
X030080Y002334D01*
X030038Y002303D01*
X029994Y002275D01*
X029948Y002250D01*
X029900Y002229D01*
X029850Y002212D01*
X029800Y002199D01*
X029748Y002189D01*
X029696Y002183D01*
X029644Y002181D01*
X029592Y002183D01*
X029540Y002189D01*
X029488Y002199D01*
X029438Y002212D01*
X029388Y002229D01*
X029340Y002250D01*
X029294Y002275D01*
X029250Y002303D01*
X029208Y002334D01*
X029168Y002368D01*
X029131Y002405D01*
X029097Y002445D01*
X029066Y002487D01*
X029038Y002531D01*
X029013Y002577D01*
X028992Y002625D01*
X028975Y002675D01*
X028962Y002725D01*
X028952Y002777D01*
X028946Y002829D01*
X028944Y002881D01*
X028463Y030095D02*
X029644Y030095D01*
X029644Y031276D01*
X033530Y036522D02*
X033530Y038873D01*
X032420Y039967D02*
X030176Y039967D01*
X029822Y040322D01*
X029822Y040833D01*
X029822Y041700D02*
X029822Y042211D01*
X030176Y042566D01*
X032420Y042566D01*
X032420Y041700D01*
X032420Y040833D02*
X032420Y039967D01*
X033530Y040522D02*
X033530Y043873D01*
X033530Y045022D01*
X039959Y045022D01*
X039959Y043873D01*
X039959Y040522D01*
X039959Y038873D02*
X039959Y036522D01*
X033530Y036522D01*
X029644Y038363D02*
X029644Y039544D01*
X028463Y039544D01*
X029960Y041641D02*
X029983Y041706D01*
X030009Y041769D01*
X030039Y041830D01*
X030073Y041890D01*
X030109Y041948D01*
X030149Y042004D01*
X030192Y042057D01*
X030238Y042108D01*
X030287Y042156D01*
X030338Y042201D01*
X030392Y042244D01*
X030448Y042283D01*
X030506Y042319D01*
X030567Y042352D01*
X030629Y042381D01*
X030692Y042407D01*
X030757Y042429D01*
X030823Y042448D01*
X030890Y042462D01*
X030957Y042473D01*
X031026Y042480D01*
X031094Y042484D01*
X031163Y042483D01*
X031231Y042479D01*
X031299Y042470D01*
X031366Y042458D01*
X031433Y042443D01*
X031499Y042423D01*
X031563Y042400D01*
X031626Y042373D01*
X031688Y042342D01*
X031747Y042309D01*
X031805Y042272D01*
X031860Y042231D01*
X031913Y042188D01*
X031964Y042142D01*
X032012Y042093D01*
X032057Y042041D01*
X032099Y041987D01*
X032138Y041931D01*
X032174Y041872D01*
X032206Y041812D01*
X032235Y041750D01*
X032261Y041686D01*
X032282Y041621D01*
X032282Y040893D02*
X032259Y040828D01*
X032233Y040765D01*
X032203Y040704D01*
X032169Y040644D01*
X032133Y040586D01*
X032093Y040530D01*
X032050Y040477D01*
X032004Y040426D01*
X031955Y040378D01*
X031904Y040333D01*
X031850Y040290D01*
X031794Y040251D01*
X031736Y040215D01*
X031675Y040182D01*
X031613Y040153D01*
X031550Y040127D01*
X031485Y040105D01*
X031419Y040086D01*
X031352Y040072D01*
X031285Y040061D01*
X031216Y040054D01*
X031148Y040050D01*
X031079Y040051D01*
X031011Y040055D01*
X030943Y040064D01*
X030876Y040076D01*
X030809Y040091D01*
X030743Y040111D01*
X030679Y040134D01*
X030616Y040161D01*
X030554Y040192D01*
X030495Y040225D01*
X030437Y040262D01*
X030382Y040303D01*
X030329Y040346D01*
X030278Y040392D01*
X030230Y040441D01*
X030185Y040493D01*
X030143Y040547D01*
X030104Y040603D01*
X030068Y040662D01*
X030036Y040722D01*
X030007Y040784D01*
X029981Y040848D01*
X029960Y040913D01*
X021377Y039544D02*
X020196Y039544D01*
X020196Y038363D01*
X020196Y031276D02*
X020196Y030095D01*
X021377Y030095D01*
X038532Y034022D02*
X038887Y033668D01*
X041131Y033668D01*
X041131Y034534D01*
X041131Y035400D02*
X041131Y036267D01*
X038887Y036267D01*
X038532Y035912D01*
X038532Y035400D01*
X038532Y034534D02*
X038532Y034022D01*
X038670Y035341D02*
X038693Y035406D01*
X038719Y035469D01*
X038749Y035530D01*
X038783Y035590D01*
X038819Y035648D01*
X038859Y035704D01*
X038902Y035757D01*
X038948Y035808D01*
X038997Y035856D01*
X039048Y035901D01*
X039102Y035944D01*
X039158Y035983D01*
X039216Y036019D01*
X039277Y036052D01*
X039339Y036081D01*
X039402Y036107D01*
X039467Y036129D01*
X039533Y036148D01*
X039600Y036162D01*
X039667Y036173D01*
X039736Y036180D01*
X039804Y036184D01*
X039873Y036183D01*
X039941Y036179D01*
X040009Y036170D01*
X040076Y036158D01*
X040143Y036143D01*
X040209Y036123D01*
X040273Y036100D01*
X040336Y036073D01*
X040398Y036042D01*
X040457Y036009D01*
X040515Y035972D01*
X040570Y035931D01*
X040623Y035888D01*
X040674Y035842D01*
X040722Y035793D01*
X040767Y035741D01*
X040809Y035687D01*
X040848Y035631D01*
X040884Y035572D01*
X040916Y035512D01*
X040945Y035450D01*
X040971Y035386D01*
X040992Y035321D01*
X040993Y034593D02*
X040970Y034528D01*
X040944Y034465D01*
X040914Y034404D01*
X040880Y034344D01*
X040844Y034286D01*
X040804Y034230D01*
X040761Y034177D01*
X040715Y034126D01*
X040666Y034078D01*
X040615Y034033D01*
X040561Y033990D01*
X040505Y033951D01*
X040447Y033915D01*
X040386Y033882D01*
X040324Y033853D01*
X040261Y033827D01*
X040196Y033805D01*
X040130Y033786D01*
X040063Y033772D01*
X039996Y033761D01*
X039927Y033754D01*
X039859Y033750D01*
X039790Y033751D01*
X039722Y033755D01*
X039654Y033764D01*
X039587Y033776D01*
X039520Y033791D01*
X039454Y033811D01*
X039390Y033834D01*
X039327Y033861D01*
X039265Y033892D01*
X039206Y033925D01*
X039148Y033962D01*
X039093Y034003D01*
X039040Y034046D01*
X038989Y034092D01*
X038941Y034141D01*
X038896Y034193D01*
X038854Y034247D01*
X038815Y034303D01*
X038779Y034362D01*
X038747Y034422D01*
X038718Y034484D01*
X038692Y034548D01*
X038671Y034613D01*
D16*
X034794Y034528D02*
X034794Y034028D01*
X034544Y033778D01*
X034044Y033778D01*
X033794Y034028D01*
X033544Y033778D01*
X033044Y033778D01*
X032794Y034028D01*
X032544Y033778D01*
X032044Y033778D01*
X031794Y034028D01*
X031544Y033778D01*
X031044Y033778D01*
X030794Y034028D01*
X030794Y034528D01*
X031044Y034778D01*
X031544Y034778D01*
X031794Y034528D01*
X032044Y034778D01*
X032544Y034778D01*
X032794Y034528D01*
X032794Y034028D01*
X032794Y034528D01*
X033044Y034778D01*
X033544Y034778D01*
X033794Y034528D01*
X034044Y034778D01*
X034544Y034778D01*
X034794Y034528D01*
X034544Y034959D02*
X034794Y035209D01*
X034794Y035709D01*
X034544Y035959D01*
X034044Y035959D01*
X033794Y035709D01*
X033544Y035959D01*
X033044Y035959D01*
X032794Y035709D01*
X032544Y035959D01*
X032044Y035959D01*
X031794Y035709D01*
X031544Y035959D01*
X031044Y035959D01*
X030794Y035709D01*
X030794Y035209D01*
X031044Y034959D01*
X031544Y034959D01*
X031794Y035209D01*
X031794Y035709D01*
X031794Y035209D02*
X032044Y034959D01*
X032544Y034959D01*
X032794Y035209D01*
X032794Y035709D01*
X032794Y035209D01*
X033044Y034959D01*
X033544Y034959D01*
X033794Y035209D01*
X033794Y035709D01*
X033794Y035209D02*
X034044Y034959D01*
X034544Y034959D01*
X033794Y034528D02*
X033794Y034028D01*
X031794Y034028D02*
X031794Y034528D01*
X033024Y036623D02*
X033284Y036623D01*
X033284Y036797D01*
X033154Y036710D02*
X033154Y036623D01*
X033024Y036623D02*
X033024Y036797D01*
X033024Y036918D02*
X033024Y037091D01*
X033024Y037005D02*
X033284Y037005D01*
X033284Y037213D02*
X033024Y037213D01*
X033154Y037213D02*
X033154Y037386D01*
X033154Y037507D02*
X033154Y037594D01*
X033284Y037507D02*
X033284Y037681D01*
X033284Y037802D02*
X033024Y037802D01*
X033024Y037932D01*
X033067Y037975D01*
X033154Y037975D01*
X033197Y037932D01*
X033197Y037802D01*
X033197Y037889D02*
X033284Y037975D01*
X033284Y038097D02*
X033024Y038097D01*
X033284Y038270D01*
X033024Y038270D01*
X033024Y038391D02*
X033284Y038391D01*
X033284Y038565D01*
X033154Y038478D02*
X033154Y038391D01*
X033024Y038391D02*
X033024Y038565D01*
X033024Y038686D02*
X033024Y038859D01*
X033024Y038773D02*
X033284Y038773D01*
X033024Y037681D02*
X033024Y037507D01*
X033284Y037507D01*
X033284Y037386D02*
X033024Y037386D01*
X028268Y040621D02*
X028268Y040795D01*
X028268Y040916D02*
X028268Y041089D01*
X028268Y041210D02*
X028268Y041340D01*
X028224Y041384D01*
X028051Y041384D01*
X028007Y041340D01*
X028007Y041210D01*
X028268Y041210D01*
X028137Y041002D02*
X028137Y040916D01*
X028007Y040916D02*
X028268Y040916D01*
X028007Y040916D02*
X028007Y041089D01*
X028051Y041505D02*
X028007Y041548D01*
X028007Y041635D01*
X028051Y041679D01*
X028094Y041679D01*
X028268Y041505D01*
X028268Y041679D01*
X027826Y041563D02*
X027526Y041563D01*
X027676Y041363D01*
X027826Y041563D01*
X027805Y041535D02*
X027547Y041535D01*
X027591Y041477D02*
X027761Y041477D01*
X027717Y041418D02*
X027635Y041418D01*
X028007Y040621D02*
X028268Y040621D01*
X021625Y041806D02*
X021475Y042006D01*
X021325Y041806D01*
X021625Y041806D01*
X021609Y041828D02*
X021341Y041828D01*
X021385Y041887D02*
X021565Y041887D01*
X021521Y041945D02*
X021429Y041945D01*
X021473Y042004D02*
X021477Y042004D01*
X021144Y042005D02*
X021100Y042048D01*
X020927Y042048D01*
X020883Y042005D01*
X020883Y041875D01*
X021144Y041875D01*
X021144Y042005D01*
X021144Y042169D02*
X021144Y042343D01*
X021144Y042256D02*
X020883Y042256D01*
X020970Y042169D01*
X020883Y041754D02*
X020883Y041580D01*
X021144Y041580D01*
X021144Y041754D01*
X021014Y041667D02*
X021014Y041580D01*
X021144Y041459D02*
X021144Y041286D01*
X020883Y041286D01*
X020929Y040076D02*
X020929Y039816D01*
X020843Y039816D02*
X021016Y039816D01*
X020843Y039990D02*
X020929Y040076D01*
X020722Y040033D02*
X020678Y040076D01*
X020591Y040076D01*
X020548Y040033D01*
X020548Y039860D01*
X020591Y039816D01*
X020678Y039816D01*
X020722Y039860D01*
X020438Y039816D02*
X020352Y039816D01*
X020395Y039816D02*
X020395Y040076D01*
X020352Y040076D02*
X020438Y040076D01*
X033216Y025090D02*
X035916Y025090D01*
X035975Y025088D01*
X036033Y025082D01*
X036092Y025073D01*
X036149Y025059D01*
X036205Y025042D01*
X036260Y025021D01*
X036314Y024997D01*
X036366Y024969D01*
X036416Y024938D01*
X036464Y024904D01*
X036509Y024867D01*
X036552Y024826D01*
X036593Y024783D01*
X036630Y024738D01*
X036664Y024690D01*
X036695Y024640D01*
X036723Y024588D01*
X036747Y024534D01*
X036768Y024479D01*
X036785Y024423D01*
X036799Y024366D01*
X036808Y024307D01*
X036814Y024249D01*
X036816Y024190D01*
X036814Y024131D01*
X036808Y024073D01*
X036799Y024014D01*
X036785Y023957D01*
X036768Y023901D01*
X036747Y023846D01*
X036723Y023792D01*
X036695Y023740D01*
X036664Y023690D01*
X036630Y023642D01*
X036593Y023597D01*
X036552Y023554D01*
X036509Y023513D01*
X036464Y023476D01*
X036416Y023442D01*
X036366Y023411D01*
X036314Y023383D01*
X036260Y023359D01*
X036205Y023338D01*
X036149Y023321D01*
X036092Y023307D01*
X036033Y023298D01*
X035975Y023292D01*
X035916Y023290D01*
X033216Y023290D01*
X033157Y023292D01*
X033099Y023298D01*
X033040Y023307D01*
X032983Y023321D01*
X032927Y023338D01*
X032872Y023359D01*
X032818Y023383D01*
X032766Y023411D01*
X032716Y023442D01*
X032668Y023476D01*
X032623Y023513D01*
X032580Y023554D01*
X032539Y023597D01*
X032502Y023642D01*
X032468Y023690D01*
X032437Y023740D01*
X032409Y023792D01*
X032385Y023846D01*
X032364Y023901D01*
X032347Y023957D01*
X032333Y024014D01*
X032324Y024073D01*
X032318Y024131D01*
X032316Y024190D01*
X032318Y024249D01*
X032324Y024307D01*
X032333Y024366D01*
X032347Y024423D01*
X032364Y024479D01*
X032385Y024534D01*
X032409Y024588D01*
X032437Y024640D01*
X032468Y024690D01*
X032502Y024738D01*
X032539Y024783D01*
X032580Y024826D01*
X032623Y024867D01*
X032668Y024904D01*
X032716Y024938D01*
X032766Y024969D01*
X032818Y024997D01*
X032872Y025021D01*
X032927Y025042D01*
X032983Y025059D01*
X033040Y025073D01*
X033099Y025082D01*
X033157Y025088D01*
X033216Y025090D01*
X034567Y020881D02*
X034567Y020471D01*
X036127Y019811D02*
X036437Y019811D01*
X036437Y019501D01*
X037087Y018941D02*
X037497Y018941D01*
X037467Y016971D02*
X037057Y016971D01*
X036437Y016181D02*
X036437Y015871D01*
X036127Y015871D01*
X034777Y015231D02*
X034767Y014831D01*
X032807Y015871D02*
X032497Y015871D01*
X032497Y016181D01*
X032637Y016231D02*
X032857Y016011D01*
X031827Y017161D02*
X031427Y017161D01*
X031407Y019121D02*
X031807Y019121D01*
X032497Y019501D02*
X032497Y019811D01*
X032807Y019811D01*
X023918Y008570D02*
X023918Y007330D01*
X023916Y007307D01*
X023911Y007284D01*
X023902Y007262D01*
X023889Y007242D01*
X023874Y007224D01*
X023856Y007209D01*
X023836Y007196D01*
X023814Y007187D01*
X023791Y007182D01*
X023768Y007180D01*
X024432Y007037D02*
X024459Y007039D01*
X024486Y007044D01*
X024512Y007054D01*
X024536Y007066D01*
X024558Y007082D01*
X024578Y007100D01*
X024595Y007122D01*
X024610Y007145D01*
X024620Y007170D01*
X024628Y007196D01*
X024632Y007223D01*
X024632Y007251D01*
X024628Y007278D01*
X024620Y007304D01*
X024610Y007329D01*
X024595Y007352D01*
X024578Y007374D01*
X024558Y007392D01*
X024536Y007408D01*
X024512Y007420D01*
X024486Y007430D01*
X024459Y007435D01*
X024432Y007437D01*
X024432Y007037D01*
X024432Y006617D01*
X024434Y006594D01*
X024439Y006571D01*
X024448Y006549D01*
X024461Y006529D01*
X024476Y006511D01*
X024494Y006496D01*
X024514Y006483D01*
X024536Y006474D01*
X024559Y006469D01*
X024582Y006467D01*
X024432Y007437D02*
X024432Y007857D01*
X024434Y007880D01*
X024439Y007903D01*
X024448Y007925D01*
X024461Y007945D01*
X024476Y007963D01*
X024494Y007978D01*
X024514Y007991D01*
X024536Y008000D01*
X024559Y008005D01*
X024582Y008007D01*
X023918Y008570D02*
X023916Y008593D01*
X023911Y008616D01*
X023902Y008638D01*
X023889Y008658D01*
X023874Y008676D01*
X023856Y008691D01*
X023836Y008704D01*
X023814Y008713D01*
X023791Y008718D01*
X023768Y008720D01*
X020068Y008720D02*
X020045Y008718D01*
X020022Y008713D01*
X020000Y008704D01*
X019980Y008691D01*
X019962Y008676D01*
X019947Y008658D01*
X019934Y008638D01*
X019925Y008616D01*
X019920Y008593D01*
X019918Y008570D01*
X019918Y008150D01*
X019918Y007750D01*
X019918Y007330D01*
X019920Y007307D01*
X019925Y007284D01*
X019934Y007262D01*
X019947Y007242D01*
X019962Y007224D01*
X019980Y007209D01*
X020000Y007196D01*
X020022Y007187D01*
X020045Y007182D01*
X020068Y007180D01*
X019341Y007330D02*
X019341Y008570D01*
X019339Y008593D01*
X019334Y008616D01*
X019325Y008638D01*
X019312Y008658D01*
X019297Y008676D01*
X019279Y008691D01*
X019259Y008704D01*
X019237Y008713D01*
X019214Y008718D01*
X019191Y008720D01*
X019918Y008150D02*
X019945Y008148D01*
X019972Y008143D01*
X019998Y008133D01*
X020022Y008121D01*
X020044Y008105D01*
X020064Y008087D01*
X020081Y008065D01*
X020096Y008042D01*
X020106Y008017D01*
X020114Y007991D01*
X020118Y007964D01*
X020118Y007936D01*
X020114Y007909D01*
X020106Y007883D01*
X020096Y007858D01*
X020081Y007835D01*
X020064Y007813D01*
X020044Y007795D01*
X020022Y007779D01*
X019998Y007767D01*
X019972Y007757D01*
X019945Y007752D01*
X019918Y007750D01*
X019341Y007330D02*
X019339Y007307D01*
X019334Y007284D01*
X019325Y007262D01*
X019312Y007242D01*
X019297Y007224D01*
X019279Y007209D01*
X019259Y007196D01*
X019237Y007187D01*
X019214Y007182D01*
X019191Y007180D01*
X015491Y007180D02*
X015468Y007182D01*
X015445Y007187D01*
X015423Y007196D01*
X015403Y007209D01*
X015385Y007224D01*
X015370Y007242D01*
X015357Y007262D01*
X015348Y007284D01*
X015343Y007307D01*
X015341Y007330D01*
X015341Y007750D01*
X015341Y008150D01*
X015341Y008570D01*
X015343Y008593D01*
X015348Y008616D01*
X015357Y008638D01*
X015370Y008658D01*
X015385Y008676D01*
X015403Y008691D01*
X015423Y008704D01*
X015445Y008713D01*
X015468Y008718D01*
X015491Y008720D01*
X015341Y008150D02*
X015368Y008148D01*
X015395Y008143D01*
X015421Y008133D01*
X015445Y008121D01*
X015467Y008105D01*
X015487Y008087D01*
X015504Y008065D01*
X015519Y008042D01*
X015529Y008017D01*
X015537Y007991D01*
X015541Y007964D01*
X015541Y007936D01*
X015537Y007909D01*
X015529Y007883D01*
X015519Y007858D01*
X015504Y007835D01*
X015487Y007813D01*
X015467Y007795D01*
X015445Y007779D01*
X015421Y007767D01*
X015395Y007757D01*
X015368Y007752D01*
X015341Y007750D01*
X019073Y012921D02*
X021713Y012921D01*
X021713Y019021D02*
X019073Y019021D01*
X019893Y019021D02*
X019895Y018977D01*
X019901Y018934D01*
X019910Y018892D01*
X019923Y018850D01*
X019940Y018810D01*
X019960Y018771D01*
X019983Y018734D01*
X020010Y018700D01*
X020039Y018667D01*
X020072Y018638D01*
X020106Y018611D01*
X020143Y018588D01*
X020182Y018568D01*
X020222Y018551D01*
X020264Y018538D01*
X020306Y018529D01*
X020349Y018523D01*
X020393Y018521D01*
X020437Y018523D01*
X020480Y018529D01*
X020522Y018538D01*
X020564Y018551D01*
X020604Y018568D01*
X020643Y018588D01*
X020680Y018611D01*
X020714Y018638D01*
X020747Y018667D01*
X020776Y018700D01*
X020803Y018734D01*
X020826Y018771D01*
X020846Y018810D01*
X020863Y018850D01*
X020876Y018892D01*
X020885Y018934D01*
X020891Y018977D01*
X020893Y019021D01*
X028282Y008007D02*
X028305Y008005D01*
X028328Y008000D01*
X028350Y007991D01*
X028370Y007978D01*
X028388Y007963D01*
X028403Y007945D01*
X028416Y007925D01*
X028425Y007903D01*
X028430Y007880D01*
X028432Y007857D01*
X028432Y006617D01*
X028430Y006594D01*
X028425Y006571D01*
X028416Y006549D01*
X028403Y006529D01*
X028388Y006511D01*
X028370Y006496D01*
X028350Y006483D01*
X028328Y006474D01*
X028305Y006469D01*
X028282Y006467D01*
X031692Y002839D02*
X031442Y002589D01*
X031442Y002089D01*
X031692Y001839D01*
X032192Y001839D01*
X032442Y002089D01*
X032692Y001839D01*
X033192Y001839D01*
X033442Y002089D01*
X033692Y001839D01*
X034192Y001839D01*
X034442Y002089D01*
X034442Y002589D01*
X034192Y002839D01*
X033692Y002839D01*
X033442Y002589D01*
X033442Y002089D01*
X033442Y002589D02*
X033192Y002839D01*
X032692Y002839D01*
X032442Y002589D01*
X032442Y002089D01*
X032442Y002589D02*
X032192Y002839D01*
X031692Y002839D01*
X034682Y002589D02*
X034682Y002089D01*
X034932Y001839D01*
X035432Y001839D01*
X035682Y002089D01*
X035932Y001839D01*
X036432Y001839D01*
X036682Y002089D01*
X036932Y001839D01*
X037432Y001839D01*
X037682Y002089D01*
X037932Y001839D01*
X038432Y001839D01*
X038682Y002089D01*
X038682Y002589D01*
X038432Y002839D01*
X037932Y002839D01*
X037682Y002589D01*
X037682Y002089D01*
X037682Y002589D02*
X037432Y002839D01*
X036932Y002839D01*
X036682Y002589D01*
X036682Y002089D01*
X036682Y002589D01*
X036432Y002839D01*
X035932Y002839D01*
X035682Y002589D01*
X035682Y002089D01*
X035682Y002589D02*
X035432Y002839D01*
X034932Y002839D01*
X034682Y002589D01*
X003348Y008393D02*
X003350Y008442D01*
X003356Y008490D01*
X003366Y008538D01*
X003380Y008585D01*
X003397Y008631D01*
X003418Y008675D01*
X003443Y008717D01*
X003471Y008757D01*
X003503Y008795D01*
X003537Y008830D01*
X003574Y008862D01*
X003613Y008891D01*
X003655Y008917D01*
X003699Y008939D01*
X003744Y008957D01*
X003791Y008972D01*
X003838Y008983D01*
X003887Y008990D01*
X003936Y008993D01*
X003985Y008992D01*
X004033Y008987D01*
X004082Y008978D01*
X004129Y008965D01*
X004175Y008948D01*
X004219Y008928D01*
X004262Y008904D01*
X004303Y008877D01*
X004341Y008846D01*
X004377Y008813D01*
X004409Y008777D01*
X004439Y008738D01*
X004466Y008697D01*
X004489Y008653D01*
X004508Y008608D01*
X004524Y008562D01*
X004536Y008515D01*
X004544Y008466D01*
X004548Y008417D01*
X004548Y008369D01*
X004544Y008320D01*
X004536Y008271D01*
X004524Y008224D01*
X004508Y008178D01*
X004489Y008133D01*
X004466Y008089D01*
X004439Y008048D01*
X004409Y008009D01*
X004377Y007973D01*
X004341Y007940D01*
X004303Y007909D01*
X004262Y007882D01*
X004219Y007858D01*
X004175Y007838D01*
X004129Y007821D01*
X004082Y007808D01*
X004033Y007799D01*
X003985Y007794D01*
X003936Y007793D01*
X003887Y007796D01*
X003838Y007803D01*
X003791Y007814D01*
X003744Y007829D01*
X003699Y007847D01*
X003655Y007869D01*
X003613Y007895D01*
X003574Y007924D01*
X003537Y007956D01*
X003503Y007991D01*
X003471Y008029D01*
X003443Y008069D01*
X003418Y008111D01*
X003397Y008155D01*
X003380Y008201D01*
X003366Y008248D01*
X003356Y008296D01*
X003350Y008344D01*
X003348Y008393D01*
X003228Y013056D02*
X003230Y013105D01*
X003236Y013153D01*
X003246Y013201D01*
X003260Y013248D01*
X003277Y013294D01*
X003298Y013338D01*
X003323Y013380D01*
X003351Y013420D01*
X003383Y013458D01*
X003417Y013493D01*
X003454Y013525D01*
X003493Y013554D01*
X003535Y013580D01*
X003579Y013602D01*
X003624Y013620D01*
X003671Y013635D01*
X003718Y013646D01*
X003767Y013653D01*
X003816Y013656D01*
X003865Y013655D01*
X003913Y013650D01*
X003962Y013641D01*
X004009Y013628D01*
X004055Y013611D01*
X004099Y013591D01*
X004142Y013567D01*
X004183Y013540D01*
X004221Y013509D01*
X004257Y013476D01*
X004289Y013440D01*
X004319Y013401D01*
X004346Y013360D01*
X004369Y013316D01*
X004388Y013271D01*
X004404Y013225D01*
X004416Y013178D01*
X004424Y013129D01*
X004428Y013080D01*
X004428Y013032D01*
X004424Y012983D01*
X004416Y012934D01*
X004404Y012887D01*
X004388Y012841D01*
X004369Y012796D01*
X004346Y012752D01*
X004319Y012711D01*
X004289Y012672D01*
X004257Y012636D01*
X004221Y012603D01*
X004183Y012572D01*
X004142Y012545D01*
X004099Y012521D01*
X004055Y012501D01*
X004009Y012484D01*
X003962Y012471D01*
X003913Y012462D01*
X003865Y012457D01*
X003816Y012456D01*
X003767Y012459D01*
X003718Y012466D01*
X003671Y012477D01*
X003624Y012492D01*
X003579Y012510D01*
X003535Y012532D01*
X003493Y012558D01*
X003454Y012587D01*
X003417Y012619D01*
X003383Y012654D01*
X003351Y012692D01*
X003323Y012732D01*
X003298Y012774D01*
X003277Y012818D01*
X003260Y012864D01*
X003246Y012911D01*
X003236Y012959D01*
X003230Y013007D01*
X003228Y013056D01*
X002993Y016296D02*
X002995Y016345D01*
X003001Y016393D01*
X003011Y016441D01*
X003025Y016488D01*
X003042Y016534D01*
X003063Y016578D01*
X003088Y016620D01*
X003116Y016660D01*
X003148Y016698D01*
X003182Y016733D01*
X003219Y016765D01*
X003258Y016794D01*
X003300Y016820D01*
X003344Y016842D01*
X003389Y016860D01*
X003436Y016875D01*
X003483Y016886D01*
X003532Y016893D01*
X003581Y016896D01*
X003630Y016895D01*
X003678Y016890D01*
X003727Y016881D01*
X003774Y016868D01*
X003820Y016851D01*
X003864Y016831D01*
X003907Y016807D01*
X003948Y016780D01*
X003986Y016749D01*
X004022Y016716D01*
X004054Y016680D01*
X004084Y016641D01*
X004111Y016600D01*
X004134Y016556D01*
X004153Y016511D01*
X004169Y016465D01*
X004181Y016418D01*
X004189Y016369D01*
X004193Y016320D01*
X004193Y016272D01*
X004189Y016223D01*
X004181Y016174D01*
X004169Y016127D01*
X004153Y016081D01*
X004134Y016036D01*
X004111Y015992D01*
X004084Y015951D01*
X004054Y015912D01*
X004022Y015876D01*
X003986Y015843D01*
X003948Y015812D01*
X003907Y015785D01*
X003864Y015761D01*
X003820Y015741D01*
X003774Y015724D01*
X003727Y015711D01*
X003678Y015702D01*
X003630Y015697D01*
X003581Y015696D01*
X003532Y015699D01*
X003483Y015706D01*
X003436Y015717D01*
X003389Y015732D01*
X003344Y015750D01*
X003300Y015772D01*
X003258Y015798D01*
X003219Y015827D01*
X003182Y015859D01*
X003148Y015894D01*
X003116Y015932D01*
X003088Y015972D01*
X003063Y016014D01*
X003042Y016058D01*
X003025Y016104D01*
X003011Y016151D01*
X003001Y016199D01*
X002995Y016247D01*
X002993Y016296D01*
D17*
X019409Y038757D02*
X019411Y038782D01*
X019417Y038806D01*
X019426Y038828D01*
X019439Y038849D01*
X019455Y038868D01*
X019474Y038884D01*
X019495Y038897D01*
X019517Y038906D01*
X019541Y038912D01*
X019566Y038914D01*
X019591Y038912D01*
X019615Y038906D01*
X019637Y038897D01*
X019658Y038884D01*
X019677Y038868D01*
X019693Y038849D01*
X019706Y038828D01*
X019715Y038806D01*
X019721Y038782D01*
X019723Y038757D01*
X019721Y038732D01*
X019715Y038708D01*
X019706Y038686D01*
X019693Y038665D01*
X019677Y038646D01*
X019658Y038630D01*
X019637Y038617D01*
X019615Y038608D01*
X019591Y038602D01*
X019566Y038600D01*
X019541Y038602D01*
X019517Y038608D01*
X019495Y038617D01*
X019474Y038630D01*
X019455Y038646D01*
X019439Y038665D01*
X019426Y038686D01*
X019417Y038708D01*
X019411Y038732D01*
X019409Y038757D01*
D18*
X033216Y024890D02*
X035916Y024890D01*
X035967Y024888D01*
X036018Y024883D01*
X036068Y024873D01*
X036118Y024860D01*
X036166Y024844D01*
X036213Y024824D01*
X036259Y024800D01*
X036302Y024774D01*
X036344Y024744D01*
X036383Y024711D01*
X036420Y024676D01*
X036454Y024638D01*
X036485Y024597D01*
X036514Y024555D01*
X036539Y024510D01*
X036560Y024464D01*
X036579Y024416D01*
X036593Y024367D01*
X036604Y024317D01*
X036612Y024267D01*
X036616Y024216D01*
X036616Y024164D01*
X036612Y024113D01*
X036604Y024063D01*
X036593Y024013D01*
X036579Y023964D01*
X036560Y023916D01*
X036539Y023870D01*
X036514Y023825D01*
X036485Y023783D01*
X036454Y023742D01*
X036420Y023704D01*
X036383Y023669D01*
X036344Y023636D01*
X036302Y023606D01*
X036259Y023580D01*
X036213Y023556D01*
X036166Y023536D01*
X036118Y023520D01*
X036068Y023507D01*
X036018Y023497D01*
X035967Y023492D01*
X035916Y023490D01*
X033216Y023490D01*
X033165Y023492D01*
X033114Y023497D01*
X033064Y023507D01*
X033014Y023520D01*
X032966Y023536D01*
X032919Y023556D01*
X032873Y023580D01*
X032830Y023606D01*
X032788Y023636D01*
X032749Y023669D01*
X032712Y023704D01*
X032678Y023742D01*
X032647Y023783D01*
X032618Y023825D01*
X032593Y023870D01*
X032572Y023916D01*
X032553Y023964D01*
X032539Y024013D01*
X032528Y024063D01*
X032520Y024113D01*
X032516Y024164D01*
X032516Y024216D01*
X032520Y024267D01*
X032528Y024317D01*
X032539Y024367D01*
X032553Y024416D01*
X032572Y024464D01*
X032593Y024510D01*
X032618Y024555D01*
X032647Y024597D01*
X032678Y024638D01*
X032712Y024676D01*
X032749Y024711D01*
X032788Y024744D01*
X032830Y024774D01*
X032873Y024800D01*
X032919Y024824D01*
X032966Y024844D01*
X033014Y024860D01*
X033064Y024873D01*
X033114Y024883D01*
X033165Y024888D01*
X033216Y024890D01*
X036839Y028342D02*
X037023Y028342D01*
X037060Y028379D01*
X037060Y028453D01*
X037023Y028489D01*
X036839Y028489D01*
X036876Y028563D02*
X036839Y028600D01*
X036839Y028674D01*
X036876Y028710D01*
X036913Y028710D01*
X037060Y028563D01*
X037060Y028710D01*
X028305Y022306D02*
X028158Y022306D01*
X028158Y022196D01*
X028231Y022233D01*
X028268Y022233D01*
X028305Y022196D01*
X028305Y022122D01*
X028268Y022086D01*
X028195Y022086D01*
X028158Y022122D01*
X028084Y022196D02*
X027937Y022196D01*
X028047Y022306D01*
X028047Y022086D01*
X027863Y022122D02*
X027826Y022086D01*
X027753Y022086D01*
X027716Y022122D01*
X027716Y022269D01*
X027753Y022306D01*
X027826Y022306D01*
X027863Y022269D01*
X027367Y022362D02*
X027147Y022362D01*
X027257Y022251D01*
X027257Y022398D01*
X027257Y022472D02*
X027257Y022619D01*
X027367Y022583D02*
X027147Y022583D01*
X027257Y022472D01*
X027330Y022177D02*
X027367Y022141D01*
X027367Y022067D01*
X027330Y022030D01*
X027183Y022030D01*
X027147Y022067D01*
X027147Y022141D01*
X027183Y022177D01*
X023918Y007320D02*
X019918Y007320D01*
X019341Y007320D02*
X015341Y007320D01*
X024432Y006607D02*
X028432Y006607D01*
D19*
X005747Y008422D02*
X005747Y001178D01*
X012991Y001178D01*
X012991Y008422D01*
X005747Y008422D01*
X005941Y007950D02*
X005943Y007983D01*
X005949Y008015D01*
X005958Y008047D01*
X005972Y008077D01*
X005988Y008105D01*
X006008Y008131D01*
X006031Y008155D01*
X006057Y008176D01*
X006085Y008193D01*
X006115Y008208D01*
X006146Y008218D01*
X006178Y008225D01*
X006211Y008228D01*
X006244Y008227D01*
X006276Y008222D01*
X006308Y008213D01*
X006339Y008201D01*
X006367Y008185D01*
X006394Y008166D01*
X006418Y008144D01*
X006440Y008119D01*
X006458Y008091D01*
X006473Y008062D01*
X006485Y008031D01*
X006493Y007999D01*
X006497Y007966D01*
X006497Y007934D01*
X006493Y007901D01*
X006485Y007869D01*
X006473Y007838D01*
X006458Y007809D01*
X006440Y007781D01*
X006418Y007756D01*
X006394Y007734D01*
X006367Y007715D01*
X006339Y007699D01*
X006308Y007687D01*
X006276Y007678D01*
X006244Y007673D01*
X006211Y007672D01*
X006178Y007675D01*
X006146Y007682D01*
X006115Y007692D01*
X006085Y007707D01*
X006057Y007724D01*
X006031Y007745D01*
X006008Y007769D01*
X005988Y007795D01*
X005972Y007823D01*
X005958Y007853D01*
X005949Y007885D01*
X005943Y007917D01*
X005941Y007950D01*
X004566Y008757D02*
X004566Y016001D01*
X011810Y016001D01*
X011810Y008757D01*
X004566Y008757D01*
X004760Y015528D02*
X004762Y015561D01*
X004768Y015593D01*
X004777Y015625D01*
X004791Y015655D01*
X004807Y015683D01*
X004827Y015709D01*
X004850Y015733D01*
X004876Y015754D01*
X004904Y015771D01*
X004934Y015786D01*
X004965Y015796D01*
X004997Y015803D01*
X005030Y015806D01*
X005063Y015805D01*
X005095Y015800D01*
X005127Y015791D01*
X005158Y015779D01*
X005186Y015763D01*
X005213Y015744D01*
X005237Y015722D01*
X005259Y015697D01*
X005277Y015669D01*
X005292Y015640D01*
X005304Y015609D01*
X005312Y015577D01*
X005316Y015544D01*
X005316Y015512D01*
X005312Y015479D01*
X005304Y015447D01*
X005292Y015416D01*
X005277Y015387D01*
X005259Y015359D01*
X005237Y015334D01*
X005213Y015312D01*
X005186Y015293D01*
X005158Y015277D01*
X005127Y015265D01*
X005095Y015256D01*
X005063Y015251D01*
X005030Y015250D01*
X004997Y015253D01*
X004965Y015260D01*
X004934Y015270D01*
X004904Y015285D01*
X004876Y015302D01*
X004850Y015323D01*
X004827Y015347D01*
X004807Y015373D01*
X004791Y015401D01*
X004777Y015431D01*
X004768Y015463D01*
X004762Y015495D01*
X004760Y015528D01*
X004566Y016532D02*
X004566Y023776D01*
X011810Y023776D01*
X011810Y016532D01*
X004566Y016532D01*
X004760Y023304D02*
X004762Y023337D01*
X004768Y023369D01*
X004777Y023401D01*
X004791Y023431D01*
X004807Y023459D01*
X004827Y023485D01*
X004850Y023509D01*
X004876Y023530D01*
X004904Y023547D01*
X004934Y023562D01*
X004965Y023572D01*
X004997Y023579D01*
X005030Y023582D01*
X005063Y023581D01*
X005095Y023576D01*
X005127Y023567D01*
X005158Y023555D01*
X005186Y023539D01*
X005213Y023520D01*
X005237Y023498D01*
X005259Y023473D01*
X005277Y023445D01*
X005292Y023416D01*
X005304Y023385D01*
X005312Y023353D01*
X005316Y023320D01*
X005316Y023288D01*
X005312Y023255D01*
X005304Y023223D01*
X005292Y023192D01*
X005277Y023163D01*
X005259Y023135D01*
X005237Y023110D01*
X005213Y023088D01*
X005186Y023069D01*
X005158Y023053D01*
X005127Y023041D01*
X005095Y023032D01*
X005063Y023027D01*
X005030Y023026D01*
X004997Y023029D01*
X004965Y023036D01*
X004934Y023046D01*
X004904Y023061D01*
X004876Y023078D01*
X004850Y023099D01*
X004827Y023123D01*
X004807Y023149D01*
X004791Y023177D01*
X004777Y023207D01*
X004768Y023239D01*
X004762Y023271D01*
X004760Y023304D01*
X002686Y024337D02*
X002686Y037723D01*
X010639Y037723D01*
X010639Y024337D01*
X002686Y024337D01*
X011416Y027438D02*
X011416Y031769D01*
X018109Y031769D01*
X018109Y027438D01*
X011416Y027438D01*
X012188Y025562D02*
X012188Y008743D01*
X042574Y008743D01*
X042574Y025562D01*
X012188Y025562D01*
X018999Y025392D02*
X018999Y025272D01*
X019119Y025272D01*
X019119Y025392D01*
X018999Y025392D01*
X019019Y026272D02*
X019019Y026392D01*
X019139Y026392D01*
X019139Y026272D01*
X019019Y026272D01*
X020099Y026272D02*
X020099Y026392D01*
X020219Y026392D01*
X020219Y026272D01*
X020099Y026272D01*
X020079Y025392D02*
X020079Y025272D01*
X020199Y025272D01*
X020199Y025392D01*
X020079Y025392D01*
X020079Y024312D02*
X020079Y024192D01*
X020199Y024192D01*
X020199Y024312D01*
X020079Y024312D01*
X020079Y023252D02*
X020079Y023132D01*
X020199Y023132D01*
X020199Y023252D01*
X020079Y023252D01*
X021159Y023232D02*
X021159Y023112D01*
X021279Y023112D01*
X021279Y023232D01*
X021159Y023232D01*
X021159Y024172D02*
X021159Y024292D01*
X021279Y024292D01*
X021279Y024172D01*
X021159Y024172D01*
X021159Y025252D02*
X021159Y025372D01*
X021279Y025372D01*
X021279Y025252D01*
X021159Y025252D01*
X021179Y026252D02*
X021179Y026372D01*
X021299Y026372D01*
X021299Y026252D01*
X021179Y026252D01*
X022259Y026272D02*
X022259Y026392D01*
X022379Y026392D01*
X022379Y026272D01*
X022259Y026272D01*
X022239Y025392D02*
X022239Y025272D01*
X022359Y025272D01*
X022359Y025392D01*
X022239Y025392D01*
X022239Y024312D02*
X022239Y024192D01*
X022359Y024192D01*
X022359Y024312D01*
X022239Y024312D01*
X022239Y023252D02*
X022239Y023132D01*
X022359Y023132D01*
X022359Y023252D01*
X022239Y023252D01*
X023319Y023252D02*
X023319Y023132D01*
X023439Y023132D01*
X023439Y023252D01*
X023319Y023252D01*
X023887Y022930D02*
X024398Y022930D01*
X024950Y022930D02*
X025461Y022930D01*
X025461Y021906D01*
X025461Y021828D01*
X024950Y021828D01*
X024950Y021906D01*
X025461Y021906D01*
X025461Y021867D02*
X024950Y021867D01*
X024398Y021867D02*
X023887Y021867D01*
X023887Y021828D02*
X023887Y021906D01*
X024398Y021906D01*
X024398Y021828D01*
X023887Y021828D01*
X023887Y021906D02*
X023887Y022930D01*
X023619Y022352D02*
X018839Y022352D01*
X018839Y028752D01*
X023619Y028752D01*
X023619Y022352D01*
X025217Y020838D02*
X025392Y020838D01*
X025450Y020780D01*
X025450Y020722D01*
X025392Y020663D01*
X025217Y020663D01*
X025392Y020663D02*
X025450Y020605D01*
X025450Y020546D01*
X025392Y020488D01*
X025217Y020488D01*
X025217Y020838D01*
X025585Y020722D02*
X025702Y020838D01*
X025702Y020488D01*
X025818Y020488D02*
X025585Y020488D01*
X025904Y020548D02*
X026692Y020548D01*
X026692Y021040D01*
X025904Y021040D01*
X025904Y020873D01*
X025826Y020873D01*
X025826Y020715D01*
X025904Y020715D01*
X025904Y020548D01*
X026269Y022477D02*
X026269Y023068D01*
X026446Y023068D02*
X026938Y023068D01*
X026938Y022713D01*
X026446Y022713D01*
X026446Y023068D01*
X026446Y023501D01*
X027430Y023501D01*
X027430Y022713D01*
X026938Y022713D01*
X026938Y022477D02*
X026269Y022477D01*
X023439Y025272D02*
X023319Y025272D01*
X023319Y025392D01*
X023439Y025392D01*
X023439Y025272D01*
X023459Y026272D02*
X023339Y026272D01*
X023339Y026392D01*
X023459Y026392D01*
X023459Y026272D01*
X022359Y027392D02*
X022239Y027392D01*
X022239Y027512D01*
X022359Y027512D01*
X022359Y027392D01*
X022379Y028392D02*
X022259Y028392D01*
X022259Y028512D01*
X022379Y028512D01*
X022379Y028392D01*
X021299Y028372D02*
X021179Y028372D01*
X021179Y028492D01*
X021299Y028492D01*
X021299Y028372D01*
X021279Y027492D02*
X021279Y027372D01*
X021159Y027372D01*
X021159Y027492D01*
X021279Y027492D01*
X020199Y027512D02*
X020199Y027392D01*
X020079Y027392D01*
X020079Y027512D01*
X020199Y027512D01*
X020219Y028392D02*
X020099Y028392D01*
X020099Y028512D01*
X020219Y028512D01*
X020219Y028392D01*
X019054Y033028D02*
X019054Y043776D01*
X011692Y043776D01*
X011692Y033028D01*
X019054Y033028D01*
X024477Y041562D02*
X024477Y041641D01*
X024989Y041641D01*
X024989Y041562D01*
X024477Y041562D01*
X024477Y041601D02*
X024989Y041601D01*
X024477Y041641D02*
X024477Y042664D01*
X024989Y042664D01*
X025540Y042664D02*
X026052Y042664D01*
X026052Y041641D01*
X026052Y041562D01*
X025540Y041562D01*
X025540Y041641D01*
X026052Y041641D01*
X026052Y041601D02*
X025540Y041601D01*
X035452Y029652D02*
X035452Y026896D01*
X038207Y026896D01*
X038207Y029652D01*
X035452Y029652D01*
X037712Y029274D02*
X037714Y029295D01*
X037720Y029315D01*
X037729Y029335D01*
X037741Y029352D01*
X037756Y029366D01*
X037774Y029378D01*
X037794Y029386D01*
X037814Y029391D01*
X037835Y029392D01*
X037856Y029389D01*
X037876Y029383D01*
X037895Y029372D01*
X037912Y029359D01*
X037925Y029343D01*
X037936Y029325D01*
X037944Y029305D01*
X037948Y029285D01*
X037948Y029263D01*
X037944Y029243D01*
X037936Y029223D01*
X037925Y029205D01*
X037912Y029189D01*
X037895Y029176D01*
X037876Y029165D01*
X037856Y029159D01*
X037835Y029156D01*
X037814Y029157D01*
X037794Y029162D01*
X037774Y029170D01*
X037756Y029182D01*
X037741Y029196D01*
X037729Y029213D01*
X037720Y029233D01*
X037714Y029253D01*
X037712Y029274D01*
X019914Y019499D02*
X019914Y019049D01*
X019989Y019274D02*
X019689Y019274D01*
X019914Y019499D01*
X019529Y019424D02*
X019454Y019499D01*
X019303Y019499D01*
X019228Y019424D01*
X019228Y019124D01*
X019303Y019049D01*
X019454Y019049D01*
X019529Y019124D01*
X019072Y019049D02*
X018921Y019049D01*
X018997Y019049D02*
X018997Y019499D01*
X019072Y019499D02*
X018921Y019499D01*
X018999Y023132D02*
X018999Y023252D01*
X019119Y023252D01*
X019119Y023132D01*
X018999Y023132D01*
X019368Y008292D02*
X019443Y008292D01*
X019518Y008217D01*
X019593Y008292D01*
X019668Y008292D01*
X019743Y008217D01*
X019743Y008067D01*
X019668Y007992D01*
X019668Y007832D02*
X019743Y007757D01*
X019743Y007607D01*
X019668Y007532D01*
X019368Y007532D01*
X019293Y007607D01*
X019293Y007757D01*
X019368Y007832D01*
X019368Y007992D02*
X019293Y008067D01*
X019293Y008217D01*
X019368Y008292D01*
X019518Y008217D02*
X019518Y008142D01*
X019743Y007375D02*
X019743Y007225D01*
X019743Y007300D02*
X019293Y007300D01*
X019293Y007225D02*
X019293Y007375D01*
X015166Y007375D02*
X015166Y007225D01*
X015166Y007300D02*
X014716Y007300D01*
X014716Y007225D02*
X014716Y007375D01*
X014791Y007532D02*
X015091Y007532D01*
X015166Y007607D01*
X015166Y007757D01*
X015091Y007832D01*
X015166Y007992D02*
X014866Y008292D01*
X014791Y008292D01*
X014716Y008217D01*
X014716Y008067D01*
X014791Y007992D01*
X014791Y007832D02*
X014716Y007757D01*
X014716Y007607D01*
X014791Y007532D01*
X015166Y007992D02*
X015166Y008292D01*
X023807Y007580D02*
X023807Y007279D01*
X024032Y007279D01*
X023957Y007429D01*
X023957Y007505D01*
X024032Y007580D01*
X024182Y007580D01*
X024257Y007505D01*
X024257Y007354D01*
X024182Y007279D01*
X024182Y007119D02*
X024257Y007044D01*
X024257Y006894D01*
X024182Y006819D01*
X023882Y006819D01*
X023807Y006894D01*
X023807Y007044D01*
X023882Y007119D01*
X023807Y006662D02*
X023807Y006512D01*
X023807Y006587D02*
X024257Y006587D01*
X024257Y006512D02*
X024257Y006662D01*
X028669Y004781D02*
X028669Y004706D01*
X028745Y004631D01*
X028895Y004631D01*
X028970Y004556D01*
X028970Y004481D01*
X028895Y004406D01*
X028745Y004406D01*
X028669Y004481D01*
X028669Y004781D02*
X028745Y004856D01*
X028895Y004856D01*
X028970Y004781D01*
X029130Y004706D02*
X029280Y004856D01*
X029280Y004406D01*
X029130Y004406D02*
X029430Y004406D01*
D20*
X027676Y041351D03*
X021475Y042019D03*
D21*
X013631Y025893D03*
X011544Y025327D03*
X016013Y025292D03*
X018581Y025095D03*
D22*
X019113Y026060D03*
X016948Y026060D03*
X014841Y026424D03*
X014822Y027054D03*
X012558Y026173D03*
X026347Y018776D03*
X028463Y018727D03*
D23*
X023345Y013412D03*
X019950Y025125D03*
D24*
X026091Y026355D02*
X026095Y026517D01*
X026107Y026679D01*
X026127Y026840D01*
X026155Y027000D01*
X026190Y027159D01*
X026233Y027315D01*
X026284Y027469D01*
X026343Y027621D01*
X026409Y027769D01*
X026481Y027914D01*
X026561Y028055D01*
X026648Y028192D01*
X026742Y028325D01*
X026842Y028453D01*
X026948Y028576D01*
X027060Y028693D01*
X027177Y028805D01*
X027300Y028911D01*
X027428Y029011D01*
X027561Y029105D01*
X027698Y029192D01*
X027839Y029272D01*
X027984Y029344D01*
X028132Y029410D01*
X028284Y029469D01*
X028438Y029520D01*
X028594Y029563D01*
X028753Y029598D01*
X028913Y029626D01*
X029074Y029646D01*
X029236Y029658D01*
X029398Y029662D01*
X029560Y029658D01*
X029722Y029646D01*
X029883Y029626D01*
X030043Y029598D01*
X030202Y029563D01*
X030358Y029520D01*
X030512Y029469D01*
X030664Y029410D01*
X030812Y029344D01*
X030957Y029272D01*
X031098Y029192D01*
X031235Y029105D01*
X031368Y029011D01*
X031496Y028911D01*
X031619Y028805D01*
X031736Y028693D01*
X031848Y028576D01*
X031954Y028453D01*
X032054Y028325D01*
X032148Y028192D01*
X032235Y028055D01*
X032315Y027914D01*
X032387Y027769D01*
X032453Y027621D01*
X032512Y027469D01*
X032563Y027315D01*
X032606Y027159D01*
X032641Y027000D01*
X032669Y026840D01*
X032689Y026679D01*
X032701Y026517D01*
X032705Y026355D01*
X032701Y026193D01*
X032689Y026031D01*
X032669Y025870D01*
X032641Y025710D01*
X032606Y025551D01*
X032563Y025395D01*
X032512Y025241D01*
X032453Y025089D01*
X032387Y024941D01*
X032315Y024796D01*
X032235Y024655D01*
X032148Y024518D01*
X032054Y024385D01*
X031954Y024257D01*
X031848Y024134D01*
X031736Y024017D01*
X031619Y023905D01*
X031496Y023799D01*
X031368Y023699D01*
X031235Y023605D01*
X031098Y023518D01*
X030957Y023438D01*
X030812Y023366D01*
X030664Y023300D01*
X030512Y023241D01*
X030358Y023190D01*
X030202Y023147D01*
X030043Y023112D01*
X029883Y023084D01*
X029722Y023064D01*
X029560Y023052D01*
X029398Y023048D01*
X029236Y023052D01*
X029074Y023064D01*
X028913Y023084D01*
X028753Y023112D01*
X028594Y023147D01*
X028438Y023190D01*
X028284Y023241D01*
X028132Y023300D01*
X027984Y023366D01*
X027839Y023438D01*
X027698Y023518D01*
X027561Y023605D01*
X027428Y023699D01*
X027300Y023799D01*
X027177Y023905D01*
X027060Y024017D01*
X026948Y024134D01*
X026842Y024257D01*
X026742Y024385D01*
X026648Y024518D01*
X026561Y024655D01*
X026481Y024796D01*
X026409Y024941D01*
X026343Y025089D01*
X026284Y025241D01*
X026233Y025395D01*
X026190Y025551D01*
X026155Y025710D01*
X026127Y025870D01*
X026107Y026031D01*
X026095Y026193D01*
X026091Y026355D01*
D25*
X031908Y009672D02*
X031908Y003373D01*
X041357Y003373D01*
X041357Y009672D01*
X031908Y009672D01*
D26*
X036682Y012083D03*
X037076Y012083D03*
D27*
X004433Y008393D03*
X004078Y016296D03*
D28*
X003828Y012571D03*
D29*
X040274Y026562D03*
X040274Y029692D03*
D30*
X040274Y028176D03*
X040274Y028078D03*
D31*
X040019Y028038D03*
X040019Y028215D03*
X040530Y028215D03*
X040530Y028038D03*
D32*
X029251Y021778D02*
X029054Y021778D01*
X029251Y021778D02*
X029251Y021581D01*
X029251Y020007D02*
X029251Y019967D01*
X029093Y019810D01*
X029054Y019810D01*
X027479Y019810D02*
X027282Y019810D01*
X027282Y020007D01*
X027282Y021581D02*
X027282Y021778D01*
X027479Y021778D01*
D33*
X029625Y020204D03*
D34*
X026042Y020794D03*
D35*
X009369Y041857D02*
X008975Y041857D01*
X009366Y041864D02*
X009366Y042251D01*
X009369Y042251D01*
X009369Y043432D02*
X009369Y043826D01*
X006613Y041857D02*
X006219Y041857D01*
X006219Y042251D01*
X006219Y043432D02*
X006219Y043826D01*
M02*
