%
M48
M72
T01C0.0118
T02C0.0157
T03C0.0197
T04C0.0236
T05C0.0240
T06C0.0276
T07C0.0315
T08C0.0320
T09C0.0354
T10C0.0394
T11C0.0400
T12C0.0630
T13C0.0650
T14C0.1181
T15C0.1260
%
T01
X23394Y23747
X24034Y23501
X23493Y22910
X23542Y22270
X24083Y21532
X24231Y20696
X24822Y20154
X25412Y19564
X26298Y19564
X26298Y19957
X26298Y20794
X26298Y21483
X26052Y21483
X26052Y21828
X26298Y21828
X25757Y22566
X25560Y23353
X24822Y23648
X25560Y21188
X27479Y19022
X28217Y18973
X29497Y18826
X30481Y19072
X30875Y19318
X30580Y20105
X30432Y20597
X30481Y21139
X30186Y21631
X29940Y22024
X29989Y22467
X29152Y22910
X28414Y23206
X27774Y22615
X32499Y22369
X33680Y19318
X34074Y19022
X34615Y18776
X35107Y18481
X35747Y19269
X37765Y19269
X38011Y18087
X38700Y17694
X39438Y17891
X32942Y17546
X32696Y7777
X33685Y7507
X33237Y6424
X32696Y6326
X32007Y6178
X33901Y6271
X40078Y34721
X40078Y35263
T02
X30580Y29652
X28759Y30440
X27873Y30686
X27085Y30725
X26259Y30735
X26298Y31326
X25363Y33097
X22410Y33097
X20885Y37556
X19654Y38781
X19620Y39456
X11751Y32643
X16347Y29372
X17745Y28491
X16323Y27423
X13060Y26207
X12450Y25676
X11879Y26207
X11633Y21286
X12765Y19908
X20688Y22615
X21475Y26306
X22499Y27290
X22902Y26749
X25117Y24288
X33385Y21975
X33532Y22517
X33926Y17792
X34467Y17743
X34959Y17152
X35501Y17152
X35501Y17694
X38355Y19662
X38257Y20204
X39339Y19564
X40422Y20696
X39881Y21188
X39881Y22123
X40422Y23501
X38306Y22320
X41062Y21089
X40422Y18186
X41062Y18087
X39881Y15676
X39339Y13658
X39093Y11345
X35993Y11936
X36239Y13609
X31761Y4849
X14241Y7507
X14389Y10952
T03
X13011Y11739
X17091Y7999
X19261Y6769
X21180Y8639
X22164Y8540
X22656Y8245
X23198Y7802
X24034Y6719
X24133Y9180
X23739Y10410
X24034Y10853
X22668Y10853
X22168Y10410
X20540Y10509
X20048Y9623
X25658Y9180
X26298Y9377
X27725Y11394
X30383Y11394
X31269Y9672
X32538Y9278
X33326Y9278
X34113Y9278
X34295Y8663
X34900Y9278
X35688Y9278
X36475Y9278
X37263Y9278
X38050Y9278
X36426Y8132
X36190Y6473
X35845Y5144
X35688Y3767
X36475Y3767
X37263Y3767
X38050Y3767
X34900Y3767
X34113Y3767
X33326Y3767
X32538Y3767
X31465Y2930
X26938Y2093
X19064Y2044
X12961Y6227
X19900Y17054
X19211Y18235
X21032Y18580
X23444Y17202
X23542Y18826
X26938Y21828
X27971Y21089
X27971Y20499
X28562Y20499
X28562Y21089
X29251Y21877
X32204Y21089
X32942Y21040
X32253Y23747
X29743Y29652
X29743Y30440
X27873Y31670
X27824Y34770
X28611Y34770
X26160Y35302
X29841Y38560
X28286Y39682
X27331Y41020
X26593Y41365
X26160Y40922
X25688Y40479
X26593Y42005
X26593Y42595
X26150Y43087
X27676Y42841
X28709Y42841
X31908Y41316
X24576Y43087
X24133Y42595
X24133Y41857
X24083Y41217
X24083Y40528
X22223Y41759
X21219Y42487
X22115Y37034
X18089Y33924
X17184Y34278
X16711Y33806
X17735Y32408
X17213Y30361
X18316Y29583
X19231Y28609
X19704Y27979
X20393Y25666
X21593Y24672
X23148Y25765
X24034Y28471
X24408Y29111
X22853Y29062
X22755Y30853
X22902Y31444
X22066Y30863
X21446Y30784
X21908Y32625
X24546Y31168
X17568Y35459
X14605Y34190
X14133Y32192
X14561Y28063
X13557Y28033
X14069Y26586
X15215Y25578
X15653Y26399
X17499Y25479
X18877Y23648
X18916Y22861
X32843Y30046
X38454Y26650
X40668Y26995
X40865Y29652
X38306Y23501
X39438Y16660
X35550Y14731
X33778Y13019
X32991Y11394
X37420Y12723
X32991Y16316
X39684Y7507
X14625Y38422
X11436Y39357
X11436Y40194
X11436Y40932
X8532Y41552
T04
X11977Y34278
X15422Y30686
X19999Y30784
X26446Y38757
X30511Y40469
X35993Y34918
X37174Y34918
X38207Y32753
X39192Y33245
X39979Y33245
X39979Y31769
X39192Y31522
X37715Y31276
X37765Y29209
X37223Y27881
X36485Y27881
X35993Y25568
X35304Y25568
X33188Y26207
X35993Y23452
X36387Y22320
X36682Y21778
X36387Y21237
X36731Y20696
X35156Y21286
X34763Y21778
X35599Y22320
X34910Y20696
X37519Y15676
X38011Y13314
X34024Y10755
X36977Y7162
X29694Y13609
X29644Y15676
X31908Y15135
X25166Y9918
X24231Y13068
X23247Y14692
X20393Y14790
X16751Y13707
X17144Y10263
X17587Y8540
X18129Y8196
X18621Y7802
X19359Y9229
X16603Y8491
X34467Y30981
X32646Y32064
X31957Y32064
X31957Y33146
X32646Y33146
X34270Y33146
T05
X33566Y24190
X35566Y24190
T06
X26314Y16660
X24314Y16660
T07
X22739Y21092
X21739Y21092
X20739Y21092
X19739Y21092
X12975Y18652
X12975Y17652
X12975Y16652
X12975Y15652
X7646Y25243
X5678Y25243
X3631Y36818
X9694Y36818
X41786Y23652
X41786Y22652
X41786Y21652
X41786Y20652
X41786Y19652
X41786Y18652
X41786Y17652
X41786Y16652
X41786Y15652
X41786Y14652
X41786Y13652
X41786Y12652
X41786Y11652
X41786Y10652
T08
X32408Y14249
X31408Y14249
X11008Y14962
X11008Y17635
X11008Y22635
X4593Y16296
X3593Y16296
X3828Y13056
X3828Y12056
X3948Y8393
X4948Y8393
X10648Y7546
X11008Y9962
X10648Y2546
T09
X34981Y37274
X35981Y37274
X36981Y37274
X37981Y37274
X37481Y38274
X36481Y38274
X35481Y38274
X38481Y38274
T10
X38221Y42105
X39221Y42704
X35241Y42704
X34241Y42105
X10188Y22654
X6188Y22654
X6188Y17654
X6188Y14879
X10188Y14879
X10188Y17654
X10188Y9879
X11369Y7300
X7369Y7300
X6188Y9879
X7369Y2300
X11369Y2300
T11
X15046Y3621
X16046Y3621
X17046Y3621
X17046Y4621
X16046Y4621
X15046Y4621
X18046Y4621
X19046Y4621
X19046Y3621
X18046Y3621
X23265Y3621
X24265Y3621
X25265Y3621
X26265Y3621
X27265Y3621
X27265Y4621
X26265Y4621
X25265Y4621
X24265Y4621
X23265Y4621
X28364Y3771
X28364Y1991
X30924Y1991
X31942Y2339
X32942Y2339
X33942Y2339
X35182Y2339
X36182Y2339
X37182Y2339
X38182Y2339
X30924Y3771
X31020Y4973
X30020Y4973
X30020Y5973
X30020Y6973
X30020Y7973
X31020Y7973
X31020Y6973
X31020Y5973
X30717Y25036
X31269Y26355
X30717Y27674
X28080Y27674
X27528Y26355
X28080Y25036
X31294Y34278
X32294Y34278
X33294Y34278
X33294Y35459
X32294Y35459
X31294Y35459
X34294Y35459
X34294Y34278
T12
X33631Y39574
X39831Y39574
T13
X4300Y17644
X4300Y13904
X4300Y10164
X4300Y6424
T14
X4251Y2290
X29398Y26355
X40865Y42546
X4251Y42546
X40865Y2290
T15
X39849Y9924
X39849Y24381
X38981Y40774
X34481Y40774
X13369Y24381
X13369Y9924
M30
