G75*
G70*
%OFA0B0*%
%FSLAX24Y24*%
%IPPOS*%
%LPD*%
%AMOC8*
5,1,8,0,0,1.08239X$1,22.5*
%
%ADD10R,0.0394X0.0433*%
%ADD11R,0.0433X0.0394*%
%ADD12R,0.0354X0.0276*%
%ADD13R,0.0276X0.0354*%
%ADD14R,0.0630X0.0512*%
%ADD15R,0.1378X0.0630*%
%ADD16C,0.0594*%
%ADD17C,0.0945*%
%ADD18C,0.0554*%
%ADD19C,0.0236*%
%ADD20R,0.0260X0.0800*%
%ADD21R,0.0800X0.0260*%
%ADD22R,0.0472X0.0472*%
%ADD23C,0.0440*%
%ADD24R,0.0110X0.0580*%
%ADD25R,0.0580X0.0110*%
%ADD26R,0.0118X0.0591*%
%ADD27R,0.0591X0.0118*%
%ADD28C,0.0650*%
%ADD29C,0.0600*%
%ADD30OC8,0.0600*%
%ADD31R,0.0591X0.0512*%
%ADD32C,0.0740*%
%ADD33C,0.0660*%
%ADD34C,0.0397*%
%ADD35R,0.0169X0.0110*%
%ADD36R,0.0335X0.0866*%
%ADD37R,0.0394X0.0413*%
%ADD38R,0.0295X0.1181*%
%ADD39R,0.1181X0.1969*%
%ADD40C,0.0760*%
%ADD41OC8,0.0520*%
%ADD42C,0.0974*%
%ADD43C,0.0515*%
%ADD44R,0.0515X0.0515*%
%ADD45R,0.0453X0.0173*%
%ADD46R,0.0453X0.0248*%
%ADD47C,0.0118*%
%ADD48R,0.1280X0.1280*%
%ADD49R,0.0472X0.0394*%
%ADD50R,0.0138X0.0098*%
%ADD51R,0.0098X0.0138*%
%ADD52R,0.0138X0.0394*%
%ADD53R,0.0157X0.0551*%
%ADD54R,0.0709X0.0591*%
%ADD55R,0.0591X0.0276*%
%ADD56C,0.0515*%
%ADD57R,0.1575X0.1575*%
%ADD58OC8,0.0700*%
%ADD59OC8,0.0396*%
%ADD60C,0.0357*%
%ADD61C,0.0396*%
%ADD62C,0.0317*%
%ADD63OC8,0.0317*%
%ADD64OC8,0.0278*%
%ADD65OC8,0.0357*%
%ADD66C,0.0278*%
D10*
X017538Y012979D03*
X017538Y013648D03*
X018030Y019475D03*
X018030Y020144D03*
X021387Y019810D03*
X022056Y019810D03*
X019950Y024790D03*
X019950Y025459D03*
X023345Y013747D03*
X023345Y013078D03*
X024231Y013078D03*
X024231Y013747D03*
X031072Y015144D03*
X031072Y015814D03*
X031810Y015814D03*
X031810Y015144D03*
X035550Y014731D03*
X035550Y014062D03*
X037519Y015686D03*
X037519Y016355D03*
X033188Y025430D03*
X033188Y026099D03*
X033887Y026060D03*
X034556Y026060D03*
X038857Y026060D03*
X039526Y026060D03*
X037715Y031286D03*
X037715Y031956D03*
X037420Y032763D03*
X037420Y033432D03*
X036288Y031956D03*
X036288Y031286D03*
X035845Y032763D03*
X035845Y033432D03*
X035058Y033432D03*
X035058Y032763D03*
X034467Y031660D03*
X034467Y030991D03*
X033483Y032467D03*
X033483Y033137D03*
X020845Y041080D03*
X020176Y041080D03*
D11*
X022637Y041089D03*
X022637Y041759D03*
X033444Y030046D03*
X034113Y030046D03*
X033769Y029259D03*
X033099Y029259D03*
X032952Y028471D03*
X033621Y028471D03*
X033769Y027684D03*
X033444Y026896D03*
X034113Y026896D03*
X033099Y027684D03*
X035314Y025568D03*
X035983Y025568D03*
X032932Y021040D03*
X032263Y021040D03*
X033050Y014446D03*
X033719Y014446D03*
X033916Y013609D03*
X033247Y013609D03*
X030767Y014446D03*
X030097Y014446D03*
X033345Y010755D03*
X034015Y010755D03*
X020629Y024042D03*
X019959Y024042D03*
X020599Y026355D03*
X021269Y026355D03*
X025028Y028668D03*
X025698Y028668D03*
X034270Y032467D03*
X034270Y033137D03*
X035993Y034928D03*
X035993Y035597D03*
X037174Y035597D03*
X037174Y034928D03*
X036633Y033432D03*
X036633Y032763D03*
X038207Y032763D03*
X038207Y033432D03*
X039192Y033235D03*
X039192Y032566D03*
X039979Y032566D03*
X039979Y033235D03*
D12*
X037814Y020263D03*
X037814Y019751D03*
X036239Y014259D03*
X036239Y013747D03*
X018581Y024839D03*
X018581Y025351D03*
X017863Y025391D03*
X017863Y024879D03*
X017115Y024918D03*
X017115Y025430D03*
X016013Y025548D03*
X015540Y025548D03*
X015540Y025036D03*
X016013Y025036D03*
X014871Y025036D03*
X014871Y025548D03*
X013631Y025637D03*
X013631Y026148D03*
X012164Y025568D03*
X012164Y025056D03*
X011544Y025071D03*
X011544Y025582D03*
D13*
X012302Y026173D03*
X012774Y025627D03*
X012814Y026173D03*
X013286Y025627D03*
X014585Y026424D03*
X015097Y026424D03*
X015078Y027054D03*
X014566Y027054D03*
X016692Y026060D03*
X017204Y026060D03*
X018857Y026060D03*
X019369Y026060D03*
X026436Y019269D03*
X026603Y018776D03*
X026091Y018776D03*
X026948Y019269D03*
X028207Y018727D03*
X028719Y018727D03*
X028946Y019219D03*
X029457Y019219D03*
D14*
X016751Y013707D03*
X016751Y012920D03*
D15*
X038769Y034967D03*
X040894Y034967D03*
X032184Y041267D03*
X030058Y041267D03*
D16*
X034241Y042105D03*
X035241Y042704D03*
X038221Y042105D03*
X039221Y042704D03*
D17*
X039831Y039574D03*
X033631Y039574D03*
D18*
X035481Y038274D03*
X036481Y038274D03*
X037481Y038274D03*
X038481Y038274D03*
X037981Y037274D03*
X036981Y037274D03*
X035981Y037274D03*
X034981Y037274D03*
D19*
X030077Y037182D02*
X029527Y037182D01*
X029527Y037576D02*
X030077Y037576D01*
X030077Y037969D02*
X029527Y037969D01*
X029527Y036788D02*
X030077Y036788D01*
X030077Y036394D02*
X029527Y036394D01*
X029527Y036001D02*
X030077Y036001D01*
X030077Y035607D02*
X029527Y035607D01*
X029527Y035213D02*
X030077Y035213D01*
X030077Y034820D02*
X029527Y034820D01*
X029527Y034426D02*
X030077Y034426D01*
X030077Y034032D02*
X029527Y034032D01*
X029527Y033639D02*
X030077Y033639D01*
X030077Y033245D02*
X029527Y033245D01*
X029527Y032851D02*
X030077Y032851D01*
X030077Y032457D02*
X029527Y032457D01*
X029527Y032064D02*
X030077Y032064D01*
X030077Y031670D02*
X029527Y031670D01*
X028070Y030213D02*
X028070Y029663D01*
X027676Y029663D02*
X027676Y030213D01*
X027282Y030213D02*
X027282Y029663D01*
X026889Y029663D02*
X026889Y030213D01*
X026495Y030213D02*
X026495Y029663D01*
X026101Y029663D02*
X026101Y030213D01*
X025707Y030213D02*
X025707Y029663D01*
X025314Y029663D02*
X025314Y030213D01*
X024920Y030213D02*
X024920Y029663D01*
X024526Y029663D02*
X024526Y030213D01*
X024133Y030213D02*
X024133Y029663D01*
X023739Y029663D02*
X023739Y030213D01*
X023345Y030213D02*
X023345Y029663D01*
X022952Y029663D02*
X022952Y030213D01*
X022558Y030213D02*
X022558Y029663D01*
X022164Y029663D02*
X022164Y030213D01*
X021770Y030213D02*
X021770Y029663D01*
X020313Y031670D02*
X019763Y031670D01*
X019763Y032064D02*
X020313Y032064D01*
X020313Y032457D02*
X019763Y032457D01*
X019763Y032851D02*
X020313Y032851D01*
X020313Y033245D02*
X019763Y033245D01*
X019763Y033639D02*
X020313Y033639D01*
X020313Y034032D02*
X019763Y034032D01*
X019763Y034426D02*
X020313Y034426D01*
X020313Y034820D02*
X019763Y034820D01*
X019763Y035213D02*
X020313Y035213D01*
X020313Y035607D02*
X019763Y035607D01*
X019763Y036001D02*
X020313Y036001D01*
X020313Y036394D02*
X019763Y036394D01*
X019763Y036788D02*
X020313Y036788D01*
X020313Y037182D02*
X019763Y037182D01*
X019763Y037576D02*
X020313Y037576D01*
X020313Y037969D02*
X019763Y037969D01*
X021770Y039427D02*
X021770Y039977D01*
X022164Y039977D02*
X022164Y039427D01*
X022558Y039427D02*
X022558Y039977D01*
X022952Y039977D02*
X022952Y039427D01*
X023345Y039427D02*
X023345Y039977D01*
X023739Y039977D02*
X023739Y039427D01*
X024133Y039427D02*
X024133Y039977D01*
X024526Y039977D02*
X024526Y039427D01*
X024920Y039427D02*
X024920Y039977D01*
X025314Y039977D02*
X025314Y039427D01*
X025707Y039427D02*
X025707Y039977D01*
X026101Y039977D02*
X026101Y039427D01*
X026495Y039427D02*
X026495Y039977D01*
X026889Y039977D02*
X026889Y039427D01*
X027282Y039427D02*
X027282Y039977D01*
X027676Y039977D02*
X027676Y039427D01*
X028070Y039427D02*
X028070Y039977D01*
D20*
X023668Y009160D03*
X023168Y009160D03*
X022668Y009160D03*
X022168Y009160D03*
X021668Y009160D03*
X021168Y009160D03*
X020668Y009160D03*
X020168Y009160D03*
X019091Y009160D03*
X018591Y009160D03*
X018091Y009160D03*
X017591Y009160D03*
X017091Y009160D03*
X016591Y009160D03*
X016091Y009160D03*
X015591Y009160D03*
X015591Y006740D03*
X016091Y006740D03*
X016591Y006740D03*
X017091Y006740D03*
X017591Y006740D03*
X018091Y006740D03*
X018591Y006740D03*
X019091Y006740D03*
X020168Y006740D03*
X020668Y006740D03*
X021168Y006740D03*
X021668Y006740D03*
X022168Y006740D03*
X022668Y006740D03*
X023168Y006740D03*
X023668Y006740D03*
X024682Y006027D03*
X025182Y006027D03*
X025682Y006027D03*
X026182Y006027D03*
X026682Y006027D03*
X027182Y006027D03*
X027682Y006027D03*
X028182Y006027D03*
X028182Y008447D03*
X027682Y008447D03*
X027182Y008447D03*
X026682Y008447D03*
X026182Y008447D03*
X025682Y008447D03*
X025182Y008447D03*
X024682Y008447D03*
D21*
X022373Y013221D03*
X022373Y013721D03*
X022373Y014221D03*
X022373Y014721D03*
X022373Y015221D03*
X022373Y015721D03*
X022373Y016221D03*
X022373Y016721D03*
X022373Y017221D03*
X022373Y017721D03*
X022373Y018221D03*
X022373Y018721D03*
X018413Y018721D03*
X018413Y018221D03*
X018413Y017721D03*
X018413Y017221D03*
X018413Y016721D03*
X018413Y016221D03*
X018413Y015721D03*
X018413Y015221D03*
X018413Y014721D03*
X018413Y014221D03*
X018413Y013721D03*
X018413Y013221D03*
D22*
X027676Y041050D03*
X027676Y041877D03*
X021475Y041493D03*
X021475Y042320D03*
D23*
X033566Y024410D02*
X033566Y023970D01*
X035566Y023970D02*
X035566Y024410D01*
D24*
X035547Y020051D03*
X035357Y020051D03*
X035157Y020051D03*
X034957Y020051D03*
X034767Y020051D03*
X034567Y020051D03*
X034367Y020051D03*
X034167Y020051D03*
X033977Y020051D03*
X033777Y020051D03*
X033577Y020051D03*
X033387Y020051D03*
X033187Y020051D03*
X032987Y020051D03*
X035747Y020051D03*
X035947Y020051D03*
X035947Y015631D03*
X035747Y015631D03*
X035547Y015631D03*
X035357Y015631D03*
X035157Y015631D03*
X034957Y015631D03*
X034767Y015631D03*
X034567Y015631D03*
X034367Y015631D03*
X034167Y015631D03*
X033977Y015631D03*
X033777Y015631D03*
X033577Y015631D03*
X033387Y015631D03*
X033187Y015631D03*
X032987Y015631D03*
D25*
X032257Y016361D03*
X032257Y016561D03*
X032257Y016761D03*
X032257Y016951D03*
X032257Y017151D03*
X032257Y017351D03*
X032257Y017541D03*
X032257Y017741D03*
X032257Y017941D03*
X032257Y018141D03*
X032257Y018331D03*
X032257Y018531D03*
X032257Y018731D03*
X032257Y018921D03*
X032257Y019121D03*
X032257Y019321D03*
X036677Y019321D03*
X036677Y019121D03*
X036677Y018921D03*
X036677Y018731D03*
X036677Y018531D03*
X036677Y018331D03*
X036677Y018141D03*
X036677Y017941D03*
X036677Y017741D03*
X036677Y017541D03*
X036677Y017351D03*
X036677Y017151D03*
X036677Y016951D03*
X036677Y016761D03*
X036677Y016561D03*
X036677Y016361D03*
D26*
X036731Y026522D03*
X036534Y026522D03*
X036337Y026522D03*
X036141Y026522D03*
X035944Y026522D03*
X035747Y026522D03*
X036928Y026522D03*
X037125Y026522D03*
X037322Y026522D03*
X037519Y026522D03*
X037715Y026522D03*
X037912Y026522D03*
X037912Y030026D03*
X037715Y030026D03*
X037519Y030026D03*
X037322Y030026D03*
X037125Y030026D03*
X036928Y030026D03*
X036731Y030026D03*
X036534Y030026D03*
X036337Y030026D03*
X036141Y030026D03*
X035944Y030026D03*
X035747Y030026D03*
D27*
X035078Y029357D03*
X035078Y029160D03*
X035078Y028963D03*
X035078Y028767D03*
X035078Y028570D03*
X035078Y028373D03*
X035078Y028176D03*
X035078Y027979D03*
X035078Y027782D03*
X035078Y027585D03*
X035078Y027389D03*
X035078Y027192D03*
X038581Y027192D03*
X038581Y027389D03*
X038581Y027585D03*
X038581Y027782D03*
X038581Y027979D03*
X038581Y028176D03*
X038581Y028373D03*
X038581Y028570D03*
X038581Y028767D03*
X038581Y028963D03*
X038581Y029160D03*
X038581Y029357D03*
D28*
X026314Y016660D03*
X024314Y016660D03*
D29*
X028080Y025036D03*
X027528Y026355D03*
X028080Y027674D03*
X030717Y027674D03*
X031269Y026355D03*
X030717Y025036D03*
X031294Y034278D03*
X032294Y034278D03*
X033294Y034278D03*
X033294Y035459D03*
X032294Y035459D03*
X031294Y035459D03*
X034294Y035459D03*
X034294Y034278D03*
X033942Y002339D03*
X032942Y002339D03*
X031942Y002339D03*
X035182Y002339D03*
X036182Y002339D03*
X037182Y002339D03*
X038182Y002339D03*
D30*
X031020Y004973D03*
X030020Y004973D03*
X030020Y005973D03*
X030020Y006973D03*
X030020Y007973D03*
X031020Y007973D03*
X031020Y006973D03*
X031020Y005973D03*
X027265Y004621D03*
X026265Y004621D03*
X025265Y004621D03*
X025265Y003621D03*
X026265Y003621D03*
X027265Y003621D03*
X024265Y003621D03*
X023265Y003621D03*
X023265Y004621D03*
X024265Y004621D03*
X019046Y004621D03*
X018046Y004621D03*
X017046Y004621D03*
X016046Y004621D03*
X015046Y004621D03*
X015046Y003621D03*
X016046Y003621D03*
X017046Y003621D03*
X018046Y003621D03*
X019046Y003621D03*
D31*
X035402Y031089D03*
X035402Y031759D03*
X031515Y038816D03*
X031515Y039485D03*
D32*
X030924Y003771D03*
X030924Y001991D03*
X028364Y001991D03*
X028364Y003771D03*
D33*
X031408Y014249D03*
X032408Y014249D03*
D34*
X032538Y009675D02*
X032538Y009278D01*
X033326Y009278D02*
X033326Y009675D01*
X034113Y009675D02*
X034113Y009278D01*
X034900Y009278D02*
X034900Y009675D01*
X035688Y009675D02*
X035688Y009278D01*
X036475Y009278D02*
X036475Y009675D01*
X037263Y009675D02*
X037263Y009278D01*
X038050Y009278D02*
X038050Y009675D01*
X038050Y003767D02*
X038050Y003370D01*
X037263Y003370D02*
X037263Y003767D01*
X036475Y003767D02*
X036475Y003370D01*
X035688Y003370D02*
X035688Y003767D01*
X034900Y003767D02*
X034900Y003370D01*
X034113Y003370D02*
X034113Y003767D01*
X033326Y003767D02*
X033326Y003370D01*
X032538Y003370D02*
X032538Y003767D01*
D35*
X036682Y011983D03*
X036682Y012184D03*
X037076Y012184D03*
X037076Y011983D03*
D36*
X025215Y022418D03*
X024133Y022418D03*
X024723Y042152D03*
X025806Y042152D03*
D37*
X025265Y041552D03*
X025265Y042753D03*
X024674Y023019D03*
X024674Y021818D03*
D38*
X016621Y032918D03*
X016121Y032918D03*
X015621Y032918D03*
X015121Y032918D03*
X014621Y032918D03*
X014121Y032918D03*
D39*
X011341Y042379D03*
X019393Y042379D03*
D40*
X010188Y022654D03*
X006188Y022654D03*
X006188Y017654D03*
X006188Y014879D03*
X010188Y014879D03*
X010188Y017654D03*
X010188Y009879D03*
X011369Y007300D03*
X007369Y007300D03*
X006188Y009879D03*
X007369Y002300D03*
X011369Y002300D03*
D41*
X010648Y002546D03*
X010648Y007546D03*
X011008Y009962D03*
X011008Y014962D03*
X011008Y017635D03*
X011008Y022635D03*
X004593Y016296D03*
X003593Y016296D03*
X003828Y013056D03*
X003828Y012056D03*
X003948Y008393D03*
X004948Y008393D03*
D42*
X004787Y006424D02*
X003813Y006424D01*
X003813Y010164D02*
X004787Y010164D01*
X004787Y013904D02*
X003813Y013904D01*
X003813Y017644D02*
X004787Y017644D01*
D43*
X012975Y017652D03*
X012975Y016652D03*
X012975Y015652D03*
X012975Y018652D03*
X041786Y018652D03*
X041786Y019652D03*
X041786Y020652D03*
X041786Y021652D03*
X041786Y022652D03*
X041786Y023652D03*
X041786Y017652D03*
X041786Y016652D03*
X041786Y015652D03*
X041786Y014652D03*
X041786Y013652D03*
X041786Y012652D03*
X041786Y010652D03*
D44*
X041786Y011652D03*
D45*
X040658Y027133D03*
X040658Y027448D03*
X039891Y027448D03*
X039891Y027133D03*
X039891Y028806D03*
X039891Y029121D03*
X040658Y029121D03*
X040658Y028806D03*
D46*
X040658Y028454D03*
X040658Y027800D03*
X039891Y027800D03*
X039891Y028454D03*
X039891Y029473D03*
X040658Y029473D03*
X040658Y026780D03*
X039891Y026780D03*
D47*
X029339Y021385D02*
X029045Y021385D01*
X029045Y021188D02*
X029339Y021188D01*
X029339Y020991D02*
X029045Y020991D01*
X029045Y020794D02*
X029339Y020794D01*
X029339Y020597D02*
X029045Y020597D01*
X029045Y020400D02*
X029339Y020400D01*
X029339Y020204D02*
X029045Y020204D01*
X028857Y020016D02*
X028857Y019722D01*
X028660Y019722D02*
X028660Y020016D01*
X028463Y020016D02*
X028463Y019722D01*
X028267Y019722D02*
X028267Y020016D01*
X028070Y020016D02*
X028070Y019722D01*
X027873Y019722D02*
X027873Y020016D01*
X027676Y020016D02*
X027676Y019722D01*
X027488Y020204D02*
X027194Y020204D01*
X027194Y020400D02*
X027488Y020400D01*
X027488Y020597D02*
X027194Y020597D01*
X027194Y020794D02*
X027488Y020794D01*
X027488Y020991D02*
X027194Y020991D01*
X027194Y021188D02*
X027488Y021188D01*
X027488Y021385D02*
X027194Y021385D01*
X027676Y021572D02*
X027676Y021866D01*
X027873Y021866D02*
X027873Y021572D01*
X028070Y021572D02*
X028070Y021866D01*
X028267Y021866D02*
X028267Y021572D01*
X028463Y021572D02*
X028463Y021866D01*
X028660Y021866D02*
X028660Y021572D01*
X028857Y021572D02*
X028857Y021866D01*
D48*
X028267Y020794D03*
D49*
X027272Y022772D03*
X026603Y022772D03*
X026603Y023442D03*
X027272Y023442D03*
D50*
X027528Y022418D03*
X027528Y022221D03*
D51*
X027873Y022467D03*
X028070Y022467D03*
D52*
X026554Y021148D03*
X026298Y021148D03*
X026042Y021148D03*
X026042Y020440D03*
X026298Y020440D03*
X026554Y020440D03*
D53*
X008306Y041975D03*
X008050Y041975D03*
X007794Y041975D03*
X007538Y041975D03*
X007282Y041975D03*
D54*
X006344Y043038D03*
X009244Y043038D03*
D55*
X007794Y043038D03*
D56*
X009694Y037075D02*
X009694Y036560D01*
X003631Y036560D02*
X003631Y037075D01*
X005678Y025500D02*
X005678Y024985D01*
X007646Y024985D02*
X007646Y025500D01*
D57*
X011810Y027438D03*
X011810Y031769D03*
X017715Y031769D03*
X017715Y027438D03*
D58*
X019739Y021092D03*
X020739Y021092D03*
X021739Y021092D03*
X022739Y021092D03*
D59*
X023247Y014692D03*
X024231Y013068D03*
X025166Y009918D03*
X029694Y013609D03*
X029644Y015676D03*
X031908Y015135D03*
X034024Y010755D03*
X038011Y013314D03*
X037519Y015676D03*
X036731Y020696D03*
X036387Y021237D03*
X036682Y021778D03*
X036387Y022320D03*
X035599Y022320D03*
X034763Y021778D03*
X035156Y021286D03*
X034910Y020696D03*
X035993Y023452D03*
X035993Y025568D03*
X035304Y025568D03*
X033188Y026207D03*
X036485Y027881D03*
X037223Y027881D03*
X037765Y029209D03*
X037715Y031276D03*
X039192Y031522D03*
X039979Y031769D03*
X039979Y033245D03*
X039192Y033245D03*
X038207Y032753D03*
X037174Y034918D03*
X035993Y034918D03*
X034270Y033146D03*
X032646Y033146D03*
X031957Y033146D03*
X031957Y032064D03*
X032646Y032064D03*
X034467Y030981D03*
X026446Y038757D03*
X030511Y040469D03*
X020393Y014790D03*
X016751Y013707D03*
X017144Y010263D03*
X017587Y008540D03*
X018129Y008196D03*
X018621Y007802D03*
X019359Y009229D03*
X016603Y008491D03*
D60*
X017091Y007999D03*
X020048Y009623D03*
X020540Y010509D03*
X022168Y010410D03*
X022164Y008540D03*
X022656Y008245D03*
X023198Y007802D03*
X021180Y008639D03*
X019064Y002044D03*
X026938Y002093D03*
X031465Y002930D03*
X031269Y009672D03*
X030383Y011394D03*
X032991Y011394D03*
X033778Y013019D03*
X035550Y014731D03*
X032991Y016316D03*
X032942Y021040D03*
X032204Y021089D03*
X032253Y023747D03*
X029743Y029652D03*
X029743Y030440D03*
X032843Y030046D03*
X028611Y034770D03*
X027824Y034770D03*
X026160Y035302D03*
X029841Y038560D03*
X028286Y039682D03*
X026593Y041365D03*
X026160Y040922D03*
X025688Y040479D03*
X026593Y042005D03*
X026593Y042595D03*
X026150Y043087D03*
X027676Y042841D03*
X028709Y042841D03*
X031908Y041316D03*
X024576Y043087D03*
X024133Y042595D03*
X024133Y041857D03*
X024083Y041217D03*
X024083Y040528D03*
X022223Y041759D03*
X021219Y042487D03*
X022115Y037034D03*
X018089Y033924D03*
X017184Y034278D03*
X016711Y033806D03*
X017735Y032408D03*
X017213Y030361D03*
X018316Y029583D03*
X019231Y028609D03*
X019704Y027979D03*
X017499Y025479D03*
X015653Y026399D03*
X015215Y025578D03*
X014069Y026586D03*
X013557Y028033D03*
X014561Y028063D03*
X014133Y032192D03*
X014605Y034190D03*
X017568Y035459D03*
X014625Y038422D03*
X011436Y039357D03*
X011436Y040194D03*
X011436Y040932D03*
X008532Y041552D03*
X021908Y032625D03*
X024546Y031168D03*
X024034Y028471D03*
X023148Y025765D03*
X021593Y024672D03*
X018877Y023648D03*
X018916Y022861D03*
X021032Y018580D03*
X023444Y017202D03*
X023542Y018826D03*
X027725Y011394D03*
X038306Y023501D03*
X038454Y026650D03*
X040668Y026995D03*
X040865Y029652D03*
X039438Y016660D03*
X039684Y007507D03*
D61*
X036977Y007162D03*
X019999Y030784D03*
X015422Y030686D03*
X011977Y034278D03*
D62*
X011751Y032643D03*
X016347Y029372D03*
X017745Y028491D03*
X016323Y027423D03*
X013060Y026207D03*
X012450Y025676D03*
X011879Y026207D03*
X011633Y021286D03*
X012765Y019908D03*
X020688Y022615D03*
X025117Y024288D03*
X028759Y030440D03*
X027873Y030686D03*
X027085Y030725D03*
X026259Y030735D03*
X026298Y031326D03*
X025363Y033097D03*
X022410Y033097D03*
X020885Y037556D03*
X019654Y038781D03*
X019620Y039456D03*
X030580Y029652D03*
X038306Y022320D03*
X039881Y022123D03*
X039881Y021188D03*
X040422Y020696D03*
X041062Y021089D03*
X039339Y019564D03*
X038355Y019662D03*
X038257Y020204D03*
X040422Y018186D03*
X041062Y018087D03*
X039881Y015676D03*
X039339Y013658D03*
X039093Y011345D03*
X035993Y011936D03*
X036239Y013609D03*
X040422Y023501D03*
X014389Y010952D03*
X014241Y007507D03*
D63*
X031761Y004849D03*
X034959Y017152D03*
X035501Y017152D03*
X035501Y017694D03*
X034467Y017743D03*
X033926Y017792D03*
X033385Y021975D03*
X033532Y022517D03*
X022902Y026749D03*
X022499Y027290D03*
X021475Y026306D03*
D64*
X027479Y019022D03*
X028217Y018973D03*
X035107Y018481D03*
X035747Y019269D03*
X038011Y018087D03*
X038700Y017694D03*
X039438Y017891D03*
X032696Y007777D03*
X033685Y007507D03*
X033237Y006424D03*
X032696Y006326D03*
X032007Y006178D03*
X033901Y006271D03*
D65*
X035845Y005144D03*
X036190Y006473D03*
X036426Y008132D03*
X034295Y008663D03*
X037420Y012723D03*
X028562Y020499D03*
X028562Y021089D03*
X027971Y021089D03*
X027971Y020499D03*
X026938Y021828D03*
X029251Y021877D03*
X022853Y029062D03*
X024408Y029111D03*
X022755Y030853D03*
X022902Y031444D03*
X022066Y030863D03*
X021446Y030784D03*
X020393Y025666D03*
X019211Y018235D03*
X019900Y017054D03*
X022668Y010853D03*
X023739Y010410D03*
X024034Y010853D03*
X024133Y009180D03*
X025658Y009180D03*
X026298Y009377D03*
X024034Y006719D03*
X019261Y006769D03*
X012961Y006227D03*
X013011Y011739D03*
X027873Y031670D03*
X027331Y041020D03*
D66*
X040078Y035263D03*
X040078Y034721D03*
X029152Y022910D03*
X028414Y023206D03*
X027774Y022615D03*
X026298Y021828D03*
X026052Y021828D03*
X026052Y021483D03*
X026298Y021483D03*
X026298Y020794D03*
X026298Y019957D03*
X026298Y019564D03*
X025412Y019564D03*
X024822Y020154D03*
X024231Y020696D03*
X024083Y021532D03*
X023542Y022270D03*
X023493Y022910D03*
X024034Y023501D03*
X023394Y023747D03*
X024822Y023648D03*
X025560Y023353D03*
X025757Y022566D03*
X025560Y021188D03*
X029497Y018826D03*
X030481Y019072D03*
X030875Y019318D03*
X030580Y020105D03*
X030432Y020597D03*
X030481Y021139D03*
X030186Y021631D03*
X029940Y022024D03*
X029989Y022467D03*
X032499Y022369D03*
X033680Y019318D03*
X034074Y019022D03*
X034615Y018776D03*
X032942Y017546D03*
X037765Y019269D03*
M02*
