G75*
G70*
%OFA0B0*%
%FSLAX24Y24*%
%IPPOS*%
%LPD*%
%AMOC8*
5,1,8,0,0,1.08239X$1,22.5*
%
%ADD10C,0.0030*%
%ADD11C,0.0220*%
%ADD12C,0.0010*%
%ADD13C,0.0080*%
%ADD14R,0.0180X0.0300*%
%ADD15R,0.0300X0.0180*%
%ADD16C,0.0060*%
%ADD17C,0.0050*%
%ADD18C,0.0040*%
%ADD19C,0.0020*%
%ADD20C,0.0160*%
%ADD21R,0.0160X0.0230*%
%ADD22R,0.0240X0.0340*%
%ADD23C,0.0120*%
D10*
X010528Y003509D02*
X010818Y003509D01*
X010818Y003655D01*
X010769Y003703D01*
X010673Y003703D01*
X010624Y003655D01*
X010624Y003509D01*
X010624Y003606D02*
X010528Y003703D01*
X010528Y003901D02*
X010818Y003901D01*
X010818Y003804D02*
X010818Y003998D01*
X010769Y004099D02*
X010576Y004099D01*
X010528Y004147D01*
X010528Y004244D01*
X010576Y004292D01*
X010769Y004292D01*
X010818Y004244D01*
X010818Y004147D01*
X010769Y004099D01*
X010769Y004393D02*
X010818Y004442D01*
X010818Y004539D01*
X010769Y004587D01*
X010721Y004587D01*
X010673Y004539D01*
X010624Y004587D01*
X010576Y004587D01*
X010528Y004539D01*
X010528Y004442D01*
X010576Y004393D01*
X010673Y004490D02*
X010673Y004539D01*
X010887Y011073D02*
X011177Y011073D01*
X011177Y011219D01*
X011129Y011267D01*
X011032Y011267D01*
X010984Y011219D01*
X010984Y011073D01*
X010984Y011170D02*
X010887Y011267D01*
X010887Y011465D02*
X011177Y011465D01*
X011177Y011368D02*
X011177Y011562D01*
X011129Y011663D02*
X010935Y011663D01*
X010887Y011711D01*
X010887Y011808D01*
X010935Y011856D01*
X011129Y011856D01*
X011177Y011808D01*
X011177Y011711D01*
X011129Y011663D01*
X011129Y011957D02*
X011177Y012006D01*
X011177Y012103D01*
X011129Y012151D01*
X011080Y012151D01*
X010887Y011957D01*
X010887Y012151D01*
X010936Y018647D02*
X011226Y018647D01*
X011226Y018792D01*
X011178Y018841D01*
X011081Y018841D01*
X011033Y018792D01*
X011033Y018647D01*
X011033Y018744D02*
X010936Y018841D01*
X010936Y019039D02*
X011226Y019039D01*
X011226Y019135D02*
X011226Y018942D01*
X011178Y019237D02*
X010984Y019237D01*
X010936Y019285D01*
X010936Y019382D01*
X010984Y019430D01*
X011178Y019430D01*
X011226Y019382D01*
X011226Y019285D01*
X011178Y019237D01*
X011130Y019531D02*
X011226Y019628D01*
X010936Y019628D01*
X010936Y019531D02*
X010936Y019725D01*
X006224Y020465D02*
X006030Y020465D01*
X006127Y020465D02*
X006127Y020175D01*
X005929Y020175D02*
X005736Y020175D01*
X005635Y020175D02*
X005635Y020465D01*
X005490Y020465D01*
X005441Y020417D01*
X005441Y020320D01*
X005490Y020272D01*
X005635Y020272D01*
X005538Y020272D02*
X005441Y020175D01*
X005340Y020175D02*
X005340Y020465D01*
X005243Y020369D01*
X005147Y020465D01*
X005147Y020175D01*
X005045Y020127D02*
X004852Y020127D01*
X004751Y020175D02*
X004606Y020175D01*
X004557Y020224D01*
X004557Y020272D01*
X004606Y020320D01*
X004751Y020320D01*
X004751Y020175D02*
X004751Y020465D01*
X004606Y020465D01*
X004557Y020417D01*
X004557Y020369D01*
X004606Y020320D01*
X004456Y020175D02*
X004263Y020175D01*
X004161Y020224D02*
X004113Y020175D01*
X004016Y020175D01*
X003968Y020224D01*
X003968Y020417D01*
X004016Y020465D01*
X004113Y020465D01*
X004161Y020417D01*
X004161Y020224D01*
X003867Y020224D02*
X003818Y020175D01*
X003722Y020175D01*
X003673Y020224D01*
X003572Y020272D02*
X003379Y020465D01*
X003572Y020465D02*
X003572Y020175D01*
X003524Y020320D02*
X003379Y020175D01*
X003673Y020417D02*
X003722Y020465D01*
X003818Y020465D01*
X003867Y020417D01*
X003867Y020224D01*
X004456Y020175D02*
X004456Y020465D01*
X005736Y020465D02*
X005929Y020465D01*
X005929Y020175D01*
X005929Y020320D02*
X005833Y020320D01*
X015253Y028168D02*
X015447Y028168D01*
X015350Y028168D02*
X015350Y028458D01*
X015447Y028362D01*
X015548Y028168D02*
X015741Y028168D01*
X015741Y028458D01*
X018123Y029436D02*
X018123Y029533D01*
X018171Y029581D01*
X018123Y029682D02*
X018123Y029876D01*
X018123Y029779D02*
X018413Y029779D01*
X018317Y029682D01*
X018365Y029581D02*
X018413Y029533D01*
X018413Y029436D01*
X018365Y029388D01*
X018171Y029388D01*
X018123Y029436D01*
X018171Y029977D02*
X018365Y030171D01*
X018171Y030171D01*
X018123Y030122D01*
X018123Y030026D01*
X018171Y029977D01*
X018365Y029977D01*
X018413Y030026D01*
X018413Y030122D01*
X018365Y030171D01*
X018335Y030779D02*
X018335Y030924D01*
X018287Y030972D01*
X018190Y030972D01*
X018142Y030924D01*
X018142Y030779D01*
X018142Y030876D02*
X018045Y030972D01*
X018045Y031074D02*
X018045Y031267D01*
X018045Y031170D02*
X018335Y031170D01*
X018239Y031074D01*
X018287Y031368D02*
X018335Y031417D01*
X018335Y031513D01*
X018287Y031562D01*
X018093Y031368D01*
X018045Y031417D01*
X018045Y031513D01*
X018093Y031562D01*
X018287Y031562D01*
X018287Y031368D02*
X018093Y031368D01*
X018045Y030779D02*
X018335Y030779D01*
X018071Y032167D02*
X017877Y032167D01*
X017829Y032216D01*
X017829Y032312D01*
X017877Y032361D01*
X017877Y032462D02*
X017926Y032462D01*
X017974Y032510D01*
X017974Y032607D01*
X017926Y032656D01*
X017877Y032656D01*
X017829Y032607D01*
X017829Y032510D01*
X017877Y032462D01*
X017974Y032510D02*
X018022Y032462D01*
X018071Y032462D01*
X018119Y032510D01*
X018119Y032607D01*
X018071Y032656D01*
X018022Y032656D01*
X017974Y032607D01*
X017877Y032757D02*
X018071Y032757D01*
X018119Y032805D01*
X018119Y032902D01*
X018071Y032950D01*
X017877Y032757D01*
X017829Y032805D01*
X017829Y032902D01*
X017877Y032950D01*
X018071Y032950D01*
X018616Y032950D02*
X018616Y032757D01*
X018616Y032853D02*
X018906Y032853D01*
X018810Y032757D01*
X018810Y032656D02*
X018761Y032607D01*
X018761Y032510D01*
X018810Y032462D01*
X018858Y032462D01*
X018906Y032510D01*
X018906Y032607D01*
X018858Y032656D01*
X018810Y032656D01*
X018761Y032607D02*
X018713Y032656D01*
X018665Y032656D01*
X018616Y032607D01*
X018616Y032510D01*
X018665Y032462D01*
X018713Y032462D01*
X018761Y032510D01*
X018665Y032361D02*
X018616Y032312D01*
X018616Y032216D01*
X018665Y032167D01*
X018858Y032167D01*
X018906Y032216D01*
X018906Y032312D01*
X018858Y032361D01*
X018119Y032312D02*
X018119Y032216D01*
X018071Y032167D01*
X018119Y032312D02*
X018071Y032361D01*
X016629Y031757D02*
X016339Y031757D01*
X016339Y031660D02*
X016339Y031854D01*
X016532Y031660D02*
X016629Y031757D01*
X016629Y031462D02*
X016339Y031462D01*
X016339Y031365D02*
X016339Y031559D01*
X016532Y031365D02*
X016629Y031462D01*
X016580Y031264D02*
X016629Y031216D01*
X016629Y031119D01*
X016580Y031071D01*
X016387Y031071D01*
X016339Y031119D01*
X016339Y031216D01*
X016387Y031264D01*
X019789Y026423D02*
X019741Y026374D01*
X019741Y026277D01*
X019789Y026229D01*
X019886Y026229D02*
X019935Y026326D01*
X019935Y026374D01*
X019886Y026423D01*
X019789Y026423D01*
X019886Y026229D02*
X020031Y026229D01*
X020031Y026423D01*
X019983Y026128D02*
X020031Y026079D01*
X020031Y025983D01*
X019983Y025934D01*
X019789Y025934D01*
X019741Y025983D01*
X019741Y026079D01*
X019789Y026128D01*
X019886Y025833D02*
X019886Y025640D01*
X019741Y025539D02*
X019741Y025345D01*
X020031Y025345D01*
X020031Y025539D01*
X019886Y025442D02*
X019886Y025345D01*
X019789Y025244D02*
X019983Y025244D01*
X020031Y025196D01*
X020031Y025050D01*
X019741Y025050D01*
X019741Y025196D01*
X019789Y025244D01*
X019741Y024949D02*
X019935Y024949D01*
X020031Y024852D01*
X019935Y024756D01*
X019741Y024756D01*
X019886Y024756D02*
X019886Y024949D01*
X025677Y030844D02*
X025726Y030795D01*
X025677Y030844D02*
X025677Y030940D01*
X025726Y030989D01*
X025774Y030989D01*
X025822Y030940D01*
X025822Y030844D01*
X025871Y030795D01*
X025919Y030795D01*
X025967Y030844D01*
X025967Y030940D01*
X025919Y030989D01*
X025967Y031090D02*
X025967Y031187D01*
X025967Y031138D02*
X025677Y031138D01*
X025677Y031090D02*
X025677Y031187D01*
X025677Y031286D02*
X025967Y031286D01*
X025871Y031383D01*
X025967Y031480D01*
X025677Y031480D01*
X025726Y031581D02*
X025677Y031629D01*
X025677Y031726D01*
X025726Y031775D01*
X025919Y031775D01*
X025967Y031726D01*
X025967Y031629D01*
X025919Y031581D01*
X025871Y031581D01*
X025822Y031629D01*
X025822Y031775D01*
X025726Y031876D02*
X025919Y032069D01*
X025726Y032069D01*
X025677Y032021D01*
X025677Y031924D01*
X025726Y031876D01*
X025919Y031876D01*
X025967Y031924D01*
X025967Y032021D01*
X025919Y032069D01*
X025919Y032170D02*
X025967Y032219D01*
X025967Y032315D01*
X025919Y032364D01*
X025726Y032170D01*
X025677Y032219D01*
X025677Y032315D01*
X025726Y032364D01*
X025919Y032364D01*
X025822Y032465D02*
X025822Y032659D01*
X025726Y032760D02*
X025677Y032808D01*
X025677Y032905D01*
X025726Y032953D01*
X025726Y033054D02*
X025677Y033103D01*
X025677Y033199D01*
X025726Y033248D01*
X025822Y033248D01*
X025871Y033199D01*
X025871Y033151D01*
X025822Y033054D01*
X025967Y033054D01*
X025967Y033248D01*
X025919Y032953D02*
X025967Y032905D01*
X025967Y032808D01*
X025919Y032760D01*
X025726Y032760D01*
X025726Y032170D02*
X025919Y032170D01*
X026514Y032219D02*
X026562Y032170D01*
X026756Y032364D01*
X026562Y032364D01*
X026514Y032315D01*
X026514Y032219D01*
X026562Y032170D02*
X026756Y032170D01*
X026804Y032219D01*
X026804Y032315D01*
X026756Y032364D01*
X026659Y032465D02*
X026659Y032659D01*
X026756Y032760D02*
X026562Y032760D01*
X026514Y032808D01*
X026514Y032905D01*
X026562Y032953D01*
X026659Y033054D02*
X026659Y033248D01*
X026804Y033199D02*
X026659Y033054D01*
X026756Y032953D02*
X026804Y032905D01*
X026804Y032808D01*
X026756Y032760D01*
X026804Y033199D02*
X026514Y033199D01*
X027350Y033248D02*
X027350Y033054D01*
X027544Y033248D01*
X027592Y033248D01*
X027641Y033199D01*
X027641Y033103D01*
X027592Y033054D01*
X027592Y032953D02*
X027496Y032953D01*
X027447Y032905D01*
X027447Y032760D01*
X027447Y032856D02*
X027350Y032953D01*
X027350Y032760D02*
X027641Y032760D01*
X027641Y032905D01*
X027592Y032953D01*
X027496Y032659D02*
X027496Y032465D01*
X027592Y032364D02*
X027399Y032170D01*
X027350Y032219D01*
X027350Y032315D01*
X027399Y032364D01*
X027592Y032364D01*
X027641Y032315D01*
X027641Y032219D01*
X027592Y032170D01*
X027399Y032170D01*
X027399Y032069D02*
X027350Y032021D01*
X027350Y031924D01*
X027399Y031876D01*
X027592Y032069D01*
X027399Y032069D01*
X027399Y031876D02*
X027592Y031876D01*
X027641Y031924D01*
X027641Y032021D01*
X027592Y032069D01*
X027592Y031775D02*
X027641Y031726D01*
X027641Y031629D01*
X027592Y031581D01*
X027544Y031581D01*
X027496Y031629D01*
X027496Y031775D01*
X027592Y031775D02*
X027399Y031775D01*
X027350Y031726D01*
X027350Y031629D01*
X027399Y031581D01*
X027350Y031480D02*
X027641Y031480D01*
X027544Y031383D01*
X027641Y031286D01*
X027350Y031286D01*
X027350Y031187D02*
X027350Y031090D01*
X027350Y031138D02*
X027641Y031138D01*
X027641Y031090D02*
X027641Y031187D01*
X027592Y030989D02*
X027641Y030940D01*
X027641Y030844D01*
X027592Y030795D01*
X027544Y030795D01*
X027496Y030844D01*
X027496Y030940D01*
X027447Y030989D01*
X027399Y030989D01*
X027350Y030940D01*
X027350Y030844D01*
X027399Y030795D01*
X026804Y030844D02*
X026756Y030795D01*
X026707Y030795D01*
X026659Y030844D01*
X026659Y030940D01*
X026611Y030989D01*
X026562Y030989D01*
X026514Y030940D01*
X026514Y030844D01*
X026562Y030795D01*
X026804Y030844D02*
X026804Y030940D01*
X026756Y030989D01*
X026804Y031090D02*
X026804Y031187D01*
X026804Y031138D02*
X026514Y031138D01*
X026514Y031090D02*
X026514Y031187D01*
X026514Y031286D02*
X026804Y031286D01*
X026707Y031383D01*
X026804Y031480D01*
X026514Y031480D01*
X026562Y031581D02*
X026514Y031629D01*
X026514Y031726D01*
X026562Y031775D01*
X026756Y031775D01*
X026804Y031726D01*
X026804Y031629D01*
X026756Y031581D01*
X026707Y031581D01*
X026659Y031629D01*
X026659Y031775D01*
X026756Y031876D02*
X026804Y031924D01*
X026804Y032021D01*
X026756Y032069D01*
X026562Y031876D01*
X026514Y031924D01*
X026514Y032021D01*
X026562Y032069D01*
X026756Y032069D01*
X026756Y031876D02*
X026562Y031876D01*
X028187Y031924D02*
X028235Y031876D01*
X028429Y032069D01*
X028235Y032069D01*
X028187Y032021D01*
X028187Y031924D01*
X028235Y031876D02*
X028429Y031876D01*
X028477Y031924D01*
X028477Y032021D01*
X028429Y032069D01*
X028429Y032170D02*
X028477Y032219D01*
X028477Y032315D01*
X028429Y032364D01*
X028235Y032170D01*
X028187Y032219D01*
X028187Y032315D01*
X028235Y032364D01*
X028429Y032364D01*
X028332Y032465D02*
X028332Y032659D01*
X028284Y032760D02*
X028284Y032905D01*
X028332Y032953D01*
X028429Y032953D01*
X028477Y032905D01*
X028477Y032760D01*
X028187Y032760D01*
X028284Y032856D02*
X028187Y032953D01*
X028187Y033054D02*
X028187Y033248D01*
X028187Y033151D02*
X028477Y033151D01*
X028381Y033054D01*
X029024Y033103D02*
X029072Y033054D01*
X029024Y033103D02*
X029024Y033199D01*
X029072Y033248D01*
X029120Y033248D01*
X029169Y033199D01*
X029169Y033151D01*
X029169Y033199D02*
X029217Y033248D01*
X029266Y033248D01*
X029314Y033199D01*
X029314Y033103D01*
X029266Y033054D01*
X029266Y032953D02*
X029169Y032953D01*
X029120Y032905D01*
X029120Y032760D01*
X029024Y032760D02*
X029314Y032760D01*
X029314Y032905D01*
X029266Y032953D01*
X029120Y032856D02*
X029024Y032953D01*
X029169Y032659D02*
X029169Y032465D01*
X029266Y032364D02*
X029072Y032170D01*
X029024Y032219D01*
X029024Y032315D01*
X029072Y032364D01*
X029266Y032364D01*
X029314Y032315D01*
X029314Y032219D01*
X029266Y032170D01*
X029072Y032170D01*
X029072Y032069D02*
X029024Y032021D01*
X029024Y031924D01*
X029072Y031876D01*
X029266Y032069D01*
X029072Y032069D01*
X029072Y031876D02*
X029266Y031876D01*
X029314Y031924D01*
X029314Y032021D01*
X029266Y032069D01*
X029266Y031775D02*
X029314Y031726D01*
X029314Y031629D01*
X029266Y031581D01*
X029217Y031581D01*
X029169Y031629D01*
X029169Y031775D01*
X029072Y031775D02*
X029266Y031775D01*
X029072Y031775D02*
X029024Y031726D01*
X029024Y031629D01*
X029072Y031581D01*
X029024Y031480D02*
X029314Y031480D01*
X029217Y031383D01*
X029314Y031286D01*
X029024Y031286D01*
X029024Y031187D02*
X029024Y031090D01*
X029024Y031138D02*
X029314Y031138D01*
X029314Y031090D02*
X029314Y031187D01*
X029266Y030989D02*
X029314Y030940D01*
X029314Y030844D01*
X029266Y030795D01*
X029217Y030795D01*
X029169Y030844D01*
X029169Y030940D01*
X029120Y030989D01*
X029072Y030989D01*
X029024Y030940D01*
X029024Y030844D01*
X029072Y030795D01*
X028477Y030844D02*
X028429Y030795D01*
X028381Y030795D01*
X028332Y030844D01*
X028332Y030940D01*
X028284Y030989D01*
X028235Y030989D01*
X028187Y030940D01*
X028187Y030844D01*
X028235Y030795D01*
X028477Y030844D02*
X028477Y030940D01*
X028429Y030989D01*
X028477Y031090D02*
X028477Y031187D01*
X028477Y031138D02*
X028187Y031138D01*
X028187Y031090D02*
X028187Y031187D01*
X028187Y031286D02*
X028477Y031286D01*
X028381Y031383D01*
X028477Y031480D01*
X028187Y031480D01*
X028235Y031581D02*
X028187Y031629D01*
X028187Y031726D01*
X028235Y031775D01*
X028429Y031775D01*
X028477Y031726D01*
X028477Y031629D01*
X028429Y031581D01*
X028381Y031581D01*
X028332Y031629D01*
X028332Y031775D01*
X028235Y032170D02*
X028429Y032170D01*
X029974Y025979D02*
X029974Y025786D01*
X029974Y025882D02*
X030264Y025882D01*
X030167Y025786D01*
X030119Y025685D02*
X030070Y025636D01*
X030070Y025491D01*
X029974Y025491D02*
X030264Y025491D01*
X030264Y025636D01*
X030216Y025685D01*
X030119Y025685D01*
X030070Y025588D02*
X029974Y025685D01*
X030119Y025390D02*
X030119Y025196D01*
X030167Y025095D02*
X030216Y025095D01*
X030264Y025047D01*
X030264Y024950D01*
X030216Y024902D01*
X030216Y024801D02*
X030022Y024801D01*
X029974Y024752D01*
X029974Y024655D01*
X030022Y024607D01*
X030216Y024607D01*
X030264Y024655D01*
X030264Y024752D01*
X030216Y024801D01*
X030070Y024704D02*
X029974Y024801D01*
X029974Y024902D02*
X030167Y025095D01*
X029974Y025095D02*
X029974Y024902D01*
X029974Y024506D02*
X030264Y024506D01*
X030167Y024409D01*
X030264Y024312D01*
X029974Y024312D01*
X029680Y021795D02*
X029680Y021601D01*
X029680Y021698D02*
X029970Y021698D01*
X029874Y021601D01*
X029825Y021500D02*
X029825Y021306D01*
X029970Y021452D01*
X029680Y021452D01*
X029728Y021205D02*
X029680Y021157D01*
X029680Y021060D01*
X029728Y021012D01*
X029922Y021012D01*
X029970Y021060D01*
X029970Y021157D01*
X029922Y021205D01*
X034018Y022974D02*
X034211Y022781D01*
X034211Y022732D01*
X034313Y022781D02*
X034361Y022732D01*
X034458Y022732D01*
X034506Y022781D01*
X034506Y022877D02*
X034409Y022926D01*
X034361Y022926D01*
X034313Y022877D01*
X034313Y022781D01*
X034506Y022877D02*
X034506Y023023D01*
X034313Y023023D01*
X034211Y023023D02*
X034018Y023023D01*
X034018Y022974D01*
X034607Y022974D02*
X034656Y023023D01*
X034752Y023023D01*
X034801Y022974D01*
X034801Y022781D01*
X034752Y022732D01*
X034656Y022732D01*
X034607Y022781D01*
X036074Y022991D02*
X036267Y022991D01*
X036122Y023136D01*
X036122Y022846D01*
X036368Y022894D02*
X036417Y022846D01*
X036513Y022846D01*
X036562Y022894D01*
X036562Y022991D02*
X036465Y023039D01*
X036417Y023039D01*
X036368Y022991D01*
X036368Y022894D01*
X036562Y022991D02*
X036562Y023136D01*
X036368Y023136D01*
X036663Y023088D02*
X036663Y022991D01*
X036711Y022943D01*
X036856Y022943D01*
X036760Y022943D02*
X036663Y022846D01*
X036856Y022846D02*
X036856Y023136D01*
X036711Y023136D01*
X036663Y023088D01*
X034888Y024371D02*
X034888Y024662D01*
X034743Y024662D01*
X034694Y024613D01*
X034694Y024517D01*
X034743Y024468D01*
X034888Y024468D01*
X034791Y024468D02*
X034694Y024371D01*
X034593Y024420D02*
X034545Y024371D01*
X034448Y024371D01*
X034400Y024420D01*
X034400Y024517D01*
X034448Y024565D01*
X034496Y024565D01*
X034593Y024517D01*
X034593Y024662D01*
X034400Y024662D01*
X034299Y024517D02*
X034202Y024613D01*
X034105Y024662D01*
X034153Y024517D02*
X034299Y024517D01*
X034299Y024420D01*
X034250Y024371D01*
X034153Y024371D01*
X034105Y024420D01*
X034105Y024468D01*
X034153Y024517D01*
X037846Y018758D02*
X037798Y018709D01*
X037798Y018661D01*
X037846Y018613D01*
X037943Y018613D01*
X037991Y018661D01*
X037991Y018709D01*
X037943Y018758D01*
X037846Y018758D01*
X037846Y018613D02*
X037798Y018564D01*
X037798Y018516D01*
X037846Y018467D01*
X037943Y018467D01*
X037991Y018516D01*
X037991Y018564D01*
X037943Y018613D01*
X038092Y018661D02*
X038092Y018709D01*
X038141Y018758D01*
X038237Y018758D01*
X038286Y018709D01*
X038387Y018709D02*
X038435Y018758D01*
X038532Y018758D01*
X038580Y018709D01*
X038580Y018516D01*
X038532Y018467D01*
X038435Y018467D01*
X038387Y018516D01*
X038286Y018467D02*
X038092Y018661D01*
X038092Y018467D02*
X038286Y018467D01*
X032570Y013726D02*
X032376Y013436D01*
X032570Y013436D02*
X032376Y013726D01*
X032275Y013726D02*
X032081Y013726D01*
X032178Y013726D02*
X032178Y013436D01*
X031980Y013436D02*
X031980Y013629D01*
X031884Y013726D01*
X031787Y013629D01*
X031787Y013436D01*
X031686Y013436D02*
X031492Y013436D01*
X031391Y013436D02*
X031198Y013436D01*
X031294Y013436D02*
X031294Y013726D01*
X031391Y013629D01*
X031686Y013726D02*
X031686Y013436D01*
X031787Y013581D02*
X031980Y013581D01*
X031487Y007659D02*
X031487Y007465D01*
X031487Y007562D02*
X031777Y007562D01*
X031680Y007465D01*
X031777Y007364D02*
X031583Y007171D01*
X031632Y007219D02*
X031487Y007364D01*
X031487Y007171D02*
X031777Y007171D01*
X031729Y007069D02*
X031777Y007021D01*
X031777Y006924D01*
X031729Y006876D01*
X031535Y006876D01*
X031487Y006924D01*
X031487Y007021D01*
X031535Y007069D01*
X031729Y007069D01*
X034144Y007092D02*
X034434Y007092D01*
X034386Y006991D02*
X034434Y006942D01*
X034434Y006846D01*
X034386Y006797D01*
X034193Y006797D01*
X034144Y006846D01*
X034144Y006942D01*
X034193Y006991D01*
X034386Y006991D01*
X034241Y007092D02*
X034434Y007285D01*
X034386Y007386D02*
X034434Y007435D01*
X034434Y007532D01*
X034386Y007580D01*
X034338Y007580D01*
X034144Y007386D01*
X034144Y007580D01*
X034144Y007285D02*
X034289Y007140D01*
X026031Y015366D02*
X025983Y015318D01*
X025886Y015318D01*
X025838Y015366D01*
X025737Y015366D02*
X025737Y015318D01*
X025737Y015366D02*
X025543Y015560D01*
X025543Y015608D01*
X025737Y015608D01*
X025838Y015560D02*
X025886Y015608D01*
X025983Y015608D01*
X026031Y015560D01*
X026031Y015366D01*
X025442Y015366D02*
X025393Y015318D01*
X025297Y015318D01*
X025248Y015366D01*
X025248Y015415D01*
X025297Y015463D01*
X025345Y015463D01*
X025297Y015463D02*
X025248Y015511D01*
X025248Y015560D01*
X025297Y015608D01*
X025393Y015608D01*
X025442Y015560D01*
X024702Y015560D02*
X024702Y015366D01*
X024654Y015318D01*
X024557Y015318D01*
X024509Y015366D01*
X024408Y015366D02*
X024408Y015318D01*
X024408Y015366D02*
X024214Y015560D01*
X024214Y015608D01*
X024408Y015608D01*
X024509Y015560D02*
X024557Y015608D01*
X024654Y015608D01*
X024702Y015560D01*
X024113Y015463D02*
X023920Y015463D01*
X023968Y015608D02*
X024113Y015463D01*
X023968Y015318D02*
X023968Y015608D01*
X021970Y038819D02*
X021970Y039109D01*
X021874Y039109D02*
X022067Y039109D01*
X021773Y039061D02*
X021724Y039109D01*
X021627Y039109D01*
X021579Y039061D01*
X021579Y039012D01*
X021627Y038964D01*
X021579Y038916D01*
X021579Y038867D01*
X021627Y038819D01*
X021724Y038819D01*
X021773Y038867D01*
X021676Y038964D02*
X021627Y038964D01*
X020043Y040283D02*
X020043Y040573D01*
X019898Y040573D01*
X019850Y040525D01*
X019850Y040428D01*
X019898Y040380D01*
X020043Y040380D01*
X019947Y040380D02*
X019850Y040283D01*
X019749Y040331D02*
X019700Y040283D01*
X019604Y040283D01*
X019555Y040331D01*
X019555Y040525D01*
X019604Y040573D01*
X019700Y040573D01*
X019749Y040525D01*
X019749Y040477D01*
X019700Y040428D01*
X019555Y040428D01*
X019454Y040331D02*
X019406Y040283D01*
X019309Y040283D01*
X019261Y040331D01*
X019261Y040380D01*
X019309Y040428D01*
X019357Y040428D01*
X019309Y040428D02*
X019261Y040477D01*
X019261Y040525D01*
X019309Y040573D01*
X019406Y040573D01*
X019454Y040525D01*
X019575Y042488D02*
X019865Y042488D01*
X019865Y042633D01*
X019817Y042682D01*
X019720Y042682D01*
X019672Y042633D01*
X019672Y042488D01*
X019672Y042585D02*
X019575Y042682D01*
X019623Y042783D02*
X019575Y042831D01*
X019575Y042928D01*
X019623Y042976D01*
X019817Y042976D01*
X019865Y042928D01*
X019865Y042831D01*
X019817Y042783D01*
X019768Y042783D01*
X019720Y042831D01*
X019720Y042976D01*
X019720Y043078D02*
X019720Y043223D01*
X019672Y043271D01*
X019623Y043271D01*
X019575Y043223D01*
X019575Y043126D01*
X019623Y043078D01*
X019720Y043078D01*
X019817Y043174D01*
X019865Y043271D01*
X020862Y043313D02*
X020862Y043119D01*
X020862Y043216D02*
X021152Y043216D01*
X021056Y043119D01*
X021152Y043018D02*
X021152Y042825D01*
X021152Y042922D02*
X020862Y042922D01*
X027221Y042398D02*
X027221Y042204D01*
X027414Y042398D01*
X027462Y042398D01*
X027511Y042349D01*
X027511Y042253D01*
X027462Y042204D01*
X027511Y042103D02*
X027511Y041909D01*
X027511Y042006D02*
X027221Y042006D01*
X027709Y042286D02*
X027902Y042286D01*
X027709Y042480D01*
X027709Y042528D01*
X027757Y042577D01*
X027854Y042577D01*
X027902Y042528D01*
X028004Y042528D02*
X028052Y042577D01*
X028149Y042577D01*
X028197Y042528D01*
X028197Y042480D01*
X028149Y042431D01*
X028004Y042431D01*
X028004Y042335D02*
X028004Y042528D01*
X028004Y042335D02*
X028052Y042286D01*
X028149Y042286D01*
X028197Y042335D01*
X028298Y042286D02*
X028395Y042383D01*
X028347Y042383D02*
X028492Y042383D01*
X028492Y042286D02*
X028492Y042577D01*
X028347Y042577D01*
X028298Y042528D01*
X028298Y042431D01*
X028347Y042383D01*
X029975Y042418D02*
X029975Y042611D01*
X029975Y042515D02*
X030266Y042515D01*
X030169Y042418D01*
X030217Y042317D02*
X030266Y042268D01*
X030266Y042172D01*
X030217Y042123D01*
X030169Y042123D01*
X030120Y042172D01*
X030120Y042317D01*
X030024Y042317D02*
X030217Y042317D01*
X030024Y042317D02*
X029975Y042268D01*
X029975Y042172D01*
X030024Y042123D01*
X029975Y042022D02*
X030072Y041925D01*
X030072Y041974D02*
X030072Y041829D01*
X029975Y041829D02*
X030266Y041829D01*
X030266Y041974D01*
X030217Y042022D01*
X030120Y042022D01*
X030072Y041974D01*
X031058Y042022D02*
X031155Y041925D01*
X031155Y041974D02*
X031155Y041829D01*
X031058Y041829D02*
X031348Y041829D01*
X031348Y041974D01*
X031300Y042022D01*
X031203Y042022D01*
X031155Y041974D01*
X031106Y042123D02*
X031058Y042172D01*
X031058Y042268D01*
X031106Y042317D01*
X031300Y042317D01*
X031348Y042268D01*
X031348Y042172D01*
X031300Y042123D01*
X031251Y042123D01*
X031203Y042172D01*
X031203Y042317D01*
X031106Y042418D02*
X031300Y042611D01*
X031106Y042611D01*
X031058Y042563D01*
X031058Y042466D01*
X031106Y042418D01*
X031300Y042418D01*
X031348Y042466D01*
X031348Y042563D01*
X031300Y042611D01*
X032581Y040793D02*
X032388Y040599D01*
X032339Y040599D01*
X032388Y040498D02*
X032581Y040498D01*
X032630Y040450D01*
X032630Y040353D01*
X032581Y040304D01*
X032533Y040304D01*
X032485Y040353D01*
X032485Y040498D01*
X032388Y040498D02*
X032339Y040450D01*
X032339Y040353D01*
X032388Y040304D01*
X032388Y040203D02*
X032339Y040155D01*
X032339Y040058D01*
X032388Y040010D01*
X032581Y040010D01*
X032630Y040058D01*
X032630Y040155D01*
X032581Y040203D01*
X032630Y040599D02*
X032630Y040793D01*
X032581Y040793D01*
D11*
X012076Y019969D02*
X012076Y019945D01*
X012272Y011603D02*
X012272Y011579D01*
X012420Y004123D02*
X012420Y004099D01*
D12*
X012370Y003828D02*
X012470Y003828D01*
X012470Y003678D01*
X012370Y003678D01*
X012323Y003753D02*
X012223Y003753D01*
X012176Y003803D02*
X012176Y003703D01*
X012151Y003678D01*
X012101Y003678D01*
X012076Y003703D01*
X012028Y003703D02*
X012003Y003678D01*
X011953Y003678D01*
X011928Y003703D01*
X011928Y003803D01*
X011953Y003828D01*
X012003Y003828D01*
X012028Y003803D01*
X012028Y003778D01*
X012003Y003753D01*
X011928Y003753D01*
X012076Y003803D02*
X012101Y003828D01*
X012151Y003828D01*
X012176Y003803D01*
X012420Y003753D02*
X012470Y003753D01*
X012518Y003803D02*
X012543Y003828D01*
X012618Y003828D01*
X012618Y003678D01*
X012543Y003678D01*
X012518Y003703D01*
X012518Y003803D01*
X012665Y003778D02*
X012665Y003678D01*
X012665Y003753D02*
X012765Y003753D01*
X012765Y003778D02*
X012715Y003828D01*
X012665Y003778D01*
X012765Y003778D02*
X012765Y003678D01*
X012802Y004542D02*
X012727Y004542D01*
X012702Y004567D01*
X012702Y004667D01*
X012727Y004692D01*
X012802Y004692D01*
X012802Y004542D01*
X012849Y004542D02*
X012849Y004642D01*
X012899Y004692D01*
X012949Y004642D01*
X012949Y004542D01*
X012949Y004617D02*
X012849Y004617D01*
X012654Y004617D02*
X012604Y004617D01*
X012554Y004692D02*
X012654Y004692D01*
X012654Y004542D01*
X012554Y004542D01*
X012507Y004617D02*
X012407Y004617D01*
X012360Y004592D02*
X012285Y004592D01*
X012260Y004617D01*
X012260Y004667D01*
X012285Y004692D01*
X012360Y004692D01*
X012360Y004542D01*
X012310Y004592D02*
X012260Y004542D01*
X012212Y004567D02*
X012187Y004542D01*
X012137Y004542D01*
X012112Y004567D01*
X012112Y004592D01*
X012137Y004617D01*
X012212Y004617D01*
X012212Y004567D01*
X012212Y004617D02*
X012162Y004667D01*
X012112Y004692D01*
X012137Y005625D02*
X012187Y005625D01*
X012212Y005650D01*
X012260Y005625D02*
X012310Y005675D01*
X012285Y005675D02*
X012360Y005675D01*
X012360Y005625D02*
X012360Y005775D01*
X012285Y005775D01*
X012260Y005750D01*
X012260Y005700D01*
X012285Y005675D01*
X012212Y005750D02*
X012187Y005775D01*
X012137Y005775D01*
X012112Y005750D01*
X012112Y005725D01*
X012137Y005700D01*
X012112Y005675D01*
X012112Y005650D01*
X012137Y005625D01*
X012137Y005700D02*
X012162Y005700D01*
X012407Y005700D02*
X012507Y005700D01*
X012554Y005775D02*
X012654Y005775D01*
X012654Y005625D01*
X012554Y005625D01*
X012604Y005700D02*
X012654Y005700D01*
X012702Y005750D02*
X012727Y005775D01*
X012802Y005775D01*
X012802Y005625D01*
X012727Y005625D01*
X012702Y005650D01*
X012702Y005750D01*
X012849Y005725D02*
X012849Y005625D01*
X012849Y005700D02*
X012949Y005700D01*
X012949Y005725D02*
X012899Y005775D01*
X012849Y005725D01*
X012949Y005725D02*
X012949Y005625D01*
X012617Y011158D02*
X012617Y011258D01*
X012567Y011308D01*
X012517Y011258D01*
X012517Y011158D01*
X012470Y011158D02*
X012395Y011158D01*
X012370Y011183D01*
X012370Y011283D01*
X012395Y011308D01*
X012470Y011308D01*
X012470Y011158D01*
X012517Y011233D02*
X012617Y011233D01*
X012323Y011233D02*
X012273Y011233D01*
X012323Y011158D02*
X012223Y011158D01*
X012175Y011233D02*
X012075Y011233D01*
X012028Y011183D02*
X012003Y011158D01*
X011953Y011158D01*
X011928Y011183D01*
X011881Y011183D02*
X011881Y011208D01*
X011856Y011233D01*
X011806Y011233D01*
X011781Y011208D01*
X011781Y011183D01*
X011806Y011158D01*
X011856Y011158D01*
X011881Y011183D01*
X011856Y011233D02*
X011881Y011258D01*
X011881Y011283D01*
X011856Y011308D01*
X011806Y011308D01*
X011781Y011283D01*
X011781Y011258D01*
X011806Y011233D01*
X011928Y011283D02*
X011953Y011308D01*
X012003Y011308D01*
X012028Y011283D01*
X012028Y011183D01*
X012223Y011308D02*
X012323Y011308D01*
X012323Y011158D01*
X012407Y012071D02*
X012507Y012071D01*
X012507Y012222D01*
X012407Y012222D01*
X012359Y012146D02*
X012259Y012146D01*
X012212Y012121D02*
X012137Y012121D01*
X012112Y012146D01*
X012112Y012196D01*
X012137Y012222D01*
X012212Y012222D01*
X012212Y012071D01*
X012162Y012121D02*
X012112Y012071D01*
X012065Y012096D02*
X012040Y012071D01*
X011990Y012071D01*
X011965Y012096D01*
X011965Y012146D01*
X011990Y012171D01*
X012015Y012171D01*
X012065Y012146D01*
X012065Y012222D01*
X011965Y012222D01*
X012457Y012146D02*
X012507Y012146D01*
X012554Y012096D02*
X012554Y012196D01*
X012579Y012222D01*
X012654Y012222D01*
X012654Y012071D01*
X012579Y012071D01*
X012554Y012096D01*
X012701Y012071D02*
X012701Y012171D01*
X012751Y012222D01*
X012801Y012171D01*
X012801Y012071D01*
X012801Y012146D02*
X012701Y012146D01*
X012701Y013056D02*
X012701Y013156D01*
X012751Y013206D01*
X012801Y013156D01*
X012801Y013056D01*
X012801Y013131D02*
X012701Y013131D01*
X012654Y013206D02*
X012654Y013056D01*
X012579Y013056D01*
X012554Y013081D01*
X012554Y013181D01*
X012579Y013206D01*
X012654Y013206D01*
X012507Y013206D02*
X012507Y013056D01*
X012407Y013056D01*
X012359Y013131D02*
X012259Y013131D01*
X012212Y013106D02*
X012137Y013106D01*
X012112Y013131D01*
X012112Y013181D01*
X012137Y013206D01*
X012212Y013206D01*
X012212Y013056D01*
X012162Y013106D02*
X012112Y013056D01*
X012065Y013056D02*
X011965Y013156D01*
X011965Y013181D01*
X011990Y013206D01*
X012040Y013206D01*
X012065Y013181D01*
X012065Y013056D02*
X011965Y013056D01*
X012407Y013206D02*
X012507Y013206D01*
X012507Y013131D02*
X012457Y013131D01*
X012371Y019524D02*
X012371Y019624D01*
X012321Y019674D01*
X012271Y019624D01*
X012271Y019524D01*
X012224Y019524D02*
X012149Y019524D01*
X012124Y019549D01*
X012124Y019649D01*
X012149Y019674D01*
X012224Y019674D01*
X012224Y019524D01*
X012271Y019599D02*
X012371Y019599D01*
X012077Y019599D02*
X012027Y019599D01*
X012077Y019674D02*
X012077Y019524D01*
X011977Y019524D01*
X011929Y019599D02*
X011829Y019599D01*
X011782Y019649D02*
X011782Y019549D01*
X011757Y019524D01*
X011707Y019524D01*
X011682Y019549D01*
X011635Y019549D02*
X011635Y019524D01*
X011635Y019549D02*
X011535Y019649D01*
X011535Y019674D01*
X011635Y019674D01*
X011682Y019649D02*
X011707Y019674D01*
X011757Y019674D01*
X011782Y019649D01*
X011977Y019674D02*
X012077Y019674D01*
X012015Y020093D02*
X012015Y020243D01*
X011940Y020243D01*
X011915Y020218D01*
X011915Y020168D01*
X011940Y020143D01*
X012015Y020143D01*
X011965Y020143D02*
X011915Y020093D01*
X011868Y020168D02*
X011768Y020168D01*
X011793Y020093D02*
X011793Y020243D01*
X011868Y020168D01*
X012062Y020168D02*
X012163Y020168D01*
X012210Y020093D02*
X012310Y020093D01*
X012310Y020243D01*
X012210Y020243D01*
X012260Y020168D02*
X012310Y020168D01*
X012357Y020118D02*
X012357Y020218D01*
X012382Y020243D01*
X012457Y020243D01*
X012457Y020093D01*
X012382Y020093D01*
X012357Y020118D01*
X012504Y020093D02*
X012504Y020193D01*
X012555Y020243D01*
X012605Y020193D01*
X012605Y020093D01*
X012605Y020168D02*
X012504Y020168D01*
X012504Y020733D02*
X012504Y020833D01*
X012555Y020883D01*
X012605Y020833D01*
X012605Y020733D01*
X012605Y020808D02*
X012504Y020808D01*
X012457Y020883D02*
X012382Y020883D01*
X012357Y020858D01*
X012357Y020758D01*
X012382Y020733D01*
X012457Y020733D01*
X012457Y020883D01*
X012310Y020883D02*
X012310Y020733D01*
X012210Y020733D01*
X012163Y020808D02*
X012062Y020808D01*
X012015Y020783D02*
X011940Y020783D01*
X011915Y020808D01*
X011915Y020858D01*
X011940Y020883D01*
X012015Y020883D01*
X012015Y020733D01*
X011965Y020783D02*
X011915Y020733D01*
X011868Y020733D02*
X011768Y020733D01*
X011818Y020733D02*
X011818Y020883D01*
X011868Y020833D01*
X012210Y020883D02*
X012310Y020883D01*
X012310Y020808D02*
X012260Y020808D01*
X026751Y006989D02*
X026751Y006939D01*
X026776Y006914D01*
X026751Y006867D02*
X026901Y006867D01*
X026876Y006914D02*
X026901Y006939D01*
X026901Y006989D01*
X026876Y007014D01*
X026851Y007014D01*
X026826Y006989D01*
X026801Y007014D01*
X026776Y007014D01*
X026751Y006989D01*
X026826Y006989D02*
X026826Y006964D01*
X026826Y006867D02*
X026826Y006767D01*
X026876Y006720D02*
X026901Y006695D01*
X026901Y006645D01*
X026876Y006620D01*
X026776Y006620D01*
X026751Y006645D01*
X026751Y006695D01*
X026776Y006720D01*
X026751Y006767D02*
X026901Y006767D01*
X026726Y006572D02*
X026726Y006472D01*
X026751Y006425D02*
X026801Y006375D01*
X026801Y006400D02*
X026801Y006325D01*
X026751Y006325D02*
X026901Y006325D01*
X026901Y006400D01*
X026876Y006425D01*
X026826Y006425D01*
X026801Y006400D01*
X027513Y006472D02*
X027513Y006572D01*
X027563Y006620D02*
X027538Y006645D01*
X027538Y006695D01*
X027563Y006720D01*
X027538Y006767D02*
X027688Y006767D01*
X027663Y006720D02*
X027688Y006695D01*
X027688Y006645D01*
X027663Y006620D01*
X027563Y006620D01*
X027613Y006767D02*
X027613Y006867D01*
X027613Y006914D02*
X027613Y007014D01*
X027538Y006989D02*
X027688Y006989D01*
X027613Y006914D01*
X027688Y006867D02*
X027538Y006867D01*
X027538Y006425D02*
X027588Y006375D01*
X027588Y006400D02*
X027588Y006325D01*
X027538Y006325D02*
X027688Y006325D01*
X027688Y006400D01*
X027663Y006425D01*
X027613Y006425D01*
X027588Y006400D01*
X028300Y006472D02*
X028300Y006572D01*
X028350Y006620D02*
X028325Y006645D01*
X028325Y006695D01*
X028350Y006720D01*
X028325Y006767D02*
X028476Y006767D01*
X028451Y006720D02*
X028476Y006695D01*
X028476Y006645D01*
X028451Y006620D01*
X028350Y006620D01*
X028401Y006767D02*
X028401Y006867D01*
X028426Y006914D02*
X028476Y006964D01*
X028325Y006964D01*
X028325Y006914D02*
X028325Y007014D01*
X028325Y006867D02*
X028476Y006867D01*
X028451Y006425D02*
X028401Y006425D01*
X028376Y006400D01*
X028376Y006325D01*
X028376Y006375D02*
X028325Y006425D01*
X028325Y006325D02*
X028476Y006325D01*
X028476Y006400D01*
X028451Y006425D01*
X029118Y006417D02*
X029218Y006517D01*
X029243Y006517D01*
X029268Y006492D01*
X029268Y006442D01*
X029243Y006417D01*
X029268Y006370D02*
X029118Y006370D01*
X029118Y006417D02*
X029118Y006517D01*
X029193Y006370D02*
X029193Y006270D01*
X029243Y006223D02*
X029268Y006198D01*
X029268Y006148D01*
X029243Y006123D01*
X029143Y006123D01*
X029118Y006148D01*
X029118Y006198D01*
X029143Y006223D01*
X029118Y006270D02*
X029268Y006270D01*
X029093Y006075D02*
X029093Y005975D01*
X029118Y005928D02*
X029168Y005878D01*
X029168Y005903D02*
X029168Y005828D01*
X029118Y005828D02*
X029268Y005828D01*
X029268Y005903D01*
X029243Y005928D01*
X029193Y005928D01*
X029168Y005903D01*
X038109Y020509D02*
X038210Y020509D01*
X038257Y020509D02*
X038307Y020559D01*
X038282Y020559D02*
X038357Y020559D01*
X038357Y020509D02*
X038357Y020659D01*
X038282Y020659D01*
X038257Y020634D01*
X038257Y020584D01*
X038282Y020559D01*
X038210Y020609D02*
X038160Y020659D01*
X038160Y020509D01*
X038404Y020584D02*
X038504Y020584D01*
X038551Y020634D02*
X038576Y020659D01*
X038652Y020659D01*
X038652Y020509D01*
X038576Y020509D01*
X038551Y020534D01*
X038551Y020634D01*
X038699Y020634D02*
X038724Y020659D01*
X038774Y020659D01*
X038799Y020634D01*
X038799Y020534D01*
X038774Y020509D01*
X038724Y020509D01*
X038699Y020534D01*
X038846Y020509D02*
X038946Y020509D01*
X038946Y020659D01*
D13*
X037637Y025105D02*
X035393Y025105D01*
X035038Y025459D01*
X035038Y025971D01*
X035038Y026837D02*
X035038Y027349D01*
X035393Y027704D01*
X037637Y027704D01*
X037637Y026837D01*
X037637Y025971D02*
X037637Y025105D01*
X037498Y026778D02*
X037475Y026843D01*
X037449Y026906D01*
X037419Y026967D01*
X037385Y027027D01*
X037349Y027085D01*
X037309Y027141D01*
X037266Y027194D01*
X037220Y027245D01*
X037171Y027293D01*
X037120Y027338D01*
X037066Y027381D01*
X037010Y027420D01*
X036952Y027456D01*
X036891Y027489D01*
X036829Y027518D01*
X036766Y027544D01*
X036701Y027566D01*
X036635Y027585D01*
X036568Y027599D01*
X036501Y027610D01*
X036432Y027617D01*
X036364Y027621D01*
X036295Y027620D01*
X036227Y027616D01*
X036159Y027607D01*
X036092Y027595D01*
X036025Y027580D01*
X035959Y027560D01*
X035895Y027537D01*
X035832Y027510D01*
X035770Y027479D01*
X035711Y027446D01*
X035653Y027409D01*
X035598Y027368D01*
X035545Y027325D01*
X035494Y027279D01*
X035446Y027230D01*
X035401Y027178D01*
X035359Y027124D01*
X035320Y027068D01*
X035284Y027009D01*
X035252Y026949D01*
X035223Y026887D01*
X035197Y026823D01*
X035176Y026758D01*
X035176Y026030D02*
X035199Y025965D01*
X035225Y025902D01*
X035255Y025841D01*
X035289Y025781D01*
X035325Y025723D01*
X035365Y025667D01*
X035408Y025614D01*
X035454Y025563D01*
X035503Y025515D01*
X035554Y025470D01*
X035608Y025427D01*
X035664Y025388D01*
X035722Y025352D01*
X035783Y025319D01*
X035845Y025290D01*
X035908Y025264D01*
X035973Y025242D01*
X036039Y025223D01*
X036106Y025209D01*
X036173Y025198D01*
X036242Y025191D01*
X036310Y025187D01*
X036379Y025188D01*
X036447Y025192D01*
X036515Y025201D01*
X036582Y025213D01*
X036649Y025228D01*
X036715Y025248D01*
X036779Y025271D01*
X036842Y025298D01*
X036904Y025329D01*
X036963Y025362D01*
X037021Y025399D01*
X037076Y025440D01*
X037129Y025483D01*
X037180Y025529D01*
X037228Y025578D01*
X037273Y025630D01*
X037315Y025684D01*
X037354Y025740D01*
X037390Y025799D01*
X037422Y025859D01*
X037451Y025921D01*
X037477Y025985D01*
X037498Y026050D01*
X029419Y015861D02*
X026419Y015861D01*
X026371Y015840D01*
X026325Y015816D01*
X026281Y015789D01*
X026239Y015758D01*
X026199Y015724D01*
X026162Y015688D01*
X026128Y015649D01*
X026097Y015607D01*
X026069Y015563D01*
X026044Y015517D01*
X026023Y015470D01*
X026005Y015421D01*
X025992Y015371D01*
X025981Y015319D01*
X025975Y015268D01*
X025973Y015216D01*
X025975Y015164D01*
X025980Y015112D01*
X025989Y015061D01*
X026003Y015010D01*
X026019Y014961D01*
X026088Y014888D01*
X026155Y014811D01*
X026217Y014732D01*
X026276Y014650D01*
X026330Y014565D01*
X026381Y014477D01*
X026427Y014388D01*
X026469Y014296D01*
X026506Y014202D01*
X026539Y014107D01*
X026568Y014010D01*
X026592Y013912D01*
X026611Y013813D01*
X026625Y013713D01*
X026635Y013612D01*
X026639Y013511D01*
X026639Y013411D01*
X026635Y013310D01*
X026625Y013209D01*
X026611Y013109D01*
X026592Y013010D01*
X026568Y012912D01*
X026539Y012815D01*
X026506Y012720D01*
X026469Y012626D01*
X026427Y012534D01*
X026381Y012445D01*
X026330Y012357D01*
X026276Y012272D01*
X026217Y012190D01*
X026155Y012111D01*
X026088Y012034D01*
X026019Y011961D01*
X026003Y011912D01*
X025989Y011861D01*
X025980Y011810D01*
X025975Y011758D01*
X025973Y011706D01*
X025975Y011654D01*
X025981Y011603D01*
X025992Y011551D01*
X026005Y011501D01*
X026023Y011452D01*
X026044Y011405D01*
X026069Y011359D01*
X026097Y011315D01*
X026128Y011273D01*
X026162Y011234D01*
X026199Y011198D01*
X026239Y011164D01*
X026281Y011133D01*
X026325Y011106D01*
X026371Y011082D01*
X026419Y011061D01*
X029419Y011061D01*
X030619Y012261D01*
X030619Y014661D01*
X029419Y015861D01*
X022420Y023875D02*
X021908Y023875D01*
X022420Y023875D02*
X022774Y024229D01*
X022774Y026473D01*
X021908Y026473D01*
X021042Y026473D02*
X020176Y026473D01*
X020176Y024229D01*
X020530Y023875D01*
X021042Y023875D01*
X021849Y024013D02*
X021914Y024036D01*
X021977Y024062D01*
X022038Y024092D01*
X022098Y024126D01*
X022156Y024162D01*
X022212Y024202D01*
X022265Y024245D01*
X022316Y024291D01*
X022364Y024340D01*
X022409Y024391D01*
X022452Y024445D01*
X022491Y024501D01*
X022527Y024559D01*
X022560Y024620D01*
X022589Y024682D01*
X022615Y024745D01*
X022637Y024810D01*
X022656Y024876D01*
X022670Y024943D01*
X022681Y025010D01*
X022688Y025079D01*
X022692Y025147D01*
X022691Y025216D01*
X022687Y025284D01*
X022678Y025352D01*
X022666Y025419D01*
X022651Y025486D01*
X022631Y025552D01*
X022608Y025616D01*
X022581Y025679D01*
X022550Y025741D01*
X022517Y025800D01*
X022480Y025858D01*
X022439Y025913D01*
X022396Y025966D01*
X022350Y026017D01*
X022301Y026065D01*
X022249Y026110D01*
X022195Y026152D01*
X022139Y026191D01*
X022080Y026227D01*
X022020Y026259D01*
X021958Y026288D01*
X021894Y026314D01*
X021829Y026335D01*
X021101Y026335D02*
X021036Y026312D01*
X020973Y026286D01*
X020912Y026256D01*
X020852Y026222D01*
X020794Y026186D01*
X020738Y026146D01*
X020685Y026103D01*
X020634Y026057D01*
X020586Y026008D01*
X020541Y025957D01*
X020498Y025903D01*
X020459Y025847D01*
X020423Y025789D01*
X020390Y025728D01*
X020361Y025666D01*
X020335Y025603D01*
X020313Y025538D01*
X020294Y025472D01*
X020280Y025405D01*
X020269Y025338D01*
X020262Y025269D01*
X020258Y025201D01*
X020259Y025132D01*
X020263Y025064D01*
X020272Y024996D01*
X020284Y024929D01*
X020299Y024862D01*
X020319Y024796D01*
X020342Y024732D01*
X020369Y024669D01*
X020400Y024607D01*
X020433Y024548D01*
X020470Y024490D01*
X020511Y024435D01*
X020554Y024382D01*
X020600Y024331D01*
X020649Y024283D01*
X020701Y024238D01*
X020755Y024196D01*
X020811Y024157D01*
X020870Y024121D01*
X020930Y024089D01*
X020992Y024060D01*
X021056Y024034D01*
X021121Y024013D01*
X029930Y038245D02*
X029576Y038599D01*
X029576Y039111D01*
X029930Y038245D02*
X032174Y038245D01*
X032174Y039111D01*
X032174Y039977D02*
X032174Y040843D01*
X029930Y040843D01*
X029576Y040489D01*
X029576Y039977D01*
X029714Y039170D02*
X029737Y039105D01*
X029763Y039042D01*
X029793Y038981D01*
X029827Y038921D01*
X029863Y038863D01*
X029903Y038807D01*
X029946Y038754D01*
X029992Y038703D01*
X030041Y038655D01*
X030092Y038610D01*
X030146Y038567D01*
X030202Y038528D01*
X030260Y038492D01*
X030321Y038459D01*
X030383Y038430D01*
X030446Y038404D01*
X030511Y038382D01*
X030577Y038363D01*
X030644Y038349D01*
X030711Y038338D01*
X030780Y038331D01*
X030848Y038327D01*
X030917Y038328D01*
X030985Y038332D01*
X031053Y038341D01*
X031120Y038353D01*
X031187Y038368D01*
X031253Y038388D01*
X031317Y038411D01*
X031380Y038438D01*
X031442Y038469D01*
X031501Y038502D01*
X031559Y038539D01*
X031614Y038580D01*
X031667Y038623D01*
X031718Y038669D01*
X031766Y038718D01*
X031811Y038770D01*
X031853Y038824D01*
X031892Y038880D01*
X031928Y038939D01*
X031960Y038999D01*
X031989Y039061D01*
X032015Y039125D01*
X032036Y039190D01*
X032036Y039918D02*
X032013Y039983D01*
X031987Y040046D01*
X031957Y040107D01*
X031923Y040167D01*
X031887Y040225D01*
X031847Y040281D01*
X031804Y040334D01*
X031758Y040385D01*
X031709Y040433D01*
X031658Y040478D01*
X031604Y040521D01*
X031548Y040560D01*
X031490Y040596D01*
X031429Y040629D01*
X031367Y040658D01*
X031304Y040684D01*
X031239Y040706D01*
X031173Y040725D01*
X031106Y040739D01*
X031039Y040750D01*
X030970Y040757D01*
X030902Y040761D01*
X030833Y040760D01*
X030765Y040756D01*
X030697Y040747D01*
X030630Y040735D01*
X030563Y040720D01*
X030497Y040700D01*
X030433Y040677D01*
X030370Y040650D01*
X030308Y040619D01*
X030249Y040586D01*
X030191Y040549D01*
X030136Y040508D01*
X030083Y040465D01*
X030032Y040419D01*
X029984Y040370D01*
X029939Y040318D01*
X029897Y040264D01*
X029858Y040208D01*
X029822Y040149D01*
X029790Y040089D01*
X029761Y040027D01*
X029735Y039963D01*
X029714Y039898D01*
D14*
X012076Y021188D03*
X012076Y020548D03*
X012272Y013511D03*
X012272Y012526D03*
X012420Y006080D03*
X012420Y004997D03*
X038601Y020204D03*
D15*
X028020Y006670D03*
X027233Y006670D03*
X026446Y006670D03*
X028813Y006173D03*
X017779Y031409D03*
D16*
X011508Y021835D02*
X010508Y021835D01*
X010491Y021833D01*
X010474Y021829D01*
X010458Y021822D01*
X010444Y021812D01*
X010431Y021799D01*
X010421Y021785D01*
X010414Y021769D01*
X010410Y021752D01*
X010408Y021735D01*
X010408Y021485D01*
X010458Y021435D01*
X010458Y018835D01*
X010408Y018785D01*
X010408Y018535D01*
X010410Y018518D01*
X010414Y018501D01*
X010421Y018485D01*
X010431Y018471D01*
X010444Y018458D01*
X010458Y018448D01*
X010474Y018441D01*
X010491Y018437D01*
X010508Y018435D01*
X011508Y018435D01*
X011525Y018437D01*
X011542Y018441D01*
X011558Y018448D01*
X011572Y018458D01*
X011585Y018471D01*
X011595Y018485D01*
X011602Y018501D01*
X011606Y018518D01*
X011608Y018535D01*
X011608Y018785D01*
X011558Y018835D01*
X011558Y021435D01*
X011608Y021485D01*
X011608Y021735D01*
X011606Y021752D01*
X011602Y021769D01*
X011595Y021785D01*
X011585Y021799D01*
X011572Y021812D01*
X011558Y021822D01*
X011542Y021829D01*
X011525Y021833D01*
X011508Y021835D01*
X011508Y014162D02*
X010508Y014162D01*
X010491Y014160D01*
X010474Y014156D01*
X010458Y014149D01*
X010444Y014139D01*
X010431Y014126D01*
X010421Y014112D01*
X010414Y014096D01*
X010410Y014079D01*
X010408Y014062D01*
X010408Y013812D01*
X010458Y013762D01*
X010458Y011162D01*
X010408Y011112D01*
X010408Y010862D01*
X010410Y010845D01*
X010414Y010828D01*
X010421Y010812D01*
X010431Y010798D01*
X010444Y010785D01*
X010458Y010775D01*
X010474Y010768D01*
X010491Y010764D01*
X010508Y010762D01*
X011508Y010762D01*
X011525Y010764D01*
X011542Y010768D01*
X011558Y010775D01*
X011572Y010785D01*
X011585Y010798D01*
X011595Y010812D01*
X011602Y010828D01*
X011606Y010845D01*
X011608Y010862D01*
X011608Y011112D01*
X011558Y011162D01*
X011558Y013762D01*
X011608Y013812D01*
X011608Y014062D01*
X011606Y014079D01*
X011602Y014096D01*
X011595Y014112D01*
X011585Y014126D01*
X011572Y014139D01*
X011558Y014149D01*
X011542Y014156D01*
X011525Y014160D01*
X011508Y014162D01*
X011148Y006746D02*
X010148Y006746D01*
X010131Y006744D01*
X010114Y006740D01*
X010098Y006733D01*
X010084Y006723D01*
X010071Y006710D01*
X010061Y006696D01*
X010054Y006680D01*
X010050Y006663D01*
X010048Y006646D01*
X010048Y006396D01*
X010098Y006346D01*
X010098Y003746D01*
X010048Y003696D01*
X010048Y003446D01*
X010050Y003429D01*
X010054Y003412D01*
X010061Y003396D01*
X010071Y003382D01*
X010084Y003369D01*
X010098Y003359D01*
X010114Y003352D01*
X010131Y003348D01*
X010148Y003346D01*
X011148Y003346D01*
X011165Y003348D01*
X011182Y003352D01*
X011198Y003359D01*
X011212Y003369D01*
X011225Y003382D01*
X011235Y003396D01*
X011242Y003412D01*
X011246Y003429D01*
X011248Y003446D01*
X011248Y003696D01*
X011198Y003746D01*
X011198Y006346D01*
X011248Y006396D01*
X011248Y006646D01*
X011246Y006663D01*
X011242Y006680D01*
X011235Y006696D01*
X011225Y006710D01*
X011212Y006723D01*
X011198Y006733D01*
X011182Y006740D01*
X011165Y006744D01*
X011148Y006746D01*
X014546Y004871D02*
X014546Y003371D01*
X014796Y003121D01*
X015296Y003121D01*
X015546Y003371D01*
X015546Y004871D01*
X015296Y005121D01*
X014796Y005121D01*
X014546Y004871D01*
X015546Y004871D02*
X015796Y005121D01*
X016296Y005121D01*
X016546Y004871D01*
X016546Y003371D01*
X016296Y003121D01*
X015796Y003121D01*
X015546Y003371D01*
X016546Y003371D02*
X016796Y003121D01*
X017296Y003121D01*
X017546Y003371D01*
X017546Y004871D01*
X017296Y005121D01*
X016796Y005121D01*
X016546Y004871D01*
X017546Y004871D02*
X017796Y005121D01*
X018296Y005121D01*
X018546Y004871D01*
X018546Y003371D01*
X018296Y003121D01*
X017796Y003121D01*
X017546Y003371D01*
X018546Y003371D02*
X018796Y003121D01*
X019296Y003121D01*
X019546Y003371D01*
X019546Y004871D01*
X019296Y005121D01*
X018796Y005121D01*
X018546Y004871D01*
X022765Y004871D02*
X022765Y003371D01*
X023015Y003121D01*
X023515Y003121D01*
X023765Y003371D01*
X023765Y004871D01*
X023515Y005121D01*
X023015Y005121D01*
X022765Y004871D01*
X023765Y004871D02*
X024015Y005121D01*
X024515Y005121D01*
X024765Y004871D01*
X024765Y003371D01*
X024515Y003121D01*
X024015Y003121D01*
X023765Y003371D01*
X024765Y003371D02*
X025015Y003121D01*
X025515Y003121D01*
X025765Y003371D01*
X025765Y004871D01*
X025515Y005121D01*
X025015Y005121D01*
X024765Y004871D01*
X025765Y004871D02*
X026015Y005121D01*
X026515Y005121D01*
X026765Y004871D01*
X026765Y003371D01*
X026515Y003121D01*
X026015Y003121D01*
X025765Y003371D01*
X026765Y003371D02*
X027015Y003121D01*
X027515Y003121D01*
X027765Y003371D01*
X027765Y004871D01*
X027515Y005121D01*
X027015Y005121D01*
X026765Y004871D01*
X029520Y004723D02*
X029770Y004473D01*
X031270Y004473D01*
X031520Y004723D01*
X031520Y005223D01*
X031270Y005473D01*
X029770Y005473D01*
X029520Y005723D01*
X029520Y006223D01*
X029770Y006473D01*
X031270Y006473D01*
X031520Y006723D01*
X031520Y007223D01*
X031270Y007473D01*
X031520Y007723D01*
X031520Y008223D01*
X031270Y008473D01*
X029770Y008473D01*
X029520Y008223D01*
X029520Y007723D01*
X029770Y007473D01*
X031270Y007473D01*
X031942Y007695D02*
X031942Y006295D01*
X031944Y006278D01*
X031948Y006261D01*
X031955Y006245D01*
X031965Y006231D01*
X031978Y006218D01*
X031992Y006208D01*
X032008Y006201D01*
X032025Y006197D01*
X032042Y006195D01*
X032392Y006195D02*
X032492Y006195D01*
X032892Y006195D02*
X032992Y006195D01*
X033392Y006195D02*
X033492Y006195D01*
X033842Y006195D02*
X033859Y006197D01*
X033876Y006201D01*
X033892Y006208D01*
X033906Y006218D01*
X033919Y006231D01*
X033929Y006245D01*
X033936Y006261D01*
X033940Y006278D01*
X033942Y006295D01*
X033942Y007695D01*
X033940Y007712D01*
X033936Y007729D01*
X033929Y007745D01*
X033919Y007759D01*
X033906Y007772D01*
X033892Y007782D01*
X033876Y007789D01*
X033859Y007793D01*
X033842Y007795D01*
X033492Y007795D02*
X033392Y007795D01*
X032992Y007795D02*
X032892Y007795D01*
X032492Y007795D02*
X032392Y007795D01*
X032042Y007795D02*
X032025Y007793D01*
X032008Y007789D01*
X031992Y007782D01*
X031978Y007772D01*
X031965Y007759D01*
X031955Y007745D01*
X031948Y007729D01*
X031944Y007712D01*
X031942Y007695D01*
X032092Y007395D02*
X032094Y007419D01*
X032100Y007443D01*
X032109Y007465D01*
X032122Y007485D01*
X032138Y007503D01*
X032157Y007518D01*
X032178Y007531D01*
X032200Y007539D01*
X032224Y007544D01*
X032248Y007545D01*
X032272Y007542D01*
X032295Y007535D01*
X032317Y007525D01*
X032337Y007511D01*
X032354Y007494D01*
X032369Y007475D01*
X032380Y007454D01*
X032388Y007431D01*
X032392Y007407D01*
X032392Y007383D01*
X032388Y007359D01*
X032380Y007336D01*
X032369Y007315D01*
X032354Y007296D01*
X032337Y007279D01*
X032317Y007265D01*
X032295Y007255D01*
X032272Y007248D01*
X032248Y007245D01*
X032224Y007246D01*
X032200Y007251D01*
X032178Y007259D01*
X032157Y007272D01*
X032138Y007287D01*
X032122Y007305D01*
X032109Y007325D01*
X032100Y007347D01*
X032094Y007371D01*
X032092Y007395D01*
X031270Y006473D02*
X031520Y006223D01*
X031520Y005723D01*
X031270Y005473D01*
X029770Y005473D02*
X029520Y005223D01*
X029520Y004723D01*
X029770Y006473D02*
X029520Y006723D01*
X029520Y007223D01*
X029770Y007473D01*
X034599Y007616D02*
X034599Y006216D01*
X034601Y006199D01*
X034605Y006182D01*
X034612Y006166D01*
X034622Y006152D01*
X034635Y006139D01*
X034649Y006129D01*
X034665Y006122D01*
X034682Y006118D01*
X034699Y006116D01*
X035049Y006116D02*
X035149Y006116D01*
X035549Y006116D02*
X035649Y006116D01*
X036049Y006116D02*
X036149Y006116D01*
X036499Y006116D02*
X036516Y006118D01*
X036533Y006122D01*
X036549Y006129D01*
X036563Y006139D01*
X036576Y006152D01*
X036586Y006166D01*
X036593Y006182D01*
X036597Y006199D01*
X036599Y006216D01*
X036599Y007616D01*
X036597Y007633D01*
X036593Y007650D01*
X036586Y007666D01*
X036576Y007680D01*
X036563Y007693D01*
X036549Y007703D01*
X036533Y007710D01*
X036516Y007714D01*
X036499Y007716D01*
X036149Y007716D02*
X036049Y007716D01*
X035649Y007716D02*
X035549Y007716D01*
X035149Y007716D02*
X035049Y007716D01*
X034699Y007716D02*
X034682Y007714D01*
X034665Y007710D01*
X034649Y007703D01*
X034635Y007693D01*
X034622Y007680D01*
X034612Y007666D01*
X034605Y007650D01*
X034601Y007633D01*
X034599Y007616D01*
X034749Y007316D02*
X034751Y007340D01*
X034757Y007364D01*
X034766Y007386D01*
X034779Y007406D01*
X034795Y007424D01*
X034814Y007439D01*
X034835Y007452D01*
X034857Y007460D01*
X034881Y007465D01*
X034905Y007466D01*
X034929Y007463D01*
X034952Y007456D01*
X034974Y007446D01*
X034994Y007432D01*
X035011Y007415D01*
X035026Y007396D01*
X035037Y007375D01*
X035045Y007352D01*
X035049Y007328D01*
X035049Y007304D01*
X035045Y007280D01*
X035037Y007257D01*
X035026Y007236D01*
X035011Y007217D01*
X034994Y007200D01*
X034974Y007186D01*
X034952Y007176D01*
X034929Y007169D01*
X034905Y007166D01*
X034881Y007167D01*
X034857Y007172D01*
X034835Y007180D01*
X034814Y007193D01*
X034795Y007208D01*
X034779Y007226D01*
X034766Y007246D01*
X034757Y007268D01*
X034751Y007292D01*
X034749Y007316D01*
X032258Y014899D02*
X031558Y014899D01*
X031558Y015049D01*
X032258Y015049D01*
X032308Y015049D01*
X032308Y017199D01*
X032306Y017216D01*
X032302Y017233D01*
X032295Y017249D01*
X032285Y017263D01*
X032272Y017276D01*
X032258Y017286D01*
X032242Y017293D01*
X032225Y017297D01*
X032208Y017299D01*
X031608Y017299D01*
X031591Y017297D01*
X031574Y017293D01*
X031558Y017286D01*
X031544Y017276D01*
X031531Y017263D01*
X031521Y017249D01*
X031514Y017233D01*
X031510Y017216D01*
X031508Y017199D01*
X031508Y015049D01*
X031558Y015049D01*
X031908Y015699D02*
X031908Y015899D01*
X031708Y015899D01*
X031708Y016049D02*
X031708Y016199D01*
X032108Y016199D01*
X032108Y016049D01*
X031708Y016049D01*
X031908Y015899D02*
X032108Y015899D01*
X032108Y016349D02*
X031908Y016349D01*
X031708Y016349D01*
X031908Y016349D02*
X031908Y016549D01*
X032258Y015049D02*
X032258Y014899D01*
D17*
X001150Y019908D02*
X001150Y004160D01*
X004733Y004160D01*
X004772Y004160D01*
X007450Y004160D01*
X007450Y019908D01*
X001150Y019908D01*
X016609Y005846D02*
X016609Y005396D01*
X016759Y005396D02*
X016458Y005396D01*
X016759Y005696D02*
X016609Y005846D01*
X016919Y005846D02*
X017219Y005846D01*
X017069Y005846D02*
X017069Y005396D01*
X017379Y005471D02*
X017379Y005846D01*
X017679Y005846D02*
X017679Y005471D01*
X017604Y005396D01*
X017454Y005396D01*
X017379Y005471D01*
X017840Y005471D02*
X017915Y005396D01*
X018065Y005396D01*
X018140Y005471D01*
X018140Y005771D01*
X018065Y005846D01*
X017915Y005846D01*
X017840Y005771D01*
X017840Y005471D01*
X018300Y005321D02*
X018600Y005321D01*
X018760Y005396D02*
X018911Y005546D01*
X018835Y005546D02*
X019061Y005546D01*
X019061Y005396D02*
X019061Y005846D01*
X018835Y005846D01*
X018760Y005771D01*
X018760Y005621D01*
X018835Y005546D01*
X019221Y005546D02*
X019221Y005471D01*
X019296Y005396D01*
X019446Y005396D01*
X019521Y005471D01*
X019446Y005621D02*
X019296Y005621D01*
X019221Y005546D01*
X019221Y005771D02*
X019296Y005846D01*
X019446Y005846D01*
X019521Y005771D01*
X019521Y005696D01*
X019446Y005621D01*
X024677Y005696D02*
X024677Y005771D01*
X024752Y005846D01*
X024902Y005846D01*
X024977Y005771D01*
X025137Y005846D02*
X025438Y005846D01*
X025287Y005846D02*
X025287Y005396D01*
X024977Y005396D02*
X024677Y005696D01*
X024677Y005396D02*
X024977Y005396D01*
X025598Y005471D02*
X025598Y005846D01*
X025898Y005846D02*
X025898Y005471D01*
X025823Y005396D01*
X025673Y005396D01*
X025598Y005471D01*
X026058Y005471D02*
X026133Y005396D01*
X026283Y005396D01*
X026358Y005471D01*
X026358Y005771D01*
X026283Y005846D01*
X026133Y005846D01*
X026058Y005771D01*
X026058Y005471D01*
X026519Y005321D02*
X026819Y005321D01*
X026979Y005396D02*
X027129Y005546D01*
X027054Y005546D02*
X027279Y005546D01*
X027279Y005396D02*
X027279Y005846D01*
X027054Y005846D01*
X026979Y005771D01*
X026979Y005621D01*
X027054Y005546D01*
X027439Y005546D02*
X027439Y005471D01*
X027514Y005396D01*
X027665Y005396D01*
X027740Y005471D01*
X027665Y005621D02*
X027514Y005621D01*
X027439Y005546D01*
X027439Y005771D02*
X027514Y005846D01*
X027665Y005846D01*
X027740Y005771D01*
X027740Y005696D01*
X027665Y005621D01*
X031795Y005569D02*
X032246Y005569D01*
X032096Y005419D01*
X032171Y005259D02*
X032021Y005259D01*
X031946Y005184D01*
X031946Y004959D01*
X031795Y004959D02*
X032246Y004959D01*
X032246Y005184D01*
X032171Y005259D01*
X031795Y005419D02*
X031795Y005719D01*
X031871Y004723D02*
X032246Y004723D01*
X032246Y004648D02*
X032246Y004798D01*
X031871Y004723D02*
X031795Y004648D01*
X031795Y004573D01*
X031871Y004498D01*
D18*
X038920Y011460D02*
X038920Y011767D01*
X038997Y011920D02*
X038920Y011997D01*
X038920Y012150D01*
X038997Y012227D01*
X038920Y012381D02*
X038920Y012611D01*
X038997Y012687D01*
X039304Y012687D01*
X039381Y012611D01*
X039381Y012381D01*
X038920Y012381D01*
X039304Y012227D02*
X039381Y012150D01*
X039381Y011997D01*
X039304Y011920D01*
X038997Y011920D01*
X038920Y011460D02*
X039381Y011460D01*
X038844Y012841D02*
X038844Y013148D01*
X038997Y013301D02*
X038920Y013378D01*
X038920Y013532D01*
X038997Y013608D01*
X038920Y013762D02*
X038920Y014069D01*
X038920Y013915D02*
X039381Y013915D01*
X039227Y013762D01*
X039304Y013608D02*
X039381Y013532D01*
X039381Y013378D01*
X039304Y013301D01*
X038997Y013301D01*
X037652Y027853D02*
X037499Y028007D01*
X037345Y027853D01*
X037345Y028314D01*
X037192Y028314D02*
X037192Y028084D01*
X037038Y028160D01*
X036961Y028160D01*
X036885Y028084D01*
X036885Y027930D01*
X036961Y027853D01*
X037115Y027853D01*
X037192Y027930D01*
X037192Y028314D02*
X036885Y028314D01*
X036731Y028314D02*
X036731Y028084D01*
X036578Y028160D01*
X036501Y028160D01*
X036424Y028084D01*
X036424Y027930D01*
X036501Y027853D01*
X036655Y027853D01*
X036731Y027930D01*
X036731Y028314D02*
X036424Y028314D01*
X036271Y028237D02*
X036271Y027930D01*
X035964Y028237D01*
X035964Y027930D01*
X036041Y027853D01*
X036194Y027853D01*
X036271Y027930D01*
X036271Y028237D02*
X036194Y028314D01*
X036041Y028314D01*
X035964Y028237D01*
X035810Y028237D02*
X035810Y027930D01*
X035504Y028237D01*
X035504Y027930D01*
X035580Y027853D01*
X035734Y027853D01*
X035810Y027930D01*
X035810Y028237D02*
X035734Y028314D01*
X035580Y028314D01*
X035504Y028237D01*
X035350Y028084D02*
X035043Y028084D01*
X034890Y028237D02*
X034890Y027930D01*
X034813Y027853D01*
X034659Y027853D01*
X034583Y027930D01*
X034429Y027853D02*
X034122Y027853D01*
X034276Y027853D02*
X034276Y028314D01*
X034429Y028160D01*
X034583Y028237D02*
X034659Y028314D01*
X034813Y028314D01*
X034890Y028237D01*
X033969Y028237D02*
X033892Y028314D01*
X033739Y028314D01*
X033662Y028237D01*
X033662Y028160D01*
X033739Y028084D01*
X033662Y028007D01*
X033662Y027930D01*
X033739Y027853D01*
X033892Y027853D01*
X033969Y027930D01*
X033815Y028084D02*
X033739Y028084D01*
X037652Y028314D02*
X037652Y027853D01*
X024377Y029527D02*
X024377Y029757D01*
X024300Y029834D01*
X024147Y029834D01*
X024070Y029757D01*
X024070Y029527D01*
X024070Y029680D02*
X023916Y029834D01*
X023993Y029987D02*
X023916Y030064D01*
X023916Y030141D01*
X023993Y030217D01*
X024377Y030217D01*
X024377Y030141D02*
X024377Y030294D01*
X024147Y030447D02*
X024147Y030754D01*
X024300Y030908D02*
X024377Y030985D01*
X024377Y031138D01*
X024300Y031215D01*
X024223Y031215D01*
X024147Y031138D01*
X024070Y031215D01*
X023993Y031215D01*
X023916Y031138D01*
X023916Y030985D01*
X023993Y030908D01*
X024147Y031061D02*
X024147Y031138D01*
X023916Y029527D02*
X024377Y029527D01*
X017024Y029527D02*
X017024Y029757D01*
X016948Y029834D01*
X016794Y029834D01*
X016718Y029757D01*
X016718Y029527D01*
X016718Y029680D02*
X016564Y029834D01*
X016641Y029987D02*
X016564Y030064D01*
X016564Y030141D01*
X016641Y030217D01*
X017024Y030217D01*
X017024Y030141D02*
X017024Y030294D01*
X016794Y030447D02*
X016794Y030754D01*
X016948Y030908D02*
X017024Y030985D01*
X017024Y031138D01*
X016948Y031215D01*
X016871Y031215D01*
X016564Y030908D01*
X016564Y031215D01*
X016564Y029527D02*
X017024Y029527D01*
X009672Y029527D02*
X009672Y029757D01*
X009595Y029834D01*
X009442Y029834D01*
X009365Y029757D01*
X009365Y029527D01*
X009365Y029680D02*
X009212Y029834D01*
X009288Y029987D02*
X009212Y030064D01*
X009212Y030141D01*
X009288Y030217D01*
X009672Y030217D01*
X009672Y030141D02*
X009672Y030294D01*
X009442Y030447D02*
X009442Y030754D01*
X009519Y030908D02*
X009672Y031061D01*
X009212Y031061D01*
X009212Y030908D02*
X009212Y031215D01*
X009212Y029527D02*
X009672Y029527D01*
D19*
X017419Y029447D02*
X017639Y029447D01*
X017639Y029557D01*
X017603Y029594D01*
X017529Y029594D01*
X017493Y029557D01*
X017493Y029447D01*
X017419Y029668D02*
X017493Y029741D01*
X017419Y029815D01*
X017639Y029815D01*
X017639Y029889D02*
X017639Y029999D01*
X017603Y030036D01*
X017529Y030036D01*
X017493Y029999D01*
X017493Y029889D01*
X017493Y029962D02*
X017419Y030036D01*
X017419Y029889D02*
X017639Y029889D01*
X017639Y029668D02*
X017419Y029668D01*
X026048Y022751D02*
X026121Y022714D01*
X026194Y022641D01*
X026084Y022641D01*
X026048Y022604D01*
X026048Y022567D01*
X026084Y022530D01*
X026158Y022530D01*
X026194Y022567D01*
X026194Y022641D01*
X026269Y022641D02*
X026415Y022641D01*
X026305Y022751D01*
X026305Y022530D01*
X026490Y022567D02*
X026526Y022530D01*
X026600Y022530D01*
X026636Y022567D01*
X026636Y022714D01*
X026600Y022751D01*
X026526Y022751D01*
X026490Y022714D01*
X031942Y007625D02*
X033942Y007625D01*
X034599Y007546D02*
X036599Y007546D01*
D20*
X032108Y014549D02*
X032108Y014749D01*
X031708Y014699D02*
X031708Y014549D01*
D21*
X031708Y014764D03*
X032108Y014764D03*
D22*
X011008Y014332D03*
X011008Y010592D03*
X010648Y006916D03*
X010648Y003176D03*
X011008Y018265D03*
X011008Y022005D03*
D23*
X011800Y029633D02*
X011800Y035381D01*
X016288Y035381D01*
X016288Y029633D01*
X011800Y029633D01*
X008936Y029633D02*
X008936Y035381D01*
X004448Y035381D01*
X004448Y029633D01*
X008936Y029633D01*
X019152Y029633D02*
X019152Y035381D01*
X023641Y035381D01*
X023641Y029633D01*
X019152Y029633D01*
M02*
